  0
SECTION
  2
HEADER
  9
$ACADVER
  1
AC1009
  9
$EXTMIN
 10
0.0
 20
0.0
 30
0.0
  9
$EXTMAX
 10
1000.0
 20
1000.0
 30
0.0
  9
$FILLMODE
 70
 0
  9
$SPLFRAME
 70
 1
  0
ENDSEC
  0
SECTION
  2
TABLES
  0
TABLE
  2
LAYER
 70
1
  0
LAYER
  2
0
 70
     0
 62
     7
  6
CONTINUOUS
  0
ENDTAB
  0
ENDSEC
  0
SECTION
  2
ENTITIES
  0
POLYLINE
  8
0
 62
     0
 66
     1
 10
0
 20
0
 30
0.0
 70
     1
 40
0
 41
0
  0
VERTEX
  8
0
 10
264
 20
246.8
 30
0.0
 40
0
 41
0
  0
VERTEX
  8
0
 10
263.981
 20
247.428
 30
0.0
 40
0
 41
0
  0
VERTEX
  8
0
 10
263.921
 20
248.053
 30
0.0
 40
0
 41
0
  0
VERTEX
  8
0
 10
263.822
 20
248.674
 30
0.0
 40
0
 41
0
  0
VERTEX
  8
0
 10
263.686
 20
249.287
 30
0.0
 40
0
 41
0
  0
VERTEX
  8
0
 10
263.511
 20
249.89
 30
0.0
 40
0
 41
0
  0
VERTEX
  8
0
 10
263.297
 20
250.481
 30
0.0
 40
0
 41
0
  0
VERTEX
  8
0
 10
263.049
 20
251.058
 30
0.0
 40
0
 41
0
  0
VERTEX
  8
0
 10
262.763
 20
251.618
 30
0.0
 40
0
 41
0
  0
VERTEX
  8
0
 10
262.443
 20
252.158
 30
0.0
 40
0
 41
0
  0
VERTEX
  8
0
 10
262.09
 20
252.678
 30
0.0
 40
0
 41
0
  0
VERTEX
  8
0
 10
261.706
 20
253.174
 30
0.0
 40
0
 41
0
  0
VERTEX
  8
0
 10
261.289
 20
253.646
 30
0.0
 40
0
 41
0
  0
VERTEX
  8
0
 10
260.846
 20
254.09
 30
0.0
 40
0
 41
0
  0
VERTEX
  8
0
 10
260.374
 20
254.506
 30
0.0
 40
0
 41
0
  0
VERTEX
  8
0
 10
259.878
 20
254.89
 30
0.0
 40
0
 41
0
  0
VERTEX
  8
0
 10
259.358
 20
255.243
 30
0.0
 40
0
 41
0
  0
VERTEX
  8
0
 10
258.817
 20
255.563
 30
0.0
 40
0
 41
0
  0
VERTEX
  8
0
 10
258.258
 20
255.849
 30
0.0
 40
0
 41
0
  0
VERTEX
  8
0
 10
257.681
 20
256.097
 30
0.0
 40
0
 41
0
  0
VERTEX
  8
0
 10
257.09
 20
256.311
 30
0.0
 40
0
 41
0
  0
VERTEX
  8
0
 10
256.487
 20
256.486
 30
0.0
 40
0
 41
0
  0
VERTEX
  8
0
 10
255.874
 20
256.622
 30
0.0
 40
0
 41
0
  0
VERTEX
  8
0
 10
255.253
 20
256.721
 30
0.0
 40
0
 41
0
  0
VERTEX
  8
0
 10
254.628
 20
256.781
 30
0.0
 40
0
 41
0
  0
VERTEX
  8
0
 10
254
 20
256.8
 30
0.0
 40
0
 41
0
  0
VERTEX
  8
0
 10
253.372
 20
256.781
 30
0.0
 40
0
 41
0
  0
VERTEX
  8
0
 10
252.747
 20
256.721
 30
0.0
 40
0
 41
0
  0
VERTEX
  8
0
 10
252.126
 20
256.622
 30
0.0
 40
0
 41
0
  0
VERTEX
  8
0
 10
251.513
 20
256.486
 30
0.0
 40
0
 41
0
  0
VERTEX
  8
0
 10
250.91
 20
256.311
 30
0.0
 40
0
 41
0
  0
VERTEX
  8
0
 10
250.318
 20
256.097
 30
0.0
 40
0
 41
0
  0
VERTEX
  8
0
 10
249.742
 20
255.849
 30
0.0
 40
0
 41
0
  0
VERTEX
  8
0
 10
249.182
 20
255.563
 30
0.0
 40
0
 41
0
  0
VERTEX
  8
0
 10
248.642
 20
255.243
 30
0.0
 40
0
 41
0
  0
VERTEX
  8
0
 10
248.122
 20
254.89
 30
0.0
 40
0
 41
0
  0
VERTEX
  8
0
 10
247.625
 20
254.506
 30
0.0
 40
0
 41
0
  0
VERTEX
  8
0
 10
247.154
 20
254.09
 30
0.0
 40
0
 41
0
  0
VERTEX
  8
0
 10
246.71
 20
253.646
 30
0.0
 40
0
 41
0
  0
VERTEX
  8
0
 10
246.294
 20
253.174
 30
0.0
 40
0
 41
0
  0
VERTEX
  8
0
 10
245.91
 20
252.678
 30
0.0
 40
0
 41
0
  0
VERTEX
  8
0
 10
245.557
 20
252.158
 30
0.0
 40
0
 41
0
  0
VERTEX
  8
0
 10
245.237
 20
251.618
 30
0.0
 40
0
 41
0
  0
VERTEX
  8
0
 10
244.951
 20
251.058
 30
0.0
 40
0
 41
0
  0
VERTEX
  8
0
 10
244.703
 20
250.481
 30
0.0
 40
0
 41
0
  0
VERTEX
  8
0
 10
244.489
 20
249.89
 30
0.0
 40
0
 41
0
  0
VERTEX
  8
0
 10
244.314
 20
249.287
 30
0.0
 40
0
 41
0
  0
VERTEX
  8
0
 10
244.176
 20
248.674
 30
0.0
 40
0
 41
0
  0
VERTEX
  8
0
 10
244.079
 20
248.053
 30
0.0
 40
0
 41
0
  0
VERTEX
  8
0
 10
244.019
 20
247.428
 30
0.0
 40
0
 41
0
  0
VERTEX
  8
0
 10
244
 20
246.8
 30
0.0
 40
0
 41
0
  0
VERTEX
  8
0
 10
244.019
 20
246.172
 30
0.0
 40
0
 41
0
  0
VERTEX
  8
0
 10
244.079
 20
245.547
 30
0.0
 40
0
 41
0
  0
VERTEX
  8
0
 10
244.176
 20
244.926
 30
0.0
 40
0
 41
0
  0
VERTEX
  8
0
 10
244.314
 20
244.313
 30
0.0
 40
0
 41
0
  0
VERTEX
  8
0
 10
244.489
 20
243.71
 30
0.0
 40
0
 41
0
  0
VERTEX
  8
0
 10
244.703
 20
243.119
 30
0.0
 40
0
 41
0
  0
VERTEX
  8
0
 10
244.951
 20
242.542
 30
0.0
 40
0
 41
0
  0
VERTEX
  8
0
 10
245.237
 20
241.982
 30
0.0
 40
0
 41
0
  0
VERTEX
  8
0
 10
245.557
 20
241.442
 30
0.0
 40
0
 41
0
  0
VERTEX
  8
0
 10
245.91
 20
240.922
 30
0.0
 40
0
 41
0
  0
VERTEX
  8
0
 10
246.294
 20
240.425
 30
0.0
 40
0
 41
0
  0
VERTEX
  8
0
 10
246.71
 20
239.954
 30
0.0
 40
0
 41
0
  0
VERTEX
  8
0
 10
247.154
 20
239.51
 30
0.0
 40
0
 41
0
  0
VERTEX
  8
0
 10
247.625
 20
239.094
 30
0.0
 40
0
 41
0
  0
VERTEX
  8
0
 10
248.122
 20
238.71
 30
0.0
 40
0
 41
0
  0
VERTEX
  8
0
 10
248.642
 20
238.357
 30
0.0
 40
0
 41
0
  0
VERTEX
  8
0
 10
249.182
 20
238.037
 30
0.0
 40
0
 41
0
  0
VERTEX
  8
0
 10
249.742
 20
237.751
 30
0.0
 40
0
 41
0
  0
VERTEX
  8
0
 10
250.318
 20
237.503
 30
0.0
 40
0
 41
0
  0
VERTEX
  8
0
 10
250.91
 20
237.289
 30
0.0
 40
0
 41
0
  0
VERTEX
  8
0
 10
251.513
 20
237.114
 30
0.0
 40
0
 41
0
  0
VERTEX
  8
0
 10
252.126
 20
236.976
 30
0.0
 40
0
 41
0
  0
VERTEX
  8
0
 10
252.747
 20
236.879
 30
0.0
 40
0
 41
0
  0
VERTEX
  8
0
 10
253.372
 20
236.819
 30
0.0
 40
0
 41
0
  0
VERTEX
  8
0
 10
254
 20
236.8
 30
0.0
 40
0
 41
0
  0
VERTEX
  8
0
 10
254.628
 20
236.819
 30
0.0
 40
0
 41
0
  0
VERTEX
  8
0
 10
255.253
 20
236.879
 30
0.0
 40
0
 41
0
  0
VERTEX
  8
0
 10
255.874
 20
236.976
 30
0.0
 40
0
 41
0
  0
VERTEX
  8
0
 10
256.487
 20
237.114
 30
0.0
 40
0
 41
0
  0
VERTEX
  8
0
 10
257.09
 20
237.289
 30
0.0
 40
0
 41
0
  0
VERTEX
  8
0
 10
257.681
 20
237.503
 30
0.0
 40
0
 41
0
  0
VERTEX
  8
0
 10
258.258
 20
237.751
 30
0.0
 40
0
 41
0
  0
VERTEX
  8
0
 10
258.817
 20
238.037
 30
0.0
 40
0
 41
0
  0
VERTEX
  8
0
 10
259.358
 20
238.357
 30
0.0
 40
0
 41
0
  0
VERTEX
  8
0
 10
259.878
 20
238.71
 30
0.0
 40
0
 41
0
  0
VERTEX
  8
0
 10
260.374
 20
239.094
 30
0.0
 40
0
 41
0
  0
VERTEX
  8
0
 10
260.846
 20
239.51
 30
0.0
 40
0
 41
0
  0
VERTEX
  8
0
 10
261.289
 20
239.954
 30
0.0
 40
0
 41
0
  0
VERTEX
  8
0
 10
261.706
 20
240.425
 30
0.0
 40
0
 41
0
  0
VERTEX
  8
0
 10
262.09
 20
240.922
 30
0.0
 40
0
 41
0
  0
VERTEX
  8
0
 10
262.443
 20
241.442
 30
0.0
 40
0
 41
0
  0
VERTEX
  8
0
 10
262.763
 20
241.982
 30
0.0
 40
0
 41
0
  0
VERTEX
  8
0
 10
263.049
 20
242.542
 30
0.0
 40
0
 41
0
  0
VERTEX
  8
0
 10
263.297
 20
243.119
 30
0.0
 40
0
 41
0
  0
VERTEX
  8
0
 10
263.511
 20
243.71
 30
0.0
 40
0
 41
0
  0
VERTEX
  8
0
 10
263.686
 20
244.313
 30
0.0
 40
0
 41
0
  0
VERTEX
  8
0
 10
263.822
 20
244.926
 30
0.0
 40
0
 41
0
  0
VERTEX
  8
0
 10
263.921
 20
245.547
 30
0.0
 40
0
 41
0
  0
VERTEX
  8
0
 10
263.981
 20
246.172
 30
0.0
 40
0
 41
0
  0
VERTEX
  8
0
 10
264
 20
246.8
 30
0.0
 40
0
 41
0
  0
SEQEND
 8
0
  0
POLYLINE
  8
0
 62
     0
 66
     1
 10
0
 20
0
 30
0.0
 70
     1
 40
0.75
 41
0.75
  0
VERTEX
  8
0
 10
264
 20
246.8
 30
0.0
 40
0.0104167
 41
0.0104167
  0
VERTEX
  8
0
 10
263.981
 20
247.428
 30
0.0
 40
0.0104167
 41
0.0104167
  0
VERTEX
  8
0
 10
263.921
 20
248.053
 30
0.0
 40
0.0104167
 41
0.0104167
  0
VERTEX
  8
0
 10
263.822
 20
248.674
 30
0.0
 40
0.0104167
 41
0.0104167
  0
VERTEX
  8
0
 10
263.686
 20
249.287
 30
0.0
 40
0.0104167
 41
0.0104167
  0
VERTEX
  8
0
 10
263.511
 20
249.89
 30
0.0
 40
0.0104167
 41
0.0104167
  0
VERTEX
  8
0
 10
263.297
 20
250.481
 30
0.0
 40
0.0104167
 41
0.0104167
  0
VERTEX
  8
0
 10
263.049
 20
251.058
 30
0.0
 40
0.0104167
 41
0.0104167
  0
VERTEX
  8
0
 10
262.763
 20
251.618
 30
0.0
 40
0.0104167
 41
0.0104167
  0
VERTEX
  8
0
 10
262.443
 20
252.158
 30
0.0
 40
0.0104167
 41
0.0104167
  0
VERTEX
  8
0
 10
262.09
 20
252.678
 30
0.0
 40
0.0104167
 41
0.0104167
  0
VERTEX
  8
0
 10
261.706
 20
253.174
 30
0.0
 40
0.0104167
 41
0.0104167
  0
VERTEX
  8
0
 10
261.289
 20
253.646
 30
0.0
 40
0.0104167
 41
0.0104167
  0
VERTEX
  8
0
 10
260.846
 20
254.09
 30
0.0
 40
0.0104167
 41
0.0104167
  0
VERTEX
  8
0
 10
260.374
 20
254.506
 30
0.0
 40
0.0104167
 41
0.0104167
  0
VERTEX
  8
0
 10
259.878
 20
254.89
 30
0.0
 40
0.0104167
 41
0.0104167
  0
VERTEX
  8
0
 10
259.358
 20
255.243
 30
0.0
 40
0.0104167
 41
0.0104167
  0
VERTEX
  8
0
 10
258.817
 20
255.563
 30
0.0
 40
0.0104167
 41
0.0104167
  0
VERTEX
  8
0
 10
258.258
 20
255.849
 30
0.0
 40
0.0104167
 41
0.0104167
  0
VERTEX
  8
0
 10
257.681
 20
256.097
 30
0.0
 40
0.0104167
 41
0.0104167
  0
VERTEX
  8
0
 10
257.09
 20
256.311
 30
0.0
 40
0.0104167
 41
0.0104167
  0
VERTEX
  8
0
 10
256.487
 20
256.486
 30
0.0
 40
0.0104167
 41
0.0104167
  0
VERTEX
  8
0
 10
255.874
 20
256.622
 30
0.0
 40
0.0104167
 41
0.0104167
  0
VERTEX
  8
0
 10
255.253
 20
256.721
 30
0.0
 40
0.0104167
 41
0.0104167
  0
VERTEX
  8
0
 10
254.628
 20
256.781
 30
0.0
 40
0.0104167
 41
0.0104167
  0
VERTEX
  8
0
 10
254
 20
256.8
 30
0.0
 40
0.0104167
 41
0.0104167
  0
VERTEX
  8
0
 10
253.372
 20
256.781
 30
0.0
 40
0.0104167
 41
0.0104167
  0
VERTEX
  8
0
 10
252.747
 20
256.721
 30
0.0
 40
0.0104167
 41
0.0104167
  0
VERTEX
  8
0
 10
252.126
 20
256.622
 30
0.0
 40
0.0104167
 41
0.0104167
  0
VERTEX
  8
0
 10
251.513
 20
256.486
 30
0.0
 40
0.0104167
 41
0.0104167
  0
VERTEX
  8
0
 10
250.91
 20
256.311
 30
0.0
 40
0.0104167
 41
0.0104167
  0
VERTEX
  8
0
 10
250.318
 20
256.097
 30
0.0
 40
0.0104167
 41
0.0104167
  0
VERTEX
  8
0
 10
249.742
 20
255.849
 30
0.0
 40
0.0104167
 41
0.0104167
  0
VERTEX
  8
0
 10
249.182
 20
255.563
 30
0.0
 40
0.0104167
 41
0.0104167
  0
VERTEX
  8
0
 10
248.642
 20
255.243
 30
0.0
 40
0.0104167
 41
0.0104167
  0
VERTEX
  8
0
 10
248.122
 20
254.89
 30
0.0
 40
0.0104167
 41
0.0104167
  0
VERTEX
  8
0
 10
247.625
 20
254.506
 30
0.0
 40
0.0104167
 41
0.0104167
  0
VERTEX
  8
0
 10
247.154
 20
254.09
 30
0.0
 40
0.0104167
 41
0.0104167
  0
VERTEX
  8
0
 10
246.71
 20
253.646
 30
0.0
 40
0.0104167
 41
0.0104167
  0
VERTEX
  8
0
 10
246.294
 20
253.174
 30
0.0
 40
0.0104167
 41
0.0104167
  0
VERTEX
  8
0
 10
245.91
 20
252.678
 30
0.0
 40
0.0104167
 41
0.0104167
  0
VERTEX
  8
0
 10
245.557
 20
252.158
 30
0.0
 40
0.0104167
 41
0.0104167
  0
VERTEX
  8
0
 10
245.237
 20
251.618
 30
0.0
 40
0.0104167
 41
0.0104167
  0
VERTEX
  8
0
 10
244.951
 20
251.058
 30
0.0
 40
0.0104167
 41
0.0104167
  0
VERTEX
  8
0
 10
244.703
 20
250.481
 30
0.0
 40
0.0104167
 41
0.0104167
  0
VERTEX
  8
0
 10
244.489
 20
249.89
 30
0.0
 40
0.0104167
 41
0.0104167
  0
VERTEX
  8
0
 10
244.314
 20
249.287
 30
0.0
 40
0.0104167
 41
0.0104167
  0
VERTEX
  8
0
 10
244.176
 20
248.674
 30
0.0
 40
0.0104167
 41
0.0104167
  0
VERTEX
  8
0
 10
244.079
 20
248.053
 30
0.0
 40
0.0104167
 41
0.0104167
  0
VERTEX
  8
0
 10
244.019
 20
247.428
 30
0.0
 40
0.0104167
 41
0.0104167
  0
VERTEX
  8
0
 10
244
 20
246.8
 30
0.0
 40
0.0104167
 41
0.0104167
  0
VERTEX
  8
0
 10
244.019
 20
246.172
 30
0.0
 40
0.0104167
 41
0.0104167
  0
VERTEX
  8
0
 10
244.079
 20
245.547
 30
0.0
 40
0.0104167
 41
0.0104167
  0
VERTEX
  8
0
 10
244.176
 20
244.926
 30
0.0
 40
0.0104167
 41
0.0104167
  0
VERTEX
  8
0
 10
244.314
 20
244.313
 30
0.0
 40
0.0104167
 41
0.0104167
  0
VERTEX
  8
0
 10
244.489
 20
243.71
 30
0.0
 40
0.0104167
 41
0.0104167
  0
VERTEX
  8
0
 10
244.703
 20
243.119
 30
0.0
 40
0.0104167
 41
0.0104167
  0
VERTEX
  8
0
 10
244.951
 20
242.542
 30
0.0
 40
0.0104167
 41
0.0104167
  0
VERTEX
  8
0
 10
245.237
 20
241.982
 30
0.0
 40
0.0104167
 41
0.0104167
  0
VERTEX
  8
0
 10
245.557
 20
241.442
 30
0.0
 40
0.0104167
 41
0.0104167
  0
VERTEX
  8
0
 10
245.91
 20
240.922
 30
0.0
 40
0.0104167
 41
0.0104167
  0
VERTEX
  8
0
 10
246.294
 20
240.425
 30
0.0
 40
0.0104167
 41
0.0104167
  0
VERTEX
  8
0
 10
246.71
 20
239.954
 30
0.0
 40
0.0104167
 41
0.0104167
  0
VERTEX
  8
0
 10
247.154
 20
239.51
 30
0.0
 40
0.0104167
 41
0.0104167
  0
VERTEX
  8
0
 10
247.625
 20
239.094
 30
0.0
 40
0.0104167
 41
0.0104167
  0
VERTEX
  8
0
 10
248.122
 20
238.71
 30
0.0
 40
0.0104167
 41
0.0104167
  0
VERTEX
  8
0
 10
248.642
 20
238.357
 30
0.0
 40
0.0104167
 41
0.0104167
  0
VERTEX
  8
0
 10
249.182
 20
238.037
 30
0.0
 40
0.0104167
 41
0.0104167
  0
VERTEX
  8
0
 10
249.742
 20
237.751
 30
0.0
 40
0.0104167
 41
0.0104167
  0
VERTEX
  8
0
 10
250.318
 20
237.503
 30
0.0
 40
0.0104167
 41
0.0104167
  0
VERTEX
  8
0
 10
250.91
 20
237.289
 30
0.0
 40
0.0104167
 41
0.0104167
  0
VERTEX
  8
0
 10
251.513
 20
237.114
 30
0.0
 40
0.0104167
 41
0.0104167
  0
VERTEX
  8
0
 10
252.126
 20
236.976
 30
0.0
 40
0.0104167
 41
0.0104167
  0
VERTEX
  8
0
 10
252.747
 20
236.879
 30
0.0
 40
0.0104167
 41
0.0104167
  0
VERTEX
  8
0
 10
253.372
 20
236.819
 30
0.0
 40
0.0104167
 41
0.0104167
  0
VERTEX
  8
0
 10
254
 20
236.8
 30
0.0
 40
0.0104167
 41
0.0104167
  0
VERTEX
  8
0
 10
254.628
 20
236.819
 30
0.0
 40
0.0104167
 41
0.0104167
  0
VERTEX
  8
0
 10
255.253
 20
236.879
 30
0.0
 40
0.0104167
 41
0.0104167
  0
VERTEX
  8
0
 10
255.874
 20
236.976
 30
0.0
 40
0.0104167
 41
0.0104167
  0
VERTEX
  8
0
 10
256.487
 20
237.114
 30
0.0
 40
0.0104167
 41
0.0104167
  0
VERTEX
  8
0
 10
257.09
 20
237.289
 30
0.0
 40
0.0104167
 41
0.0104167
  0
VERTEX
  8
0
 10
257.681
 20
237.503
 30
0.0
 40
0.0104167
 41
0.0104167
  0
VERTEX
  8
0
 10
258.258
 20
237.751
 30
0.0
 40
0.0104167
 41
0.0104167
  0
VERTEX
  8
0
 10
258.817
 20
238.037
 30
0.0
 40
0.0104167
 41
0.0104167
  0
VERTEX
  8
0
 10
259.358
 20
238.357
 30
0.0
 40
0.0104167
 41
0.0104167
  0
VERTEX
  8
0
 10
259.878
 20
238.71
 30
0.0
 40
0.0104167
 41
0.0104167
  0
VERTEX
  8
0
 10
260.374
 20
239.094
 30
0.0
 40
0.0104167
 41
0.0104167
  0
VERTEX
  8
0
 10
260.846
 20
239.51
 30
0.0
 40
0.0104167
 41
0.0104167
  0
VERTEX
  8
0
 10
261.289
 20
239.954
 30
0.0
 40
0.0104167
 41
0.0104167
  0
VERTEX
  8
0
 10
261.706
 20
240.425
 30
0.0
 40
0.0104167
 41
0.0104167
  0
VERTEX
  8
0
 10
262.09
 20
240.922
 30
0.0
 40
0.0104167
 41
0.0104167
  0
VERTEX
  8
0
 10
262.443
 20
241.442
 30
0.0
 40
0.0104167
 41
0.0104167
  0
VERTEX
  8
0
 10
262.763
 20
241.982
 30
0.0
 40
0.0104167
 41
0.0104167
  0
VERTEX
  8
0
 10
263.049
 20
242.542
 30
0.0
 40
0.0104167
 41
0.0104167
  0
VERTEX
  8
0
 10
263.297
 20
243.119
 30
0.0
 40
0.0104167
 41
0.0104167
  0
VERTEX
  8
0
 10
263.511
 20
243.71
 30
0.0
 40
0.0104167
 41
0.0104167
  0
VERTEX
  8
0
 10
263.686
 20
244.313
 30
0.0
 40
0.0104167
 41
0.0104167
  0
VERTEX
  8
0
 10
263.822
 20
244.926
 30
0.0
 40
0.0104167
 41
0.0104167
  0
VERTEX
  8
0
 10
263.921
 20
245.547
 30
0.0
 40
0.0104167
 41
0.0104167
  0
VERTEX
  8
0
 10
263.981
 20
246.172
 30
0.0
 40
0.0104167
 41
0.0104167
  0
VERTEX
  8
0
 10
264
 20
246.8
 30
0.0
 40
0.0104167
 41
0.0104167
  0
SEQEND
 8
0
  0
POLYLINE
  8
0
 62
     0
 66
     1
 10
0
 20
0
 30
0.0
 70
     1
 40
0
 41
0
  0
VERTEX
  8
0
 10
264
 20
22.7
 30
0.0
 40
0
 41
0
  0
VERTEX
  8
0
 10
263.981
 20
23.3279
 30
0.0
 40
0
 41
0
  0
VERTEX
  8
0
 10
263.921
 20
23.9533
 30
0.0
 40
0
 41
0
  0
VERTEX
  8
0
 10
263.822
 20
24.5738
 30
0.0
 40
0
 41
0
  0
VERTEX
  8
0
 10
263.686
 20
25.1869
 30
0.0
 40
0
 41
0
  0
VERTEX
  8
0
 10
263.511
 20
25.7901
 30
0.0
 40
0
 41
0
  0
VERTEX
  8
0
 10
263.297
 20
26.3812
 30
0.0
 40
0
 41
0
  0
VERTEX
  8
0
 10
263.049
 20
26.9578
 30
0.0
 40
0
 41
0
  0
VERTEX
  8
0
 10
262.763
 20
27.5175
 30
0.0
 40
0
 41
0
  0
VERTEX
  8
0
 10
262.443
 20
28.0582
 30
0.0
 40
0
 41
0
  0
VERTEX
  8
0
 10
262.09
 20
28.5778
 30
0.0
 40
0
 41
0
  0
VERTEX
  8
0
 10
261.706
 20
29.0742
 30
0.0
 40
0
 41
0
  0
VERTEX
  8
0
 10
261.289
 20
29.5454
 30
0.0
 40
0
 41
0
  0
VERTEX
  8
0
 10
260.846
 20
29.9897
 30
0.0
 40
0
 41
0
  0
VERTEX
  8
0
 10
260.374
 20
30.4051
 30
0.0
 40
0
 41
0
  0
VERTEX
  8
0
 10
259.878
 20
30.7901
 30
0.0
 40
0
 41
0
  0
VERTEX
  8
0
 10
259.358
 20
31.1433
 30
0.0
 40
0
 41
0
  0
VERTEX
  8
0
 10
258.817
 20
31.4631
 30
0.0
 40
0
 41
0
  0
VERTEX
  8
0
 10
258.258
 20
31.7482
 30
0.0
 40
0
 41
0
  0
VERTEX
  8
0
 10
257.681
 20
31.9978
 30
0.0
 40
0
 41
0
  0
VERTEX
  8
0
 10
257.09
 20
32.2106
 30
0.0
 40
0
 41
0
  0
VERTEX
  8
0
 10
256.487
 20
32.3858
 30
0.0
 40
0
 41
0
  0
VERTEX
  8
0
 10
255.874
 20
32.5229
 30
0.0
 40
0
 41
0
  0
VERTEX
  8
0
 10
255.253
 20
32.6211
 30
0.0
 40
0
 41
0
  0
VERTEX
  8
0
 10
254.628
 20
32.6803
 30
0.0
 40
0
 41
0
  0
VERTEX
  8
0
 10
254
 20
32.7
 30
0.0
 40
0
 41
0
  0
VERTEX
  8
0
 10
253.372
 20
32.6803
 30
0.0
 40
0
 41
0
  0
VERTEX
  8
0
 10
252.747
 20
32.6211
 30
0.0
 40
0
 41
0
  0
VERTEX
  8
0
 10
252.126
 20
32.5229
 30
0.0
 40
0
 41
0
  0
VERTEX
  8
0
 10
251.513
 20
32.3858
 30
0.0
 40
0
 41
0
  0
VERTEX
  8
0
 10
250.91
 20
32.2106
 30
0.0
 40
0
 41
0
  0
VERTEX
  8
0
 10
250.318
 20
31.9978
 30
0.0
 40
0
 41
0
  0
VERTEX
  8
0
 10
249.742
 20
31.7482
 30
0.0
 40
0
 41
0
  0
VERTEX
  8
0
 10
249.182
 20
31.4631
 30
0.0
 40
0
 41
0
  0
VERTEX
  8
0
 10
248.642
 20
31.1433
 30
0.0
 40
0
 41
0
  0
VERTEX
  8
0
 10
248.122
 20
30.7901
 30
0.0
 40
0
 41
0
  0
VERTEX
  8
0
 10
247.625
 20
30.4051
 30
0.0
 40
0
 41
0
  0
VERTEX
  8
0
 10
247.154
 20
29.9897
 30
0.0
 40
0
 41
0
  0
VERTEX
  8
0
 10
246.71
 20
29.5454
 30
0.0
 40
0
 41
0
  0
VERTEX
  8
0
 10
246.294
 20
29.0742
 30
0.0
 40
0
 41
0
  0
VERTEX
  8
0
 10
245.91
 20
28.5778
 30
0.0
 40
0
 41
0
  0
VERTEX
  8
0
 10
245.557
 20
28.0582
 30
0.0
 40
0
 41
0
  0
VERTEX
  8
0
 10
245.237
 20
27.5175
 30
0.0
 40
0
 41
0
  0
VERTEX
  8
0
 10
244.951
 20
26.9578
 30
0.0
 40
0
 41
0
  0
VERTEX
  8
0
 10
244.703
 20
26.3812
 30
0.0
 40
0
 41
0
  0
VERTEX
  8
0
 10
244.489
 20
25.7901
 30
0.0
 40
0
 41
0
  0
VERTEX
  8
0
 10
244.314
 20
25.1869
 30
0.0
 40
0
 41
0
  0
VERTEX
  8
0
 10
244.176
 20
24.5738
 30
0.0
 40
0
 41
0
  0
VERTEX
  8
0
 10
244.079
 20
23.9533
 30
0.0
 40
0
 41
0
  0
VERTEX
  8
0
 10
244.019
 20
23.3279
 30
0.0
 40
0
 41
0
  0
VERTEX
  8
0
 10
244
 20
22.7
 30
0.0
 40
0
 41
0
  0
VERTEX
  8
0
 10
244.019
 20
22.0721
 30
0.0
 40
0
 41
0
  0
VERTEX
  8
0
 10
244.079
 20
21.4467
 30
0.0
 40
0
 41
0
  0
VERTEX
  8
0
 10
244.176
 20
20.8261
 30
0.0
 40
0
 41
0
  0
VERTEX
  8
0
 10
244.314
 20
20.2131
 30
0.0
 40
0
 41
0
  0
VERTEX
  8
0
 10
244.489
 20
19.6099
 30
0.0
 40
0
 41
0
  0
VERTEX
  8
0
 10
244.703
 20
19.0187
 30
0.0
 40
0
 41
0
  0
VERTEX
  8
0
 10
244.951
 20
18.4422
 30
0.0
 40
0
 41
0
  0
VERTEX
  8
0
 10
245.237
 20
17.8825
 30
0.0
 40
0
 41
0
  0
VERTEX
  8
0
 10
245.557
 20
17.3417
 30
0.0
 40
0
 41
0
  0
VERTEX
  8
0
 10
245.91
 20
16.8221
 30
0.0
 40
0
 41
0
  0
VERTEX
  8
0
 10
246.294
 20
16.3257
 30
0.0
 40
0
 41
0
  0
VERTEX
  8
0
 10
246.71
 20
15.8546
 30
0.0
 40
0
 41
0
  0
VERTEX
  8
0
 10
247.154
 20
15.4103
 30
0.0
 40
0
 41
0
  0
VERTEX
  8
0
 10
247.625
 20
14.9949
 30
0.0
 40
0
 41
0
  0
VERTEX
  8
0
 10
248.122
 20
14.6099
 30
0.0
 40
0
 41
0
  0
VERTEX
  8
0
 10
248.642
 20
14.2567
 30
0.0
 40
0
 41
0
  0
VERTEX
  8
0
 10
249.182
 20
13.9369
 30
0.0
 40
0
 41
0
  0
VERTEX
  8
0
 10
249.742
 20
13.6516
 30
0.0
 40
0
 41
0
  0
VERTEX
  8
0
 10
250.318
 20
13.4022
 30
0.0
 40
0
 41
0
  0
VERTEX
  8
0
 10
250.91
 20
13.1895
 30
0.0
 40
0
 41
0
  0
VERTEX
  8
0
 10
251.513
 20
13.0142
 30
0.0
 40
0
 41
0
  0
VERTEX
  8
0
 10
252.126
 20
12.8771
 30
0.0
 40
0
 41
0
  0
VERTEX
  8
0
 10
252.747
 20
12.7789
 30
0.0
 40
0
 41
0
  0
VERTEX
  8
0
 10
253.372
 20
12.7197
 30
0.0
 40
0
 41
0
  0
VERTEX
  8
0
 10
254
 20
12.7
 30
0.0
 40
0
 41
0
  0
VERTEX
  8
0
 10
254.628
 20
12.7197
 30
0.0
 40
0
 41
0
  0
VERTEX
  8
0
 10
255.253
 20
12.7789
 30
0.0
 40
0
 41
0
  0
VERTEX
  8
0
 10
255.874
 20
12.8771
 30
0.0
 40
0
 41
0
  0
VERTEX
  8
0
 10
256.487
 20
13.0142
 30
0.0
 40
0
 41
0
  0
VERTEX
  8
0
 10
257.09
 20
13.1895
 30
0.0
 40
0
 41
0
  0
VERTEX
  8
0
 10
257.681
 20
13.4022
 30
0.0
 40
0
 41
0
  0
VERTEX
  8
0
 10
258.258
 20
13.6516
 30
0.0
 40
0
 41
0
  0
VERTEX
  8
0
 10
258.817
 20
13.9369
 30
0.0
 40
0
 41
0
  0
VERTEX
  8
0
 10
259.358
 20
14.2567
 30
0.0
 40
0
 41
0
  0
VERTEX
  8
0
 10
259.878
 20
14.6099
 30
0.0
 40
0
 41
0
  0
VERTEX
  8
0
 10
260.374
 20
14.9949
 30
0.0
 40
0
 41
0
  0
VERTEX
  8
0
 10
260.846
 20
15.4103
 30
0.0
 40
0
 41
0
  0
VERTEX
  8
0
 10
261.289
 20
15.8546
 30
0.0
 40
0
 41
0
  0
VERTEX
  8
0
 10
261.706
 20
16.3257
 30
0.0
 40
0
 41
0
  0
VERTEX
  8
0
 10
262.09
 20
16.8221
 30
0.0
 40
0
 41
0
  0
VERTEX
  8
0
 10
262.443
 20
17.3417
 30
0.0
 40
0
 41
0
  0
VERTEX
  8
0
 10
262.763
 20
17.8825
 30
0.0
 40
0
 41
0
  0
VERTEX
  8
0
 10
263.049
 20
18.4422
 30
0.0
 40
0
 41
0
  0
VERTEX
  8
0
 10
263.297
 20
19.0187
 30
0.0
 40
0
 41
0
  0
VERTEX
  8
0
 10
263.511
 20
19.6099
 30
0.0
 40
0
 41
0
  0
VERTEX
  8
0
 10
263.686
 20
20.2131
 30
0.0
 40
0
 41
0
  0
VERTEX
  8
0
 10
263.822
 20
20.8261
 30
0.0
 40
0
 41
0
  0
VERTEX
  8
0
 10
263.921
 20
21.4467
 30
0.0
 40
0
 41
0
  0
VERTEX
  8
0
 10
263.981
 20
22.0721
 30
0.0
 40
0
 41
0
  0
VERTEX
  8
0
 10
264
 20
22.7
 30
0.0
 40
0
 41
0
  0
SEQEND
 8
0
  0
POLYLINE
  8
0
 62
     0
 66
     1
 10
0
 20
0
 30
0.0
 70
     1
 40
0.75
 41
0.75
  0
VERTEX
  8
0
 10
264
 20
22.7
 30
0.0
 40
0.0104167
 41
0.0104167
  0
VERTEX
  8
0
 10
263.981
 20
23.3279
 30
0.0
 40
0.0104167
 41
0.0104167
  0
VERTEX
  8
0
 10
263.921
 20
23.9533
 30
0.0
 40
0.0104167
 41
0.0104167
  0
VERTEX
  8
0
 10
263.822
 20
24.5738
 30
0.0
 40
0.0104167
 41
0.0104167
  0
VERTEX
  8
0
 10
263.686
 20
25.1869
 30
0.0
 40
0.0104167
 41
0.0104167
  0
VERTEX
  8
0
 10
263.511
 20
25.7901
 30
0.0
 40
0.0104167
 41
0.0104167
  0
VERTEX
  8
0
 10
263.297
 20
26.3812
 30
0.0
 40
0.0104167
 41
0.0104167
  0
VERTEX
  8
0
 10
263.049
 20
26.9578
 30
0.0
 40
0.0104167
 41
0.0104167
  0
VERTEX
  8
0
 10
262.763
 20
27.5175
 30
0.0
 40
0.0104167
 41
0.0104167
  0
VERTEX
  8
0
 10
262.443
 20
28.0582
 30
0.0
 40
0.0104167
 41
0.0104167
  0
VERTEX
  8
0
 10
262.09
 20
28.5778
 30
0.0
 40
0.0104167
 41
0.0104167
  0
VERTEX
  8
0
 10
261.706
 20
29.0742
 30
0.0
 40
0.0104167
 41
0.0104167
  0
VERTEX
  8
0
 10
261.289
 20
29.5454
 30
0.0
 40
0.0104167
 41
0.0104167
  0
VERTEX
  8
0
 10
260.846
 20
29.9897
 30
0.0
 40
0.0104167
 41
0.0104167
  0
VERTEX
  8
0
 10
260.374
 20
30.4051
 30
0.0
 40
0.0104167
 41
0.0104167
  0
VERTEX
  8
0
 10
259.878
 20
30.7901
 30
0.0
 40
0.0104167
 41
0.0104167
  0
VERTEX
  8
0
 10
259.358
 20
31.1433
 30
0.0
 40
0.0104167
 41
0.0104167
  0
VERTEX
  8
0
 10
258.817
 20
31.4631
 30
0.0
 40
0.0104167
 41
0.0104167
  0
VERTEX
  8
0
 10
258.258
 20
31.7482
 30
0.0
 40
0.0104167
 41
0.0104167
  0
VERTEX
  8
0
 10
257.681
 20
31.9978
 30
0.0
 40
0.0104167
 41
0.0104167
  0
VERTEX
  8
0
 10
257.09
 20
32.2106
 30
0.0
 40
0.0104167
 41
0.0104167
  0
VERTEX
  8
0
 10
256.487
 20
32.3858
 30
0.0
 40
0.0104167
 41
0.0104167
  0
VERTEX
  8
0
 10
255.874
 20
32.5229
 30
0.0
 40
0.0104167
 41
0.0104167
  0
VERTEX
  8
0
 10
255.253
 20
32.6211
 30
0.0
 40
0.0104167
 41
0.0104167
  0
VERTEX
  8
0
 10
254.628
 20
32.6803
 30
0.0
 40
0.0104167
 41
0.0104167
  0
VERTEX
  8
0
 10
254
 20
32.7
 30
0.0
 40
0.0104167
 41
0.0104167
  0
VERTEX
  8
0
 10
253.372
 20
32.6803
 30
0.0
 40
0.0104167
 41
0.0104167
  0
VERTEX
  8
0
 10
252.747
 20
32.6211
 30
0.0
 40
0.0104167
 41
0.0104167
  0
VERTEX
  8
0
 10
252.126
 20
32.5229
 30
0.0
 40
0.0104167
 41
0.0104167
  0
VERTEX
  8
0
 10
251.513
 20
32.3858
 30
0.0
 40
0.0104167
 41
0.0104167
  0
VERTEX
  8
0
 10
250.91
 20
32.2106
 30
0.0
 40
0.0104167
 41
0.0104167
  0
VERTEX
  8
0
 10
250.318
 20
31.9978
 30
0.0
 40
0.0104167
 41
0.0104167
  0
VERTEX
  8
0
 10
249.742
 20
31.7482
 30
0.0
 40
0.0104167
 41
0.0104167
  0
VERTEX
  8
0
 10
249.182
 20
31.4631
 30
0.0
 40
0.0104167
 41
0.0104167
  0
VERTEX
  8
0
 10
248.642
 20
31.1433
 30
0.0
 40
0.0104167
 41
0.0104167
  0
VERTEX
  8
0
 10
248.122
 20
30.7901
 30
0.0
 40
0.0104167
 41
0.0104167
  0
VERTEX
  8
0
 10
247.625
 20
30.4051
 30
0.0
 40
0.0104167
 41
0.0104167
  0
VERTEX
  8
0
 10
247.154
 20
29.9897
 30
0.0
 40
0.0104167
 41
0.0104167
  0
VERTEX
  8
0
 10
246.71
 20
29.5454
 30
0.0
 40
0.0104167
 41
0.0104167
  0
VERTEX
  8
0
 10
246.294
 20
29.0742
 30
0.0
 40
0.0104167
 41
0.0104167
  0
VERTEX
  8
0
 10
245.91
 20
28.5778
 30
0.0
 40
0.0104167
 41
0.0104167
  0
VERTEX
  8
0
 10
245.557
 20
28.0582
 30
0.0
 40
0.0104167
 41
0.0104167
  0
VERTEX
  8
0
 10
245.237
 20
27.5175
 30
0.0
 40
0.0104167
 41
0.0104167
  0
VERTEX
  8
0
 10
244.951
 20
26.9578
 30
0.0
 40
0.0104167
 41
0.0104167
  0
VERTEX
  8
0
 10
244.703
 20
26.3812
 30
0.0
 40
0.0104167
 41
0.0104167
  0
VERTEX
  8
0
 10
244.489
 20
25.7901
 30
0.0
 40
0.0104167
 41
0.0104167
  0
VERTEX
  8
0
 10
244.314
 20
25.1869
 30
0.0
 40
0.0104167
 41
0.0104167
  0
VERTEX
  8
0
 10
244.176
 20
24.5738
 30
0.0
 40
0.0104167
 41
0.0104167
  0
VERTEX
  8
0
 10
244.079
 20
23.9533
 30
0.0
 40
0.0104167
 41
0.0104167
  0
VERTEX
  8
0
 10
244.019
 20
23.3279
 30
0.0
 40
0.0104167
 41
0.0104167
  0
VERTEX
  8
0
 10
244
 20
22.7
 30
0.0
 40
0.0104167
 41
0.0104167
  0
VERTEX
  8
0
 10
244.019
 20
22.0721
 30
0.0
 40
0.0104167
 41
0.0104167
  0
VERTEX
  8
0
 10
244.079
 20
21.4467
 30
0.0
 40
0.0104167
 41
0.0104167
  0
VERTEX
  8
0
 10
244.176
 20
20.8261
 30
0.0
 40
0.0104167
 41
0.0104167
  0
VERTEX
  8
0
 10
244.314
 20
20.2131
 30
0.0
 40
0.0104167
 41
0.0104167
  0
VERTEX
  8
0
 10
244.489
 20
19.6099
 30
0.0
 40
0.0104167
 41
0.0104167
  0
VERTEX
  8
0
 10
244.703
 20
19.0187
 30
0.0
 40
0.0104167
 41
0.0104167
  0
VERTEX
  8
0
 10
244.951
 20
18.4422
 30
0.0
 40
0.0104167
 41
0.0104167
  0
VERTEX
  8
0
 10
245.237
 20
17.8825
 30
0.0
 40
0.0104167
 41
0.0104167
  0
VERTEX
  8
0
 10
245.557
 20
17.3417
 30
0.0
 40
0.0104167
 41
0.0104167
  0
VERTEX
  8
0
 10
245.91
 20
16.8221
 30
0.0
 40
0.0104167
 41
0.0104167
  0
VERTEX
  8
0
 10
246.294
 20
16.3257
 30
0.0
 40
0.0104167
 41
0.0104167
  0
VERTEX
  8
0
 10
246.71
 20
15.8546
 30
0.0
 40
0.0104167
 41
0.0104167
  0
VERTEX
  8
0
 10
247.154
 20
15.4103
 30
0.0
 40
0.0104167
 41
0.0104167
  0
VERTEX
  8
0
 10
247.625
 20
14.9949
 30
0.0
 40
0.0104167
 41
0.0104167
  0
VERTEX
  8
0
 10
248.122
 20
14.6099
 30
0.0
 40
0.0104167
 41
0.0104167
  0
VERTEX
  8
0
 10
248.642
 20
14.2567
 30
0.0
 40
0.0104167
 41
0.0104167
  0
VERTEX
  8
0
 10
249.182
 20
13.9369
 30
0.0
 40
0.0104167
 41
0.0104167
  0
VERTEX
  8
0
 10
249.742
 20
13.6516
 30
0.0
 40
0.0104167
 41
0.0104167
  0
VERTEX
  8
0
 10
250.318
 20
13.4022
 30
0.0
 40
0.0104167
 41
0.0104167
  0
VERTEX
  8
0
 10
250.91
 20
13.1895
 30
0.0
 40
0.0104167
 41
0.0104167
  0
VERTEX
  8
0
 10
251.513
 20
13.0142
 30
0.0
 40
0.0104167
 41
0.0104167
  0
VERTEX
  8
0
 10
252.126
 20
12.8771
 30
0.0
 40
0.0104167
 41
0.0104167
  0
VERTEX
  8
0
 10
252.747
 20
12.7789
 30
0.0
 40
0.0104167
 41
0.0104167
  0
VERTEX
  8
0
 10
253.372
 20
12.7197
 30
0.0
 40
0.0104167
 41
0.0104167
  0
VERTEX
  8
0
 10
254
 20
12.7
 30
0.0
 40
0.0104167
 41
0.0104167
  0
VERTEX
  8
0
 10
254.628
 20
12.7197
 30
0.0
 40
0.0104167
 41
0.0104167
  0
VERTEX
  8
0
 10
255.253
 20
12.7789
 30
0.0
 40
0.0104167
 41
0.0104167
  0
VERTEX
  8
0
 10
255.874
 20
12.8771
 30
0.0
 40
0.0104167
 41
0.0104167
  0
VERTEX
  8
0
 10
256.487
 20
13.0142
 30
0.0
 40
0.0104167
 41
0.0104167
  0
VERTEX
  8
0
 10
257.09
 20
13.1895
 30
0.0
 40
0.0104167
 41
0.0104167
  0
VERTEX
  8
0
 10
257.681
 20
13.4022
 30
0.0
 40
0.0104167
 41
0.0104167
  0
VERTEX
  8
0
 10
258.258
 20
13.6516
 30
0.0
 40
0.0104167
 41
0.0104167
  0
VERTEX
  8
0
 10
258.817
 20
13.9369
 30
0.0
 40
0.0104167
 41
0.0104167
  0
VERTEX
  8
0
 10
259.358
 20
14.2567
 30
0.0
 40
0.0104167
 41
0.0104167
  0
VERTEX
  8
0
 10
259.878
 20
14.6099
 30
0.0
 40
0.0104167
 41
0.0104167
  0
VERTEX
  8
0
 10
260.374
 20
14.9949
 30
0.0
 40
0.0104167
 41
0.0104167
  0
VERTEX
  8
0
 10
260.846
 20
15.4103
 30
0.0
 40
0.0104167
 41
0.0104167
  0
VERTEX
  8
0
 10
261.289
 20
15.8546
 30
0.0
 40
0.0104167
 41
0.0104167
  0
VERTEX
  8
0
 10
261.706
 20
16.3257
 30
0.0
 40
0.0104167
 41
0.0104167
  0
VERTEX
  8
0
 10
262.09
 20
16.8221
 30
0.0
 40
0.0104167
 41
0.0104167
  0
VERTEX
  8
0
 10
262.443
 20
17.3417
 30
0.0
 40
0.0104167
 41
0.0104167
  0
VERTEX
  8
0
 10
262.763
 20
17.8825
 30
0.0
 40
0.0104167
 41
0.0104167
  0
VERTEX
  8
0
 10
263.049
 20
18.4422
 30
0.0
 40
0.0104167
 41
0.0104167
  0
VERTEX
  8
0
 10
263.297
 20
19.0187
 30
0.0
 40
0.0104167
 41
0.0104167
  0
VERTEX
  8
0
 10
263.511
 20
19.6099
 30
0.0
 40
0.0104167
 41
0.0104167
  0
VERTEX
  8
0
 10
263.686
 20
20.2131
 30
0.0
 40
0.0104167
 41
0.0104167
  0
VERTEX
  8
0
 10
263.822
 20
20.8261
 30
0.0
 40
0.0104167
 41
0.0104167
  0
VERTEX
  8
0
 10
263.921
 20
21.4467
 30
0.0
 40
0.0104167
 41
0.0104167
  0
VERTEX
  8
0
 10
263.981
 20
22.0721
 30
0.0
 40
0.0104167
 41
0.0104167
  0
VERTEX
  8
0
 10
264
 20
22.7
 30
0.0
 40
0.0104167
 41
0.0104167
  0
SEQEND
 8
0
  0
POLYLINE
  8
0
 62
     0
 66
     1
 10
0
 20
0
 30
0.0
 70
     1
 40
0
 41
0
  0
VERTEX
  8
0
 10
249
 20
246.8
 30
0.0
 40
0
 41
0
  0
VERTEX
  8
0
 10
259
 20
246.8
 30
0.0
 40
0
 41
0
  0
VERTEX
  8
0
 10
259
 20
136.76
 30
0.0
 40
0
 41
0
  0
VERTEX
  8
0
 10
249
 20
136.76
 30
0.0
 40
0
 41
0
  0
VERTEX
  8
0
 10
249
 20
246.8
 30
0.0
 40
0
 41
0
  0
SEQEND
 8
0
  0
POLYLINE
  8
0
 62
     0
 66
     1
 10
0
 20
0
 30
0.0
 70
     1
 40
0
 41
0
  0
VERTEX
  8
0
 10
249
 20
132.74
 30
0.0
 40
0
 41
0
  0
VERTEX
  8
0
 10
259
 20
132.74
 30
0.0
 40
0
 41
0
  0
VERTEX
  8
0
 10
259
 20
22.7
 30
0.0
 40
0
 41
0
  0
VERTEX
  8
0
 10
249
 20
22.7
 30
0.0
 40
0
 41
0
  0
VERTEX
  8
0
 10
249
 20
132.74
 30
0.0
 40
0
 41
0
  0
SEQEND
 8
0
  0
POLYLINE
  8
0
 62
     0
 66
     1
 10
0
 20
0
 30
0.0
 70
     1
 40
0
 41
0
  0
VERTEX
  8
0
 10
249
 20
136.8
 30
0.0
 40
0
 41
0
  0
VERTEX
  8
0
 10
259
 20
136.8
 30
0.0
 40
0
 41
0
  0
VERTEX
  8
0
 10
253.95
 20
134.8
 30
0.0
 40
0
 41
0
  0
VERTEX
  8
0
 10
254.05
 20
134.8
 30
0.0
 40
0
 41
0
  0
VERTEX
  8
0
 10
249
 20
136.8
 30
0.0
 40
0
 41
0
  0
SEQEND
 8
0
  0
POLYLINE
  8
0
 62
     0
 66
     1
 10
0
 20
0
 30
0.0
 70
     1
 40
0
 41
0
  0
VERTEX
  8
0
 10
249
 20
132.7
 30
0.0
 40
0
 41
0
  0
VERTEX
  8
0
 10
259
 20
132.7
 30
0.0
 40
0
 41
0
  0
VERTEX
  8
0
 10
253.95
 20
134.7
 30
0.0
 40
0
 41
0
  0
VERTEX
  8
0
 10
254.05
 20
134.7
 30
0.0
 40
0
 41
0
  0
VERTEX
  8
0
 10
249
 20
132.7
 30
0.0
 40
0
 41
0
  0
SEQEND
 8
0
  0
POLYLINE
  8
0
 62
     0
 66
     1
 10
0
 20
0
 30
0.0
 70
     1
 40
0
 41
0
  0
VERTEX
  8
0
 10
253.95
 20
136.8
 30
0.0
 40
0
 41
0
  0
VERTEX
  8
0
 10
254.05
 20
136.8
 30
0.0
 40
0
 41
0
  0
VERTEX
  8
0
 10
254.05
 20
132.7
 30
0.0
 40
0
 41
0
  0
VERTEX
  8
0
 10
253.95
 20
132.7
 30
0.0
 40
0
 41
0
  0
VERTEX
  8
0
 10
253.95
 20
136.8
 30
0.0
 40
0
 41
0
  0
SEQEND
 8
0
  0
ENDSEC
  0
EOF
