  0
SECTION
  2
HEADER
  9
$ACADVER
  1
AC1009
  9
$EXTMIN
 10
0.0
 20
0.0
 30
0.0
  9
$EXTMAX
 10
1000.0
 20
1000.0
 30
0.0
  9
$FILLMODE
 70
 0
  9
$SPLFRAME
 70
 1
  0
ENDSEC
  0
SECTION
  2
TABLES
  0
TABLE
  2
LAYER
 70
1
  0
LAYER
  2
0
 70
     0
 62
     7
  6
CONTINUOUS
  0
ENDTAB
  0
ENDSEC
  0
SECTION
  2
ENTITIES
  0
POLYLINE
  8
0
 62
     0
 66
     1
 10
0
 20
0
 30
0.0
 70
     1
 40
0
 41
0
  0
VERTEX
  8
0
 10
259
 20
81.75
 30
0.0
 40
0
 41
0
  0
VERTEX
  8
0
 10
258.997
 20
81.8285
 30
0.0
 40
0
 41
0
  0
VERTEX
  8
0
 10
258.99
 20
81.9069
 30
0.0
 40
0
 41
0
  0
VERTEX
  8
0
 10
258.978
 20
81.9853
 30
0.0
 40
0
 41
0
  0
VERTEX
  8
0
 10
258.96
 20
82.0633
 30
0.0
 40
0
 41
0
  0
VERTEX
  8
0
 10
258.939
 20
82.1411
 30
0.0
 40
0
 41
0
  0
VERTEX
  8
0
 10
258.911
 20
82.2185
 30
0.0
 40
0
 41
0
  0
VERTEX
  8
0
 10
258.879
 20
82.2954
 30
0.0
 40
0
 41
0
  0
VERTEX
  8
0
 10
258.843
 20
82.3717
 30
0.0
 40
0
 41
0
  0
VERTEX
  8
0
 10
258.801
 20
82.4475
 30
0.0
 40
0
 41
0
  0
VERTEX
  8
0
 10
258.756
 20
82.5225
 30
0.0
 40
0
 41
0
  0
VERTEX
  8
0
 10
258.704
 20
82.5968
 30
0.0
 40
0
 41
0
  0
VERTEX
  8
0
 10
258.649
 20
82.6703
 30
0.0
 40
0
 41
0
  0
VERTEX
  8
0
 10
258.589
 20
82.7429
 30
0.0
 40
0
 41
0
  0
VERTEX
  8
0
 10
258.524
 20
82.8144
 30
0.0
 40
0
 41
0
  0
VERTEX
  8
0
 10
258.456
 20
82.885
 30
0.0
 40
0
 41
0
  0
VERTEX
  8
0
 10
258.382
 20
82.9544
 30
0.0
 40
0
 41
0
  0
VERTEX
  8
0
 10
258.304
 20
83.0226
 30
0.0
 40
0
 41
0
  0
VERTEX
  8
0
 10
258.221
 20
83.0896
 30
0.0
 40
0
 41
0
  0
VERTEX
  8
0
 10
258.135
 20
83.1551
 30
0.0
 40
0
 41
0
  0
VERTEX
  8
0
 10
258.044
 20
83.2194
 30
0.0
 40
0
 41
0
  0
VERTEX
  8
0
 10
257.95
 20
83.2822
 30
0.0
 40
0
 41
0
  0
VERTEX
  8
0
 10
257.853
 20
83.3436
 30
0.0
 40
0
 41
0
  0
VERTEX
  8
0
 10
257.75
 20
83.4033
 30
0.0
 40
0
 41
0
  0
VERTEX
  8
0
 10
257.644
 20
83.4614
 30
0.0
 40
0
 41
0
  0
VERTEX
  8
0
 10
257.536
 20
83.5178
 30
0.0
 40
0
 41
0
  0
VERTEX
  8
0
 10
257.422
 20
83.5724
 30
0.0
 40
0
 41
0
  0
VERTEX
  8
0
 10
257.307
 20
83.6253
 30
0.0
 40
0
 41
0
  0
VERTEX
  8
0
 10
257.188
 20
83.6762
 30
0.0
 40
0
 41
0
  0
VERTEX
  8
0
 10
257.064
 20
83.7254
 30
0.0
 40
0
 41
0
  0
VERTEX
  8
0
 10
256.939
 20
83.7725
 30
0.0
 40
0
 41
0
  0
VERTEX
  8
0
 10
256.81
 20
83.8176
 30
0.0
 40
0
 41
0
  0
VERTEX
  8
0
 10
256.679
 20
83.8608
 30
0.0
 40
0
 41
0
  0
VERTEX
  8
0
 10
256.546
 20
83.9018
 30
0.0
 40
0
 41
0
  0
VERTEX
  8
0
 10
256.408
 20
83.9407
 30
0.0
 40
0
 41
0
  0
VERTEX
  8
0
 10
256.269
 20
83.9775
 30
0.0
 40
0
 41
0
  0
VERTEX
  8
0
 10
256.129
 20
84.0121
 30
0.0
 40
0
 41
0
  0
VERTEX
  8
0
 10
255.986
 20
84.0444
 30
0.0
 40
0
 41
0
  0
VERTEX
  8
0
 10
255.84
 20
84.0744
 30
0.0
 40
0
 41
0
  0
VERTEX
  8
0
 10
255.693
 20
84.1022
 30
0.0
 40
0
 41
0
  0
VERTEX
  8
0
 10
255.544
 20
84.1276
 30
0.0
 40
0
 41
0
  0
VERTEX
  8
0
 10
255.394
 20
84.1507
 30
0.0
 40
0
 41
0
  0
VERTEX
  8
0
 10
255.243
 20
84.1714
 30
0.0
 40
0
 41
0
  0
VERTEX
  8
0
 10
255.09
 20
84.1897
 30
0.0
 40
0
 41
0
  0
VERTEX
  8
0
 10
254.936
 20
84.2057
 30
0.0
 40
0
 41
0
  0
VERTEX
  8
0
 10
254.782
 20
84.2192
 30
0.0
 40
0
 41
0
  0
VERTEX
  8
0
 10
254.626
 20
84.2303
 30
0.0
 40
0
 41
0
  0
VERTEX
  8
0
 10
254.471
 20
84.2389
 30
0.0
 40
0
 41
0
  0
VERTEX
  8
0
 10
254.314
 20
84.245
 30
0.0
 40
0
 41
0
  0
VERTEX
  8
0
 10
254.157
 20
84.2488
 30
0.0
 40
0
 41
0
  0
VERTEX
  8
0
 10
254
 20
84.25
 30
0.0
 40
0
 41
0
  0
VERTEX
  8
0
 10
253.843
 20
84.2488
 30
0.0
 40
0
 41
0
  0
VERTEX
  8
0
 10
253.686
 20
84.245
 30
0.0
 40
0
 41
0
  0
VERTEX
  8
0
 10
253.529
 20
84.2389
 30
0.0
 40
0
 41
0
  0
VERTEX
  8
0
 10
253.374
 20
84.2303
 30
0.0
 40
0
 41
0
  0
VERTEX
  8
0
 10
253.218
 20
84.2192
 30
0.0
 40
0
 41
0
  0
VERTEX
  8
0
 10
253.063
 20
84.2057
 30
0.0
 40
0
 41
0
  0
VERTEX
  8
0
 10
252.91
 20
84.1897
 30
0.0
 40
0
 41
0
  0
VERTEX
  8
0
 10
252.757
 20
84.1714
 30
0.0
 40
0
 41
0
  0
VERTEX
  8
0
 10
252.606
 20
84.1507
 30
0.0
 40
0
 41
0
  0
VERTEX
  8
0
 10
252.454
 20
84.1276
 30
0.0
 40
0
 41
0
  0
VERTEX
  8
0
 10
252.306
 20
84.1022
 30
0.0
 40
0
 41
0
  0
VERTEX
  8
0
 10
252.16
 20
84.0744
 30
0.0
 40
0
 41
0
  0
VERTEX
  8
0
 10
252.014
 20
84.0444
 30
0.0
 40
0
 41
0
  0
VERTEX
  8
0
 10
251.871
 20
84.0121
 30
0.0
 40
0
 41
0
  0
VERTEX
  8
0
 10
251.731
 20
83.9775
 30
0.0
 40
0
 41
0
  0
VERTEX
  8
0
 10
251.592
 20
83.9407
 30
0.0
 40
0
 41
0
  0
VERTEX
  8
0
 10
251.454
 20
83.9018
 30
0.0
 40
0
 41
0
  0
VERTEX
  8
0
 10
251.321
 20
83.8608
 30
0.0
 40
0
 41
0
  0
VERTEX
  8
0
 10
251.189
 20
83.8176
 30
0.0
 40
0
 41
0
  0
VERTEX
  8
0
 10
251.061
 20
83.7725
 30
0.0
 40
0
 41
0
  0
VERTEX
  8
0
 10
250.935
 20
83.7254
 30
0.0
 40
0
 41
0
  0
VERTEX
  8
0
 10
250.813
 20
83.6762
 30
0.0
 40
0
 41
0
  0
VERTEX
  8
0
 10
250.693
 20
83.6253
 30
0.0
 40
0
 41
0
  0
VERTEX
  8
0
 10
250.578
 20
83.5724
 30
0.0
 40
0
 41
0
  0
VERTEX
  8
0
 10
250.464
 20
83.5178
 30
0.0
 40
0
 41
0
  0
VERTEX
  8
0
 10
250.356
 20
83.4614
 30
0.0
 40
0
 41
0
  0
VERTEX
  8
0
 10
250.249
 20
83.4033
 30
0.0
 40
0
 41
0
  0
VERTEX
  8
0
 10
250.147
 20
83.3436
 30
0.0
 40
0
 41
0
  0
VERTEX
  8
0
 10
250.049
 20
83.2822
 30
0.0
 40
0
 41
0
  0
VERTEX
  8
0
 10
249.954
 20
83.2194
 30
0.0
 40
0
 41
0
  0
VERTEX
  8
0
 10
249.864
 20
83.1551
 30
0.0
 40
0
 41
0
  0
VERTEX
  8
0
 10
249.778
 20
83.0896
 30
0.0
 40
0
 41
0
  0
VERTEX
  8
0
 10
249.696
 20
83.0226
 30
0.0
 40
0
 41
0
  0
VERTEX
  8
0
 10
249.618
 20
82.9544
 30
0.0
 40
0
 41
0
  0
VERTEX
  8
0
 10
249.544
 20
82.885
 30
0.0
 40
0
 41
0
  0
VERTEX
  8
0
 10
249.476
 20
82.8144
 30
0.0
 40
0
 41
0
  0
VERTEX
  8
0
 10
249.411
 20
82.7429
 30
0.0
 40
0
 41
0
  0
VERTEX
  8
0
 10
249.351
 20
82.6703
 30
0.0
 40
0
 41
0
  0
VERTEX
  8
0
 10
249.296
 20
82.5968
 30
0.0
 40
0
 41
0
  0
VERTEX
  8
0
 10
249.244
 20
82.5225
 30
0.0
 40
0
 41
0
  0
VERTEX
  8
0
 10
249.199
 20
82.4475
 30
0.0
 40
0
 41
0
  0
VERTEX
  8
0
 10
249.157
 20
82.3717
 30
0.0
 40
0
 41
0
  0
VERTEX
  8
0
 10
249.121
 20
82.2954
 30
0.0
 40
0
 41
0
  0
VERTEX
  8
0
 10
249.089
 20
82.2185
 30
0.0
 40
0
 41
0
  0
VERTEX
  8
0
 10
249.061
 20
82.1411
 30
0.0
 40
0
 41
0
  0
VERTEX
  8
0
 10
249.039
 20
82.0633
 30
0.0
 40
0
 41
0
  0
VERTEX
  8
0
 10
249.022
 20
81.9853
 30
0.0
 40
0
 41
0
  0
VERTEX
  8
0
 10
249.01
 20
81.9069
 30
0.0
 40
0
 41
0
  0
VERTEX
  8
0
 10
249.003
 20
81.8285
 30
0.0
 40
0
 41
0
  0
VERTEX
  8
0
 10
249
 20
81.75
 30
0.0
 40
0
 41
0
  0
VERTEX
  8
0
 10
259
 20
81.75
 30
0.0
 40
0
 41
0
  0
SEQEND
 8
0
  0
POLYLINE
  8
0
 62
     0
 66
     1
 10
0
 20
0
 30
0.0
 70
     1
 40
0.75
 41
0.75
  0
VERTEX
  8
0
 10
259
 20
81.75
 30
0.0
 40
0.0104167
 41
0.0104167
  0
VERTEX
  8
0
 10
258.997
 20
81.8285
 30
0.0
 40
0.0104167
 41
0.0104167
  0
VERTEX
  8
0
 10
258.99
 20
81.9069
 30
0.0
 40
0.0104167
 41
0.0104167
  0
VERTEX
  8
0
 10
258.978
 20
81.9853
 30
0.0
 40
0.0104167
 41
0.0104167
  0
VERTEX
  8
0
 10
258.96
 20
82.0633
 30
0.0
 40
0.0104167
 41
0.0104167
  0
VERTEX
  8
0
 10
258.939
 20
82.1411
 30
0.0
 40
0.0104167
 41
0.0104167
  0
VERTEX
  8
0
 10
258.911
 20
82.2185
 30
0.0
 40
0.0104167
 41
0.0104167
  0
VERTEX
  8
0
 10
258.879
 20
82.2954
 30
0.0
 40
0.0104167
 41
0.0104167
  0
VERTEX
  8
0
 10
258.843
 20
82.3717
 30
0.0
 40
0.0104167
 41
0.0104167
  0
VERTEX
  8
0
 10
258.801
 20
82.4475
 30
0.0
 40
0.0104167
 41
0.0104167
  0
VERTEX
  8
0
 10
258.756
 20
82.5225
 30
0.0
 40
0.0104167
 41
0.0104167
  0
VERTEX
  8
0
 10
258.704
 20
82.5968
 30
0.0
 40
0.0104167
 41
0.0104167
  0
VERTEX
  8
0
 10
258.649
 20
82.6703
 30
0.0
 40
0.0104167
 41
0.0104167
  0
VERTEX
  8
0
 10
258.589
 20
82.7429
 30
0.0
 40
0.0104167
 41
0.0104167
  0
VERTEX
  8
0
 10
258.524
 20
82.8144
 30
0.0
 40
0.0104167
 41
0.0104167
  0
VERTEX
  8
0
 10
258.456
 20
82.885
 30
0.0
 40
0.0104167
 41
0.0104167
  0
VERTEX
  8
0
 10
258.382
 20
82.9544
 30
0.0
 40
0.0104167
 41
0.0104167
  0
VERTEX
  8
0
 10
258.304
 20
83.0226
 30
0.0
 40
0.0104167
 41
0.0104167
  0
VERTEX
  8
0
 10
258.221
 20
83.0896
 30
0.0
 40
0.0104167
 41
0.0104167
  0
VERTEX
  8
0
 10
258.135
 20
83.1551
 30
0.0
 40
0.0104167
 41
0.0104167
  0
VERTEX
  8
0
 10
258.044
 20
83.2194
 30
0.0
 40
0.0104167
 41
0.0104167
  0
VERTEX
  8
0
 10
257.95
 20
83.2822
 30
0.0
 40
0.0104167
 41
0.0104167
  0
VERTEX
  8
0
 10
257.853
 20
83.3436
 30
0.0
 40
0.0104167
 41
0.0104167
  0
VERTEX
  8
0
 10
257.75
 20
83.4033
 30
0.0
 40
0.0104167
 41
0.0104167
  0
VERTEX
  8
0
 10
257.644
 20
83.4614
 30
0.0
 40
0.0104167
 41
0.0104167
  0
VERTEX
  8
0
 10
257.536
 20
83.5178
 30
0.0
 40
0.0104167
 41
0.0104167
  0
VERTEX
  8
0
 10
257.422
 20
83.5724
 30
0.0
 40
0.0104167
 41
0.0104167
  0
VERTEX
  8
0
 10
257.307
 20
83.6253
 30
0.0
 40
0.0104167
 41
0.0104167
  0
VERTEX
  8
0
 10
257.188
 20
83.6762
 30
0.0
 40
0.0104167
 41
0.0104167
  0
VERTEX
  8
0
 10
257.064
 20
83.7254
 30
0.0
 40
0.0104167
 41
0.0104167
  0
VERTEX
  8
0
 10
256.939
 20
83.7725
 30
0.0
 40
0.0104167
 41
0.0104167
  0
VERTEX
  8
0
 10
256.81
 20
83.8176
 30
0.0
 40
0.0104167
 41
0.0104167
  0
VERTEX
  8
0
 10
256.679
 20
83.8608
 30
0.0
 40
0.0104167
 41
0.0104167
  0
VERTEX
  8
0
 10
256.546
 20
83.9018
 30
0.0
 40
0.0104167
 41
0.0104167
  0
VERTEX
  8
0
 10
256.408
 20
83.9407
 30
0.0
 40
0.0104167
 41
0.0104167
  0
VERTEX
  8
0
 10
256.269
 20
83.9775
 30
0.0
 40
0.0104167
 41
0.0104167
  0
VERTEX
  8
0
 10
256.129
 20
84.0121
 30
0.0
 40
0.0104167
 41
0.0104167
  0
VERTEX
  8
0
 10
255.986
 20
84.0444
 30
0.0
 40
0.0104167
 41
0.0104167
  0
VERTEX
  8
0
 10
255.84
 20
84.0744
 30
0.0
 40
0.0104167
 41
0.0104167
  0
VERTEX
  8
0
 10
255.693
 20
84.1022
 30
0.0
 40
0.0104167
 41
0.0104167
  0
VERTEX
  8
0
 10
255.544
 20
84.1276
 30
0.0
 40
0.0104167
 41
0.0104167
  0
VERTEX
  8
0
 10
255.394
 20
84.1507
 30
0.0
 40
0.0104167
 41
0.0104167
  0
VERTEX
  8
0
 10
255.243
 20
84.1714
 30
0.0
 40
0.0104167
 41
0.0104167
  0
VERTEX
  8
0
 10
255.09
 20
84.1897
 30
0.0
 40
0.0104167
 41
0.0104167
  0
VERTEX
  8
0
 10
254.936
 20
84.2057
 30
0.0
 40
0.0104167
 41
0.0104167
  0
VERTEX
  8
0
 10
254.782
 20
84.2192
 30
0.0
 40
0.0104167
 41
0.0104167
  0
VERTEX
  8
0
 10
254.626
 20
84.2303
 30
0.0
 40
0.0104167
 41
0.0104167
  0
VERTEX
  8
0
 10
254.471
 20
84.2389
 30
0.0
 40
0.0104167
 41
0.0104167
  0
VERTEX
  8
0
 10
254.314
 20
84.245
 30
0.0
 40
0.0104167
 41
0.0104167
  0
VERTEX
  8
0
 10
254.157
 20
84.2488
 30
0.0
 40
0.0104167
 41
0.0104167
  0
VERTEX
  8
0
 10
254
 20
84.25
 30
0.0
 40
0.0104167
 41
0.0104167
  0
VERTEX
  8
0
 10
253.843
 20
84.2488
 30
0.0
 40
0.0104167
 41
0.0104167
  0
VERTEX
  8
0
 10
253.686
 20
84.245
 30
0.0
 40
0.0104167
 41
0.0104167
  0
VERTEX
  8
0
 10
253.529
 20
84.2389
 30
0.0
 40
0.0104167
 41
0.0104167
  0
VERTEX
  8
0
 10
253.374
 20
84.2303
 30
0.0
 40
0.0104167
 41
0.0104167
  0
VERTEX
  8
0
 10
253.218
 20
84.2192
 30
0.0
 40
0.0104167
 41
0.0104167
  0
VERTEX
  8
0
 10
253.063
 20
84.2057
 30
0.0
 40
0.0104167
 41
0.0104167
  0
VERTEX
  8
0
 10
252.91
 20
84.1897
 30
0.0
 40
0.0104167
 41
0.0104167
  0
VERTEX
  8
0
 10
252.757
 20
84.1714
 30
0.0
 40
0.0104167
 41
0.0104167
  0
VERTEX
  8
0
 10
252.606
 20
84.1507
 30
0.0
 40
0.0104167
 41
0.0104167
  0
VERTEX
  8
0
 10
252.454
 20
84.1276
 30
0.0
 40
0.0104167
 41
0.0104167
  0
VERTEX
  8
0
 10
252.306
 20
84.1022
 30
0.0
 40
0.0104167
 41
0.0104167
  0
VERTEX
  8
0
 10
252.16
 20
84.0744
 30
0.0
 40
0.0104167
 41
0.0104167
  0
VERTEX
  8
0
 10
252.014
 20
84.0444
 30
0.0
 40
0.0104167
 41
0.0104167
  0
VERTEX
  8
0
 10
251.871
 20
84.0121
 30
0.0
 40
0.0104167
 41
0.0104167
  0
VERTEX
  8
0
 10
251.731
 20
83.9775
 30
0.0
 40
0.0104167
 41
0.0104167
  0
VERTEX
  8
0
 10
251.592
 20
83.9407
 30
0.0
 40
0.0104167
 41
0.0104167
  0
VERTEX
  8
0
 10
251.454
 20
83.9018
 30
0.0
 40
0.0104167
 41
0.0104167
  0
VERTEX
  8
0
 10
251.321
 20
83.8608
 30
0.0
 40
0.0104167
 41
0.0104167
  0
VERTEX
  8
0
 10
251.189
 20
83.8176
 30
0.0
 40
0.0104167
 41
0.0104167
  0
VERTEX
  8
0
 10
251.061
 20
83.7725
 30
0.0
 40
0.0104167
 41
0.0104167
  0
VERTEX
  8
0
 10
250.935
 20
83.7254
 30
0.0
 40
0.0104167
 41
0.0104167
  0
VERTEX
  8
0
 10
250.813
 20
83.6762
 30
0.0
 40
0.0104167
 41
0.0104167
  0
VERTEX
  8
0
 10
250.693
 20
83.6253
 30
0.0
 40
0.0104167
 41
0.0104167
  0
VERTEX
  8
0
 10
250.578
 20
83.5724
 30
0.0
 40
0.0104167
 41
0.0104167
  0
VERTEX
  8
0
 10
250.464
 20
83.5178
 30
0.0
 40
0.0104167
 41
0.0104167
  0
VERTEX
  8
0
 10
250.356
 20
83.4614
 30
0.0
 40
0.0104167
 41
0.0104167
  0
VERTEX
  8
0
 10
250.249
 20
83.4033
 30
0.0
 40
0.0104167
 41
0.0104167
  0
VERTEX
  8
0
 10
250.147
 20
83.3436
 30
0.0
 40
0.0104167
 41
0.0104167
  0
VERTEX
  8
0
 10
250.049
 20
83.2822
 30
0.0
 40
0.0104167
 41
0.0104167
  0
VERTEX
  8
0
 10
249.954
 20
83.2194
 30
0.0
 40
0.0104167
 41
0.0104167
  0
VERTEX
  8
0
 10
249.864
 20
83.1551
 30
0.0
 40
0.0104167
 41
0.0104167
  0
VERTEX
  8
0
 10
249.778
 20
83.0896
 30
0.0
 40
0.0104167
 41
0.0104167
  0
VERTEX
  8
0
 10
249.696
 20
83.0226
 30
0.0
 40
0.0104167
 41
0.0104167
  0
VERTEX
  8
0
 10
249.618
 20
82.9544
 30
0.0
 40
0.0104167
 41
0.0104167
  0
VERTEX
  8
0
 10
249.544
 20
82.885
 30
0.0
 40
0.0104167
 41
0.0104167
  0
VERTEX
  8
0
 10
249.476
 20
82.8144
 30
0.0
 40
0.0104167
 41
0.0104167
  0
VERTEX
  8
0
 10
249.411
 20
82.7429
 30
0.0
 40
0.0104167
 41
0.0104167
  0
VERTEX
  8
0
 10
249.351
 20
82.6703
 30
0.0
 40
0.0104167
 41
0.0104167
  0
VERTEX
  8
0
 10
249.296
 20
82.5968
 30
0.0
 40
0.0104167
 41
0.0104167
  0
VERTEX
  8
0
 10
249.244
 20
82.5225
 30
0.0
 40
0.0104167
 41
0.0104167
  0
VERTEX
  8
0
 10
249.199
 20
82.4475
 30
0.0
 40
0.0104167
 41
0.0104167
  0
VERTEX
  8
0
 10
249.157
 20
82.3717
 30
0.0
 40
0.0104167
 41
0.0104167
  0
VERTEX
  8
0
 10
249.121
 20
82.2954
 30
0.0
 40
0.0104167
 41
0.0104167
  0
VERTEX
  8
0
 10
249.089
 20
82.2185
 30
0.0
 40
0.0104167
 41
0.0104167
  0
VERTEX
  8
0
 10
249.061
 20
82.1411
 30
0.0
 40
0.0104167
 41
0.0104167
  0
VERTEX
  8
0
 10
249.039
 20
82.0633
 30
0.0
 40
0.0104167
 41
0.0104167
  0
VERTEX
  8
0
 10
249.022
 20
81.9853
 30
0.0
 40
0.0104167
 41
0.0104167
  0
VERTEX
  8
0
 10
249.01
 20
81.9069
 30
0.0
 40
0.0104167
 41
0.0104167
  0
VERTEX
  8
0
 10
249.003
 20
81.8285
 30
0.0
 40
0.0104167
 41
0.0104167
  0
VERTEX
  8
0
 10
249
 20
81.75
 30
0.0
 40
0.0104167
 41
0.0104167
  0
VERTEX
  8
0
 10
259
 20
81.75
 30
0.0
 40
0.0104167
 41
0.0104167
  0
SEQEND
 8
0
  0
POLYLINE
  8
0
 62
     0
 66
     1
 10
0
 20
0
 30
0.0
 70
     1
 40
0
 41
0
  0
VERTEX
  8
0
 10
249
 20
17.7
 30
0.0
 40
0
 41
0
  0
VERTEX
  8
0
 10
249.003
 20
17.6215
 30
0.0
 40
0
 41
0
  0
VERTEX
  8
0
 10
249.01
 20
17.5431
 30
0.0
 40
0
 41
0
  0
VERTEX
  8
0
 10
249.022
 20
17.4647
 30
0.0
 40
0
 41
0
  0
VERTEX
  8
0
 10
249.039
 20
17.3867
 30
0.0
 40
0
 41
0
  0
VERTEX
  8
0
 10
249.061
 20
17.3089
 30
0.0
 40
0
 41
0
  0
VERTEX
  8
0
 10
249.089
 20
17.2315
 30
0.0
 40
0
 41
0
  0
VERTEX
  8
0
 10
249.121
 20
17.1546
 30
0.0
 40
0
 41
0
  0
VERTEX
  8
0
 10
249.157
 20
17.0783
 30
0.0
 40
0
 41
0
  0
VERTEX
  8
0
 10
249.199
 20
17.0025
 30
0.0
 40
0
 41
0
  0
VERTEX
  8
0
 10
249.244
 20
16.9275
 30
0.0
 40
0
 41
0
  0
VERTEX
  8
0
 10
249.296
 20
16.8532
 30
0.0
 40
0
 41
0
  0
VERTEX
  8
0
 10
249.351
 20
16.7797
 30
0.0
 40
0
 41
0
  0
VERTEX
  8
0
 10
249.411
 20
16.7071
 30
0.0
 40
0
 41
0
  0
VERTEX
  8
0
 10
249.476
 20
16.6356
 30
0.0
 40
0
 41
0
  0
VERTEX
  8
0
 10
249.544
 20
16.565
 30
0.0
 40
0
 41
0
  0
VERTEX
  8
0
 10
249.618
 20
16.4956
 30
0.0
 40
0
 41
0
  0
VERTEX
  8
0
 10
249.696
 20
16.4274
 30
0.0
 40
0
 41
0
  0
VERTEX
  8
0
 10
249.778
 20
16.3604
 30
0.0
 40
0
 41
0
  0
VERTEX
  8
0
 10
249.864
 20
16.2947
 30
0.0
 40
0
 41
0
  0
VERTEX
  8
0
 10
249.954
 20
16.2306
 30
0.0
 40
0
 41
0
  0
VERTEX
  8
0
 10
250.049
 20
16.1678
 30
0.0
 40
0
 41
0
  0
VERTEX
  8
0
 10
250.147
 20
16.1064
 30
0.0
 40
0
 41
0
  0
VERTEX
  8
0
 10
250.249
 20
16.0467
 30
0.0
 40
0
 41
0
  0
VERTEX
  8
0
 10
250.356
 20
15.9886
 30
0.0
 40
0
 41
0
  0
VERTEX
  8
0
 10
250.464
 20
15.9322
 30
0.0
 40
0
 41
0
  0
VERTEX
  8
0
 10
250.578
 20
15.8776
 30
0.0
 40
0
 41
0
  0
VERTEX
  8
0
 10
250.693
 20
15.8247
 30
0.0
 40
0
 41
0
  0
VERTEX
  8
0
 10
250.813
 20
15.7737
 30
0.0
 40
0
 41
0
  0
VERTEX
  8
0
 10
250.935
 20
15.7246
 30
0.0
 40
0
 41
0
  0
VERTEX
  8
0
 10
251.061
 20
15.6775
 30
0.0
 40
0
 41
0
  0
VERTEX
  8
0
 10
251.189
 20
15.6324
 30
0.0
 40
0
 41
0
  0
VERTEX
  8
0
 10
251.321
 20
15.5892
 30
0.0
 40
0
 41
0
  0
VERTEX
  8
0
 10
251.454
 20
15.5482
 30
0.0
 40
0
 41
0
  0
VERTEX
  8
0
 10
251.592
 20
15.5092
 30
0.0
 40
0
 41
0
  0
VERTEX
  8
0
 10
251.731
 20
15.4725
 30
0.0
 40
0
 41
0
  0
VERTEX
  8
0
 10
251.871
 20
15.4379
 30
0.0
 40
0
 41
0
  0
VERTEX
  8
0
 10
252.014
 20
15.4056
 30
0.0
 40
0
 41
0
  0
VERTEX
  8
0
 10
252.16
 20
15.3756
 30
0.0
 40
0
 41
0
  0
VERTEX
  8
0
 10
252.306
 20
15.3478
 30
0.0
 40
0
 41
0
  0
VERTEX
  8
0
 10
252.454
 20
15.3224
 30
0.0
 40
0
 41
0
  0
VERTEX
  8
0
 10
252.606
 20
15.2993
 30
0.0
 40
0
 41
0
  0
VERTEX
  8
0
 10
252.757
 20
15.2785
 30
0.0
 40
0
 41
0
  0
VERTEX
  8
0
 10
252.91
 20
15.2601
 30
0.0
 40
0
 41
0
  0
VERTEX
  8
0
 10
253.063
 20
15.2443
 30
0.0
 40
0
 41
0
  0
VERTEX
  8
0
 10
253.218
 20
15.2308
 30
0.0
 40
0
 41
0
  0
VERTEX
  8
0
 10
253.374
 20
15.2197
 30
0.0
 40
0
 41
0
  0
VERTEX
  8
0
 10
253.529
 20
15.2111
 30
0.0
 40
0
 41
0
  0
VERTEX
  8
0
 10
253.686
 20
15.2049
 30
0.0
 40
0
 41
0
  0
VERTEX
  8
0
 10
253.843
 20
15.2012
 30
0.0
 40
0
 41
0
  0
VERTEX
  8
0
 10
254
 20
15.2
 30
0.0
 40
0
 41
0
  0
VERTEX
  8
0
 10
254.157
 20
15.2012
 30
0.0
 40
0
 41
0
  0
VERTEX
  8
0
 10
254.314
 20
15.2049
 30
0.0
 40
0
 41
0
  0
VERTEX
  8
0
 10
254.471
 20
15.2111
 30
0.0
 40
0
 41
0
  0
VERTEX
  8
0
 10
254.626
 20
15.2197
 30
0.0
 40
0
 41
0
  0
VERTEX
  8
0
 10
254.782
 20
15.2308
 30
0.0
 40
0
 41
0
  0
VERTEX
  8
0
 10
254.936
 20
15.2443
 30
0.0
 40
0
 41
0
  0
VERTEX
  8
0
 10
255.09
 20
15.2601
 30
0.0
 40
0
 41
0
  0
VERTEX
  8
0
 10
255.243
 20
15.2785
 30
0.0
 40
0
 41
0
  0
VERTEX
  8
0
 10
255.394
 20
15.2993
 30
0.0
 40
0
 41
0
  0
VERTEX
  8
0
 10
255.544
 20
15.3224
 30
0.0
 40
0
 41
0
  0
VERTEX
  8
0
 10
255.693
 20
15.3478
 30
0.0
 40
0
 41
0
  0
VERTEX
  8
0
 10
255.84
 20
15.3756
 30
0.0
 40
0
 41
0
  0
VERTEX
  8
0
 10
255.986
 20
15.4056
 30
0.0
 40
0
 41
0
  0
VERTEX
  8
0
 10
256.129
 20
15.4379
 30
0.0
 40
0
 41
0
  0
VERTEX
  8
0
 10
256.269
 20
15.4725
 30
0.0
 40
0
 41
0
  0
VERTEX
  8
0
 10
256.408
 20
15.5092
 30
0.0
 40
0
 41
0
  0
VERTEX
  8
0
 10
256.546
 20
15.5482
 30
0.0
 40
0
 41
0
  0
VERTEX
  8
0
 10
256.679
 20
15.5892
 30
0.0
 40
0
 41
0
  0
VERTEX
  8
0
 10
256.81
 20
15.6324
 30
0.0
 40
0
 41
0
  0
VERTEX
  8
0
 10
256.939
 20
15.6775
 30
0.0
 40
0
 41
0
  0
VERTEX
  8
0
 10
257.064
 20
15.7246
 30
0.0
 40
0
 41
0
  0
VERTEX
  8
0
 10
257.188
 20
15.7737
 30
0.0
 40
0
 41
0
  0
VERTEX
  8
0
 10
257.307
 20
15.8247
 30
0.0
 40
0
 41
0
  0
VERTEX
  8
0
 10
257.422
 20
15.8776
 30
0.0
 40
0
 41
0
  0
VERTEX
  8
0
 10
257.536
 20
15.9322
 30
0.0
 40
0
 41
0
  0
VERTEX
  8
0
 10
257.644
 20
15.9886
 30
0.0
 40
0
 41
0
  0
VERTEX
  8
0
 10
257.75
 20
16.0467
 30
0.0
 40
0
 41
0
  0
VERTEX
  8
0
 10
257.853
 20
16.1064
 30
0.0
 40
0
 41
0
  0
VERTEX
  8
0
 10
257.95
 20
16.1678
 30
0.0
 40
0
 41
0
  0
VERTEX
  8
0
 10
258.044
 20
16.2306
 30
0.0
 40
0
 41
0
  0
VERTEX
  8
0
 10
258.135
 20
16.2947
 30
0.0
 40
0
 41
0
  0
VERTEX
  8
0
 10
258.221
 20
16.3604
 30
0.0
 40
0
 41
0
  0
VERTEX
  8
0
 10
258.304
 20
16.4274
 30
0.0
 40
0
 41
0
  0
VERTEX
  8
0
 10
258.382
 20
16.4956
 30
0.0
 40
0
 41
0
  0
VERTEX
  8
0
 10
258.456
 20
16.565
 30
0.0
 40
0
 41
0
  0
VERTEX
  8
0
 10
258.524
 20
16.6356
 30
0.0
 40
0
 41
0
  0
VERTEX
  8
0
 10
258.589
 20
16.7071
 30
0.0
 40
0
 41
0
  0
VERTEX
  8
0
 10
258.649
 20
16.7797
 30
0.0
 40
0
 41
0
  0
VERTEX
  8
0
 10
258.704
 20
16.8532
 30
0.0
 40
0
 41
0
  0
VERTEX
  8
0
 10
258.756
 20
16.9275
 30
0.0
 40
0
 41
0
  0
VERTEX
  8
0
 10
258.801
 20
17.0025
 30
0.0
 40
0
 41
0
  0
VERTEX
  8
0
 10
258.843
 20
17.0783
 30
0.0
 40
0
 41
0
  0
VERTEX
  8
0
 10
258.879
 20
17.1546
 30
0.0
 40
0
 41
0
  0
VERTEX
  8
0
 10
258.911
 20
17.2315
 30
0.0
 40
0
 41
0
  0
VERTEX
  8
0
 10
258.939
 20
17.3089
 30
0.0
 40
0
 41
0
  0
VERTEX
  8
0
 10
258.96
 20
17.3867
 30
0.0
 40
0
 41
0
  0
VERTEX
  8
0
 10
258.978
 20
17.4647
 30
0.0
 40
0
 41
0
  0
VERTEX
  8
0
 10
258.99
 20
17.5431
 30
0.0
 40
0
 41
0
  0
VERTEX
  8
0
 10
258.997
 20
17.6215
 30
0.0
 40
0
 41
0
  0
VERTEX
  8
0
 10
259
 20
17.7
 30
0.0
 40
0
 41
0
  0
VERTEX
  8
0
 10
249
 20
17.7
 30
0.0
 40
0
 41
0
  0
SEQEND
 8
0
  0
POLYLINE
  8
0
 62
     0
 66
     1
 10
0
 20
0
 30
0.0
 70
     1
 40
0.75
 41
0.75
  0
VERTEX
  8
0
 10
249
 20
17.7
 30
0.0
 40
0.0104167
 41
0.0104167
  0
VERTEX
  8
0
 10
249.003
 20
17.6215
 30
0.0
 40
0.0104167
 41
0.0104167
  0
VERTEX
  8
0
 10
249.01
 20
17.5431
 30
0.0
 40
0.0104167
 41
0.0104167
  0
VERTEX
  8
0
 10
249.022
 20
17.4647
 30
0.0
 40
0.0104167
 41
0.0104167
  0
VERTEX
  8
0
 10
249.039
 20
17.3867
 30
0.0
 40
0.0104167
 41
0.0104167
  0
VERTEX
  8
0
 10
249.061
 20
17.3089
 30
0.0
 40
0.0104167
 41
0.0104167
  0
VERTEX
  8
0
 10
249.089
 20
17.2315
 30
0.0
 40
0.0104167
 41
0.0104167
  0
VERTEX
  8
0
 10
249.121
 20
17.1546
 30
0.0
 40
0.0104167
 41
0.0104167
  0
VERTEX
  8
0
 10
249.157
 20
17.0783
 30
0.0
 40
0.0104167
 41
0.0104167
  0
VERTEX
  8
0
 10
249.199
 20
17.0025
 30
0.0
 40
0.0104167
 41
0.0104167
  0
VERTEX
  8
0
 10
249.244
 20
16.9275
 30
0.0
 40
0.0104167
 41
0.0104167
  0
VERTEX
  8
0
 10
249.296
 20
16.8532
 30
0.0
 40
0.0104167
 41
0.0104167
  0
VERTEX
  8
0
 10
249.351
 20
16.7797
 30
0.0
 40
0.0104167
 41
0.0104167
  0
VERTEX
  8
0
 10
249.411
 20
16.7071
 30
0.0
 40
0.0104167
 41
0.0104167
  0
VERTEX
  8
0
 10
249.476
 20
16.6356
 30
0.0
 40
0.0104167
 41
0.0104167
  0
VERTEX
  8
0
 10
249.544
 20
16.565
 30
0.0
 40
0.0104167
 41
0.0104167
  0
VERTEX
  8
0
 10
249.618
 20
16.4956
 30
0.0
 40
0.0104167
 41
0.0104167
  0
VERTEX
  8
0
 10
249.696
 20
16.4274
 30
0.0
 40
0.0104167
 41
0.0104167
  0
VERTEX
  8
0
 10
249.778
 20
16.3604
 30
0.0
 40
0.0104167
 41
0.0104167
  0
VERTEX
  8
0
 10
249.864
 20
16.2947
 30
0.0
 40
0.0104167
 41
0.0104167
  0
VERTEX
  8
0
 10
249.954
 20
16.2306
 30
0.0
 40
0.0104167
 41
0.0104167
  0
VERTEX
  8
0
 10
250.049
 20
16.1678
 30
0.0
 40
0.0104167
 41
0.0104167
  0
VERTEX
  8
0
 10
250.147
 20
16.1064
 30
0.0
 40
0.0104167
 41
0.0104167
  0
VERTEX
  8
0
 10
250.249
 20
16.0467
 30
0.0
 40
0.0104167
 41
0.0104167
  0
VERTEX
  8
0
 10
250.356
 20
15.9886
 30
0.0
 40
0.0104167
 41
0.0104167
  0
VERTEX
  8
0
 10
250.464
 20
15.9322
 30
0.0
 40
0.0104167
 41
0.0104167
  0
VERTEX
  8
0
 10
250.578
 20
15.8776
 30
0.0
 40
0.0104167
 41
0.0104167
  0
VERTEX
  8
0
 10
250.693
 20
15.8247
 30
0.0
 40
0.0104167
 41
0.0104167
  0
VERTEX
  8
0
 10
250.813
 20
15.7737
 30
0.0
 40
0.0104167
 41
0.0104167
  0
VERTEX
  8
0
 10
250.935
 20
15.7246
 30
0.0
 40
0.0104167
 41
0.0104167
  0
VERTEX
  8
0
 10
251.061
 20
15.6775
 30
0.0
 40
0.0104167
 41
0.0104167
  0
VERTEX
  8
0
 10
251.189
 20
15.6324
 30
0.0
 40
0.0104167
 41
0.0104167
  0
VERTEX
  8
0
 10
251.321
 20
15.5892
 30
0.0
 40
0.0104167
 41
0.0104167
  0
VERTEX
  8
0
 10
251.454
 20
15.5482
 30
0.0
 40
0.0104167
 41
0.0104167
  0
VERTEX
  8
0
 10
251.592
 20
15.5092
 30
0.0
 40
0.0104167
 41
0.0104167
  0
VERTEX
  8
0
 10
251.731
 20
15.4725
 30
0.0
 40
0.0104167
 41
0.0104167
  0
VERTEX
  8
0
 10
251.871
 20
15.4379
 30
0.0
 40
0.0104167
 41
0.0104167
  0
VERTEX
  8
0
 10
252.014
 20
15.4056
 30
0.0
 40
0.0104167
 41
0.0104167
  0
VERTEX
  8
0
 10
252.16
 20
15.3756
 30
0.0
 40
0.0104167
 41
0.0104167
  0
VERTEX
  8
0
 10
252.306
 20
15.3478
 30
0.0
 40
0.0104167
 41
0.0104167
  0
VERTEX
  8
0
 10
252.454
 20
15.3224
 30
0.0
 40
0.0104167
 41
0.0104167
  0
VERTEX
  8
0
 10
252.606
 20
15.2993
 30
0.0
 40
0.0104167
 41
0.0104167
  0
VERTEX
  8
0
 10
252.757
 20
15.2785
 30
0.0
 40
0.0104167
 41
0.0104167
  0
VERTEX
  8
0
 10
252.91
 20
15.2601
 30
0.0
 40
0.0104167
 41
0.0104167
  0
VERTEX
  8
0
 10
253.063
 20
15.2443
 30
0.0
 40
0.0104167
 41
0.0104167
  0
VERTEX
  8
0
 10
253.218
 20
15.2308
 30
0.0
 40
0.0104167
 41
0.0104167
  0
VERTEX
  8
0
 10
253.374
 20
15.2197
 30
0.0
 40
0.0104167
 41
0.0104167
  0
VERTEX
  8
0
 10
253.529
 20
15.2111
 30
0.0
 40
0.0104167
 41
0.0104167
  0
VERTEX
  8
0
 10
253.686
 20
15.2049
 30
0.0
 40
0.0104167
 41
0.0104167
  0
VERTEX
  8
0
 10
253.843
 20
15.2012
 30
0.0
 40
0.0104167
 41
0.0104167
  0
VERTEX
  8
0
 10
254
 20
15.2
 30
0.0
 40
0.0104167
 41
0.0104167
  0
VERTEX
  8
0
 10
254.157
 20
15.2012
 30
0.0
 40
0.0104167
 41
0.0104167
  0
VERTEX
  8
0
 10
254.314
 20
15.2049
 30
0.0
 40
0.0104167
 41
0.0104167
  0
VERTEX
  8
0
 10
254.471
 20
15.2111
 30
0.0
 40
0.0104167
 41
0.0104167
  0
VERTEX
  8
0
 10
254.626
 20
15.2197
 30
0.0
 40
0.0104167
 41
0.0104167
  0
VERTEX
  8
0
 10
254.782
 20
15.2308
 30
0.0
 40
0.0104167
 41
0.0104167
  0
VERTEX
  8
0
 10
254.936
 20
15.2443
 30
0.0
 40
0.0104167
 41
0.0104167
  0
VERTEX
  8
0
 10
255.09
 20
15.2601
 30
0.0
 40
0.0104167
 41
0.0104167
  0
VERTEX
  8
0
 10
255.243
 20
15.2785
 30
0.0
 40
0.0104167
 41
0.0104167
  0
VERTEX
  8
0
 10
255.394
 20
15.2993
 30
0.0
 40
0.0104167
 41
0.0104167
  0
VERTEX
  8
0
 10
255.544
 20
15.3224
 30
0.0
 40
0.0104167
 41
0.0104167
  0
VERTEX
  8
0
 10
255.693
 20
15.3478
 30
0.0
 40
0.0104167
 41
0.0104167
  0
VERTEX
  8
0
 10
255.84
 20
15.3756
 30
0.0
 40
0.0104167
 41
0.0104167
  0
VERTEX
  8
0
 10
255.986
 20
15.4056
 30
0.0
 40
0.0104167
 41
0.0104167
  0
VERTEX
  8
0
 10
256.129
 20
15.4379
 30
0.0
 40
0.0104167
 41
0.0104167
  0
VERTEX
  8
0
 10
256.269
 20
15.4725
 30
0.0
 40
0.0104167
 41
0.0104167
  0
VERTEX
  8
0
 10
256.408
 20
15.5092
 30
0.0
 40
0.0104167
 41
0.0104167
  0
VERTEX
  8
0
 10
256.546
 20
15.5482
 30
0.0
 40
0.0104167
 41
0.0104167
  0
VERTEX
  8
0
 10
256.679
 20
15.5892
 30
0.0
 40
0.0104167
 41
0.0104167
  0
VERTEX
  8
0
 10
256.81
 20
15.6324
 30
0.0
 40
0.0104167
 41
0.0104167
  0
VERTEX
  8
0
 10
256.939
 20
15.6775
 30
0.0
 40
0.0104167
 41
0.0104167
  0
VERTEX
  8
0
 10
257.064
 20
15.7246
 30
0.0
 40
0.0104167
 41
0.0104167
  0
VERTEX
  8
0
 10
257.188
 20
15.7737
 30
0.0
 40
0.0104167
 41
0.0104167
  0
VERTEX
  8
0
 10
257.307
 20
15.8247
 30
0.0
 40
0.0104167
 41
0.0104167
  0
VERTEX
  8
0
 10
257.422
 20
15.8776
 30
0.0
 40
0.0104167
 41
0.0104167
  0
VERTEX
  8
0
 10
257.536
 20
15.9322
 30
0.0
 40
0.0104167
 41
0.0104167
  0
VERTEX
  8
0
 10
257.644
 20
15.9886
 30
0.0
 40
0.0104167
 41
0.0104167
  0
VERTEX
  8
0
 10
257.75
 20
16.0467
 30
0.0
 40
0.0104167
 41
0.0104167
  0
VERTEX
  8
0
 10
257.853
 20
16.1064
 30
0.0
 40
0.0104167
 41
0.0104167
  0
VERTEX
  8
0
 10
257.95
 20
16.1678
 30
0.0
 40
0.0104167
 41
0.0104167
  0
VERTEX
  8
0
 10
258.044
 20
16.2306
 30
0.0
 40
0.0104167
 41
0.0104167
  0
VERTEX
  8
0
 10
258.135
 20
16.2947
 30
0.0
 40
0.0104167
 41
0.0104167
  0
VERTEX
  8
0
 10
258.221
 20
16.3604
 30
0.0
 40
0.0104167
 41
0.0104167
  0
VERTEX
  8
0
 10
258.304
 20
16.4274
 30
0.0
 40
0.0104167
 41
0.0104167
  0
VERTEX
  8
0
 10
258.382
 20
16.4956
 30
0.0
 40
0.0104167
 41
0.0104167
  0
VERTEX
  8
0
 10
258.456
 20
16.565
 30
0.0
 40
0.0104167
 41
0.0104167
  0
VERTEX
  8
0
 10
258.524
 20
16.6356
 30
0.0
 40
0.0104167
 41
0.0104167
  0
VERTEX
  8
0
 10
258.589
 20
16.7071
 30
0.0
 40
0.0104167
 41
0.0104167
  0
VERTEX
  8
0
 10
258.649
 20
16.7797
 30
0.0
 40
0.0104167
 41
0.0104167
  0
VERTEX
  8
0
 10
258.704
 20
16.8532
 30
0.0
 40
0.0104167
 41
0.0104167
  0
VERTEX
  8
0
 10
258.756
 20
16.9275
 30
0.0
 40
0.0104167
 41
0.0104167
  0
VERTEX
  8
0
 10
258.801
 20
17.0025
 30
0.0
 40
0.0104167
 41
0.0104167
  0
VERTEX
  8
0
 10
258.843
 20
17.0783
 30
0.0
 40
0.0104167
 41
0.0104167
  0
VERTEX
  8
0
 10
258.879
 20
17.1546
 30
0.0
 40
0.0104167
 41
0.0104167
  0
VERTEX
  8
0
 10
258.911
 20
17.2315
 30
0.0
 40
0.0104167
 41
0.0104167
  0
VERTEX
  8
0
 10
258.939
 20
17.3089
 30
0.0
 40
0.0104167
 41
0.0104167
  0
VERTEX
  8
0
 10
258.96
 20
17.3867
 30
0.0
 40
0.0104167
 41
0.0104167
  0
VERTEX
  8
0
 10
258.978
 20
17.4647
 30
0.0
 40
0.0104167
 41
0.0104167
  0
VERTEX
  8
0
 10
258.99
 20
17.5431
 30
0.0
 40
0.0104167
 41
0.0104167
  0
VERTEX
  8
0
 10
258.997
 20
17.6215
 30
0.0
 40
0.0104167
 41
0.0104167
  0
VERTEX
  8
0
 10
259
 20
17.7
 30
0.0
 40
0.0104167
 41
0.0104167
  0
VERTEX
  8
0
 10
249
 20
17.7
 30
0.0
 40
0.0104167
 41
0.0104167
  0
SEQEND
 8
0
  0
POLYLINE
  8
0
 62
     0
 66
     1
 10
0
 20
0
 30
0.0
 70
     1
 40
0
 41
0
  0
VERTEX
  8
0
 10
249
 20
81.75
 30
0.0
 40
0
 41
0
  0
VERTEX
  8
0
 10
259
 20
81.75
 30
0.0
 40
0
 41
0
  0
VERTEX
  8
0
 10
259
 20
51.71
 30
0.0
 40
0
 41
0
  0
VERTEX
  8
0
 10
249
 20
51.71
 30
0.0
 40
0
 41
0
  0
VERTEX
  8
0
 10
249
 20
81.75
 30
0.0
 40
0
 41
0
  0
SEQEND
 8
0
  0
POLYLINE
  8
0
 62
     0
 66
     1
 10
0
 20
0
 30
0.0
 70
     1
 40
0
 41
0
  0
VERTEX
  8
0
 10
249
 20
47.74
 30
0.0
 40
0
 41
0
  0
VERTEX
  8
0
 10
259
 20
47.74
 30
0.0
 40
0
 41
0
  0
VERTEX
  8
0
 10
259
 20
17.7
 30
0.0
 40
0
 41
0
  0
VERTEX
  8
0
 10
249
 20
17.7
 30
0.0
 40
0
 41
0
  0
VERTEX
  8
0
 10
249
 20
47.74
 30
0.0
 40
0
 41
0
  0
SEQEND
 8
0
  0
POLYLINE
  8
0
 62
     0
 66
     1
 10
0
 20
0
 30
0.0
 70
     1
 40
0
 41
0
  0
VERTEX
  8
0
 10
249
 20
51.75
 30
0.0
 40
0
 41
0
  0
VERTEX
  8
0
 10
259
 20
51.75
 30
0.0
 40
0
 41
0
  0
VERTEX
  8
0
 10
253.975
 20
49.75
 30
0.0
 40
0
 41
0
  0
VERTEX
  8
0
 10
254.025
 20
49.75
 30
0.0
 40
0
 41
0
  0
VERTEX
  8
0
 10
249
 20
51.75
 30
0.0
 40
0
 41
0
  0
SEQEND
 8
0
  0
POLYLINE
  8
0
 62
     0
 66
     1
 10
0
 20
0
 30
0.0
 70
     1
 40
0
 41
0
  0
VERTEX
  8
0
 10
249
 20
47.7
 30
0.0
 40
0
 41
0
  0
VERTEX
  8
0
 10
259
 20
47.7
 30
0.0
 40
0
 41
0
  0
VERTEX
  8
0
 10
253.975
 20
49.7
 30
0.0
 40
0
 41
0
  0
VERTEX
  8
0
 10
254.025
 20
49.7
 30
0.0
 40
0
 41
0
  0
VERTEX
  8
0
 10
249
 20
47.7
 30
0.0
 40
0
 41
0
  0
SEQEND
 8
0
  0
POLYLINE
  8
0
 62
     0
 66
     1
 10
0
 20
0
 30
0.0
 70
     1
 40
0
 41
0
  0
VERTEX
  8
0
 10
253.975
 20
51.75
 30
0.0
 40
0
 41
0
  0
VERTEX
  8
0
 10
254.025
 20
51.75
 30
0.0
 40
0
 41
0
  0
VERTEX
  8
0
 10
254.025
 20
47.7
 30
0.0
 40
0
 41
0
  0
VERTEX
  8
0
 10
253.975
 20
47.7
 30
0.0
 40
0
 41
0
  0
VERTEX
  8
0
 10
253.975
 20
51.75
 30
0.0
 40
0
 41
0
  0
SEQEND
 8
0
  0
ENDSEC
  0
EOF
