  0
SECTION
  2
HEADER
  9
$ACADVER
  1
AC1009
  9
$EXTMIN
 10
0.0
 20
0.0
 30
0.0
  9
$EXTMAX
 10
1000.0
 20
1000.0
 30
0.0
  9
$FILLMODE
 70
 0
  9
$SPLFRAME
 70
 1
  0
ENDSEC
  0
SECTION
  2
TABLES
  0
TABLE
  2
LAYER
 70
1
  0
LAYER
  2
0
 70
     0
 62
     7
  6
CONTINUOUS
  0
ENDTAB
  0
ENDSEC
  0
SECTION
  2
ENTITIES
  0
POLYLINE
  8
0
 62
     0
 66
     1
 10
0
 20
0
 30
0.0
 70
     1
 40
0
 41
0
  0
VERTEX
  8
0
 10
404
 20
212.75
 30
0.0
 40
0
 41
0
  0
VERTEX
  8
0
 10
403.926
 20
215.106
 30
0.0
 40
0
 41
0
  0
VERTEX
  8
0
 10
403.704
 20
217.46
 30
0.0
 40
0
 41
0
  0
VERTEX
  8
0
 10
403.335
 20
219.808
 30
0.0
 40
0
 41
0
  0
VERTEX
  8
0
 10
402.817
 20
222.15
 30
0.0
 40
0
 41
0
  0
VERTEX
  8
0
 10
402.153
 20
224.483
 30
0.0
 40
0
 41
0
  0
VERTEX
  8
0
 10
401.343
 20
226.804
 30
0.0
 40
0
 41
0
  0
VERTEX
  8
0
 10
400.388
 20
229.111
 30
0.0
 40
0
 41
0
  0
VERTEX
  8
0
 10
399.287
 20
231.401
 30
0.0
 40
0
 41
0
  0
VERTEX
  8
0
 10
398.044
 20
233.675
 30
0.0
 40
0
 41
0
  0
VERTEX
  8
0
 10
396.658
 20
235.926
 30
0.0
 40
0
 41
0
  0
VERTEX
  8
0
 10
395.132
 20
238.156
 30
0.0
 40
0
 41
0
  0
VERTEX
  8
0
 10
393.467
 20
240.36
 30
0.0
 40
0
 41
0
  0
VERTEX
  8
0
 10
391.662
 20
242.536
 30
0.0
 40
0
 41
0
  0
VERTEX
  8
0
 10
389.724
 20
244.683
 30
0.0
 40
0
 41
0
  0
VERTEX
  8
0
 10
387.651
 20
246.8
 30
0.0
 40
0
 41
0
  0
VERTEX
  8
0
 10
385.446
 20
248.882
 30
0.0
 40
0
 41
0
  0
VERTEX
  8
0
 10
383.111
 20
250.928
 30
0.0
 40
0
 41
0
  0
VERTEX
  8
0
 10
380.649
 20
252.938
 30
0.0
 40
0
 41
0
  0
VERTEX
  8
0
 10
378.063
 20
254.907
 30
0.0
 40
0
 41
0
  0
VERTEX
  8
0
 10
375.353
 20
256.833
 30
0.0
 40
0
 41
0
  0
VERTEX
  8
0
 10
372.524
 20
258.718
 30
0.0
 40
0
 41
0
  0
VERTEX
  8
0
 10
369.576
 20
260.557
 30
0.0
 40
0
 41
0
  0
VERTEX
  8
0
 10
366.517
 20
262.349
 30
0.0
 40
0
 41
0
  0
VERTEX
  8
0
 10
363.344
 20
264.092
 30
0.0
 40
0
 41
0
  0
VERTEX
  8
0
 10
360.065
 20
265.783
 30
0.0
 40
0
 41
0
  0
VERTEX
  8
0
 10
356.682
 20
267.422
 30
0.0
 40
0
 41
0
  0
VERTEX
  8
0
 10
353.197
 20
269.008
 30
0.0
 40
0
 41
0
  0
VERTEX
  8
0
 10
349.614
 20
270.539
 30
0.0
 40
0
 41
0
  0
VERTEX
  8
0
 10
345.936
 20
272.011
 30
0.0
 40
0
 41
0
  0
VERTEX
  8
0
 10
342.168
 20
273.426
 30
0.0
 40
0
 41
0
  0
VERTEX
  8
0
 10
338.313
 20
274.781
 30
0.0
 40
0
 41
0
  0
VERTEX
  8
0
 10
334.374
 20
276.075
 30
0.0
 40
0
 41
0
  0
VERTEX
  8
0
 10
330.356
 20
277.306
 30
0.0
 40
0
 41
0
  0
VERTEX
  8
0
 10
326.263
 20
278.474
 30
0.0
 40
0
 41
0
  0
VERTEX
  8
0
 10
322.099
 20
279.575
 30
0.0
 40
0
 41
0
  0
VERTEX
  8
0
 10
317.867
 20
280.612
 30
0.0
 40
0
 41
0
  0
VERTEX
  8
0
 10
313.572
 20
281.582
 30
0.0
 40
0
 41
0
  0
VERTEX
  8
0
 10
309.218
 20
282.483
 30
0.0
 40
0
 41
0
  0
VERTEX
  8
0
 10
304.811
 20
283.317
 30
0.0
 40
0
 41
0
  0
VERTEX
  8
0
 10
300.353
 20
284.079
 30
0.0
 40
0
 41
0
  0
VERTEX
  8
0
 10
295.849
 20
284.772
 30
0.0
 40
0
 41
0
  0
VERTEX
  8
0
 10
291.303
 20
285.393
 30
0.0
 40
0
 41
0
  0
VERTEX
  8
0
 10
286.721
 20
285.943
 30
0.0
 40
0
 41
0
  0
VERTEX
  8
0
 10
282.107
 20
286.421
 30
0.0
 40
0
 41
0
  0
VERTEX
  8
0
 10
277.465
 20
286.826
 30
0.0
 40
0
 41
0
  0
VERTEX
  8
0
 10
272.8
 20
287.158
 30
0.0
 40
0
 41
0
  0
VERTEX
  8
0
 10
268.117
 20
287.417
 30
0.0
 40
0
 41
0
  0
VERTEX
  8
0
 10
263.418
 20
287.601
 30
0.0
 40
0
 41
0
  0
VERTEX
  8
0
 10
258.711
 20
287.713
 30
0.0
 40
0
 41
0
  0
VERTEX
  8
0
 10
254
 20
287.75
 30
0.0
 40
0
 41
0
  0
VERTEX
  8
0
 10
249.289
 20
287.713
 30
0.0
 40
0
 41
0
  0
VERTEX
  8
0
 10
244.581
 20
287.601
 30
0.0
 40
0
 41
0
  0
VERTEX
  8
0
 10
239.883
 20
287.417
 30
0.0
 40
0
 41
0
  0
VERTEX
  8
0
 10
235.2
 20
287.158
 30
0.0
 40
0
 41
0
  0
VERTEX
  8
0
 10
230.535
 20
286.826
 30
0.0
 40
0
 41
0
  0
VERTEX
  8
0
 10
225.893
 20
286.421
 30
0.0
 40
0
 41
0
  0
VERTEX
  8
0
 10
221.278
 20
285.943
 30
0.0
 40
0
 41
0
  0
VERTEX
  8
0
 10
216.696
 20
285.393
 30
0.0
 40
0
 41
0
  0
VERTEX
  8
0
 10
212.151
 20
284.772
 30
0.0
 40
0
 41
0
  0
VERTEX
  8
0
 10
207.647
 20
284.079
 30
0.0
 40
0
 41
0
  0
VERTEX
  8
0
 10
203.189
 20
283.317
 30
0.0
 40
0
 41
0
  0
VERTEX
  8
0
 10
198.781
 20
282.483
 30
0.0
 40
0
 41
0
  0
VERTEX
  8
0
 10
194.428
 20
281.582
 30
0.0
 40
0
 41
0
  0
VERTEX
  8
0
 10
190.133
 20
280.612
 30
0.0
 40
0
 41
0
  0
VERTEX
  8
0
 10
185.901
 20
279.575
 30
0.0
 40
0
 41
0
  0
VERTEX
  8
0
 10
181.737
 20
278.474
 30
0.0
 40
0
 41
0
  0
VERTEX
  8
0
 10
177.643
 20
277.306
 30
0.0
 40
0
 41
0
  0
VERTEX
  8
0
 10
173.626
 20
276.075
 30
0.0
 40
0
 41
0
  0
VERTEX
  8
0
 10
169.688
 20
274.781
 30
0.0
 40
0
 41
0
  0
VERTEX
  8
0
 10
165.832
 20
273.426
 30
0.0
 40
0
 41
0
  0
VERTEX
  8
0
 10
162.064
 20
272.011
 30
0.0
 40
0
 41
0
  0
VERTEX
  8
0
 10
158.386
 20
270.539
 30
0.0
 40
0
 41
0
  0
VERTEX
  8
0
 10
154.803
 20
269.008
 30
0.0
 40
0
 41
0
  0
VERTEX
  8
0
 10
151.318
 20
267.422
 30
0.0
 40
0
 41
0
  0
VERTEX
  8
0
 10
147.933
 20
265.783
 30
0.0
 40
0
 41
0
  0
VERTEX
  8
0
 10
144.654
 20
264.092
 30
0.0
 40
0
 41
0
  0
VERTEX
  8
0
 10
141.483
 20
262.349
 30
0.0
 40
0
 41
0
  0
VERTEX
  8
0
 10
138.423
 20
260.557
 30
0.0
 40
0
 41
0
  0
VERTEX
  8
0
 10
135.477
 20
258.718
 30
0.0
 40
0
 41
0
  0
VERTEX
  8
0
 10
132.647
 20
256.833
 30
0.0
 40
0
 41
0
  0
VERTEX
  8
0
 10
129.938
 20
254.907
 30
0.0
 40
0
 41
0
  0
VERTEX
  8
0
 10
127.351
 20
252.938
 30
0.0
 40
0
 41
0
  0
VERTEX
  8
0
 10
124.889
 20
250.928
 30
0.0
 40
0
 41
0
  0
VERTEX
  8
0
 10
122.554
 20
248.882
 30
0.0
 40
0
 41
0
  0
VERTEX
  8
0
 10
120.349
 20
246.8
 30
0.0
 40
0
 41
0
  0
VERTEX
  8
0
 10
118.276
 20
244.683
 30
0.0
 40
0
 41
0
  0
VERTEX
  8
0
 10
116.337
 20
242.536
 30
0.0
 40
0
 41
0
  0
VERTEX
  8
0
 10
114.533
 20
240.36
 30
0.0
 40
0
 41
0
  0
VERTEX
  8
0
 10
112.868
 20
238.156
 30
0.0
 40
0
 41
0
  0
VERTEX
  8
0
 10
111.341
 20
235.926
 30
0.0
 40
0
 41
0
  0
VERTEX
  8
0
 10
109.956
 20
233.675
 30
0.0
 40
0
 41
0
  0
VERTEX
  8
0
 10
108.712
 20
231.401
 30
0.0
 40
0
 41
0
  0
VERTEX
  8
0
 10
107.612
 20
229.111
 30
0.0
 40
0
 41
0
  0
VERTEX
  8
0
 10
106.657
 20
226.804
 30
0.0
 40
0
 41
0
  0
VERTEX
  8
0
 10
105.847
 20
224.483
 30
0.0
 40
0
 41
0
  0
VERTEX
  8
0
 10
105.183
 20
222.15
 30
0.0
 40
0
 41
0
  0
VERTEX
  8
0
 10
104.666
 20
219.808
 30
0.0
 40
0
 41
0
  0
VERTEX
  8
0
 10
104.296
 20
217.46
 30
0.0
 40
0
 41
0
  0
VERTEX
  8
0
 10
104.074
 20
215.106
 30
0.0
 40
0
 41
0
  0
VERTEX
  8
0
 10
104
 20
212.75
 30
0.0
 40
0
 41
0
  0
VERTEX
  8
0
 10
404
 20
212.75
 30
0.0
 40
0
 41
0
  0
SEQEND
 8
0
  0
POLYLINE
  8
0
 62
     0
 66
     1
 10
0
 20
0
 30
0.0
 70
     1
 40
0.75
 41
0.75
  0
VERTEX
  8
0
 10
404
 20
212.75
 30
0.0
 40
0.0104167
 41
0.0104167
  0
VERTEX
  8
0
 10
403.926
 20
215.106
 30
0.0
 40
0.0104167
 41
0.0104167
  0
VERTEX
  8
0
 10
403.704
 20
217.46
 30
0.0
 40
0.0104167
 41
0.0104167
  0
VERTEX
  8
0
 10
403.335
 20
219.808
 30
0.0
 40
0.0104167
 41
0.0104167
  0
VERTEX
  8
0
 10
402.817
 20
222.15
 30
0.0
 40
0.0104167
 41
0.0104167
  0
VERTEX
  8
0
 10
402.153
 20
224.483
 30
0.0
 40
0.0104167
 41
0.0104167
  0
VERTEX
  8
0
 10
401.343
 20
226.804
 30
0.0
 40
0.0104167
 41
0.0104167
  0
VERTEX
  8
0
 10
400.388
 20
229.111
 30
0.0
 40
0.0104167
 41
0.0104167
  0
VERTEX
  8
0
 10
399.287
 20
231.401
 30
0.0
 40
0.0104167
 41
0.0104167
  0
VERTEX
  8
0
 10
398.044
 20
233.675
 30
0.0
 40
0.0104167
 41
0.0104167
  0
VERTEX
  8
0
 10
396.658
 20
235.926
 30
0.0
 40
0.0104167
 41
0.0104167
  0
VERTEX
  8
0
 10
395.132
 20
238.156
 30
0.0
 40
0.0104167
 41
0.0104167
  0
VERTEX
  8
0
 10
393.467
 20
240.36
 30
0.0
 40
0.0104167
 41
0.0104167
  0
VERTEX
  8
0
 10
391.662
 20
242.536
 30
0.0
 40
0.0104167
 41
0.0104167
  0
VERTEX
  8
0
 10
389.724
 20
244.683
 30
0.0
 40
0.0104167
 41
0.0104167
  0
VERTEX
  8
0
 10
387.651
 20
246.8
 30
0.0
 40
0.0104167
 41
0.0104167
  0
VERTEX
  8
0
 10
385.446
 20
248.882
 30
0.0
 40
0.0104167
 41
0.0104167
  0
VERTEX
  8
0
 10
383.111
 20
250.928
 30
0.0
 40
0.0104167
 41
0.0104167
  0
VERTEX
  8
0
 10
380.649
 20
252.938
 30
0.0
 40
0.0104167
 41
0.0104167
  0
VERTEX
  8
0
 10
378.063
 20
254.907
 30
0.0
 40
0.0104167
 41
0.0104167
  0
VERTEX
  8
0
 10
375.353
 20
256.833
 30
0.0
 40
0.0104167
 41
0.0104167
  0
VERTEX
  8
0
 10
372.524
 20
258.718
 30
0.0
 40
0.0104167
 41
0.0104167
  0
VERTEX
  8
0
 10
369.576
 20
260.557
 30
0.0
 40
0.0104167
 41
0.0104167
  0
VERTEX
  8
0
 10
366.517
 20
262.349
 30
0.0
 40
0.0104167
 41
0.0104167
  0
VERTEX
  8
0
 10
363.344
 20
264.092
 30
0.0
 40
0.0104167
 41
0.0104167
  0
VERTEX
  8
0
 10
360.065
 20
265.783
 30
0.0
 40
0.0104167
 41
0.0104167
  0
VERTEX
  8
0
 10
356.682
 20
267.422
 30
0.0
 40
0.0104167
 41
0.0104167
  0
VERTEX
  8
0
 10
353.197
 20
269.008
 30
0.0
 40
0.0104167
 41
0.0104167
  0
VERTEX
  8
0
 10
349.614
 20
270.539
 30
0.0
 40
0.0104167
 41
0.0104167
  0
VERTEX
  8
0
 10
345.936
 20
272.011
 30
0.0
 40
0.0104167
 41
0.0104167
  0
VERTEX
  8
0
 10
342.168
 20
273.426
 30
0.0
 40
0.0104167
 41
0.0104167
  0
VERTEX
  8
0
 10
338.313
 20
274.781
 30
0.0
 40
0.0104167
 41
0.0104167
  0
VERTEX
  8
0
 10
334.374
 20
276.075
 30
0.0
 40
0.0104167
 41
0.0104167
  0
VERTEX
  8
0
 10
330.356
 20
277.306
 30
0.0
 40
0.0104167
 41
0.0104167
  0
VERTEX
  8
0
 10
326.263
 20
278.474
 30
0.0
 40
0.0104167
 41
0.0104167
  0
VERTEX
  8
0
 10
322.099
 20
279.575
 30
0.0
 40
0.0104167
 41
0.0104167
  0
VERTEX
  8
0
 10
317.867
 20
280.612
 30
0.0
 40
0.0104167
 41
0.0104167
  0
VERTEX
  8
0
 10
313.572
 20
281.582
 30
0.0
 40
0.0104167
 41
0.0104167
  0
VERTEX
  8
0
 10
309.218
 20
282.483
 30
0.0
 40
0.0104167
 41
0.0104167
  0
VERTEX
  8
0
 10
304.811
 20
283.317
 30
0.0
 40
0.0104167
 41
0.0104167
  0
VERTEX
  8
0
 10
300.353
 20
284.079
 30
0.0
 40
0.0104167
 41
0.0104167
  0
VERTEX
  8
0
 10
295.849
 20
284.772
 30
0.0
 40
0.0104167
 41
0.0104167
  0
VERTEX
  8
0
 10
291.303
 20
285.393
 30
0.0
 40
0.0104167
 41
0.0104167
  0
VERTEX
  8
0
 10
286.721
 20
285.943
 30
0.0
 40
0.0104167
 41
0.0104167
  0
VERTEX
  8
0
 10
282.107
 20
286.421
 30
0.0
 40
0.0104167
 41
0.0104167
  0
VERTEX
  8
0
 10
277.465
 20
286.826
 30
0.0
 40
0.0104167
 41
0.0104167
  0
VERTEX
  8
0
 10
272.8
 20
287.158
 30
0.0
 40
0.0104167
 41
0.0104167
  0
VERTEX
  8
0
 10
268.117
 20
287.417
 30
0.0
 40
0.0104167
 41
0.0104167
  0
VERTEX
  8
0
 10
263.418
 20
287.601
 30
0.0
 40
0.0104167
 41
0.0104167
  0
VERTEX
  8
0
 10
258.711
 20
287.713
 30
0.0
 40
0.0104167
 41
0.0104167
  0
VERTEX
  8
0
 10
254
 20
287.75
 30
0.0
 40
0.0104167
 41
0.0104167
  0
VERTEX
  8
0
 10
249.289
 20
287.713
 30
0.0
 40
0.0104167
 41
0.0104167
  0
VERTEX
  8
0
 10
244.581
 20
287.601
 30
0.0
 40
0.0104167
 41
0.0104167
  0
VERTEX
  8
0
 10
239.883
 20
287.417
 30
0.0
 40
0.0104167
 41
0.0104167
  0
VERTEX
  8
0
 10
235.2
 20
287.158
 30
0.0
 40
0.0104167
 41
0.0104167
  0
VERTEX
  8
0
 10
230.535
 20
286.826
 30
0.0
 40
0.0104167
 41
0.0104167
  0
VERTEX
  8
0
 10
225.893
 20
286.421
 30
0.0
 40
0.0104167
 41
0.0104167
  0
VERTEX
  8
0
 10
221.278
 20
285.943
 30
0.0
 40
0.0104167
 41
0.0104167
  0
VERTEX
  8
0
 10
216.696
 20
285.393
 30
0.0
 40
0.0104167
 41
0.0104167
  0
VERTEX
  8
0
 10
212.151
 20
284.772
 30
0.0
 40
0.0104167
 41
0.0104167
  0
VERTEX
  8
0
 10
207.647
 20
284.079
 30
0.0
 40
0.0104167
 41
0.0104167
  0
VERTEX
  8
0
 10
203.189
 20
283.317
 30
0.0
 40
0.0104167
 41
0.0104167
  0
VERTEX
  8
0
 10
198.781
 20
282.483
 30
0.0
 40
0.0104167
 41
0.0104167
  0
VERTEX
  8
0
 10
194.428
 20
281.582
 30
0.0
 40
0.0104167
 41
0.0104167
  0
VERTEX
  8
0
 10
190.133
 20
280.612
 30
0.0
 40
0.0104167
 41
0.0104167
  0
VERTEX
  8
0
 10
185.901
 20
279.575
 30
0.0
 40
0.0104167
 41
0.0104167
  0
VERTEX
  8
0
 10
181.737
 20
278.474
 30
0.0
 40
0.0104167
 41
0.0104167
  0
VERTEX
  8
0
 10
177.643
 20
277.306
 30
0.0
 40
0.0104167
 41
0.0104167
  0
VERTEX
  8
0
 10
173.626
 20
276.075
 30
0.0
 40
0.0104167
 41
0.0104167
  0
VERTEX
  8
0
 10
169.688
 20
274.781
 30
0.0
 40
0.0104167
 41
0.0104167
  0
VERTEX
  8
0
 10
165.832
 20
273.426
 30
0.0
 40
0.0104167
 41
0.0104167
  0
VERTEX
  8
0
 10
162.064
 20
272.011
 30
0.0
 40
0.0104167
 41
0.0104167
  0
VERTEX
  8
0
 10
158.386
 20
270.539
 30
0.0
 40
0.0104167
 41
0.0104167
  0
VERTEX
  8
0
 10
154.803
 20
269.008
 30
0.0
 40
0.0104167
 41
0.0104167
  0
VERTEX
  8
0
 10
151.318
 20
267.422
 30
0.0
 40
0.0104167
 41
0.0104167
  0
VERTEX
  8
0
 10
147.933
 20
265.783
 30
0.0
 40
0.0104167
 41
0.0104167
  0
VERTEX
  8
0
 10
144.654
 20
264.092
 30
0.0
 40
0.0104167
 41
0.0104167
  0
VERTEX
  8
0
 10
141.483
 20
262.349
 30
0.0
 40
0.0104167
 41
0.0104167
  0
VERTEX
  8
0
 10
138.423
 20
260.557
 30
0.0
 40
0.0104167
 41
0.0104167
  0
VERTEX
  8
0
 10
135.477
 20
258.718
 30
0.0
 40
0.0104167
 41
0.0104167
  0
VERTEX
  8
0
 10
132.647
 20
256.833
 30
0.0
 40
0.0104167
 41
0.0104167
  0
VERTEX
  8
0
 10
129.938
 20
254.907
 30
0.0
 40
0.0104167
 41
0.0104167
  0
VERTEX
  8
0
 10
127.351
 20
252.938
 30
0.0
 40
0.0104167
 41
0.0104167
  0
VERTEX
  8
0
 10
124.889
 20
250.928
 30
0.0
 40
0.0104167
 41
0.0104167
  0
VERTEX
  8
0
 10
122.554
 20
248.882
 30
0.0
 40
0.0104167
 41
0.0104167
  0
VERTEX
  8
0
 10
120.349
 20
246.8
 30
0.0
 40
0.0104167
 41
0.0104167
  0
VERTEX
  8
0
 10
118.276
 20
244.683
 30
0.0
 40
0.0104167
 41
0.0104167
  0
VERTEX
  8
0
 10
116.337
 20
242.536
 30
0.0
 40
0.0104167
 41
0.0104167
  0
VERTEX
  8
0
 10
114.533
 20
240.36
 30
0.0
 40
0.0104167
 41
0.0104167
  0
VERTEX
  8
0
 10
112.868
 20
238.156
 30
0.0
 40
0.0104167
 41
0.0104167
  0
VERTEX
  8
0
 10
111.341
 20
235.926
 30
0.0
 40
0.0104167
 41
0.0104167
  0
VERTEX
  8
0
 10
109.956
 20
233.675
 30
0.0
 40
0.0104167
 41
0.0104167
  0
VERTEX
  8
0
 10
108.712
 20
231.401
 30
0.0
 40
0.0104167
 41
0.0104167
  0
VERTEX
  8
0
 10
107.612
 20
229.111
 30
0.0
 40
0.0104167
 41
0.0104167
  0
VERTEX
  8
0
 10
106.657
 20
226.804
 30
0.0
 40
0.0104167
 41
0.0104167
  0
VERTEX
  8
0
 10
105.847
 20
224.483
 30
0.0
 40
0.0104167
 41
0.0104167
  0
VERTEX
  8
0
 10
105.183
 20
222.15
 30
0.0
 40
0.0104167
 41
0.0104167
  0
VERTEX
  8
0
 10
104.666
 20
219.808
 30
0.0
 40
0.0104167
 41
0.0104167
  0
VERTEX
  8
0
 10
104.296
 20
217.46
 30
0.0
 40
0.0104167
 41
0.0104167
  0
VERTEX
  8
0
 10
104.074
 20
215.106
 30
0.0
 40
0.0104167
 41
0.0104167
  0
VERTEX
  8
0
 10
104
 20
212.75
 30
0.0
 40
0.0104167
 41
0.0104167
  0
VERTEX
  8
0
 10
404
 20
212.75
 30
0.0
 40
0.0104167
 41
0.0104167
  0
SEQEND
 8
0
  0
POLYLINE
  8
0
 62
     0
 66
     1
 10
0
 20
0
 30
0.0
 70
     1
 40
0
 41
0
  0
VERTEX
  8
0
 10
104
 20
162.7
 30
0.0
 40
0
 41
0
  0
VERTEX
  8
0
 10
104.074
 20
160.344
 30
0.0
 40
0
 41
0
  0
VERTEX
  8
0
 10
104.296
 20
157.99
 30
0.0
 40
0
 41
0
  0
VERTEX
  8
0
 10
104.666
 20
155.642
 30
0.0
 40
0
 41
0
  0
VERTEX
  8
0
 10
105.183
 20
153.3
 30
0.0
 40
0
 41
0
  0
VERTEX
  8
0
 10
105.847
 20
150.967
 30
0.0
 40
0
 41
0
  0
VERTEX
  8
0
 10
106.657
 20
148.646
 30
0.0
 40
0
 41
0
  0
VERTEX
  8
0
 10
107.612
 20
146.339
 30
0.0
 40
0
 41
0
  0
VERTEX
  8
0
 10
108.712
 20
144.049
 30
0.0
 40
0
 41
0
  0
VERTEX
  8
0
 10
109.956
 20
141.775
 30
0.0
 40
0
 41
0
  0
VERTEX
  8
0
 10
111.341
 20
139.524
 30
0.0
 40
0
 41
0
  0
VERTEX
  8
0
 10
112.868
 20
137.295
 30
0.0
 40
0
 41
0
  0
VERTEX
  8
0
 10
114.533
 20
135.091
 30
0.0
 40
0
 41
0
  0
VERTEX
  8
0
 10
116.337
 20
132.914
 30
0.0
 40
0
 41
0
  0
VERTEX
  8
0
 10
118.276
 20
130.767
 30
0.0
 40
0
 41
0
  0
VERTEX
  8
0
 10
120.349
 20
128.651
 30
0.0
 40
0
 41
0
  0
VERTEX
  8
0
 10
122.554
 20
126.568
 30
0.0
 40
0
 41
0
  0
VERTEX
  8
0
 10
124.889
 20
124.522
 30
0.0
 40
0
 41
0
  0
VERTEX
  8
0
 10
127.351
 20
122.513
 30
0.0
 40
0
 41
0
  0
VERTEX
  8
0
 10
129.938
 20
120.544
 30
0.0
 40
0
 41
0
  0
VERTEX
  8
0
 10
132.647
 20
118.616
 30
0.0
 40
0
 41
0
  0
VERTEX
  8
0
 10
135.477
 20
116.732
 30
0.0
 40
0
 41
0
  0
VERTEX
  8
0
 10
138.423
 20
114.893
 30
0.0
 40
0
 41
0
  0
VERTEX
  8
0
 10
141.483
 20
113.102
 30
0.0
 40
0
 41
0
  0
VERTEX
  8
0
 10
144.654
 20
111.359
 30
0.0
 40
0
 41
0
  0
VERTEX
  8
0
 10
147.933
 20
109.667
 30
0.0
 40
0
 41
0
  0
VERTEX
  8
0
 10
151.318
 20
108.027
 30
0.0
 40
0
 41
0
  0
VERTEX
  8
0
 10
154.803
 20
106.442
 30
0.0
 40
0
 41
0
  0
VERTEX
  8
0
 10
158.386
 20
104.912
 30
0.0
 40
0
 41
0
  0
VERTEX
  8
0
 10
162.064
 20
103.438
 30
0.0
 40
0
 41
0
  0
VERTEX
  8
0
 10
165.832
 20
102.024
 30
0.0
 40
0
 41
0
  0
VERTEX
  8
0
 10
169.688
 20
100.669
 30
0.0
 40
0
 41
0
  0
VERTEX
  8
0
 10
173.626
 20
99.3754
 30
0.0
 40
0
 41
0
  0
VERTEX
  8
0
 10
177.643
 20
98.1443
 30
0.0
 40
0
 41
0
  0
VERTEX
  8
0
 10
181.737
 20
96.9769
 30
0.0
 40
0
 41
0
  0
VERTEX
  8
0
 10
185.901
 20
95.8744
 30
0.0
 40
0
 41
0
  0
VERTEX
  8
0
 10
190.133
 20
94.8379
 30
0.0
 40
0
 41
0
  0
VERTEX
  8
0
 10
194.428
 20
93.8683
 30
0.0
 40
0
 41
0
  0
VERTEX
  8
0
 10
198.781
 20
92.9668
 30
0.0
 40
0
 41
0
  0
VERTEX
  8
0
 10
203.189
 20
92.1339
 30
0.0
 40
0
 41
0
  0
VERTEX
  8
0
 10
207.647
 20
91.3707
 30
0.0
 40
0
 41
0
  0
VERTEX
  8
0
 10
212.151
 20
90.6779
 30
0.0
 40
0
 41
0
  0
VERTEX
  8
0
 10
216.696
 20
90.0562
 30
0.0
 40
0
 41
0
  0
VERTEX
  8
0
 10
221.278
 20
89.5063
 30
0.0
 40
0
 41
0
  0
VERTEX
  8
0
 10
225.893
 20
89.0285
 30
0.0
 40
0
 41
0
  0
VERTEX
  8
0
 10
230.535
 20
88.6233
 30
0.0
 40
0
 41
0
  0
VERTEX
  8
0
 10
235.2
 20
88.2914
 30
0.0
 40
0
 41
0
  0
VERTEX
  8
0
 10
239.883
 20
88.0328
 30
0.0
 40
0
 41
0
  0
VERTEX
  8
0
 10
244.581
 20
87.8481
 30
0.0
 40
0
 41
0
  0
VERTEX
  8
0
 10
249.289
 20
87.7369
 30
0.0
 40
0
 41
0
  0
VERTEX
  8
0
 10
254
 20
87.7
 30
0.0
 40
0
 41
0
  0
VERTEX
  8
0
 10
258.711
 20
87.7369
 30
0.0
 40
0
 41
0
  0
VERTEX
  8
0
 10
263.418
 20
87.8481
 30
0.0
 40
0
 41
0
  0
VERTEX
  8
0
 10
268.117
 20
88.0328
 30
0.0
 40
0
 41
0
  0
VERTEX
  8
0
 10
272.8
 20
88.2914
 30
0.0
 40
0
 41
0
  0
VERTEX
  8
0
 10
277.465
 20
88.6233
 30
0.0
 40
0
 41
0
  0
VERTEX
  8
0
 10
282.107
 20
89.0285
 30
0.0
 40
0
 41
0
  0
VERTEX
  8
0
 10
286.721
 20
89.5063
 30
0.0
 40
0
 41
0
  0
VERTEX
  8
0
 10
291.303
 20
90.0562
 30
0.0
 40
0
 41
0
  0
VERTEX
  8
0
 10
295.849
 20
90.6779
 30
0.0
 40
0
 41
0
  0
VERTEX
  8
0
 10
300.353
 20
91.3707
 30
0.0
 40
0
 41
0
  0
VERTEX
  8
0
 10
304.811
 20
92.1339
 30
0.0
 40
0
 41
0
  0
VERTEX
  8
0
 10
309.218
 20
92.9668
 30
0.0
 40
0
 41
0
  0
VERTEX
  8
0
 10
313.572
 20
93.8683
 30
0.0
 40
0
 41
0
  0
VERTEX
  8
0
 10
317.867
 20
94.8379
 30
0.0
 40
0
 41
0
  0
VERTEX
  8
0
 10
322.099
 20
95.8744
 30
0.0
 40
0
 41
0
  0
VERTEX
  8
0
 10
326.263
 20
96.9769
 30
0.0
 40
0
 41
0
  0
VERTEX
  8
0
 10
330.356
 20
98.1443
 30
0.0
 40
0
 41
0
  0
VERTEX
  8
0
 10
334.374
 20
99.3754
 30
0.0
 40
0
 41
0
  0
VERTEX
  8
0
 10
338.313
 20
100.669
 30
0.0
 40
0
 41
0
  0
VERTEX
  8
0
 10
342.168
 20
102.024
 30
0.0
 40
0
 41
0
  0
VERTEX
  8
0
 10
345.936
 20
103.438
 30
0.0
 40
0
 41
0
  0
VERTEX
  8
0
 10
349.614
 20
104.912
 30
0.0
 40
0
 41
0
  0
VERTEX
  8
0
 10
353.197
 20
106.442
 30
0.0
 40
0
 41
0
  0
VERTEX
  8
0
 10
356.682
 20
108.027
 30
0.0
 40
0
 41
0
  0
VERTEX
  8
0
 10
360.065
 20
109.667
 30
0.0
 40
0
 41
0
  0
VERTEX
  8
0
 10
363.344
 20
111.359
 30
0.0
 40
0
 41
0
  0
VERTEX
  8
0
 10
366.517
 20
113.102
 30
0.0
 40
0
 41
0
  0
VERTEX
  8
0
 10
369.576
 20
114.893
 30
0.0
 40
0
 41
0
  0
VERTEX
  8
0
 10
372.524
 20
116.732
 30
0.0
 40
0
 41
0
  0
VERTEX
  8
0
 10
375.353
 20
118.616
 30
0.0
 40
0
 41
0
  0
VERTEX
  8
0
 10
378.063
 20
120.544
 30
0.0
 40
0
 41
0
  0
VERTEX
  8
0
 10
380.649
 20
122.513
 30
0.0
 40
0
 41
0
  0
VERTEX
  8
0
 10
383.111
 20
124.522
 30
0.0
 40
0
 41
0
  0
VERTEX
  8
0
 10
385.446
 20
126.568
 30
0.0
 40
0
 41
0
  0
VERTEX
  8
0
 10
387.651
 20
128.651
 30
0.0
 40
0
 41
0
  0
VERTEX
  8
0
 10
389.724
 20
130.767
 30
0.0
 40
0
 41
0
  0
VERTEX
  8
0
 10
391.662
 20
132.914
 30
0.0
 40
0
 41
0
  0
VERTEX
  8
0
 10
393.467
 20
135.091
 30
0.0
 40
0
 41
0
  0
VERTEX
  8
0
 10
395.132
 20
137.295
 30
0.0
 40
0
 41
0
  0
VERTEX
  8
0
 10
396.658
 20
139.524
 30
0.0
 40
0
 41
0
  0
VERTEX
  8
0
 10
398.044
 20
141.775
 30
0.0
 40
0
 41
0
  0
VERTEX
  8
0
 10
399.287
 20
144.049
 30
0.0
 40
0
 41
0
  0
VERTEX
  8
0
 10
400.388
 20
146.339
 30
0.0
 40
0
 41
0
  0
VERTEX
  8
0
 10
401.343
 20
148.646
 30
0.0
 40
0
 41
0
  0
VERTEX
  8
0
 10
402.153
 20
150.967
 30
0.0
 40
0
 41
0
  0
VERTEX
  8
0
 10
402.817
 20
153.3
 30
0.0
 40
0
 41
0
  0
VERTEX
  8
0
 10
403.335
 20
155.642
 30
0.0
 40
0
 41
0
  0
VERTEX
  8
0
 10
403.704
 20
157.99
 30
0.0
 40
0
 41
0
  0
VERTEX
  8
0
 10
403.926
 20
160.344
 30
0.0
 40
0
 41
0
  0
VERTEX
  8
0
 10
404
 20
162.7
 30
0.0
 40
0
 41
0
  0
VERTEX
  8
0
 10
104
 20
162.7
 30
0.0
 40
0
 41
0
  0
SEQEND
 8
0
  0
POLYLINE
  8
0
 62
     0
 66
     1
 10
0
 20
0
 30
0.0
 70
     1
 40
0.75
 41
0.75
  0
VERTEX
  8
0
 10
104
 20
162.7
 30
0.0
 40
0.0104167
 41
0.0104167
  0
VERTEX
  8
0
 10
104.074
 20
160.344
 30
0.0
 40
0.0104167
 41
0.0104167
  0
VERTEX
  8
0
 10
104.296
 20
157.99
 30
0.0
 40
0.0104167
 41
0.0104167
  0
VERTEX
  8
0
 10
104.666
 20
155.642
 30
0.0
 40
0.0104167
 41
0.0104167
  0
VERTEX
  8
0
 10
105.183
 20
153.3
 30
0.0
 40
0.0104167
 41
0.0104167
  0
VERTEX
  8
0
 10
105.847
 20
150.967
 30
0.0
 40
0.0104167
 41
0.0104167
  0
VERTEX
  8
0
 10
106.657
 20
148.646
 30
0.0
 40
0.0104167
 41
0.0104167
  0
VERTEX
  8
0
 10
107.612
 20
146.339
 30
0.0
 40
0.0104167
 41
0.0104167
  0
VERTEX
  8
0
 10
108.712
 20
144.049
 30
0.0
 40
0.0104167
 41
0.0104167
  0
VERTEX
  8
0
 10
109.956
 20
141.775
 30
0.0
 40
0.0104167
 41
0.0104167
  0
VERTEX
  8
0
 10
111.341
 20
139.524
 30
0.0
 40
0.0104167
 41
0.0104167
  0
VERTEX
  8
0
 10
112.868
 20
137.295
 30
0.0
 40
0.0104167
 41
0.0104167
  0
VERTEX
  8
0
 10
114.533
 20
135.091
 30
0.0
 40
0.0104167
 41
0.0104167
  0
VERTEX
  8
0
 10
116.337
 20
132.914
 30
0.0
 40
0.0104167
 41
0.0104167
  0
VERTEX
  8
0
 10
118.276
 20
130.767
 30
0.0
 40
0.0104167
 41
0.0104167
  0
VERTEX
  8
0
 10
120.349
 20
128.651
 30
0.0
 40
0.0104167
 41
0.0104167
  0
VERTEX
  8
0
 10
122.554
 20
126.568
 30
0.0
 40
0.0104167
 41
0.0104167
  0
VERTEX
  8
0
 10
124.889
 20
124.522
 30
0.0
 40
0.0104167
 41
0.0104167
  0
VERTEX
  8
0
 10
127.351
 20
122.513
 30
0.0
 40
0.0104167
 41
0.0104167
  0
VERTEX
  8
0
 10
129.938
 20
120.544
 30
0.0
 40
0.0104167
 41
0.0104167
  0
VERTEX
  8
0
 10
132.647
 20
118.616
 30
0.0
 40
0.0104167
 41
0.0104167
  0
VERTEX
  8
0
 10
135.477
 20
116.732
 30
0.0
 40
0.0104167
 41
0.0104167
  0
VERTEX
  8
0
 10
138.423
 20
114.893
 30
0.0
 40
0.0104167
 41
0.0104167
  0
VERTEX
  8
0
 10
141.483
 20
113.102
 30
0.0
 40
0.0104167
 41
0.0104167
  0
VERTEX
  8
0
 10
144.654
 20
111.359
 30
0.0
 40
0.0104167
 41
0.0104167
  0
VERTEX
  8
0
 10
147.933
 20
109.667
 30
0.0
 40
0.0104167
 41
0.0104167
  0
VERTEX
  8
0
 10
151.318
 20
108.027
 30
0.0
 40
0.0104167
 41
0.0104167
  0
VERTEX
  8
0
 10
154.803
 20
106.442
 30
0.0
 40
0.0104167
 41
0.0104167
  0
VERTEX
  8
0
 10
158.386
 20
104.912
 30
0.0
 40
0.0104167
 41
0.0104167
  0
VERTEX
  8
0
 10
162.064
 20
103.438
 30
0.0
 40
0.0104167
 41
0.0104167
  0
VERTEX
  8
0
 10
165.832
 20
102.024
 30
0.0
 40
0.0104167
 41
0.0104167
  0
VERTEX
  8
0
 10
169.688
 20
100.669
 30
0.0
 40
0.0104167
 41
0.0104167
  0
VERTEX
  8
0
 10
173.626
 20
99.3754
 30
0.0
 40
0.0104167
 41
0.0104167
  0
VERTEX
  8
0
 10
177.643
 20
98.1443
 30
0.0
 40
0.0104167
 41
0.0104167
  0
VERTEX
  8
0
 10
181.737
 20
96.9769
 30
0.0
 40
0.0104167
 41
0.0104167
  0
VERTEX
  8
0
 10
185.901
 20
95.8744
 30
0.0
 40
0.0104167
 41
0.0104167
  0
VERTEX
  8
0
 10
190.133
 20
94.8379
 30
0.0
 40
0.0104167
 41
0.0104167
  0
VERTEX
  8
0
 10
194.428
 20
93.8683
 30
0.0
 40
0.0104167
 41
0.0104167
  0
VERTEX
  8
0
 10
198.781
 20
92.9668
 30
0.0
 40
0.0104167
 41
0.0104167
  0
VERTEX
  8
0
 10
203.189
 20
92.1339
 30
0.0
 40
0.0104167
 41
0.0104167
  0
VERTEX
  8
0
 10
207.647
 20
91.3707
 30
0.0
 40
0.0104167
 41
0.0104167
  0
VERTEX
  8
0
 10
212.151
 20
90.6779
 30
0.0
 40
0.0104167
 41
0.0104167
  0
VERTEX
  8
0
 10
216.696
 20
90.0562
 30
0.0
 40
0.0104167
 41
0.0104167
  0
VERTEX
  8
0
 10
221.278
 20
89.5063
 30
0.0
 40
0.0104167
 41
0.0104167
  0
VERTEX
  8
0
 10
225.893
 20
89.0285
 30
0.0
 40
0.0104167
 41
0.0104167
  0
VERTEX
  8
0
 10
230.535
 20
88.6233
 30
0.0
 40
0.0104167
 41
0.0104167
  0
VERTEX
  8
0
 10
235.2
 20
88.2914
 30
0.0
 40
0.0104167
 41
0.0104167
  0
VERTEX
  8
0
 10
239.883
 20
88.0328
 30
0.0
 40
0.0104167
 41
0.0104167
  0
VERTEX
  8
0
 10
244.581
 20
87.8481
 30
0.0
 40
0.0104167
 41
0.0104167
  0
VERTEX
  8
0
 10
249.289
 20
87.7369
 30
0.0
 40
0.0104167
 41
0.0104167
  0
VERTEX
  8
0
 10
254
 20
87.7
 30
0.0
 40
0.0104167
 41
0.0104167
  0
VERTEX
  8
0
 10
258.711
 20
87.7369
 30
0.0
 40
0.0104167
 41
0.0104167
  0
VERTEX
  8
0
 10
263.418
 20
87.8481
 30
0.0
 40
0.0104167
 41
0.0104167
  0
VERTEX
  8
0
 10
268.117
 20
88.0328
 30
0.0
 40
0.0104167
 41
0.0104167
  0
VERTEX
  8
0
 10
272.8
 20
88.2914
 30
0.0
 40
0.0104167
 41
0.0104167
  0
VERTEX
  8
0
 10
277.465
 20
88.6233
 30
0.0
 40
0.0104167
 41
0.0104167
  0
VERTEX
  8
0
 10
282.107
 20
89.0285
 30
0.0
 40
0.0104167
 41
0.0104167
  0
VERTEX
  8
0
 10
286.721
 20
89.5063
 30
0.0
 40
0.0104167
 41
0.0104167
  0
VERTEX
  8
0
 10
291.303
 20
90.0562
 30
0.0
 40
0.0104167
 41
0.0104167
  0
VERTEX
  8
0
 10
295.849
 20
90.6779
 30
0.0
 40
0.0104167
 41
0.0104167
  0
VERTEX
  8
0
 10
300.353
 20
91.3707
 30
0.0
 40
0.0104167
 41
0.0104167
  0
VERTEX
  8
0
 10
304.811
 20
92.1339
 30
0.0
 40
0.0104167
 41
0.0104167
  0
VERTEX
  8
0
 10
309.218
 20
92.9668
 30
0.0
 40
0.0104167
 41
0.0104167
  0
VERTEX
  8
0
 10
313.572
 20
93.8683
 30
0.0
 40
0.0104167
 41
0.0104167
  0
VERTEX
  8
0
 10
317.867
 20
94.8379
 30
0.0
 40
0.0104167
 41
0.0104167
  0
VERTEX
  8
0
 10
322.099
 20
95.8744
 30
0.0
 40
0.0104167
 41
0.0104167
  0
VERTEX
  8
0
 10
326.263
 20
96.9769
 30
0.0
 40
0.0104167
 41
0.0104167
  0
VERTEX
  8
0
 10
330.356
 20
98.1443
 30
0.0
 40
0.0104167
 41
0.0104167
  0
VERTEX
  8
0
 10
334.374
 20
99.3754
 30
0.0
 40
0.0104167
 41
0.0104167
  0
VERTEX
  8
0
 10
338.313
 20
100.669
 30
0.0
 40
0.0104167
 41
0.0104167
  0
VERTEX
  8
0
 10
342.168
 20
102.024
 30
0.0
 40
0.0104167
 41
0.0104167
  0
VERTEX
  8
0
 10
345.936
 20
103.438
 30
0.0
 40
0.0104167
 41
0.0104167
  0
VERTEX
  8
0
 10
349.614
 20
104.912
 30
0.0
 40
0.0104167
 41
0.0104167
  0
VERTEX
  8
0
 10
353.197
 20
106.442
 30
0.0
 40
0.0104167
 41
0.0104167
  0
VERTEX
  8
0
 10
356.682
 20
108.027
 30
0.0
 40
0.0104167
 41
0.0104167
  0
VERTEX
  8
0
 10
360.065
 20
109.667
 30
0.0
 40
0.0104167
 41
0.0104167
  0
VERTEX
  8
0
 10
363.344
 20
111.359
 30
0.0
 40
0.0104167
 41
0.0104167
  0
VERTEX
  8
0
 10
366.517
 20
113.102
 30
0.0
 40
0.0104167
 41
0.0104167
  0
VERTEX
  8
0
 10
369.576
 20
114.893
 30
0.0
 40
0.0104167
 41
0.0104167
  0
VERTEX
  8
0
 10
372.524
 20
116.732
 30
0.0
 40
0.0104167
 41
0.0104167
  0
VERTEX
  8
0
 10
375.353
 20
118.616
 30
0.0
 40
0.0104167
 41
0.0104167
  0
VERTEX
  8
0
 10
378.063
 20
120.544
 30
0.0
 40
0.0104167
 41
0.0104167
  0
VERTEX
  8
0
 10
380.649
 20
122.513
 30
0.0
 40
0.0104167
 41
0.0104167
  0
VERTEX
  8
0
 10
383.111
 20
124.522
 30
0.0
 40
0.0104167
 41
0.0104167
  0
VERTEX
  8
0
 10
385.446
 20
126.568
 30
0.0
 40
0.0104167
 41
0.0104167
  0
VERTEX
  8
0
 10
387.651
 20
128.651
 30
0.0
 40
0.0104167
 41
0.0104167
  0
VERTEX
  8
0
 10
389.724
 20
130.767
 30
0.0
 40
0.0104167
 41
0.0104167
  0
VERTEX
  8
0
 10
391.662
 20
132.914
 30
0.0
 40
0.0104167
 41
0.0104167
  0
VERTEX
  8
0
 10
393.467
 20
135.091
 30
0.0
 40
0.0104167
 41
0.0104167
  0
VERTEX
  8
0
 10
395.132
 20
137.295
 30
0.0
 40
0.0104167
 41
0.0104167
  0
VERTEX
  8
0
 10
396.658
 20
139.524
 30
0.0
 40
0.0104167
 41
0.0104167
  0
VERTEX
  8
0
 10
398.044
 20
141.775
 30
0.0
 40
0.0104167
 41
0.0104167
  0
VERTEX
  8
0
 10
399.287
 20
144.049
 30
0.0
 40
0.0104167
 41
0.0104167
  0
VERTEX
  8
0
 10
400.388
 20
146.339
 30
0.0
 40
0.0104167
 41
0.0104167
  0
VERTEX
  8
0
 10
401.343
 20
148.646
 30
0.0
 40
0.0104167
 41
0.0104167
  0
VERTEX
  8
0
 10
402.153
 20
150.967
 30
0.0
 40
0.0104167
 41
0.0104167
  0
VERTEX
  8
0
 10
402.817
 20
153.3
 30
0.0
 40
0.0104167
 41
0.0104167
  0
VERTEX
  8
0
 10
403.335
 20
155.642
 30
0.0
 40
0.0104167
 41
0.0104167
  0
VERTEX
  8
0
 10
403.704
 20
157.99
 30
0.0
 40
0.0104167
 41
0.0104167
  0
VERTEX
  8
0
 10
403.926
 20
160.344
 30
0.0
 40
0.0104167
 41
0.0104167
  0
VERTEX
  8
0
 10
404
 20
162.7
 30
0.0
 40
0.0104167
 41
0.0104167
  0
VERTEX
  8
0
 10
104
 20
162.7
 30
0.0
 40
0.0104167
 41
0.0104167
  0
SEQEND
 8
0
  0
POLYLINE
  8
0
 62
     0
 66
     1
 10
0
 20
0
 30
0.0
 70
     1
 40
0
 41
0
  0
VERTEX
  8
0
 10
104
 20
212.75
 30
0.0
 40
0
 41
0
  0
VERTEX
  8
0
 10
112
 20
212.75
 30
0.0
 40
0
 41
0
  0
VERTEX
  8
0
 10
112
 20
192.65
 30
0.0
 40
0
 41
0
  0
VERTEX
  8
0
 10
104
 20
192.65
 30
0.0
 40
0
 41
0
  0
VERTEX
  8
0
 10
104
 20
212.75
 30
0.0
 40
0
 41
0
  0
SEQEND
 8
0
  0
POLYLINE
  8
0
 62
     0
 66
     1
 10
0
 20
0
 30
0.0
 70
     1
 40
0
 41
0
  0
VERTEX
  8
0
 10
114
 20
212.75
 30
0.0
 40
0
 41
0
  0
VERTEX
  8
0
 10
122
 20
212.75
 30
0.0
 40
0
 41
0
  0
VERTEX
  8
0
 10
122
 20
192.65
 30
0.0
 40
0
 41
0
  0
VERTEX
  8
0
 10
114
 20
192.65
 30
0.0
 40
0
 41
0
  0
VERTEX
  8
0
 10
114
 20
212.75
 30
0.0
 40
0
 41
0
  0
SEQEND
 8
0
  0
POLYLINE
  8
0
 62
     0
 66
     1
 10
0
 20
0
 30
0.0
 70
     1
 40
0
 41
0
  0
VERTEX
  8
0
 10
124
 20
212.75
 30
0.0
 40
0
 41
0
  0
VERTEX
  8
0
 10
132
 20
212.75
 30
0.0
 40
0
 41
0
  0
VERTEX
  8
0
 10
132
 20
192.65
 30
0.0
 40
0
 41
0
  0
VERTEX
  8
0
 10
124
 20
192.65
 30
0.0
 40
0
 41
0
  0
VERTEX
  8
0
 10
124
 20
212.75
 30
0.0
 40
0
 41
0
  0
SEQEND
 8
0
  0
POLYLINE
  8
0
 62
     0
 66
     1
 10
0
 20
0
 30
0.0
 70
     1
 40
0
 41
0
  0
VERTEX
  8
0
 10
134
 20
212.75
 30
0.0
 40
0
 41
0
  0
VERTEX
  8
0
 10
142
 20
212.75
 30
0.0
 40
0
 41
0
  0
VERTEX
  8
0
 10
142
 20
192.65
 30
0.0
 40
0
 41
0
  0
VERTEX
  8
0
 10
134
 20
192.65
 30
0.0
 40
0
 41
0
  0
VERTEX
  8
0
 10
134
 20
212.75
 30
0.0
 40
0
 41
0
  0
SEQEND
 8
0
  0
POLYLINE
  8
0
 62
     0
 66
     1
 10
0
 20
0
 30
0.0
 70
     1
 40
0
 41
0
  0
VERTEX
  8
0
 10
144
 20
212.75
 30
0.0
 40
0
 41
0
  0
VERTEX
  8
0
 10
152
 20
212.75
 30
0.0
 40
0
 41
0
  0
VERTEX
  8
0
 10
152
 20
192.65
 30
0.0
 40
0
 41
0
  0
VERTEX
  8
0
 10
144
 20
192.65
 30
0.0
 40
0
 41
0
  0
VERTEX
  8
0
 10
144
 20
212.75
 30
0.0
 40
0
 41
0
  0
SEQEND
 8
0
  0
POLYLINE
  8
0
 62
     0
 66
     1
 10
0
 20
0
 30
0.0
 70
     1
 40
0
 41
0
  0
VERTEX
  8
0
 10
154
 20
212.75
 30
0.0
 40
0
 41
0
  0
VERTEX
  8
0
 10
162
 20
212.75
 30
0.0
 40
0
 41
0
  0
VERTEX
  8
0
 10
162
 20
192.65
 30
0.0
 40
0
 41
0
  0
VERTEX
  8
0
 10
154
 20
192.65
 30
0.0
 40
0
 41
0
  0
VERTEX
  8
0
 10
154
 20
212.75
 30
0.0
 40
0
 41
0
  0
SEQEND
 8
0
  0
POLYLINE
  8
0
 62
     0
 66
     1
 10
0
 20
0
 30
0.0
 70
     1
 40
0
 41
0
  0
VERTEX
  8
0
 10
164
 20
212.75
 30
0.0
 40
0
 41
0
  0
VERTEX
  8
0
 10
172
 20
212.75
 30
0.0
 40
0
 41
0
  0
VERTEX
  8
0
 10
172
 20
192.65
 30
0.0
 40
0
 41
0
  0
VERTEX
  8
0
 10
164
 20
192.65
 30
0.0
 40
0
 41
0
  0
VERTEX
  8
0
 10
164
 20
212.75
 30
0.0
 40
0
 41
0
  0
SEQEND
 8
0
  0
POLYLINE
  8
0
 62
     0
 66
     1
 10
0
 20
0
 30
0.0
 70
     1
 40
0
 41
0
  0
VERTEX
  8
0
 10
174
 20
212.75
 30
0.0
 40
0
 41
0
  0
VERTEX
  8
0
 10
182
 20
212.75
 30
0.0
 40
0
 41
0
  0
VERTEX
  8
0
 10
182
 20
192.65
 30
0.0
 40
0
 41
0
  0
VERTEX
  8
0
 10
174
 20
192.65
 30
0.0
 40
0
 41
0
  0
VERTEX
  8
0
 10
174
 20
212.75
 30
0.0
 40
0
 41
0
  0
SEQEND
 8
0
  0
POLYLINE
  8
0
 62
     0
 66
     1
 10
0
 20
0
 30
0.0
 70
     1
 40
0
 41
0
  0
VERTEX
  8
0
 10
184
 20
212.75
 30
0.0
 40
0
 41
0
  0
VERTEX
  8
0
 10
192
 20
212.75
 30
0.0
 40
0
 41
0
  0
VERTEX
  8
0
 10
192
 20
192.65
 30
0.0
 40
0
 41
0
  0
VERTEX
  8
0
 10
184
 20
192.65
 30
0.0
 40
0
 41
0
  0
VERTEX
  8
0
 10
184
 20
212.75
 30
0.0
 40
0
 41
0
  0
SEQEND
 8
0
  0
POLYLINE
  8
0
 62
     0
 66
     1
 10
0
 20
0
 30
0.0
 70
     1
 40
0
 41
0
  0
VERTEX
  8
0
 10
194
 20
212.75
 30
0.0
 40
0
 41
0
  0
VERTEX
  8
0
 10
202
 20
212.75
 30
0.0
 40
0
 41
0
  0
VERTEX
  8
0
 10
202
 20
192.65
 30
0.0
 40
0
 41
0
  0
VERTEX
  8
0
 10
194
 20
192.65
 30
0.0
 40
0
 41
0
  0
VERTEX
  8
0
 10
194
 20
212.75
 30
0.0
 40
0
 41
0
  0
SEQEND
 8
0
  0
POLYLINE
  8
0
 62
     0
 66
     1
 10
0
 20
0
 30
0.0
 70
     1
 40
0
 41
0
  0
VERTEX
  8
0
 10
204
 20
212.75
 30
0.0
 40
0
 41
0
  0
VERTEX
  8
0
 10
212
 20
212.75
 30
0.0
 40
0
 41
0
  0
VERTEX
  8
0
 10
212
 20
192.65
 30
0.0
 40
0
 41
0
  0
VERTEX
  8
0
 10
204
 20
192.65
 30
0.0
 40
0
 41
0
  0
VERTEX
  8
0
 10
204
 20
212.75
 30
0.0
 40
0
 41
0
  0
SEQEND
 8
0
  0
POLYLINE
  8
0
 62
     0
 66
     1
 10
0
 20
0
 30
0.0
 70
     1
 40
0
 41
0
  0
VERTEX
  8
0
 10
214
 20
212.75
 30
0.0
 40
0
 41
0
  0
VERTEX
  8
0
 10
222
 20
212.75
 30
0.0
 40
0
 41
0
  0
VERTEX
  8
0
 10
222
 20
192.65
 30
0.0
 40
0
 41
0
  0
VERTEX
  8
0
 10
214
 20
192.65
 30
0.0
 40
0
 41
0
  0
VERTEX
  8
0
 10
214
 20
212.75
 30
0.0
 40
0
 41
0
  0
SEQEND
 8
0
  0
POLYLINE
  8
0
 62
     0
 66
     1
 10
0
 20
0
 30
0.0
 70
     1
 40
0
 41
0
  0
VERTEX
  8
0
 10
224
 20
212.75
 30
0.0
 40
0
 41
0
  0
VERTEX
  8
0
 10
232
 20
212.75
 30
0.0
 40
0
 41
0
  0
VERTEX
  8
0
 10
232
 20
192.65
 30
0.0
 40
0
 41
0
  0
VERTEX
  8
0
 10
224
 20
192.65
 30
0.0
 40
0
 41
0
  0
VERTEX
  8
0
 10
224
 20
212.75
 30
0.0
 40
0
 41
0
  0
SEQEND
 8
0
  0
POLYLINE
  8
0
 62
     0
 66
     1
 10
0
 20
0
 30
0.0
 70
     1
 40
0
 41
0
  0
VERTEX
  8
0
 10
234
 20
212.75
 30
0.0
 40
0
 41
0
  0
VERTEX
  8
0
 10
242
 20
212.75
 30
0.0
 40
0
 41
0
  0
VERTEX
  8
0
 10
242
 20
192.65
 30
0.0
 40
0
 41
0
  0
VERTEX
  8
0
 10
234
 20
192.65
 30
0.0
 40
0
 41
0
  0
VERTEX
  8
0
 10
234
 20
212.75
 30
0.0
 40
0
 41
0
  0
SEQEND
 8
0
  0
POLYLINE
  8
0
 62
     0
 66
     1
 10
0
 20
0
 30
0.0
 70
     1
 40
0
 41
0
  0
VERTEX
  8
0
 10
244
 20
212.75
 30
0.0
 40
0
 41
0
  0
VERTEX
  8
0
 10
252
 20
212.75
 30
0.0
 40
0
 41
0
  0
VERTEX
  8
0
 10
252
 20
192.65
 30
0.0
 40
0
 41
0
  0
VERTEX
  8
0
 10
244
 20
192.65
 30
0.0
 40
0
 41
0
  0
VERTEX
  8
0
 10
244
 20
212.75
 30
0.0
 40
0
 41
0
  0
SEQEND
 8
0
  0
POLYLINE
  8
0
 62
     0
 66
     1
 10
0
 20
0
 30
0.0
 70
     1
 40
0
 41
0
  0
VERTEX
  8
0
 10
254
 20
212.75
 30
0.0
 40
0
 41
0
  0
VERTEX
  8
0
 10
262
 20
212.75
 30
0.0
 40
0
 41
0
  0
VERTEX
  8
0
 10
262
 20
192.65
 30
0.0
 40
0
 41
0
  0
VERTEX
  8
0
 10
254
 20
192.65
 30
0.0
 40
0
 41
0
  0
VERTEX
  8
0
 10
254
 20
212.75
 30
0.0
 40
0
 41
0
  0
SEQEND
 8
0
  0
POLYLINE
  8
0
 62
     0
 66
     1
 10
0
 20
0
 30
0.0
 70
     1
 40
0
 41
0
  0
VERTEX
  8
0
 10
264
 20
212.75
 30
0.0
 40
0
 41
0
  0
VERTEX
  8
0
 10
272
 20
212.75
 30
0.0
 40
0
 41
0
  0
VERTEX
  8
0
 10
272
 20
192.65
 30
0.0
 40
0
 41
0
  0
VERTEX
  8
0
 10
264
 20
192.65
 30
0.0
 40
0
 41
0
  0
VERTEX
  8
0
 10
264
 20
212.75
 30
0.0
 40
0
 41
0
  0
SEQEND
 8
0
  0
POLYLINE
  8
0
 62
     0
 66
     1
 10
0
 20
0
 30
0.0
 70
     1
 40
0
 41
0
  0
VERTEX
  8
0
 10
274
 20
212.75
 30
0.0
 40
0
 41
0
  0
VERTEX
  8
0
 10
282
 20
212.75
 30
0.0
 40
0
 41
0
  0
VERTEX
  8
0
 10
282
 20
192.65
 30
0.0
 40
0
 41
0
  0
VERTEX
  8
0
 10
274
 20
192.65
 30
0.0
 40
0
 41
0
  0
VERTEX
  8
0
 10
274
 20
212.75
 30
0.0
 40
0
 41
0
  0
SEQEND
 8
0
  0
POLYLINE
  8
0
 62
     0
 66
     1
 10
0
 20
0
 30
0.0
 70
     1
 40
0
 41
0
  0
VERTEX
  8
0
 10
284
 20
212.75
 30
0.0
 40
0
 41
0
  0
VERTEX
  8
0
 10
292
 20
212.75
 30
0.0
 40
0
 41
0
  0
VERTEX
  8
0
 10
292
 20
192.65
 30
0.0
 40
0
 41
0
  0
VERTEX
  8
0
 10
284
 20
192.65
 30
0.0
 40
0
 41
0
  0
VERTEX
  8
0
 10
284
 20
212.75
 30
0.0
 40
0
 41
0
  0
SEQEND
 8
0
  0
POLYLINE
  8
0
 62
     0
 66
     1
 10
0
 20
0
 30
0.0
 70
     1
 40
0
 41
0
  0
VERTEX
  8
0
 10
294
 20
212.75
 30
0.0
 40
0
 41
0
  0
VERTEX
  8
0
 10
302
 20
212.75
 30
0.0
 40
0
 41
0
  0
VERTEX
  8
0
 10
302
 20
192.65
 30
0.0
 40
0
 41
0
  0
VERTEX
  8
0
 10
294
 20
192.65
 30
0.0
 40
0
 41
0
  0
VERTEX
  8
0
 10
294
 20
212.75
 30
0.0
 40
0
 41
0
  0
SEQEND
 8
0
  0
POLYLINE
  8
0
 62
     0
 66
     1
 10
0
 20
0
 30
0.0
 70
     1
 40
0
 41
0
  0
VERTEX
  8
0
 10
304
 20
212.75
 30
0.0
 40
0
 41
0
  0
VERTEX
  8
0
 10
312
 20
212.75
 30
0.0
 40
0
 41
0
  0
VERTEX
  8
0
 10
312
 20
192.65
 30
0.0
 40
0
 41
0
  0
VERTEX
  8
0
 10
304
 20
192.65
 30
0.0
 40
0
 41
0
  0
VERTEX
  8
0
 10
304
 20
212.75
 30
0.0
 40
0
 41
0
  0
SEQEND
 8
0
  0
POLYLINE
  8
0
 62
     0
 66
     1
 10
0
 20
0
 30
0.0
 70
     1
 40
0
 41
0
  0
VERTEX
  8
0
 10
314
 20
212.75
 30
0.0
 40
0
 41
0
  0
VERTEX
  8
0
 10
322
 20
212.75
 30
0.0
 40
0
 41
0
  0
VERTEX
  8
0
 10
322
 20
192.65
 30
0.0
 40
0
 41
0
  0
VERTEX
  8
0
 10
314
 20
192.65
 30
0.0
 40
0
 41
0
  0
VERTEX
  8
0
 10
314
 20
212.75
 30
0.0
 40
0
 41
0
  0
SEQEND
 8
0
  0
POLYLINE
  8
0
 62
     0
 66
     1
 10
0
 20
0
 30
0.0
 70
     1
 40
0
 41
0
  0
VERTEX
  8
0
 10
324
 20
212.75
 30
0.0
 40
0
 41
0
  0
VERTEX
  8
0
 10
332
 20
212.75
 30
0.0
 40
0
 41
0
  0
VERTEX
  8
0
 10
332
 20
192.65
 30
0.0
 40
0
 41
0
  0
VERTEX
  8
0
 10
324
 20
192.65
 30
0.0
 40
0
 41
0
  0
VERTEX
  8
0
 10
324
 20
212.75
 30
0.0
 40
0
 41
0
  0
SEQEND
 8
0
  0
POLYLINE
  8
0
 62
     0
 66
     1
 10
0
 20
0
 30
0.0
 70
     1
 40
0
 41
0
  0
VERTEX
  8
0
 10
334
 20
212.75
 30
0.0
 40
0
 41
0
  0
VERTEX
  8
0
 10
342
 20
212.75
 30
0.0
 40
0
 41
0
  0
VERTEX
  8
0
 10
342
 20
192.65
 30
0.0
 40
0
 41
0
  0
VERTEX
  8
0
 10
334
 20
192.65
 30
0.0
 40
0
 41
0
  0
VERTEX
  8
0
 10
334
 20
212.75
 30
0.0
 40
0
 41
0
  0
SEQEND
 8
0
  0
POLYLINE
  8
0
 62
     0
 66
     1
 10
0
 20
0
 30
0.0
 70
     1
 40
0
 41
0
  0
VERTEX
  8
0
 10
344
 20
212.75
 30
0.0
 40
0
 41
0
  0
VERTEX
  8
0
 10
352
 20
212.75
 30
0.0
 40
0
 41
0
  0
VERTEX
  8
0
 10
352
 20
192.65
 30
0.0
 40
0
 41
0
  0
VERTEX
  8
0
 10
344
 20
192.65
 30
0.0
 40
0
 41
0
  0
VERTEX
  8
0
 10
344
 20
212.75
 30
0.0
 40
0
 41
0
  0
SEQEND
 8
0
  0
POLYLINE
  8
0
 62
     0
 66
     1
 10
0
 20
0
 30
0.0
 70
     1
 40
0
 41
0
  0
VERTEX
  8
0
 10
354
 20
212.75
 30
0.0
 40
0
 41
0
  0
VERTEX
  8
0
 10
362
 20
212.75
 30
0.0
 40
0
 41
0
  0
VERTEX
  8
0
 10
362
 20
192.65
 30
0.0
 40
0
 41
0
  0
VERTEX
  8
0
 10
354
 20
192.65
 30
0.0
 40
0
 41
0
  0
VERTEX
  8
0
 10
354
 20
212.75
 30
0.0
 40
0
 41
0
  0
SEQEND
 8
0
  0
POLYLINE
  8
0
 62
     0
 66
     1
 10
0
 20
0
 30
0.0
 70
     1
 40
0
 41
0
  0
VERTEX
  8
0
 10
364
 20
212.75
 30
0.0
 40
0
 41
0
  0
VERTEX
  8
0
 10
372
 20
212.75
 30
0.0
 40
0
 41
0
  0
VERTEX
  8
0
 10
372
 20
192.65
 30
0.0
 40
0
 41
0
  0
VERTEX
  8
0
 10
364
 20
192.65
 30
0.0
 40
0
 41
0
  0
VERTEX
  8
0
 10
364
 20
212.75
 30
0.0
 40
0
 41
0
  0
SEQEND
 8
0
  0
POLYLINE
  8
0
 62
     0
 66
     1
 10
0
 20
0
 30
0.0
 70
     1
 40
0
 41
0
  0
VERTEX
  8
0
 10
374
 20
212.75
 30
0.0
 40
0
 41
0
  0
VERTEX
  8
0
 10
382
 20
212.75
 30
0.0
 40
0
 41
0
  0
VERTEX
  8
0
 10
382
 20
192.65
 30
0.0
 40
0
 41
0
  0
VERTEX
  8
0
 10
374
 20
192.65
 30
0.0
 40
0
 41
0
  0
VERTEX
  8
0
 10
374
 20
212.75
 30
0.0
 40
0
 41
0
  0
SEQEND
 8
0
  0
POLYLINE
  8
0
 62
     0
 66
     1
 10
0
 20
0
 30
0.0
 70
     1
 40
0
 41
0
  0
VERTEX
  8
0
 10
384
 20
212.75
 30
0.0
 40
0
 41
0
  0
VERTEX
  8
0
 10
392
 20
212.75
 30
0.0
 40
0
 41
0
  0
VERTEX
  8
0
 10
392
 20
192.65
 30
0.0
 40
0
 41
0
  0
VERTEX
  8
0
 10
384
 20
192.65
 30
0.0
 40
0
 41
0
  0
VERTEX
  8
0
 10
384
 20
212.75
 30
0.0
 40
0
 41
0
  0
SEQEND
 8
0
  0
POLYLINE
  8
0
 62
     0
 66
     1
 10
0
 20
0
 30
0.0
 70
     1
 40
0
 41
0
  0
VERTEX
  8
0
 10
394
 20
212.75
 30
0.0
 40
0
 41
0
  0
VERTEX
  8
0
 10
404
 20
212.75
 30
0.0
 40
0
 41
0
  0
VERTEX
  8
0
 10
404
 20
192.65
 30
0.0
 40
0
 41
0
  0
VERTEX
  8
0
 10
394
 20
192.65
 30
0.0
 40
0
 41
0
  0
VERTEX
  8
0
 10
394
 20
212.75
 30
0.0
 40
0
 41
0
  0
SEQEND
 8
0
  0
POLYLINE
  8
0
 62
     0
 66
     1
 10
0
 20
0
 30
0.0
 70
     1
 40
0
 41
0
  0
VERTEX
  8
0
 10
104
 20
182.8
 30
0.0
 40
0
 41
0
  0
VERTEX
  8
0
 10
112
 20
182.8
 30
0.0
 40
0
 41
0
  0
VERTEX
  8
0
 10
112
 20
162.7
 30
0.0
 40
0
 41
0
  0
VERTEX
  8
0
 10
104
 20
162.7
 30
0.0
 40
0
 41
0
  0
VERTEX
  8
0
 10
104
 20
182.8
 30
0.0
 40
0
 41
0
  0
SEQEND
 8
0
  0
POLYLINE
  8
0
 62
     0
 66
     1
 10
0
 20
0
 30
0.0
 70
     1
 40
0
 41
0
  0
VERTEX
  8
0
 10
114
 20
182.8
 30
0.0
 40
0
 41
0
  0
VERTEX
  8
0
 10
122
 20
182.8
 30
0.0
 40
0
 41
0
  0
VERTEX
  8
0
 10
122
 20
162.7
 30
0.0
 40
0
 41
0
  0
VERTEX
  8
0
 10
114
 20
162.7
 30
0.0
 40
0
 41
0
  0
VERTEX
  8
0
 10
114
 20
182.8
 30
0.0
 40
0
 41
0
  0
SEQEND
 8
0
  0
POLYLINE
  8
0
 62
     0
 66
     1
 10
0
 20
0
 30
0.0
 70
     1
 40
0
 41
0
  0
VERTEX
  8
0
 10
124
 20
182.8
 30
0.0
 40
0
 41
0
  0
VERTEX
  8
0
 10
132
 20
182.8
 30
0.0
 40
0
 41
0
  0
VERTEX
  8
0
 10
132
 20
162.7
 30
0.0
 40
0
 41
0
  0
VERTEX
  8
0
 10
124
 20
162.7
 30
0.0
 40
0
 41
0
  0
VERTEX
  8
0
 10
124
 20
182.8
 30
0.0
 40
0
 41
0
  0
SEQEND
 8
0
  0
POLYLINE
  8
0
 62
     0
 66
     1
 10
0
 20
0
 30
0.0
 70
     1
 40
0
 41
0
  0
VERTEX
  8
0
 10
134
 20
182.8
 30
0.0
 40
0
 41
0
  0
VERTEX
  8
0
 10
142
 20
182.8
 30
0.0
 40
0
 41
0
  0
VERTEX
  8
0
 10
142
 20
162.7
 30
0.0
 40
0
 41
0
  0
VERTEX
  8
0
 10
134
 20
162.7
 30
0.0
 40
0
 41
0
  0
VERTEX
  8
0
 10
134
 20
182.8
 30
0.0
 40
0
 41
0
  0
SEQEND
 8
0
  0
POLYLINE
  8
0
 62
     0
 66
     1
 10
0
 20
0
 30
0.0
 70
     1
 40
0
 41
0
  0
VERTEX
  8
0
 10
144
 20
182.8
 30
0.0
 40
0
 41
0
  0
VERTEX
  8
0
 10
152
 20
182.8
 30
0.0
 40
0
 41
0
  0
VERTEX
  8
0
 10
152
 20
162.7
 30
0.0
 40
0
 41
0
  0
VERTEX
  8
0
 10
144
 20
162.7
 30
0.0
 40
0
 41
0
  0
VERTEX
  8
0
 10
144
 20
182.8
 30
0.0
 40
0
 41
0
  0
SEQEND
 8
0
  0
POLYLINE
  8
0
 62
     0
 66
     1
 10
0
 20
0
 30
0.0
 70
     1
 40
0
 41
0
  0
VERTEX
  8
0
 10
154
 20
182.8
 30
0.0
 40
0
 41
0
  0
VERTEX
  8
0
 10
162
 20
182.8
 30
0.0
 40
0
 41
0
  0
VERTEX
  8
0
 10
162
 20
162.7
 30
0.0
 40
0
 41
0
  0
VERTEX
  8
0
 10
154
 20
162.7
 30
0.0
 40
0
 41
0
  0
VERTEX
  8
0
 10
154
 20
182.8
 30
0.0
 40
0
 41
0
  0
SEQEND
 8
0
  0
POLYLINE
  8
0
 62
     0
 66
     1
 10
0
 20
0
 30
0.0
 70
     1
 40
0
 41
0
  0
VERTEX
  8
0
 10
164
 20
182.8
 30
0.0
 40
0
 41
0
  0
VERTEX
  8
0
 10
172
 20
182.8
 30
0.0
 40
0
 41
0
  0
VERTEX
  8
0
 10
172
 20
162.7
 30
0.0
 40
0
 41
0
  0
VERTEX
  8
0
 10
164
 20
162.7
 30
0.0
 40
0
 41
0
  0
VERTEX
  8
0
 10
164
 20
182.8
 30
0.0
 40
0
 41
0
  0
SEQEND
 8
0
  0
POLYLINE
  8
0
 62
     0
 66
     1
 10
0
 20
0
 30
0.0
 70
     1
 40
0
 41
0
  0
VERTEX
  8
0
 10
174
 20
182.8
 30
0.0
 40
0
 41
0
  0
VERTEX
  8
0
 10
182
 20
182.8
 30
0.0
 40
0
 41
0
  0
VERTEX
  8
0
 10
182
 20
162.7
 30
0.0
 40
0
 41
0
  0
VERTEX
  8
0
 10
174
 20
162.7
 30
0.0
 40
0
 41
0
  0
VERTEX
  8
0
 10
174
 20
182.8
 30
0.0
 40
0
 41
0
  0
SEQEND
 8
0
  0
POLYLINE
  8
0
 62
     0
 66
     1
 10
0
 20
0
 30
0.0
 70
     1
 40
0
 41
0
  0
VERTEX
  8
0
 10
184
 20
182.8
 30
0.0
 40
0
 41
0
  0
VERTEX
  8
0
 10
192
 20
182.8
 30
0.0
 40
0
 41
0
  0
VERTEX
  8
0
 10
192
 20
162.7
 30
0.0
 40
0
 41
0
  0
VERTEX
  8
0
 10
184
 20
162.7
 30
0.0
 40
0
 41
0
  0
VERTEX
  8
0
 10
184
 20
182.8
 30
0.0
 40
0
 41
0
  0
SEQEND
 8
0
  0
POLYLINE
  8
0
 62
     0
 66
     1
 10
0
 20
0
 30
0.0
 70
     1
 40
0
 41
0
  0
VERTEX
  8
0
 10
194
 20
182.8
 30
0.0
 40
0
 41
0
  0
VERTEX
  8
0
 10
202
 20
182.8
 30
0.0
 40
0
 41
0
  0
VERTEX
  8
0
 10
202
 20
162.7
 30
0.0
 40
0
 41
0
  0
VERTEX
  8
0
 10
194
 20
162.7
 30
0.0
 40
0
 41
0
  0
VERTEX
  8
0
 10
194
 20
182.8
 30
0.0
 40
0
 41
0
  0
SEQEND
 8
0
  0
POLYLINE
  8
0
 62
     0
 66
     1
 10
0
 20
0
 30
0.0
 70
     1
 40
0
 41
0
  0
VERTEX
  8
0
 10
204
 20
182.8
 30
0.0
 40
0
 41
0
  0
VERTEX
  8
0
 10
212
 20
182.8
 30
0.0
 40
0
 41
0
  0
VERTEX
  8
0
 10
212
 20
162.7
 30
0.0
 40
0
 41
0
  0
VERTEX
  8
0
 10
204
 20
162.7
 30
0.0
 40
0
 41
0
  0
VERTEX
  8
0
 10
204
 20
182.8
 30
0.0
 40
0
 41
0
  0
SEQEND
 8
0
  0
POLYLINE
  8
0
 62
     0
 66
     1
 10
0
 20
0
 30
0.0
 70
     1
 40
0
 41
0
  0
VERTEX
  8
0
 10
214
 20
182.8
 30
0.0
 40
0
 41
0
  0
VERTEX
  8
0
 10
222
 20
182.8
 30
0.0
 40
0
 41
0
  0
VERTEX
  8
0
 10
222
 20
162.7
 30
0.0
 40
0
 41
0
  0
VERTEX
  8
0
 10
214
 20
162.7
 30
0.0
 40
0
 41
0
  0
VERTEX
  8
0
 10
214
 20
182.8
 30
0.0
 40
0
 41
0
  0
SEQEND
 8
0
  0
POLYLINE
  8
0
 62
     0
 66
     1
 10
0
 20
0
 30
0.0
 70
     1
 40
0
 41
0
  0
VERTEX
  8
0
 10
224
 20
182.8
 30
0.0
 40
0
 41
0
  0
VERTEX
  8
0
 10
232
 20
182.8
 30
0.0
 40
0
 41
0
  0
VERTEX
  8
0
 10
232
 20
162.7
 30
0.0
 40
0
 41
0
  0
VERTEX
  8
0
 10
224
 20
162.7
 30
0.0
 40
0
 41
0
  0
VERTEX
  8
0
 10
224
 20
182.8
 30
0.0
 40
0
 41
0
  0
SEQEND
 8
0
  0
POLYLINE
  8
0
 62
     0
 66
     1
 10
0
 20
0
 30
0.0
 70
     1
 40
0
 41
0
  0
VERTEX
  8
0
 10
234
 20
182.8
 30
0.0
 40
0
 41
0
  0
VERTEX
  8
0
 10
242
 20
182.8
 30
0.0
 40
0
 41
0
  0
VERTEX
  8
0
 10
242
 20
162.7
 30
0.0
 40
0
 41
0
  0
VERTEX
  8
0
 10
234
 20
162.7
 30
0.0
 40
0
 41
0
  0
VERTEX
  8
0
 10
234
 20
182.8
 30
0.0
 40
0
 41
0
  0
SEQEND
 8
0
  0
POLYLINE
  8
0
 62
     0
 66
     1
 10
0
 20
0
 30
0.0
 70
     1
 40
0
 41
0
  0
VERTEX
  8
0
 10
244
 20
182.8
 30
0.0
 40
0
 41
0
  0
VERTEX
  8
0
 10
252
 20
182.8
 30
0.0
 40
0
 41
0
  0
VERTEX
  8
0
 10
252
 20
162.7
 30
0.0
 40
0
 41
0
  0
VERTEX
  8
0
 10
244
 20
162.7
 30
0.0
 40
0
 41
0
  0
VERTEX
  8
0
 10
244
 20
182.8
 30
0.0
 40
0
 41
0
  0
SEQEND
 8
0
  0
POLYLINE
  8
0
 62
     0
 66
     1
 10
0
 20
0
 30
0.0
 70
     1
 40
0
 41
0
  0
VERTEX
  8
0
 10
254
 20
182.8
 30
0.0
 40
0
 41
0
  0
VERTEX
  8
0
 10
262
 20
182.8
 30
0.0
 40
0
 41
0
  0
VERTEX
  8
0
 10
262
 20
162.7
 30
0.0
 40
0
 41
0
  0
VERTEX
  8
0
 10
254
 20
162.7
 30
0.0
 40
0
 41
0
  0
VERTEX
  8
0
 10
254
 20
182.8
 30
0.0
 40
0
 41
0
  0
SEQEND
 8
0
  0
POLYLINE
  8
0
 62
     0
 66
     1
 10
0
 20
0
 30
0.0
 70
     1
 40
0
 41
0
  0
VERTEX
  8
0
 10
264
 20
182.8
 30
0.0
 40
0
 41
0
  0
VERTEX
  8
0
 10
272
 20
182.8
 30
0.0
 40
0
 41
0
  0
VERTEX
  8
0
 10
272
 20
162.7
 30
0.0
 40
0
 41
0
  0
VERTEX
  8
0
 10
264
 20
162.7
 30
0.0
 40
0
 41
0
  0
VERTEX
  8
0
 10
264
 20
182.8
 30
0.0
 40
0
 41
0
  0
SEQEND
 8
0
  0
POLYLINE
  8
0
 62
     0
 66
     1
 10
0
 20
0
 30
0.0
 70
     1
 40
0
 41
0
  0
VERTEX
  8
0
 10
274
 20
182.8
 30
0.0
 40
0
 41
0
  0
VERTEX
  8
0
 10
282
 20
182.8
 30
0.0
 40
0
 41
0
  0
VERTEX
  8
0
 10
282
 20
162.7
 30
0.0
 40
0
 41
0
  0
VERTEX
  8
0
 10
274
 20
162.7
 30
0.0
 40
0
 41
0
  0
VERTEX
  8
0
 10
274
 20
182.8
 30
0.0
 40
0
 41
0
  0
SEQEND
 8
0
  0
POLYLINE
  8
0
 62
     0
 66
     1
 10
0
 20
0
 30
0.0
 70
     1
 40
0
 41
0
  0
VERTEX
  8
0
 10
284
 20
182.8
 30
0.0
 40
0
 41
0
  0
VERTEX
  8
0
 10
292
 20
182.8
 30
0.0
 40
0
 41
0
  0
VERTEX
  8
0
 10
292
 20
162.7
 30
0.0
 40
0
 41
0
  0
VERTEX
  8
0
 10
284
 20
162.7
 30
0.0
 40
0
 41
0
  0
VERTEX
  8
0
 10
284
 20
182.8
 30
0.0
 40
0
 41
0
  0
SEQEND
 8
0
  0
POLYLINE
  8
0
 62
     0
 66
     1
 10
0
 20
0
 30
0.0
 70
     1
 40
0
 41
0
  0
VERTEX
  8
0
 10
294
 20
182.8
 30
0.0
 40
0
 41
0
  0
VERTEX
  8
0
 10
302
 20
182.8
 30
0.0
 40
0
 41
0
  0
VERTEX
  8
0
 10
302
 20
162.7
 30
0.0
 40
0
 41
0
  0
VERTEX
  8
0
 10
294
 20
162.7
 30
0.0
 40
0
 41
0
  0
VERTEX
  8
0
 10
294
 20
182.8
 30
0.0
 40
0
 41
0
  0
SEQEND
 8
0
  0
POLYLINE
  8
0
 62
     0
 66
     1
 10
0
 20
0
 30
0.0
 70
     1
 40
0
 41
0
  0
VERTEX
  8
0
 10
304
 20
182.8
 30
0.0
 40
0
 41
0
  0
VERTEX
  8
0
 10
312
 20
182.8
 30
0.0
 40
0
 41
0
  0
VERTEX
  8
0
 10
312
 20
162.7
 30
0.0
 40
0
 41
0
  0
VERTEX
  8
0
 10
304
 20
162.7
 30
0.0
 40
0
 41
0
  0
VERTEX
  8
0
 10
304
 20
182.8
 30
0.0
 40
0
 41
0
  0
SEQEND
 8
0
  0
POLYLINE
  8
0
 62
     0
 66
     1
 10
0
 20
0
 30
0.0
 70
     1
 40
0
 41
0
  0
VERTEX
  8
0
 10
314
 20
182.8
 30
0.0
 40
0
 41
0
  0
VERTEX
  8
0
 10
322
 20
182.8
 30
0.0
 40
0
 41
0
  0
VERTEX
  8
0
 10
322
 20
162.7
 30
0.0
 40
0
 41
0
  0
VERTEX
  8
0
 10
314
 20
162.7
 30
0.0
 40
0
 41
0
  0
VERTEX
  8
0
 10
314
 20
182.8
 30
0.0
 40
0
 41
0
  0
SEQEND
 8
0
  0
POLYLINE
  8
0
 62
     0
 66
     1
 10
0
 20
0
 30
0.0
 70
     1
 40
0
 41
0
  0
VERTEX
  8
0
 10
324
 20
182.8
 30
0.0
 40
0
 41
0
  0
VERTEX
  8
0
 10
332
 20
182.8
 30
0.0
 40
0
 41
0
  0
VERTEX
  8
0
 10
332
 20
162.7
 30
0.0
 40
0
 41
0
  0
VERTEX
  8
0
 10
324
 20
162.7
 30
0.0
 40
0
 41
0
  0
VERTEX
  8
0
 10
324
 20
182.8
 30
0.0
 40
0
 41
0
  0
SEQEND
 8
0
  0
POLYLINE
  8
0
 62
     0
 66
     1
 10
0
 20
0
 30
0.0
 70
     1
 40
0
 41
0
  0
VERTEX
  8
0
 10
334
 20
182.8
 30
0.0
 40
0
 41
0
  0
VERTEX
  8
0
 10
342
 20
182.8
 30
0.0
 40
0
 41
0
  0
VERTEX
  8
0
 10
342
 20
162.7
 30
0.0
 40
0
 41
0
  0
VERTEX
  8
0
 10
334
 20
162.7
 30
0.0
 40
0
 41
0
  0
VERTEX
  8
0
 10
334
 20
182.8
 30
0.0
 40
0
 41
0
  0
SEQEND
 8
0
  0
POLYLINE
  8
0
 62
     0
 66
     1
 10
0
 20
0
 30
0.0
 70
     1
 40
0
 41
0
  0
VERTEX
  8
0
 10
344
 20
182.8
 30
0.0
 40
0
 41
0
  0
VERTEX
  8
0
 10
352
 20
182.8
 30
0.0
 40
0
 41
0
  0
VERTEX
  8
0
 10
352
 20
162.7
 30
0.0
 40
0
 41
0
  0
VERTEX
  8
0
 10
344
 20
162.7
 30
0.0
 40
0
 41
0
  0
VERTEX
  8
0
 10
344
 20
182.8
 30
0.0
 40
0
 41
0
  0
SEQEND
 8
0
  0
POLYLINE
  8
0
 62
     0
 66
     1
 10
0
 20
0
 30
0.0
 70
     1
 40
0
 41
0
  0
VERTEX
  8
0
 10
354
 20
182.8
 30
0.0
 40
0
 41
0
  0
VERTEX
  8
0
 10
362
 20
182.8
 30
0.0
 40
0
 41
0
  0
VERTEX
  8
0
 10
362
 20
162.7
 30
0.0
 40
0
 41
0
  0
VERTEX
  8
0
 10
354
 20
162.7
 30
0.0
 40
0
 41
0
  0
VERTEX
  8
0
 10
354
 20
182.8
 30
0.0
 40
0
 41
0
  0
SEQEND
 8
0
  0
POLYLINE
  8
0
 62
     0
 66
     1
 10
0
 20
0
 30
0.0
 70
     1
 40
0
 41
0
  0
VERTEX
  8
0
 10
364
 20
182.8
 30
0.0
 40
0
 41
0
  0
VERTEX
  8
0
 10
372
 20
182.8
 30
0.0
 40
0
 41
0
  0
VERTEX
  8
0
 10
372
 20
162.7
 30
0.0
 40
0
 41
0
  0
VERTEX
  8
0
 10
364
 20
162.7
 30
0.0
 40
0
 41
0
  0
VERTEX
  8
0
 10
364
 20
182.8
 30
0.0
 40
0
 41
0
  0
SEQEND
 8
0
  0
POLYLINE
  8
0
 62
     0
 66
     1
 10
0
 20
0
 30
0.0
 70
     1
 40
0
 41
0
  0
VERTEX
  8
0
 10
374
 20
182.8
 30
0.0
 40
0
 41
0
  0
VERTEX
  8
0
 10
382
 20
182.8
 30
0.0
 40
0
 41
0
  0
VERTEX
  8
0
 10
382
 20
162.7
 30
0.0
 40
0
 41
0
  0
VERTEX
  8
0
 10
374
 20
162.7
 30
0.0
 40
0
 41
0
  0
VERTEX
  8
0
 10
374
 20
182.8
 30
0.0
 40
0
 41
0
  0
SEQEND
 8
0
  0
POLYLINE
  8
0
 62
     0
 66
     1
 10
0
 20
0
 30
0.0
 70
     1
 40
0
 41
0
  0
VERTEX
  8
0
 10
384
 20
182.8
 30
0.0
 40
0
 41
0
  0
VERTEX
  8
0
 10
392
 20
182.8
 30
0.0
 40
0
 41
0
  0
VERTEX
  8
0
 10
392
 20
162.7
 30
0.0
 40
0
 41
0
  0
VERTEX
  8
0
 10
384
 20
162.7
 30
0.0
 40
0
 41
0
  0
VERTEX
  8
0
 10
384
 20
182.8
 30
0.0
 40
0
 41
0
  0
SEQEND
 8
0
  0
POLYLINE
  8
0
 62
     0
 66
     1
 10
0
 20
0
 30
0.0
 70
     1
 40
0
 41
0
  0
VERTEX
  8
0
 10
394
 20
182.8
 30
0.0
 40
0
 41
0
  0
VERTEX
  8
0
 10
404
 20
182.8
 30
0.0
 40
0
 41
0
  0
VERTEX
  8
0
 10
404
 20
162.7
 30
0.0
 40
0
 41
0
  0
VERTEX
  8
0
 10
394
 20
162.7
 30
0.0
 40
0
 41
0
  0
VERTEX
  8
0
 10
394
 20
182.8
 30
0.0
 40
0
 41
0
  0
SEQEND
 8
0
  0
POLYLINE
  8
0
 62
     0
 66
     1
 10
0
 20
0
 30
0.0
 70
     1
 40
0
 41
0
  0
VERTEX
  8
0
 10
104
 20
212.75
 30
0.0
 40
0
 41
0
  0
VERTEX
  8
0
 10
404
 20
212.75
 30
0.0
 40
0
 41
0
  0
VERTEX
  8
0
 10
404
 20
204.75
 30
0.0
 40
0
 41
0
  0
VERTEX
  8
0
 10
104
 20
204.75
 30
0.0
 40
0
 41
0
  0
VERTEX
  8
0
 10
104
 20
212.75
 30
0.0
 40
0
 41
0
  0
SEQEND
 8
0
  0
POLYLINE
  8
0
 62
     0
 66
     1
 10
0
 20
0
 30
0.0
 70
     1
 40
0
 41
0
  0
VERTEX
  8
0
 10
104
 20
202.75
 30
0.0
 40
0
 41
0
  0
VERTEX
  8
0
 10
404
 20
202.75
 30
0.0
 40
0
 41
0
  0
VERTEX
  8
0
 10
404
 20
192.75
 30
0.0
 40
0
 41
0
  0
VERTEX
  8
0
 10
104
 20
192.75
 30
0.0
 40
0
 41
0
  0
VERTEX
  8
0
 10
104
 20
202.75
 30
0.0
 40
0
 41
0
  0
SEQEND
 8
0
  0
POLYLINE
  8
0
 62
     0
 66
     1
 10
0
 20
0
 30
0.0
 70
     1
 40
0
 41
0
  0
VERTEX
  8
0
 10
104
 20
170.7
 30
0.0
 40
0
 41
0
  0
VERTEX
  8
0
 10
404
 20
170.7
 30
0.0
 40
0
 41
0
  0
VERTEX
  8
0
 10
404
 20
162.7
 30
0.0
 40
0
 41
0
  0
VERTEX
  8
0
 10
104
 20
162.7
 30
0.0
 40
0
 41
0
  0
VERTEX
  8
0
 10
104
 20
170.7
 30
0.0
 40
0
 41
0
  0
SEQEND
 8
0
  0
POLYLINE
  8
0
 62
     0
 66
     1
 10
0
 20
0
 30
0.0
 70
     1
 40
0
 41
0
  0
VERTEX
  8
0
 10
104
 20
182.7
 30
0.0
 40
0
 41
0
  0
VERTEX
  8
0
 10
404
 20
182.7
 30
0.0
 40
0
 41
0
  0
VERTEX
  8
0
 10
404
 20
172.7
 30
0.0
 40
0
 41
0
  0
VERTEX
  8
0
 10
104
 20
172.7
 30
0.0
 40
0
 41
0
  0
VERTEX
  8
0
 10
104
 20
182.7
 30
0.0
 40
0
 41
0
  0
SEQEND
 8
0
  0
POLYLINE
  8
0
 62
     0
 66
     1
 10
0
 20
0
 30
0.0
 70
     1
 40
0
 41
0
  0
VERTEX
  8
0
 10
104
 20
192.75
 30
0.0
 40
0
 41
0
  0
VERTEX
  8
0
 10
404
 20
192.75
 30
0.0
 40
0
 41
0
  0
VERTEX
  8
0
 10
253.975
 20
187.75
 30
0.0
 40
0
 41
0
  0
VERTEX
  8
0
 10
254.025
 20
187.75
 30
0.0
 40
0
 41
0
  0
VERTEX
  8
0
 10
104
 20
192.75
 30
0.0
 40
0
 41
0
  0
SEQEND
 8
0
  0
POLYLINE
  8
0
 62
     0
 66
     1
 10
0
 20
0
 30
0.0
 70
     1
 40
0
 41
0
  0
VERTEX
  8
0
 10
104
 20
182.7
 30
0.0
 40
0
 41
0
  0
VERTEX
  8
0
 10
404
 20
182.7
 30
0.0
 40
0
 41
0
  0
VERTEX
  8
0
 10
253.975
 20
187.7
 30
0.0
 40
0
 41
0
  0
VERTEX
  8
0
 10
254.025
 20
187.7
 30
0.0
 40
0
 41
0
  0
VERTEX
  8
0
 10
104
 20
182.7
 30
0.0
 40
0
 41
0
  0
SEQEND
 8
0
  0
POLYLINE
  8
0
 62
     0
 66
     1
 10
0
 20
0
 30
0.0
 70
     1
 40
0
 41
0
  0
VERTEX
  8
0
 10
253.975
 20
192.75
 30
0.0
 40
0
 41
0
  0
VERTEX
  8
0
 10
254.025
 20
192.75
 30
0.0
 40
0
 41
0
  0
VERTEX
  8
0
 10
254.025
 20
182.7
 30
0.0
 40
0
 41
0
  0
VERTEX
  8
0
 10
253.975
 20
182.7
 30
0.0
 40
0
 41
0
  0
VERTEX
  8
0
 10
253.975
 20
192.75
 30
0.0
 40
0
 41
0
  0
SEQEND
 8
0
  0
ENDSEC
  0
EOF
