  0
SECTION
  2
HEADER
  9
$ACADVER
  1
AC1009
  9
$EXTMIN
 10
0.0
 20
0.0
 30
0.0
  9
$EXTMAX
 10
1000.0
 20
1000.0
 30
0.0
  9
$FILLMODE
 70
 0
  9
$SPLFRAME
 70
 1
  0
ENDSEC
  0
SECTION
  2
TABLES
  0
TABLE
  2
LAYER
 70
1
  0
LAYER
  2
0
 70
     0
 62
     7
  6
CONTINUOUS
  0
ENDTAB
  0
ENDSEC
  0
SECTION
  2
ENTITIES
  0
POLYLINE
  8
0
 62
     0
 66
     1
 10
0
 20
0
 30
0.0
 70
     1
 40
0
 41
0
  0
VERTEX
  8
0
 10
152
 20
101.75
 30
0.0
 40
0
 41
0
  0
VERTEX
  8
0
 10
151.987
 20
102.143
 30
0.0
 40
0
 41
0
  0
VERTEX
  8
0
 10
151.95
 20
102.535
 30
0.0
 40
0
 41
0
  0
VERTEX
  8
0
 10
151.889
 20
102.926
 30
0.0
 40
0
 41
0
  0
VERTEX
  8
0
 10
151.803
 20
103.317
 30
0.0
 40
0
 41
0
  0
VERTEX
  8
0
 10
151.692
 20
103.705
 30
0.0
 40
0
 41
0
  0
VERTEX
  8
0
 10
151.557
 20
104.092
 30
0.0
 40
0
 41
0
  0
VERTEX
  8
0
 10
151.397
 20
104.477
 30
0.0
 40
0
 41
0
  0
VERTEX
  8
0
 10
151.214
 20
104.859
 30
0.0
 40
0
 41
0
  0
VERTEX
  8
0
 10
151.007
 20
105.237
 30
0.0
 40
0
 41
0
  0
VERTEX
  8
0
 10
150.776
 20
105.613
 30
0.0
 40
0
 41
0
  0
VERTEX
  8
0
 10
150.522
 20
105.984
 30
0.0
 40
0
 41
0
  0
VERTEX
  8
0
 10
150.244
 20
106.352
 30
0.0
 40
0
 41
0
  0
VERTEX
  8
0
 10
149.943
 20
106.714
 30
0.0
 40
0
 41
0
  0
VERTEX
  8
0
 10
149.621
 20
107.072
 30
0.0
 40
0
 41
0
  0
VERTEX
  8
0
 10
149.275
 20
107.425
 30
0.0
 40
0
 41
0
  0
VERTEX
  8
0
 10
148.908
 20
107.772
 30
0.0
 40
0
 41
0
  0
VERTEX
  8
0
 10
148.518
 20
108.113
 30
0.0
 40
0
 41
0
  0
VERTEX
  8
0
 10
148.108
 20
108.448
 30
0.0
 40
0
 41
0
  0
VERTEX
  8
0
 10
147.676
 20
108.776
 30
0.0
 40
0
 41
0
  0
VERTEX
  8
0
 10
147.225
 20
109.097
 30
0.0
 40
0
 41
0
  0
VERTEX
  8
0
 10
146.754
 20
109.411
 30
0.0
 40
0
 41
0
  0
VERTEX
  8
0
 10
146.263
 20
109.718
 30
0.0
 40
0
 41
0
  0
VERTEX
  8
0
 10
145.753
 20
110.016
 30
0.0
 40
0
 41
0
  0
VERTEX
  8
0
 10
145.224
 20
110.307
 30
0.0
 40
0
 41
0
  0
VERTEX
  8
0
 10
144.678
 20
110.589
 30
0.0
 40
0
 41
0
  0
VERTEX
  8
0
 10
144.114
 20
110.862
 30
0.0
 40
0
 41
0
  0
VERTEX
  8
0
 10
143.533
 20
111.126
 30
0.0
 40
0
 41
0
  0
VERTEX
  8
0
 10
142.936
 20
111.381
 30
0.0
 40
0
 41
0
  0
VERTEX
  8
0
 10
142.322
 20
111.627
 30
0.0
 40
0
 41
0
  0
VERTEX
  8
0
 10
141.694
 20
111.863
 30
0.0
 40
0
 41
0
  0
VERTEX
  8
0
 10
141.053
 20
112.088
 30
0.0
 40
0
 41
0
  0
VERTEX
  8
0
 10
140.396
 20
112.304
 30
0.0
 40
0
 41
0
  0
VERTEX
  8
0
 10
139.726
 20
112.509
 30
0.0
 40
0
 41
0
  0
VERTEX
  8
0
 10
139.043
 20
112.704
 30
0.0
 40
0
 41
0
  0
VERTEX
  8
0
 10
138.35
 20
112.888
 30
0.0
 40
0
 41
0
  0
VERTEX
  8
0
 10
137.644
 20
113.06
 30
0.0
 40
0
 41
0
  0
VERTEX
  8
0
 10
136.929
 20
113.222
 30
0.0
 40
0
 41
0
  0
VERTEX
  8
0
 10
136.203
 20
113.372
 30
0.0
 40
0
 41
0
  0
VERTEX
  8
0
 10
135.468
 20
113.511
 30
0.0
 40
0
 41
0
  0
VERTEX
  8
0
 10
134.725
 20
113.638
 30
0.0
 40
0
 41
0
  0
VERTEX
  8
0
 10
133.975
 20
113.754
 30
0.0
 40
0
 41
0
  0
VERTEX
  8
0
 10
133.217
 20
113.857
 30
0.0
 40
0
 41
0
  0
VERTEX
  8
0
 10
132.453
 20
113.949
 30
0.0
 40
0
 41
0
  0
VERTEX
  8
0
 10
131.684
 20
114.029
 30
0.0
 40
0
 41
0
  0
VERTEX
  8
0
 10
130.911
 20
114.096
 30
0.0
 40
0
 41
0
  0
VERTEX
  8
0
 10
130.133
 20
114.151
 30
0.0
 40
0
 41
0
  0
VERTEX
  8
0
 10
129.353
 20
114.195
 30
0.0
 40
0
 41
0
  0
VERTEX
  8
0
 10
128.57
 20
114.225
 30
0.0
 40
0
 41
0
  0
VERTEX
  8
0
 10
127.785
 20
114.244
 30
0.0
 40
0
 41
0
  0
VERTEX
  8
0
 10
127
 20
114.25
 30
0.0
 40
0
 41
0
  0
VERTEX
  8
0
 10
126.215
 20
114.244
 30
0.0
 40
0
 41
0
  0
VERTEX
  8
0
 10
125.43
 20
114.225
 30
0.0
 40
0
 41
0
  0
VERTEX
  8
0
 10
124.647
 20
114.195
 30
0.0
 40
0
 41
0
  0
VERTEX
  8
0
 10
123.867
 20
114.151
 30
0.0
 40
0
 41
0
  0
VERTEX
  8
0
 10
123.089
 20
114.096
 30
0.0
 40
0
 41
0
  0
VERTEX
  8
0
 10
122.315
 20
114.029
 30
0.0
 40
0
 41
0
  0
VERTEX
  8
0
 10
121.546
 20
113.949
 30
0.0
 40
0
 41
0
  0
VERTEX
  8
0
 10
120.783
 20
113.857
 30
0.0
 40
0
 41
0
  0
VERTEX
  8
0
 10
120.025
 20
113.754
 30
0.0
 40
0
 41
0
  0
VERTEX
  8
0
 10
119.274
 20
113.638
 30
0.0
 40
0
 41
0
  0
VERTEX
  8
0
 10
118.532
 20
113.511
 30
0.0
 40
0
 41
0
  0
VERTEX
  8
0
 10
117.797
 20
113.372
 30
0.0
 40
0
 41
0
  0
VERTEX
  8
0
 10
117.071
 20
113.222
 30
0.0
 40
0
 41
0
  0
VERTEX
  8
0
 10
116.355
 20
113.06
 30
0.0
 40
0
 41
0
  0
VERTEX
  8
0
 10
115.65
 20
112.888
 30
0.0
 40
0
 41
0
  0
VERTEX
  8
0
 10
114.956
 20
112.704
 30
0.0
 40
0
 41
0
  0
VERTEX
  8
0
 10
114.274
 20
112.509
 30
0.0
 40
0
 41
0
  0
VERTEX
  8
0
 10
113.604
 20
112.304
 30
0.0
 40
0
 41
0
  0
VERTEX
  8
0
 10
112.948
 20
112.088
 30
0.0
 40
0
 41
0
  0
VERTEX
  8
0
 10
112.305
 20
111.863
 30
0.0
 40
0
 41
0
  0
VERTEX
  8
0
 10
111.677
 20
111.627
 30
0.0
 40
0
 41
0
  0
VERTEX
  8
0
 10
111.064
 20
111.381
 30
0.0
 40
0
 41
0
  0
VERTEX
  8
0
 10
110.467
 20
111.126
 30
0.0
 40
0
 41
0
  0
VERTEX
  8
0
 10
109.886
 20
110.862
 30
0.0
 40
0
 41
0
  0
VERTEX
  8
0
 10
109.322
 20
110.589
 30
0.0
 40
0
 41
0
  0
VERTEX
  8
0
 10
108.776
 20
110.307
 30
0.0
 40
0
 41
0
  0
VERTEX
  8
0
 10
108.247
 20
110.016
 30
0.0
 40
0
 41
0
  0
VERTEX
  8
0
 10
107.737
 20
109.718
 30
0.0
 40
0
 41
0
  0
VERTEX
  8
0
 10
107.246
 20
109.411
 30
0.0
 40
0
 41
0
  0
VERTEX
  8
0
 10
106.774
 20
109.097
 30
0.0
 40
0
 41
0
  0
VERTEX
  8
0
 10
106.323
 20
108.776
 30
0.0
 40
0
 41
0
  0
VERTEX
  8
0
 10
105.892
 20
108.448
 30
0.0
 40
0
 41
0
  0
VERTEX
  8
0
 10
105.481
 20
108.113
 30
0.0
 40
0
 41
0
  0
VERTEX
  8
0
 10
105.092
 20
107.772
 30
0.0
 40
0
 41
0
  0
VERTEX
  8
0
 10
104.725
 20
107.425
 30
0.0
 40
0
 41
0
  0
VERTEX
  8
0
 10
104.379
 20
107.072
 30
0.0
 40
0
 41
0
  0
VERTEX
  8
0
 10
104.056
 20
106.714
 30
0.0
 40
0
 41
0
  0
VERTEX
  8
0
 10
103.756
 20
106.352
 30
0.0
 40
0
 41
0
  0
VERTEX
  8
0
 10
103.478
 20
105.984
 30
0.0
 40
0
 41
0
  0
VERTEX
  8
0
 10
103.223
 20
105.613
 30
0.0
 40
0
 41
0
  0
VERTEX
  8
0
 10
102.993
 20
105.237
 30
0.0
 40
0
 41
0
  0
VERTEX
  8
0
 10
102.785
 20
104.859
 30
0.0
 40
0
 41
0
  0
VERTEX
  8
0
 10
102.602
 20
104.477
 30
0.0
 40
0
 41
0
  0
VERTEX
  8
0
 10
102.443
 20
104.092
 30
0.0
 40
0
 41
0
  0
VERTEX
  8
0
 10
102.308
 20
103.705
 30
0.0
 40
0
 41
0
  0
VERTEX
  8
0
 10
102.197
 20
103.317
 30
0.0
 40
0
 41
0
  0
VERTEX
  8
0
 10
102.111
 20
102.926
 30
0.0
 40
0
 41
0
  0
VERTEX
  8
0
 10
102.049
 20
102.535
 30
0.0
 40
0
 41
0
  0
VERTEX
  8
0
 10
102.012
 20
102.143
 30
0.0
 40
0
 41
0
  0
VERTEX
  8
0
 10
102
 20
101.75
 30
0.0
 40
0
 41
0
  0
VERTEX
  8
0
 10
152
 20
101.75
 30
0.0
 40
0
 41
0
  0
SEQEND
 8
0
  0
POLYLINE
  8
0
 62
     0
 66
     1
 10
0
 20
0
 30
0.0
 70
     1
 40
0.75
 41
0.75
  0
VERTEX
  8
0
 10
152
 20
101.75
 30
0.0
 40
0.0104167
 41
0.0104167
  0
VERTEX
  8
0
 10
151.987
 20
102.143
 30
0.0
 40
0.0104167
 41
0.0104167
  0
VERTEX
  8
0
 10
151.95
 20
102.535
 30
0.0
 40
0.0104167
 41
0.0104167
  0
VERTEX
  8
0
 10
151.889
 20
102.926
 30
0.0
 40
0.0104167
 41
0.0104167
  0
VERTEX
  8
0
 10
151.803
 20
103.317
 30
0.0
 40
0.0104167
 41
0.0104167
  0
VERTEX
  8
0
 10
151.692
 20
103.705
 30
0.0
 40
0.0104167
 41
0.0104167
  0
VERTEX
  8
0
 10
151.557
 20
104.092
 30
0.0
 40
0.0104167
 41
0.0104167
  0
VERTEX
  8
0
 10
151.397
 20
104.477
 30
0.0
 40
0.0104167
 41
0.0104167
  0
VERTEX
  8
0
 10
151.214
 20
104.859
 30
0.0
 40
0.0104167
 41
0.0104167
  0
VERTEX
  8
0
 10
151.007
 20
105.237
 30
0.0
 40
0.0104167
 41
0.0104167
  0
VERTEX
  8
0
 10
150.776
 20
105.613
 30
0.0
 40
0.0104167
 41
0.0104167
  0
VERTEX
  8
0
 10
150.522
 20
105.984
 30
0.0
 40
0.0104167
 41
0.0104167
  0
VERTEX
  8
0
 10
150.244
 20
106.352
 30
0.0
 40
0.0104167
 41
0.0104167
  0
VERTEX
  8
0
 10
149.943
 20
106.714
 30
0.0
 40
0.0104167
 41
0.0104167
  0
VERTEX
  8
0
 10
149.621
 20
107.072
 30
0.0
 40
0.0104167
 41
0.0104167
  0
VERTEX
  8
0
 10
149.275
 20
107.425
 30
0.0
 40
0.0104167
 41
0.0104167
  0
VERTEX
  8
0
 10
148.908
 20
107.772
 30
0.0
 40
0.0104167
 41
0.0104167
  0
VERTEX
  8
0
 10
148.518
 20
108.113
 30
0.0
 40
0.0104167
 41
0.0104167
  0
VERTEX
  8
0
 10
148.108
 20
108.448
 30
0.0
 40
0.0104167
 41
0.0104167
  0
VERTEX
  8
0
 10
147.676
 20
108.776
 30
0.0
 40
0.0104167
 41
0.0104167
  0
VERTEX
  8
0
 10
147.225
 20
109.097
 30
0.0
 40
0.0104167
 41
0.0104167
  0
VERTEX
  8
0
 10
146.754
 20
109.411
 30
0.0
 40
0.0104167
 41
0.0104167
  0
VERTEX
  8
0
 10
146.263
 20
109.718
 30
0.0
 40
0.0104167
 41
0.0104167
  0
VERTEX
  8
0
 10
145.753
 20
110.016
 30
0.0
 40
0.0104167
 41
0.0104167
  0
VERTEX
  8
0
 10
145.224
 20
110.307
 30
0.0
 40
0.0104167
 41
0.0104167
  0
VERTEX
  8
0
 10
144.678
 20
110.589
 30
0.0
 40
0.0104167
 41
0.0104167
  0
VERTEX
  8
0
 10
144.114
 20
110.862
 30
0.0
 40
0.0104167
 41
0.0104167
  0
VERTEX
  8
0
 10
143.533
 20
111.126
 30
0.0
 40
0.0104167
 41
0.0104167
  0
VERTEX
  8
0
 10
142.936
 20
111.381
 30
0.0
 40
0.0104167
 41
0.0104167
  0
VERTEX
  8
0
 10
142.322
 20
111.627
 30
0.0
 40
0.0104167
 41
0.0104167
  0
VERTEX
  8
0
 10
141.694
 20
111.863
 30
0.0
 40
0.0104167
 41
0.0104167
  0
VERTEX
  8
0
 10
141.053
 20
112.088
 30
0.0
 40
0.0104167
 41
0.0104167
  0
VERTEX
  8
0
 10
140.396
 20
112.304
 30
0.0
 40
0.0104167
 41
0.0104167
  0
VERTEX
  8
0
 10
139.726
 20
112.509
 30
0.0
 40
0.0104167
 41
0.0104167
  0
VERTEX
  8
0
 10
139.043
 20
112.704
 30
0.0
 40
0.0104167
 41
0.0104167
  0
VERTEX
  8
0
 10
138.35
 20
112.888
 30
0.0
 40
0.0104167
 41
0.0104167
  0
VERTEX
  8
0
 10
137.644
 20
113.06
 30
0.0
 40
0.0104167
 41
0.0104167
  0
VERTEX
  8
0
 10
136.929
 20
113.222
 30
0.0
 40
0.0104167
 41
0.0104167
  0
VERTEX
  8
0
 10
136.203
 20
113.372
 30
0.0
 40
0.0104167
 41
0.0104167
  0
VERTEX
  8
0
 10
135.468
 20
113.511
 30
0.0
 40
0.0104167
 41
0.0104167
  0
VERTEX
  8
0
 10
134.725
 20
113.638
 30
0.0
 40
0.0104167
 41
0.0104167
  0
VERTEX
  8
0
 10
133.975
 20
113.754
 30
0.0
 40
0.0104167
 41
0.0104167
  0
VERTEX
  8
0
 10
133.217
 20
113.857
 30
0.0
 40
0.0104167
 41
0.0104167
  0
VERTEX
  8
0
 10
132.453
 20
113.949
 30
0.0
 40
0.0104167
 41
0.0104167
  0
VERTEX
  8
0
 10
131.684
 20
114.029
 30
0.0
 40
0.0104167
 41
0.0104167
  0
VERTEX
  8
0
 10
130.911
 20
114.096
 30
0.0
 40
0.0104167
 41
0.0104167
  0
VERTEX
  8
0
 10
130.133
 20
114.151
 30
0.0
 40
0.0104167
 41
0.0104167
  0
VERTEX
  8
0
 10
129.353
 20
114.195
 30
0.0
 40
0.0104167
 41
0.0104167
  0
VERTEX
  8
0
 10
128.57
 20
114.225
 30
0.0
 40
0.0104167
 41
0.0104167
  0
VERTEX
  8
0
 10
127.785
 20
114.244
 30
0.0
 40
0.0104167
 41
0.0104167
  0
VERTEX
  8
0
 10
127
 20
114.25
 30
0.0
 40
0.0104167
 41
0.0104167
  0
VERTEX
  8
0
 10
126.215
 20
114.244
 30
0.0
 40
0.0104167
 41
0.0104167
  0
VERTEX
  8
0
 10
125.43
 20
114.225
 30
0.0
 40
0.0104167
 41
0.0104167
  0
VERTEX
  8
0
 10
124.647
 20
114.195
 30
0.0
 40
0.0104167
 41
0.0104167
  0
VERTEX
  8
0
 10
123.867
 20
114.151
 30
0.0
 40
0.0104167
 41
0.0104167
  0
VERTEX
  8
0
 10
123.089
 20
114.096
 30
0.0
 40
0.0104167
 41
0.0104167
  0
VERTEX
  8
0
 10
122.315
 20
114.029
 30
0.0
 40
0.0104167
 41
0.0104167
  0
VERTEX
  8
0
 10
121.546
 20
113.949
 30
0.0
 40
0.0104167
 41
0.0104167
  0
VERTEX
  8
0
 10
120.783
 20
113.857
 30
0.0
 40
0.0104167
 41
0.0104167
  0
VERTEX
  8
0
 10
120.025
 20
113.754
 30
0.0
 40
0.0104167
 41
0.0104167
  0
VERTEX
  8
0
 10
119.274
 20
113.638
 30
0.0
 40
0.0104167
 41
0.0104167
  0
VERTEX
  8
0
 10
118.532
 20
113.511
 30
0.0
 40
0.0104167
 41
0.0104167
  0
VERTEX
  8
0
 10
117.797
 20
113.372
 30
0.0
 40
0.0104167
 41
0.0104167
  0
VERTEX
  8
0
 10
117.071
 20
113.222
 30
0.0
 40
0.0104167
 41
0.0104167
  0
VERTEX
  8
0
 10
116.355
 20
113.06
 30
0.0
 40
0.0104167
 41
0.0104167
  0
VERTEX
  8
0
 10
115.65
 20
112.888
 30
0.0
 40
0.0104167
 41
0.0104167
  0
VERTEX
  8
0
 10
114.956
 20
112.704
 30
0.0
 40
0.0104167
 41
0.0104167
  0
VERTEX
  8
0
 10
114.274
 20
112.509
 30
0.0
 40
0.0104167
 41
0.0104167
  0
VERTEX
  8
0
 10
113.604
 20
112.304
 30
0.0
 40
0.0104167
 41
0.0104167
  0
VERTEX
  8
0
 10
112.948
 20
112.088
 30
0.0
 40
0.0104167
 41
0.0104167
  0
VERTEX
  8
0
 10
112.305
 20
111.863
 30
0.0
 40
0.0104167
 41
0.0104167
  0
VERTEX
  8
0
 10
111.677
 20
111.627
 30
0.0
 40
0.0104167
 41
0.0104167
  0
VERTEX
  8
0
 10
111.064
 20
111.381
 30
0.0
 40
0.0104167
 41
0.0104167
  0
VERTEX
  8
0
 10
110.467
 20
111.126
 30
0.0
 40
0.0104167
 41
0.0104167
  0
VERTEX
  8
0
 10
109.886
 20
110.862
 30
0.0
 40
0.0104167
 41
0.0104167
  0
VERTEX
  8
0
 10
109.322
 20
110.589
 30
0.0
 40
0.0104167
 41
0.0104167
  0
VERTEX
  8
0
 10
108.776
 20
110.307
 30
0.0
 40
0.0104167
 41
0.0104167
  0
VERTEX
  8
0
 10
108.247
 20
110.016
 30
0.0
 40
0.0104167
 41
0.0104167
  0
VERTEX
  8
0
 10
107.737
 20
109.718
 30
0.0
 40
0.0104167
 41
0.0104167
  0
VERTEX
  8
0
 10
107.246
 20
109.411
 30
0.0
 40
0.0104167
 41
0.0104167
  0
VERTEX
  8
0
 10
106.774
 20
109.097
 30
0.0
 40
0.0104167
 41
0.0104167
  0
VERTEX
  8
0
 10
106.323
 20
108.776
 30
0.0
 40
0.0104167
 41
0.0104167
  0
VERTEX
  8
0
 10
105.892
 20
108.448
 30
0.0
 40
0.0104167
 41
0.0104167
  0
VERTEX
  8
0
 10
105.481
 20
108.113
 30
0.0
 40
0.0104167
 41
0.0104167
  0
VERTEX
  8
0
 10
105.092
 20
107.772
 30
0.0
 40
0.0104167
 41
0.0104167
  0
VERTEX
  8
0
 10
104.725
 20
107.425
 30
0.0
 40
0.0104167
 41
0.0104167
  0
VERTEX
  8
0
 10
104.379
 20
107.072
 30
0.0
 40
0.0104167
 41
0.0104167
  0
VERTEX
  8
0
 10
104.056
 20
106.714
 30
0.0
 40
0.0104167
 41
0.0104167
  0
VERTEX
  8
0
 10
103.756
 20
106.352
 30
0.0
 40
0.0104167
 41
0.0104167
  0
VERTEX
  8
0
 10
103.478
 20
105.984
 30
0.0
 40
0.0104167
 41
0.0104167
  0
VERTEX
  8
0
 10
103.223
 20
105.613
 30
0.0
 40
0.0104167
 41
0.0104167
  0
VERTEX
  8
0
 10
102.993
 20
105.237
 30
0.0
 40
0.0104167
 41
0.0104167
  0
VERTEX
  8
0
 10
102.785
 20
104.859
 30
0.0
 40
0.0104167
 41
0.0104167
  0
VERTEX
  8
0
 10
102.602
 20
104.477
 30
0.0
 40
0.0104167
 41
0.0104167
  0
VERTEX
  8
0
 10
102.443
 20
104.092
 30
0.0
 40
0.0104167
 41
0.0104167
  0
VERTEX
  8
0
 10
102.308
 20
103.705
 30
0.0
 40
0.0104167
 41
0.0104167
  0
VERTEX
  8
0
 10
102.197
 20
103.317
 30
0.0
 40
0.0104167
 41
0.0104167
  0
VERTEX
  8
0
 10
102.111
 20
102.926
 30
0.0
 40
0.0104167
 41
0.0104167
  0
VERTEX
  8
0
 10
102.049
 20
102.535
 30
0.0
 40
0.0104167
 41
0.0104167
  0
VERTEX
  8
0
 10
102.012
 20
102.143
 30
0.0
 40
0.0104167
 41
0.0104167
  0
VERTEX
  8
0
 10
102
 20
101.75
 30
0.0
 40
0.0104167
 41
0.0104167
  0
VERTEX
  8
0
 10
152
 20
101.75
 30
0.0
 40
0.0104167
 41
0.0104167
  0
SEQEND
 8
0
  0
POLYLINE
  8
0
 62
     0
 66
     1
 10
0
 20
0
 30
0.0
 70
     1
 40
0
 41
0
  0
VERTEX
  8
0
 10
102
 20
37.7
 30
0.0
 40
0
 41
0
  0
VERTEX
  8
0
 10
102.012
 20
37.3074
 30
0.0
 40
0
 41
0
  0
VERTEX
  8
0
 10
102.049
 20
36.9151
 30
0.0
 40
0
 41
0
  0
VERTEX
  8
0
 10
102.111
 20
36.5236
 30
0.0
 40
0
 41
0
  0
VERTEX
  8
0
 10
102.197
 20
36.1333
 30
0.0
 40
0
 41
0
  0
VERTEX
  8
0
 10
102.308
 20
35.7446
 30
0.0
 40
0
 41
0
  0
VERTEX
  8
0
 10
102.443
 20
35.3578
 30
0.0
 40
0
 41
0
  0
VERTEX
  8
0
 10
102.602
 20
34.9732
 30
0.0
 40
0
 41
0
  0
VERTEX
  8
0
 10
102.785
 20
34.5914
 30
0.0
 40
0
 41
0
  0
VERTEX
  8
0
 10
102.993
 20
34.2126
 30
0.0
 40
0
 41
0
  0
VERTEX
  8
0
 10
103.223
 20
33.8372
 30
0.0
 40
0
 41
0
  0
VERTEX
  8
0
 10
103.478
 20
33.4658
 30
0.0
 40
0
 41
0
  0
VERTEX
  8
0
 10
103.756
 20
33.0985
 30
0.0
 40
0
 41
0
  0
VERTEX
  8
0
 10
104.056
 20
32.7357
 30
0.0
 40
0
 41
0
  0
VERTEX
  8
0
 10
104.379
 20
32.3778
 30
0.0
 40
0
 41
0
  0
VERTEX
  8
0
 10
104.725
 20
32.0251
 30
0.0
 40
0
 41
0
  0
VERTEX
  8
0
 10
105.092
 20
31.6781
 30
0.0
 40
0
 41
0
  0
VERTEX
  8
0
 10
105.481
 20
31.3369
 30
0.0
 40
0
 41
0
  0
VERTEX
  8
0
 10
105.892
 20
31.0022
 30
0.0
 40
0
 41
0
  0
VERTEX
  8
0
 10
106.323
 20
30.6739
 30
0.0
 40
0
 41
0
  0
VERTEX
  8
0
 10
106.774
 20
30.3526
 30
0.0
 40
0
 41
0
  0
VERTEX
  8
0
 10
107.246
 20
30.0386
 30
0.0
 40
0
 41
0
  0
VERTEX
  8
0
 10
107.737
 20
29.7322
 30
0.0
 40
0
 41
0
  0
VERTEX
  8
0
 10
108.247
 20
29.4336
 30
0.0
 40
0
 41
0
  0
VERTEX
  8
0
 10
108.776
 20
29.1432
 30
0.0
 40
0
 41
0
  0
VERTEX
  8
0
 10
109.322
 20
28.8611
 30
0.0
 40
0
 41
0
  0
VERTEX
  8
0
 10
109.886
 20
28.5879
 30
0.0
 40
0
 41
0
  0
VERTEX
  8
0
 10
110.467
 20
28.3236
 30
0.0
 40
0
 41
0
  0
VERTEX
  8
0
 10
111.064
 20
28.0686
 30
0.0
 40
0
 41
0
  0
VERTEX
  8
0
 10
111.677
 20
27.8231
 30
0.0
 40
0
 41
0
  0
VERTEX
  8
0
 10
112.305
 20
27.5872
 30
0.0
 40
0
 41
0
  0
VERTEX
  8
0
 10
112.948
 20
27.3615
 30
0.0
 40
0
 41
0
  0
VERTEX
  8
0
 10
113.604
 20
27.1458
 30
0.0
 40
0
 41
0
  0
VERTEX
  8
0
 10
114.274
 20
26.9407
 30
0.0
 40
0
 41
0
  0
VERTEX
  8
0
 10
114.956
 20
26.7461
 30
0.0
 40
0
 41
0
  0
VERTEX
  8
0
 10
115.65
 20
26.5624
 30
0.0
 40
0
 41
0
  0
VERTEX
  8
0
 10
116.355
 20
26.3897
 30
0.0
 40
0
 41
0
  0
VERTEX
  8
0
 10
117.071
 20
26.2281
 30
0.0
 40
0
 41
0
  0
VERTEX
  8
0
 10
117.797
 20
26.0778
 30
0.0
 40
0
 41
0
  0
VERTEX
  8
0
 10
118.532
 20
25.939
 30
0.0
 40
0
 41
0
  0
VERTEX
  8
0
 10
119.274
 20
25.8118
 30
0.0
 40
0
 41
0
  0
VERTEX
  8
0
 10
120.025
 20
25.6964
 30
0.0
 40
0
 41
0
  0
VERTEX
  8
0
 10
120.783
 20
25.5926
 30
0.0
 40
0
 41
0
  0
VERTEX
  8
0
 10
121.546
 20
25.501
 30
0.0
 40
0
 41
0
  0
VERTEX
  8
0
 10
122.315
 20
25.4214
 30
0.0
 40
0
 41
0
  0
VERTEX
  8
0
 10
123.089
 20
25.3539
 30
0.0
 40
0
 41
0
  0
VERTEX
  8
0
 10
123.867
 20
25.2986
 30
0.0
 40
0
 41
0
  0
VERTEX
  8
0
 10
124.647
 20
25.2554
 30
0.0
 40
0
 41
0
  0
VERTEX
  8
0
 10
125.43
 20
25.2247
 30
0.0
 40
0
 41
0
  0
VERTEX
  8
0
 10
126.215
 20
25.2061
 30
0.0
 40
0
 41
0
  0
VERTEX
  8
0
 10
127
 20
25.2
 30
0.0
 40
0
 41
0
  0
VERTEX
  8
0
 10
127.785
 20
25.2061
 30
0.0
 40
0
 41
0
  0
VERTEX
  8
0
 10
128.57
 20
25.2247
 30
0.0
 40
0
 41
0
  0
VERTEX
  8
0
 10
129.353
 20
25.2554
 30
0.0
 40
0
 41
0
  0
VERTEX
  8
0
 10
130.133
 20
25.2986
 30
0.0
 40
0
 41
0
  0
VERTEX
  8
0
 10
130.911
 20
25.3539
 30
0.0
 40
0
 41
0
  0
VERTEX
  8
0
 10
131.684
 20
25.4214
 30
0.0
 40
0
 41
0
  0
VERTEX
  8
0
 10
132.453
 20
25.501
 30
0.0
 40
0
 41
0
  0
VERTEX
  8
0
 10
133.217
 20
25.5926
 30
0.0
 40
0
 41
0
  0
VERTEX
  8
0
 10
133.975
 20
25.6964
 30
0.0
 40
0
 41
0
  0
VERTEX
  8
0
 10
134.725
 20
25.8118
 30
0.0
 40
0
 41
0
  0
VERTEX
  8
0
 10
135.468
 20
25.939
 30
0.0
 40
0
 41
0
  0
VERTEX
  8
0
 10
136.203
 20
26.0778
 30
0.0
 40
0
 41
0
  0
VERTEX
  8
0
 10
136.929
 20
26.2281
 30
0.0
 40
0
 41
0
  0
VERTEX
  8
0
 10
137.644
 20
26.3897
 30
0.0
 40
0
 41
0
  0
VERTEX
  8
0
 10
138.35
 20
26.5624
 30
0.0
 40
0
 41
0
  0
VERTEX
  8
0
 10
139.043
 20
26.7461
 30
0.0
 40
0
 41
0
  0
VERTEX
  8
0
 10
139.726
 20
26.9407
 30
0.0
 40
0
 41
0
  0
VERTEX
  8
0
 10
140.396
 20
27.1458
 30
0.0
 40
0
 41
0
  0
VERTEX
  8
0
 10
141.053
 20
27.3615
 30
0.0
 40
0
 41
0
  0
VERTEX
  8
0
 10
141.694
 20
27.5872
 30
0.0
 40
0
 41
0
  0
VERTEX
  8
0
 10
142.322
 20
27.8231
 30
0.0
 40
0
 41
0
  0
VERTEX
  8
0
 10
142.936
 20
28.0686
 30
0.0
 40
0
 41
0
  0
VERTEX
  8
0
 10
143.533
 20
28.3236
 30
0.0
 40
0
 41
0
  0
VERTEX
  8
0
 10
144.114
 20
28.5879
 30
0.0
 40
0
 41
0
  0
VERTEX
  8
0
 10
144.678
 20
28.8611
 30
0.0
 40
0
 41
0
  0
VERTEX
  8
0
 10
145.224
 20
29.1432
 30
0.0
 40
0
 41
0
  0
VERTEX
  8
0
 10
145.753
 20
29.4336
 30
0.0
 40
0
 41
0
  0
VERTEX
  8
0
 10
146.263
 20
29.7322
 30
0.0
 40
0
 41
0
  0
VERTEX
  8
0
 10
146.754
 20
30.0386
 30
0.0
 40
0
 41
0
  0
VERTEX
  8
0
 10
147.225
 20
30.3526
 30
0.0
 40
0
 41
0
  0
VERTEX
  8
0
 10
147.676
 20
30.6739
 30
0.0
 40
0
 41
0
  0
VERTEX
  8
0
 10
148.108
 20
31.0022
 30
0.0
 40
0
 41
0
  0
VERTEX
  8
0
 10
148.518
 20
31.3369
 30
0.0
 40
0
 41
0
  0
VERTEX
  8
0
 10
148.908
 20
31.6781
 30
0.0
 40
0
 41
0
  0
VERTEX
  8
0
 10
149.275
 20
32.0251
 30
0.0
 40
0
 41
0
  0
VERTEX
  8
0
 10
149.621
 20
32.3778
 30
0.0
 40
0
 41
0
  0
VERTEX
  8
0
 10
149.943
 20
32.7357
 30
0.0
 40
0
 41
0
  0
VERTEX
  8
0
 10
150.244
 20
33.0985
 30
0.0
 40
0
 41
0
  0
VERTEX
  8
0
 10
150.522
 20
33.4658
 30
0.0
 40
0
 41
0
  0
VERTEX
  8
0
 10
150.776
 20
33.8372
 30
0.0
 40
0
 41
0
  0
VERTEX
  8
0
 10
151.007
 20
34.2126
 30
0.0
 40
0
 41
0
  0
VERTEX
  8
0
 10
151.214
 20
34.5914
 30
0.0
 40
0
 41
0
  0
VERTEX
  8
0
 10
151.397
 20
34.9732
 30
0.0
 40
0
 41
0
  0
VERTEX
  8
0
 10
151.557
 20
35.3578
 30
0.0
 40
0
 41
0
  0
VERTEX
  8
0
 10
151.692
 20
35.7446
 30
0.0
 40
0
 41
0
  0
VERTEX
  8
0
 10
151.803
 20
36.1333
 30
0.0
 40
0
 41
0
  0
VERTEX
  8
0
 10
151.889
 20
36.5236
 30
0.0
 40
0
 41
0
  0
VERTEX
  8
0
 10
151.95
 20
36.9151
 30
0.0
 40
0
 41
0
  0
VERTEX
  8
0
 10
151.987
 20
37.3074
 30
0.0
 40
0
 41
0
  0
VERTEX
  8
0
 10
152
 20
37.7
 30
0.0
 40
0
 41
0
  0
VERTEX
  8
0
 10
102
 20
37.7
 30
0.0
 40
0
 41
0
  0
SEQEND
 8
0
  0
POLYLINE
  8
0
 62
     0
 66
     1
 10
0
 20
0
 30
0.0
 70
     1
 40
0.75
 41
0.75
  0
VERTEX
  8
0
 10
102
 20
37.7
 30
0.0
 40
0.0104167
 41
0.0104167
  0
VERTEX
  8
0
 10
102.012
 20
37.3074
 30
0.0
 40
0.0104167
 41
0.0104167
  0
VERTEX
  8
0
 10
102.049
 20
36.9151
 30
0.0
 40
0.0104167
 41
0.0104167
  0
VERTEX
  8
0
 10
102.111
 20
36.5236
 30
0.0
 40
0.0104167
 41
0.0104167
  0
VERTEX
  8
0
 10
102.197
 20
36.1333
 30
0.0
 40
0.0104167
 41
0.0104167
  0
VERTEX
  8
0
 10
102.308
 20
35.7446
 30
0.0
 40
0.0104167
 41
0.0104167
  0
VERTEX
  8
0
 10
102.443
 20
35.3578
 30
0.0
 40
0.0104167
 41
0.0104167
  0
VERTEX
  8
0
 10
102.602
 20
34.9732
 30
0.0
 40
0.0104167
 41
0.0104167
  0
VERTEX
  8
0
 10
102.785
 20
34.5914
 30
0.0
 40
0.0104167
 41
0.0104167
  0
VERTEX
  8
0
 10
102.993
 20
34.2126
 30
0.0
 40
0.0104167
 41
0.0104167
  0
VERTEX
  8
0
 10
103.223
 20
33.8372
 30
0.0
 40
0.0104167
 41
0.0104167
  0
VERTEX
  8
0
 10
103.478
 20
33.4658
 30
0.0
 40
0.0104167
 41
0.0104167
  0
VERTEX
  8
0
 10
103.756
 20
33.0985
 30
0.0
 40
0.0104167
 41
0.0104167
  0
VERTEX
  8
0
 10
104.056
 20
32.7357
 30
0.0
 40
0.0104167
 41
0.0104167
  0
VERTEX
  8
0
 10
104.379
 20
32.3778
 30
0.0
 40
0.0104167
 41
0.0104167
  0
VERTEX
  8
0
 10
104.725
 20
32.0251
 30
0.0
 40
0.0104167
 41
0.0104167
  0
VERTEX
  8
0
 10
105.092
 20
31.6781
 30
0.0
 40
0.0104167
 41
0.0104167
  0
VERTEX
  8
0
 10
105.481
 20
31.3369
 30
0.0
 40
0.0104167
 41
0.0104167
  0
VERTEX
  8
0
 10
105.892
 20
31.0022
 30
0.0
 40
0.0104167
 41
0.0104167
  0
VERTEX
  8
0
 10
106.323
 20
30.6739
 30
0.0
 40
0.0104167
 41
0.0104167
  0
VERTEX
  8
0
 10
106.774
 20
30.3526
 30
0.0
 40
0.0104167
 41
0.0104167
  0
VERTEX
  8
0
 10
107.246
 20
30.0386
 30
0.0
 40
0.0104167
 41
0.0104167
  0
VERTEX
  8
0
 10
107.737
 20
29.7322
 30
0.0
 40
0.0104167
 41
0.0104167
  0
VERTEX
  8
0
 10
108.247
 20
29.4336
 30
0.0
 40
0.0104167
 41
0.0104167
  0
VERTEX
  8
0
 10
108.776
 20
29.1432
 30
0.0
 40
0.0104167
 41
0.0104167
  0
VERTEX
  8
0
 10
109.322
 20
28.8611
 30
0.0
 40
0.0104167
 41
0.0104167
  0
VERTEX
  8
0
 10
109.886
 20
28.5879
 30
0.0
 40
0.0104167
 41
0.0104167
  0
VERTEX
  8
0
 10
110.467
 20
28.3236
 30
0.0
 40
0.0104167
 41
0.0104167
  0
VERTEX
  8
0
 10
111.064
 20
28.0686
 30
0.0
 40
0.0104167
 41
0.0104167
  0
VERTEX
  8
0
 10
111.677
 20
27.8231
 30
0.0
 40
0.0104167
 41
0.0104167
  0
VERTEX
  8
0
 10
112.305
 20
27.5872
 30
0.0
 40
0.0104167
 41
0.0104167
  0
VERTEX
  8
0
 10
112.948
 20
27.3615
 30
0.0
 40
0.0104167
 41
0.0104167
  0
VERTEX
  8
0
 10
113.604
 20
27.1458
 30
0.0
 40
0.0104167
 41
0.0104167
  0
VERTEX
  8
0
 10
114.274
 20
26.9407
 30
0.0
 40
0.0104167
 41
0.0104167
  0
VERTEX
  8
0
 10
114.956
 20
26.7461
 30
0.0
 40
0.0104167
 41
0.0104167
  0
VERTEX
  8
0
 10
115.65
 20
26.5624
 30
0.0
 40
0.0104167
 41
0.0104167
  0
VERTEX
  8
0
 10
116.355
 20
26.3897
 30
0.0
 40
0.0104167
 41
0.0104167
  0
VERTEX
  8
0
 10
117.071
 20
26.2281
 30
0.0
 40
0.0104167
 41
0.0104167
  0
VERTEX
  8
0
 10
117.797
 20
26.0778
 30
0.0
 40
0.0104167
 41
0.0104167
  0
VERTEX
  8
0
 10
118.532
 20
25.939
 30
0.0
 40
0.0104167
 41
0.0104167
  0
VERTEX
  8
0
 10
119.274
 20
25.8118
 30
0.0
 40
0.0104167
 41
0.0104167
  0
VERTEX
  8
0
 10
120.025
 20
25.6964
 30
0.0
 40
0.0104167
 41
0.0104167
  0
VERTEX
  8
0
 10
120.783
 20
25.5926
 30
0.0
 40
0.0104167
 41
0.0104167
  0
VERTEX
  8
0
 10
121.546
 20
25.501
 30
0.0
 40
0.0104167
 41
0.0104167
  0
VERTEX
  8
0
 10
122.315
 20
25.4214
 30
0.0
 40
0.0104167
 41
0.0104167
  0
VERTEX
  8
0
 10
123.089
 20
25.3539
 30
0.0
 40
0.0104167
 41
0.0104167
  0
VERTEX
  8
0
 10
123.867
 20
25.2986
 30
0.0
 40
0.0104167
 41
0.0104167
  0
VERTEX
  8
0
 10
124.647
 20
25.2554
 30
0.0
 40
0.0104167
 41
0.0104167
  0
VERTEX
  8
0
 10
125.43
 20
25.2247
 30
0.0
 40
0.0104167
 41
0.0104167
  0
VERTEX
  8
0
 10
126.215
 20
25.2061
 30
0.0
 40
0.0104167
 41
0.0104167
  0
VERTEX
  8
0
 10
127
 20
25.2
 30
0.0
 40
0.0104167
 41
0.0104167
  0
VERTEX
  8
0
 10
127.785
 20
25.2061
 30
0.0
 40
0.0104167
 41
0.0104167
  0
VERTEX
  8
0
 10
128.57
 20
25.2247
 30
0.0
 40
0.0104167
 41
0.0104167
  0
VERTEX
  8
0
 10
129.353
 20
25.2554
 30
0.0
 40
0.0104167
 41
0.0104167
  0
VERTEX
  8
0
 10
130.133
 20
25.2986
 30
0.0
 40
0.0104167
 41
0.0104167
  0
VERTEX
  8
0
 10
130.911
 20
25.3539
 30
0.0
 40
0.0104167
 41
0.0104167
  0
VERTEX
  8
0
 10
131.684
 20
25.4214
 30
0.0
 40
0.0104167
 41
0.0104167
  0
VERTEX
  8
0
 10
132.453
 20
25.501
 30
0.0
 40
0.0104167
 41
0.0104167
  0
VERTEX
  8
0
 10
133.217
 20
25.5926
 30
0.0
 40
0.0104167
 41
0.0104167
  0
VERTEX
  8
0
 10
133.975
 20
25.6964
 30
0.0
 40
0.0104167
 41
0.0104167
  0
VERTEX
  8
0
 10
134.725
 20
25.8118
 30
0.0
 40
0.0104167
 41
0.0104167
  0
VERTEX
  8
0
 10
135.468
 20
25.939
 30
0.0
 40
0.0104167
 41
0.0104167
  0
VERTEX
  8
0
 10
136.203
 20
26.0778
 30
0.0
 40
0.0104167
 41
0.0104167
  0
VERTEX
  8
0
 10
136.929
 20
26.2281
 30
0.0
 40
0.0104167
 41
0.0104167
  0
VERTEX
  8
0
 10
137.644
 20
26.3897
 30
0.0
 40
0.0104167
 41
0.0104167
  0
VERTEX
  8
0
 10
138.35
 20
26.5624
 30
0.0
 40
0.0104167
 41
0.0104167
  0
VERTEX
  8
0
 10
139.043
 20
26.7461
 30
0.0
 40
0.0104167
 41
0.0104167
  0
VERTEX
  8
0
 10
139.726
 20
26.9407
 30
0.0
 40
0.0104167
 41
0.0104167
  0
VERTEX
  8
0
 10
140.396
 20
27.1458
 30
0.0
 40
0.0104167
 41
0.0104167
  0
VERTEX
  8
0
 10
141.053
 20
27.3615
 30
0.0
 40
0.0104167
 41
0.0104167
  0
VERTEX
  8
0
 10
141.694
 20
27.5872
 30
0.0
 40
0.0104167
 41
0.0104167
  0
VERTEX
  8
0
 10
142.322
 20
27.8231
 30
0.0
 40
0.0104167
 41
0.0104167
  0
VERTEX
  8
0
 10
142.936
 20
28.0686
 30
0.0
 40
0.0104167
 41
0.0104167
  0
VERTEX
  8
0
 10
143.533
 20
28.3236
 30
0.0
 40
0.0104167
 41
0.0104167
  0
VERTEX
  8
0
 10
144.114
 20
28.5879
 30
0.0
 40
0.0104167
 41
0.0104167
  0
VERTEX
  8
0
 10
144.678
 20
28.8611
 30
0.0
 40
0.0104167
 41
0.0104167
  0
VERTEX
  8
0
 10
145.224
 20
29.1432
 30
0.0
 40
0.0104167
 41
0.0104167
  0
VERTEX
  8
0
 10
145.753
 20
29.4336
 30
0.0
 40
0.0104167
 41
0.0104167
  0
VERTEX
  8
0
 10
146.263
 20
29.7322
 30
0.0
 40
0.0104167
 41
0.0104167
  0
VERTEX
  8
0
 10
146.754
 20
30.0386
 30
0.0
 40
0.0104167
 41
0.0104167
  0
VERTEX
  8
0
 10
147.225
 20
30.3526
 30
0.0
 40
0.0104167
 41
0.0104167
  0
VERTEX
  8
0
 10
147.676
 20
30.6739
 30
0.0
 40
0.0104167
 41
0.0104167
  0
VERTEX
  8
0
 10
148.108
 20
31.0022
 30
0.0
 40
0.0104167
 41
0.0104167
  0
VERTEX
  8
0
 10
148.518
 20
31.3369
 30
0.0
 40
0.0104167
 41
0.0104167
  0
VERTEX
  8
0
 10
148.908
 20
31.6781
 30
0.0
 40
0.0104167
 41
0.0104167
  0
VERTEX
  8
0
 10
149.275
 20
32.0251
 30
0.0
 40
0.0104167
 41
0.0104167
  0
VERTEX
  8
0
 10
149.621
 20
32.3778
 30
0.0
 40
0.0104167
 41
0.0104167
  0
VERTEX
  8
0
 10
149.943
 20
32.7357
 30
0.0
 40
0.0104167
 41
0.0104167
  0
VERTEX
  8
0
 10
150.244
 20
33.0985
 30
0.0
 40
0.0104167
 41
0.0104167
  0
VERTEX
  8
0
 10
150.522
 20
33.4658
 30
0.0
 40
0.0104167
 41
0.0104167
  0
VERTEX
  8
0
 10
150.776
 20
33.8372
 30
0.0
 40
0.0104167
 41
0.0104167
  0
VERTEX
  8
0
 10
151.007
 20
34.2126
 30
0.0
 40
0.0104167
 41
0.0104167
  0
VERTEX
  8
0
 10
151.214
 20
34.5914
 30
0.0
 40
0.0104167
 41
0.0104167
  0
VERTEX
  8
0
 10
151.397
 20
34.9732
 30
0.0
 40
0.0104167
 41
0.0104167
  0
VERTEX
  8
0
 10
151.557
 20
35.3578
 30
0.0
 40
0.0104167
 41
0.0104167
  0
VERTEX
  8
0
 10
151.692
 20
35.7446
 30
0.0
 40
0.0104167
 41
0.0104167
  0
VERTEX
  8
0
 10
151.803
 20
36.1333
 30
0.0
 40
0.0104167
 41
0.0104167
  0
VERTEX
  8
0
 10
151.889
 20
36.5236
 30
0.0
 40
0.0104167
 41
0.0104167
  0
VERTEX
  8
0
 10
151.95
 20
36.9151
 30
0.0
 40
0.0104167
 41
0.0104167
  0
VERTEX
  8
0
 10
151.987
 20
37.3074
 30
0.0
 40
0.0104167
 41
0.0104167
  0
VERTEX
  8
0
 10
152
 20
37.7
 30
0.0
 40
0.0104167
 41
0.0104167
  0
VERTEX
  8
0
 10
102
 20
37.7
 30
0.0
 40
0.0104167
 41
0.0104167
  0
SEQEND
 8
0
  0
POLYLINE
  8
0
 62
     0
 66
     1
 10
0
 20
0
 30
0.0
 70
     1
 40
0
 41
0
  0
VERTEX
  8
0
 10
102
 20
101.75
 30
0.0
 40
0
 41
0
  0
VERTEX
  8
0
 10
152
 20
101.75
 30
0.0
 40
0
 41
0
  0
VERTEX
  8
0
 10
152
 20
71.71
 30
0.0
 40
0
 41
0
  0
VERTEX
  8
0
 10
102
 20
71.71
 30
0.0
 40
0
 41
0
  0
VERTEX
  8
0
 10
102
 20
101.75
 30
0.0
 40
0
 41
0
  0
SEQEND
 8
0
  0
POLYLINE
  8
0
 62
     0
 66
     1
 10
0
 20
0
 30
0.0
 70
     1
 40
0
 41
0
  0
VERTEX
  8
0
 10
102
 20
67.74
 30
0.0
 40
0
 41
0
  0
VERTEX
  8
0
 10
152
 20
67.74
 30
0.0
 40
0
 41
0
  0
VERTEX
  8
0
 10
152
 20
37.7
 30
0.0
 40
0
 41
0
  0
VERTEX
  8
0
 10
102
 20
37.7
 30
0.0
 40
0
 41
0
  0
VERTEX
  8
0
 10
102
 20
67.74
 30
0.0
 40
0
 41
0
  0
SEQEND
 8
0
  0
POLYLINE
  8
0
 62
     0
 66
     1
 10
0
 20
0
 30
0.0
 70
     1
 40
0
 41
0
  0
VERTEX
  8
0
 10
102
 20
71.75
 30
0.0
 40
0
 41
0
  0
VERTEX
  8
0
 10
152
 20
71.75
 30
0.0
 40
0
 41
0
  0
VERTEX
  8
0
 10
126.975
 20
69.75
 30
0.0
 40
0
 41
0
  0
VERTEX
  8
0
 10
127.025
 20
69.75
 30
0.0
 40
0
 41
0
  0
VERTEX
  8
0
 10
102
 20
71.75
 30
0.0
 40
0
 41
0
  0
SEQEND
 8
0
  0
POLYLINE
  8
0
 62
     0
 66
     1
 10
0
 20
0
 30
0.0
 70
     1
 40
0
 41
0
  0
VERTEX
  8
0
 10
102
 20
67.7
 30
0.0
 40
0
 41
0
  0
VERTEX
  8
0
 10
152
 20
67.7
 30
0.0
 40
0
 41
0
  0
VERTEX
  8
0
 10
126.975
 20
69.7
 30
0.0
 40
0
 41
0
  0
VERTEX
  8
0
 10
127.025
 20
69.7
 30
0.0
 40
0
 41
0
  0
VERTEX
  8
0
 10
102
 20
67.7
 30
0.0
 40
0
 41
0
  0
SEQEND
 8
0
  0
POLYLINE
  8
0
 62
     0
 66
     1
 10
0
 20
0
 30
0.0
 70
     1
 40
0
 41
0
  0
VERTEX
  8
0
 10
126.975
 20
71.75
 30
0.0
 40
0
 41
0
  0
VERTEX
  8
0
 10
127.025
 20
71.75
 30
0.0
 40
0
 41
0
  0
VERTEX
  8
0
 10
127.025
 20
67.7
 30
0.0
 40
0
 41
0
  0
VERTEX
  8
0
 10
126.975
 20
67.7
 30
0.0
 40
0
 41
0
  0
VERTEX
  8
0
 10
126.975
 20
71.75
 30
0.0
 40
0
 41
0
  0
SEQEND
 8
0
  0
POLYLINE
  8
0
 62
     0
 66
     1
 10
0
 20
0
 30
0.0
 70
     1
 40
0
 41
0
  0
VERTEX
  8
0
 10
98.54
 20
74.1371
 30
0.0
 40
0
 41
0
  0
VERTEX
  8
0
 10
98.5404
 20
74.169
 30
0.0
 40
0
 41
0
  0
VERTEX
  8
0
 10
98.5418
 20
74.2006
 30
0.0
 40
0
 41
0
  0
VERTEX
  8
0
 10
98.544
 20
74.2317
 30
0.0
 40
0
 41
0
  0
VERTEX
  8
0
 10
98.5472
 20
74.2624
 30
0.0
 40
0
 41
0
  0
VERTEX
  8
0
 10
98.5514
 20
74.2925
 30
0.0
 40
0
 41
0
  0
VERTEX
  8
0
 10
98.5564
 20
74.3222
 30
0.0
 40
0
 41
0
  0
VERTEX
  8
0
 10
98.5624
 20
74.3514
 30
0.0
 40
0
 41
0
  0
VERTEX
  8
0
 10
98.5692
 20
74.3803
 30
0.0
 40
0
 41
0
  0
VERTEX
  8
0
 10
98.5769
 20
74.4086
 30
0.0
 40
0
 41
0
  0
VERTEX
  8
0
 10
98.5856
 20
74.4365
 30
0.0
 40
0
 41
0
  0
VERTEX
  8
0
 10
98.5947
 20
74.4642
 30
0.0
 40
0
 41
0
  0
VERTEX
  8
0
 10
98.6049
 20
74.491
 30
0.0
 40
0
 41
0
  0
VERTEX
  8
0
 10
98.6158
 20
74.5171
 30
0.0
 40
0
 41
0
  0
VERTEX
  8
0
 10
98.6278
 20
74.5425
 30
0.0
 40
0
 41
0
  0
VERTEX
  8
0
 10
98.6404
 20
74.5671
 30
0.0
 40
0
 41
0
  0
VERTEX
  8
0
 10
98.6542
 20
74.591
 30
0.0
 40
0
 41
0
  0
VERTEX
  8
0
 10
98.6686
 20
74.6142
 30
0.0
 40
0
 41
0
  0
VERTEX
  8
0
 10
98.684
 20
74.6365
 30
0.0
 40
0
 41
0
  0
VERTEX
  8
0
 10
98.7003
 20
74.6582
 30
0.0
 40
0
 41
0
  0
VERTEX
  8
0
 10
98.7174
 20
74.679
 30
0.0
 40
0
 41
0
  0
VERTEX
  8
0
 10
98.7354
 20
74.6994
 30
0.0
 40
0
 41
0
  0
VERTEX
  8
0
 10
98.7542
 20
74.7189
 30
0.0
 40
0
 41
0
  0
VERTEX
  8
0
 10
98.7739
 20
74.7374
 30
0.0
 40
0
 41
0
  0
VERTEX
  8
0
 10
98.7944
 20
74.7551
 30
0.0
 40
0
 41
0
  0
VERTEX
  8
0
 10
98.8158
 20
74.7718
 30
0.0
 40
0
 41
0
  0
VERTEX
  8
0
 10
98.8381
 20
74.7876
 30
0.0
 40
0
 41
0
  0
VERTEX
  8
0
 10
98.8611
 20
74.8025
 30
0.0
 40
0
 41
0
  0
VERTEX
  8
0
 10
98.8851
 20
74.8165
 30
0.0
 40
0
 41
0
  0
VERTEX
  8
0
 10
98.9099
 20
74.8296
 30
0.0
 40
0
 41
0
  0
VERTEX
  8
0
 10
98.9354
 20
74.8418
 30
0.0
 40
0
 41
0
  0
VERTEX
  8
0
 10
98.9619
 20
74.8529
 30
0.0
 40
0
 41
0
  0
VERTEX
  8
0
 10
98.9892
 20
74.8629
 30
0.0
 40
0
 41
0
  0
VERTEX
  8
0
 10
99.0172
 20
74.8717
 30
0.0
 40
0
 41
0
  0
VERTEX
  8
0
 10
99.0461
 20
74.8793
 30
0.0
 40
0
 41
0
  0
VERTEX
  8
0
 10
99.0758
 20
74.8857
 30
0.0
 40
0
 41
0
  0
VERTEX
  8
0
 10
99.1064
 20
74.891
 30
0.0
 40
0
 41
0
  0
VERTEX
  8
0
 10
99.1376
 20
74.8951
 30
0.0
 40
0
 41
0
  0
VERTEX
  8
0
 10
99.1699
 20
74.8981
 30
0.0
 40
0
 41
0
  0
VERTEX
  8
0
 10
99.2028
 20
74.8999
 30
0.0
 40
0
 41
0
  0
VERTEX
  8
0
 10
99.2365
 20
74.9004
 30
0.0
 40
0
 41
0
  0
VERTEX
  8
0
 10
99.2733
 20
74.8999
 30
0.0
 40
0
 41
0
  0
VERTEX
  8
0
 10
99.3093
 20
74.8982
 30
0.0
 40
0
 41
0
  0
VERTEX
  8
0
 10
99.3446
 20
74.8954
 30
0.0
 40
0
 41
0
  0
VERTEX
  8
0
 10
99.379
 20
74.8915
 30
0.0
 40
0
 41
0
  0
VERTEX
  8
0
 10
99.4128
 20
74.8865
 30
0.0
 40
0
 41
0
  0
VERTEX
  8
0
 10
99.4458
 20
74.8804
 30
0.0
 40
0
 41
0
  0
VERTEX
  8
0
 10
99.4781
 20
74.8733
 30
0.0
 40
0
 41
0
  0
VERTEX
  8
0
 10
99.5094
 20
74.865
 30
0.0
 40
0
 41
0
  0
VERTEX
  8
0
 10
99.5403
 20
74.8556
 30
0.0
 40
0
 41
0
  0
VERTEX
  8
0
 10
99.5703
 20
74.845
 30
0.0
 40
0
 41
0
  0
VERTEX
  8
0
 10
99.5994
 20
74.8335
 30
0.0
 40
0
 41
0
  0
VERTEX
  8
0
 10
99.6276
 20
74.8207
 30
0.0
 40
0
 41
0
  0
VERTEX
  8
0
 10
99.655
 20
74.8069
 30
0.0
 40
0
 41
0
  0
VERTEX
  8
0
 10
99.6814
 20
74.7922
 30
0.0
 40
0
 41
0
  0
VERTEX
  8
0
 10
99.7069
 20
74.7763
 30
0.0
 40
0
 41
0
  0
VERTEX
  8
0
 10
99.7315
 20
74.7593
 30
0.0
 40
0
 41
0
  0
VERTEX
  8
0
 10
99.7553
 20
74.7413
 30
0.0
 40
0
 41
0
  0
VERTEX
  8
0
 10
99.7781
 20
74.7221
 30
0.0
 40
0
 41
0
  0
VERTEX
  8
0
 10
99.8
 20
74.7019
 30
0.0
 40
0
 41
0
  0
VERTEX
  8
0
 10
99.8208
 20
74.6807
 30
0.0
 40
0
 41
0
  0
VERTEX
  8
0
 10
99.841
 20
74.6583
 30
0.0
 40
0
 41
0
  0
VERTEX
  8
0
 10
99.86
 20
74.635
 30
0.0
 40
0
 41
0
  0
VERTEX
  8
0
 10
99.8782
 20
74.6106
 30
0.0
 40
0
 41
0
  0
VERTEX
  8
0
 10
99.8954
 20
74.5851
 30
0.0
 40
0
 41
0
  0
VERTEX
  8
0
 10
99.9117
 20
74.5586
 30
0.0
 40
0
 41
0
  0
VERTEX
  8
0
 10
99.9269
 20
74.5311
 30
0.0
 40
0
 41
0
  0
VERTEX
  8
0
 10
99.9414
 20
74.5025
 30
0.0
 40
0
 41
0
  0
VERTEX
  8
0
 10
99.9547
 20
74.4728
 30
0.0
 40
0
 41
0
  0
VERTEX
  8
0
 10
99.9672
 20
74.4422
 30
0.0
 40
0
 41
0
  0
VERTEX
  8
0
 10
99.9788
 20
74.4104
 30
0.0
 40
0
 41
0
  0
VERTEX
  8
0
 10
99.989
 20
74.3781
 30
0.0
 40
0
 41
0
  0
VERTEX
  8
0
 10
99.9981
 20
74.3447
 30
0.0
 40
0
 41
0
  0
VERTEX
  8
0
 10
100.006
 20
74.3104
 30
0.0
 40
0
 41
0
  0
VERTEX
  8
0
 10
100.013
 20
74.275
 30
0.0
 40
0
 41
0
  0
VERTEX
  8
0
 10
100.019
 20
74.2387
 30
0.0
 40
0
 41
0
  0
VERTEX
  8
0
 10
100.024
 20
74.2015
 30
0.0
 40
0
 41
0
  0
VERTEX
  8
0
 10
100.028
 20
74.1632
 30
0.0
 40
0
 41
0
  0
VERTEX
  8
0
 10
100.03
 20
74.124
 30
0.0
 40
0
 41
0
  0
VERTEX
  8
0
 10
100.032
 20
74.0837
 30
0.0
 40
0
 41
0
  0
VERTEX
  8
0
 10
100.032
 20
74.0426
 30
0.0
 40
0
 41
0
  0
VERTEX
  8
0
 10
100.032
 20
74.0261
 30
0.0
 40
0
 41
0
  0
VERTEX
  8
0
 10
100.032
 20
74.0094
 30
0.0
 40
0
 41
0
  0
VERTEX
  8
0
 10
100.032
 20
73.9929
 30
0.0
 40
0
 41
0
  0
VERTEX
  8
0
 10
100.031
 20
73.9765
 30
0.0
 40
0
 41
0
  0
VERTEX
  8
0
 10
100.03
 20
73.96
 30
0.0
 40
0
 41
0
  0
VERTEX
  8
0
 10
100.03
 20
73.9436
 30
0.0
 40
0
 41
0
  0
VERTEX
  8
0
 10
100.028
 20
73.9272
 30
0.0
 40
0
 41
0
  0
VERTEX
  8
0
 10
100.027
 20
73.9108
 30
0.0
 40
0
 41
0
  0
VERTEX
  8
0
 10
100.026
 20
73.8946
 30
0.0
 40
0
 41
0
  0
VERTEX
  8
0
 10
100.024
 20
73.8782
 30
0.0
 40
0
 41
0
  0
VERTEX
  8
0
 10
100.023
 20
73.8624
 30
0.0
 40
0
 41
0
  0
VERTEX
  8
0
 10
100.021
 20
73.8465
 30
0.0
 40
0
 41
0
  0
VERTEX
  8
0
 10
100.019
 20
73.8308
 30
0.0
 40
0
 41
0
  0
VERTEX
  8
0
 10
100.017
 20
73.8153
 30
0.0
 40
0
 41
0
  0
VERTEX
  8
0
 10
100.014
 20
73.7997
 30
0.0
 40
0
 41
0
  0
VERTEX
  8
0
 10
100.012
 20
73.7843
 30
0.0
 40
0
 41
0
  0
VERTEX
  8
0
 10
100.009
 20
73.769
 30
0.0
 40
0
 41
0
  0
VERTEX
  8
0
 10
100.006
 20
73.7538
 30
0.0
 40
0
 41
0
  0
VERTEX
  8
0
 10
100.003
 20
73.7386
 30
0.0
 40
0
 41
0
  0
VERTEX
  8
0
 10
100
 20
73.7236
 30
0.0
 40
0
 41
0
  0
VERTEX
  8
0
 10
99.9969
 20
73.709
 30
0.0
 40
0
 41
0
  0
VERTEX
  8
0
 10
99.9937
 20
73.6946
 30
0.0
 40
0
 41
0
  0
VERTEX
  8
0
 10
99.9903
 20
73.6803
 30
0.0
 40
0
 41
0
  0
VERTEX
  8
0
 10
99.9867
 20
73.6661
 30
0.0
 40
0
 41
0
  0
VERTEX
  8
0
 10
99.9828
 20
73.6519
 30
0.0
 40
0
 41
0
  0
VERTEX
  8
0
 10
99.9789
 20
73.6381
 30
0.0
 40
0
 41
0
  0
VERTEX
  8
0
 10
99.9746
 20
73.6243
 30
0.0
 40
0
 41
0
  0
VERTEX
  8
0
 10
99.9703
 20
73.6106
 30
0.0
 40
0
 41
0
  0
VERTEX
  8
0
 10
99.9657
 20
73.5971
 30
0.0
 40
0
 41
0
  0
VERTEX
  8
0
 10
99.9608
 20
73.5836
 30
0.0
 40
0
 41
0
  0
VERTEX
  8
0
 10
99.956
 20
73.5704
 30
0.0
 40
0
 41
0
  0
VERTEX
  8
0
 10
99.9508
 20
73.5575
 30
0.0
 40
0
 41
0
  0
VERTEX
  8
0
 10
99.9456
 20
73.5447
 30
0.0
 40
0
 41
0
  0
VERTEX
  8
0
 10
99.94
 20
73.5324
 30
0.0
 40
0
 41
0
  0
VERTEX
  8
0
 10
99.9344
 20
73.5201
 30
0.0
 40
0
 41
0
  0
VERTEX
  8
0
 10
99.9286
 20
73.5082
 30
0.0
 40
0
 41
0
  0
VERTEX
  8
0
 10
99.9226
 20
73.4967
 30
0.0
 40
0
 41
0
  0
VERTEX
  8
0
 10
99.9167
 20
73.4853
 30
0.0
 40
0
 41
0
  0
VERTEX
  8
0
 10
99.9103
 20
73.474
 30
0.0
 40
0
 41
0
  0
VERTEX
  8
0
 10
99.9039
 20
73.4632
 30
0.0
 40
0
 41
0
  0
VERTEX
  8
0
 10
99.6239
 20
73.4632
 30
0.0
 40
0
 41
0
  0
VERTEX
  8
0
 10
99.6314
 20
73.4742
 30
0.0
 40
0
 41
0
  0
VERTEX
  8
0
 10
99.6386
 20
73.4854
 30
0.0
 40
0
 41
0
  0
VERTEX
  8
0
 10
99.6457
 20
73.4971
 30
0.0
 40
0
 41
0
  0
VERTEX
  8
0
 10
99.6526
 20
73.509
 30
0.0
 40
0
 41
0
  0
VERTEX
  8
0
 10
99.6593
 20
73.5214
 30
0.0
 40
0
 41
0
  0
VERTEX
  8
0
 10
99.666
 20
73.5342
 30
0.0
 40
0
 41
0
  0
VERTEX
  8
0
 10
99.6724
 20
73.5472
 30
0.0
 40
0
 41
0
  0
VERTEX
  8
0
 10
99.6786
 20
73.5606
 30
0.0
 40
0
 41
0
  0
VERTEX
  8
0
 10
99.6847
 20
73.5744
 30
0.0
 40
0
 41
0
  0
VERTEX
  8
0
 10
99.6907
 20
73.5885
 30
0.0
 40
0
 41
0
  0
VERTEX
  8
0
 10
99.6964
 20
73.6032
 30
0.0
 40
0
 41
0
  0
VERTEX
  8
0
 10
99.7021
 20
73.6181
 30
0.0
 40
0
 41
0
  0
VERTEX
  8
0
 10
99.7074
 20
73.6331
 30
0.0
 40
0
 41
0
  0
VERTEX
  8
0
 10
99.7125
 20
73.6482
 30
0.0
 40
0
 41
0
  0
VERTEX
  8
0
 10
99.7175
 20
73.6635
 30
0.0
 40
0
 41
0
  0
VERTEX
  8
0
 10
99.7224
 20
73.6788
 30
0.0
 40
0
 41
0
  0
VERTEX
  8
0
 10
99.7269
 20
73.6943
 30
0.0
 40
0
 41
0
  0
VERTEX
  8
0
 10
99.7312
 20
73.7099
 30
0.0
 40
0
 41
0
  0
VERTEX
  8
0
 10
99.7356
 20
73.7257
 30
0.0
 40
0
 41
0
  0
VERTEX
  8
0
 10
99.7396
 20
73.7415
 30
0.0
 40
0
 41
0
  0
VERTEX
  8
0
 10
99.7433
 20
73.7575
 30
0.0
 40
0
 41
0
  0
VERTEX
  8
0
 10
99.7469
 20
73.7735
 30
0.0
 40
0
 41
0
  0
VERTEX
  8
0
 10
99.7506
 20
73.7894
 30
0.0
 40
0
 41
0
  0
VERTEX
  8
0
 10
99.7539
 20
73.8053
 30
0.0
 40
0
 41
0
  0
VERTEX
  8
0
 10
99.7569
 20
73.8212
 30
0.0
 40
0
 41
0
  0
VERTEX
  8
0
 10
99.76
 20
73.8372
 30
0.0
 40
0
 41
0
  0
VERTEX
  8
0
 10
99.7629
 20
73.8532
 30
0.0
 40
0
 41
0
  0
VERTEX
  8
0
 10
99.7656
 20
73.8692
 30
0.0
 40
0
 41
0
  0
VERTEX
  8
0
 10
99.7681
 20
73.8851
 30
0.0
 40
0
 41
0
  0
VERTEX
  8
0
 10
99.7704
 20
73.901
 30
0.0
 40
0
 41
0
  0
VERTEX
  8
0
 10
99.7724
 20
73.9172
 30
0.0
 40
0
 41
0
  0
VERTEX
  8
0
 10
99.7739
 20
73.9331
 30
0.0
 40
0
 41
0
  0
VERTEX
  8
0
 10
99.7754
 20
73.9488
 30
0.0
 40
0
 41
0
  0
VERTEX
  8
0
 10
99.7767
 20
73.964
 30
0.0
 40
0
 41
0
  0
VERTEX
  8
0
 10
99.7778
 20
73.9792
 30
0.0
 40
0
 41
0
  0
VERTEX
  8
0
 10
99.7786
 20
73.994
 30
0.0
 40
0
 41
0
  0
VERTEX
  8
0
 10
99.7793
 20
74.0086
 30
0.0
 40
0
 41
0
  0
VERTEX
  8
0
 10
99.7799
 20
74.0229
 30
0.0
 40
0
 41
0
  0
VERTEX
  8
0
 10
99.7801
 20
74.0369
 30
0.0
 40
0
 41
0
  0
VERTEX
  8
0
 10
99.7801
 20
74.0508
 30
0.0
 40
0
 41
0
  0
VERTEX
  8
0
 10
99.7799
 20
74.0763
 30
0.0
 40
0
 41
0
  0
VERTEX
  8
0
 10
99.779
 20
74.1011
 30
0.0
 40
0
 41
0
  0
VERTEX
  8
0
 10
99.7775
 20
74.1254
 30
0.0
 40
0
 41
0
  0
VERTEX
  8
0
 10
99.7756
 20
74.1492
 30
0.0
 40
0
 41
0
  0
VERTEX
  8
0
 10
99.7729
 20
74.1725
 30
0.0
 40
0
 41
0
  0
VERTEX
  8
0
 10
99.7697
 20
74.1951
 30
0.0
 40
0
 41
0
  0
VERTEX
  8
0
 10
99.7658
 20
74.2172
 30
0.0
 40
0
 41
0
  0
VERTEX
  8
0
 10
99.7614
 20
74.2387
 30
0.0
 40
0
 41
0
  0
VERTEX
  8
0
 10
99.7565
 20
74.2599
 30
0.0
 40
0
 41
0
  0
VERTEX
  8
0
 10
99.751
 20
74.2803
 30
0.0
 40
0
 41
0
  0
VERTEX
  8
0
 10
99.7444
 20
74.3001
 30
0.0
 40
0
 41
0
  0
VERTEX
  8
0
 10
99.7372
 20
74.3194
 30
0.0
 40
0
 41
0
  0
VERTEX
  8
0
 10
99.7294
 20
74.3381
 30
0.0
 40
0
 41
0
  0
VERTEX
  8
0
 10
99.721
 20
74.3561
 30
0.0
 40
0
 41
0
  0
VERTEX
  8
0
 10
99.7118
 20
74.3735
 30
0.0
 40
0
 41
0
  0
VERTEX
  8
0
 10
99.7021
 20
74.3903
 30
0.0
 40
0
 41
0
  0
VERTEX
  8
0
 10
99.6917
 20
74.4064
 30
0.0
 40
0
 41
0
  0
VERTEX
  8
0
 10
99.6806
 20
74.4219
 30
0.0
 40
0
 41
0
  0
VERTEX
  8
0
 10
99.6689
 20
74.4368
 30
0.0
 40
0
 41
0
  0
VERTEX
  8
0
 10
99.6565
 20
74.4511
 30
0.0
 40
0
 41
0
  0
VERTEX
  8
0
 10
99.6435
 20
74.4649
 30
0.0
 40
0
 41
0
  0
VERTEX
  8
0
 10
99.6299
 20
74.4779
 30
0.0
 40
0
 41
0
  0
VERTEX
  8
0
 10
99.6156
 20
74.4903
 30
0.0
 40
0
 41
0
  0
VERTEX
  8
0
 10
99.6006
 20
74.5019
 30
0.0
 40
0
 41
0
  0
VERTEX
  8
0
 10
99.5849
 20
74.5131
 30
0.0
 40
0
 41
0
  0
VERTEX
  8
0
 10
99.5686
 20
74.5235
 30
0.0
 40
0
 41
0
  0
VERTEX
  8
0
 10
99.5517
 20
74.5332
 30
0.0
 40
0
 41
0
  0
VERTEX
  8
0
 10
99.5342
 20
74.5424
 30
0.0
 40
0
 41
0
  0
VERTEX
  8
0
 10
99.5158
 20
74.5508
 30
0.0
 40
0
 41
0
  0
VERTEX
  8
0
 10
99.4969
 20
74.5586
 30
0.0
 40
0
 41
0
  0
VERTEX
  8
0
 10
99.4775
 20
74.5657
 30
0.0
 40
0
 41
0
  0
VERTEX
  8
0
 10
99.4572
 20
74.5721
 30
0.0
 40
0
 41
0
  0
VERTEX
  8
0
 10
99.4361
 20
74.5776
 30
0.0
 40
0
 41
0
  0
VERTEX
  8
0
 10
99.4144
 20
74.5825
 30
0.0
 40
0
 41
0
  0
VERTEX
  8
0
 10
99.3921
 20
74.5867
 30
0.0
 40
0
 41
0
  0
VERTEX
  8
0
 10
99.3689
 20
74.59
 30
0.0
 40
0
 41
0
  0
VERTEX
  8
0
 10
99.345
 20
74.5926
 30
0.0
 40
0
 41
0
  0
VERTEX
  8
0
 10
99.3204
 20
74.5946
 30
0.0
 40
0
 41
0
  0
VERTEX
  8
0
 10
99.2951
 20
74.5957
 30
0.0
 40
0
 41
0
  0
VERTEX
  8
0
 10
99.2692
 20
74.596
 30
0.0
 40
0
 41
0
  0
VERTEX
  8
0
 10
99.2237
 20
74.5946
 30
0.0
 40
0
 41
0
  0
VERTEX
  8
0
 10
99.1804
 20
74.5903
 30
0.0
 40
0
 41
0
  0
VERTEX
  8
0
 10
99.1394
 20
74.5832
 30
0.0
 40
0
 41
0
  0
VERTEX
  8
0
 10
99.1007
 20
74.5731
 30
0.0
 40
0
 41
0
  0
VERTEX
  8
0
 10
99.064
 20
74.5603
 30
0.0
 40
0
 41
0
  0
VERTEX
  8
0
 10
99.0297
 20
74.5444
 30
0.0
 40
0
 41
0
  0
VERTEX
  8
0
 10
98.9975
 20
74.5258
 30
0.0
 40
0
 41
0
  0
VERTEX
  8
0
 10
98.9676
 20
74.5043
 30
0.0
 40
0
 41
0
  0
VERTEX
  8
0
 10
98.9399
 20
74.48
 30
0.0
 40
0
 41
0
  0
VERTEX
  8
0
 10
98.9143
 20
74.4528
 30
0.0
 40
0
 41
0
  0
VERTEX
  8
0
 10
98.8908
 20
74.4228
 30
0.0
 40
0
 41
0
  0
VERTEX
  8
0
 10
98.8697
 20
74.3903
 30
0.0
 40
0
 41
0
  0
VERTEX
  8
0
 10
98.8513
 20
74.3551
 30
0.0
 40
0
 41
0
  0
VERTEX
  8
0
 10
98.8351
 20
74.3174
 30
0.0
 40
0
 41
0
  0
VERTEX
  8
0
 10
98.8215
 20
74.2769
 30
0.0
 40
0
 41
0
  0
VERTEX
  8
0
 10
98.8104
 20
74.234
 30
0.0
 40
0
 41
0
  0
VERTEX
  8
0
 10
98.8018
 20
74.1885
 30
0.0
 40
0
 41
0
  0
VERTEX
  8
0
 10
98.7956
 20
74.1403
 30
0.0
 40
0
 41
0
  0
VERTEX
  8
0
 10
98.7918
 20
74.0894
 30
0.0
 40
0
 41
0
  0
VERTEX
  8
0
 10
98.7906
 20
74.0361
 30
0.0
 40
0
 41
0
  0
VERTEX
  8
0
 10
98.7907
 20
74.0272
 30
0.0
 40
0
 41
0
  0
VERTEX
  8
0
 10
98.7908
 20
74.0182
 30
0.0
 40
0
 41
0
  0
VERTEX
  8
0
 10
98.7911
 20
74.009
 30
0.0
 40
0
 41
0
  0
VERTEX
  8
0
 10
98.7914
 20
73.9997
 30
0.0
 40
0
 41
0
  0
VERTEX
  8
0
 10
98.7918
 20
73.9901
 30
0.0
 40
0
 41
0
  0
VERTEX
  8
0
 10
98.7924
 20
73.9804
 30
0.0
 40
0
 41
0
  0
VERTEX
  8
0
 10
98.7931
 20
73.9706
 30
0.0
 40
0
 41
0
  0
VERTEX
  8
0
 10
98.7937
 20
73.9606
 30
0.0
 40
0
 41
0
  0
VERTEX
  8
0
 10
98.7946
 20
73.9504
 30
0.0
 40
0
 41
0
  0
VERTEX
  8
0
 10
98.7956
 20
73.9401
 30
0.0
 40
0
 41
0
  0
VERTEX
  8
0
 10
98.7963
 20
73.93
 30
0.0
 40
0
 41
0
  0
VERTEX
  8
0
 10
98.7969
 20
73.9199
 30
0.0
 40
0
 41
0
  0
VERTEX
  8
0
 10
98.7978
 20
73.9097
 30
0.0
 40
0
 41
0
  0
VERTEX
  8
0
 10
98.7986
 20
73.8994
 30
0.0
 40
0
 41
0
  0
VERTEX
  8
0
 10
98.7996
 20
73.8892
 30
0.0
 40
0
 41
0
  0
VERTEX
  8
0
 10
98.8006
 20
73.879
 30
0.0
 40
0
 41
0
  0
VERTEX
  8
0
 10
98.8017
 20
73.8686
 30
0.0
 40
0
 41
0
  0
VERTEX
  8
0
 10
98.8028
 20
73.8583
 30
0.0
 40
0
 41
0
  0
VERTEX
  8
0
 10
98.8053
 20
73.8375
 30
0.0
 40
0
 41
0
  0
VERTEX
  8
0
 10
98.8065
 20
73.8275
 30
0.0
 40
0
 41
0
  0
VERTEX
  8
0
 10
98.8079
 20
73.8175
 30
0.0
 40
0
 41
0
  0
VERTEX
  8
0
 10
98.8093
 20
73.8076
 30
0.0
 40
0
 41
0
  0
VERTEX
  8
0
 10
98.8107
 20
73.7978
 30
0.0
 40
0
 41
0
  0
VERTEX
  8
0
 10
98.8122
 20
73.7879
 30
0.0
 40
0
 41
0
  0
VERTEX
  8
0
 10
98.8136
 20
73.7782
 30
0.0
 40
0
 41
0
  0
VERTEX
  8
0
 10
98.8151
 20
73.7685
 30
0.0
 40
0
 41
0
  0
VERTEX
  8
0
 10
98.8167
 20
73.7589
 30
0.0
 40
0
 41
0
  0
VERTEX
  8
0
 10
98.8183
 20
73.7493
 30
0.0
 40
0
 41
0
  0
VERTEX
  8
0
 10
98.8199
 20
73.7399
 30
0.0
 40
0
 41
0
  0
VERTEX
  8
0
 10
98.8212
 20
73.7308
 30
0.0
 40
0
 41
0
  0
VERTEX
  8
0
 10
98.8225
 20
73.7221
 30
0.0
 40
0
 41
0
  0
VERTEX
  8
0
 10
98.8239
 20
73.7136
 30
0.0
 40
0
 41
0
  0
VERTEX
  8
0
 10
98.8251
 20
73.7053
 30
0.0
 40
0
 41
0
  0
VERTEX
  8
0
 10
98.8264
 20
73.6972
 30
0.0
 40
0
 41
0
  0
VERTEX
  8
0
 10
98.8278
 20
73.6893
 30
0.0
 40
0
 41
0
  0
VERTEX
  8
0
 10
98.829
 20
73.6817
 30
0.0
 40
0
 41
0
  0
VERTEX
  8
0
 10
98.8303
 20
73.6743
 30
0.0
 40
0
 41
0
  0
VERTEX
  8
0
 10
98.8317
 20
73.6671
 30
0.0
 40
0
 41
0
  0
VERTEX
  8
0
 10
98.8329
 20
73.6601
 30
0.0
 40
0
 41
0
  0
VERTEX
  8
0
 10
98.7401
 20
73.5136
 30
0.0
 40
0
 41
0
  0
VERTEX
  8
0
 10
97.6204
 20
73.6032
 30
0.0
 40
0
 41
0
  0
VERTEX
  8
0
 10
97.6204
 20
74.7263
 30
0.0
 40
0
 41
0
  0
VERTEX
  8
0
 10
97.8906
 20
74.7263
 30
0.0
 40
0
 41
0
  0
VERTEX
  8
0
 10
97.8906
 20
73.8603
 30
0.0
 40
0
 41
0
  0
VERTEX
  8
0
 10
98.5725
 20
73.7968
 30
0.0
 40
0
 41
0
  0
VERTEX
  8
0
 10
98.5706
 20
73.8076
 30
0.0
 40
0
 41
0
  0
VERTEX
  8
0
 10
98.5686
 20
73.819
 30
0.0
 40
0
 41
0
  0
VERTEX
  8
0
 10
98.5665
 20
73.8311
 30
0.0
 40
0
 41
0
  0
VERTEX
  8
0
 10
98.5644
 20
73.8438
 30
0.0
 40
0
 41
0
  0
VERTEX
  8
0
 10
98.5624
 20
73.8571
 30
0.0
 40
0
 41
0
  0
VERTEX
  8
0
 10
98.5603
 20
73.8711
 30
0.0
 40
0
 41
0
  0
VERTEX
  8
0
 10
98.5581
 20
73.8857
 30
0.0
 40
0
 41
0
  0
VERTEX
  8
0
 10
98.5558
 20
73.901
 30
0.0
 40
0
 41
0
  0
VERTEX
  8
0
 10
98.5536
 20
73.9169
 30
0.0
 40
0
 41
0
  0
VERTEX
  8
0
 10
98.5514
 20
73.9336
 30
0.0
 40
0
 41
0
  0
VERTEX
  8
0
 10
98.5492
 20
73.9511
 30
0.0
 40
0
 41
0
  0
VERTEX
  8
0
 10
98.5472
 20
73.9693
 30
0.0
 40
0
 41
0
  0
VERTEX
  8
0
 10
98.5456
 20
73.9882
 30
0.0
 40
0
 41
0
  0
VERTEX
  8
0
 10
98.544
 20
74.0075
 30
0.0
 40
0
 41
0
  0
VERTEX
  8
0
 10
98.5428
 20
74.0276
 30
0.0
 40
0
 41
0
  0
VERTEX
  8
0
 10
98.5418
 20
74.0482
 30
0.0
 40
0
 41
0
  0
VERTEX
  8
0
 10
98.541
 20
74.0694
 30
0.0
 40
0
 41
0
  0
VERTEX
  8
0
 10
98.5404
 20
74.0914
 30
0.0
 40
0
 41
0
  0
VERTEX
  8
0
 10
98.5401
 20
74.1139
 30
0.0
 40
0
 41
0
  0
VERTEX
  8
0
 10
98.54
 20
74.1371
 30
0.0
 40
0
 41
0
  0
SEQEND
 8
0
  0
POLYLINE
  8
0
 62
     0
 66
     1
 10
0
 20
0
 30
0.0
 70
     1
 40
0
 41
0
  0
VERTEX
  8
0
 10
100.299
 20
76.4629
 30
0.0
 40
0
 41
0
  0
VERTEX
  8
0
 10
100.527
 20
76.4629
 30
0.0
 40
0
 41
0
  0
VERTEX
  8
0
 10
100.527
 20
75.0794
 30
0.0
 40
0
 41
0
  0
VERTEX
  8
0
 10
100.299
 20
75.0794
 30
0.0
 40
0
 41
0
  0
VERTEX
  8
0
 10
100.299
 20
76.4629
 30
0.0
 40
0
 41
0
  0
SEQEND
 8
0
  0
POLYLINE
  8
0
 62
     0
 66
     1
 10
0
 20
0
 30
0.0
 70
     1
 40
0
 41
0
  0
VERTEX
  8
0
 10
98.54
 20
77.3435
 30
0.0
 40
0
 41
0
  0
VERTEX
  8
0
 10
98.5404
 20
77.3754
 30
0.0
 40
0
 41
0
  0
VERTEX
  8
0
 10
98.5418
 20
77.4069
 30
0.0
 40
0
 41
0
  0
VERTEX
  8
0
 10
98.544
 20
77.4381
 30
0.0
 40
0
 41
0
  0
VERTEX
  8
0
 10
98.5472
 20
77.4686
 30
0.0
 40
0
 41
0
  0
VERTEX
  8
0
 10
98.5514
 20
77.4989
 30
0.0
 40
0
 41
0
  0
VERTEX
  8
0
 10
98.5564
 20
77.5286
 30
0.0
 40
0
 41
0
  0
VERTEX
  8
0
 10
98.5624
 20
77.5578
 30
0.0
 40
0
 41
0
  0
VERTEX
  8
0
 10
98.5692
 20
77.5867
 30
0.0
 40
0
 41
0
  0
VERTEX
  8
0
 10
98.5769
 20
77.615
 30
0.0
 40
0
 41
0
  0
VERTEX
  8
0
 10
98.5856
 20
77.6429
 30
0.0
 40
0
 41
0
  0
VERTEX
  8
0
 10
98.5947
 20
77.6706
 30
0.0
 40
0
 41
0
  0
VERTEX
  8
0
 10
98.6049
 20
77.6974
 30
0.0
 40
0
 41
0
  0
VERTEX
  8
0
 10
98.6158
 20
77.7235
 30
0.0
 40
0
 41
0
  0
VERTEX
  8
0
 10
98.6278
 20
77.7489
 30
0.0
 40
0
 41
0
  0
VERTEX
  8
0
 10
98.6404
 20
77.7735
 30
0.0
 40
0
 41
0
  0
VERTEX
  8
0
 10
98.6542
 20
77.7974
 30
0.0
 40
0
 41
0
  0
VERTEX
  8
0
 10
98.6686
 20
77.8206
 30
0.0
 40
0
 41
0
  0
VERTEX
  8
0
 10
98.684
 20
77.8429
 30
0.0
 40
0
 41
0
  0
VERTEX
  8
0
 10
98.7003
 20
77.8646
 30
0.0
 40
0
 41
0
  0
VERTEX
  8
0
 10
98.7174
 20
77.8854
 30
0.0
 40
0
 41
0
  0
VERTEX
  8
0
 10
98.7354
 20
77.9058
 30
0.0
 40
0
 41
0
  0
VERTEX
  8
0
 10
98.7542
 20
77.9253
 30
0.0
 40
0
 41
0
  0
VERTEX
  8
0
 10
98.7739
 20
77.9438
 30
0.0
 40
0
 41
0
  0
VERTEX
  8
0
 10
98.7944
 20
77.9614
 30
0.0
 40
0
 41
0
  0
VERTEX
  8
0
 10
98.8158
 20
77.9782
 30
0.0
 40
0
 41
0
  0
VERTEX
  8
0
 10
98.8381
 20
77.994
 30
0.0
 40
0
 41
0
  0
VERTEX
  8
0
 10
98.8611
 20
78.0089
 30
0.0
 40
0
 41
0
  0
VERTEX
  8
0
 10
98.8851
 20
78.0229
 30
0.0
 40
0
 41
0
  0
VERTEX
  8
0
 10
98.9099
 20
78.036
 30
0.0
 40
0
 41
0
  0
VERTEX
  8
0
 10
98.9354
 20
78.0482
 30
0.0
 40
0
 41
0
  0
VERTEX
  8
0
 10
98.9619
 20
78.0593
 30
0.0
 40
0
 41
0
  0
VERTEX
  8
0
 10
98.9892
 20
78.0693
 30
0.0
 40
0
 41
0
  0
VERTEX
  8
0
 10
99.0172
 20
78.0781
 30
0.0
 40
0
 41
0
  0
VERTEX
  8
0
 10
99.0461
 20
78.0857
 30
0.0
 40
0
 41
0
  0
VERTEX
  8
0
 10
99.0758
 20
78.0921
 30
0.0
 40
0
 41
0
  0
VERTEX
  8
0
 10
99.1064
 20
78.0974
 30
0.0
 40
0
 41
0
  0
VERTEX
  8
0
 10
99.1376
 20
78.1015
 30
0.0
 40
0
 41
0
  0
VERTEX
  8
0
 10
99.1699
 20
78.1044
 30
0.0
 40
0
 41
0
  0
VERTEX
  8
0
 10
99.2028
 20
78.1061
 30
0.0
 40
0
 41
0
  0
VERTEX
  8
0
 10
99.2365
 20
78.1068
 30
0.0
 40
0
 41
0
  0
VERTEX
  8
0
 10
99.2733
 20
78.1062
 30
0.0
 40
0
 41
0
  0
VERTEX
  8
0
 10
99.3093
 20
78.1046
 30
0.0
 40
0
 41
0
  0
VERTEX
  8
0
 10
99.3446
 20
78.1018
 30
0.0
 40
0
 41
0
  0
VERTEX
  8
0
 10
99.379
 20
78.0979
 30
0.0
 40
0
 41
0
  0
VERTEX
  8
0
 10
99.4128
 20
78.0929
 30
0.0
 40
0
 41
0
  0
VERTEX
  8
0
 10
99.4458
 20
78.0868
 30
0.0
 40
0
 41
0
  0
VERTEX
  8
0
 10
99.4781
 20
78.0796
 30
0.0
 40
0
 41
0
  0
VERTEX
  8
0
 10
99.5094
 20
78.0714
 30
0.0
 40
0
 41
0
  0
VERTEX
  8
0
 10
99.5403
 20
78.0619
 30
0.0
 40
0
 41
0
  0
VERTEX
  8
0
 10
99.5703
 20
78.0514
 30
0.0
 40
0
 41
0
  0
VERTEX
  8
0
 10
99.5994
 20
78.0399
 30
0.0
 40
0
 41
0
  0
VERTEX
  8
0
 10
99.6276
 20
78.0271
 30
0.0
 40
0
 41
0
  0
VERTEX
  8
0
 10
99.655
 20
78.0133
 30
0.0
 40
0
 41
0
  0
VERTEX
  8
0
 10
99.6814
 20
77.9986
 30
0.0
 40
0
 41
0
  0
VERTEX
  8
0
 10
99.7069
 20
77.9826
 30
0.0
 40
0
 41
0
  0
VERTEX
  8
0
 10
99.7315
 20
77.9657
 30
0.0
 40
0
 41
0
  0
VERTEX
  8
0
 10
99.7553
 20
77.9476
 30
0.0
 40
0
 41
0
  0
VERTEX
  8
0
 10
99.7781
 20
77.9285
 30
0.0
 40
0
 41
0
  0
VERTEX
  8
0
 10
99.8
 20
77.9083
 30
0.0
 40
0
 41
0
  0
VERTEX
  8
0
 10
99.8208
 20
77.8871
 30
0.0
 40
0
 41
0
  0
VERTEX
  8
0
 10
99.841
 20
77.8647
 30
0.0
 40
0
 41
0
  0
VERTEX
  8
0
 10
99.86
 20
77.8414
 30
0.0
 40
0
 41
0
  0
VERTEX
  8
0
 10
99.8782
 20
77.8169
 30
0.0
 40
0
 41
0
  0
VERTEX
  8
0
 10
99.8954
 20
77.7915
 30
0.0
 40
0
 41
0
  0
VERTEX
  8
0
 10
99.9117
 20
77.765
 30
0.0
 40
0
 41
0
  0
VERTEX
  8
0
 10
99.9269
 20
77.7374
 30
0.0
 40
0
 41
0
  0
VERTEX
  8
0
 10
99.9414
 20
77.7089
 30
0.0
 40
0
 41
0
  0
VERTEX
  8
0
 10
99.9547
 20
77.6792
 30
0.0
 40
0
 41
0
  0
VERTEX
  8
0
 10
99.9672
 20
77.6486
 30
0.0
 40
0
 41
0
  0
VERTEX
  8
0
 10
99.9788
 20
77.6168
 30
0.0
 40
0
 41
0
  0
VERTEX
  8
0
 10
99.989
 20
77.5844
 30
0.0
 40
0
 41
0
  0
VERTEX
  8
0
 10
99.9981
 20
77.5511
 30
0.0
 40
0
 41
0
  0
VERTEX
  8
0
 10
100.006
 20
77.5168
 30
0.0
 40
0
 41
0
  0
VERTEX
  8
0
 10
100.013
 20
77.4814
 30
0.0
 40
0
 41
0
  0
VERTEX
  8
0
 10
100.019
 20
77.4451
 30
0.0
 40
0
 41
0
  0
VERTEX
  8
0
 10
100.024
 20
77.4079
 30
0.0
 40
0
 41
0
  0
VERTEX
  8
0
 10
100.028
 20
77.3696
 30
0.0
 40
0
 41
0
  0
VERTEX
  8
0
 10
100.03
 20
77.3304
 30
0.0
 40
0
 41
0
  0
VERTEX
  8
0
 10
100.032
 20
77.2901
 30
0.0
 40
0
 41
0
  0
VERTEX
  8
0
 10
100.032
 20
77.249
 30
0.0
 40
0
 41
0
  0
VERTEX
  8
0
 10
100.032
 20
77.2325
 30
0.0
 40
0
 41
0
  0
VERTEX
  8
0
 10
100.032
 20
77.2158
 30
0.0
 40
0
 41
0
  0
VERTEX
  8
0
 10
100.032
 20
77.1993
 30
0.0
 40
0
 41
0
  0
VERTEX
  8
0
 10
100.031
 20
77.1829
 30
0.0
 40
0
 41
0
  0
VERTEX
  8
0
 10
100.03
 20
77.1664
 30
0.0
 40
0
 41
0
  0
VERTEX
  8
0
 10
100.03
 20
77.15
 30
0.0
 40
0
 41
0
  0
VERTEX
  8
0
 10
100.028
 20
77.1336
 30
0.0
 40
0
 41
0
  0
VERTEX
  8
0
 10
100.027
 20
77.1172
 30
0.0
 40
0
 41
0
  0
VERTEX
  8
0
 10
100.026
 20
77.101
 30
0.0
 40
0
 41
0
  0
VERTEX
  8
0
 10
100.024
 20
77.0846
 30
0.0
 40
0
 41
0
  0
VERTEX
  8
0
 10
100.023
 20
77.0688
 30
0.0
 40
0
 41
0
  0
VERTEX
  8
0
 10
100.021
 20
77.0529
 30
0.0
 40
0
 41
0
  0
VERTEX
  8
0
 10
100.019
 20
77.0372
 30
0.0
 40
0
 41
0
  0
VERTEX
  8
0
 10
100.017
 20
77.0217
 30
0.0
 40
0
 41
0
  0
VERTEX
  8
0
 10
100.014
 20
77.0061
 30
0.0
 40
0
 41
0
  0
VERTEX
  8
0
 10
100.012
 20
76.9907
 30
0.0
 40
0
 41
0
  0
VERTEX
  8
0
 10
100.009
 20
76.9754
 30
0.0
 40
0
 41
0
  0
VERTEX
  8
0
 10
100.006
 20
76.9601
 30
0.0
 40
0
 41
0
  0
VERTEX
  8
0
 10
100.003
 20
76.945
 30
0.0
 40
0
 41
0
  0
VERTEX
  8
0
 10
100
 20
76.93
 30
0.0
 40
0
 41
0
  0
VERTEX
  8
0
 10
99.9969
 20
76.9154
 30
0.0
 40
0
 41
0
  0
VERTEX
  8
0
 10
99.9937
 20
76.901
 30
0.0
 40
0
 41
0
  0
VERTEX
  8
0
 10
99.9903
 20
76.8867
 30
0.0
 40
0
 41
0
  0
VERTEX
  8
0
 10
99.9867
 20
76.8725
 30
0.0
 40
0
 41
0
  0
VERTEX
  8
0
 10
99.9828
 20
76.8583
 30
0.0
 40
0
 41
0
  0
VERTEX
  8
0
 10
99.9789
 20
76.8444
 30
0.0
 40
0
 41
0
  0
VERTEX
  8
0
 10
99.9746
 20
76.8307
 30
0.0
 40
0
 41
0
  0
VERTEX
  8
0
 10
99.9703
 20
76.8169
 30
0.0
 40
0
 41
0
  0
VERTEX
  8
0
 10
99.9657
 20
76.8035
 30
0.0
 40
0
 41
0
  0
VERTEX
  8
0
 10
99.9608
 20
76.79
 30
0.0
 40
0
 41
0
  0
VERTEX
  8
0
 10
99.956
 20
76.7768
 30
0.0
 40
0
 41
0
  0
VERTEX
  8
0
 10
99.9508
 20
76.7639
 30
0.0
 40
0
 41
0
  0
VERTEX
  8
0
 10
99.9456
 20
76.7511
 30
0.0
 40
0
 41
0
  0
VERTEX
  8
0
 10
99.94
 20
76.7387
 30
0.0
 40
0
 41
0
  0
VERTEX
  8
0
 10
99.9344
 20
76.7265
 30
0.0
 40
0
 41
0
  0
VERTEX
  8
0
 10
99.9286
 20
76.7146
 30
0.0
 40
0
 41
0
  0
VERTEX
  8
0
 10
99.9226
 20
76.7031
 30
0.0
 40
0
 41
0
  0
VERTEX
  8
0
 10
99.9167
 20
76.6915
 30
0.0
 40
0
 41
0
  0
VERTEX
  8
0
 10
99.9103
 20
76.6804
 30
0.0
 40
0
 41
0
  0
VERTEX
  8
0
 10
99.9039
 20
76.6696
 30
0.0
 40
0
 41
0
  0
VERTEX
  8
0
 10
99.6239
 20
76.6696
 30
0.0
 40
0
 41
0
  0
VERTEX
  8
0
 10
99.6314
 20
76.6806
 30
0.0
 40
0
 41
0
  0
VERTEX
  8
0
 10
99.6386
 20
76.6918
 30
0.0
 40
0
 41
0
  0
VERTEX
  8
0
 10
99.6457
 20
76.7035
 30
0.0
 40
0
 41
0
  0
VERTEX
  8
0
 10
99.6526
 20
76.7154
 30
0.0
 40
0
 41
0
  0
VERTEX
  8
0
 10
99.6593
 20
76.7278
 30
0.0
 40
0
 41
0
  0
VERTEX
  8
0
 10
99.666
 20
76.7406
 30
0.0
 40
0
 41
0
  0
VERTEX
  8
0
 10
99.6724
 20
76.7536
 30
0.0
 40
0
 41
0
  0
VERTEX
  8
0
 10
99.6786
 20
76.7669
 30
0.0
 40
0
 41
0
  0
VERTEX
  8
0
 10
99.6847
 20
76.7808
 30
0.0
 40
0
 41
0
  0
VERTEX
  8
0
 10
99.6907
 20
76.7949
 30
0.0
 40
0
 41
0
  0
VERTEX
  8
0
 10
99.6964
 20
76.8096
 30
0.0
 40
0
 41
0
  0
VERTEX
  8
0
 10
99.7021
 20
76.8244
 30
0.0
 40
0
 41
0
  0
VERTEX
  8
0
 10
99.7074
 20
76.8394
 30
0.0
 40
0
 41
0
  0
VERTEX
  8
0
 10
99.7125
 20
76.8546
 30
0.0
 40
0
 41
0
  0
VERTEX
  8
0
 10
99.7175
 20
76.8697
 30
0.0
 40
0
 41
0
  0
VERTEX
  8
0
 10
99.7224
 20
76.8851
 30
0.0
 40
0
 41
0
  0
VERTEX
  8
0
 10
99.7269
 20
76.9007
 30
0.0
 40
0
 41
0
  0
VERTEX
  8
0
 10
99.7312
 20
76.9163
 30
0.0
 40
0
 41
0
  0
VERTEX
  8
0
 10
99.7356
 20
76.9321
 30
0.0
 40
0
 41
0
  0
VERTEX
  8
0
 10
99.7396
 20
76.9479
 30
0.0
 40
0
 41
0
  0
VERTEX
  8
0
 10
99.7433
 20
76.9639
 30
0.0
 40
0
 41
0
  0
VERTEX
  8
0
 10
99.7469
 20
76.9799
 30
0.0
 40
0
 41
0
  0
VERTEX
  8
0
 10
99.7506
 20
76.9957
 30
0.0
 40
0
 41
0
  0
VERTEX
  8
0
 10
99.7539
 20
77.0117
 30
0.0
 40
0
 41
0
  0
VERTEX
  8
0
 10
99.7569
 20
77.0276
 30
0.0
 40
0
 41
0
  0
VERTEX
  8
0
 10
99.76
 20
77.0436
 30
0.0
 40
0
 41
0
  0
VERTEX
  8
0
 10
99.7629
 20
77.0596
 30
0.0
 40
0
 41
0
  0
VERTEX
  8
0
 10
99.7656
 20
77.0756
 30
0.0
 40
0
 41
0
  0
VERTEX
  8
0
 10
99.7681
 20
77.0915
 30
0.0
 40
0
 41
0
  0
VERTEX
  8
0
 10
99.7704
 20
77.1074
 30
0.0
 40
0
 41
0
  0
VERTEX
  8
0
 10
99.7724
 20
77.1236
 30
0.0
 40
0
 41
0
  0
VERTEX
  8
0
 10
99.7739
 20
77.1394
 30
0.0
 40
0
 41
0
  0
VERTEX
  8
0
 10
99.7754
 20
77.1551
 30
0.0
 40
0
 41
0
  0
VERTEX
  8
0
 10
99.7767
 20
77.1704
 30
0.0
 40
0
 41
0
  0
VERTEX
  8
0
 10
99.7778
 20
77.1856
 30
0.0
 40
0
 41
0
  0
VERTEX
  8
0
 10
99.7786
 20
77.2004
 30
0.0
 40
0
 41
0
  0
VERTEX
  8
0
 10
99.7793
 20
77.215
 30
0.0
 40
0
 41
0
  0
VERTEX
  8
0
 10
99.7799
 20
77.2293
 30
0.0
 40
0
 41
0
  0
VERTEX
  8
0
 10
99.7801
 20
77.2433
 30
0.0
 40
0
 41
0
  0
VERTEX
  8
0
 10
99.7801
 20
77.2572
 30
0.0
 40
0
 41
0
  0
VERTEX
  8
0
 10
99.7799
 20
77.2826
 30
0.0
 40
0
 41
0
  0
VERTEX
  8
0
 10
99.779
 20
77.3075
 30
0.0
 40
0
 41
0
  0
VERTEX
  8
0
 10
99.7775
 20
77.3318
 30
0.0
 40
0
 41
0
  0
VERTEX
  8
0
 10
99.7756
 20
77.3556
 30
0.0
 40
0
 41
0
  0
VERTEX
  8
0
 10
99.7729
 20
77.3788
 30
0.0
 40
0
 41
0
  0
VERTEX
  8
0
 10
99.7697
 20
77.4015
 30
0.0
 40
0
 41
0
  0
VERTEX
  8
0
 10
99.7658
 20
77.4236
 30
0.0
 40
0
 41
0
  0
VERTEX
  8
0
 10
99.7614
 20
77.4451
 30
0.0
 40
0
 41
0
  0
VERTEX
  8
0
 10
99.7565
 20
77.4662
 30
0.0
 40
0
 41
0
  0
VERTEX
  8
0
 10
99.751
 20
77.4867
 30
0.0
 40
0
 41
0
  0
VERTEX
  8
0
 10
99.7444
 20
77.5065
 30
0.0
 40
0
 41
0
  0
VERTEX
  8
0
 10
99.7372
 20
77.5258
 30
0.0
 40
0
 41
0
  0
VERTEX
  8
0
 10
99.7294
 20
77.5444
 30
0.0
 40
0
 41
0
  0
VERTEX
  8
0
 10
99.721
 20
77.5624
 30
0.0
 40
0
 41
0
  0
VERTEX
  8
0
 10
99.7118
 20
77.5799
 30
0.0
 40
0
 41
0
  0
VERTEX
  8
0
 10
99.7021
 20
77.5967
 30
0.0
 40
0
 41
0
  0
VERTEX
  8
0
 10
99.6917
 20
77.6128
 30
0.0
 40
0
 41
0
  0
VERTEX
  8
0
 10
99.6806
 20
77.6283
 30
0.0
 40
0
 41
0
  0
VERTEX
  8
0
 10
99.6689
 20
77.6432
 30
0.0
 40
0
 41
0
  0
VERTEX
  8
0
 10
99.6565
 20
77.6575
 30
0.0
 40
0
 41
0
  0
VERTEX
  8
0
 10
99.6435
 20
77.6713
 30
0.0
 40
0
 41
0
  0
VERTEX
  8
0
 10
99.6299
 20
77.6843
 30
0.0
 40
0
 41
0
  0
VERTEX
  8
0
 10
99.6156
 20
77.6967
 30
0.0
 40
0
 41
0
  0
VERTEX
  8
0
 10
99.6006
 20
77.7083
 30
0.0
 40
0
 41
0
  0
VERTEX
  8
0
 10
99.5849
 20
77.7194
 30
0.0
 40
0
 41
0
  0
VERTEX
  8
0
 10
99.5686
 20
77.7299
 30
0.0
 40
0
 41
0
  0
VERTEX
  8
0
 10
99.5517
 20
77.7396
 30
0.0
 40
0
 41
0
  0
VERTEX
  8
0
 10
99.5342
 20
77.7488
 30
0.0
 40
0
 41
0
  0
VERTEX
  8
0
 10
99.5158
 20
77.7572
 30
0.0
 40
0
 41
0
  0
VERTEX
  8
0
 10
99.4969
 20
77.765
 30
0.0
 40
0
 41
0
  0
VERTEX
  8
0
 10
99.4775
 20
77.7721
 30
0.0
 40
0
 41
0
  0
VERTEX
  8
0
 10
99.4572
 20
77.7785
 30
0.0
 40
0
 41
0
  0
VERTEX
  8
0
 10
99.4361
 20
77.784
 30
0.0
 40
0
 41
0
  0
VERTEX
  8
0
 10
99.4144
 20
77.7889
 30
0.0
 40
0
 41
0
  0
VERTEX
  8
0
 10
99.3921
 20
77.7931
 30
0.0
 40
0
 41
0
  0
VERTEX
  8
0
 10
99.3689
 20
77.7964
 30
0.0
 40
0
 41
0
  0
VERTEX
  8
0
 10
99.345
 20
77.799
 30
0.0
 40
0
 41
0
  0
VERTEX
  8
0
 10
99.3204
 20
77.801
 30
0.0
 40
0
 41
0
  0
VERTEX
  8
0
 10
99.2951
 20
77.8021
 30
0.0
 40
0
 41
0
  0
VERTEX
  8
0
 10
99.2692
 20
77.8024
 30
0.0
 40
0
 41
0
  0
VERTEX
  8
0
 10
99.2237
 20
77.801
 30
0.0
 40
0
 41
0
  0
VERTEX
  8
0
 10
99.1804
 20
77.7967
 30
0.0
 40
0
 41
0
  0
VERTEX
  8
0
 10
99.1394
 20
77.7894
 30
0.0
 40
0
 41
0
  0
VERTEX
  8
0
 10
99.1007
 20
77.7794
 30
0.0
 40
0
 41
0
  0
VERTEX
  8
0
 10
99.064
 20
77.7665
 30
0.0
 40
0
 41
0
  0
VERTEX
  8
0
 10
99.0297
 20
77.7508
 30
0.0
 40
0
 41
0
  0
VERTEX
  8
0
 10
98.9975
 20
77.7322
 30
0.0
 40
0
 41
0
  0
VERTEX
  8
0
 10
98.9676
 20
77.7107
 30
0.0
 40
0
 41
0
  0
VERTEX
  8
0
 10
98.9399
 20
77.6864
 30
0.0
 40
0
 41
0
  0
VERTEX
  8
0
 10
98.9143
 20
77.6592
 30
0.0
 40
0
 41
0
  0
VERTEX
  8
0
 10
98.8908
 20
77.6292
 30
0.0
 40
0
 41
0
  0
VERTEX
  8
0
 10
98.8697
 20
77.5967
 30
0.0
 40
0
 41
0
  0
VERTEX
  8
0
 10
98.8513
 20
77.5615
 30
0.0
 40
0
 41
0
  0
VERTEX
  8
0
 10
98.8351
 20
77.5238
 30
0.0
 40
0
 41
0
  0
VERTEX
  8
0
 10
98.8215
 20
77.4833
 30
0.0
 40
0
 41
0
  0
VERTEX
  8
0
 10
98.8104
 20
77.4404
 30
0.0
 40
0
 41
0
  0
VERTEX
  8
0
 10
98.8018
 20
77.3949
 30
0.0
 40
0
 41
0
  0
VERTEX
  8
0
 10
98.7956
 20
77.3467
 30
0.0
 40
0
 41
0
  0
VERTEX
  8
0
 10
98.7918
 20
77.2958
 30
0.0
 40
0
 41
0
  0
VERTEX
  8
0
 10
98.7906
 20
77.2425
 30
0.0
 40
0
 41
0
  0
VERTEX
  8
0
 10
98.7907
 20
77.2336
 30
0.0
 40
0
 41
0
  0
VERTEX
  8
0
 10
98.7908
 20
77.2246
 30
0.0
 40
0
 41
0
  0
VERTEX
  8
0
 10
98.7911
 20
77.2154
 30
0.0
 40
0
 41
0
  0
VERTEX
  8
0
 10
98.7914
 20
77.2061
 30
0.0
 40
0
 41
0
  0
VERTEX
  8
0
 10
98.7918
 20
77.1965
 30
0.0
 40
0
 41
0
  0
VERTEX
  8
0
 10
98.7924
 20
77.1868
 30
0.0
 40
0
 41
0
  0
VERTEX
  8
0
 10
98.7931
 20
77.1769
 30
0.0
 40
0
 41
0
  0
VERTEX
  8
0
 10
98.7937
 20
77.1669
 30
0.0
 40
0
 41
0
  0
VERTEX
  8
0
 10
98.7946
 20
77.1568
 30
0.0
 40
0
 41
0
  0
VERTEX
  8
0
 10
98.7956
 20
77.1465
 30
0.0
 40
0
 41
0
  0
VERTEX
  8
0
 10
98.7963
 20
77.1364
 30
0.0
 40
0
 41
0
  0
VERTEX
  8
0
 10
98.7969
 20
77.1262
 30
0.0
 40
0
 41
0
  0
VERTEX
  8
0
 10
98.7978
 20
77.1161
 30
0.0
 40
0
 41
0
  0
VERTEX
  8
0
 10
98.7986
 20
77.1058
 30
0.0
 40
0
 41
0
  0
VERTEX
  8
0
 10
98.7996
 20
77.0956
 30
0.0
 40
0
 41
0
  0
VERTEX
  8
0
 10
98.8006
 20
77.0853
 30
0.0
 40
0
 41
0
  0
VERTEX
  8
0
 10
98.8017
 20
77.075
 30
0.0
 40
0
 41
0
  0
VERTEX
  8
0
 10
98.8028
 20
77.0647
 30
0.0
 40
0
 41
0
  0
VERTEX
  8
0
 10
98.8053
 20
77.0439
 30
0.0
 40
0
 41
0
  0
VERTEX
  8
0
 10
98.8065
 20
77.0339
 30
0.0
 40
0
 41
0
  0
VERTEX
  8
0
 10
98.8079
 20
77.0239
 30
0.0
 40
0
 41
0
  0
VERTEX
  8
0
 10
98.8093
 20
77.0139
 30
0.0
 40
0
 41
0
  0
VERTEX
  8
0
 10
98.8107
 20
77.004
 30
0.0
 40
0
 41
0
  0
VERTEX
  8
0
 10
98.8122
 20
76.9943
 30
0.0
 40
0
 41
0
  0
VERTEX
  8
0
 10
98.8136
 20
76.9846
 30
0.0
 40
0
 41
0
  0
VERTEX
  8
0
 10
98.8151
 20
76.9749
 30
0.0
 40
0
 41
0
  0
VERTEX
  8
0
 10
98.8167
 20
76.9653
 30
0.0
 40
0
 41
0
  0
VERTEX
  8
0
 10
98.8183
 20
76.9557
 30
0.0
 40
0
 41
0
  0
VERTEX
  8
0
 10
98.8199
 20
76.9462
 30
0.0
 40
0
 41
0
  0
VERTEX
  8
0
 10
98.8212
 20
76.9372
 30
0.0
 40
0
 41
0
  0
VERTEX
  8
0
 10
98.8225
 20
76.9285
 30
0.0
 40
0
 41
0
  0
VERTEX
  8
0
 10
98.8239
 20
76.92
 30
0.0
 40
0
 41
0
  0
VERTEX
  8
0
 10
98.8251
 20
76.9117
 30
0.0
 40
0
 41
0
  0
VERTEX
  8
0
 10
98.8264
 20
76.9036
 30
0.0
 40
0
 41
0
  0
VERTEX
  8
0
 10
98.8278
 20
76.8957
 30
0.0
 40
0
 41
0
  0
VERTEX
  8
0
 10
98.829
 20
76.8881
 30
0.0
 40
0
 41
0
  0
VERTEX
  8
0
 10
98.8303
 20
76.8807
 30
0.0
 40
0
 41
0
  0
VERTEX
  8
0
 10
98.8317
 20
76.8735
 30
0.0
 40
0
 41
0
  0
VERTEX
  8
0
 10
98.8329
 20
76.8665
 30
0.0
 40
0
 41
0
  0
VERTEX
  8
0
 10
98.7401
 20
76.72
 30
0.0
 40
0
 41
0
  0
VERTEX
  8
0
 10
97.6204
 20
76.8096
 30
0.0
 40
0
 41
0
  0
VERTEX
  8
0
 10
97.6204
 20
77.9326
 30
0.0
 40
0
 41
0
  0
VERTEX
  8
0
 10
97.8906
 20
77.9326
 30
0.0
 40
0
 41
0
  0
VERTEX
  8
0
 10
97.8906
 20
77.0667
 30
0.0
 40
0
 41
0
  0
VERTEX
  8
0
 10
98.5725
 20
77.0032
 30
0.0
 40
0
 41
0
  0
VERTEX
  8
0
 10
98.5706
 20
77.014
 30
0.0
 40
0
 41
0
  0
VERTEX
  8
0
 10
98.5686
 20
77.0254
 30
0.0
 40
0
 41
0
  0
VERTEX
  8
0
 10
98.5665
 20
77.0374
 30
0.0
 40
0
 41
0
  0
VERTEX
  8
0
 10
98.5644
 20
77.0501
 30
0.0
 40
0
 41
0
  0
VERTEX
  8
0
 10
98.5624
 20
77.0635
 30
0.0
 40
0
 41
0
  0
VERTEX
  8
0
 10
98.5603
 20
77.0775
 30
0.0
 40
0
 41
0
  0
VERTEX
  8
0
 10
98.5581
 20
77.0921
 30
0.0
 40
0
 41
0
  0
VERTEX
  8
0
 10
98.5558
 20
77.1074
 30
0.0
 40
0
 41
0
  0
VERTEX
  8
0
 10
98.5536
 20
77.1233
 30
0.0
 40
0
 41
0
  0
VERTEX
  8
0
 10
98.5514
 20
77.14
 30
0.0
 40
0
 41
0
  0
VERTEX
  8
0
 10
98.5492
 20
77.1575
 30
0.0
 40
0
 41
0
  0
VERTEX
  8
0
 10
98.5472
 20
77.1757
 30
0.0
 40
0
 41
0
  0
VERTEX
  8
0
 10
98.5456
 20
77.1944
 30
0.0
 40
0
 41
0
  0
VERTEX
  8
0
 10
98.544
 20
77.2139
 30
0.0
 40
0
 41
0
  0
VERTEX
  8
0
 10
98.5428
 20
77.234
 30
0.0
 40
0
 41
0
  0
VERTEX
  8
0
 10
98.5418
 20
77.2546
 30
0.0
 40
0
 41
0
  0
VERTEX
  8
0
 10
98.541
 20
77.2758
 30
0.0
 40
0
 41
0
  0
VERTEX
  8
0
 10
98.5404
 20
77.2978
 30
0.0
 40
0
 41
0
  0
VERTEX
  8
0
 10
98.5401
 20
77.3203
 30
0.0
 40
0
 41
0
  0
VERTEX
  8
0
 10
98.54
 20
77.3435
 30
0.0
 40
0
 41
0
  0
SEQEND
 8
0
  0
POLYLINE
  8
0
 62
     0
 66
     1
 10
0
 20
0
 30
0.0
 70
     1
 40
0
 41
0
  0
VERTEX
  8
0
 10
100.299
 20
79.6693
 30
0.0
 40
0
 41
0
  0
VERTEX
  8
0
 10
100.527
 20
79.6693
 30
0.0
 40
0
 41
0
  0
VERTEX
  8
0
 10
100.527
 20
78.2858
 30
0.0
 40
0
 41
0
  0
VERTEX
  8
0
 10
100.299
 20
78.2858
 30
0.0
 40
0
 41
0
  0
VERTEX
  8
0
 10
100.299
 20
79.6693
 30
0.0
 40
0
 41
0
  0
SEQEND
 8
0
  0
POLYLINE
  8
0
 62
     0
 66
     1
 10
0
 20
0
 30
0.0
 70
     1
 40
0
 41
0
  0
VERTEX
  8
0
 10
98.54
 20
80.5499
 30
0.0
 40
0
 41
0
  0
VERTEX
  8
0
 10
98.5404
 20
80.5818
 30
0.0
 40
0
 41
0
  0
VERTEX
  8
0
 10
98.5418
 20
80.6133
 30
0.0
 40
0
 41
0
  0
VERTEX
  8
0
 10
98.544
 20
80.6444
 30
0.0
 40
0
 41
0
  0
VERTEX
  8
0
 10
98.5472
 20
80.675
 30
0.0
 40
0
 41
0
  0
VERTEX
  8
0
 10
98.5514
 20
80.7053
 30
0.0
 40
0
 41
0
  0
VERTEX
  8
0
 10
98.5564
 20
80.735
 30
0.0
 40
0
 41
0
  0
VERTEX
  8
0
 10
98.5624
 20
80.7642
 30
0.0
 40
0
 41
0
  0
VERTEX
  8
0
 10
98.5692
 20
80.7931
 30
0.0
 40
0
 41
0
  0
VERTEX
  8
0
 10
98.5769
 20
80.8214
 30
0.0
 40
0
 41
0
  0
VERTEX
  8
0
 10
98.5856
 20
80.8493
 30
0.0
 40
0
 41
0
  0
VERTEX
  8
0
 10
98.5947
 20
80.8769
 30
0.0
 40
0
 41
0
  0
VERTEX
  8
0
 10
98.6049
 20
80.9037
 30
0.0
 40
0
 41
0
  0
VERTEX
  8
0
 10
98.6158
 20
80.9299
 30
0.0
 40
0
 41
0
  0
VERTEX
  8
0
 10
98.6278
 20
80.9553
 30
0.0
 40
0
 41
0
  0
VERTEX
  8
0
 10
98.6404
 20
80.9799
 30
0.0
 40
0
 41
0
  0
VERTEX
  8
0
 10
98.6542
 20
81.0038
 30
0.0
 40
0
 41
0
  0
VERTEX
  8
0
 10
98.6686
 20
81.0269
 30
0.0
 40
0
 41
0
  0
VERTEX
  8
0
 10
98.684
 20
81.0493
 30
0.0
 40
0
 41
0
  0
VERTEX
  8
0
 10
98.7003
 20
81.071
 30
0.0
 40
0
 41
0
  0
VERTEX
  8
0
 10
98.7174
 20
81.0918
 30
0.0
 40
0
 41
0
  0
VERTEX
  8
0
 10
98.7354
 20
81.1122
 30
0.0
 40
0
 41
0
  0
VERTEX
  8
0
 10
98.7542
 20
81.1317
 30
0.0
 40
0
 41
0
  0
VERTEX
  8
0
 10
98.7739
 20
81.1501
 30
0.0
 40
0
 41
0
  0
VERTEX
  8
0
 10
98.7944
 20
81.1678
 30
0.0
 40
0
 41
0
  0
VERTEX
  8
0
 10
98.8158
 20
81.1846
 30
0.0
 40
0
 41
0
  0
VERTEX
  8
0
 10
98.8381
 20
81.2004
 30
0.0
 40
0
 41
0
  0
VERTEX
  8
0
 10
98.8611
 20
81.2153
 30
0.0
 40
0
 41
0
  0
VERTEX
  8
0
 10
98.8851
 20
81.2293
 30
0.0
 40
0
 41
0
  0
VERTEX
  8
0
 10
98.9099
 20
81.2424
 30
0.0
 40
0
 41
0
  0
VERTEX
  8
0
 10
98.9354
 20
81.2546
 30
0.0
 40
0
 41
0
  0
VERTEX
  8
0
 10
98.9619
 20
81.2657
 30
0.0
 40
0
 41
0
  0
VERTEX
  8
0
 10
98.9892
 20
81.2757
 30
0.0
 40
0
 41
0
  0
VERTEX
  8
0
 10
99.0172
 20
81.2844
 30
0.0
 40
0
 41
0
  0
VERTEX
  8
0
 10
99.0461
 20
81.2921
 30
0.0
 40
0
 41
0
  0
VERTEX
  8
0
 10
99.0758
 20
81.2985
 30
0.0
 40
0
 41
0
  0
VERTEX
  8
0
 10
99.1064
 20
81.3038
 30
0.0
 40
0
 41
0
  0
VERTEX
  8
0
 10
99.1376
 20
81.3079
 30
0.0
 40
0
 41
0
  0
VERTEX
  8
0
 10
99.1699
 20
81.3108
 30
0.0
 40
0
 41
0
  0
VERTEX
  8
0
 10
99.2028
 20
81.3125
 30
0.0
 40
0
 41
0
  0
VERTEX
  8
0
 10
99.2365
 20
81.3132
 30
0.0
 40
0
 41
0
  0
VERTEX
  8
0
 10
99.2733
 20
81.3126
 30
0.0
 40
0
 41
0
  0
VERTEX
  8
0
 10
99.3093
 20
81.311
 30
0.0
 40
0
 41
0
  0
VERTEX
  8
0
 10
99.3446
 20
81.3082
 30
0.0
 40
0
 41
0
  0
VERTEX
  8
0
 10
99.379
 20
81.3043
 30
0.0
 40
0
 41
0
  0
VERTEX
  8
0
 10
99.4128
 20
81.2993
 30
0.0
 40
0
 41
0
  0
VERTEX
  8
0
 10
99.4458
 20
81.2932
 30
0.0
 40
0
 41
0
  0
VERTEX
  8
0
 10
99.4781
 20
81.286
 30
0.0
 40
0
 41
0
  0
VERTEX
  8
0
 10
99.5094
 20
81.2778
 30
0.0
 40
0
 41
0
  0
VERTEX
  8
0
 10
99.5403
 20
81.2683
 30
0.0
 40
0
 41
0
  0
VERTEX
  8
0
 10
99.5703
 20
81.2578
 30
0.0
 40
0
 41
0
  0
VERTEX
  8
0
 10
99.5994
 20
81.2463
 30
0.0
 40
0
 41
0
  0
VERTEX
  8
0
 10
99.6276
 20
81.2335
 30
0.0
 40
0
 41
0
  0
VERTEX
  8
0
 10
99.655
 20
81.2197
 30
0.0
 40
0
 41
0
  0
VERTEX
  8
0
 10
99.6814
 20
81.205
 30
0.0
 40
0
 41
0
  0
VERTEX
  8
0
 10
99.7069
 20
81.189
 30
0.0
 40
0
 41
0
  0
VERTEX
  8
0
 10
99.7315
 20
81.1721
 30
0.0
 40
0
 41
0
  0
VERTEX
  8
0
 10
99.7553
 20
81.154
 30
0.0
 40
0
 41
0
  0
VERTEX
  8
0
 10
99.7781
 20
81.1349
 30
0.0
 40
0
 41
0
  0
VERTEX
  8
0
 10
99.8
 20
81.1147
 30
0.0
 40
0
 41
0
  0
VERTEX
  8
0
 10
99.8208
 20
81.0935
 30
0.0
 40
0
 41
0
  0
VERTEX
  8
0
 10
99.841
 20
81.0711
 30
0.0
 40
0
 41
0
  0
VERTEX
  8
0
 10
99.86
 20
81.0478
 30
0.0
 40
0
 41
0
  0
VERTEX
  8
0
 10
99.8782
 20
81.0233
 30
0.0
 40
0
 41
0
  0
VERTEX
  8
0
 10
99.8954
 20
80.9978
 30
0.0
 40
0
 41
0
  0
VERTEX
  8
0
 10
99.9117
 20
80.9714
 30
0.0
 40
0
 41
0
  0
VERTEX
  8
0
 10
99.9269
 20
80.9438
 30
0.0
 40
0
 41
0
  0
VERTEX
  8
0
 10
99.9414
 20
80.9153
 30
0.0
 40
0
 41
0
  0
VERTEX
  8
0
 10
99.9547
 20
80.8856
 30
0.0
 40
0
 41
0
  0
VERTEX
  8
0
 10
99.9672
 20
80.855
 30
0.0
 40
0
 41
0
  0
VERTEX
  8
0
 10
99.9788
 20
80.8232
 30
0.0
 40
0
 41
0
  0
VERTEX
  8
0
 10
99.989
 20
80.7908
 30
0.0
 40
0
 41
0
  0
VERTEX
  8
0
 10
99.9981
 20
80.7575
 30
0.0
 40
0
 41
0
  0
VERTEX
  8
0
 10
100.006
 20
80.7232
 30
0.0
 40
0
 41
0
  0
VERTEX
  8
0
 10
100.013
 20
80.6878
 30
0.0
 40
0
 41
0
  0
VERTEX
  8
0
 10
100.019
 20
80.6515
 30
0.0
 40
0
 41
0
  0
VERTEX
  8
0
 10
100.024
 20
80.6143
 30
0.0
 40
0
 41
0
  0
VERTEX
  8
0
 10
100.028
 20
80.576
 30
0.0
 40
0
 41
0
  0
VERTEX
  8
0
 10
100.03
 20
80.5368
 30
0.0
 40
0
 41
0
  0
VERTEX
  8
0
 10
100.032
 20
80.4965
 30
0.0
 40
0
 41
0
  0
VERTEX
  8
0
 10
100.032
 20
80.4554
 30
0.0
 40
0
 41
0
  0
VERTEX
  8
0
 10
100.032
 20
80.4387
 30
0.0
 40
0
 41
0
  0
VERTEX
  8
0
 10
100.032
 20
80.4222
 30
0.0
 40
0
 41
0
  0
VERTEX
  8
0
 10
100.032
 20
80.4057
 30
0.0
 40
0
 41
0
  0
VERTEX
  8
0
 10
100.031
 20
80.3893
 30
0.0
 40
0
 41
0
  0
VERTEX
  8
0
 10
100.03
 20
80.3728
 30
0.0
 40
0
 41
0
  0
VERTEX
  8
0
 10
100.03
 20
80.3564
 30
0.0
 40
0
 41
0
  0
VERTEX
  8
0
 10
100.028
 20
80.34
 30
0.0
 40
0
 41
0
  0
VERTEX
  8
0
 10
100.027
 20
80.3236
 30
0.0
 40
0
 41
0
  0
VERTEX
  8
0
 10
100.026
 20
80.3074
 30
0.0
 40
0
 41
0
  0
VERTEX
  8
0
 10
100.024
 20
80.291
 30
0.0
 40
0
 41
0
  0
VERTEX
  8
0
 10
100.023
 20
80.2751
 30
0.0
 40
0
 41
0
  0
VERTEX
  8
0
 10
100.021
 20
80.2593
 30
0.0
 40
0
 41
0
  0
VERTEX
  8
0
 10
100.019
 20
80.2436
 30
0.0
 40
0
 41
0
  0
VERTEX
  8
0
 10
100.017
 20
80.2281
 30
0.0
 40
0
 41
0
  0
VERTEX
  8
0
 10
100.014
 20
80.2125
 30
0.0
 40
0
 41
0
  0
VERTEX
  8
0
 10
100.012
 20
80.1971
 30
0.0
 40
0
 41
0
  0
VERTEX
  8
0
 10
100.009
 20
80.1818
 30
0.0
 40
0
 41
0
  0
VERTEX
  8
0
 10
100.006
 20
80.1665
 30
0.0
 40
0
 41
0
  0
VERTEX
  8
0
 10
100.003
 20
80.1514
 30
0.0
 40
0
 41
0
  0
VERTEX
  8
0
 10
100
 20
80.1364
 30
0.0
 40
0
 41
0
  0
VERTEX
  8
0
 10
99.9969
 20
80.1218
 30
0.0
 40
0
 41
0
  0
VERTEX
  8
0
 10
99.9937
 20
80.1074
 30
0.0
 40
0
 41
0
  0
VERTEX
  8
0
 10
99.9903
 20
80.0931
 30
0.0
 40
0
 41
0
  0
VERTEX
  8
0
 10
99.9867
 20
80.0789
 30
0.0
 40
0
 41
0
  0
VERTEX
  8
0
 10
99.9828
 20
80.0647
 30
0.0
 40
0
 41
0
  0
VERTEX
  8
0
 10
99.9789
 20
80.0508
 30
0.0
 40
0
 41
0
  0
VERTEX
  8
0
 10
99.9746
 20
80.0371
 30
0.0
 40
0
 41
0
  0
VERTEX
  8
0
 10
99.9703
 20
80.0233
 30
0.0
 40
0
 41
0
  0
VERTEX
  8
0
 10
99.9657
 20
80.0099
 30
0.0
 40
0
 41
0
  0
VERTEX
  8
0
 10
99.9608
 20
79.9964
 30
0.0
 40
0
 41
0
  0
VERTEX
  8
0
 10
99.956
 20
79.9832
 30
0.0
 40
0
 41
0
  0
VERTEX
  8
0
 10
99.9508
 20
79.9703
 30
0.0
 40
0
 41
0
  0
VERTEX
  8
0
 10
99.9456
 20
79.9575
 30
0.0
 40
0
 41
0
  0
VERTEX
  8
0
 10
99.94
 20
79.9451
 30
0.0
 40
0
 41
0
  0
VERTEX
  8
0
 10
99.9344
 20
79.9329
 30
0.0
 40
0
 41
0
  0
VERTEX
  8
0
 10
99.9286
 20
79.921
 30
0.0
 40
0
 41
0
  0
VERTEX
  8
0
 10
99.9226
 20
79.9093
 30
0.0
 40
0
 41
0
  0
VERTEX
  8
0
 10
99.9167
 20
79.8979
 30
0.0
 40
0
 41
0
  0
VERTEX
  8
0
 10
99.9103
 20
79.8868
 30
0.0
 40
0
 41
0
  0
VERTEX
  8
0
 10
99.9039
 20
79.876
 30
0.0
 40
0
 41
0
  0
VERTEX
  8
0
 10
99.6239
 20
79.876
 30
0.0
 40
0
 41
0
  0
VERTEX
  8
0
 10
99.6314
 20
79.8869
 30
0.0
 40
0
 41
0
  0
VERTEX
  8
0
 10
99.6386
 20
79.8982
 30
0.0
 40
0
 41
0
  0
VERTEX
  8
0
 10
99.6457
 20
79.9099
 30
0.0
 40
0
 41
0
  0
VERTEX
  8
0
 10
99.6526
 20
79.9218
 30
0.0
 40
0
 41
0
  0
VERTEX
  8
0
 10
99.6593
 20
79.9342
 30
0.0
 40
0
 41
0
  0
VERTEX
  8
0
 10
99.666
 20
79.9468
 30
0.0
 40
0
 41
0
  0
VERTEX
  8
0
 10
99.6724
 20
79.96
 30
0.0
 40
0
 41
0
  0
VERTEX
  8
0
 10
99.6786
 20
79.9733
 30
0.0
 40
0
 41
0
  0
VERTEX
  8
0
 10
99.6847
 20
79.9871
 30
0.0
 40
0
 41
0
  0
VERTEX
  8
0
 10
99.6907
 20
80.0012
 30
0.0
 40
0
 41
0
  0
VERTEX
  8
0
 10
99.6964
 20
80.016
 30
0.0
 40
0
 41
0
  0
VERTEX
  8
0
 10
99.7021
 20
80.0308
 30
0.0
 40
0
 41
0
  0
VERTEX
  8
0
 10
99.7074
 20
80.0458
 30
0.0
 40
0
 41
0
  0
VERTEX
  8
0
 10
99.7125
 20
80.061
 30
0.0
 40
0
 41
0
  0
VERTEX
  8
0
 10
99.7175
 20
80.0761
 30
0.0
 40
0
 41
0
  0
VERTEX
  8
0
 10
99.7224
 20
80.0915
 30
0.0
 40
0
 41
0
  0
VERTEX
  8
0
 10
99.7269
 20
80.1071
 30
0.0
 40
0
 41
0
  0
VERTEX
  8
0
 10
99.7312
 20
80.1226
 30
0.0
 40
0
 41
0
  0
VERTEX
  8
0
 10
99.7356
 20
80.1385
 30
0.0
 40
0
 41
0
  0
VERTEX
  8
0
 10
99.7396
 20
80.1543
 30
0.0
 40
0
 41
0
  0
VERTEX
  8
0
 10
99.7433
 20
80.1703
 30
0.0
 40
0
 41
0
  0
VERTEX
  8
0
 10
99.7469
 20
80.1863
 30
0.0
 40
0
 41
0
  0
VERTEX
  8
0
 10
99.7506
 20
80.2021
 30
0.0
 40
0
 41
0
  0
VERTEX
  8
0
 10
99.7539
 20
80.2181
 30
0.0
 40
0
 41
0
  0
VERTEX
  8
0
 10
99.7569
 20
80.234
 30
0.0
 40
0
 41
0
  0
VERTEX
  8
0
 10
99.76
 20
80.25
 30
0.0
 40
0
 41
0
  0
VERTEX
  8
0
 10
99.7629
 20
80.266
 30
0.0
 40
0
 41
0
  0
VERTEX
  8
0
 10
99.7656
 20
80.2819
 30
0.0
 40
0
 41
0
  0
VERTEX
  8
0
 10
99.7681
 20
80.2978
 30
0.0
 40
0
 41
0
  0
VERTEX
  8
0
 10
99.7704
 20
80.3137
 30
0.0
 40
0
 41
0
  0
VERTEX
  8
0
 10
99.7724
 20
80.33
 30
0.0
 40
0
 41
0
  0
VERTEX
  8
0
 10
99.7739
 20
80.3458
 30
0.0
 40
0
 41
0
  0
VERTEX
  8
0
 10
99.7754
 20
80.3614
 30
0.0
 40
0
 41
0
  0
VERTEX
  8
0
 10
99.7767
 20
80.3768
 30
0.0
 40
0
 41
0
  0
VERTEX
  8
0
 10
99.7778
 20
80.3919
 30
0.0
 40
0
 41
0
  0
VERTEX
  8
0
 10
99.7786
 20
80.4068
 30
0.0
 40
0
 41
0
  0
VERTEX
  8
0
 10
99.7793
 20
80.4214
 30
0.0
 40
0
 41
0
  0
VERTEX
  8
0
 10
99.7799
 20
80.4357
 30
0.0
 40
0
 41
0
  0
VERTEX
  8
0
 10
99.7801
 20
80.4497
 30
0.0
 40
0
 41
0
  0
VERTEX
  8
0
 10
99.7801
 20
80.4635
 30
0.0
 40
0
 41
0
  0
VERTEX
  8
0
 10
99.7799
 20
80.489
 30
0.0
 40
0
 41
0
  0
VERTEX
  8
0
 10
99.779
 20
80.5139
 30
0.0
 40
0
 41
0
  0
VERTEX
  8
0
 10
99.7775
 20
80.5382
 30
0.0
 40
0
 41
0
  0
VERTEX
  8
0
 10
99.7756
 20
80.5619
 30
0.0
 40
0
 41
0
  0
VERTEX
  8
0
 10
99.7729
 20
80.5851
 30
0.0
 40
0
 41
0
  0
VERTEX
  8
0
 10
99.7697
 20
80.6079
 30
0.0
 40
0
 41
0
  0
VERTEX
  8
0
 10
99.7658
 20
80.63
 30
0.0
 40
0
 41
0
  0
VERTEX
  8
0
 10
99.7614
 20
80.6515
 30
0.0
 40
0
 41
0
  0
VERTEX
  8
0
 10
99.7565
 20
80.6725
 30
0.0
 40
0
 41
0
  0
VERTEX
  8
0
 10
99.751
 20
80.6931
 30
0.0
 40
0
 41
0
  0
VERTEX
  8
0
 10
99.7444
 20
80.7129
 30
0.0
 40
0
 41
0
  0
VERTEX
  8
0
 10
99.7372
 20
80.7322
 30
0.0
 40
0
 41
0
  0
VERTEX
  8
0
 10
99.7294
 20
80.7508
 30
0.0
 40
0
 41
0
  0
VERTEX
  8
0
 10
99.721
 20
80.7688
 30
0.0
 40
0
 41
0
  0
VERTEX
  8
0
 10
99.7118
 20
80.7862
 30
0.0
 40
0
 41
0
  0
VERTEX
  8
0
 10
99.7021
 20
80.8031
 30
0.0
 40
0
 41
0
  0
VERTEX
  8
0
 10
99.6917
 20
80.8192
 30
0.0
 40
0
 41
0
  0
VERTEX
  8
0
 10
99.6806
 20
80.8347
 30
0.0
 40
0
 41
0
  0
VERTEX
  8
0
 10
99.6689
 20
80.8496
 30
0.0
 40
0
 41
0
  0
VERTEX
  8
0
 10
99.6565
 20
80.8639
 30
0.0
 40
0
 41
0
  0
VERTEX
  8
0
 10
99.6435
 20
80.8776
 30
0.0
 40
0
 41
0
  0
VERTEX
  8
0
 10
99.6299
 20
80.8906
 30
0.0
 40
0
 41
0
  0
VERTEX
  8
0
 10
99.6156
 20
80.9031
 30
0.0
 40
0
 41
0
  0
VERTEX
  8
0
 10
99.6006
 20
80.9147
 30
0.0
 40
0
 41
0
  0
VERTEX
  8
0
 10
99.5849
 20
80.9258
 30
0.0
 40
0
 41
0
  0
VERTEX
  8
0
 10
99.5686
 20
80.9363
 30
0.0
 40
0
 41
0
  0
VERTEX
  8
0
 10
99.5517
 20
80.946
 30
0.0
 40
0
 41
0
  0
VERTEX
  8
0
 10
99.5342
 20
80.9551
 30
0.0
 40
0
 41
0
  0
VERTEX
  8
0
 10
99.5158
 20
80.9635
 30
0.0
 40
0
 41
0
  0
VERTEX
  8
0
 10
99.4969
 20
80.9714
 30
0.0
 40
0
 41
0
  0
VERTEX
  8
0
 10
99.4775
 20
80.9785
 30
0.0
 40
0
 41
0
  0
VERTEX
  8
0
 10
99.4572
 20
80.9849
 30
0.0
 40
0
 41
0
  0
VERTEX
  8
0
 10
99.4361
 20
80.9904
 30
0.0
 40
0
 41
0
  0
VERTEX
  8
0
 10
99.4144
 20
80.9953
 30
0.0
 40
0
 41
0
  0
VERTEX
  8
0
 10
99.3921
 20
80.9994
 30
0.0
 40
0
 41
0
  0
VERTEX
  8
0
 10
99.3689
 20
81.0028
 30
0.0
 40
0
 41
0
  0
VERTEX
  8
0
 10
99.345
 20
81.0054
 30
0.0
 40
0
 41
0
  0
VERTEX
  8
0
 10
99.3204
 20
81.0072
 30
0.0
 40
0
 41
0
  0
VERTEX
  8
0
 10
99.2951
 20
81.0085
 30
0.0
 40
0
 41
0
  0
VERTEX
  8
0
 10
99.2692
 20
81.0087
 30
0.0
 40
0
 41
0
  0
VERTEX
  8
0
 10
99.2237
 20
81.0074
 30
0.0
 40
0
 41
0
  0
VERTEX
  8
0
 10
99.1804
 20
81.0031
 30
0.0
 40
0
 41
0
  0
VERTEX
  8
0
 10
99.1394
 20
80.9958
 30
0.0
 40
0
 41
0
  0
VERTEX
  8
0
 10
99.1007
 20
80.9858
 30
0.0
 40
0
 41
0
  0
VERTEX
  8
0
 10
99.064
 20
80.9729
 30
0.0
 40
0
 41
0
  0
VERTEX
  8
0
 10
99.0297
 20
80.9572
 30
0.0
 40
0
 41
0
  0
VERTEX
  8
0
 10
98.9975
 20
80.9386
 30
0.0
 40
0
 41
0
  0
VERTEX
  8
0
 10
98.9676
 20
80.9171
 30
0.0
 40
0
 41
0
  0
VERTEX
  8
0
 10
98.9399
 20
80.8928
 30
0.0
 40
0
 41
0
  0
VERTEX
  8
0
 10
98.9143
 20
80.8656
 30
0.0
 40
0
 41
0
  0
VERTEX
  8
0
 10
98.8908
 20
80.8356
 30
0.0
 40
0
 41
0
  0
VERTEX
  8
0
 10
98.8697
 20
80.8031
 30
0.0
 40
0
 41
0
  0
VERTEX
  8
0
 10
98.8513
 20
80.7679
 30
0.0
 40
0
 41
0
  0
VERTEX
  8
0
 10
98.8351
 20
80.7301
 30
0.0
 40
0
 41
0
  0
VERTEX
  8
0
 10
98.8215
 20
80.6897
 30
0.0
 40
0
 41
0
  0
VERTEX
  8
0
 10
98.8104
 20
80.6468
 30
0.0
 40
0
 41
0
  0
VERTEX
  8
0
 10
98.8018
 20
80.6013
 30
0.0
 40
0
 41
0
  0
VERTEX
  8
0
 10
98.7956
 20
80.5531
 30
0.0
 40
0
 41
0
  0
VERTEX
  8
0
 10
98.7918
 20
80.5022
 30
0.0
 40
0
 41
0
  0
VERTEX
  8
0
 10
98.7906
 20
80.4489
 30
0.0
 40
0
 41
0
  0
VERTEX
  8
0
 10
98.7907
 20
80.44
 30
0.0
 40
0
 41
0
  0
VERTEX
  8
0
 10
98.7908
 20
80.431
 30
0.0
 40
0
 41
0
  0
VERTEX
  8
0
 10
98.7911
 20
80.4218
 30
0.0
 40
0
 41
0
  0
VERTEX
  8
0
 10
98.7914
 20
80.4124
 30
0.0
 40
0
 41
0
  0
VERTEX
  8
0
 10
98.7918
 20
80.4029
 30
0.0
 40
0
 41
0
  0
VERTEX
  8
0
 10
98.7924
 20
80.3932
 30
0.0
 40
0
 41
0
  0
VERTEX
  8
0
 10
98.7931
 20
80.3833
 30
0.0
 40
0
 41
0
  0
VERTEX
  8
0
 10
98.7937
 20
80.3733
 30
0.0
 40
0
 41
0
  0
VERTEX
  8
0
 10
98.7946
 20
80.3632
 30
0.0
 40
0
 41
0
  0
VERTEX
  8
0
 10
98.7956
 20
80.3529
 30
0.0
 40
0
 41
0
  0
VERTEX
  8
0
 10
98.7963
 20
80.3428
 30
0.0
 40
0
 41
0
  0
VERTEX
  8
0
 10
98.7969
 20
80.3326
 30
0.0
 40
0
 41
0
  0
VERTEX
  8
0
 10
98.7978
 20
80.3225
 30
0.0
 40
0
 41
0
  0
VERTEX
  8
0
 10
98.7986
 20
80.3122
 30
0.0
 40
0
 41
0
  0
VERTEX
  8
0
 10
98.7996
 20
80.3019
 30
0.0
 40
0
 41
0
  0
VERTEX
  8
0
 10
98.8006
 20
80.2917
 30
0.0
 40
0
 41
0
  0
VERTEX
  8
0
 10
98.8017
 20
80.2814
 30
0.0
 40
0
 41
0
  0
VERTEX
  8
0
 10
98.8028
 20
80.2711
 30
0.0
 40
0
 41
0
  0
VERTEX
  8
0
 10
98.8053
 20
80.2503
 30
0.0
 40
0
 41
0
  0
VERTEX
  8
0
 10
98.8065
 20
80.2403
 30
0.0
 40
0
 41
0
  0
VERTEX
  8
0
 10
98.8079
 20
80.2303
 30
0.0
 40
0
 41
0
  0
VERTEX
  8
0
 10
98.8093
 20
80.2203
 30
0.0
 40
0
 41
0
  0
VERTEX
  8
0
 10
98.8107
 20
80.2104
 30
0.0
 40
0
 41
0
  0
VERTEX
  8
0
 10
98.8122
 20
80.2007
 30
0.0
 40
0
 41
0
  0
VERTEX
  8
0
 10
98.8136
 20
80.191
 30
0.0
 40
0
 41
0
  0
VERTEX
  8
0
 10
98.8151
 20
80.1812
 30
0.0
 40
0
 41
0
  0
VERTEX
  8
0
 10
98.8167
 20
80.1717
 30
0.0
 40
0
 41
0
  0
VERTEX
  8
0
 10
98.8183
 20
80.1621
 30
0.0
 40
0
 41
0
  0
VERTEX
  8
0
 10
98.8199
 20
80.1526
 30
0.0
 40
0
 41
0
  0
VERTEX
  8
0
 10
98.8212
 20
80.1436
 30
0.0
 40
0
 41
0
  0
VERTEX
  8
0
 10
98.8225
 20
80.1349
 30
0.0
 40
0
 41
0
  0
VERTEX
  8
0
 10
98.8239
 20
80.1264
 30
0.0
 40
0
 41
0
  0
VERTEX
  8
0
 10
98.8251
 20
80.1181
 30
0.0
 40
0
 41
0
  0
VERTEX
  8
0
 10
98.8264
 20
80.11
 30
0.0
 40
0
 41
0
  0
VERTEX
  8
0
 10
98.8278
 20
80.1021
 30
0.0
 40
0
 41
0
  0
VERTEX
  8
0
 10
98.829
 20
80.0944
 30
0.0
 40
0
 41
0
  0
VERTEX
  8
0
 10
98.8303
 20
80.0871
 30
0.0
 40
0
 41
0
  0
VERTEX
  8
0
 10
98.8317
 20
80.0799
 30
0.0
 40
0
 41
0
  0
VERTEX
  8
0
 10
98.8329
 20
80.0729
 30
0.0
 40
0
 41
0
  0
VERTEX
  8
0
 10
98.7401
 20
79.9264
 30
0.0
 40
0
 41
0
  0
VERTEX
  8
0
 10
97.6204
 20
80.016
 30
0.0
 40
0
 41
0
  0
VERTEX
  8
0
 10
97.6204
 20
81.139
 30
0.0
 40
0
 41
0
  0
VERTEX
  8
0
 10
97.8906
 20
81.139
 30
0.0
 40
0
 41
0
  0
VERTEX
  8
0
 10
97.8906
 20
80.2731
 30
0.0
 40
0
 41
0
  0
VERTEX
  8
0
 10
98.5725
 20
80.2096
 30
0.0
 40
0
 41
0
  0
VERTEX
  8
0
 10
98.5706
 20
80.2204
 30
0.0
 40
0
 41
0
  0
VERTEX
  8
0
 10
98.5686
 20
80.2318
 30
0.0
 40
0
 41
0
  0
VERTEX
  8
0
 10
98.5665
 20
80.2437
 30
0.0
 40
0
 41
0
  0
VERTEX
  8
0
 10
98.5644
 20
80.2565
 30
0.0
 40
0
 41
0
  0
VERTEX
  8
0
 10
98.5624
 20
80.2699
 30
0.0
 40
0
 41
0
  0
VERTEX
  8
0
 10
98.5603
 20
80.2839
 30
0.0
 40
0
 41
0
  0
VERTEX
  8
0
 10
98.5581
 20
80.2985
 30
0.0
 40
0
 41
0
  0
VERTEX
  8
0
 10
98.5558
 20
80.3137
 30
0.0
 40
0
 41
0
  0
VERTEX
  8
0
 10
98.5536
 20
80.3297
 30
0.0
 40
0
 41
0
  0
VERTEX
  8
0
 10
98.5514
 20
80.3464
 30
0.0
 40
0
 41
0
  0
VERTEX
  8
0
 10
98.5492
 20
80.3639
 30
0.0
 40
0
 41
0
  0
VERTEX
  8
0
 10
98.5472
 20
80.3821
 30
0.0
 40
0
 41
0
  0
VERTEX
  8
0
 10
98.5456
 20
80.4008
 30
0.0
 40
0
 41
0
  0
VERTEX
  8
0
 10
98.544
 20
80.4203
 30
0.0
 40
0
 41
0
  0
VERTEX
  8
0
 10
98.5428
 20
80.4403
 30
0.0
 40
0
 41
0
  0
VERTEX
  8
0
 10
98.5418
 20
80.461
 30
0.0
 40
0
 41
0
  0
VERTEX
  8
0
 10
98.541
 20
80.4822
 30
0.0
 40
0
 41
0
  0
VERTEX
  8
0
 10
98.5404
 20
80.5042
 30
0.0
 40
0
 41
0
  0
VERTEX
  8
0
 10
98.5401
 20
80.5267
 30
0.0
 40
0
 41
0
  0
VERTEX
  8
0
 10
98.54
 20
80.5499
 30
0.0
 40
0
 41
0
  0
SEQEND
 8
0
  0
POLYLINE
  8
0
 62
     0
 66
     1
 10
0
 20
0
 30
0.0
 70
     1
 40
0
 41
0
  0
VERTEX
  8
0
 10
100
 20
83.9222
 30
0.0
 40
0
 41
0
  0
VERTEX
  8
0
 10
98.8492
 20
83.9222
 30
0.0
 40
0
 41
0
  0
VERTEX
  8
0
 10
98.8079
 20
83.9214
 30
0.0
 40
0
 41
0
  0
VERTEX
  8
0
 10
98.7688
 20
83.9189
 30
0.0
 40
0
 41
0
  0
VERTEX
  8
0
 10
98.7318
 20
83.9149
 30
0.0
 40
0
 41
0
  0
VERTEX
  8
0
 10
98.6968
 20
83.9092
 30
0.0
 40
0
 41
0
  0
VERTEX
  8
0
 10
98.664
 20
83.9018
 30
0.0
 40
0
 41
0
  0
VERTEX
  8
0
 10
98.6333
 20
83.8929
 30
0.0
 40
0
 41
0
  0
VERTEX
  8
0
 10
98.6049
 20
83.8824
 30
0.0
 40
0
 41
0
  0
VERTEX
  8
0
 10
98.5783
 20
83.8701
 30
0.0
 40
0
 41
0
  0
VERTEX
  8
0
 10
98.554
 20
83.8562
 30
0.0
 40
0
 41
0
  0
VERTEX
  8
0
 10
98.5318
 20
83.8408
 30
0.0
 40
0
 41
0
  0
VERTEX
  8
0
 10
98.5117
 20
83.8236
 30
0.0
 40
0
 41
0
  0
VERTEX
  8
0
 10
98.4937
 20
83.8047
 30
0.0
 40
0
 41
0
  0
VERTEX
  8
0
 10
98.4779
 20
83.7839
 30
0.0
 40
0
 41
0
  0
VERTEX
  8
0
 10
98.4642
 20
83.7614
 30
0.0
 40
0
 41
0
  0
VERTEX
  8
0
 10
98.4525
 20
83.7371
 30
0.0
 40
0
 41
0
  0
VERTEX
  8
0
 10
98.4429
 20
83.711
 30
0.0
 40
0
 41
0
  0
VERTEX
  8
0
 10
98.4356
 20
83.6831
 30
0.0
 40
0
 41
0
  0
VERTEX
  8
0
 10
98.4303
 20
83.6533
 30
0.0
 40
0
 41
0
  0
VERTEX
  8
0
 10
98.4271
 20
83.6218
 30
0.0
 40
0
 41
0
  0
VERTEX
  8
0
 10
98.426
 20
83.5885
 30
0.0
 40
0
 41
0
  0
VERTEX
  8
0
 10
98.4264
 20
83.5651
 30
0.0
 40
0
 41
0
  0
VERTEX
  8
0
 10
98.4276
 20
83.5425
 30
0.0
 40
0
 41
0
  0
VERTEX
  8
0
 10
98.4296
 20
83.5204
 30
0.0
 40
0
 41
0
  0
VERTEX
  8
0
 10
98.4322
 20
83.4992
 30
0.0
 40
0
 41
0
  0
VERTEX
  8
0
 10
98.4358
 20
83.4786
 30
0.0
 40
0
 41
0
  0
VERTEX
  8
0
 10
98.4401
 20
83.4589
 30
0.0
 40
0
 41
0
  0
VERTEX
  8
0
 10
98.4451
 20
83.4397
 30
0.0
 40
0
 41
0
  0
VERTEX
  8
0
 10
98.451
 20
83.4214
 30
0.0
 40
0
 41
0
  0
VERTEX
  8
0
 10
98.4576
 20
83.4036
 30
0.0
 40
0
 41
0
  0
VERTEX
  8
0
 10
98.4651
 20
83.3867
 30
0.0
 40
0
 41
0
  0
VERTEX
  8
0
 10
98.4729
 20
83.3704
 30
0.0
 40
0
 41
0
  0
VERTEX
  8
0
 10
98.4815
 20
83.3547
 30
0.0
 40
0
 41
0
  0
VERTEX
  8
0
 10
98.491
 20
83.3396
 30
0.0
 40
0
 41
0
  0
VERTEX
  8
0
 10
98.501
 20
83.325
 30
0.0
 40
0
 41
0
  0
VERTEX
  8
0
 10
98.5119
 20
83.311
 30
0.0
 40
0
 41
0
  0
VERTEX
  8
0
 10
98.5235
 20
83.2976
 30
0.0
 40
0
 41
0
  0
VERTEX
  8
0
 10
98.5358
 20
83.2849
 30
0.0
 40
0
 41
0
  0
VERTEX
  8
0
 10
98.5489
 20
83.2726
 30
0.0
 40
0
 41
0
  0
VERTEX
  8
0
 10
98.5628
 20
83.261
 30
0.0
 40
0
 41
0
  0
VERTEX
  8
0
 10
98.5774
 20
83.25
 30
0.0
 40
0
 41
0
  0
VERTEX
  8
0
 10
98.5924
 20
83.2399
 30
0.0
 40
0
 41
0
  0
VERTEX
  8
0
 10
98.6082
 20
83.2303
 30
0.0
 40
0
 41
0
  0
VERTEX
  8
0
 10
98.6247
 20
83.2213
 30
0.0
 40
0
 41
0
  0
VERTEX
  8
0
 10
98.6419
 20
83.2128
 30
0.0
 40
0
 41
0
  0
VERTEX
  8
0
 10
98.66
 20
83.2049
 30
0.0
 40
0
 41
0
  0
VERTEX
  8
0
 10
98.6788
 20
83.1975
 30
0.0
 40
0
 41
0
  0
VERTEX
  8
0
 10
98.6983
 20
83.1907
 30
0.0
 40
0
 41
0
  0
VERTEX
  8
0
 10
98.7186
 20
83.1843
 30
0.0
 40
0
 41
0
  0
VERTEX
  8
0
 10
98.7396
 20
83.1786
 30
0.0
 40
0
 41
0
  0
VERTEX
  8
0
 10
98.7614
 20
83.1735
 30
0.0
 40
0
 41
0
  0
VERTEX
  8
0
 10
98.7835
 20
83.1689
 30
0.0
 40
0
 41
0
  0
VERTEX
  8
0
 10
98.8062
 20
83.1647
 30
0.0
 40
0
 41
0
  0
VERTEX
  8
0
 10
98.8299
 20
83.1611
 30
0.0
 40
0
 41
0
  0
VERTEX
  8
0
 10
98.854
 20
83.1579
 30
0.0
 40
0
 41
0
  0
VERTEX
  8
0
 10
98.8789
 20
83.1551
 30
0.0
 40
0
 41
0
  0
VERTEX
  8
0
 10
98.9044
 20
83.1531
 30
0.0
 40
0
 41
0
  0
VERTEX
  8
0
 10
98.9307
 20
83.1513
 30
0.0
 40
0
 41
0
  0
VERTEX
  8
0
 10
98.9576
 20
83.15
 30
0.0
 40
0
 41
0
  0
VERTEX
  8
0
 10
98.9853
 20
83.1493
 30
0.0
 40
0
 41
0
  0
VERTEX
  8
0
 10
99.0136
 20
83.149
 30
0.0
 40
0
 41
0
  0
VERTEX
  8
0
 10
100
 20
83.149
 30
0.0
 40
0
 41
0
  0
VERTEX
  8
0
 10
100
 20
82.8513
 30
0.0
 40
0
 41
0
  0
VERTEX
  8
0
 10
98.8492
 20
82.8513
 30
0.0
 40
0
 41
0
  0
VERTEX
  8
0
 10
98.8079
 20
82.8504
 30
0.0
 40
0
 41
0
  0
VERTEX
  8
0
 10
98.7688
 20
82.8479
 30
0.0
 40
0
 41
0
  0
VERTEX
  8
0
 10
98.7318
 20
82.8439
 30
0.0
 40
0
 41
0
  0
VERTEX
  8
0
 10
98.6968
 20
82.8382
 30
0.0
 40
0
 41
0
  0
VERTEX
  8
0
 10
98.664
 20
82.8308
 30
0.0
 40
0
 41
0
  0
VERTEX
  8
0
 10
98.6333
 20
82.8219
 30
0.0
 40
0
 41
0
  0
VERTEX
  8
0
 10
98.6049
 20
82.8114
 30
0.0
 40
0
 41
0
  0
VERTEX
  8
0
 10
98.5783
 20
82.7992
 30
0.0
 40
0
 41
0
  0
VERTEX
  8
0
 10
98.554
 20
82.7853
 30
0.0
 40
0
 41
0
  0
VERTEX
  8
0
 10
98.5318
 20
82.7699
 30
0.0
 40
0
 41
0
  0
VERTEX
  8
0
 10
98.5117
 20
82.7531
 30
0.0
 40
0
 41
0
  0
VERTEX
  8
0
 10
98.4937
 20
82.7343
 30
0.0
 40
0
 41
0
  0
VERTEX
  8
0
 10
98.4779
 20
82.7138
 30
0.0
 40
0
 41
0
  0
VERTEX
  8
0
 10
98.4642
 20
82.6915
 30
0.0
 40
0
 41
0
  0
VERTEX
  8
0
 10
98.4525
 20
82.6674
 30
0.0
 40
0
 41
0
  0
VERTEX
  8
0
 10
98.4429
 20
82.6414
 30
0.0
 40
0
 41
0
  0
VERTEX
  8
0
 10
98.4356
 20
82.6135
 30
0.0
 40
0
 41
0
  0
VERTEX
  8
0
 10
98.4303
 20
82.5839
 30
0.0
 40
0
 41
0
  0
VERTEX
  8
0
 10
98.4271
 20
82.5525
 30
0.0
 40
0
 41
0
  0
VERTEX
  8
0
 10
98.426
 20
82.5192
 30
0.0
 40
0
 41
0
  0
VERTEX
  8
0
 10
98.4265
 20
82.4946
 30
0.0
 40
0
 41
0
  0
VERTEX
  8
0
 10
98.4278
 20
82.4707
 30
0.0
 40
0
 41
0
  0
VERTEX
  8
0
 10
98.4299
 20
82.4476
 30
0.0
 40
0
 41
0
  0
VERTEX
  8
0
 10
98.4328
 20
82.4254
 30
0.0
 40
0
 41
0
  0
VERTEX
  8
0
 10
98.4367
 20
82.404
 30
0.0
 40
0
 41
0
  0
VERTEX
  8
0
 10
98.4413
 20
82.3835
 30
0.0
 40
0
 41
0
  0
VERTEX
  8
0
 10
98.4468
 20
82.3637
 30
0.0
 40
0
 41
0
  0
VERTEX
  8
0
 10
98.4531
 20
82.3447
 30
0.0
 40
0
 41
0
  0
VERTEX
  8
0
 10
98.4603
 20
82.3265
 30
0.0
 40
0
 41
0
  0
VERTEX
  8
0
 10
98.4683
 20
82.3093
 30
0.0
 40
0
 41
0
  0
VERTEX
  8
0
 10
98.4772
 20
82.2926
 30
0.0
 40
0
 41
0
  0
VERTEX
  8
0
 10
98.4869
 20
82.2767
 30
0.0
 40
0
 41
0
  0
VERTEX
  8
0
 10
98.4974
 20
82.2614
 30
0.0
 40
0
 41
0
  0
VERTEX
  8
0
 10
98.5087
 20
82.2468
 30
0.0
 40
0
 41
0
  0
VERTEX
  8
0
 10
98.5208
 20
82.2328
 30
0.0
 40
0
 41
0
  0
VERTEX
  8
0
 10
98.5338
 20
82.2194
 30
0.0
 40
0
 41
0
  0
VERTEX
  8
0
 10
98.5475
 20
82.2067
 30
0.0
 40
0
 41
0
  0
VERTEX
  8
0
 10
98.5621
 20
82.1947
 30
0.0
 40
0
 41
0
  0
VERTEX
  8
0
 10
98.5775
 20
82.1832
 30
0.0
 40
0
 41
0
  0
VERTEX
  8
0
 10
98.5938
 20
82.1725
 30
0.0
 40
0
 41
0
  0
VERTEX
  8
0
 10
98.6107
 20
82.1626
 30
0.0
 40
0
 41
0
  0
VERTEX
  8
0
 10
98.6283
 20
82.1535
 30
0.0
 40
0
 41
0
  0
VERTEX
  8
0
 10
98.6468
 20
82.1447
 30
0.0
 40
0
 41
0
  0
VERTEX
  8
0
 10
98.6661
 20
82.1365
 30
0.0
 40
0
 41
0
  0
VERTEX
  8
0
 10
98.6861
 20
82.129
 30
0.0
 40
0
 41
0
  0
VERTEX
  8
0
 10
98.7068
 20
82.1219
 30
0.0
 40
0
 41
0
  0
VERTEX
  8
0
 10
98.7282
 20
82.1154
 30
0.0
 40
0
 41
0
  0
VERTEX
  8
0
 10
98.7504
 20
82.1094
 30
0.0
 40
0
 41
0
  0
VERTEX
  8
0
 10
98.7735
 20
82.1042
 30
0.0
 40
0
 41
0
  0
VERTEX
  8
0
 10
98.7971
 20
82.0993
 30
0.0
 40
0
 41
0
  0
VERTEX
  8
0
 10
98.8215
 20
82.0953
 30
0.0
 40
0
 41
0
  0
VERTEX
  8
0
 10
98.8468
 20
82.0917
 30
0.0
 40
0
 41
0
  0
VERTEX
  8
0
 10
98.8726
 20
82.0885
 30
0.0
 40
0
 41
0
  0
VERTEX
  8
0
 10
98.8992
 20
82.0857
 30
0.0
 40
0
 41
0
  0
VERTEX
  8
0
 10
98.9265
 20
82.0835
 30
0.0
 40
0
 41
0
  0
VERTEX
  8
0
 10
98.9546
 20
82.0815
 30
0.0
 40
0
 41
0
  0
VERTEX
  8
0
 10
98.9833
 20
82.08
 30
0.0
 40
0
 41
0
  0
VERTEX
  8
0
 10
99.0128
 20
82.079
 30
0.0
 40
0
 41
0
  0
VERTEX
  8
0
 10
99.0429
 20
82.0783
 30
0.0
 40
0
 41
0
  0
VERTEX
  8
0
 10
99.0739
 20
82.0781
 30
0.0
 40
0
 41
0
  0
VERTEX
  8
0
 10
100
 20
82.0781
 30
0.0
 40
0
 41
0
  0
VERTEX
  8
0
 10
100
 20
81.7819
 30
0.0
 40
0
 41
0
  0
VERTEX
  8
0
 10
98.2128
 20
81.7819
 30
0.0
 40
0
 41
0
  0
VERTEX
  8
0
 10
98.2128
 20
82.0228
 30
0.0
 40
0
 41
0
  0
VERTEX
  8
0
 10
98.4537
 20
82.0651
 30
0.0
 40
0
 41
0
  0
VERTEX
  8
0
 10
98.4537
 20
82.0814
 30
0.0
 40
0
 41
0
  0
VERTEX
  8
0
 10
98.4399
 20
82.0893
 30
0.0
 40
0
 41
0
  0
VERTEX
  8
0
 10
98.4265
 20
82.0976
 30
0.0
 40
0
 41
0
  0
VERTEX
  8
0
 10
98.4135
 20
82.1061
 30
0.0
 40
0
 41
0
  0
VERTEX
  8
0
 10
98.4008
 20
82.115
 30
0.0
 40
0
 41
0
  0
VERTEX
  8
0
 10
98.3886
 20
82.1242
 30
0.0
 40
0
 41
0
  0
VERTEX
  8
0
 10
98.3768
 20
82.1335
 30
0.0
 40
0
 41
0
  0
VERTEX
  8
0
 10
98.3653
 20
82.1432
 30
0.0
 40
0
 41
0
  0
VERTEX
  8
0
 10
98.3542
 20
82.1532
 30
0.0
 40
0
 41
0
  0
VERTEX
  8
0
 10
98.3436
 20
82.1636
 30
0.0
 40
0
 41
0
  0
VERTEX
  8
0
 10
98.3333
 20
82.1742
 30
0.0
 40
0
 41
0
  0
VERTEX
  8
0
 10
98.3231
 20
82.185
 30
0.0
 40
0
 41
0
  0
VERTEX
  8
0
 10
98.3132
 20
82.196
 30
0.0
 40
0
 41
0
  0
VERTEX
  8
0
 10
98.3036
 20
82.2072
 30
0.0
 40
0
 41
0
  0
VERTEX
  8
0
 10
98.2944
 20
82.2186
 30
0.0
 40
0
 41
0
  0
VERTEX
  8
0
 10
98.2857
 20
82.2303
 30
0.0
 40
0
 41
0
  0
VERTEX
  8
0
 10
98.2772
 20
82.2421
 30
0.0
 40
0
 41
0
  0
VERTEX
  8
0
 10
98.2692
 20
82.2542
 30
0.0
 40
0
 41
0
  0
VERTEX
  8
0
 10
98.2614
 20
82.2664
 30
0.0
 40
0
 41
0
  0
VERTEX
  8
0
 10
98.254
 20
82.2787
 30
0.0
 40
0
 41
0
  0
VERTEX
  8
0
 10
98.2469
 20
82.2914
 30
0.0
 40
0
 41
0
  0
VERTEX
  8
0
 10
98.2403
 20
82.3044
 30
0.0
 40
0
 41
0
  0
VERTEX
  8
0
 10
98.234
 20
82.3176
 30
0.0
 40
0
 41
0
  0
VERTEX
  8
0
 10
98.2281
 20
82.331
 30
0.0
 40
0
 41
0
  0
VERTEX
  8
0
 10
98.2225
 20
82.3444
 30
0.0
 40
0
 41
0
  0
VERTEX
  8
0
 10
98.2174
 20
82.3581
 30
0.0
 40
0
 41
0
  0
VERTEX
  8
0
 10
98.2125
 20
82.3718
 30
0.0
 40
0
 41
0
  0
VERTEX
  8
0
 10
98.2079
 20
82.3857
 30
0.0
 40
0
 41
0
  0
VERTEX
  8
0
 10
98.2037
 20
82.3997
 30
0.0
 40
0
 41
0
  0
VERTEX
  8
0
 10
98.2
 20
82.4138
 30
0.0
 40
0
 41
0
  0
VERTEX
  8
0
 10
98.1965
 20
82.4281
 30
0.0
 40
0
 41
0
  0
VERTEX
  8
0
 10
98.1935
 20
82.4428
 30
0.0
 40
0
 41
0
  0
VERTEX
  8
0
 10
98.1907
 20
82.4574
 30
0.0
 40
0
 41
0
  0
VERTEX
  8
0
 10
98.1882
 20
82.4721
 30
0.0
 40
0
 41
0
  0
VERTEX
  8
0
 10
98.1861
 20
82.4869
 30
0.0
 40
0
 41
0
  0
VERTEX
  8
0
 10
98.1843
 20
82.5017
 30
0.0
 40
0
 41
0
  0
VERTEX
  8
0
 10
98.1829
 20
82.5165
 30
0.0
 40
0
 41
0
  0
VERTEX
  8
0
 10
98.1817
 20
82.5314
 30
0.0
 40
0
 41
0
  0
VERTEX
  8
0
 10
98.181
 20
82.5463
 30
0.0
 40
0
 41
0
  0
VERTEX
  8
0
 10
98.1804
 20
82.5613
 30
0.0
 40
0
 41
0
  0
VERTEX
  8
0
 10
98.1803
 20
82.5761
 30
0.0
 40
0
 41
0
  0
VERTEX
  8
0
 10
98.181
 20
82.6146
 30
0.0
 40
0
 41
0
  0
VERTEX
  8
0
 10
98.1832
 20
82.6517
 30
0.0
 40
0
 41
0
  0
VERTEX
  8
0
 10
98.1867
 20
82.6874
 30
0.0
 40
0
 41
0
  0
VERTEX
  8
0
 10
98.1917
 20
82.7218
 30
0.0
 40
0
 41
0
  0
VERTEX
  8
0
 10
98.1982
 20
82.7549
 30
0.0
 40
0
 41
0
  0
VERTEX
  8
0
 10
98.2061
 20
82.7865
 30
0.0
 40
0
 41
0
  0
VERTEX
  8
0
 10
98.2154
 20
82.8169
 30
0.0
 40
0
 41
0
  0
VERTEX
  8
0
 10
98.2261
 20
82.846
 30
0.0
 40
0
 41
0
  0
VERTEX
  8
0
 10
98.2383
 20
82.8736
 30
0.0
 40
0
 41
0
  0
VERTEX
  8
0
 10
98.2519
 20
82.9
 30
0.0
 40
0
 41
0
  0
VERTEX
  8
0
 10
98.2671
 20
82.9254
 30
0.0
 40
0
 41
0
  0
VERTEX
  8
0
 10
98.2838
 20
82.9494
 30
0.0
 40
0
 41
0
  0
VERTEX
  8
0
 10
98.3022
 20
82.9721
 30
0.0
 40
0
 41
0
  0
VERTEX
  8
0
 10
98.3222
 20
82.9933
 30
0.0
 40
0
 41
0
  0
VERTEX
  8
0
 10
98.3439
 20
83.0132
 30
0.0
 40
0
 41
0
  0
VERTEX
  8
0
 10
98.3671
 20
83.0317
 30
0.0
 40
0
 41
0
  0
VERTEX
  8
0
 10
98.3921
 20
83.0489
 30
0.0
 40
0
 41
0
  0
VERTEX
  8
0
 10
98.4186
 20
83.0646
 30
0.0
 40
0
 41
0
  0
VERTEX
  8
0
 10
98.4467
 20
83.079
 30
0.0
 40
0
 41
0
  0
VERTEX
  8
0
 10
98.4765
 20
83.0921
 30
0.0
 40
0
 41
0
  0
VERTEX
  8
0
 10
98.4765
 20
83.1051
 30
0.0
 40
0
 41
0
  0
VERTEX
  8
0
 10
98.4614
 20
83.1137
 30
0.0
 40
0
 41
0
  0
VERTEX
  8
0
 10
98.4468
 20
83.1228
 30
0.0
 40
0
 41
0
  0
VERTEX
  8
0
 10
98.4325
 20
83.1319
 30
0.0
 40
0
 41
0
  0
VERTEX
  8
0
 10
98.4187
 20
83.1415
 30
0.0
 40
0
 41
0
  0
VERTEX
  8
0
 10
98.4053
 20
83.1515
 30
0.0
 40
0
 41
0
  0
VERTEX
  8
0
 10
98.3924
 20
83.1618
 30
0.0
 40
0
 41
0
  0
VERTEX
  8
0
 10
98.3797
 20
83.1724
 30
0.0
 40
0
 41
0
  0
VERTEX
  8
0
 10
98.3676
 20
83.1832
 30
0.0
 40
0
 41
0
  0
VERTEX
  8
0
 10
98.356
 20
83.1944
 30
0.0
 40
0
 41
0
  0
VERTEX
  8
0
 10
98.3447
 20
83.2061
 30
0.0
 40
0
 41
0
  0
VERTEX
  8
0
 10
98.3337
 20
83.2182
 30
0.0
 40
0
 41
0
  0
VERTEX
  8
0
 10
98.3233
 20
83.2306
 30
0.0
 40
0
 41
0
  0
VERTEX
  8
0
 10
98.3132
 20
83.2431
 30
0.0
 40
0
 41
0
  0
VERTEX
  8
0
 10
98.3035
 20
83.2558
 30
0.0
 40
0
 41
0
  0
VERTEX
  8
0
 10
98.2942
 20
83.2688
 30
0.0
 40
0
 41
0
  0
VERTEX
  8
0
 10
98.2853
 20
83.2818
 30
0.0
 40
0
 41
0
  0
VERTEX
  8
0
 10
98.2768
 20
83.2951
 30
0.0
 40
0
 41
0
  0
VERTEX
  8
0
 10
98.2686
 20
83.3086
 30
0.0
 40
0
 41
0
  0
VERTEX
  8
0
 10
98.2608
 20
83.3224
 30
0.0
 40
0
 41
0
  0
VERTEX
  8
0
 10
98.2535
 20
83.3363
 30
0.0
 40
0
 41
0
  0
VERTEX
  8
0
 10
98.2463
 20
83.3507
 30
0.0
 40
0
 41
0
  0
VERTEX
  8
0
 10
98.2393
 20
83.3651
 30
0.0
 40
0
 41
0
  0
VERTEX
  8
0
 10
98.2328
 20
83.3799
 30
0.0
 40
0
 41
0
  0
VERTEX
  8
0
 10
98.2267
 20
83.3946
 30
0.0
 40
0
 41
0
  0
VERTEX
  8
0
 10
98.221
 20
83.4094
 30
0.0
 40
0
 41
0
  0
VERTEX
  8
0
 10
98.2156
 20
83.4246
 30
0.0
 40
0
 41
0
  0
VERTEX
  8
0
 10
98.2107
 20
83.4397
 30
0.0
 40
0
 41
0
  0
VERTEX
  8
0
 10
98.2061
 20
83.455
 30
0.0
 40
0
 41
0
  0
VERTEX
  8
0
 10
98.2019
 20
83.4704
 30
0.0
 40
0
 41
0
  0
VERTEX
  8
0
 10
98.1982
 20
83.486
 30
0.0
 40
0
 41
0
  0
VERTEX
  8
0
 10
98.1947
 20
83.5017
 30
0.0
 40
0
 41
0
  0
VERTEX
  8
0
 10
98.1917
 20
83.5174
 30
0.0
 40
0
 41
0
  0
VERTEX
  8
0
 10
98.189
 20
83.5332
 30
0.0
 40
0
 41
0
  0
VERTEX
  8
0
 10
98.1867
 20
83.549
 30
0.0
 40
0
 41
0
  0
VERTEX
  8
0
 10
98.1847
 20
83.565
 30
0.0
 40
0
 41
0
  0
VERTEX
  8
0
 10
98.1832
 20
83.581
 30
0.0
 40
0
 41
0
  0
VERTEX
  8
0
 10
98.1819
 20
83.5969
 30
0.0
 40
0
 41
0
  0
VERTEX
  8
0
 10
98.181
 20
83.6131
 30
0.0
 40
0
 41
0
  0
VERTEX
  8
0
 10
98.1804
 20
83.6293
 30
0.0
 40
0
 41
0
  0
VERTEX
  8
0
 10
98.1803
 20
83.6456
 30
0.0
 40
0
 41
0
  0
VERTEX
  8
0
 10
98.1818
 20
83.7011
 30
0.0
 40
0
 41
0
  0
VERTEX
  8
0
 10
98.1865
 20
83.7538
 30
0.0
 40
0
 41
0
  0
VERTEX
  8
0
 10
98.1943
 20
83.8036
 30
0.0
 40
0
 41
0
  0
VERTEX
  8
0
 10
98.2053
 20
83.8507
 30
0.0
 40
0
 41
0
  0
VERTEX
  8
0
 10
98.2193
 20
83.895
 30
0.0
 40
0
 41
0
  0
VERTEX
  8
0
 10
98.2365
 20
83.9364
 30
0.0
 40
0
 41
0
  0
VERTEX
  8
0
 10
98.2568
 20
83.9749
 30
0.0
 40
0
 41
0
  0
VERTEX
  8
0
 10
98.2803
 20
84.0106
 30
0.0
 40
0
 41
0
  0
VERTEX
  8
0
 10
98.3068
 20
84.0435
 30
0.0
 40
0
 41
0
  0
VERTEX
  8
0
 10
98.3365
 20
84.0736
 30
0.0
 40
0
 41
0
  0
VERTEX
  8
0
 10
98.3693
 20
84.1011
 30
0.0
 40
0
 41
0
  0
VERTEX
  8
0
 10
98.4058
 20
84.1257
 30
0.0
 40
0
 41
0
  0
VERTEX
  8
0
 10
98.4461
 20
84.1475
 30
0.0
 40
0
 41
0
  0
VERTEX
  8
0
 10
98.4901
 20
84.1663
 30
0.0
 40
0
 41
0
  0
VERTEX
  8
0
 10
98.5379
 20
84.1822
 30
0.0
 40
0
 41
0
  0
VERTEX
  8
0
 10
98.5894
 20
84.1953
 30
0.0
 40
0
 41
0
  0
VERTEX
  8
0
 10
98.6447
 20
84.2054
 30
0.0
 40
0
 41
0
  0
VERTEX
  8
0
 10
98.7037
 20
84.2126
 30
0.0
 40
0
 41
0
  0
VERTEX
  8
0
 10
98.7664
 20
84.2169
 30
0.0
 40
0
 41
0
  0
VERTEX
  8
0
 10
98.8329
 20
84.2185
 30
0.0
 40
0
 41
0
  0
VERTEX
  8
0
 10
100
 20
84.2185
 30
0.0
 40
0
 41
0
  0
VERTEX
  8
0
 10
100
 20
83.9222
 30
0.0
 40
0
 41
0
  0
SEQEND
 8
0
  0
POLYLINE
  8
0
 62
     0
 66
     1
 10
0
 20
0
 30
0.0
 70
     1
 40
0
 41
0
  0
VERTEX
  8
0
 10
100
 20
86.9089
 30
0.0
 40
0
 41
0
  0
VERTEX
  8
0
 10
98.8492
 20
86.9089
 30
0.0
 40
0
 41
0
  0
VERTEX
  8
0
 10
98.8079
 20
86.9081
 30
0.0
 40
0
 41
0
  0
VERTEX
  8
0
 10
98.7688
 20
86.9056
 30
0.0
 40
0
 41
0
  0
VERTEX
  8
0
 10
98.7318
 20
86.9015
 30
0.0
 40
0
 41
0
  0
VERTEX
  8
0
 10
98.6968
 20
86.8958
 30
0.0
 40
0
 41
0
  0
VERTEX
  8
0
 10
98.664
 20
86.8885
 30
0.0
 40
0
 41
0
  0
VERTEX
  8
0
 10
98.6333
 20
86.8796
 30
0.0
 40
0
 41
0
  0
VERTEX
  8
0
 10
98.6049
 20
86.869
 30
0.0
 40
0
 41
0
  0
VERTEX
  8
0
 10
98.5783
 20
86.8568
 30
0.0
 40
0
 41
0
  0
VERTEX
  8
0
 10
98.554
 20
86.8429
 30
0.0
 40
0
 41
0
  0
VERTEX
  8
0
 10
98.5318
 20
86.8275
 30
0.0
 40
0
 41
0
  0
VERTEX
  8
0
 10
98.5117
 20
86.8103
 30
0.0
 40
0
 41
0
  0
VERTEX
  8
0
 10
98.4937
 20
86.7914
 30
0.0
 40
0
 41
0
  0
VERTEX
  8
0
 10
98.4779
 20
86.7706
 30
0.0
 40
0
 41
0
  0
VERTEX
  8
0
 10
98.4642
 20
86.7481
 30
0.0
 40
0
 41
0
  0
VERTEX
  8
0
 10
98.4525
 20
86.7237
 30
0.0
 40
0
 41
0
  0
VERTEX
  8
0
 10
98.4429
 20
86.6976
 30
0.0
 40
0
 41
0
  0
VERTEX
  8
0
 10
98.4356
 20
86.6697
 30
0.0
 40
0
 41
0
  0
VERTEX
  8
0
 10
98.4303
 20
86.64
 30
0.0
 40
0
 41
0
  0
VERTEX
  8
0
 10
98.4271
 20
86.6085
 30
0.0
 40
0
 41
0
  0
VERTEX
  8
0
 10
98.426
 20
86.5751
 30
0.0
 40
0
 41
0
  0
VERTEX
  8
0
 10
98.4264
 20
86.5518
 30
0.0
 40
0
 41
0
  0
VERTEX
  8
0
 10
98.4276
 20
86.529
 30
0.0
 40
0
 41
0
  0
VERTEX
  8
0
 10
98.4296
 20
86.5071
 30
0.0
 40
0
 41
0
  0
VERTEX
  8
0
 10
98.4322
 20
86.4858
 30
0.0
 40
0
 41
0
  0
VERTEX
  8
0
 10
98.4358
 20
86.4653
 30
0.0
 40
0
 41
0
  0
VERTEX
  8
0
 10
98.4401
 20
86.4456
 30
0.0
 40
0
 41
0
  0
VERTEX
  8
0
 10
98.4451
 20
86.4264
 30
0.0
 40
0
 41
0
  0
VERTEX
  8
0
 10
98.451
 20
86.4081
 30
0.0
 40
0
 41
0
  0
VERTEX
  8
0
 10
98.4576
 20
86.3903
 30
0.0
 40
0
 41
0
  0
VERTEX
  8
0
 10
98.4651
 20
86.3733
 30
0.0
 40
0
 41
0
  0
VERTEX
  8
0
 10
98.4729
 20
86.3571
 30
0.0
 40
0
 41
0
  0
VERTEX
  8
0
 10
98.4815
 20
86.3414
 30
0.0
 40
0
 41
0
  0
VERTEX
  8
0
 10
98.491
 20
86.3263
 30
0.0
 40
0
 41
0
  0
VERTEX
  8
0
 10
98.501
 20
86.3117
 30
0.0
 40
0
 41
0
  0
VERTEX
  8
0
 10
98.5119
 20
86.2976
 30
0.0
 40
0
 41
0
  0
VERTEX
  8
0
 10
98.5235
 20
86.2843
 30
0.0
 40
0
 41
0
  0
VERTEX
  8
0
 10
98.5358
 20
86.2715
 30
0.0
 40
0
 41
0
  0
VERTEX
  8
0
 10
98.5489
 20
86.2593
 30
0.0
 40
0
 41
0
  0
VERTEX
  8
0
 10
98.5628
 20
86.2476
 30
0.0
 40
0
 41
0
  0
VERTEX
  8
0
 10
98.5774
 20
86.2367
 30
0.0
 40
0
 41
0
  0
VERTEX
  8
0
 10
98.5924
 20
86.2265
 30
0.0
 40
0
 41
0
  0
VERTEX
  8
0
 10
98.6082
 20
86.2169
 30
0.0
 40
0
 41
0
  0
VERTEX
  8
0
 10
98.6247
 20
86.2079
 30
0.0
 40
0
 41
0
  0
VERTEX
  8
0
 10
98.6419
 20
86.1994
 30
0.0
 40
0
 41
0
  0
VERTEX
  8
0
 10
98.66
 20
86.1915
 30
0.0
 40
0
 41
0
  0
VERTEX
  8
0
 10
98.6788
 20
86.1842
 30
0.0
 40
0
 41
0
  0
VERTEX
  8
0
 10
98.6983
 20
86.1772
 30
0.0
 40
0
 41
0
  0
VERTEX
  8
0
 10
98.7186
 20
86.171
 30
0.0
 40
0
 41
0
  0
VERTEX
  8
0
 10
98.7396
 20
86.1653
 30
0.0
 40
0
 41
0
  0
VERTEX
  8
0
 10
98.7614
 20
86.1601
 30
0.0
 40
0
 41
0
  0
VERTEX
  8
0
 10
98.7835
 20
86.1556
 30
0.0
 40
0
 41
0
  0
VERTEX
  8
0
 10
98.8062
 20
86.1514
 30
0.0
 40
0
 41
0
  0
VERTEX
  8
0
 10
98.8299
 20
86.1476
 30
0.0
 40
0
 41
0
  0
VERTEX
  8
0
 10
98.854
 20
86.1446
 30
0.0
 40
0
 41
0
  0
VERTEX
  8
0
 10
98.8789
 20
86.1418
 30
0.0
 40
0
 41
0
  0
VERTEX
  8
0
 10
98.9044
 20
86.1396
 30
0.0
 40
0
 41
0
  0
VERTEX
  8
0
 10
98.9307
 20
86.1379
 30
0.0
 40
0
 41
0
  0
VERTEX
  8
0
 10
98.9576
 20
86.1367
 30
0.0
 40
0
 41
0
  0
VERTEX
  8
0
 10
98.9853
 20
86.136
 30
0.0
 40
0
 41
0
  0
VERTEX
  8
0
 10
99.0136
 20
86.1357
 30
0.0
 40
0
 41
0
  0
VERTEX
  8
0
 10
100
 20
86.1357
 30
0.0
 40
0
 41
0
  0
VERTEX
  8
0
 10
100
 20
85.8379
 30
0.0
 40
0
 41
0
  0
VERTEX
  8
0
 10
98.8492
 20
85.8379
 30
0.0
 40
0
 41
0
  0
VERTEX
  8
0
 10
98.8079
 20
85.8371
 30
0.0
 40
0
 41
0
  0
VERTEX
  8
0
 10
98.7688
 20
85.8346
 30
0.0
 40
0
 41
0
  0
VERTEX
  8
0
 10
98.7318
 20
85.8306
 30
0.0
 40
0
 41
0
  0
VERTEX
  8
0
 10
98.6968
 20
85.8249
 30
0.0
 40
0
 41
0
  0
VERTEX
  8
0
 10
98.664
 20
85.8175
 30
0.0
 40
0
 41
0
  0
VERTEX
  8
0
 10
98.6333
 20
85.8086
 30
0.0
 40
0
 41
0
  0
VERTEX
  8
0
 10
98.6049
 20
85.7981
 30
0.0
 40
0
 41
0
  0
VERTEX
  8
0
 10
98.5783
 20
85.7858
 30
0.0
 40
0
 41
0
  0
VERTEX
  8
0
 10
98.554
 20
85.7719
 30
0.0
 40
0
 41
0
  0
VERTEX
  8
0
 10
98.5318
 20
85.7565
 30
0.0
 40
0
 41
0
  0
VERTEX
  8
0
 10
98.5117
 20
85.7396
 30
0.0
 40
0
 41
0
  0
VERTEX
  8
0
 10
98.4937
 20
85.721
 30
0.0
 40
0
 41
0
  0
VERTEX
  8
0
 10
98.4779
 20
85.7004
 30
0.0
 40
0
 41
0
  0
VERTEX
  8
0
 10
98.4642
 20
85.6781
 30
0.0
 40
0
 41
0
  0
VERTEX
  8
0
 10
98.4525
 20
85.654
 30
0.0
 40
0
 41
0
  0
VERTEX
  8
0
 10
98.4429
 20
85.6281
 30
0.0
 40
0
 41
0
  0
VERTEX
  8
0
 10
98.4356
 20
85.6001
 30
0.0
 40
0
 41
0
  0
VERTEX
  8
0
 10
98.4303
 20
85.5706
 30
0.0
 40
0
 41
0
  0
VERTEX
  8
0
 10
98.4271
 20
85.5392
 30
0.0
 40
0
 41
0
  0
VERTEX
  8
0
 10
98.426
 20
85.5058
 30
0.0
 40
0
 41
0
  0
VERTEX
  8
0
 10
98.4265
 20
85.4812
 30
0.0
 40
0
 41
0
  0
VERTEX
  8
0
 10
98.4278
 20
85.4574
 30
0.0
 40
0
 41
0
  0
VERTEX
  8
0
 10
98.4299
 20
85.4343
 30
0.0
 40
0
 41
0
  0
VERTEX
  8
0
 10
98.4328
 20
85.4121
 30
0.0
 40
0
 41
0
  0
VERTEX
  8
0
 10
98.4367
 20
85.3907
 30
0.0
 40
0
 41
0
  0
VERTEX
  8
0
 10
98.4413
 20
85.3701
 30
0.0
 40
0
 41
0
  0
VERTEX
  8
0
 10
98.4468
 20
85.3503
 30
0.0
 40
0
 41
0
  0
VERTEX
  8
0
 10
98.4531
 20
85.3314
 30
0.0
 40
0
 41
0
  0
VERTEX
  8
0
 10
98.4603
 20
85.3132
 30
0.0
 40
0
 41
0
  0
VERTEX
  8
0
 10
98.4683
 20
85.2958
 30
0.0
 40
0
 41
0
  0
VERTEX
  8
0
 10
98.4772
 20
85.2793
 30
0.0
 40
0
 41
0
  0
VERTEX
  8
0
 10
98.4869
 20
85.2633
 30
0.0
 40
0
 41
0
  0
VERTEX
  8
0
 10
98.4974
 20
85.2481
 30
0.0
 40
0
 41
0
  0
VERTEX
  8
0
 10
98.5087
 20
85.2333
 30
0.0
 40
0
 41
0
  0
VERTEX
  8
0
 10
98.5208
 20
85.2194
 30
0.0
 40
0
 41
0
  0
VERTEX
  8
0
 10
98.5338
 20
85.2061
 30
0.0
 40
0
 41
0
  0
VERTEX
  8
0
 10
98.5475
 20
85.1933
 30
0.0
 40
0
 41
0
  0
VERTEX
  8
0
 10
98.5621
 20
85.1812
 30
0.0
 40
0
 41
0
  0
VERTEX
  8
0
 10
98.5775
 20
85.1699
 30
0.0
 40
0
 41
0
  0
VERTEX
  8
0
 10
98.5938
 20
85.1592
 30
0.0
 40
0
 41
0
  0
VERTEX
  8
0
 10
98.6107
 20
85.1493
 30
0.0
 40
0
 41
0
  0
VERTEX
  8
0
 10
98.6283
 20
85.1401
 30
0.0
 40
0
 41
0
  0
VERTEX
  8
0
 10
98.6468
 20
85.1314
 30
0.0
 40
0
 41
0
  0
VERTEX
  8
0
 10
98.6661
 20
85.1232
 30
0.0
 40
0
 41
0
  0
VERTEX
  8
0
 10
98.6861
 20
85.1157
 30
0.0
 40
0
 41
0
  0
VERTEX
  8
0
 10
98.7068
 20
85.1086
 30
0.0
 40
0
 41
0
  0
VERTEX
  8
0
 10
98.7282
 20
85.1021
 30
0.0
 40
0
 41
0
  0
VERTEX
  8
0
 10
98.7504
 20
85.0961
 30
0.0
 40
0
 41
0
  0
VERTEX
  8
0
 10
98.7735
 20
85.0908
 30
0.0
 40
0
 41
0
  0
VERTEX
  8
0
 10
98.7971
 20
85.086
 30
0.0
 40
0
 41
0
  0
VERTEX
  8
0
 10
98.8215
 20
85.0819
 30
0.0
 40
0
 41
0
  0
VERTEX
  8
0
 10
98.8468
 20
85.0783
 30
0.0
 40
0
 41
0
  0
VERTEX
  8
0
 10
98.8726
 20
85.0751
 30
0.0
 40
0
 41
0
  0
VERTEX
  8
0
 10
98.8992
 20
85.0724
 30
0.0
 40
0
 41
0
  0
VERTEX
  8
0
 10
98.9265
 20
85.07
 30
0.0
 40
0
 41
0
  0
VERTEX
  8
0
 10
98.9546
 20
85.0682
 30
0.0
 40
0
 41
0
  0
VERTEX
  8
0
 10
98.9833
 20
85.0667
 30
0.0
 40
0
 41
0
  0
VERTEX
  8
0
 10
99.0128
 20
85.0656
 30
0.0
 40
0
 41
0
  0
VERTEX
  8
0
 10
99.0429
 20
85.065
 30
0.0
 40
0
 41
0
  0
VERTEX
  8
0
 10
99.0739
 20
85.0647
 30
0.0
 40
0
 41
0
  0
VERTEX
  8
0
 10
100
 20
85.0647
 30
0.0
 40
0
 41
0
  0
VERTEX
  8
0
 10
100
 20
84.7686
 30
0.0
 40
0
 41
0
  0
VERTEX
  8
0
 10
98.2128
 20
84.7686
 30
0.0
 40
0
 41
0
  0
VERTEX
  8
0
 10
98.2128
 20
85.0094
 30
0.0
 40
0
 41
0
  0
VERTEX
  8
0
 10
98.4537
 20
85.0518
 30
0.0
 40
0
 41
0
  0
VERTEX
  8
0
 10
98.4537
 20
85.0681
 30
0.0
 40
0
 41
0
  0
VERTEX
  8
0
 10
98.4399
 20
85.076
 30
0.0
 40
0
 41
0
  0
VERTEX
  8
0
 10
98.4265
 20
85.0843
 30
0.0
 40
0
 41
0
  0
VERTEX
  8
0
 10
98.4135
 20
85.0928
 30
0.0
 40
0
 41
0
  0
VERTEX
  8
0
 10
98.4008
 20
85.1017
 30
0.0
 40
0
 41
0
  0
VERTEX
  8
0
 10
98.3886
 20
85.1107
 30
0.0
 40
0
 41
0
  0
VERTEX
  8
0
 10
98.3768
 20
85.1201
 30
0.0
 40
0
 41
0
  0
VERTEX
  8
0
 10
98.3653
 20
85.1299
 30
0.0
 40
0
 41
0
  0
VERTEX
  8
0
 10
98.3542
 20
85.1399
 30
0.0
 40
0
 41
0
  0
VERTEX
  8
0
 10
98.3436
 20
85.1501
 30
0.0
 40
0
 41
0
  0
VERTEX
  8
0
 10
98.3333
 20
85.1608
 30
0.0
 40
0
 41
0
  0
VERTEX
  8
0
 10
98.3231
 20
85.1717
 30
0.0
 40
0
 41
0
  0
VERTEX
  8
0
 10
98.3132
 20
85.1826
 30
0.0
 40
0
 41
0
  0
VERTEX
  8
0
 10
98.3036
 20
85.1939
 30
0.0
 40
0
 41
0
  0
VERTEX
  8
0
 10
98.2944
 20
85.2053
 30
0.0
 40
0
 41
0
  0
VERTEX
  8
0
 10
98.2857
 20
85.2169
 30
0.0
 40
0
 41
0
  0
VERTEX
  8
0
 10
98.2772
 20
85.2288
 30
0.0
 40
0
 41
0
  0
VERTEX
  8
0
 10
98.2692
 20
85.2408
 30
0.0
 40
0
 41
0
  0
VERTEX
  8
0
 10
98.2614
 20
85.2531
 30
0.0
 40
0
 41
0
  0
VERTEX
  8
0
 10
98.254
 20
85.2654
 30
0.0
 40
0
 41
0
  0
VERTEX
  8
0
 10
98.2469
 20
85.2781
 30
0.0
 40
0
 41
0
  0
VERTEX
  8
0
 10
98.2403
 20
85.2911
 30
0.0
 40
0
 41
0
  0
VERTEX
  8
0
 10
98.234
 20
85.3043
 30
0.0
 40
0
 41
0
  0
VERTEX
  8
0
 10
98.2281
 20
85.3176
 30
0.0
 40
0
 41
0
  0
VERTEX
  8
0
 10
98.2225
 20
85.3311
 30
0.0
 40
0
 41
0
  0
VERTEX
  8
0
 10
98.2174
 20
85.3447
 30
0.0
 40
0
 41
0
  0
VERTEX
  8
0
 10
98.2125
 20
85.3585
 30
0.0
 40
0
 41
0
  0
VERTEX
  8
0
 10
98.2079
 20
85.3724
 30
0.0
 40
0
 41
0
  0
VERTEX
  8
0
 10
98.2037
 20
85.3864
 30
0.0
 40
0
 41
0
  0
VERTEX
  8
0
 10
98.2
 20
85.4004
 30
0.0
 40
0
 41
0
  0
VERTEX
  8
0
 10
98.1965
 20
85.4147
 30
0.0
 40
0
 41
0
  0
VERTEX
  8
0
 10
98.1935
 20
85.4293
 30
0.0
 40
0
 41
0
  0
VERTEX
  8
0
 10
98.1907
 20
85.444
 30
0.0
 40
0
 41
0
  0
VERTEX
  8
0
 10
98.1882
 20
85.4587
 30
0.0
 40
0
 41
0
  0
VERTEX
  8
0
 10
98.1861
 20
85.4736
 30
0.0
 40
0
 41
0
  0
VERTEX
  8
0
 10
98.1843
 20
85.4883
 30
0.0
 40
0
 41
0
  0
VERTEX
  8
0
 10
98.1829
 20
85.5032
 30
0.0
 40
0
 41
0
  0
VERTEX
  8
0
 10
98.1817
 20
85.5181
 30
0.0
 40
0
 41
0
  0
VERTEX
  8
0
 10
98.181
 20
85.5329
 30
0.0
 40
0
 41
0
  0
VERTEX
  8
0
 10
98.1804
 20
85.5479
 30
0.0
 40
0
 41
0
  0
VERTEX
  8
0
 10
98.1803
 20
85.5628
 30
0.0
 40
0
 41
0
  0
VERTEX
  8
0
 10
98.181
 20
85.6013
 30
0.0
 40
0
 41
0
  0
VERTEX
  8
0
 10
98.1832
 20
85.6383
 30
0.0
 40
0
 41
0
  0
VERTEX
  8
0
 10
98.1867
 20
85.674
 30
0.0
 40
0
 41
0
  0
VERTEX
  8
0
 10
98.1917
 20
85.7083
 30
0.0
 40
0
 41
0
  0
VERTEX
  8
0
 10
98.1982
 20
85.7414
 30
0.0
 40
0
 41
0
  0
VERTEX
  8
0
 10
98.2061
 20
85.7732
 30
0.0
 40
0
 41
0
  0
VERTEX
  8
0
 10
98.2154
 20
85.8036
 30
0.0
 40
0
 41
0
  0
VERTEX
  8
0
 10
98.2261
 20
85.8326
 30
0.0
 40
0
 41
0
  0
VERTEX
  8
0
 10
98.2383
 20
85.8603
 30
0.0
 40
0
 41
0
  0
VERTEX
  8
0
 10
98.2519
 20
85.8867
 30
0.0
 40
0
 41
0
  0
VERTEX
  8
0
 10
98.2671
 20
85.9121
 30
0.0
 40
0
 41
0
  0
VERTEX
  8
0
 10
98.2838
 20
85.9361
 30
0.0
 40
0
 41
0
  0
VERTEX
  8
0
 10
98.3022
 20
85.9587
 30
0.0
 40
0
 41
0
  0
VERTEX
  8
0
 10
98.3222
 20
85.98
 30
0.0
 40
0
 41
0
  0
VERTEX
  8
0
 10
98.3439
 20
85.9999
 30
0.0
 40
0
 41
0
  0
VERTEX
  8
0
 10
98.3671
 20
86.0183
 30
0.0
 40
0
 41
0
  0
VERTEX
  8
0
 10
98.3921
 20
86.0356
 30
0.0
 40
0
 41
0
  0
VERTEX
  8
0
 10
98.4186
 20
86.0512
 30
0.0
 40
0
 41
0
  0
VERTEX
  8
0
 10
98.4467
 20
86.0657
 30
0.0
 40
0
 41
0
  0
VERTEX
  8
0
 10
98.4765
 20
86.0787
 30
0.0
 40
0
 41
0
  0
VERTEX
  8
0
 10
98.4765
 20
86.0918
 30
0.0
 40
0
 41
0
  0
VERTEX
  8
0
 10
98.4614
 20
86.1004
 30
0.0
 40
0
 41
0
  0
VERTEX
  8
0
 10
98.4468
 20
86.1093
 30
0.0
 40
0
 41
0
  0
VERTEX
  8
0
 10
98.4325
 20
86.1186
 30
0.0
 40
0
 41
0
  0
VERTEX
  8
0
 10
98.4187
 20
86.1282
 30
0.0
 40
0
 41
0
  0
VERTEX
  8
0
 10
98.4053
 20
86.1382
 30
0.0
 40
0
 41
0
  0
VERTEX
  8
0
 10
98.3924
 20
86.1485
 30
0.0
 40
0
 41
0
  0
VERTEX
  8
0
 10
98.3797
 20
86.159
 30
0.0
 40
0
 41
0
  0
VERTEX
  8
0
 10
98.3676
 20
86.1699
 30
0.0
 40
0
 41
0
  0
VERTEX
  8
0
 10
98.356
 20
86.1811
 30
0.0
 40
0
 41
0
  0
VERTEX
  8
0
 10
98.3447
 20
86.1926
 30
0.0
 40
0
 41
0
  0
VERTEX
  8
0
 10
98.3337
 20
86.2049
 30
0.0
 40
0
 41
0
  0
VERTEX
  8
0
 10
98.3233
 20
86.2172
 30
0.0
 40
0
 41
0
  0
VERTEX
  8
0
 10
98.3132
 20
86.2297
 30
0.0
 40
0
 41
0
  0
VERTEX
  8
0
 10
98.3035
 20
86.2425
 30
0.0
 40
0
 41
0
  0
VERTEX
  8
0
 10
98.2942
 20
86.2554
 30
0.0
 40
0
 41
0
  0
VERTEX
  8
0
 10
98.2853
 20
86.2685
 30
0.0
 40
0
 41
0
  0
VERTEX
  8
0
 10
98.2768
 20
86.2818
 30
0.0
 40
0
 41
0
  0
VERTEX
  8
0
 10
98.2686
 20
86.2953
 30
0.0
 40
0
 41
0
  0
VERTEX
  8
0
 10
98.2608
 20
86.309
 30
0.0
 40
0
 41
0
  0
VERTEX
  8
0
 10
98.2535
 20
86.3229
 30
0.0
 40
0
 41
0
  0
VERTEX
  8
0
 10
98.2463
 20
86.3374
 30
0.0
 40
0
 41
0
  0
VERTEX
  8
0
 10
98.2393
 20
86.3518
 30
0.0
 40
0
 41
0
  0
VERTEX
  8
0
 10
98.2328
 20
86.3665
 30
0.0
 40
0
 41
0
  0
VERTEX
  8
0
 10
98.2267
 20
86.3813
 30
0.0
 40
0
 41
0
  0
VERTEX
  8
0
 10
98.221
 20
86.3961
 30
0.0
 40
0
 41
0
  0
VERTEX
  8
0
 10
98.2156
 20
86.4112
 30
0.0
 40
0
 41
0
  0
VERTEX
  8
0
 10
98.2107
 20
86.4264
 30
0.0
 40
0
 41
0
  0
VERTEX
  8
0
 10
98.2061
 20
86.4417
 30
0.0
 40
0
 41
0
  0
VERTEX
  8
0
 10
98.2019
 20
86.4571
 30
0.0
 40
0
 41
0
  0
VERTEX
  8
0
 10
98.1982
 20
86.4726
 30
0.0
 40
0
 41
0
  0
VERTEX
  8
0
 10
98.1947
 20
86.4883
 30
0.0
 40
0
 41
0
  0
VERTEX
  8
0
 10
98.1917
 20
86.504
 30
0.0
 40
0
 41
0
  0
VERTEX
  8
0
 10
98.189
 20
86.5199
 30
0.0
 40
0
 41
0
  0
VERTEX
  8
0
 10
98.1867
 20
86.5357
 30
0.0
 40
0
 41
0
  0
VERTEX
  8
0
 10
98.1847
 20
86.5515
 30
0.0
 40
0
 41
0
  0
VERTEX
  8
0
 10
98.1832
 20
86.5676
 30
0.0
 40
0
 41
0
  0
VERTEX
  8
0
 10
98.1819
 20
86.5836
 30
0.0
 40
0
 41
0
  0
VERTEX
  8
0
 10
98.181
 20
86.5997
 30
0.0
 40
0
 41
0
  0
VERTEX
  8
0
 10
98.1804
 20
86.616
 30
0.0
 40
0
 41
0
  0
VERTEX
  8
0
 10
98.1803
 20
86.6322
 30
0.0
 40
0
 41
0
  0
VERTEX
  8
0
 10
98.1818
 20
86.6876
 30
0.0
 40
0
 41
0
  0
VERTEX
  8
0
 10
98.1865
 20
86.7404
 30
0.0
 40
0
 41
0
  0
VERTEX
  8
0
 10
98.1943
 20
86.7903
 30
0.0
 40
0
 41
0
  0
VERTEX
  8
0
 10
98.2053
 20
86.8374
 30
0.0
 40
0
 41
0
  0
VERTEX
  8
0
 10
98.2193
 20
86.8815
 30
0.0
 40
0
 41
0
  0
VERTEX
  8
0
 10
98.2365
 20
86.9229
 30
0.0
 40
0
 41
0
  0
VERTEX
  8
0
 10
98.2568
 20
86.9615
 30
0.0
 40
0
 41
0
  0
VERTEX
  8
0
 10
98.2803
 20
86.9972
 30
0.0
 40
0
 41
0
  0
VERTEX
  8
0
 10
98.3068
 20
87.0301
 30
0.0
 40
0
 41
0
  0
VERTEX
  8
0
 10
98.3365
 20
87.0603
 30
0.0
 40
0
 41
0
  0
VERTEX
  8
0
 10
98.3693
 20
87.0878
 30
0.0
 40
0
 41
0
  0
VERTEX
  8
0
 10
98.4058
 20
87.1124
 30
0.0
 40
0
 41
0
  0
VERTEX
  8
0
 10
98.4461
 20
87.134
 30
0.0
 40
0
 41
0
  0
VERTEX
  8
0
 10
98.4901
 20
87.1529
 30
0.0
 40
0
 41
0
  0
VERTEX
  8
0
 10
98.5379
 20
87.1689
 30
0.0
 40
0
 41
0
  0
VERTEX
  8
0
 10
98.5894
 20
87.1819
 30
0.0
 40
0
 41
0
  0
VERTEX
  8
0
 10
98.6447
 20
87.1921
 30
0.0
 40
0
 41
0
  0
VERTEX
  8
0
 10
98.7037
 20
87.1993
 30
0.0
 40
0
 41
0
  0
VERTEX
  8
0
 10
98.7664
 20
87.2036
 30
0.0
 40
0
 41
0
  0
VERTEX
  8
0
 10
98.8329
 20
87.2051
 30
0.0
 40
0
 41
0
  0
VERTEX
  8
0
 10
100
 20
87.2051
 30
0.0
 40
0
 41
0
  0
VERTEX
  8
0
 10
100
 20
86.9089
 30
0.0
 40
0
 41
0
  0
SEQEND
 8
0
  0
POLYLINE
  8
0
 62
     0
 66
     1
 10
0
 20
0
 30
0.0
 70
     1
 40
0
 41
0
  0
VERTEX
  8
0
 10
154.919
 20
52.865
 30
0.0
 40
0
 41
0
  0
VERTEX
  8
0
 10
154.919
 20
52.8971
 30
0.0
 40
0
 41
0
  0
VERTEX
  8
0
 10
154.921
 20
52.9286
 30
0.0
 40
0
 41
0
  0
VERTEX
  8
0
 10
154.924
 20
52.9597
 30
0.0
 40
0
 41
0
  0
VERTEX
  8
0
 10
154.926
 20
52.9903
 30
0.0
 40
0
 41
0
  0
VERTEX
  8
0
 10
154.931
 20
53.0204
 30
0.0
 40
0
 41
0
  0
VERTEX
  8
0
 10
154.936
 20
53.0501
 30
0.0
 40
0
 41
0
  0
VERTEX
  8
0
 10
154.942
 20
53.0794
 30
0.0
 40
0
 41
0
  0
VERTEX
  8
0
 10
154.949
 20
53.1082
 30
0.0
 40
0
 41
0
  0
VERTEX
  8
0
 10
154.957
 20
53.1367
 30
0.0
 40
0
 41
0
  0
VERTEX
  8
0
 10
154.965
 20
53.1644
 30
0.0
 40
0
 41
0
  0
VERTEX
  8
0
 10
154.974
 20
53.1921
 30
0.0
 40
0
 41
0
  0
VERTEX
  8
0
 10
154.985
 20
53.219
 30
0.0
 40
0
 41
0
  0
VERTEX
  8
0
 10
154.996
 20
53.2451
 30
0.0
 40
0
 41
0
  0
VERTEX
  8
0
 10
155.007
 20
53.2706
 30
0.0
 40
0
 41
0
  0
VERTEX
  8
0
 10
155.019
 20
53.2951
 30
0.0
 40
0
 41
0
  0
VERTEX
  8
0
 10
155.033
 20
53.319
 30
0.0
 40
0
 41
0
  0
VERTEX
  8
0
 10
155.049
 20
53.3421
 30
0.0
 40
0
 41
0
  0
VERTEX
  8
0
 10
155.064
 20
53.3644
 30
0.0
 40
0
 41
0
  0
VERTEX
  8
0
 10
155.081
 20
53.3861
 30
0.0
 40
0
 41
0
  0
VERTEX
  8
0
 10
155.097
 20
53.4071
 30
0.0
 40
0
 41
0
  0
VERTEX
  8
0
 10
155.115
 20
53.4274
 30
0.0
 40
0
 41
0
  0
VERTEX
  8
0
 10
155.133
 20
53.4468
 30
0.0
 40
0
 41
0
  0
VERTEX
  8
0
 10
155.154
 20
53.4654
 30
0.0
 40
0
 41
0
  0
VERTEX
  8
0
 10
155.174
 20
53.4831
 30
0.0
 40
0
 41
0
  0
VERTEX
  8
0
 10
155.196
 20
53.4999
 30
0.0
 40
0
 41
0
  0
VERTEX
  8
0
 10
155.218
 20
53.5156
 30
0.0
 40
0
 41
0
  0
VERTEX
  8
0
 10
155.24
 20
53.5306
 30
0.0
 40
0
 41
0
  0
VERTEX
  8
0
 10
155.265
 20
53.5446
 30
0.0
 40
0
 41
0
  0
VERTEX
  8
0
 10
155.289
 20
53.5576
 30
0.0
 40
0
 41
0
  0
VERTEX
  8
0
 10
155.315
 20
53.5697
 30
0.0
 40
0
 41
0
  0
VERTEX
  8
0
 10
155.342
 20
53.581
 30
0.0
 40
0
 41
0
  0
VERTEX
  8
0
 10
155.369
 20
53.5908
 30
0.0
 40
0
 41
0
  0
VERTEX
  8
0
 10
155.397
 20
53.5997
 30
0.0
 40
0
 41
0
  0
VERTEX
  8
0
 10
155.425
 20
53.6072
 30
0.0
 40
0
 41
0
  0
VERTEX
  8
0
 10
155.456
 20
53.6137
 30
0.0
 40
0
 41
0
  0
VERTEX
  8
0
 10
155.486
 20
53.619
 30
0.0
 40
0
 41
0
  0
VERTEX
  8
0
 10
155.517
 20
53.6231
 30
0.0
 40
0
 41
0
  0
VERTEX
  8
0
 10
155.55
 20
53.626
 30
0.0
 40
0
 41
0
  0
VERTEX
  8
0
 10
155.582
 20
53.6278
 30
0.0
 40
0
 41
0
  0
VERTEX
  8
0
 10
155.617
 20
53.6283
 30
0.0
 40
0
 41
0
  0
VERTEX
  8
0
 10
155.653
 20
53.6278
 30
0.0
 40
0
 41
0
  0
VERTEX
  8
0
 10
155.689
 20
53.6261
 30
0.0
 40
0
 41
0
  0
VERTEX
  8
0
 10
155.724
 20
53.6233
 30
0.0
 40
0
 41
0
  0
VERTEX
  8
0
 10
155.758
 20
53.6196
 30
0.0
 40
0
 41
0
  0
VERTEX
  8
0
 10
155.793
 20
53.6146
 30
0.0
 40
0
 41
0
  0
VERTEX
  8
0
 10
155.825
 20
53.6085
 30
0.0
 40
0
 41
0
  0
VERTEX
  8
0
 10
155.857
 20
53.6013
 30
0.0
 40
0
 41
0
  0
VERTEX
  8
0
 10
155.889
 20
53.5929
 30
0.0
 40
0
 41
0
  0
VERTEX
  8
0
 10
155.919
 20
53.5836
 30
0.0
 40
0
 41
0
  0
VERTEX
  8
0
 10
155.95
 20
53.5731
 30
0.0
 40
0
 41
0
  0
VERTEX
  8
0
 10
155.979
 20
53.5614
 30
0.0
 40
0
 41
0
  0
VERTEX
  8
0
 10
156.007
 20
53.5488
 30
0.0
 40
0
 41
0
  0
VERTEX
  8
0
 10
156.035
 20
53.535
 30
0.0
 40
0
 41
0
  0
VERTEX
  8
0
 10
156.061
 20
53.5201
 30
0.0
 40
0
 41
0
  0
VERTEX
  8
0
 10
156.086
 20
53.5043
 30
0.0
 40
0
 41
0
  0
VERTEX
  8
0
 10
156.111
 20
53.4874
 30
0.0
 40
0
 41
0
  0
VERTEX
  8
0
 10
156.135
 20
53.4693
 30
0.0
 40
0
 41
0
  0
VERTEX
  8
0
 10
156.158
 20
53.4501
 30
0.0
 40
0
 41
0
  0
VERTEX
  8
0
 10
156.179
 20
53.4299
 30
0.0
 40
0
 41
0
  0
VERTEX
  8
0
 10
156.2
 20
53.4086
 30
0.0
 40
0
 41
0
  0
VERTEX
  8
0
 10
156.221
 20
53.3864
 30
0.0
 40
0
 41
0
  0
VERTEX
  8
0
 10
156.24
 20
53.3629
 30
0.0
 40
0
 41
0
  0
VERTEX
  8
0
 10
156.258
 20
53.3385
 30
0.0
 40
0
 41
0
  0
VERTEX
  8
0
 10
156.275
 20
53.3131
 30
0.0
 40
0
 41
0
  0
VERTEX
  8
0
 10
156.292
 20
53.2865
 30
0.0
 40
0
 41
0
  0
VERTEX
  8
0
 10
156.307
 20
53.259
 30
0.0
 40
0
 41
0
  0
VERTEX
  8
0
 10
156.321
 20
53.2304
 30
0.0
 40
0
 41
0
  0
VERTEX
  8
0
 10
156.335
 20
53.2008
 30
0.0
 40
0
 41
0
  0
VERTEX
  8
0
 10
156.347
 20
53.1701
 30
0.0
 40
0
 41
0
  0
VERTEX
  8
0
 10
156.358
 20
53.1385
 30
0.0
 40
0
 41
0
  0
VERTEX
  8
0
 10
156.368
 20
53.1061
 30
0.0
 40
0
 41
0
  0
VERTEX
  8
0
 10
156.378
 20
53.0728
 30
0.0
 40
0
 41
0
  0
VERTEX
  8
0
 10
156.386
 20
53.0383
 30
0.0
 40
0
 41
0
  0
VERTEX
  8
0
 10
156.393
 20
53.0031
 30
0.0
 40
0
 41
0
  0
VERTEX
  8
0
 10
156.399
 20
52.9668
 30
0.0
 40
0
 41
0
  0
VERTEX
  8
0
 10
156.404
 20
52.9294
 30
0.0
 40
0
 41
0
  0
VERTEX
  8
0
 10
156.407
 20
52.8912
 30
0.0
 40
0
 41
0
  0
VERTEX
  8
0
 10
156.41
 20
52.8519
 30
0.0
 40
0
 41
0
  0
VERTEX
  8
0
 10
156.411
 20
52.8118
 30
0.0
 40
0
 41
0
  0
VERTEX
  8
0
 10
156.413
 20
52.7707
 30
0.0
 40
0
 41
0
  0
VERTEX
  8
0
 10
156.413
 20
52.754
 30
0.0
 40
0
 41
0
  0
VERTEX
  8
0
 10
156.411
 20
52.7375
 30
0.0
 40
0
 41
0
  0
VERTEX
  8
0
 10
156.411
 20
52.721
 30
0.0
 40
0
 41
0
  0
VERTEX
  8
0
 10
156.411
 20
52.7044
 30
0.0
 40
0
 41
0
  0
VERTEX
  8
0
 10
156.41
 20
52.6881
 30
0.0
 40
0
 41
0
  0
VERTEX
  8
0
 10
156.41
 20
52.6717
 30
0.0
 40
0
 41
0
  0
VERTEX
  8
0
 10
156.408
 20
52.6553
 30
0.0
 40
0
 41
0
  0
VERTEX
  8
0
 10
156.407
 20
52.6389
 30
0.0
 40
0
 41
0
  0
VERTEX
  8
0
 10
156.406
 20
52.6225
 30
0.0
 40
0
 41
0
  0
VERTEX
  8
0
 10
156.404
 20
52.6062
 30
0.0
 40
0
 41
0
  0
VERTEX
  8
0
 10
156.403
 20
52.5903
 30
0.0
 40
0
 41
0
  0
VERTEX
  8
0
 10
156.4
 20
52.5746
 30
0.0
 40
0
 41
0
  0
VERTEX
  8
0
 10
156.399
 20
52.5589
 30
0.0
 40
0
 41
0
  0
VERTEX
  8
0
 10
156.396
 20
52.5432
 30
0.0
 40
0
 41
0
  0
VERTEX
  8
0
 10
156.394
 20
52.5278
 30
0.0
 40
0
 41
0
  0
VERTEX
  8
0
 10
156.392
 20
52.5124
 30
0.0
 40
0
 41
0
  0
VERTEX
  8
0
 10
156.389
 20
52.4969
 30
0.0
 40
0
 41
0
  0
VERTEX
  8
0
 10
156.386
 20
52.4818
 30
0.0
 40
0
 41
0
  0
VERTEX
  8
0
 10
156.383
 20
52.4667
 30
0.0
 40
0
 41
0
  0
VERTEX
  8
0
 10
156.379
 20
52.4517
 30
0.0
 40
0
 41
0
  0
VERTEX
  8
0
 10
156.376
 20
52.4371
 30
0.0
 40
0
 41
0
  0
VERTEX
  8
0
 10
156.374
 20
52.4226
 30
0.0
 40
0
 41
0
  0
VERTEX
  8
0
 10
156.369
 20
52.4082
 30
0.0
 40
0
 41
0
  0
VERTEX
  8
0
 10
156.367
 20
52.394
 30
0.0
 40
0
 41
0
  0
VERTEX
  8
0
 10
156.362
 20
52.38
 30
0.0
 40
0
 41
0
  0
VERTEX
  8
0
 10
156.358
 20
52.3661
 30
0.0
 40
0
 41
0
  0
VERTEX
  8
0
 10
156.354
 20
52.3522
 30
0.0
 40
0
 41
0
  0
VERTEX
  8
0
 10
156.35
 20
52.3386
 30
0.0
 40
0
 41
0
  0
VERTEX
  8
0
 10
156.346
 20
52.325
 30
0.0
 40
0
 41
0
  0
VERTEX
  8
0
 10
156.34
 20
52.3117
 30
0.0
 40
0
 41
0
  0
VERTEX
  8
0
 10
156.335
 20
52.2985
 30
0.0
 40
0
 41
0
  0
VERTEX
  8
0
 10
156.331
 20
52.2854
 30
0.0
 40
0
 41
0
  0
VERTEX
  8
0
 10
156.325
 20
52.2728
 30
0.0
 40
0
 41
0
  0
VERTEX
  8
0
 10
156.319
 20
52.2603
 30
0.0
 40
0
 41
0
  0
VERTEX
  8
0
 10
156.314
 20
52.2482
 30
0.0
 40
0
 41
0
  0
VERTEX
  8
0
 10
156.308
 20
52.2363
 30
0.0
 40
0
 41
0
  0
VERTEX
  8
0
 10
156.303
 20
52.2246
 30
0.0
 40
0
 41
0
  0
VERTEX
  8
0
 10
156.296
 20
52.2132
 30
0.0
 40
0
 41
0
  0
VERTEX
  8
0
 10
156.29
 20
52.2021
 30
0.0
 40
0
 41
0
  0
VERTEX
  8
0
 10
156.283
 20
52.1913
 30
0.0
 40
0
 41
0
  0
VERTEX
  8
0
 10
156.004
 20
52.1913
 30
0.0
 40
0
 41
0
  0
VERTEX
  8
0
 10
156.011
 20
52.2021
 30
0.0
 40
0
 41
0
  0
VERTEX
  8
0
 10
156.018
 20
52.2135
 30
0.0
 40
0
 41
0
  0
VERTEX
  8
0
 10
156.025
 20
52.225
 30
0.0
 40
0
 41
0
  0
VERTEX
  8
0
 10
156.032
 20
52.2371
 30
0.0
 40
0
 41
0
  0
VERTEX
  8
0
 10
156.039
 20
52.2494
 30
0.0
 40
0
 41
0
  0
VERTEX
  8
0
 10
156.046
 20
52.2621
 30
0.0
 40
0
 41
0
  0
VERTEX
  8
0
 10
156.051
 20
52.2751
 30
0.0
 40
0
 41
0
  0
VERTEX
  8
0
 10
156.058
 20
52.2886
 30
0.0
 40
0
 41
0
  0
VERTEX
  8
0
 10
156.064
 20
52.3024
 30
0.0
 40
0
 41
0
  0
VERTEX
  8
0
 10
156.071
 20
52.3165
 30
0.0
 40
0
 41
0
  0
VERTEX
  8
0
 10
156.076
 20
52.3313
 30
0.0
 40
0
 41
0
  0
VERTEX
  8
0
 10
156.082
 20
52.3461
 30
0.0
 40
0
 41
0
  0
VERTEX
  8
0
 10
156.087
 20
52.3611
 30
0.0
 40
0
 41
0
  0
VERTEX
  8
0
 10
156.092
 20
52.3761
 30
0.0
 40
0
 41
0
  0
VERTEX
  8
0
 10
156.097
 20
52.3914
 30
0.0
 40
0
 41
0
  0
VERTEX
  8
0
 10
156.101
 20
52.4068
 30
0.0
 40
0
 41
0
  0
VERTEX
  8
0
 10
156.107
 20
52.4222
 30
0.0
 40
0
 41
0
  0
VERTEX
  8
0
 10
156.111
 20
52.4379
 30
0.0
 40
0
 41
0
  0
VERTEX
  8
0
 10
156.115
 20
52.4536
 30
0.0
 40
0
 41
0
  0
VERTEX
  8
0
 10
156.119
 20
52.4696
 30
0.0
 40
0
 41
0
  0
VERTEX
  8
0
 10
156.124
 20
52.4854
 30
0.0
 40
0
 41
0
  0
VERTEX
  8
0
 10
156.126
 20
52.5014
 30
0.0
 40
0
 41
0
  0
VERTEX
  8
0
 10
156.131
 20
52.5174
 30
0.0
 40
0
 41
0
  0
VERTEX
  8
0
 10
156.133
 20
52.5333
 30
0.0
 40
0
 41
0
  0
VERTEX
  8
0
 10
156.136
 20
52.5493
 30
0.0
 40
0
 41
0
  0
VERTEX
  8
0
 10
156.14
 20
52.5653
 30
0.0
 40
0
 41
0
  0
VERTEX
  8
0
 10
156.143
 20
52.5811
 30
0.0
 40
0
 41
0
  0
VERTEX
  8
0
 10
156.144
 20
52.5971
 30
0.0
 40
0
 41
0
  0
VERTEX
  8
0
 10
156.147
 20
52.6131
 30
0.0
 40
0
 41
0
  0
VERTEX
  8
0
 10
156.15
 20
52.629
 30
0.0
 40
0
 41
0
  0
VERTEX
  8
0
 10
156.151
 20
52.6451
 30
0.0
 40
0
 41
0
  0
VERTEX
  8
0
 10
156.154
 20
52.6611
 30
0.0
 40
0
 41
0
  0
VERTEX
  8
0
 10
156.156
 20
52.6767
 30
0.0
 40
0
 41
0
  0
VERTEX
  8
0
 10
156.157
 20
52.6921
 30
0.0
 40
0
 41
0
  0
VERTEX
  8
0
 10
156.157
 20
52.7072
 30
0.0
 40
0
 41
0
  0
VERTEX
  8
0
 10
156.158
 20
52.7219
 30
0.0
 40
0
 41
0
  0
VERTEX
  8
0
 10
156.158
 20
52.7365
 30
0.0
 40
0
 41
0
  0
VERTEX
  8
0
 10
156.16
 20
52.751
 30
0.0
 40
0
 41
0
  0
VERTEX
  8
0
 10
156.16
 20
52.765
 30
0.0
 40
0
 41
0
  0
VERTEX
  8
0
 10
156.16
 20
52.7788
 30
0.0
 40
0
 41
0
  0
VERTEX
  8
0
 10
156.16
 20
52.8042
 30
0.0
 40
0
 41
0
  0
VERTEX
  8
0
 10
156.158
 20
52.829
 30
0.0
 40
0
 41
0
  0
VERTEX
  8
0
 10
156.157
 20
52.8535
 30
0.0
 40
0
 41
0
  0
VERTEX
  8
0
 10
156.156
 20
52.8772
 30
0.0
 40
0
 41
0
  0
VERTEX
  8
0
 10
156.153
 20
52.9004
 30
0.0
 40
0
 41
0
  0
VERTEX
  8
0
 10
156.149
 20
52.9231
 30
0.0
 40
0
 41
0
  0
VERTEX
  8
0
 10
156.146
 20
52.9453
 30
0.0
 40
0
 41
0
  0
VERTEX
  8
0
 10
156.14
 20
52.9668
 30
0.0
 40
0
 41
0
  0
VERTEX
  8
0
 10
156.136
 20
52.9878
 30
0.0
 40
0
 41
0
  0
VERTEX
  8
0
 10
156.131
 20
53.0082
 30
0.0
 40
0
 41
0
  0
VERTEX
  8
0
 10
156.124
 20
53.0282
 30
0.0
 40
0
 41
0
  0
VERTEX
  8
0
 10
156.117
 20
53.0474
 30
0.0
 40
0
 41
0
  0
VERTEX
  8
0
 10
156.11
 20
53.066
 30
0.0
 40
0
 41
0
  0
VERTEX
  8
0
 10
156.1
 20
53.084
 30
0.0
 40
0
 41
0
  0
VERTEX
  8
0
 10
156.092
 20
53.1014
 30
0.0
 40
0
 41
0
  0
VERTEX
  8
0
 10
156.082
 20
53.1182
 30
0.0
 40
0
 41
0
  0
VERTEX
  8
0
 10
156.071
 20
53.1344
 30
0.0
 40
0
 41
0
  0
VERTEX
  8
0
 10
156.06
 20
53.1499
 30
0.0
 40
0
 41
0
  0
VERTEX
  8
0
 10
156.049
 20
53.1649
 30
0.0
 40
0
 41
0
  0
VERTEX
  8
0
 10
156.036
 20
53.1792
 30
0.0
 40
0
 41
0
  0
VERTEX
  8
0
 10
156.024
 20
53.1928
 30
0.0
 40
0
 41
0
  0
VERTEX
  8
0
 10
156.01
 20
53.2058
 30
0.0
 40
0
 41
0
  0
VERTEX
  8
0
 10
155.994
 20
53.2182
 30
0.0
 40
0
 41
0
  0
VERTEX
  8
0
 10
155.981
 20
53.23
 30
0.0
 40
0
 41
0
  0
VERTEX
  8
0
 10
155.964
 20
53.241
 30
0.0
 40
0
 41
0
  0
VERTEX
  8
0
 10
155.949
 20
53.2514
 30
0.0
 40
0
 41
0
  0
VERTEX
  8
0
 10
155.932
 20
53.2613
 30
0.0
 40
0
 41
0
  0
VERTEX
  8
0
 10
155.914
 20
53.2703
 30
0.0
 40
0
 41
0
  0
VERTEX
  8
0
 10
155.896
 20
53.2788
 30
0.0
 40
0
 41
0
  0
VERTEX
  8
0
 10
155.876
 20
53.2865
 30
0.0
 40
0
 41
0
  0
VERTEX
  8
0
 10
155.857
 20
53.2937
 30
0.0
 40
0
 41
0
  0
VERTEX
  8
0
 10
155.836
 20
53.3
 30
0.0
 40
0
 41
0
  0
VERTEX
  8
0
 10
155.815
 20
53.3057
 30
0.0
 40
0
 41
0
  0
VERTEX
  8
0
 10
155.794
 20
53.3106
 30
0.0
 40
0
 41
0
  0
VERTEX
  8
0
 10
155.772
 20
53.3147
 30
0.0
 40
0
 41
0
  0
VERTEX
  8
0
 10
155.749
 20
53.3181
 30
0.0
 40
0
 41
0
  0
VERTEX
  8
0
 10
155.725
 20
53.3207
 30
0.0
 40
0
 41
0
  0
VERTEX
  8
0
 10
155.7
 20
53.3225
 30
0.0
 40
0
 41
0
  0
VERTEX
  8
0
 10
155.675
 20
53.3236
 30
0.0
 40
0
 41
0
  0
VERTEX
  8
0
 10
155.649
 20
53.324
 30
0.0
 40
0
 41
0
  0
VERTEX
  8
0
 10
155.603
 20
53.3226
 30
0.0
 40
0
 41
0
  0
VERTEX
  8
0
 10
155.56
 20
53.3183
 30
0.0
 40
0
 41
0
  0
VERTEX
  8
0
 10
155.519
 20
53.3111
 30
0.0
 40
0
 41
0
  0
VERTEX
  8
0
 10
155.481
 20
53.3011
 30
0.0
 40
0
 41
0
  0
VERTEX
  8
0
 10
155.443
 20
53.2882
 30
0.0
 40
0
 41
0
  0
VERTEX
  8
0
 10
155.41
 20
53.2725
 30
0.0
 40
0
 41
0
  0
VERTEX
  8
0
 10
155.376
 20
53.2539
 30
0.0
 40
0
 41
0
  0
VERTEX
  8
0
 10
155.347
 20
53.2324
 30
0.0
 40
0
 41
0
  0
VERTEX
  8
0
 10
155.319
 20
53.2081
 30
0.0
 40
0
 41
0
  0
VERTEX
  8
0
 10
155.294
 20
53.1808
 30
0.0
 40
0
 41
0
  0
VERTEX
  8
0
 10
155.271
 20
53.1508
 30
0.0
 40
0
 41
0
  0
VERTEX
  8
0
 10
155.249
 20
53.1183
 30
0.0
 40
0
 41
0
  0
VERTEX
  8
0
 10
155.231
 20
53.0832
 30
0.0
 40
0
 41
0
  0
VERTEX
  8
0
 10
155.215
 20
53.0454
 30
0.0
 40
0
 41
0
  0
VERTEX
  8
0
 10
155.201
 20
53.005
 30
0.0
 40
0
 41
0
  0
VERTEX
  8
0
 10
155.19
 20
52.9621
 30
0.0
 40
0
 41
0
  0
VERTEX
  8
0
 10
155.182
 20
52.9165
 30
0.0
 40
0
 41
0
  0
VERTEX
  8
0
 10
155.175
 20
52.8683
 30
0.0
 40
0
 41
0
  0
VERTEX
  8
0
 10
155.171
 20
52.8175
 30
0.0
 40
0
 41
0
  0
VERTEX
  8
0
 10
155.171
 20
52.7642
 30
0.0
 40
0
 41
0
  0
VERTEX
  8
0
 10
155.171
 20
52.7553
 30
0.0
 40
0
 41
0
  0
VERTEX
  8
0
 10
155.171
 20
52.7463
 30
0.0
 40
0
 41
0
  0
VERTEX
  8
0
 10
155.171
 20
52.7371
 30
0.0
 40
0
 41
0
  0
VERTEX
  8
0
 10
155.171
 20
52.7276
 30
0.0
 40
0
 41
0
  0
VERTEX
  8
0
 10
155.171
 20
52.7182
 30
0.0
 40
0
 41
0
  0
VERTEX
  8
0
 10
155.172
 20
52.7085
 30
0.0
 40
0
 41
0
  0
VERTEX
  8
0
 10
155.172
 20
52.6986
 30
0.0
 40
0
 41
0
  0
VERTEX
  8
0
 10
155.174
 20
52.6886
 30
0.0
 40
0
 41
0
  0
VERTEX
  8
0
 10
155.174
 20
52.6785
 30
0.0
 40
0
 41
0
  0
VERTEX
  8
0
 10
155.175
 20
52.6681
 30
0.0
 40
0
 41
0
  0
VERTEX
  8
0
 10
155.175
 20
52.6579
 30
0.0
 40
0
 41
0
  0
VERTEX
  8
0
 10
155.176
 20
52.6478
 30
0.0
 40
0
 41
0
  0
VERTEX
  8
0
 10
155.178
 20
52.6275
 30
0.0
 40
0
 41
0
  0
VERTEX
  8
0
 10
155.179
 20
52.6172
 30
0.0
 40
0
 41
0
  0
VERTEX
  8
0
 10
155.181
 20
52.6069
 30
0.0
 40
0
 41
0
  0
VERTEX
  8
0
 10
155.182
 20
52.5967
 30
0.0
 40
0
 41
0
  0
VERTEX
  8
0
 10
155.182
 20
52.5864
 30
0.0
 40
0
 41
0
  0
VERTEX
  8
0
 10
155.185
 20
52.5656
 30
0.0
 40
0
 41
0
  0
VERTEX
  8
0
 10
155.186
 20
52.5556
 30
0.0
 40
0
 41
0
  0
VERTEX
  8
0
 10
155.188
 20
52.5456
 30
0.0
 40
0
 41
0
  0
VERTEX
  8
0
 10
155.189
 20
52.5356
 30
0.0
 40
0
 41
0
  0
VERTEX
  8
0
 10
155.19
 20
52.5257
 30
0.0
 40
0
 41
0
  0
VERTEX
  8
0
 10
155.192
 20
52.516
 30
0.0
 40
0
 41
0
  0
VERTEX
  8
0
 10
155.193
 20
52.5061
 30
0.0
 40
0
 41
0
  0
VERTEX
  8
0
 10
155.196
 20
52.4869
 30
0.0
 40
0
 41
0
  0
VERTEX
  8
0
 10
155.199
 20
52.4774
 30
0.0
 40
0
 41
0
  0
VERTEX
  8
0
 10
155.2
 20
52.4679
 30
0.0
 40
0
 41
0
  0
VERTEX
  8
0
 10
155.201
 20
52.4589
 30
0.0
 40
0
 41
0
  0
VERTEX
  8
0
 10
155.203
 20
52.4501
 30
0.0
 40
0
 41
0
  0
VERTEX
  8
0
 10
155.203
 20
52.4415
 30
0.0
 40
0
 41
0
  0
VERTEX
  8
0
 10
155.204
 20
52.4332
 30
0.0
 40
0
 41
0
  0
VERTEX
  8
0
 10
155.206
 20
52.4251
 30
0.0
 40
0
 41
0
  0
VERTEX
  8
0
 10
155.207
 20
52.4174
 30
0.0
 40
0
 41
0
  0
VERTEX
  8
0
 10
155.208
 20
52.4097
 30
0.0
 40
0
 41
0
  0
VERTEX
  8
0
 10
155.21
 20
52.4022
 30
0.0
 40
0
 41
0
  0
VERTEX
  8
0
 10
155.211
 20
52.3951
 30
0.0
 40
0
 41
0
  0
VERTEX
  8
0
 10
155.212
 20
52.3882
 30
0.0
 40
0
 41
0
  0
VERTEX
  8
0
 10
155.119
 20
52.2417
 30
0.0
 40
0
 41
0
  0
VERTEX
  8
0
 10
154
 20
52.3311
 30
0.0
 40
0
 41
0
  0
VERTEX
  8
0
 10
154
 20
53.4542
 30
0.0
 40
0
 41
0
  0
VERTEX
  8
0
 10
154.269
 20
53.4542
 30
0.0
 40
0
 41
0
  0
VERTEX
  8
0
 10
154.269
 20
52.5883
 30
0.0
 40
0
 41
0
  0
VERTEX
  8
0
 10
154.953
 20
52.5249
 30
0.0
 40
0
 41
0
  0
VERTEX
  8
0
 10
154.95
 20
52.5356
 30
0.0
 40
0
 41
0
  0
VERTEX
  8
0
 10
154.949
 20
52.5469
 30
0.0
 40
0
 41
0
  0
VERTEX
  8
0
 10
154.946
 20
52.559
 30
0.0
 40
0
 41
0
  0
VERTEX
  8
0
 10
154.944
 20
52.5718
 30
0.0
 40
0
 41
0
  0
VERTEX
  8
0
 10
154.942
 20
52.5851
 30
0.0
 40
0
 41
0
  0
VERTEX
  8
0
 10
154.94
 20
52.599
 30
0.0
 40
0
 41
0
  0
VERTEX
  8
0
 10
154.938
 20
52.6137
 30
0.0
 40
0
 41
0
  0
VERTEX
  8
0
 10
154.936
 20
52.629
 30
0.0
 40
0
 41
0
  0
VERTEX
  8
0
 10
154.933
 20
52.645
 30
0.0
 40
0
 41
0
  0
VERTEX
  8
0
 10
154.931
 20
52.6615
 30
0.0
 40
0
 41
0
  0
VERTEX
  8
0
 10
154.929
 20
52.6792
 30
0.0
 40
0
 41
0
  0
VERTEX
  8
0
 10
154.926
 20
52.6974
 30
0.0
 40
0
 41
0
  0
VERTEX
  8
0
 10
154.925
 20
52.7161
 30
0.0
 40
0
 41
0
  0
VERTEX
  8
0
 10
154.924
 20
52.7356
 30
0.0
 40
0
 41
0
  0
VERTEX
  8
0
 10
154.922
 20
52.7556
 30
0.0
 40
0
 41
0
  0
VERTEX
  8
0
 10
154.921
 20
52.7762
 30
0.0
 40
0
 41
0
  0
VERTEX
  8
0
 10
154.921
 20
52.7975
 30
0.0
 40
0
 41
0
  0
VERTEX
  8
0
 10
154.919
 20
52.8194
 30
0.0
 40
0
 41
0
  0
VERTEX
  8
0
 10
154.919
 20
52.8419
 30
0.0
 40
0
 41
0
  0
VERTEX
  8
0
 10
154.919
 20
52.865
 30
0.0
 40
0
 41
0
  0
SEQEND
 8
0
  0
POLYLINE
  8
0
 62
     0
 66
     1
 10
0
 20
0
 30
0.0
 70
     1
 40
0
 41
0
  0
VERTEX
  8
0
 10
156.679
 20
55.1908
 30
0.0
 40
0
 41
0
  0
VERTEX
  8
0
 10
156.907
 20
55.1908
 30
0.0
 40
0
 41
0
  0
VERTEX
  8
0
 10
156.907
 20
53.8074
 30
0.0
 40
0
 41
0
  0
VERTEX
  8
0
 10
156.679
 20
53.8074
 30
0.0
 40
0
 41
0
  0
VERTEX
  8
0
 10
156.679
 20
55.1908
 30
0.0
 40
0
 41
0
  0
SEQEND
 8
0
  0
POLYLINE
  8
0
 62
     0
 66
     1
 10
0
 20
0
 30
0.0
 70
     1
 40
0
 41
0
  0
VERTEX
  8
0
 10
154.919
 20
56.0714
 30
0.0
 40
0
 41
0
  0
VERTEX
  8
0
 10
154.919
 20
56.1035
 30
0.0
 40
0
 41
0
  0
VERTEX
  8
0
 10
154.921
 20
56.135
 30
0.0
 40
0
 41
0
  0
VERTEX
  8
0
 10
154.924
 20
56.166
 30
0.0
 40
0
 41
0
  0
VERTEX
  8
0
 10
154.926
 20
56.1967
 30
0.0
 40
0
 41
0
  0
VERTEX
  8
0
 10
154.931
 20
56.2268
 30
0.0
 40
0
 41
0
  0
VERTEX
  8
0
 10
154.936
 20
56.2565
 30
0.0
 40
0
 41
0
  0
VERTEX
  8
0
 10
154.942
 20
56.2858
 30
0.0
 40
0
 41
0
  0
VERTEX
  8
0
 10
154.949
 20
56.3146
 30
0.0
 40
0
 41
0
  0
VERTEX
  8
0
 10
154.957
 20
56.3431
 30
0.0
 40
0
 41
0
  0
VERTEX
  8
0
 10
154.965
 20
56.3708
 30
0.0
 40
0
 41
0
  0
VERTEX
  8
0
 10
154.974
 20
56.3985
 30
0.0
 40
0
 41
0
  0
VERTEX
  8
0
 10
154.985
 20
56.4254
 30
0.0
 40
0
 41
0
  0
VERTEX
  8
0
 10
154.996
 20
56.4515
 30
0.0
 40
0
 41
0
  0
VERTEX
  8
0
 10
155.007
 20
56.4769
 30
0.0
 40
0
 41
0
  0
VERTEX
  8
0
 10
155.019
 20
56.5015
 30
0.0
 40
0
 41
0
  0
VERTEX
  8
0
 10
155.033
 20
56.5254
 30
0.0
 40
0
 41
0
  0
VERTEX
  8
0
 10
155.049
 20
56.5485
 30
0.0
 40
0
 41
0
  0
VERTEX
  8
0
 10
155.064
 20
56.5708
 30
0.0
 40
0
 41
0
  0
VERTEX
  8
0
 10
155.081
 20
56.5925
 30
0.0
 40
0
 41
0
  0
VERTEX
  8
0
 10
155.097
 20
56.6135
 30
0.0
 40
0
 41
0
  0
VERTEX
  8
0
 10
155.115
 20
56.6337
 30
0.0
 40
0
 41
0
  0
VERTEX
  8
0
 10
155.133
 20
56.6532
 30
0.0
 40
0
 41
0
  0
VERTEX
  8
0
 10
155.154
 20
56.6718
 30
0.0
 40
0
 41
0
  0
VERTEX
  8
0
 10
155.174
 20
56.6894
 30
0.0
 40
0
 41
0
  0
VERTEX
  8
0
 10
155.196
 20
56.7061
 30
0.0
 40
0
 41
0
  0
VERTEX
  8
0
 10
155.218
 20
56.7219
 30
0.0
 40
0
 41
0
  0
VERTEX
  8
0
 10
155.24
 20
56.7369
 30
0.0
 40
0
 41
0
  0
VERTEX
  8
0
 10
155.265
 20
56.751
 30
0.0
 40
0
 41
0
  0
VERTEX
  8
0
 10
155.289
 20
56.764
 30
0.0
 40
0
 41
0
  0
VERTEX
  8
0
 10
155.315
 20
56.7761
 30
0.0
 40
0
 41
0
  0
VERTEX
  8
0
 10
155.342
 20
56.7874
 30
0.0
 40
0
 41
0
  0
VERTEX
  8
0
 10
155.369
 20
56.7972
 30
0.0
 40
0
 41
0
  0
VERTEX
  8
0
 10
155.397
 20
56.8061
 30
0.0
 40
0
 41
0
  0
VERTEX
  8
0
 10
155.425
 20
56.8136
 30
0.0
 40
0
 41
0
  0
VERTEX
  8
0
 10
155.456
 20
56.8201
 30
0.0
 40
0
 41
0
  0
VERTEX
  8
0
 10
155.486
 20
56.8254
 30
0.0
 40
0
 41
0
  0
VERTEX
  8
0
 10
155.517
 20
56.8294
 30
0.0
 40
0
 41
0
  0
VERTEX
  8
0
 10
155.55
 20
56.8324
 30
0.0
 40
0
 41
0
  0
VERTEX
  8
0
 10
155.582
 20
56.8342
 30
0.0
 40
0
 41
0
  0
VERTEX
  8
0
 10
155.617
 20
56.8347
 30
0.0
 40
0
 41
0
  0
VERTEX
  8
0
 10
155.653
 20
56.8342
 30
0.0
 40
0
 41
0
  0
VERTEX
  8
0
 10
155.689
 20
56.8325
 30
0.0
 40
0
 41
0
  0
VERTEX
  8
0
 10
155.724
 20
56.8297
 30
0.0
 40
0
 41
0
  0
VERTEX
  8
0
 10
155.758
 20
56.826
 30
0.0
 40
0
 41
0
  0
VERTEX
  8
0
 10
155.793
 20
56.821
 30
0.0
 40
0
 41
0
  0
VERTEX
  8
0
 10
155.825
 20
56.8149
 30
0.0
 40
0
 41
0
  0
VERTEX
  8
0
 10
155.857
 20
56.8076
 30
0.0
 40
0
 41
0
  0
VERTEX
  8
0
 10
155.889
 20
56.7993
 30
0.0
 40
0
 41
0
  0
VERTEX
  8
0
 10
155.919
 20
56.79
 30
0.0
 40
0
 41
0
  0
VERTEX
  8
0
 10
155.95
 20
56.7794
 30
0.0
 40
0
 41
0
  0
VERTEX
  8
0
 10
155.979
 20
56.7678
 30
0.0
 40
0
 41
0
  0
VERTEX
  8
0
 10
156.007
 20
56.7551
 30
0.0
 40
0
 41
0
  0
VERTEX
  8
0
 10
156.035
 20
56.7414
 30
0.0
 40
0
 41
0
  0
VERTEX
  8
0
 10
156.061
 20
56.7265
 30
0.0
 40
0
 41
0
  0
VERTEX
  8
0
 10
156.086
 20
56.7107
 30
0.0
 40
0
 41
0
  0
VERTEX
  8
0
 10
156.111
 20
56.6936
 30
0.0
 40
0
 41
0
  0
VERTEX
  8
0
 10
156.135
 20
56.6757
 30
0.0
 40
0
 41
0
  0
VERTEX
  8
0
 10
156.158
 20
56.6565
 30
0.0
 40
0
 41
0
  0
VERTEX
  8
0
 10
156.179
 20
56.6363
 30
0.0
 40
0
 41
0
  0
VERTEX
  8
0
 10
156.2
 20
56.615
 30
0.0
 40
0
 41
0
  0
VERTEX
  8
0
 10
156.221
 20
56.5926
 30
0.0
 40
0
 41
0
  0
VERTEX
  8
0
 10
156.24
 20
56.5693
 30
0.0
 40
0
 41
0
  0
VERTEX
  8
0
 10
156.258
 20
56.5449
 30
0.0
 40
0
 41
0
  0
VERTEX
  8
0
 10
156.275
 20
56.5194
 30
0.0
 40
0
 41
0
  0
VERTEX
  8
0
 10
156.292
 20
56.4929
 30
0.0
 40
0
 41
0
  0
VERTEX
  8
0
 10
156.307
 20
56.4654
 30
0.0
 40
0
 41
0
  0
VERTEX
  8
0
 10
156.321
 20
56.4368
 30
0.0
 40
0
 41
0
  0
VERTEX
  8
0
 10
156.335
 20
56.4072
 30
0.0
 40
0
 41
0
  0
VERTEX
  8
0
 10
156.347
 20
56.3765
 30
0.0
 40
0
 41
0
  0
VERTEX
  8
0
 10
156.358
 20
56.3449
 30
0.0
 40
0
 41
0
  0
VERTEX
  8
0
 10
156.368
 20
56.3125
 30
0.0
 40
0
 41
0
  0
VERTEX
  8
0
 10
156.378
 20
56.279
 30
0.0
 40
0
 41
0
  0
VERTEX
  8
0
 10
156.386
 20
56.2447
 30
0.0
 40
0
 41
0
  0
VERTEX
  8
0
 10
156.393
 20
56.2094
 30
0.0
 40
0
 41
0
  0
VERTEX
  8
0
 10
156.399
 20
56.1732
 30
0.0
 40
0
 41
0
  0
VERTEX
  8
0
 10
156.404
 20
56.1358
 30
0.0
 40
0
 41
0
  0
VERTEX
  8
0
 10
156.407
 20
56.0976
 30
0.0
 40
0
 41
0
  0
VERTEX
  8
0
 10
156.41
 20
56.0583
 30
0.0
 40
0
 41
0
  0
VERTEX
  8
0
 10
156.411
 20
56.0182
 30
0.0
 40
0
 41
0
  0
VERTEX
  8
0
 10
156.413
 20
55.9769
 30
0.0
 40
0
 41
0
  0
VERTEX
  8
0
 10
156.413
 20
55.9604
 30
0.0
 40
0
 41
0
  0
VERTEX
  8
0
 10
156.411
 20
55.9439
 30
0.0
 40
0
 41
0
  0
VERTEX
  8
0
 10
156.411
 20
55.9274
 30
0.0
 40
0
 41
0
  0
VERTEX
  8
0
 10
156.411
 20
55.9108
 30
0.0
 40
0
 41
0
  0
VERTEX
  8
0
 10
156.41
 20
55.8944
 30
0.0
 40
0
 41
0
  0
VERTEX
  8
0
 10
156.41
 20
55.8781
 30
0.0
 40
0
 41
0
  0
VERTEX
  8
0
 10
156.408
 20
55.8617
 30
0.0
 40
0
 41
0
  0
VERTEX
  8
0
 10
156.407
 20
55.8453
 30
0.0
 40
0
 41
0
  0
VERTEX
  8
0
 10
156.406
 20
55.8289
 30
0.0
 40
0
 41
0
  0
VERTEX
  8
0
 10
156.404
 20
55.8126
 30
0.0
 40
0
 41
0
  0
VERTEX
  8
0
 10
156.403
 20
55.7967
 30
0.0
 40
0
 41
0
  0
VERTEX
  8
0
 10
156.399
 20
55.7653
 30
0.0
 40
0
 41
0
  0
VERTEX
  8
0
 10
156.396
 20
55.7496
 30
0.0
 40
0
 41
0
  0
VERTEX
  8
0
 10
156.394
 20
55.734
 30
0.0
 40
0
 41
0
  0
VERTEX
  8
0
 10
156.392
 20
55.7186
 30
0.0
 40
0
 41
0
  0
VERTEX
  8
0
 10
156.389
 20
55.7033
 30
0.0
 40
0
 41
0
  0
VERTEX
  8
0
 10
156.386
 20
55.6882
 30
0.0
 40
0
 41
0
  0
VERTEX
  8
0
 10
156.383
 20
55.6731
 30
0.0
 40
0
 41
0
  0
VERTEX
  8
0
 10
156.379
 20
55.6581
 30
0.0
 40
0
 41
0
  0
VERTEX
  8
0
 10
156.376
 20
55.6435
 30
0.0
 40
0
 41
0
  0
VERTEX
  8
0
 10
156.374
 20
55.629
 30
0.0
 40
0
 41
0
  0
VERTEX
  8
0
 10
156.369
 20
55.6146
 30
0.0
 40
0
 41
0
  0
VERTEX
  8
0
 10
156.367
 20
55.6004
 30
0.0
 40
0
 41
0
  0
VERTEX
  8
0
 10
156.362
 20
55.5864
 30
0.0
 40
0
 41
0
  0
VERTEX
  8
0
 10
156.358
 20
55.5725
 30
0.0
 40
0
 41
0
  0
VERTEX
  8
0
 10
156.354
 20
55.5586
 30
0.0
 40
0
 41
0
  0
VERTEX
  8
0
 10
156.35
 20
55.545
 30
0.0
 40
0
 41
0
  0
VERTEX
  8
0
 10
156.346
 20
55.5314
 30
0.0
 40
0
 41
0
  0
VERTEX
  8
0
 10
156.34
 20
55.5181
 30
0.0
 40
0
 41
0
  0
VERTEX
  8
0
 10
156.335
 20
55.5049
 30
0.0
 40
0
 41
0
  0
VERTEX
  8
0
 10
156.331
 20
55.4918
 30
0.0
 40
0
 41
0
  0
VERTEX
  8
0
 10
156.325
 20
55.4792
 30
0.0
 40
0
 41
0
  0
VERTEX
  8
0
 10
156.319
 20
55.4667
 30
0.0
 40
0
 41
0
  0
VERTEX
  8
0
 10
156.314
 20
55.4546
 30
0.0
 40
0
 41
0
  0
VERTEX
  8
0
 10
156.308
 20
55.4426
 30
0.0
 40
0
 41
0
  0
VERTEX
  8
0
 10
156.303
 20
55.431
 30
0.0
 40
0
 41
0
  0
VERTEX
  8
0
 10
156.296
 20
55.4196
 30
0.0
 40
0
 41
0
  0
VERTEX
  8
0
 10
156.29
 20
55.4085
 30
0.0
 40
0
 41
0
  0
VERTEX
  8
0
 10
156.283
 20
55.3976
 30
0.0
 40
0
 41
0
  0
VERTEX
  8
0
 10
156.004
 20
55.3976
 30
0.0
 40
0
 41
0
  0
VERTEX
  8
0
 10
156.011
 20
55.4085
 30
0.0
 40
0
 41
0
  0
VERTEX
  8
0
 10
156.018
 20
55.4197
 30
0.0
 40
0
 41
0
  0
VERTEX
  8
0
 10
156.025
 20
55.4314
 30
0.0
 40
0
 41
0
  0
VERTEX
  8
0
 10
156.032
 20
55.4435
 30
0.0
 40
0
 41
0
  0
VERTEX
  8
0
 10
156.039
 20
55.4558
 30
0.0
 40
0
 41
0
  0
VERTEX
  8
0
 10
156.046
 20
55.4685
 30
0.0
 40
0
 41
0
  0
VERTEX
  8
0
 10
156.051
 20
55.4815
 30
0.0
 40
0
 41
0
  0
VERTEX
  8
0
 10
156.058
 20
55.495
 30
0.0
 40
0
 41
0
  0
VERTEX
  8
0
 10
156.064
 20
55.5087
 30
0.0
 40
0
 41
0
  0
VERTEX
  8
0
 10
156.071
 20
55.5229
 30
0.0
 40
0
 41
0
  0
VERTEX
  8
0
 10
156.076
 20
55.5376
 30
0.0
 40
0
 41
0
  0
VERTEX
  8
0
 10
156.082
 20
55.5525
 30
0.0
 40
0
 41
0
  0
VERTEX
  8
0
 10
156.087
 20
55.5675
 30
0.0
 40
0
 41
0
  0
VERTEX
  8
0
 10
156.092
 20
55.5825
 30
0.0
 40
0
 41
0
  0
VERTEX
  8
0
 10
156.097
 20
55.5978
 30
0.0
 40
0
 41
0
  0
VERTEX
  8
0
 10
156.101
 20
55.6132
 30
0.0
 40
0
 41
0
  0
VERTEX
  8
0
 10
156.107
 20
55.6286
 30
0.0
 40
0
 41
0
  0
VERTEX
  8
0
 10
156.111
 20
55.6443
 30
0.0
 40
0
 41
0
  0
VERTEX
  8
0
 10
156.115
 20
55.66
 30
0.0
 40
0
 41
0
  0
VERTEX
  8
0
 10
156.119
 20
55.676
 30
0.0
 40
0
 41
0
  0
VERTEX
  8
0
 10
156.124
 20
55.6918
 30
0.0
 40
0
 41
0
  0
VERTEX
  8
0
 10
156.126
 20
55.7078
 30
0.0
 40
0
 41
0
  0
VERTEX
  8
0
 10
156.131
 20
55.7238
 30
0.0
 40
0
 41
0
  0
VERTEX
  8
0
 10
156.133
 20
55.7397
 30
0.0
 40
0
 41
0
  0
VERTEX
  8
0
 10
156.136
 20
55.7557
 30
0.0
 40
0
 41
0
  0
VERTEX
  8
0
 10
156.14
 20
55.7717
 30
0.0
 40
0
 41
0
  0
VERTEX
  8
0
 10
156.143
 20
55.7875
 30
0.0
 40
0
 41
0
  0
VERTEX
  8
0
 10
156.144
 20
55.8035
 30
0.0
 40
0
 41
0
  0
VERTEX
  8
0
 10
156.147
 20
55.8194
 30
0.0
 40
0
 41
0
  0
VERTEX
  8
0
 10
156.15
 20
55.8354
 30
0.0
 40
0
 41
0
  0
VERTEX
  8
0
 10
156.151
 20
55.8515
 30
0.0
 40
0
 41
0
  0
VERTEX
  8
0
 10
156.154
 20
55.8675
 30
0.0
 40
0
 41
0
  0
VERTEX
  8
0
 10
156.156
 20
55.8831
 30
0.0
 40
0
 41
0
  0
VERTEX
  8
0
 10
156.157
 20
55.8985
 30
0.0
 40
0
 41
0
  0
VERTEX
  8
0
 10
156.157
 20
55.9135
 30
0.0
 40
0
 41
0
  0
VERTEX
  8
0
 10
156.158
 20
55.9283
 30
0.0
 40
0
 41
0
  0
VERTEX
  8
0
 10
156.158
 20
55.9429
 30
0.0
 40
0
 41
0
  0
VERTEX
  8
0
 10
156.16
 20
55.9572
 30
0.0
 40
0
 41
0
  0
VERTEX
  8
0
 10
156.16
 20
55.9714
 30
0.0
 40
0
 41
0
  0
VERTEX
  8
0
 10
156.16
 20
55.9851
 30
0.0
 40
0
 41
0
  0
VERTEX
  8
0
 10
156.16
 20
56.0106
 30
0.0
 40
0
 41
0
  0
VERTEX
  8
0
 10
156.158
 20
56.0354
 30
0.0
 40
0
 41
0
  0
VERTEX
  8
0
 10
156.157
 20
56.0599
 30
0.0
 40
0
 41
0
  0
VERTEX
  8
0
 10
156.156
 20
56.0836
 30
0.0
 40
0
 41
0
  0
VERTEX
  8
0
 10
156.153
 20
56.1068
 30
0.0
 40
0
 41
0
  0
VERTEX
  8
0
 10
156.149
 20
56.1294
 30
0.0
 40
0
 41
0
  0
VERTEX
  8
0
 10
156.146
 20
56.1517
 30
0.0
 40
0
 41
0
  0
VERTEX
  8
0
 10
156.14
 20
56.1732
 30
0.0
 40
0
 41
0
  0
VERTEX
  8
0
 10
156.136
 20
56.1942
 30
0.0
 40
0
 41
0
  0
VERTEX
  8
0
 10
156.131
 20
56.2146
 30
0.0
 40
0
 41
0
  0
VERTEX
  8
0
 10
156.124
 20
56.2346
 30
0.0
 40
0
 41
0
  0
VERTEX
  8
0
 10
156.117
 20
56.2538
 30
0.0
 40
0
 41
0
  0
VERTEX
  8
0
 10
156.11
 20
56.2724
 30
0.0
 40
0
 41
0
  0
VERTEX
  8
0
 10
156.1
 20
56.2904
 30
0.0
 40
0
 41
0
  0
VERTEX
  8
0
 10
156.092
 20
56.3078
 30
0.0
 40
0
 41
0
  0
VERTEX
  8
0
 10
156.082
 20
56.3246
 30
0.0
 40
0
 41
0
  0
VERTEX
  8
0
 10
156.071
 20
56.3408
 30
0.0
 40
0
 41
0
  0
VERTEX
  8
0
 10
156.06
 20
56.3562
 30
0.0
 40
0
 41
0
  0
VERTEX
  8
0
 10
156.049
 20
56.3713
 30
0.0
 40
0
 41
0
  0
VERTEX
  8
0
 10
156.036
 20
56.3856
 30
0.0
 40
0
 41
0
  0
VERTEX
  8
0
 10
156.024
 20
56.3992
 30
0.0
 40
0
 41
0
  0
VERTEX
  8
0
 10
156.01
 20
56.4122
 30
0.0
 40
0
 41
0
  0
VERTEX
  8
0
 10
155.994
 20
56.4246
 30
0.0
 40
0
 41
0
  0
VERTEX
  8
0
 10
155.981
 20
56.4364
 30
0.0
 40
0
 41
0
  0
VERTEX
  8
0
 10
155.964
 20
56.4474
 30
0.0
 40
0
 41
0
  0
VERTEX
  8
0
 10
155.949
 20
56.4578
 30
0.0
 40
0
 41
0
  0
VERTEX
  8
0
 10
155.932
 20
56.4676
 30
0.0
 40
0
 41
0
  0
VERTEX
  8
0
 10
155.914
 20
56.4767
 30
0.0
 40
0
 41
0
  0
VERTEX
  8
0
 10
155.896
 20
56.4851
 30
0.0
 40
0
 41
0
  0
VERTEX
  8
0
 10
155.876
 20
56.4929
 30
0.0
 40
0
 41
0
  0
VERTEX
  8
0
 10
155.857
 20
56.5001
 30
0.0
 40
0
 41
0
  0
VERTEX
  8
0
 10
155.836
 20
56.5064
 30
0.0
 40
0
 41
0
  0
VERTEX
  8
0
 10
155.815
 20
56.5121
 30
0.0
 40
0
 41
0
  0
VERTEX
  8
0
 10
155.794
 20
56.5169
 30
0.0
 40
0
 41
0
  0
VERTEX
  8
0
 10
155.772
 20
56.521
 30
0.0
 40
0
 41
0
  0
VERTEX
  8
0
 10
155.749
 20
56.5244
 30
0.0
 40
0
 41
0
  0
VERTEX
  8
0
 10
155.725
 20
56.5271
 30
0.0
 40
0
 41
0
  0
VERTEX
  8
0
 10
155.7
 20
56.5289
 30
0.0
 40
0
 41
0
  0
VERTEX
  8
0
 10
155.675
 20
56.53
 30
0.0
 40
0
 41
0
  0
VERTEX
  8
0
 10
155.649
 20
56.5304
 30
0.0
 40
0
 41
0
  0
VERTEX
  8
0
 10
155.603
 20
56.529
 30
0.0
 40
0
 41
0
  0
VERTEX
  8
0
 10
155.56
 20
56.5247
 30
0.0
 40
0
 41
0
  0
VERTEX
  8
0
 10
155.519
 20
56.5175
 30
0.0
 40
0
 41
0
  0
VERTEX
  8
0
 10
155.481
 20
56.5075
 30
0.0
 40
0
 41
0
  0
VERTEX
  8
0
 10
155.443
 20
56.4946
 30
0.0
 40
0
 41
0
  0
VERTEX
  8
0
 10
155.41
 20
56.4789
 30
0.0
 40
0
 41
0
  0
VERTEX
  8
0
 10
155.376
 20
56.4603
 30
0.0
 40
0
 41
0
  0
VERTEX
  8
0
 10
155.347
 20
56.4388
 30
0.0
 40
0
 41
0
  0
VERTEX
  8
0
 10
155.319
 20
56.4144
 30
0.0
 40
0
 41
0
  0
VERTEX
  8
0
 10
155.294
 20
56.3872
 30
0.0
 40
0
 41
0
  0
VERTEX
  8
0
 10
155.271
 20
56.3572
 30
0.0
 40
0
 41
0
  0
VERTEX
  8
0
 10
155.249
 20
56.3247
 30
0.0
 40
0
 41
0
  0
VERTEX
  8
0
 10
155.231
 20
56.2894
 30
0.0
 40
0
 41
0
  0
VERTEX
  8
0
 10
155.215
 20
56.2518
 30
0.0
 40
0
 41
0
  0
VERTEX
  8
0
 10
155.201
 20
56.2114
 30
0.0
 40
0
 41
0
  0
VERTEX
  8
0
 10
155.19
 20
56.1685
 30
0.0
 40
0
 41
0
  0
VERTEX
  8
0
 10
155.182
 20
56.1228
 30
0.0
 40
0
 41
0
  0
VERTEX
  8
0
 10
155.175
 20
56.0747
 30
0.0
 40
0
 41
0
  0
VERTEX
  8
0
 10
155.171
 20
56.0239
 30
0.0
 40
0
 41
0
  0
VERTEX
  8
0
 10
155.171
 20
55.9706
 30
0.0
 40
0
 41
0
  0
VERTEX
  8
0
 10
155.171
 20
55.9617
 30
0.0
 40
0
 41
0
  0
VERTEX
  8
0
 10
155.171
 20
55.9526
 30
0.0
 40
0
 41
0
  0
VERTEX
  8
0
 10
155.171
 20
55.9433
 30
0.0
 40
0
 41
0
  0
VERTEX
  8
0
 10
155.171
 20
55.934
 30
0.0
 40
0
 41
0
  0
VERTEX
  8
0
 10
155.171
 20
55.9246
 30
0.0
 40
0
 41
0
  0
VERTEX
  8
0
 10
155.172
 20
55.9149
 30
0.0
 40
0
 41
0
  0
VERTEX
  8
0
 10
155.172
 20
55.905
 30
0.0
 40
0
 41
0
  0
VERTEX
  8
0
 10
155.174
 20
55.895
 30
0.0
 40
0
 41
0
  0
VERTEX
  8
0
 10
155.174
 20
55.8849
 30
0.0
 40
0
 41
0
  0
VERTEX
  8
0
 10
155.175
 20
55.8744
 30
0.0
 40
0
 41
0
  0
VERTEX
  8
0
 10
155.175
 20
55.8643
 30
0.0
 40
0
 41
0
  0
VERTEX
  8
0
 10
155.176
 20
55.8542
 30
0.0
 40
0
 41
0
  0
VERTEX
  8
0
 10
155.178
 20
55.8339
 30
0.0
 40
0
 41
0
  0
VERTEX
  8
0
 10
155.179
 20
55.8236
 30
0.0
 40
0
 41
0
  0
VERTEX
  8
0
 10
155.181
 20
55.8133
 30
0.0
 40
0
 41
0
  0
VERTEX
  8
0
 10
155.182
 20
55.8031
 30
0.0
 40
0
 41
0
  0
VERTEX
  8
0
 10
155.182
 20
55.7926
 30
0.0
 40
0
 41
0
  0
VERTEX
  8
0
 10
155.183
 20
55.7824
 30
0.0
 40
0
 41
0
  0
VERTEX
  8
0
 10
155.185
 20
55.7719
 30
0.0
 40
0
 41
0
  0
VERTEX
  8
0
 10
155.186
 20
55.7618
 30
0.0
 40
0
 41
0
  0
VERTEX
  8
0
 10
155.188
 20
55.7519
 30
0.0
 40
0
 41
0
  0
VERTEX
  8
0
 10
155.189
 20
55.7419
 30
0.0
 40
0
 41
0
  0
VERTEX
  8
0
 10
155.19
 20
55.7321
 30
0.0
 40
0
 41
0
  0
VERTEX
  8
0
 10
155.192
 20
55.7222
 30
0.0
 40
0
 41
0
  0
VERTEX
  8
0
 10
155.193
 20
55.7125
 30
0.0
 40
0
 41
0
  0
VERTEX
  8
0
 10
155.196
 20
55.6933
 30
0.0
 40
0
 41
0
  0
VERTEX
  8
0
 10
155.199
 20
55.6838
 30
0.0
 40
0
 41
0
  0
VERTEX
  8
0
 10
155.2
 20
55.6743
 30
0.0
 40
0
 41
0
  0
VERTEX
  8
0
 10
155.201
 20
55.6653
 30
0.0
 40
0
 41
0
  0
VERTEX
  8
0
 10
155.203
 20
55.6565
 30
0.0
 40
0
 41
0
  0
VERTEX
  8
0
 10
155.203
 20
55.6479
 30
0.0
 40
0
 41
0
  0
VERTEX
  8
0
 10
155.204
 20
55.6396
 30
0.0
 40
0
 41
0
  0
VERTEX
  8
0
 10
155.206
 20
55.6315
 30
0.0
 40
0
 41
0
  0
VERTEX
  8
0
 10
155.207
 20
55.6237
 30
0.0
 40
0
 41
0
  0
VERTEX
  8
0
 10
155.208
 20
55.6161
 30
0.0
 40
0
 41
0
  0
VERTEX
  8
0
 10
155.21
 20
55.6086
 30
0.0
 40
0
 41
0
  0
VERTEX
  8
0
 10
155.211
 20
55.6015
 30
0.0
 40
0
 41
0
  0
VERTEX
  8
0
 10
155.212
 20
55.5946
 30
0.0
 40
0
 41
0
  0
VERTEX
  8
0
 10
155.119
 20
55.4481
 30
0.0
 40
0
 41
0
  0
VERTEX
  8
0
 10
154
 20
55.5375
 30
0.0
 40
0
 41
0
  0
VERTEX
  8
0
 10
154
 20
56.6606
 30
0.0
 40
0
 41
0
  0
VERTEX
  8
0
 10
154.269
 20
56.6606
 30
0.0
 40
0
 41
0
  0
VERTEX
  8
0
 10
154.269
 20
55.7947
 30
0.0
 40
0
 41
0
  0
VERTEX
  8
0
 10
154.953
 20
55.7312
 30
0.0
 40
0
 41
0
  0
VERTEX
  8
0
 10
154.95
 20
55.7419
 30
0.0
 40
0
 41
0
  0
VERTEX
  8
0
 10
154.949
 20
55.7533
 30
0.0
 40
0
 41
0
  0
VERTEX
  8
0
 10
154.946
 20
55.7654
 30
0.0
 40
0
 41
0
  0
VERTEX
  8
0
 10
154.944
 20
55.7781
 30
0.0
 40
0
 41
0
  0
VERTEX
  8
0
 10
154.942
 20
55.7915
 30
0.0
 40
0
 41
0
  0
VERTEX
  8
0
 10
154.94
 20
55.8054
 30
0.0
 40
0
 41
0
  0
VERTEX
  8
0
 10
154.938
 20
55.8201
 30
0.0
 40
0
 41
0
  0
VERTEX
  8
0
 10
154.936
 20
55.8354
 30
0.0
 40
0
 41
0
  0
VERTEX
  8
0
 10
154.933
 20
55.8514
 30
0.0
 40
0
 41
0
  0
VERTEX
  8
0
 10
154.931
 20
55.8679
 30
0.0
 40
0
 41
0
  0
VERTEX
  8
0
 10
154.929
 20
55.8856
 30
0.0
 40
0
 41
0
  0
VERTEX
  8
0
 10
154.926
 20
55.9038
 30
0.0
 40
0
 41
0
  0
VERTEX
  8
0
 10
154.925
 20
55.9225
 30
0.0
 40
0
 41
0
  0
VERTEX
  8
0
 10
154.924
 20
55.9419
 30
0.0
 40
0
 41
0
  0
VERTEX
  8
0
 10
154.922
 20
55.9619
 30
0.0
 40
0
 41
0
  0
VERTEX
  8
0
 10
154.921
 20
55.9826
 30
0.0
 40
0
 41
0
  0
VERTEX
  8
0
 10
154.921
 20
56.0039
 30
0.0
 40
0
 41
0
  0
VERTEX
  8
0
 10
154.919
 20
56.0258
 30
0.0
 40
0
 41
0
  0
VERTEX
  8
0
 10
154.919
 20
56.0483
 30
0.0
 40
0
 41
0
  0
VERTEX
  8
0
 10
154.919
 20
56.0714
 30
0.0
 40
0
 41
0
  0
SEQEND
 8
0
  0
POLYLINE
  8
0
 62
     0
 66
     1
 10
0
 20
0
 30
0.0
 70
     1
 40
0
 41
0
  0
VERTEX
  8
0
 10
156.679
 20
58.3972
 30
0.0
 40
0
 41
0
  0
VERTEX
  8
0
 10
156.907
 20
58.3972
 30
0.0
 40
0
 41
0
  0
VERTEX
  8
0
 10
156.907
 20
57.0138
 30
0.0
 40
0
 41
0
  0
VERTEX
  8
0
 10
156.679
 20
57.0138
 30
0.0
 40
0
 41
0
  0
VERTEX
  8
0
 10
156.679
 20
58.3972
 30
0.0
 40
0
 41
0
  0
SEQEND
 8
0
  0
POLYLINE
  8
0
 62
     0
 66
     1
 10
0
 20
0
 30
0.0
 70
     1
 40
0
 41
0
  0
VERTEX
  8
0
 10
154.919
 20
59.2778
 30
0.0
 40
0
 41
0
  0
VERTEX
  8
0
 10
154.919
 20
59.3097
 30
0.0
 40
0
 41
0
  0
VERTEX
  8
0
 10
154.921
 20
59.3414
 30
0.0
 40
0
 41
0
  0
VERTEX
  8
0
 10
154.924
 20
59.3724
 30
0.0
 40
0
 41
0
  0
VERTEX
  8
0
 10
154.926
 20
59.4031
 30
0.0
 40
0
 41
0
  0
VERTEX
  8
0
 10
154.931
 20
59.4332
 30
0.0
 40
0
 41
0
  0
VERTEX
  8
0
 10
154.936
 20
59.4629
 30
0.0
 40
0
 41
0
  0
VERTEX
  8
0
 10
154.942
 20
59.4922
 30
0.0
 40
0
 41
0
  0
VERTEX
  8
0
 10
154.949
 20
59.521
 30
0.0
 40
0
 41
0
  0
VERTEX
  8
0
 10
154.957
 20
59.5493
 30
0.0
 40
0
 41
0
  0
VERTEX
  8
0
 10
154.965
 20
59.5772
 30
0.0
 40
0
 41
0
  0
VERTEX
  8
0
 10
154.974
 20
59.6049
 30
0.0
 40
0
 41
0
  0
VERTEX
  8
0
 10
154.985
 20
59.6318
 30
0.0
 40
0
 41
0
  0
VERTEX
  8
0
 10
154.996
 20
59.6579
 30
0.0
 40
0
 41
0
  0
VERTEX
  8
0
 10
155.007
 20
59.6832
 30
0.0
 40
0
 41
0
  0
VERTEX
  8
0
 10
155.019
 20
59.7079
 30
0.0
 40
0
 41
0
  0
VERTEX
  8
0
 10
155.033
 20
59.7318
 30
0.0
 40
0
 41
0
  0
VERTEX
  8
0
 10
155.049
 20
59.7549
 30
0.0
 40
0
 41
0
  0
VERTEX
  8
0
 10
155.064
 20
59.7772
 30
0.0
 40
0
 41
0
  0
VERTEX
  8
0
 10
155.081
 20
59.7989
 30
0.0
 40
0
 41
0
  0
VERTEX
  8
0
 10
155.097
 20
59.8197
 30
0.0
 40
0
 41
0
  0
VERTEX
  8
0
 10
155.115
 20
59.8401
 30
0.0
 40
0
 41
0
  0
VERTEX
  8
0
 10
155.133
 20
59.8596
 30
0.0
 40
0
 41
0
  0
VERTEX
  8
0
 10
155.154
 20
59.8782
 30
0.0
 40
0
 41
0
  0
VERTEX
  8
0
 10
155.174
 20
59.8958
 30
0.0
 40
0
 41
0
  0
VERTEX
  8
0
 10
155.196
 20
59.9125
 30
0.0
 40
0
 41
0
  0
VERTEX
  8
0
 10
155.218
 20
59.9283
 30
0.0
 40
0
 41
0
  0
VERTEX
  8
0
 10
155.24
 20
59.9433
 30
0.0
 40
0
 41
0
  0
VERTEX
  8
0
 10
155.265
 20
59.9572
 30
0.0
 40
0
 41
0
  0
VERTEX
  8
0
 10
155.289
 20
59.9704
 30
0.0
 40
0
 41
0
  0
VERTEX
  8
0
 10
155.315
 20
59.9825
 30
0.0
 40
0
 41
0
  0
VERTEX
  8
0
 10
155.342
 20
59.9936
 30
0.0
 40
0
 41
0
  0
VERTEX
  8
0
 10
155.369
 20
60.0036
 30
0.0
 40
0
 41
0
  0
VERTEX
  8
0
 10
155.397
 20
60.0124
 30
0.0
 40
0
 41
0
  0
VERTEX
  8
0
 10
155.425
 20
60.02
 30
0.0
 40
0
 41
0
  0
VERTEX
  8
0
 10
155.456
 20
60.0265
 30
0.0
 40
0
 41
0
  0
VERTEX
  8
0
 10
155.486
 20
60.0318
 30
0.0
 40
0
 41
0
  0
VERTEX
  8
0
 10
155.517
 20
60.0358
 30
0.0
 40
0
 41
0
  0
VERTEX
  8
0
 10
155.55
 20
60.0388
 30
0.0
 40
0
 41
0
  0
VERTEX
  8
0
 10
155.582
 20
60.0406
 30
0.0
 40
0
 41
0
  0
VERTEX
  8
0
 10
155.617
 20
60.0411
 30
0.0
 40
0
 41
0
  0
VERTEX
  8
0
 10
155.653
 20
60.0406
 30
0.0
 40
0
 41
0
  0
VERTEX
  8
0
 10
155.689
 20
60.0389
 30
0.0
 40
0
 41
0
  0
VERTEX
  8
0
 10
155.724
 20
60.0361
 30
0.0
 40
0
 41
0
  0
VERTEX
  8
0
 10
155.758
 20
60.0322
 30
0.0
 40
0
 41
0
  0
VERTEX
  8
0
 10
155.793
 20
60.0274
 30
0.0
 40
0
 41
0
  0
VERTEX
  8
0
 10
155.825
 20
60.0212
 30
0.0
 40
0
 41
0
  0
VERTEX
  8
0
 10
155.857
 20
60.014
 30
0.0
 40
0
 41
0
  0
VERTEX
  8
0
 10
155.889
 20
60.0057
 30
0.0
 40
0
 41
0
  0
VERTEX
  8
0
 10
155.919
 20
59.9963
 30
0.0
 40
0
 41
0
  0
VERTEX
  8
0
 10
155.95
 20
59.9858
 30
0.0
 40
0
 41
0
  0
VERTEX
  8
0
 10
155.979
 20
59.9742
 30
0.0
 40
0
 41
0
  0
VERTEX
  8
0
 10
156.007
 20
59.9615
 30
0.0
 40
0
 41
0
  0
VERTEX
  8
0
 10
156.035
 20
59.9478
 30
0.0
 40
0
 41
0
  0
VERTEX
  8
0
 10
156.061
 20
59.9329
 30
0.0
 40
0
 41
0
  0
VERTEX
  8
0
 10
156.086
 20
59.9171
 30
0.0
 40
0
 41
0
  0
VERTEX
  8
0
 10
156.111
 20
59.9
 30
0.0
 40
0
 41
0
  0
VERTEX
  8
0
 10
156.135
 20
59.8819
 30
0.0
 40
0
 41
0
  0
VERTEX
  8
0
 10
156.158
 20
59.8629
 30
0.0
 40
0
 41
0
  0
VERTEX
  8
0
 10
156.179
 20
59.8426
 30
0.0
 40
0
 41
0
  0
VERTEX
  8
0
 10
156.2
 20
59.8214
 30
0.0
 40
0
 41
0
  0
VERTEX
  8
0
 10
156.221
 20
59.799
 30
0.0
 40
0
 41
0
  0
VERTEX
  8
0
 10
156.24
 20
59.7757
 30
0.0
 40
0
 41
0
  0
VERTEX
  8
0
 10
156.258
 20
59.7512
 30
0.0
 40
0
 41
0
  0
VERTEX
  8
0
 10
156.275
 20
59.7258
 30
0.0
 40
0
 41
0
  0
VERTEX
  8
0
 10
156.292
 20
59.6993
 30
0.0
 40
0
 41
0
  0
VERTEX
  8
0
 10
156.307
 20
59.6718
 30
0.0
 40
0
 41
0
  0
VERTEX
  8
0
 10
156.321
 20
59.6432
 30
0.0
 40
0
 41
0
  0
VERTEX
  8
0
 10
156.335
 20
59.6136
 30
0.0
 40
0
 41
0
  0
VERTEX
  8
0
 10
156.347
 20
59.5829
 30
0.0
 40
0
 41
0
  0
VERTEX
  8
0
 10
156.358
 20
59.5512
 30
0.0
 40
0
 41
0
  0
VERTEX
  8
0
 10
156.368
 20
59.5189
 30
0.0
 40
0
 41
0
  0
VERTEX
  8
0
 10
156.378
 20
59.4854
 30
0.0
 40
0
 41
0
  0
VERTEX
  8
0
 10
156.386
 20
59.4511
 30
0.0
 40
0
 41
0
  0
VERTEX
  8
0
 10
156.393
 20
59.4158
 30
0.0
 40
0
 41
0
  0
VERTEX
  8
0
 10
156.399
 20
59.3796
 30
0.0
 40
0
 41
0
  0
VERTEX
  8
0
 10
156.404
 20
59.3422
 30
0.0
 40
0
 41
0
  0
VERTEX
  8
0
 10
156.407
 20
59.304
 30
0.0
 40
0
 41
0
  0
VERTEX
  8
0
 10
156.41
 20
59.2647
 30
0.0
 40
0
 41
0
  0
VERTEX
  8
0
 10
156.411
 20
59.2246
 30
0.0
 40
0
 41
0
  0
VERTEX
  8
0
 10
156.413
 20
59.1833
 30
0.0
 40
0
 41
0
  0
VERTEX
  8
0
 10
156.413
 20
59.1668
 30
0.0
 40
0
 41
0
  0
VERTEX
  8
0
 10
156.411
 20
59.1503
 30
0.0
 40
0
 41
0
  0
VERTEX
  8
0
 10
156.411
 20
59.1337
 30
0.0
 40
0
 41
0
  0
VERTEX
  8
0
 10
156.411
 20
59.1172
 30
0.0
 40
0
 41
0
  0
VERTEX
  8
0
 10
156.41
 20
59.1008
 30
0.0
 40
0
 41
0
  0
VERTEX
  8
0
 10
156.41
 20
59.0843
 30
0.0
 40
0
 41
0
  0
VERTEX
  8
0
 10
156.408
 20
59.0679
 30
0.0
 40
0
 41
0
  0
VERTEX
  8
0
 10
156.407
 20
59.0517
 30
0.0
 40
0
 41
0
  0
VERTEX
  8
0
 10
156.406
 20
59.0353
 30
0.0
 40
0
 41
0
  0
VERTEX
  8
0
 10
156.404
 20
59.019
 30
0.0
 40
0
 41
0
  0
VERTEX
  8
0
 10
156.403
 20
59.0031
 30
0.0
 40
0
 41
0
  0
VERTEX
  8
0
 10
156.4
 20
58.9874
 30
0.0
 40
0
 41
0
  0
VERTEX
  8
0
 10
156.399
 20
58.9715
 30
0.0
 40
0
 41
0
  0
VERTEX
  8
0
 10
156.396
 20
58.956
 30
0.0
 40
0
 41
0
  0
VERTEX
  8
0
 10
156.394
 20
58.9404
 30
0.0
 40
0
 41
0
  0
VERTEX
  8
0
 10
156.392
 20
58.925
 30
0.0
 40
0
 41
0
  0
VERTEX
  8
0
 10
156.389
 20
58.9097
 30
0.0
 40
0
 41
0
  0
VERTEX
  8
0
 10
156.386
 20
58.8946
 30
0.0
 40
0
 41
0
  0
VERTEX
  8
0
 10
156.383
 20
58.8794
 30
0.0
 40
0
 41
0
  0
VERTEX
  8
0
 10
156.379
 20
58.8644
 30
0.0
 40
0
 41
0
  0
VERTEX
  8
0
 10
156.376
 20
58.8499
 30
0.0
 40
0
 41
0
  0
VERTEX
  8
0
 10
156.374
 20
58.8353
 30
0.0
 40
0
 41
0
  0
VERTEX
  8
0
 10
156.369
 20
58.821
 30
0.0
 40
0
 41
0
  0
VERTEX
  8
0
 10
156.367
 20
58.8068
 30
0.0
 40
0
 41
0
  0
VERTEX
  8
0
 10
156.362
 20
58.7928
 30
0.0
 40
0
 41
0
  0
VERTEX
  8
0
 10
156.358
 20
58.7789
 30
0.0
 40
0
 41
0
  0
VERTEX
  8
0
 10
156.354
 20
58.765
 30
0.0
 40
0
 41
0
  0
VERTEX
  8
0
 10
156.35
 20
58.7514
 30
0.0
 40
0
 41
0
  0
VERTEX
  8
0
 10
156.346
 20
58.7378
 30
0.0
 40
0
 41
0
  0
VERTEX
  8
0
 10
156.34
 20
58.7244
 30
0.0
 40
0
 41
0
  0
VERTEX
  8
0
 10
156.335
 20
58.7112
 30
0.0
 40
0
 41
0
  0
VERTEX
  8
0
 10
156.331
 20
58.6982
 30
0.0
 40
0
 41
0
  0
VERTEX
  8
0
 10
156.325
 20
58.6856
 30
0.0
 40
0
 41
0
  0
VERTEX
  8
0
 10
156.319
 20
58.6731
 30
0.0
 40
0
 41
0
  0
VERTEX
  8
0
 10
156.314
 20
58.661
 30
0.0
 40
0
 41
0
  0
VERTEX
  8
0
 10
156.308
 20
58.649
 30
0.0
 40
0
 41
0
  0
VERTEX
  8
0
 10
156.303
 20
58.6374
 30
0.0
 40
0
 41
0
  0
VERTEX
  8
0
 10
156.296
 20
58.626
 30
0.0
 40
0
 41
0
  0
VERTEX
  8
0
 10
156.29
 20
58.6149
 30
0.0
 40
0
 41
0
  0
VERTEX
  8
0
 10
156.283
 20
58.604
 30
0.0
 40
0
 41
0
  0
VERTEX
  8
0
 10
156.004
 20
58.604
 30
0.0
 40
0
 41
0
  0
VERTEX
  8
0
 10
156.011
 20
58.6149
 30
0.0
 40
0
 41
0
  0
VERTEX
  8
0
 10
156.018
 20
58.6261
 30
0.0
 40
0
 41
0
  0
VERTEX
  8
0
 10
156.025
 20
58.6378
 30
0.0
 40
0
 41
0
  0
VERTEX
  8
0
 10
156.032
 20
58.6499
 30
0.0
 40
0
 41
0
  0
VERTEX
  8
0
 10
156.039
 20
58.6621
 30
0.0
 40
0
 41
0
  0
VERTEX
  8
0
 10
156.046
 20
58.6749
 30
0.0
 40
0
 41
0
  0
VERTEX
  8
0
 10
156.051
 20
58.6879
 30
0.0
 40
0
 41
0
  0
VERTEX
  8
0
 10
156.058
 20
58.7014
 30
0.0
 40
0
 41
0
  0
VERTEX
  8
0
 10
156.064
 20
58.7151
 30
0.0
 40
0
 41
0
  0
VERTEX
  8
0
 10
156.071
 20
58.7293
 30
0.0
 40
0
 41
0
  0
VERTEX
  8
0
 10
156.076
 20
58.744
 30
0.0
 40
0
 41
0
  0
VERTEX
  8
0
 10
156.082
 20
58.7589
 30
0.0
 40
0
 41
0
  0
VERTEX
  8
0
 10
156.087
 20
58.7739
 30
0.0
 40
0
 41
0
  0
VERTEX
  8
0
 10
156.092
 20
58.7889
 30
0.0
 40
0
 41
0
  0
VERTEX
  8
0
 10
156.097
 20
58.8042
 30
0.0
 40
0
 41
0
  0
VERTEX
  8
0
 10
156.101
 20
58.8196
 30
0.0
 40
0
 41
0
  0
VERTEX
  8
0
 10
156.107
 20
58.835
 30
0.0
 40
0
 41
0
  0
VERTEX
  8
0
 10
156.111
 20
58.8507
 30
0.0
 40
0
 41
0
  0
VERTEX
  8
0
 10
156.115
 20
58.8664
 30
0.0
 40
0
 41
0
  0
VERTEX
  8
0
 10
156.119
 20
58.8822
 30
0.0
 40
0
 41
0
  0
VERTEX
  8
0
 10
156.124
 20
58.8982
 30
0.0
 40
0
 41
0
  0
VERTEX
  8
0
 10
156.126
 20
58.9142
 30
0.0
 40
0
 41
0
  0
VERTEX
  8
0
 10
156.131
 20
58.9301
 30
0.0
 40
0
 41
0
  0
VERTEX
  8
0
 10
156.133
 20
58.9461
 30
0.0
 40
0
 41
0
  0
VERTEX
  8
0
 10
156.136
 20
58.9621
 30
0.0
 40
0
 41
0
  0
VERTEX
  8
0
 10
156.14
 20
58.9781
 30
0.0
 40
0
 41
0
  0
VERTEX
  8
0
 10
156.143
 20
58.9939
 30
0.0
 40
0
 41
0
  0
VERTEX
  8
0
 10
156.144
 20
59.0099
 30
0.0
 40
0
 41
0
  0
VERTEX
  8
0
 10
156.147
 20
59.0258
 30
0.0
 40
0
 41
0
  0
VERTEX
  8
0
 10
156.15
 20
59.0418
 30
0.0
 40
0
 41
0
  0
VERTEX
  8
0
 10
156.151
 20
59.0579
 30
0.0
 40
0
 41
0
  0
VERTEX
  8
0
 10
156.154
 20
59.0739
 30
0.0
 40
0
 41
0
  0
VERTEX
  8
0
 10
156.156
 20
59.0894
 30
0.0
 40
0
 41
0
  0
VERTEX
  8
0
 10
156.157
 20
59.1049
 30
0.0
 40
0
 41
0
  0
VERTEX
  8
0
 10
156.157
 20
59.1199
 30
0.0
 40
0
 41
0
  0
VERTEX
  8
0
 10
156.158
 20
59.1347
 30
0.0
 40
0
 41
0
  0
VERTEX
  8
0
 10
156.158
 20
59.1493
 30
0.0
 40
0
 41
0
  0
VERTEX
  8
0
 10
156.16
 20
59.1636
 30
0.0
 40
0
 41
0
  0
VERTEX
  8
0
 10
156.16
 20
59.1778
 30
0.0
 40
0
 41
0
  0
VERTEX
  8
0
 10
156.16
 20
59.1915
 30
0.0
 40
0
 41
0
  0
VERTEX
  8
0
 10
156.16
 20
59.2169
 30
0.0
 40
0
 41
0
  0
VERTEX
  8
0
 10
156.158
 20
59.2418
 30
0.0
 40
0
 41
0
  0
VERTEX
  8
0
 10
156.157
 20
59.2662
 30
0.0
 40
0
 41
0
  0
VERTEX
  8
0
 10
156.156
 20
59.29
 30
0.0
 40
0
 41
0
  0
VERTEX
  8
0
 10
156.153
 20
59.3132
 30
0.0
 40
0
 41
0
  0
VERTEX
  8
0
 10
156.149
 20
59.3358
 30
0.0
 40
0
 41
0
  0
VERTEX
  8
0
 10
156.146
 20
59.3579
 30
0.0
 40
0
 41
0
  0
VERTEX
  8
0
 10
156.14
 20
59.3796
 30
0.0
 40
0
 41
0
  0
VERTEX
  8
0
 10
156.136
 20
59.4006
 30
0.0
 40
0
 41
0
  0
VERTEX
  8
0
 10
156.131
 20
59.421
 30
0.0
 40
0
 41
0
  0
VERTEX
  8
0
 10
156.124
 20
59.4408
 30
0.0
 40
0
 41
0
  0
VERTEX
  8
0
 10
156.117
 20
59.4601
 30
0.0
 40
0
 41
0
  0
VERTEX
  8
0
 10
156.11
 20
59.4788
 30
0.0
 40
0
 41
0
  0
VERTEX
  8
0
 10
156.1
 20
59.4968
 30
0.0
 40
0
 41
0
  0
VERTEX
  8
0
 10
156.092
 20
59.5142
 30
0.0
 40
0
 41
0
  0
VERTEX
  8
0
 10
156.082
 20
59.531
 30
0.0
 40
0
 41
0
  0
VERTEX
  8
0
 10
156.071
 20
59.5471
 30
0.0
 40
0
 41
0
  0
VERTEX
  8
0
 10
156.06
 20
59.5626
 30
0.0
 40
0
 41
0
  0
VERTEX
  8
0
 10
156.049
 20
59.5776
 30
0.0
 40
0
 41
0
  0
VERTEX
  8
0
 10
156.036
 20
59.5919
 30
0.0
 40
0
 41
0
  0
VERTEX
  8
0
 10
156.024
 20
59.6056
 30
0.0
 40
0
 41
0
  0
VERTEX
  8
0
 10
156.01
 20
59.6186
 30
0.0
 40
0
 41
0
  0
VERTEX
  8
0
 10
155.994
 20
59.631
 30
0.0
 40
0
 41
0
  0
VERTEX
  8
0
 10
155.981
 20
59.6426
 30
0.0
 40
0
 41
0
  0
VERTEX
  8
0
 10
155.964
 20
59.6537
 30
0.0
 40
0
 41
0
  0
VERTEX
  8
0
 10
155.949
 20
59.6642
 30
0.0
 40
0
 41
0
  0
VERTEX
  8
0
 10
155.932
 20
59.6739
 30
0.0
 40
0
 41
0
  0
VERTEX
  8
0
 10
155.914
 20
59.6831
 30
0.0
 40
0
 41
0
  0
VERTEX
  8
0
 10
155.896
 20
59.6915
 30
0.0
 40
0
 41
0
  0
VERTEX
  8
0
 10
155.876
 20
59.6993
 30
0.0
 40
0
 41
0
  0
VERTEX
  8
0
 10
155.857
 20
59.7064
 30
0.0
 40
0
 41
0
  0
VERTEX
  8
0
 10
155.836
 20
59.7128
 30
0.0
 40
0
 41
0
  0
VERTEX
  8
0
 10
155.815
 20
59.7185
 30
0.0
 40
0
 41
0
  0
VERTEX
  8
0
 10
155.794
 20
59.7233
 30
0.0
 40
0
 41
0
  0
VERTEX
  8
0
 10
155.772
 20
59.7274
 30
0.0
 40
0
 41
0
  0
VERTEX
  8
0
 10
155.749
 20
59.7308
 30
0.0
 40
0
 41
0
  0
VERTEX
  8
0
 10
155.725
 20
59.7335
 30
0.0
 40
0
 41
0
  0
VERTEX
  8
0
 10
155.7
 20
59.7353
 30
0.0
 40
0
 41
0
  0
VERTEX
  8
0
 10
155.675
 20
59.7364
 30
0.0
 40
0
 41
0
  0
VERTEX
  8
0
 10
155.649
 20
59.7368
 30
0.0
 40
0
 41
0
  0
VERTEX
  8
0
 10
155.603
 20
59.7353
 30
0.0
 40
0
 41
0
  0
VERTEX
  8
0
 10
155.56
 20
59.7311
 30
0.0
 40
0
 41
0
  0
VERTEX
  8
0
 10
155.519
 20
59.7239
 30
0.0
 40
0
 41
0
  0
VERTEX
  8
0
 10
155.481
 20
59.7139
 30
0.0
 40
0
 41
0
  0
VERTEX
  8
0
 10
155.443
 20
59.701
 30
0.0
 40
0
 41
0
  0
VERTEX
  8
0
 10
155.41
 20
59.6853
 30
0.0
 40
0
 41
0
  0
VERTEX
  8
0
 10
155.376
 20
59.6665
 30
0.0
 40
0
 41
0
  0
VERTEX
  8
0
 10
155.347
 20
59.6451
 30
0.0
 40
0
 41
0
  0
VERTEX
  8
0
 10
155.319
 20
59.6207
 30
0.0
 40
0
 41
0
  0
VERTEX
  8
0
 10
155.294
 20
59.5936
 30
0.0
 40
0
 41
0
  0
VERTEX
  8
0
 10
155.271
 20
59.5636
 30
0.0
 40
0
 41
0
  0
VERTEX
  8
0
 10
155.249
 20
59.5311
 30
0.0
 40
0
 41
0
  0
VERTEX
  8
0
 10
155.231
 20
59.4958
 30
0.0
 40
0
 41
0
  0
VERTEX
  8
0
 10
155.215
 20
59.4582
 30
0.0
 40
0
 41
0
  0
VERTEX
  8
0
 10
155.201
 20
59.4178
 30
0.0
 40
0
 41
0
  0
VERTEX
  8
0
 10
155.19
 20
59.3749
 30
0.0
 40
0
 41
0
  0
VERTEX
  8
0
 10
155.182
 20
59.3292
 30
0.0
 40
0
 41
0
  0
VERTEX
  8
0
 10
155.175
 20
59.2811
 30
0.0
 40
0
 41
0
  0
VERTEX
  8
0
 10
155.171
 20
59.2303
 30
0.0
 40
0
 41
0
  0
VERTEX
  8
0
 10
155.171
 20
59.1769
 30
0.0
 40
0
 41
0
  0
VERTEX
  8
0
 10
155.171
 20
59.1681
 30
0.0
 40
0
 41
0
  0
VERTEX
  8
0
 10
155.171
 20
59.159
 30
0.0
 40
0
 41
0
  0
VERTEX
  8
0
 10
155.171
 20
59.1497
 30
0.0
 40
0
 41
0
  0
VERTEX
  8
0
 10
155.171
 20
59.1404
 30
0.0
 40
0
 41
0
  0
VERTEX
  8
0
 10
155.171
 20
59.1308
 30
0.0
 40
0
 41
0
  0
VERTEX
  8
0
 10
155.172
 20
59.1213
 30
0.0
 40
0
 41
0
  0
VERTEX
  8
0
 10
155.172
 20
59.1114
 30
0.0
 40
0
 41
0
  0
VERTEX
  8
0
 10
155.174
 20
59.1014
 30
0.0
 40
0
 41
0
  0
VERTEX
  8
0
 10
155.174
 20
59.0912
 30
0.0
 40
0
 41
0
  0
VERTEX
  8
0
 10
155.175
 20
59.0808
 30
0.0
 40
0
 41
0
  0
VERTEX
  8
0
 10
155.175
 20
59.0707
 30
0.0
 40
0
 41
0
  0
VERTEX
  8
0
 10
155.176
 20
59.0606
 30
0.0
 40
0
 41
0
  0
VERTEX
  8
0
 10
155.178
 20
59.0403
 30
0.0
 40
0
 41
0
  0
VERTEX
  8
0
 10
155.179
 20
59.03
 30
0.0
 40
0
 41
0
  0
VERTEX
  8
0
 10
155.181
 20
59.0197
 30
0.0
 40
0
 41
0
  0
VERTEX
  8
0
 10
155.182
 20
59.0094
 30
0.0
 40
0
 41
0
  0
VERTEX
  8
0
 10
155.182
 20
58.999
 30
0.0
 40
0
 41
0
  0
VERTEX
  8
0
 10
155.183
 20
58.9887
 30
0.0
 40
0
 41
0
  0
VERTEX
  8
0
 10
155.185
 20
58.9783
 30
0.0
 40
0
 41
0
  0
VERTEX
  8
0
 10
155.186
 20
58.9682
 30
0.0
 40
0
 41
0
  0
VERTEX
  8
0
 10
155.188
 20
58.9582
 30
0.0
 40
0
 41
0
  0
VERTEX
  8
0
 10
155.189
 20
58.9483
 30
0.0
 40
0
 41
0
  0
VERTEX
  8
0
 10
155.19
 20
58.9385
 30
0.0
 40
0
 41
0
  0
VERTEX
  8
0
 10
155.192
 20
58.9286
 30
0.0
 40
0
 41
0
  0
VERTEX
  8
0
 10
155.193
 20
58.9189
 30
0.0
 40
0
 41
0
  0
VERTEX
  8
0
 10
155.194
 20
58.9093
 30
0.0
 40
0
 41
0
  0
VERTEX
  8
0
 10
155.196
 20
58.8997
 30
0.0
 40
0
 41
0
  0
VERTEX
  8
0
 10
155.199
 20
58.8901
 30
0.0
 40
0
 41
0
  0
VERTEX
  8
0
 10
155.2
 20
58.8807
 30
0.0
 40
0
 41
0
  0
VERTEX
  8
0
 10
155.201
 20
58.8717
 30
0.0
 40
0
 41
0
  0
VERTEX
  8
0
 10
155.203
 20
58.8629
 30
0.0
 40
0
 41
0
  0
VERTEX
  8
0
 10
155.203
 20
58.8543
 30
0.0
 40
0
 41
0
  0
VERTEX
  8
0
 10
155.204
 20
58.846
 30
0.0
 40
0
 41
0
  0
VERTEX
  8
0
 10
155.206
 20
58.8379
 30
0.0
 40
0
 41
0
  0
VERTEX
  8
0
 10
155.207
 20
58.8301
 30
0.0
 40
0
 41
0
  0
VERTEX
  8
0
 10
155.208
 20
58.8225
 30
0.0
 40
0
 41
0
  0
VERTEX
  8
0
 10
155.21
 20
58.815
 30
0.0
 40
0
 41
0
  0
VERTEX
  8
0
 10
155.211
 20
58.8079
 30
0.0
 40
0
 41
0
  0
VERTEX
  8
0
 10
155.212
 20
58.801
 30
0.0
 40
0
 41
0
  0
VERTEX
  8
0
 10
155.119
 20
58.6544
 30
0.0
 40
0
 41
0
  0
VERTEX
  8
0
 10
154
 20
58.7439
 30
0.0
 40
0
 41
0
  0
VERTEX
  8
0
 10
154
 20
59.8669
 30
0.0
 40
0
 41
0
  0
VERTEX
  8
0
 10
154.269
 20
59.8669
 30
0.0
 40
0
 41
0
  0
VERTEX
  8
0
 10
154.269
 20
59.0011
 30
0.0
 40
0
 41
0
  0
VERTEX
  8
0
 10
154.953
 20
58.9376
 30
0.0
 40
0
 41
0
  0
VERTEX
  8
0
 10
154.95
 20
58.9483
 30
0.0
 40
0
 41
0
  0
VERTEX
  8
0
 10
154.949
 20
58.9597
 30
0.0
 40
0
 41
0
  0
VERTEX
  8
0
 10
154.946
 20
58.9718
 30
0.0
 40
0
 41
0
  0
VERTEX
  8
0
 10
154.944
 20
58.9844
 30
0.0
 40
0
 41
0
  0
VERTEX
  8
0
 10
154.942
 20
58.9978
 30
0.0
 40
0
 41
0
  0
VERTEX
  8
0
 10
154.94
 20
59.0118
 30
0.0
 40
0
 41
0
  0
VERTEX
  8
0
 10
154.938
 20
59.0265
 30
0.0
 40
0
 41
0
  0
VERTEX
  8
0
 10
154.936
 20
59.0418
 30
0.0
 40
0
 41
0
  0
VERTEX
  8
0
 10
154.933
 20
59.0578
 30
0.0
 40
0
 41
0
  0
VERTEX
  8
0
 10
154.931
 20
59.0743
 30
0.0
 40
0
 41
0
  0
VERTEX
  8
0
 10
154.929
 20
59.0919
 30
0.0
 40
0
 41
0
  0
VERTEX
  8
0
 10
154.926
 20
59.1101
 30
0.0
 40
0
 41
0
  0
VERTEX
  8
0
 10
154.925
 20
59.1289
 30
0.0
 40
0
 41
0
  0
VERTEX
  8
0
 10
154.924
 20
59.1483
 30
0.0
 40
0
 41
0
  0
VERTEX
  8
0
 10
154.922
 20
59.1683
 30
0.0
 40
0
 41
0
  0
VERTEX
  8
0
 10
154.921
 20
59.189
 30
0.0
 40
0
 41
0
  0
VERTEX
  8
0
 10
154.921
 20
59.2103
 30
0.0
 40
0
 41
0
  0
VERTEX
  8
0
 10
154.919
 20
59.2322
 30
0.0
 40
0
 41
0
  0
VERTEX
  8
0
 10
154.919
 20
59.2547
 30
0.0
 40
0
 41
0
  0
VERTEX
  8
0
 10
154.919
 20
59.2778
 30
0.0
 40
0
 41
0
  0
SEQEND
 8
0
  0
POLYLINE
  8
0
 62
     0
 66
     1
 10
0
 20
0
 30
0.0
 70
     1
 40
0
 41
0
  0
VERTEX
  8
0
 10
156.379
 20
62.6501
 30
0.0
 40
0
 41
0
  0
VERTEX
  8
0
 10
155.229
 20
62.6501
 30
0.0
 40
0
 41
0
  0
VERTEX
  8
0
 10
155.188
 20
62.6493
 30
0.0
 40
0
 41
0
  0
VERTEX
  8
0
 10
155.149
 20
62.6469
 30
0.0
 40
0
 41
0
  0
VERTEX
  8
0
 10
155.111
 20
62.6429
 30
0.0
 40
0
 41
0
  0
VERTEX
  8
0
 10
155.076
 20
62.6372
 30
0.0
 40
0
 41
0
  0
VERTEX
  8
0
 10
155.043
 20
62.6299
 30
0.0
 40
0
 41
0
  0
VERTEX
  8
0
 10
155.013
 20
62.6208
 30
0.0
 40
0
 41
0
  0
VERTEX
  8
0
 10
154.985
 20
62.6103
 30
0.0
 40
0
 41
0
  0
VERTEX
  8
0
 10
154.958
 20
62.5981
 30
0.0
 40
0
 41
0
  0
VERTEX
  8
0
 10
154.933
 20
62.5843
 30
0.0
 40
0
 41
0
  0
VERTEX
  8
0
 10
154.911
 20
62.5688
 30
0.0
 40
0
 41
0
  0
VERTEX
  8
0
 10
154.892
 20
62.5517
 30
0.0
 40
0
 41
0
  0
VERTEX
  8
0
 10
154.874
 20
62.5326
 30
0.0
 40
0
 41
0
  0
VERTEX
  8
0
 10
154.857
 20
62.5119
 30
0.0
 40
0
 41
0
  0
VERTEX
  8
0
 10
154.844
 20
62.4894
 30
0.0
 40
0
 41
0
  0
VERTEX
  8
0
 10
154.832
 20
62.465
 30
0.0
 40
0
 41
0
  0
VERTEX
  8
0
 10
154.822
 20
62.4389
 30
0.0
 40
0
 41
0
  0
VERTEX
  8
0
 10
154.815
 20
62.411
 30
0.0
 40
0
 41
0
  0
VERTEX
  8
0
 10
154.81
 20
62.3813
 30
0.0
 40
0
 41
0
  0
VERTEX
  8
0
 10
154.807
 20
62.3499
 30
0.0
 40
0
 41
0
  0
VERTEX
  8
0
 10
154.806
 20
62.3165
 30
0.0
 40
0
 41
0
  0
VERTEX
  8
0
 10
154.806
 20
62.2931
 30
0.0
 40
0
 41
0
  0
VERTEX
  8
0
 10
154.807
 20
62.2704
 30
0.0
 40
0
 41
0
  0
VERTEX
  8
0
 10
154.81
 20
62.2485
 30
0.0
 40
0
 41
0
  0
VERTEX
  8
0
 10
154.811
 20
62.2272
 30
0.0
 40
0
 41
0
  0
VERTEX
  8
0
 10
154.815
 20
62.2067
 30
0.0
 40
0
 41
0
  0
VERTEX
  8
0
 10
154.819
 20
62.1868
 30
0.0
 40
0
 41
0
  0
VERTEX
  8
0
 10
154.825
 20
62.1678
 30
0.0
 40
0
 41
0
  0
VERTEX
  8
0
 10
154.831
 20
62.1493
 30
0.0
 40
0
 41
0
  0
VERTEX
  8
0
 10
154.837
 20
62.1317
 30
0.0
 40
0
 41
0
  0
VERTEX
  8
0
 10
154.844
 20
62.1147
 30
0.0
 40
0
 41
0
  0
VERTEX
  8
0
 10
154.853
 20
62.0983
 30
0.0
 40
0
 41
0
  0
VERTEX
  8
0
 10
154.861
 20
62.0826
 30
0.0
 40
0
 41
0
  0
VERTEX
  8
0
 10
154.871
 20
62.0675
 30
0.0
 40
0
 41
0
  0
VERTEX
  8
0
 10
154.881
 20
62.0531
 30
0.0
 40
0
 41
0
  0
VERTEX
  8
0
 10
154.892
 20
62.039
 30
0.0
 40
0
 41
0
  0
VERTEX
  8
0
 10
154.903
 20
62.0257
 30
0.0
 40
0
 41
0
  0
VERTEX
  8
0
 10
154.915
 20
62.0129
 30
0.0
 40
0
 41
0
  0
VERTEX
  8
0
 10
154.929
 20
62.0007
 30
0.0
 40
0
 41
0
  0
VERTEX
  8
0
 10
154.943
 20
61.989
 30
0.0
 40
0
 41
0
  0
VERTEX
  8
0
 10
154.957
 20
61.9781
 30
0.0
 40
0
 41
0
  0
VERTEX
  8
0
 10
154.972
 20
61.9679
 30
0.0
 40
0
 41
0
  0
VERTEX
  8
0
 10
154.987
 20
61.9582
 30
0.0
 40
0
 41
0
  0
VERTEX
  8
0
 10
155.004
 20
61.9492
 30
0.0
 40
0
 41
0
  0
VERTEX
  8
0
 10
155.022
 20
61.9407
 30
0.0
 40
0
 41
0
  0
VERTEX
  8
0
 10
155.04
 20
61.9328
 30
0.0
 40
0
 41
0
  0
VERTEX
  8
0
 10
155.058
 20
61.9254
 30
0.0
 40
0
 41
0
  0
VERTEX
  8
0
 10
155.078
 20
61.9186
 30
0.0
 40
0
 41
0
  0
VERTEX
  8
0
 10
155.099
 20
61.9124
 30
0.0
 40
0
 41
0
  0
VERTEX
  8
0
 10
155.119
 20
61.9067
 30
0.0
 40
0
 41
0
  0
VERTEX
  8
0
 10
155.14
 20
61.9015
 30
0.0
 40
0
 41
0
  0
VERTEX
  8
0
 10
155.163
 20
61.8968
 30
0.0
 40
0
 41
0
  0
VERTEX
  8
0
 10
155.186
 20
61.8926
 30
0.0
 40
0
 41
0
  0
VERTEX
  8
0
 10
155.21
 20
61.889
 30
0.0
 40
0
 41
0
  0
VERTEX
  8
0
 10
155.233
 20
61.8858
 30
0.0
 40
0
 41
0
  0
VERTEX
  8
0
 10
155.258
 20
61.8832
 30
0.0
 40
0
 41
0
  0
VERTEX
  8
0
 10
155.283
 20
61.881
 30
0.0
 40
0
 41
0
  0
VERTEX
  8
0
 10
155.31
 20
61.8793
 30
0.0
 40
0
 41
0
  0
VERTEX
  8
0
 10
155.337
 20
61.8781
 30
0.0
 40
0
 41
0
  0
VERTEX
  8
0
 10
155.365
 20
61.8774
 30
0.0
 40
0
 41
0
  0
VERTEX
  8
0
 10
155.393
 20
61.8771
 30
0.0
 40
0
 41
0
  0
VERTEX
  8
0
 10
156.379
 20
61.8771
 30
0.0
 40
0
 41
0
  0
VERTEX
  8
0
 10
156.379
 20
61.5792
 30
0.0
 40
0
 41
0
  0
VERTEX
  8
0
 10
155.229
 20
61.5792
 30
0.0
 40
0
 41
0
  0
VERTEX
  8
0
 10
155.188
 20
61.5785
 30
0.0
 40
0
 41
0
  0
VERTEX
  8
0
 10
155.149
 20
61.576
 30
0.0
 40
0
 41
0
  0
VERTEX
  8
0
 10
155.111
 20
61.5719
 30
0.0
 40
0
 41
0
  0
VERTEX
  8
0
 10
155.076
 20
61.5663
 30
0.0
 40
0
 41
0
  0
VERTEX
  8
0
 10
155.043
 20
61.5589
 30
0.0
 40
0
 41
0
  0
VERTEX
  8
0
 10
155.013
 20
61.5499
 30
0.0
 40
0
 41
0
  0
VERTEX
  8
0
 10
154.985
 20
61.5393
 30
0.0
 40
0
 41
0
  0
VERTEX
  8
0
 10
154.958
 20
61.5271
 30
0.0
 40
0
 41
0
  0
VERTEX
  8
0
 10
154.933
 20
61.5133
 30
0.0
 40
0
 41
0
  0
VERTEX
  8
0
 10
154.911
 20
61.4978
 30
0.0
 40
0
 41
0
  0
VERTEX
  8
0
 10
154.892
 20
61.481
 30
0.0
 40
0
 41
0
  0
VERTEX
  8
0
 10
154.874
 20
61.4624
 30
0.0
 40
0
 41
0
  0
VERTEX
  8
0
 10
154.857
 20
61.4418
 30
0.0
 40
0
 41
0
  0
VERTEX
  8
0
 10
154.844
 20
61.4194
 30
0.0
 40
0
 41
0
  0
VERTEX
  8
0
 10
154.832
 20
61.3953
 30
0.0
 40
0
 41
0
  0
VERTEX
  8
0
 10
154.822
 20
61.3693
 30
0.0
 40
0
 41
0
  0
VERTEX
  8
0
 10
154.815
 20
61.3415
 30
0.0
 40
0
 41
0
  0
VERTEX
  8
0
 10
154.81
 20
61.3119
 30
0.0
 40
0
 41
0
  0
VERTEX
  8
0
 10
154.807
 20
61.2804
 30
0.0
 40
0
 41
0
  0
VERTEX
  8
0
 10
154.806
 20
61.2472
 30
0.0
 40
0
 41
0
  0
VERTEX
  8
0
 10
154.806
 20
61.2225
 30
0.0
 40
0
 41
0
  0
VERTEX
  8
0
 10
154.807
 20
61.1988
 30
0.0
 40
0
 41
0
  0
VERTEX
  8
0
 10
154.81
 20
61.1757
 30
0.0
 40
0
 41
0
  0
VERTEX
  8
0
 10
154.813
 20
61.1535
 30
0.0
 40
0
 41
0
  0
VERTEX
  8
0
 10
154.817
 20
61.1321
 30
0.0
 40
0
 41
0
  0
VERTEX
  8
0
 10
154.821
 20
61.1114
 30
0.0
 40
0
 41
0
  0
VERTEX
  8
0
 10
154.826
 20
61.0917
 30
0.0
 40
0
 41
0
  0
VERTEX
  8
0
 10
154.832
 20
61.0728
 30
0.0
 40
0
 41
0
  0
VERTEX
  8
0
 10
154.84
 20
61.0546
 30
0.0
 40
0
 41
0
  0
VERTEX
  8
0
 10
154.849
 20
61.0372
 30
0.0
 40
0
 41
0
  0
VERTEX
  8
0
 10
154.857
 20
61.0207
 30
0.0
 40
0
 41
0
  0
VERTEX
  8
0
 10
154.867
 20
61.0047
 30
0.0
 40
0
 41
0
  0
VERTEX
  8
0
 10
154.876
 20
60.9894
 30
0.0
 40
0
 41
0
  0
VERTEX
  8
0
 10
154.889
 20
60.9747
 30
0.0
 40
0
 41
0
  0
VERTEX
  8
0
 10
154.9
 20
60.9607
 30
0.0
 40
0
 41
0
  0
VERTEX
  8
0
 10
154.914
 20
60.9474
 30
0.0
 40
0
 41
0
  0
VERTEX
  8
0
 10
154.928
 20
60.9347
 30
0.0
 40
0
 41
0
  0
VERTEX
  8
0
 10
154.942
 20
60.9226
 30
0.0
 40
0
 41
0
  0
VERTEX
  8
0
 10
154.957
 20
60.9112
 30
0.0
 40
0
 41
0
  0
VERTEX
  8
0
 10
154.974
 20
60.9006
 30
0.0
 40
0
 41
0
  0
VERTEX
  8
0
 10
154.99
 20
60.8907
 30
0.0
 40
0
 41
0
  0
VERTEX
  8
0
 10
155.008
 20
60.8814
 30
0.0
 40
0
 41
0
  0
VERTEX
  8
0
 10
155.026
 20
60.8728
 30
0.0
 40
0
 41
0
  0
VERTEX
  8
0
 10
155.046
 20
60.8646
 30
0.0
 40
0
 41
0
  0
VERTEX
  8
0
 10
155.065
 20
60.8569
 30
0.0
 40
0
 41
0
  0
VERTEX
  8
0
 10
155.086
 20
60.8499
 30
0.0
 40
0
 41
0
  0
VERTEX
  8
0
 10
155.108
 20
60.8435
 30
0.0
 40
0
 41
0
  0
VERTEX
  8
0
 10
155.131
 20
60.8375
 30
0.0
 40
0
 41
0
  0
VERTEX
  8
0
 10
155.153
 20
60.8321
 30
0.0
 40
0
 41
0
  0
VERTEX
  8
0
 10
155.176
 20
60.8272
 30
0.0
 40
0
 41
0
  0
VERTEX
  8
0
 10
155.201
 20
60.8232
 30
0.0
 40
0
 41
0
  0
VERTEX
  8
0
 10
155.226
 20
60.8197
 30
0.0
 40
0
 41
0
  0
VERTEX
  8
0
 10
155.253
 20
60.8165
 30
0.0
 40
0
 41
0
  0
VERTEX
  8
0
 10
155.279
 20
60.8137
 30
0.0
 40
0
 41
0
  0
VERTEX
  8
0
 10
155.306
 20
60.8114
 30
0.0
 40
0
 41
0
  0
VERTEX
  8
0
 10
155.335
 20
60.8094
 30
0.0
 40
0
 41
0
  0
VERTEX
  8
0
 10
155.362
 20
60.8081
 30
0.0
 40
0
 41
0
  0
VERTEX
  8
0
 10
155.393
 20
60.8069
 30
0.0
 40
0
 41
0
  0
VERTEX
  8
0
 10
155.422
 20
60.8064
 30
0.0
 40
0
 41
0
  0
VERTEX
  8
0
 10
155.453
 20
60.8061
 30
0.0
 40
0
 41
0
  0
VERTEX
  8
0
 10
156.379
 20
60.8061
 30
0.0
 40
0
 41
0
  0
VERTEX
  8
0
 10
156.379
 20
60.5099
 30
0.0
 40
0
 41
0
  0
VERTEX
  8
0
 10
154.592
 20
60.5099
 30
0.0
 40
0
 41
0
  0
VERTEX
  8
0
 10
154.592
 20
60.7508
 30
0.0
 40
0
 41
0
  0
VERTEX
  8
0
 10
154.833
 20
60.7931
 30
0.0
 40
0
 41
0
  0
VERTEX
  8
0
 10
154.833
 20
60.8093
 30
0.0
 40
0
 41
0
  0
VERTEX
  8
0
 10
154.819
 20
60.8174
 30
0.0
 40
0
 41
0
  0
VERTEX
  8
0
 10
154.806
 20
60.8256
 30
0.0
 40
0
 41
0
  0
VERTEX
  8
0
 10
154.793
 20
60.8342
 30
0.0
 40
0
 41
0
  0
VERTEX
  8
0
 10
154.781
 20
60.8429
 30
0.0
 40
0
 41
0
  0
VERTEX
  8
0
 10
154.768
 20
60.8521
 30
0.0
 40
0
 41
0
  0
VERTEX
  8
0
 10
154.756
 20
60.8615
 30
0.0
 40
0
 41
0
  0
VERTEX
  8
0
 10
154.744
 20
60.8713
 30
0.0
 40
0
 41
0
  0
VERTEX
  8
0
 10
154.733
 20
60.8813
 30
0.0
 40
0
 41
0
  0
VERTEX
  8
0
 10
154.724
 20
60.8915
 30
0.0
 40
0
 41
0
  0
VERTEX
  8
0
 10
154.712
 20
60.9021
 30
0.0
 40
0
 41
0
  0
VERTEX
  8
0
 10
154.703
 20
60.9129
 30
0.0
 40
0
 41
0
  0
VERTEX
  8
0
 10
154.693
 20
60.924
 30
0.0
 40
0
 41
0
  0
VERTEX
  8
0
 10
154.683
 20
60.9353
 30
0.0
 40
0
 41
0
  0
VERTEX
  8
0
 10
154.674
 20
60.9467
 30
0.0
 40
0
 41
0
  0
VERTEX
  8
0
 10
154.665
 20
60.9583
 30
0.0
 40
0
 41
0
  0
VERTEX
  8
0
 10
154.657
 20
60.9701
 30
0.0
 40
0
 41
0
  0
VERTEX
  8
0
 10
154.649
 20
60.9821
 30
0.0
 40
0
 41
0
  0
VERTEX
  8
0
 10
154.64
 20
60.9943
 30
0.0
 40
0
 41
0
  0
VERTEX
  8
0
 10
154.633
 20
61.0067
 30
0.0
 40
0
 41
0
  0
VERTEX
  8
0
 10
154.626
 20
61.0193
 30
0.0
 40
0
 41
0
  0
VERTEX
  8
0
 10
154.619
 20
61.0324
 30
0.0
 40
0
 41
0
  0
VERTEX
  8
0
 10
154.614
 20
61.0457
 30
0.0
 40
0
 41
0
  0
VERTEX
  8
0
 10
154.608
 20
61.059
 30
0.0
 40
0
 41
0
  0
VERTEX
  8
0
 10
154.603
 20
61.0725
 30
0.0
 40
0
 41
0
  0
VERTEX
  8
0
 10
154.597
 20
61.0861
 30
0.0
 40
0
 41
0
  0
VERTEX
  8
0
 10
154.592
 20
61.0999
 30
0.0
 40
0
 41
0
  0
VERTEX
  8
0
 10
154.587
 20
61.1136
 30
0.0
 40
0
 41
0
  0
VERTEX
  8
0
 10
154.583
 20
61.1276
 30
0.0
 40
0
 41
0
  0
VERTEX
  8
0
 10
154.579
 20
61.1418
 30
0.0
 40
0
 41
0
  0
VERTEX
  8
0
 10
154.576
 20
61.1561
 30
0.0
 40
0
 41
0
  0
VERTEX
  8
0
 10
154.574
 20
61.1707
 30
0.0
 40
0
 41
0
  0
VERTEX
  8
0
 10
154.571
 20
61.1854
 30
0.0
 40
0
 41
0
  0
VERTEX
  8
0
 10
154.568
 20
61.2001
 30
0.0
 40
0
 41
0
  0
VERTEX
  8
0
 10
154.565
 20
61.2149
 30
0.0
 40
0
 41
0
  0
VERTEX
  8
0
 10
154.564
 20
61.2297
 30
0.0
 40
0
 41
0
  0
VERTEX
  8
0
 10
154.563
 20
61.2446
 30
0.0
 40
0
 41
0
  0
VERTEX
  8
0
 10
154.561
 20
61.2594
 30
0.0
 40
0
 41
0
  0
VERTEX
  8
0
 10
154.561
 20
61.2743
 30
0.0
 40
0
 41
0
  0
VERTEX
  8
0
 10
154.56
 20
61.2892
 30
0.0
 40
0
 41
0
  0
VERTEX
  8
0
 10
154.56
 20
61.3042
 30
0.0
 40
0
 41
0
  0
VERTEX
  8
0
 10
154.561
 20
61.3425
 30
0.0
 40
0
 41
0
  0
VERTEX
  8
0
 10
154.563
 20
61.3796
 30
0.0
 40
0
 41
0
  0
VERTEX
  8
0
 10
154.567
 20
61.4153
 30
0.0
 40
0
 41
0
  0
VERTEX
  8
0
 10
154.571
 20
61.4497
 30
0.0
 40
0
 41
0
  0
VERTEX
  8
0
 10
154.578
 20
61.4828
 30
0.0
 40
0
 41
0
  0
VERTEX
  8
0
 10
154.586
 20
61.5144
 30
0.0
 40
0
 41
0
  0
VERTEX
  8
0
 10
154.594
 20
61.5449
 30
0.0
 40
0
 41
0
  0
VERTEX
  8
0
 10
154.606
 20
61.5739
 30
0.0
 40
0
 41
0
  0
VERTEX
  8
0
 10
154.618
 20
61.6017
 30
0.0
 40
0
 41
0
  0
VERTEX
  8
0
 10
154.632
 20
61.6281
 30
0.0
 40
0
 41
0
  0
VERTEX
  8
0
 10
154.647
 20
61.6535
 30
0.0
 40
0
 41
0
  0
VERTEX
  8
0
 10
154.664
 20
61.6774
 30
0.0
 40
0
 41
0
  0
VERTEX
  8
0
 10
154.682
 20
61.7
 30
0.0
 40
0
 41
0
  0
VERTEX
  8
0
 10
154.701
 20
61.7213
 30
0.0
 40
0
 41
0
  0
VERTEX
  8
0
 10
154.724
 20
61.7411
 30
0.0
 40
0
 41
0
  0
VERTEX
  8
0
 10
154.747
 20
61.7597
 30
0.0
 40
0
 41
0
  0
VERTEX
  8
0
 10
154.772
 20
61.7768
 30
0.0
 40
0
 41
0
  0
VERTEX
  8
0
 10
154.799
 20
61.7926
 30
0.0
 40
0
 41
0
  0
VERTEX
  8
0
 10
154.826
 20
61.8071
 30
0.0
 40
0
 41
0
  0
VERTEX
  8
0
 10
154.856
 20
61.8201
 30
0.0
 40
0
 41
0
  0
VERTEX
  8
0
 10
154.856
 20
61.8332
 30
0.0
 40
0
 41
0
  0
VERTEX
  8
0
 10
154.842
 20
61.8418
 30
0.0
 40
0
 41
0
  0
VERTEX
  8
0
 10
154.826
 20
61.8507
 30
0.0
 40
0
 41
0
  0
VERTEX
  8
0
 10
154.813
 20
61.86
 30
0.0
 40
0
 41
0
  0
VERTEX
  8
0
 10
154.799
 20
61.8696
 30
0.0
 40
0
 41
0
  0
VERTEX
  8
0
 10
154.785
 20
61.8796
 30
0.0
 40
0
 41
0
  0
VERTEX
  8
0
 10
154.772
 20
61.8897
 30
0.0
 40
0
 41
0
  0
VERTEX
  8
0
 10
154.76
 20
61.9004
 30
0.0
 40
0
 41
0
  0
VERTEX
  8
0
 10
154.747
 20
61.9112
 30
0.0
 40
0
 41
0
  0
VERTEX
  8
0
 10
154.736
 20
61.9225
 30
0.0
 40
0
 41
0
  0
VERTEX
  8
0
 10
154.724
 20
61.934
 30
0.0
 40
0
 41
0
  0
VERTEX
  8
0
 10
154.714
 20
61.9462
 30
0.0
 40
0
 41
0
  0
VERTEX
  8
0
 10
154.703
 20
61.9585
 30
0.0
 40
0
 41
0
  0
VERTEX
  8
0
 10
154.693
 20
61.9711
 30
0.0
 40
0
 41
0
  0
VERTEX
  8
0
 10
154.683
 20
61.9838
 30
0.0
 40
0
 41
0
  0
VERTEX
  8
0
 10
154.674
 20
61.9967
 30
0.0
 40
0
 41
0
  0
VERTEX
  8
0
 10
154.665
 20
62.0099
 30
0.0
 40
0
 41
0
  0
VERTEX
  8
0
 10
154.657
 20
62.0232
 30
0.0
 40
0
 41
0
  0
VERTEX
  8
0
 10
154.649
 20
62.0367
 30
0.0
 40
0
 41
0
  0
VERTEX
  8
0
 10
154.64
 20
62.0504
 30
0.0
 40
0
 41
0
  0
VERTEX
  8
0
 10
154.633
 20
62.0643
 30
0.0
 40
0
 41
0
  0
VERTEX
  8
0
 10
154.626
 20
62.0786
 30
0.0
 40
0
 41
0
  0
VERTEX
  8
0
 10
154.619
 20
62.0932
 30
0.0
 40
0
 41
0
  0
VERTEX
  8
0
 10
154.612
 20
62.1078
 30
0.0
 40
0
 41
0
  0
VERTEX
  8
0
 10
154.606
 20
62.1226
 30
0.0
 40
0
 41
0
  0
VERTEX
  8
0
 10
154.6
 20
62.1375
 30
0.0
 40
0
 41
0
  0
VERTEX
  8
0
 10
154.596
 20
62.1525
 30
0.0
 40
0
 41
0
  0
VERTEX
  8
0
 10
154.59
 20
62.1676
 30
0.0
 40
0
 41
0
  0
VERTEX
  8
0
 10
154.586
 20
62.1831
 30
0.0
 40
0
 41
0
  0
VERTEX
  8
0
 10
154.582
 20
62.1985
 30
0.0
 40
0
 41
0
  0
VERTEX
  8
0
 10
154.578
 20
62.214
 30
0.0
 40
0
 41
0
  0
VERTEX
  8
0
 10
154.575
 20
62.2296
 30
0.0
 40
0
 41
0
  0
VERTEX
  8
0
 10
154.571
 20
62.2454
 30
0.0
 40
0
 41
0
  0
VERTEX
  8
0
 10
154.568
 20
62.2611
 30
0.0
 40
0
 41
0
  0
VERTEX
  8
0
 10
154.567
 20
62.2769
 30
0.0
 40
0
 41
0
  0
VERTEX
  8
0
 10
154.564
 20
62.2929
 30
0.0
 40
0
 41
0
  0
VERTEX
  8
0
 10
154.563
 20
62.3089
 30
0.0
 40
0
 41
0
  0
VERTEX
  8
0
 10
154.561
 20
62.325
 30
0.0
 40
0
 41
0
  0
VERTEX
  8
0
 10
154.561
 20
62.3411
 30
0.0
 40
0
 41
0
  0
VERTEX
  8
0
 10
154.56
 20
62.3572
 30
0.0
 40
0
 41
0
  0
VERTEX
  8
0
 10
154.56
 20
62.3735
 30
0.0
 40
0
 41
0
  0
VERTEX
  8
0
 10
154.561
 20
62.429
 30
0.0
 40
0
 41
0
  0
VERTEX
  8
0
 10
154.567
 20
62.4818
 30
0.0
 40
0
 41
0
  0
VERTEX
  8
0
 10
154.574
 20
62.5317
 30
0.0
 40
0
 41
0
  0
VERTEX
  8
0
 10
154.585
 20
62.5787
 30
0.0
 40
0
 41
0
  0
VERTEX
  8
0
 10
154.599
 20
62.6229
 30
0.0
 40
0
 41
0
  0
VERTEX
  8
0
 10
154.617
 20
62.6643
 30
0.0
 40
0
 41
0
  0
VERTEX
  8
0
 10
154.636
 20
62.7029
 30
0.0
 40
0
 41
0
  0
VERTEX
  8
0
 10
154.66
 20
62.7386
 30
0.0
 40
0
 41
0
  0
VERTEX
  8
0
 10
154.686
 20
62.7715
 30
0.0
 40
0
 41
0
  0
VERTEX
  8
0
 10
154.717
 20
62.8015
 30
0.0
 40
0
 41
0
  0
VERTEX
  8
0
 10
154.749
 20
62.829
 30
0.0
 40
0
 41
0
  0
VERTEX
  8
0
 10
154.786
 20
62.8538
 30
0.0
 40
0
 41
0
  0
VERTEX
  8
0
 10
154.825
 20
62.8754
 30
0.0
 40
0
 41
0
  0
VERTEX
  8
0
 10
154.869
 20
62.8943
 30
0.0
 40
0
 41
0
  0
VERTEX
  8
0
 10
154.918
 20
62.9101
 30
0.0
 40
0
 41
0
  0
VERTEX
  8
0
 10
154.969
 20
62.9232
 30
0.0
 40
0
 41
0
  0
VERTEX
  8
0
 10
155.025
 20
62.9333
 30
0.0
 40
0
 41
0
  0
VERTEX
  8
0
 10
155.083
 20
62.9406
 30
0.0
 40
0
 41
0
  0
VERTEX
  8
0
 10
155.146
 20
62.945
 30
0.0
 40
0
 41
0
  0
VERTEX
  8
0
 10
155.212
 20
62.9464
 30
0.0
 40
0
 41
0
  0
VERTEX
  8
0
 10
156.379
 20
62.9464
 30
0.0
 40
0
 41
0
  0
VERTEX
  8
0
 10
156.379
 20
62.6501
 30
0.0
 40
0
 41
0
  0
SEQEND
 8
0
  0
POLYLINE
  8
0
 62
     0
 66
     1
 10
0
 20
0
 30
0.0
 70
     1
 40
0
 41
0
  0
VERTEX
  8
0
 10
156.379
 20
65.6368
 30
0.0
 40
0
 41
0
  0
VERTEX
  8
0
 10
155.229
 20
65.6368
 30
0.0
 40
0
 41
0
  0
VERTEX
  8
0
 10
155.188
 20
65.636
 30
0.0
 40
0
 41
0
  0
VERTEX
  8
0
 10
155.149
 20
65.6336
 30
0.0
 40
0
 41
0
  0
VERTEX
  8
0
 10
155.111
 20
65.6296
 30
0.0
 40
0
 41
0
  0
VERTEX
  8
0
 10
155.076
 20
65.6239
 30
0.0
 40
0
 41
0
  0
VERTEX
  8
0
 10
155.043
 20
65.6165
 30
0.0
 40
0
 41
0
  0
VERTEX
  8
0
 10
155.013
 20
65.6075
 30
0.0
 40
0
 41
0
  0
VERTEX
  8
0
 10
154.985
 20
65.5969
 30
0.0
 40
0
 41
0
  0
VERTEX
  8
0
 10
154.958
 20
65.5847
 30
0.0
 40
0
 41
0
  0
VERTEX
  8
0
 10
154.933
 20
65.571
 30
0.0
 40
0
 41
0
  0
VERTEX
  8
0
 10
154.911
 20
65.5554
 30
0.0
 40
0
 41
0
  0
VERTEX
  8
0
 10
154.892
 20
65.5383
 30
0.0
 40
0
 41
0
  0
VERTEX
  8
0
 10
154.874
 20
65.5193
 30
0.0
 40
0
 41
0
  0
VERTEX
  8
0
 10
154.857
 20
65.4986
 30
0.0
 40
0
 41
0
  0
VERTEX
  8
0
 10
154.844
 20
65.476
 30
0.0
 40
0
 41
0
  0
VERTEX
  8
0
 10
154.832
 20
65.4517
 30
0.0
 40
0
 41
0
  0
VERTEX
  8
0
 10
154.822
 20
65.4256
 30
0.0
 40
0
 41
0
  0
VERTEX
  8
0
 10
154.815
 20
65.3976
 30
0.0
 40
0
 41
0
  0
VERTEX
  8
0
 10
154.81
 20
65.3679
 30
0.0
 40
0
 41
0
  0
VERTEX
  8
0
 10
154.807
 20
65.3365
 30
0.0
 40
0
 41
0
  0
VERTEX
  8
0
 10
154.806
 20
65.3032
 30
0.0
 40
0
 41
0
  0
VERTEX
  8
0
 10
154.806
 20
65.2797
 30
0.0
 40
0
 41
0
  0
VERTEX
  8
0
 10
154.807
 20
65.2571
 30
0.0
 40
0
 41
0
  0
VERTEX
  8
0
 10
154.81
 20
65.2351
 30
0.0
 40
0
 41
0
  0
VERTEX
  8
0
 10
154.811
 20
65.2139
 30
0.0
 40
0
 41
0
  0
VERTEX
  8
0
 10
154.815
 20
65.1933
 30
0.0
 40
0
 41
0
  0
VERTEX
  8
0
 10
154.819
 20
65.1735
 30
0.0
 40
0
 41
0
  0
VERTEX
  8
0
 10
154.825
 20
65.1544
 30
0.0
 40
0
 41
0
  0
VERTEX
  8
0
 10
154.831
 20
65.136
 30
0.0
 40
0
 41
0
  0
VERTEX
  8
0
 10
154.837
 20
65.1183
 30
0.0
 40
0
 41
0
  0
VERTEX
  8
0
 10
154.844
 20
65.1014
 30
0.0
 40
0
 41
0
  0
VERTEX
  8
0
 10
154.853
 20
65.085
 30
0.0
 40
0
 41
0
  0
VERTEX
  8
0
 10
154.861
 20
65.0693
 30
0.0
 40
0
 41
0
  0
VERTEX
  8
0
 10
154.871
 20
65.0542
 30
0.0
 40
0
 41
0
  0
VERTEX
  8
0
 10
154.881
 20
65.0396
 30
0.0
 40
0
 41
0
  0
VERTEX
  8
0
 10
154.892
 20
65.0257
 30
0.0
 40
0
 41
0
  0
VERTEX
  8
0
 10
154.903
 20
65.0124
 30
0.0
 40
0
 41
0
  0
VERTEX
  8
0
 10
154.915
 20
64.9994
 30
0.0
 40
0
 41
0
  0
VERTEX
  8
0
 10
154.929
 20
64.9874
 30
0.0
 40
0
 41
0
  0
VERTEX
  8
0
 10
154.943
 20
64.9757
 30
0.0
 40
0
 41
0
  0
VERTEX
  8
0
 10
154.957
 20
64.9646
 30
0.0
 40
0
 41
0
  0
VERTEX
  8
0
 10
154.972
 20
64.9544
 30
0.0
 40
0
 41
0
  0
VERTEX
  8
0
 10
154.987
 20
64.9449
 30
0.0
 40
0
 41
0
  0
VERTEX
  8
0
 10
155.004
 20
64.9358
 30
0.0
 40
0
 41
0
  0
VERTEX
  8
0
 10
155.022
 20
64.9274
 30
0.0
 40
0
 41
0
  0
VERTEX
  8
0
 10
155.04
 20
64.9194
 30
0.0
 40
0
 41
0
  0
VERTEX
  8
0
 10
155.058
 20
64.9121
 30
0.0
 40
0
 41
0
  0
VERTEX
  8
0
 10
155.078
 20
64.9053
 30
0.0
 40
0
 41
0
  0
VERTEX
  8
0
 10
155.099
 20
64.899
 30
0.0
 40
0
 41
0
  0
VERTEX
  8
0
 10
155.119
 20
64.8933
 30
0.0
 40
0
 41
0
  0
VERTEX
  8
0
 10
155.14
 20
64.8882
 30
0.0
 40
0
 41
0
  0
VERTEX
  8
0
 10
155.163
 20
64.8835
 30
0.0
 40
0
 41
0
  0
VERTEX
  8
0
 10
155.186
 20
64.8793
 30
0.0
 40
0
 41
0
  0
VERTEX
  8
0
 10
155.21
 20
64.8757
 30
0.0
 40
0
 41
0
  0
VERTEX
  8
0
 10
155.233
 20
64.8725
 30
0.0
 40
0
 41
0
  0
VERTEX
  8
0
 10
155.258
 20
64.8699
 30
0.0
 40
0
 41
0
  0
VERTEX
  8
0
 10
155.283
 20
64.8676
 30
0.0
 40
0
 41
0
  0
VERTEX
  8
0
 10
155.31
 20
64.866
 30
0.0
 40
0
 41
0
  0
VERTEX
  8
0
 10
155.337
 20
64.8647
 30
0.0
 40
0
 41
0
  0
VERTEX
  8
0
 10
155.365
 20
64.864
 30
0.0
 40
0
 41
0
  0
VERTEX
  8
0
 10
155.393
 20
64.8637
 30
0.0
 40
0
 41
0
  0
VERTEX
  8
0
 10
156.379
 20
64.8637
 30
0.0
 40
0
 41
0
  0
VERTEX
  8
0
 10
156.379
 20
64.5658
 30
0.0
 40
0
 41
0
  0
VERTEX
  8
0
 10
155.229
 20
64.5658
 30
0.0
 40
0
 41
0
  0
VERTEX
  8
0
 10
155.188
 20
64.565
 30
0.0
 40
0
 41
0
  0
VERTEX
  8
0
 10
155.149
 20
64.5626
 30
0.0
 40
0
 41
0
  0
VERTEX
  8
0
 10
155.111
 20
64.5586
 30
0.0
 40
0
 41
0
  0
VERTEX
  8
0
 10
155.076
 20
64.5529
 30
0.0
 40
0
 41
0
  0
VERTEX
  8
0
 10
155.043
 20
64.5456
 30
0.0
 40
0
 41
0
  0
VERTEX
  8
0
 10
155.013
 20
64.5365
 30
0.0
 40
0
 41
0
  0
VERTEX
  8
0
 10
154.985
 20
64.526
 30
0.0
 40
0
 41
0
  0
VERTEX
  8
0
 10
154.958
 20
64.5138
 30
0.0
 40
0
 41
0
  0
VERTEX
  8
0
 10
154.933
 20
64.5
 30
0.0
 40
0
 41
0
  0
VERTEX
  8
0
 10
154.911
 20
64.4844
 30
0.0
 40
0
 41
0
  0
VERTEX
  8
0
 10
154.892
 20
64.4676
 30
0.0
 40
0
 41
0
  0
VERTEX
  8
0
 10
154.874
 20
64.4489
 30
0.0
 40
0
 41
0
  0
VERTEX
  8
0
 10
154.857
 20
64.4285
 30
0.0
 40
0
 41
0
  0
VERTEX
  8
0
 10
154.844
 20
64.4061
 30
0.0
 40
0
 41
0
  0
VERTEX
  8
0
 10
154.832
 20
64.3819
 30
0.0
 40
0
 41
0
  0
VERTEX
  8
0
 10
154.822
 20
64.356
 30
0.0
 40
0
 41
0
  0
VERTEX
  8
0
 10
154.815
 20
64.3282
 30
0.0
 40
0
 41
0
  0
VERTEX
  8
0
 10
154.81
 20
64.2986
 30
0.0
 40
0
 41
0
  0
VERTEX
  8
0
 10
154.807
 20
64.2671
 30
0.0
 40
0
 41
0
  0
VERTEX
  8
0
 10
154.806
 20
64.2339
 30
0.0
 40
0
 41
0
  0
VERTEX
  8
0
 10
154.806
 20
64.2092
 30
0.0
 40
0
 41
0
  0
VERTEX
  8
0
 10
154.807
 20
64.1853
 30
0.0
 40
0
 41
0
  0
VERTEX
  8
0
 10
154.81
 20
64.1624
 30
0.0
 40
0
 41
0
  0
VERTEX
  8
0
 10
154.813
 20
64.1401
 30
0.0
 40
0
 41
0
  0
VERTEX
  8
0
 10
154.817
 20
64.1187
 30
0.0
 40
0
 41
0
  0
VERTEX
  8
0
 10
154.821
 20
64.0981
 30
0.0
 40
0
 41
0
  0
VERTEX
  8
0
 10
154.826
 20
64.0783
 30
0.0
 40
0
 41
0
  0
VERTEX
  8
0
 10
154.832
 20
64.0593
 30
0.0
 40
0
 41
0
  0
VERTEX
  8
0
 10
154.84
 20
64.0413
 30
0.0
 40
0
 41
0
  0
VERTEX
  8
0
 10
154.849
 20
64.0239
 30
0.0
 40
0
 41
0
  0
VERTEX
  8
0
 10
154.857
 20
64.0072
 30
0.0
 40
0
 41
0
  0
VERTEX
  8
0
 10
154.867
 20
63.9914
 30
0.0
 40
0
 41
0
  0
VERTEX
  8
0
 10
154.876
 20
63.976
 30
0.0
 40
0
 41
0
  0
VERTEX
  8
0
 10
154.889
 20
63.9614
 30
0.0
 40
0
 41
0
  0
VERTEX
  8
0
 10
154.9
 20
63.9474
 30
0.0
 40
0
 41
0
  0
VERTEX
  8
0
 10
154.914
 20
63.934
 30
0.0
 40
0
 41
0
  0
VERTEX
  8
0
 10
154.928
 20
63.9214
 30
0.0
 40
0
 41
0
  0
VERTEX
  8
0
 10
154.942
 20
63.9093
 30
0.0
 40
0
 41
0
  0
VERTEX
  8
0
 10
154.957
 20
63.8979
 30
0.0
 40
0
 41
0
  0
VERTEX
  8
0
 10
154.974
 20
63.8872
 30
0.0
 40
0
 41
0
  0
VERTEX
  8
0
 10
154.99
 20
63.8774
 30
0.0
 40
0
 41
0
  0
VERTEX
  8
0
 10
155.008
 20
63.8681
 30
0.0
 40
0
 41
0
  0
VERTEX
  8
0
 10
155.026
 20
63.8594
 30
0.0
 40
0
 41
0
  0
VERTEX
  8
0
 10
155.046
 20
63.8513
 30
0.0
 40
0
 41
0
  0
VERTEX
  8
0
 10
155.065
 20
63.8436
 30
0.0
 40
0
 41
0
  0
VERTEX
  8
0
 10
155.086
 20
63.8365
 30
0.0
 40
0
 41
0
  0
VERTEX
  8
0
 10
155.108
 20
63.8301
 30
0.0
 40
0
 41
0
  0
VERTEX
  8
0
 10
155.131
 20
63.8242
 30
0.0
 40
0
 41
0
  0
VERTEX
  8
0
 10
155.153
 20
63.8188
 30
0.0
 40
0
 41
0
  0
VERTEX
  8
0
 10
155.176
 20
63.8139
 30
0.0
 40
0
 41
0
  0
VERTEX
  8
0
 10
155.201
 20
63.8099
 30
0.0
 40
0
 41
0
  0
VERTEX
  8
0
 10
155.226
 20
63.8062
 30
0.0
 40
0
 41
0
  0
VERTEX
  8
0
 10
155.253
 20
63.8032
 30
0.0
 40
0
 41
0
  0
VERTEX
  8
0
 10
155.279
 20
63.8004
 30
0.0
 40
0
 41
0
  0
VERTEX
  8
0
 10
155.306
 20
63.7981
 30
0.0
 40
0
 41
0
  0
VERTEX
  8
0
 10
155.335
 20
63.7961
 30
0.0
 40
0
 41
0
  0
VERTEX
  8
0
 10
155.362
 20
63.7947
 30
0.0
 40
0
 41
0
  0
VERTEX
  8
0
 10
155.393
 20
63.7936
 30
0.0
 40
0
 41
0
  0
VERTEX
  8
0
 10
155.422
 20
63.7929
 30
0.0
 40
0
 41
0
  0
VERTEX
  8
0
 10
155.453
 20
63.7928
 30
0.0
 40
0
 41
0
  0
VERTEX
  8
0
 10
156.379
 20
63.7928
 30
0.0
 40
0
 41
0
  0
VERTEX
  8
0
 10
156.379
 20
63.4965
 30
0.0
 40
0
 41
0
  0
VERTEX
  8
0
 10
154.592
 20
63.4965
 30
0.0
 40
0
 41
0
  0
VERTEX
  8
0
 10
154.592
 20
63.7374
 30
0.0
 40
0
 41
0
  0
VERTEX
  8
0
 10
154.833
 20
63.7797
 30
0.0
 40
0
 41
0
  0
VERTEX
  8
0
 10
154.833
 20
63.796
 30
0.0
 40
0
 41
0
  0
VERTEX
  8
0
 10
154.819
 20
63.804
 30
0.0
 40
0
 41
0
  0
VERTEX
  8
0
 10
154.806
 20
63.8122
 30
0.0
 40
0
 41
0
  0
VERTEX
  8
0
 10
154.793
 20
63.8208
 30
0.0
 40
0
 41
0
  0
VERTEX
  8
0
 10
154.781
 20
63.8296
 30
0.0
 40
0
 41
0
  0
VERTEX
  8
0
 10
154.768
 20
63.8388
 30
0.0
 40
0
 41
0
  0
VERTEX
  8
0
 10
154.756
 20
63.8482
 30
0.0
 40
0
 41
0
  0
VERTEX
  8
0
 10
154.744
 20
63.8579
 30
0.0
 40
0
 41
0
  0
VERTEX
  8
0
 10
154.733
 20
63.8679
 30
0.0
 40
0
 41
0
  0
VERTEX
  8
0
 10
154.724
 20
63.8782
 30
0.0
 40
0
 41
0
  0
VERTEX
  8
0
 10
154.712
 20
63.8888
 30
0.0
 40
0
 41
0
  0
VERTEX
  8
0
 10
154.703
 20
63.8996
 30
0.0
 40
0
 41
0
  0
VERTEX
  8
0
 10
154.693
 20
63.9107
 30
0.0
 40
0
 41
0
  0
VERTEX
  8
0
 10
154.683
 20
63.9219
 30
0.0
 40
0
 41
0
  0
VERTEX
  8
0
 10
154.674
 20
63.9333
 30
0.0
 40
0
 41
0
  0
VERTEX
  8
0
 10
154.665
 20
63.945
 30
0.0
 40
0
 41
0
  0
VERTEX
  8
0
 10
154.657
 20
63.9568
 30
0.0
 40
0
 41
0
  0
VERTEX
  8
0
 10
154.649
 20
63.9688
 30
0.0
 40
0
 41
0
  0
VERTEX
  8
0
 10
154.64
 20
63.981
 30
0.0
 40
0
 41
0
  0
VERTEX
  8
0
 10
154.633
 20
63.9933
 30
0.0
 40
0
 41
0
  0
VERTEX
  8
0
 10
154.626
 20
64.006
 30
0.0
 40
0
 41
0
  0
VERTEX
  8
0
 10
154.619
 20
64.019
 30
0.0
 40
0
 41
0
  0
VERTEX
  8
0
 10
154.614
 20
64.0322
 30
0.0
 40
0
 41
0
  0
VERTEX
  8
0
 10
154.608
 20
64.0457
 30
0.0
 40
0
 41
0
  0
VERTEX
  8
0
 10
154.603
 20
64.0592
 30
0.0
 40
0
 41
0
  0
VERTEX
  8
0
 10
154.597
 20
64.0728
 30
0.0
 40
0
 41
0
  0
VERTEX
  8
0
 10
154.592
 20
64.0864
 30
0.0
 40
0
 41
0
  0
VERTEX
  8
0
 10
154.587
 20
64.1003
 30
0.0
 40
0
 41
0
  0
VERTEX
  8
0
 10
154.583
 20
64.1143
 30
0.0
 40
0
 41
0
  0
VERTEX
  8
0
 10
154.579
 20
64.1285
 30
0.0
 40
0
 41
0
  0
VERTEX
  8
0
 10
154.576
 20
64.1426
 30
0.0
 40
0
 41
0
  0
VERTEX
  8
0
 10
154.574
 20
64.1574
 30
0.0
 40
0
 41
0
  0
VERTEX
  8
0
 10
154.571
 20
64.1721
 30
0.0
 40
0
 41
0
  0
VERTEX
  8
0
 10
154.568
 20
64.1868
 30
0.0
 40
0
 41
0
  0
VERTEX
  8
0
 10
154.565
 20
64.2015
 30
0.0
 40
0
 41
0
  0
VERTEX
  8
0
 10
154.564
 20
64.2164
 30
0.0
 40
0
 41
0
  0
VERTEX
  8
0
 10
154.563
 20
64.2311
 30
0.0
 40
0
 41
0
  0
VERTEX
  8
0
 10
154.561
 20
64.246
 30
0.0
 40
0
 41
0
  0
VERTEX
  8
0
 10
154.561
 20
64.261
 30
0.0
 40
0
 41
0
  0
VERTEX
  8
0
 10
154.56
 20
64.2758
 30
0.0
 40
0
 41
0
  0
VERTEX
  8
0
 10
154.56
 20
64.2908
 30
0.0
 40
0
 41
0
  0
VERTEX
  8
0
 10
154.561
 20
64.3292
 30
0.0
 40
0
 41
0
  0
VERTEX
  8
0
 10
154.563
 20
64.3663
 30
0.0
 40
0
 41
0
  0
VERTEX
  8
0
 10
154.567
 20
64.4019
 30
0.0
 40
0
 41
0
  0
VERTEX
  8
0
 10
154.571
 20
64.4364
 30
0.0
 40
0
 41
0
  0
VERTEX
  8
0
 10
154.578
 20
64.4694
 30
0.0
 40
0
 41
0
  0
VERTEX
  8
0
 10
154.586
 20
64.5011
 30
0.0
 40
0
 41
0
  0
VERTEX
  8
0
 10
154.594
 20
64.5315
 30
0.0
 40
0
 41
0
  0
VERTEX
  8
0
 10
154.606
 20
64.5606
 30
0.0
 40
0
 41
0
  0
VERTEX
  8
0
 10
154.618
 20
64.5883
 30
0.0
 40
0
 41
0
  0
VERTEX
  8
0
 10
154.632
 20
64.6147
 30
0.0
 40
0
 41
0
  0
VERTEX
  8
0
 10
154.647
 20
64.64
 30
0.0
 40
0
 41
0
  0
VERTEX
  8
0
 10
154.664
 20
64.664
 30
0.0
 40
0
 41
0
  0
VERTEX
  8
0
 10
154.682
 20
64.6867
 30
0.0
 40
0
 41
0
  0
VERTEX
  8
0
 10
154.701
 20
64.7079
 30
0.0
 40
0
 41
0
  0
VERTEX
  8
0
 10
154.724
 20
64.7278
 30
0.0
 40
0
 41
0
  0
VERTEX
  8
0
 10
154.747
 20
64.7464
 30
0.0
 40
0
 41
0
  0
VERTEX
  8
0
 10
154.772
 20
64.7635
 30
0.0
 40
0
 41
0
  0
VERTEX
  8
0
 10
154.799
 20
64.7793
 30
0.0
 40
0
 41
0
  0
VERTEX
  8
0
 10
154.826
 20
64.7937
 30
0.0
 40
0
 41
0
  0
VERTEX
  8
0
 10
154.856
 20
64.8068
 30
0.0
 40
0
 41
0
  0
VERTEX
  8
0
 10
154.856
 20
64.8197
 30
0.0
 40
0
 41
0
  0
VERTEX
  8
0
 10
154.842
 20
64.8285
 30
0.0
 40
0
 41
0
  0
VERTEX
  8
0
 10
154.826
 20
64.8374
 30
0.0
 40
0
 41
0
  0
VERTEX
  8
0
 10
154.813
 20
64.8467
 30
0.0
 40
0
 41
0
  0
VERTEX
  8
0
 10
154.799
 20
64.8562
 30
0.0
 40
0
 41
0
  0
VERTEX
  8
0
 10
154.785
 20
64.8661
 30
0.0
 40
0
 41
0
  0
VERTEX
  8
0
 10
154.772
 20
64.8764
 30
0.0
 40
0
 41
0
  0
VERTEX
  8
0
 10
154.76
 20
64.8869
 30
0.0
 40
0
 41
0
  0
VERTEX
  8
0
 10
154.747
 20
64.8979
 30
0.0
 40
0
 41
0
  0
VERTEX
  8
0
 10
154.736
 20
64.9092
 30
0.0
 40
0
 41
0
  0
VERTEX
  8
0
 10
154.724
 20
64.9207
 30
0.0
 40
0
 41
0
  0
VERTEX
  8
0
 10
154.714
 20
64.9328
 30
0.0
 40
0
 41
0
  0
VERTEX
  8
0
 10
154.703
 20
64.9451
 30
0.0
 40
0
 41
0
  0
VERTEX
  8
0
 10
154.693
 20
64.9576
 30
0.0
 40
0
 41
0
  0
VERTEX
  8
0
 10
154.683
 20
64.9704
 30
0.0
 40
0
 41
0
  0
VERTEX
  8
0
 10
154.674
 20
64.9833
 30
0.0
 40
0
 41
0
  0
VERTEX
  8
0
 10
154.665
 20
64.9965
 30
0.0
 40
0
 41
0
  0
VERTEX
  8
0
 10
154.657
 20
65.0097
 30
0.0
 40
0
 41
0
  0
VERTEX
  8
0
 10
154.649
 20
65.0233
 30
0.0
 40
0
 41
0
  0
VERTEX
  8
0
 10
154.64
 20
65.0369
 30
0.0
 40
0
 41
0
  0
VERTEX
  8
0
 10
154.633
 20
65.051
 30
0.0
 40
0
 41
0
  0
VERTEX
  8
0
 10
154.626
 20
65.0653
 30
0.0
 40
0
 41
0
  0
VERTEX
  8
0
 10
154.619
 20
65.0799
 30
0.0
 40
0
 41
0
  0
VERTEX
  8
0
 10
154.612
 20
65.0944
 30
0.0
 40
0
 41
0
  0
VERTEX
  8
0
 10
154.606
 20
65.1093
 30
0.0
 40
0
 41
0
  0
VERTEX
  8
0
 10
154.6
 20
65.1242
 30
0.0
 40
0
 41
0
  0
VERTEX
  8
0
 10
154.596
 20
65.1392
 30
0.0
 40
0
 41
0
  0
VERTEX
  8
0
 10
154.59
 20
65.1543
 30
0.0
 40
0
 41
0
  0
VERTEX
  8
0
 10
154.586
 20
65.1697
 30
0.0
 40
0
 41
0
  0
VERTEX
  8
0
 10
154.582
 20
65.1851
 30
0.0
 40
0
 41
0
  0
VERTEX
  8
0
 10
154.578
 20
65.2007
 30
0.0
 40
0
 41
0
  0
VERTEX
  8
0
 10
154.575
 20
65.2162
 30
0.0
 40
0
 41
0
  0
VERTEX
  8
0
 10
154.571
 20
65.2321
 30
0.0
 40
0
 41
0
  0
VERTEX
  8
0
 10
154.568
 20
65.2478
 30
0.0
 40
0
 41
0
  0
VERTEX
  8
0
 10
154.567
 20
65.2636
 30
0.0
 40
0
 41
0
  0
VERTEX
  8
0
 10
154.564
 20
65.2796
 30
0.0
 40
0
 41
0
  0
VERTEX
  8
0
 10
154.563
 20
65.2956
 30
0.0
 40
0
 41
0
  0
VERTEX
  8
0
 10
154.561
 20
65.3117
 30
0.0
 40
0
 41
0
  0
VERTEX
  8
0
 10
154.561
 20
65.3278
 30
0.0
 40
0
 41
0
  0
VERTEX
  8
0
 10
154.56
 20
65.3439
 30
0.0
 40
0
 41
0
  0
VERTEX
  8
0
 10
154.56
 20
65.3601
 30
0.0
 40
0
 41
0
  0
VERTEX
  8
0
 10
154.561
 20
65.4157
 30
0.0
 40
0
 41
0
  0
VERTEX
  8
0
 10
154.567
 20
65.4685
 30
0.0
 40
0
 41
0
  0
VERTEX
  8
0
 10
154.574
 20
65.5183
 30
0.0
 40
0
 41
0
  0
VERTEX
  8
0
 10
154.585
 20
65.5654
 30
0.0
 40
0
 41
0
  0
VERTEX
  8
0
 10
154.599
 20
65.6096
 30
0.0
 40
0
 41
0
  0
VERTEX
  8
0
 10
154.617
 20
65.651
 30
0.0
 40
0
 41
0
  0
VERTEX
  8
0
 10
154.636
 20
65.6896
 30
0.0
 40
0
 41
0
  0
VERTEX
  8
0
 10
154.66
 20
65.7253
 30
0.0
 40
0
 41
0
  0
VERTEX
  8
0
 10
154.686
 20
65.7582
 30
0.0
 40
0
 41
0
  0
VERTEX
  8
0
 10
154.717
 20
65.7882
 30
0.0
 40
0
 41
0
  0
VERTEX
  8
0
 10
154.749
 20
65.8157
 30
0.0
 40
0
 41
0
  0
VERTEX
  8
0
 10
154.786
 20
65.8404
 30
0.0
 40
0
 41
0
  0
VERTEX
  8
0
 10
154.825
 20
65.8621
 30
0.0
 40
0
 41
0
  0
VERTEX
  8
0
 10
154.869
 20
65.881
 30
0.0
 40
0
 41
0
  0
VERTEX
  8
0
 10
154.918
 20
65.8968
 30
0.0
 40
0
 41
0
  0
VERTEX
  8
0
 10
154.969
 20
65.9099
 30
0.0
 40
0
 41
0
  0
VERTEX
  8
0
 10
155.025
 20
65.92
 30
0.0
 40
0
 41
0
  0
VERTEX
  8
0
 10
155.083
 20
65.9272
 30
0.0
 40
0
 41
0
  0
VERTEX
  8
0
 10
155.146
 20
65.9317
 30
0.0
 40
0
 41
0
  0
VERTEX
  8
0
 10
155.212
 20
65.9331
 30
0.0
 40
0
 41
0
  0
VERTEX
  8
0
 10
156.379
 20
65.9331
 30
0.0
 40
0
 41
0
  0
VERTEX
  8
0
 10
156.379
 20
65.6368
 30
0.0
 40
0
 41
0
  0
SEQEND
 8
0
  0
ENDSEC
  0
EOF
