  0
SECTION
  2
HEADER
  9
$ACADVER
  1
AC1009
  9
$EXTMIN
 10
0.0
 20
0.0
 30
0.0
  9
$EXTMAX
 10
1000.0
 20
1000.0
 30
0.0
  9
$FILLMODE
 70
 0
  9
$SPLFRAME
 70
 1
  0
ENDSEC
  0
SECTION
  2
TABLES
  0
TABLE
  2
LAYER
 70
1
  0
LAYER
  2
0
 70
     0
 62
     7
  6
CONTINUOUS
  0
ENDTAB
  0
ENDSEC
  0
SECTION
  2
ENTITIES
  0
POLYLINE
  8
0
 62
     0
 66
     1
 10
0
 20
0
 30
0.0
 70
     1
 40
0
 41
0
  0
VERTEX
  8
0
 10
68.5
 20
81.75
 30
0.0
 40
0
 41
0
  0
VERTEX
  8
0
 10
68.4975
 20
81.8285
 30
0.0
 40
0
 41
0
  0
VERTEX
  8
0
 10
68.4901
 20
81.9069
 30
0.0
 40
0
 41
0
  0
VERTEX
  8
0
 10
68.4778
 20
81.9853
 30
0.0
 40
0
 41
0
  0
VERTEX
  8
0
 10
68.4606
 20
82.0633
 30
0.0
 40
0
 41
0
  0
VERTEX
  8
0
 10
68.4385
 20
82.1411
 30
0.0
 40
0
 41
0
  0
VERTEX
  8
0
 10
68.4114
 20
82.2185
 30
0.0
 40
0
 41
0
  0
VERTEX
  8
0
 10
68.3796
 20
82.2954
 30
0.0
 40
0
 41
0
  0
VERTEX
  8
0
 10
68.3429
 20
82.3717
 30
0.0
 40
0
 41
0
  0
VERTEX
  8
0
 10
68.3014
 20
82.4475
 30
0.0
 40
0
 41
0
  0
VERTEX
  8
0
 10
68.2553
 20
82.5225
 30
0.0
 40
0
 41
0
  0
VERTEX
  8
0
 10
68.2043
 20
82.5968
 30
0.0
 40
0
 41
0
  0
VERTEX
  8
0
 10
68.1489
 20
82.6703
 30
0.0
 40
0
 41
0
  0
VERTEX
  8
0
 10
68.0888
 20
82.7429
 30
0.0
 40
0
 41
0
  0
VERTEX
  8
0
 10
68.0242
 20
82.8144
 30
0.0
 40
0
 41
0
  0
VERTEX
  8
0
 10
67.955
 20
82.885
 30
0.0
 40
0
 41
0
  0
VERTEX
  8
0
 10
67.8815
 20
82.9544
 30
0.0
 40
0
 41
0
  0
VERTEX
  8
0
 10
67.8036
 20
83.0226
 30
0.0
 40
0
 41
0
  0
VERTEX
  8
0
 10
67.7217
 20
83.0896
 30
0.0
 40
0
 41
0
  0
VERTEX
  8
0
 10
67.6354
 20
83.1551
 30
0.0
 40
0
 41
0
  0
VERTEX
  8
0
 10
67.545
 20
83.2194
 30
0.0
 40
0
 41
0
  0
VERTEX
  8
0
 10
67.4507
 20
83.2822
 30
0.0
 40
0
 41
0
  0
VERTEX
  8
0
 10
67.3525
 20
83.3436
 30
0.0
 40
0
 41
0
  0
VERTEX
  8
0
 10
67.2506
 20
83.4033
 30
0.0
 40
0
 41
0
  0
VERTEX
  8
0
 10
67.1449
 20
83.4614
 30
0.0
 40
0
 41
0
  0
VERTEX
  8
0
 10
67.0356
 20
83.5178
 30
0.0
 40
0
 41
0
  0
VERTEX
  8
0
 10
66.9226
 20
83.5724
 30
0.0
 40
0
 41
0
  0
VERTEX
  8
0
 10
66.8065
 20
83.6253
 30
0.0
 40
0
 41
0
  0
VERTEX
  8
0
 10
66.6871
 20
83.6762
 30
0.0
 40
0
 41
0
  0
VERTEX
  8
0
 10
66.5644
 20
83.7254
 30
0.0
 40
0
 41
0
  0
VERTEX
  8
0
 10
66.4389
 20
83.7725
 30
0.0
 40
0
 41
0
  0
VERTEX
  8
0
 10
66.3104
 20
83.8176
 30
0.0
 40
0
 41
0
  0
VERTEX
  8
0
 10
66.1792
 20
83.8608
 30
0.0
 40
0
 41
0
  0
VERTEX
  8
0
 10
66.0451
 20
83.9018
 30
0.0
 40
0
 41
0
  0
VERTEX
  8
0
 10
65.9088
 20
83.9407
 30
0.0
 40
0
 41
0
  0
VERTEX
  8
0
 10
65.7699
 20
83.9775
 30
0.0
 40
0
 41
0
  0
VERTEX
  8
0
 10
65.6289
 20
84.0121
 30
0.0
 40
0
 41
0
  0
VERTEX
  8
0
 10
65.4857
 20
84.0444
 30
0.0
 40
0
 41
0
  0
VERTEX
  8
0
 10
65.3406
 20
84.0744
 30
0.0
 40
0
 41
0
  0
VERTEX
  8
0
 10
65.1936
 20
84.1022
 30
0.0
 40
0
 41
0
  0
VERTEX
  8
0
 10
65.045
 20
84.1276
 30
0.0
 40
0
 41
0
  0
VERTEX
  8
0
 10
64.8949
 20
84.1507
 30
0.0
 40
0
 41
0
  0
VERTEX
  8
0
 10
64.7435
 20
84.1714
 30
0.0
 40
0
 41
0
  0
VERTEX
  8
0
 10
64.5907
 20
84.1897
 30
0.0
 40
0
 41
0
  0
VERTEX
  8
0
 10
64.4368
 20
84.2057
 30
0.0
 40
0
 41
0
  0
VERTEX
  8
0
 10
64.2821
 20
84.2192
 30
0.0
 40
0
 41
0
  0
VERTEX
  8
0
 10
64.1267
 20
84.2303
 30
0.0
 40
0
 41
0
  0
VERTEX
  8
0
 10
63.9706
 20
84.2389
 30
0.0
 40
0
 41
0
  0
VERTEX
  8
0
 10
63.8139
 20
84.245
 30
0.0
 40
0
 41
0
  0
VERTEX
  8
0
 10
63.6571
 20
84.2488
 30
0.0
 40
0
 41
0
  0
VERTEX
  8
0
 10
63.5
 20
84.25
 30
0.0
 40
0
 41
0
  0
VERTEX
  8
0
 10
63.3429
 20
84.2488
 30
0.0
 40
0
 41
0
  0
VERTEX
  8
0
 10
63.186
 20
84.245
 30
0.0
 40
0
 41
0
  0
VERTEX
  8
0
 10
63.0294
 20
84.2389
 30
0.0
 40
0
 41
0
  0
VERTEX
  8
0
 10
62.8733
 20
84.2303
 30
0.0
 40
0
 41
0
  0
VERTEX
  8
0
 10
62.7178
 20
84.2192
 30
0.0
 40
0
 41
0
  0
VERTEX
  8
0
 10
62.5631
 20
84.2057
 30
0.0
 40
0
 41
0
  0
VERTEX
  8
0
 10
62.4093
 20
84.1897
 30
0.0
 40
0
 41
0
  0
VERTEX
  8
0
 10
62.2565
 20
84.1714
 30
0.0
 40
0
 41
0
  0
VERTEX
  8
0
 10
62.105
 20
84.1507
 30
0.0
 40
0
 41
0
  0
VERTEX
  8
0
 10
61.9549
 20
84.1276
 30
0.0
 40
0
 41
0
  0
VERTEX
  8
0
 10
61.8062
 20
84.1022
 30
0.0
 40
0
 41
0
  0
VERTEX
  8
0
 10
61.6593
 20
84.0744
 30
0.0
 40
0
 41
0
  0
VERTEX
  8
0
 10
61.5142
 20
84.0444
 30
0.0
 40
0
 41
0
  0
VERTEX
  8
0
 10
61.3711
 20
84.0121
 30
0.0
 40
0
 41
0
  0
VERTEX
  8
0
 10
61.23
 20
83.9775
 30
0.0
 40
0
 41
0
  0
VERTEX
  8
0
 10
61.0912
 20
83.9407
 30
0.0
 40
0
 41
0
  0
VERTEX
  8
0
 10
60.9547
 20
83.9018
 30
0.0
 40
0
 41
0
  0
VERTEX
  8
0
 10
60.8208
 20
83.8608
 30
0.0
 40
0
 41
0
  0
VERTEX
  8
0
 10
60.6896
 20
83.8176
 30
0.0
 40
0
 41
0
  0
VERTEX
  8
0
 10
60.561
 20
83.7725
 30
0.0
 40
0
 41
0
  0
VERTEX
  8
0
 10
60.4354
 20
83.7254
 30
0.0
 40
0
 41
0
  0
VERTEX
  8
0
 10
60.3128
 20
83.6762
 30
0.0
 40
0
 41
0
  0
VERTEX
  8
0
 10
60.1935
 20
83.6253
 30
0.0
 40
0
 41
0
  0
VERTEX
  8
0
 10
60.0772
 20
83.5724
 30
0.0
 40
0
 41
0
  0
VERTEX
  8
0
 10
59.9644
 20
83.5178
 30
0.0
 40
0
 41
0
  0
VERTEX
  8
0
 10
59.8551
 20
83.4614
 30
0.0
 40
0
 41
0
  0
VERTEX
  8
0
 10
59.7494
 20
83.4033
 30
0.0
 40
0
 41
0
  0
VERTEX
  8
0
 10
59.6474
 20
83.3436
 30
0.0
 40
0
 41
0
  0
VERTEX
  8
0
 10
59.5492
 20
83.2822
 30
0.0
 40
0
 41
0
  0
VERTEX
  8
0
 10
59.4549
 20
83.2194
 30
0.0
 40
0
 41
0
  0
VERTEX
  8
0
 10
59.3646
 20
83.1551
 30
0.0
 40
0
 41
0
  0
VERTEX
  8
0
 10
59.2783
 20
83.0896
 30
0.0
 40
0
 41
0
  0
VERTEX
  8
0
 10
59.1962
 20
83.0226
 30
0.0
 40
0
 41
0
  0
VERTEX
  8
0
 10
59.1185
 20
82.9544
 30
0.0
 40
0
 41
0
  0
VERTEX
  8
0
 10
59.045
 20
82.885
 30
0.0
 40
0
 41
0
  0
VERTEX
  8
0
 10
58.9758
 20
82.8144
 30
0.0
 40
0
 41
0
  0
VERTEX
  8
0
 10
58.9112
 20
82.7429
 30
0.0
 40
0
 41
0
  0
VERTEX
  8
0
 10
58.8511
 20
82.6703
 30
0.0
 40
0
 41
0
  0
VERTEX
  8
0
 10
58.7956
 20
82.5968
 30
0.0
 40
0
 41
0
  0
VERTEX
  8
0
 10
58.7447
 20
82.5225
 30
0.0
 40
0
 41
0
  0
VERTEX
  8
0
 10
58.6985
 20
82.4475
 30
0.0
 40
0
 41
0
  0
VERTEX
  8
0
 10
58.6571
 20
82.3717
 30
0.0
 40
0
 41
0
  0
VERTEX
  8
0
 10
58.6204
 20
82.2954
 30
0.0
 40
0
 41
0
  0
VERTEX
  8
0
 10
58.5885
 20
82.2185
 30
0.0
 40
0
 41
0
  0
VERTEX
  8
0
 10
58.5615
 20
82.1411
 30
0.0
 40
0
 41
0
  0
VERTEX
  8
0
 10
58.5394
 20
82.0633
 30
0.0
 40
0
 41
0
  0
VERTEX
  8
0
 10
58.5222
 20
81.9853
 30
0.0
 40
0
 41
0
  0
VERTEX
  8
0
 10
58.5099
 20
81.9069
 30
0.0
 40
0
 41
0
  0
VERTEX
  8
0
 10
58.5025
 20
81.8285
 30
0.0
 40
0
 41
0
  0
VERTEX
  8
0
 10
58.5
 20
81.75
 30
0.0
 40
0
 41
0
  0
VERTEX
  8
0
 10
68.5
 20
81.75
 30
0.0
 40
0
 41
0
  0
SEQEND
 8
0
  0
POLYLINE
  8
0
 62
     0
 66
     1
 10
0
 20
0
 30
0.0
 70
     1
 40
0.75
 41
0.75
  0
VERTEX
  8
0
 10
68.5
 20
81.75
 30
0.0
 40
0.0104167
 41
0.0104167
  0
VERTEX
  8
0
 10
68.4975
 20
81.8285
 30
0.0
 40
0.0104167
 41
0.0104167
  0
VERTEX
  8
0
 10
68.4901
 20
81.9069
 30
0.0
 40
0.0104167
 41
0.0104167
  0
VERTEX
  8
0
 10
68.4778
 20
81.9853
 30
0.0
 40
0.0104167
 41
0.0104167
  0
VERTEX
  8
0
 10
68.4606
 20
82.0633
 30
0.0
 40
0.0104167
 41
0.0104167
  0
VERTEX
  8
0
 10
68.4385
 20
82.1411
 30
0.0
 40
0.0104167
 41
0.0104167
  0
VERTEX
  8
0
 10
68.4114
 20
82.2185
 30
0.0
 40
0.0104167
 41
0.0104167
  0
VERTEX
  8
0
 10
68.3796
 20
82.2954
 30
0.0
 40
0.0104167
 41
0.0104167
  0
VERTEX
  8
0
 10
68.3429
 20
82.3717
 30
0.0
 40
0.0104167
 41
0.0104167
  0
VERTEX
  8
0
 10
68.3014
 20
82.4475
 30
0.0
 40
0.0104167
 41
0.0104167
  0
VERTEX
  8
0
 10
68.2553
 20
82.5225
 30
0.0
 40
0.0104167
 41
0.0104167
  0
VERTEX
  8
0
 10
68.2043
 20
82.5968
 30
0.0
 40
0.0104167
 41
0.0104167
  0
VERTEX
  8
0
 10
68.1489
 20
82.6703
 30
0.0
 40
0.0104167
 41
0.0104167
  0
VERTEX
  8
0
 10
68.0888
 20
82.7429
 30
0.0
 40
0.0104167
 41
0.0104167
  0
VERTEX
  8
0
 10
68.0242
 20
82.8144
 30
0.0
 40
0.0104167
 41
0.0104167
  0
VERTEX
  8
0
 10
67.955
 20
82.885
 30
0.0
 40
0.0104167
 41
0.0104167
  0
VERTEX
  8
0
 10
67.8815
 20
82.9544
 30
0.0
 40
0.0104167
 41
0.0104167
  0
VERTEX
  8
0
 10
67.8036
 20
83.0226
 30
0.0
 40
0.0104167
 41
0.0104167
  0
VERTEX
  8
0
 10
67.7217
 20
83.0896
 30
0.0
 40
0.0104167
 41
0.0104167
  0
VERTEX
  8
0
 10
67.6354
 20
83.1551
 30
0.0
 40
0.0104167
 41
0.0104167
  0
VERTEX
  8
0
 10
67.545
 20
83.2194
 30
0.0
 40
0.0104167
 41
0.0104167
  0
VERTEX
  8
0
 10
67.4507
 20
83.2822
 30
0.0
 40
0.0104167
 41
0.0104167
  0
VERTEX
  8
0
 10
67.3525
 20
83.3436
 30
0.0
 40
0.0104167
 41
0.0104167
  0
VERTEX
  8
0
 10
67.2506
 20
83.4033
 30
0.0
 40
0.0104167
 41
0.0104167
  0
VERTEX
  8
0
 10
67.1449
 20
83.4614
 30
0.0
 40
0.0104167
 41
0.0104167
  0
VERTEX
  8
0
 10
67.0356
 20
83.5178
 30
0.0
 40
0.0104167
 41
0.0104167
  0
VERTEX
  8
0
 10
66.9226
 20
83.5724
 30
0.0
 40
0.0104167
 41
0.0104167
  0
VERTEX
  8
0
 10
66.8065
 20
83.6253
 30
0.0
 40
0.0104167
 41
0.0104167
  0
VERTEX
  8
0
 10
66.6871
 20
83.6762
 30
0.0
 40
0.0104167
 41
0.0104167
  0
VERTEX
  8
0
 10
66.5644
 20
83.7254
 30
0.0
 40
0.0104167
 41
0.0104167
  0
VERTEX
  8
0
 10
66.4389
 20
83.7725
 30
0.0
 40
0.0104167
 41
0.0104167
  0
VERTEX
  8
0
 10
66.3104
 20
83.8176
 30
0.0
 40
0.0104167
 41
0.0104167
  0
VERTEX
  8
0
 10
66.1792
 20
83.8608
 30
0.0
 40
0.0104167
 41
0.0104167
  0
VERTEX
  8
0
 10
66.0451
 20
83.9018
 30
0.0
 40
0.0104167
 41
0.0104167
  0
VERTEX
  8
0
 10
65.9088
 20
83.9407
 30
0.0
 40
0.0104167
 41
0.0104167
  0
VERTEX
  8
0
 10
65.7699
 20
83.9775
 30
0.0
 40
0.0104167
 41
0.0104167
  0
VERTEX
  8
0
 10
65.6289
 20
84.0121
 30
0.0
 40
0.0104167
 41
0.0104167
  0
VERTEX
  8
0
 10
65.4857
 20
84.0444
 30
0.0
 40
0.0104167
 41
0.0104167
  0
VERTEX
  8
0
 10
65.3406
 20
84.0744
 30
0.0
 40
0.0104167
 41
0.0104167
  0
VERTEX
  8
0
 10
65.1936
 20
84.1022
 30
0.0
 40
0.0104167
 41
0.0104167
  0
VERTEX
  8
0
 10
65.045
 20
84.1276
 30
0.0
 40
0.0104167
 41
0.0104167
  0
VERTEX
  8
0
 10
64.8949
 20
84.1507
 30
0.0
 40
0.0104167
 41
0.0104167
  0
VERTEX
  8
0
 10
64.7435
 20
84.1714
 30
0.0
 40
0.0104167
 41
0.0104167
  0
VERTEX
  8
0
 10
64.5907
 20
84.1897
 30
0.0
 40
0.0104167
 41
0.0104167
  0
VERTEX
  8
0
 10
64.4368
 20
84.2057
 30
0.0
 40
0.0104167
 41
0.0104167
  0
VERTEX
  8
0
 10
64.2821
 20
84.2192
 30
0.0
 40
0.0104167
 41
0.0104167
  0
VERTEX
  8
0
 10
64.1267
 20
84.2303
 30
0.0
 40
0.0104167
 41
0.0104167
  0
VERTEX
  8
0
 10
63.9706
 20
84.2389
 30
0.0
 40
0.0104167
 41
0.0104167
  0
VERTEX
  8
0
 10
63.8139
 20
84.245
 30
0.0
 40
0.0104167
 41
0.0104167
  0
VERTEX
  8
0
 10
63.6571
 20
84.2488
 30
0.0
 40
0.0104167
 41
0.0104167
  0
VERTEX
  8
0
 10
63.5
 20
84.25
 30
0.0
 40
0.0104167
 41
0.0104167
  0
VERTEX
  8
0
 10
63.3429
 20
84.2488
 30
0.0
 40
0.0104167
 41
0.0104167
  0
VERTEX
  8
0
 10
63.186
 20
84.245
 30
0.0
 40
0.0104167
 41
0.0104167
  0
VERTEX
  8
0
 10
63.0294
 20
84.2389
 30
0.0
 40
0.0104167
 41
0.0104167
  0
VERTEX
  8
0
 10
62.8733
 20
84.2303
 30
0.0
 40
0.0104167
 41
0.0104167
  0
VERTEX
  8
0
 10
62.7178
 20
84.2192
 30
0.0
 40
0.0104167
 41
0.0104167
  0
VERTEX
  8
0
 10
62.5631
 20
84.2057
 30
0.0
 40
0.0104167
 41
0.0104167
  0
VERTEX
  8
0
 10
62.4093
 20
84.1897
 30
0.0
 40
0.0104167
 41
0.0104167
  0
VERTEX
  8
0
 10
62.2565
 20
84.1714
 30
0.0
 40
0.0104167
 41
0.0104167
  0
VERTEX
  8
0
 10
62.105
 20
84.1507
 30
0.0
 40
0.0104167
 41
0.0104167
  0
VERTEX
  8
0
 10
61.9549
 20
84.1276
 30
0.0
 40
0.0104167
 41
0.0104167
  0
VERTEX
  8
0
 10
61.8062
 20
84.1022
 30
0.0
 40
0.0104167
 41
0.0104167
  0
VERTEX
  8
0
 10
61.6593
 20
84.0744
 30
0.0
 40
0.0104167
 41
0.0104167
  0
VERTEX
  8
0
 10
61.5142
 20
84.0444
 30
0.0
 40
0.0104167
 41
0.0104167
  0
VERTEX
  8
0
 10
61.3711
 20
84.0121
 30
0.0
 40
0.0104167
 41
0.0104167
  0
VERTEX
  8
0
 10
61.23
 20
83.9775
 30
0.0
 40
0.0104167
 41
0.0104167
  0
VERTEX
  8
0
 10
61.0912
 20
83.9407
 30
0.0
 40
0.0104167
 41
0.0104167
  0
VERTEX
  8
0
 10
60.9547
 20
83.9018
 30
0.0
 40
0.0104167
 41
0.0104167
  0
VERTEX
  8
0
 10
60.8208
 20
83.8608
 30
0.0
 40
0.0104167
 41
0.0104167
  0
VERTEX
  8
0
 10
60.6896
 20
83.8176
 30
0.0
 40
0.0104167
 41
0.0104167
  0
VERTEX
  8
0
 10
60.561
 20
83.7725
 30
0.0
 40
0.0104167
 41
0.0104167
  0
VERTEX
  8
0
 10
60.4354
 20
83.7254
 30
0.0
 40
0.0104167
 41
0.0104167
  0
VERTEX
  8
0
 10
60.3128
 20
83.6762
 30
0.0
 40
0.0104167
 41
0.0104167
  0
VERTEX
  8
0
 10
60.1935
 20
83.6253
 30
0.0
 40
0.0104167
 41
0.0104167
  0
VERTEX
  8
0
 10
60.0772
 20
83.5724
 30
0.0
 40
0.0104167
 41
0.0104167
  0
VERTEX
  8
0
 10
59.9644
 20
83.5178
 30
0.0
 40
0.0104167
 41
0.0104167
  0
VERTEX
  8
0
 10
59.8551
 20
83.4614
 30
0.0
 40
0.0104167
 41
0.0104167
  0
VERTEX
  8
0
 10
59.7494
 20
83.4033
 30
0.0
 40
0.0104167
 41
0.0104167
  0
VERTEX
  8
0
 10
59.6474
 20
83.3436
 30
0.0
 40
0.0104167
 41
0.0104167
  0
VERTEX
  8
0
 10
59.5492
 20
83.2822
 30
0.0
 40
0.0104167
 41
0.0104167
  0
VERTEX
  8
0
 10
59.4549
 20
83.2194
 30
0.0
 40
0.0104167
 41
0.0104167
  0
VERTEX
  8
0
 10
59.3646
 20
83.1551
 30
0.0
 40
0.0104167
 41
0.0104167
  0
VERTEX
  8
0
 10
59.2783
 20
83.0896
 30
0.0
 40
0.0104167
 41
0.0104167
  0
VERTEX
  8
0
 10
59.1962
 20
83.0226
 30
0.0
 40
0.0104167
 41
0.0104167
  0
VERTEX
  8
0
 10
59.1185
 20
82.9544
 30
0.0
 40
0.0104167
 41
0.0104167
  0
VERTEX
  8
0
 10
59.045
 20
82.885
 30
0.0
 40
0.0104167
 41
0.0104167
  0
VERTEX
  8
0
 10
58.9758
 20
82.8144
 30
0.0
 40
0.0104167
 41
0.0104167
  0
VERTEX
  8
0
 10
58.9112
 20
82.7429
 30
0.0
 40
0.0104167
 41
0.0104167
  0
VERTEX
  8
0
 10
58.8511
 20
82.6703
 30
0.0
 40
0.0104167
 41
0.0104167
  0
VERTEX
  8
0
 10
58.7956
 20
82.5968
 30
0.0
 40
0.0104167
 41
0.0104167
  0
VERTEX
  8
0
 10
58.7447
 20
82.5225
 30
0.0
 40
0.0104167
 41
0.0104167
  0
VERTEX
  8
0
 10
58.6985
 20
82.4475
 30
0.0
 40
0.0104167
 41
0.0104167
  0
VERTEX
  8
0
 10
58.6571
 20
82.3717
 30
0.0
 40
0.0104167
 41
0.0104167
  0
VERTEX
  8
0
 10
58.6204
 20
82.2954
 30
0.0
 40
0.0104167
 41
0.0104167
  0
VERTEX
  8
0
 10
58.5885
 20
82.2185
 30
0.0
 40
0.0104167
 41
0.0104167
  0
VERTEX
  8
0
 10
58.5615
 20
82.1411
 30
0.0
 40
0.0104167
 41
0.0104167
  0
VERTEX
  8
0
 10
58.5394
 20
82.0633
 30
0.0
 40
0.0104167
 41
0.0104167
  0
VERTEX
  8
0
 10
58.5222
 20
81.9853
 30
0.0
 40
0.0104167
 41
0.0104167
  0
VERTEX
  8
0
 10
58.5099
 20
81.9069
 30
0.0
 40
0.0104167
 41
0.0104167
  0
VERTEX
  8
0
 10
58.5025
 20
81.8285
 30
0.0
 40
0.0104167
 41
0.0104167
  0
VERTEX
  8
0
 10
58.5
 20
81.75
 30
0.0
 40
0.0104167
 41
0.0104167
  0
VERTEX
  8
0
 10
68.5
 20
81.75
 30
0.0
 40
0.0104167
 41
0.0104167
  0
SEQEND
 8
0
  0
POLYLINE
  8
0
 62
     0
 66
     1
 10
0
 20
0
 30
0.0
 70
     1
 40
0
 41
0
  0
VERTEX
  8
0
 10
58.5
 20
17.7
 30
0.0
 40
0
 41
0
  0
VERTEX
  8
0
 10
58.5025
 20
17.6215
 30
0.0
 40
0
 41
0
  0
VERTEX
  8
0
 10
58.5099
 20
17.5431
 30
0.0
 40
0
 41
0
  0
VERTEX
  8
0
 10
58.5222
 20
17.4647
 30
0.0
 40
0
 41
0
  0
VERTEX
  8
0
 10
58.5394
 20
17.3867
 30
0.0
 40
0
 41
0
  0
VERTEX
  8
0
 10
58.5615
 20
17.3089
 30
0.0
 40
0
 41
0
  0
VERTEX
  8
0
 10
58.5885
 20
17.2315
 30
0.0
 40
0
 41
0
  0
VERTEX
  8
0
 10
58.6204
 20
17.1546
 30
0.0
 40
0
 41
0
  0
VERTEX
  8
0
 10
58.6571
 20
17.0783
 30
0.0
 40
0
 41
0
  0
VERTEX
  8
0
 10
58.6985
 20
17.0025
 30
0.0
 40
0
 41
0
  0
VERTEX
  8
0
 10
58.7447
 20
16.9275
 30
0.0
 40
0
 41
0
  0
VERTEX
  8
0
 10
58.7956
 20
16.8532
 30
0.0
 40
0
 41
0
  0
VERTEX
  8
0
 10
58.8511
 20
16.7797
 30
0.0
 40
0
 41
0
  0
VERTEX
  8
0
 10
58.9112
 20
16.7071
 30
0.0
 40
0
 41
0
  0
VERTEX
  8
0
 10
58.9758
 20
16.6356
 30
0.0
 40
0
 41
0
  0
VERTEX
  8
0
 10
59.045
 20
16.565
 30
0.0
 40
0
 41
0
  0
VERTEX
  8
0
 10
59.1185
 20
16.4956
 30
0.0
 40
0
 41
0
  0
VERTEX
  8
0
 10
59.1962
 20
16.4274
 30
0.0
 40
0
 41
0
  0
VERTEX
  8
0
 10
59.2783
 20
16.3604
 30
0.0
 40
0
 41
0
  0
VERTEX
  8
0
 10
59.3646
 20
16.2947
 30
0.0
 40
0
 41
0
  0
VERTEX
  8
0
 10
59.4549
 20
16.2306
 30
0.0
 40
0
 41
0
  0
VERTEX
  8
0
 10
59.5492
 20
16.1678
 30
0.0
 40
0
 41
0
  0
VERTEX
  8
0
 10
59.6474
 20
16.1064
 30
0.0
 40
0
 41
0
  0
VERTEX
  8
0
 10
59.7494
 20
16.0467
 30
0.0
 40
0
 41
0
  0
VERTEX
  8
0
 10
59.8551
 20
15.9886
 30
0.0
 40
0
 41
0
  0
VERTEX
  8
0
 10
59.9644
 20
15.9322
 30
0.0
 40
0
 41
0
  0
VERTEX
  8
0
 10
60.0772
 20
15.8776
 30
0.0
 40
0
 41
0
  0
VERTEX
  8
0
 10
60.1935
 20
15.8247
 30
0.0
 40
0
 41
0
  0
VERTEX
  8
0
 10
60.3128
 20
15.7737
 30
0.0
 40
0
 41
0
  0
VERTEX
  8
0
 10
60.4354
 20
15.7246
 30
0.0
 40
0
 41
0
  0
VERTEX
  8
0
 10
60.561
 20
15.6775
 30
0.0
 40
0
 41
0
  0
VERTEX
  8
0
 10
60.6896
 20
15.6324
 30
0.0
 40
0
 41
0
  0
VERTEX
  8
0
 10
60.8208
 20
15.5892
 30
0.0
 40
0
 41
0
  0
VERTEX
  8
0
 10
60.9547
 20
15.5482
 30
0.0
 40
0
 41
0
  0
VERTEX
  8
0
 10
61.0912
 20
15.5092
 30
0.0
 40
0
 41
0
  0
VERTEX
  8
0
 10
61.23
 20
15.4725
 30
0.0
 40
0
 41
0
  0
VERTEX
  8
0
 10
61.3711
 20
15.4379
 30
0.0
 40
0
 41
0
  0
VERTEX
  8
0
 10
61.5142
 20
15.4056
 30
0.0
 40
0
 41
0
  0
VERTEX
  8
0
 10
61.6593
 20
15.3756
 30
0.0
 40
0
 41
0
  0
VERTEX
  8
0
 10
61.8062
 20
15.3478
 30
0.0
 40
0
 41
0
  0
VERTEX
  8
0
 10
61.9549
 20
15.3224
 30
0.0
 40
0
 41
0
  0
VERTEX
  8
0
 10
62.105
 20
15.2993
 30
0.0
 40
0
 41
0
  0
VERTEX
  8
0
 10
62.2565
 20
15.2785
 30
0.0
 40
0
 41
0
  0
VERTEX
  8
0
 10
62.4093
 20
15.2601
 30
0.0
 40
0
 41
0
  0
VERTEX
  8
0
 10
62.5631
 20
15.2443
 30
0.0
 40
0
 41
0
  0
VERTEX
  8
0
 10
62.7178
 20
15.2308
 30
0.0
 40
0
 41
0
  0
VERTEX
  8
0
 10
62.8733
 20
15.2197
 30
0.0
 40
0
 41
0
  0
VERTEX
  8
0
 10
63.0294
 20
15.2111
 30
0.0
 40
0
 41
0
  0
VERTEX
  8
0
 10
63.186
 20
15.2049
 30
0.0
 40
0
 41
0
  0
VERTEX
  8
0
 10
63.3429
 20
15.2012
 30
0.0
 40
0
 41
0
  0
VERTEX
  8
0
 10
63.5
 20
15.2
 30
0.0
 40
0
 41
0
  0
VERTEX
  8
0
 10
63.6571
 20
15.2012
 30
0.0
 40
0
 41
0
  0
VERTEX
  8
0
 10
63.8139
 20
15.2049
 30
0.0
 40
0
 41
0
  0
VERTEX
  8
0
 10
63.9706
 20
15.2111
 30
0.0
 40
0
 41
0
  0
VERTEX
  8
0
 10
64.1267
 20
15.2197
 30
0.0
 40
0
 41
0
  0
VERTEX
  8
0
 10
64.2821
 20
15.2308
 30
0.0
 40
0
 41
0
  0
VERTEX
  8
0
 10
64.4368
 20
15.2443
 30
0.0
 40
0
 41
0
  0
VERTEX
  8
0
 10
64.5907
 20
15.2601
 30
0.0
 40
0
 41
0
  0
VERTEX
  8
0
 10
64.7435
 20
15.2785
 30
0.0
 40
0
 41
0
  0
VERTEX
  8
0
 10
64.8949
 20
15.2993
 30
0.0
 40
0
 41
0
  0
VERTEX
  8
0
 10
65.045
 20
15.3224
 30
0.0
 40
0
 41
0
  0
VERTEX
  8
0
 10
65.1936
 20
15.3478
 30
0.0
 40
0
 41
0
  0
VERTEX
  8
0
 10
65.3406
 20
15.3756
 30
0.0
 40
0
 41
0
  0
VERTEX
  8
0
 10
65.4857
 20
15.4056
 30
0.0
 40
0
 41
0
  0
VERTEX
  8
0
 10
65.6289
 20
15.4379
 30
0.0
 40
0
 41
0
  0
VERTEX
  8
0
 10
65.7699
 20
15.4725
 30
0.0
 40
0
 41
0
  0
VERTEX
  8
0
 10
65.9088
 20
15.5092
 30
0.0
 40
0
 41
0
  0
VERTEX
  8
0
 10
66.0451
 20
15.5482
 30
0.0
 40
0
 41
0
  0
VERTEX
  8
0
 10
66.1792
 20
15.5892
 30
0.0
 40
0
 41
0
  0
VERTEX
  8
0
 10
66.3104
 20
15.6324
 30
0.0
 40
0
 41
0
  0
VERTEX
  8
0
 10
66.4389
 20
15.6775
 30
0.0
 40
0
 41
0
  0
VERTEX
  8
0
 10
66.5644
 20
15.7246
 30
0.0
 40
0
 41
0
  0
VERTEX
  8
0
 10
66.6871
 20
15.7737
 30
0.0
 40
0
 41
0
  0
VERTEX
  8
0
 10
66.8065
 20
15.8247
 30
0.0
 40
0
 41
0
  0
VERTEX
  8
0
 10
66.9226
 20
15.8776
 30
0.0
 40
0
 41
0
  0
VERTEX
  8
0
 10
67.0356
 20
15.9322
 30
0.0
 40
0
 41
0
  0
VERTEX
  8
0
 10
67.1449
 20
15.9886
 30
0.0
 40
0
 41
0
  0
VERTEX
  8
0
 10
67.2506
 20
16.0467
 30
0.0
 40
0
 41
0
  0
VERTEX
  8
0
 10
67.3525
 20
16.1064
 30
0.0
 40
0
 41
0
  0
VERTEX
  8
0
 10
67.4507
 20
16.1678
 30
0.0
 40
0
 41
0
  0
VERTEX
  8
0
 10
67.545
 20
16.2306
 30
0.0
 40
0
 41
0
  0
VERTEX
  8
0
 10
67.6354
 20
16.2947
 30
0.0
 40
0
 41
0
  0
VERTEX
  8
0
 10
67.7217
 20
16.3604
 30
0.0
 40
0
 41
0
  0
VERTEX
  8
0
 10
67.8036
 20
16.4274
 30
0.0
 40
0
 41
0
  0
VERTEX
  8
0
 10
67.8815
 20
16.4956
 30
0.0
 40
0
 41
0
  0
VERTEX
  8
0
 10
67.955
 20
16.565
 30
0.0
 40
0
 41
0
  0
VERTEX
  8
0
 10
68.0242
 20
16.6356
 30
0.0
 40
0
 41
0
  0
VERTEX
  8
0
 10
68.0888
 20
16.7071
 30
0.0
 40
0
 41
0
  0
VERTEX
  8
0
 10
68.1489
 20
16.7797
 30
0.0
 40
0
 41
0
  0
VERTEX
  8
0
 10
68.2043
 20
16.8532
 30
0.0
 40
0
 41
0
  0
VERTEX
  8
0
 10
68.2553
 20
16.9275
 30
0.0
 40
0
 41
0
  0
VERTEX
  8
0
 10
68.3014
 20
17.0025
 30
0.0
 40
0
 41
0
  0
VERTEX
  8
0
 10
68.3429
 20
17.0783
 30
0.0
 40
0
 41
0
  0
VERTEX
  8
0
 10
68.3796
 20
17.1546
 30
0.0
 40
0
 41
0
  0
VERTEX
  8
0
 10
68.4114
 20
17.2315
 30
0.0
 40
0
 41
0
  0
VERTEX
  8
0
 10
68.4385
 20
17.3089
 30
0.0
 40
0
 41
0
  0
VERTEX
  8
0
 10
68.4606
 20
17.3867
 30
0.0
 40
0
 41
0
  0
VERTEX
  8
0
 10
68.4778
 20
17.4647
 30
0.0
 40
0
 41
0
  0
VERTEX
  8
0
 10
68.4901
 20
17.5431
 30
0.0
 40
0
 41
0
  0
VERTEX
  8
0
 10
68.4975
 20
17.6215
 30
0.0
 40
0
 41
0
  0
VERTEX
  8
0
 10
68.5
 20
17.7
 30
0.0
 40
0
 41
0
  0
VERTEX
  8
0
 10
58.5
 20
17.7
 30
0.0
 40
0
 41
0
  0
SEQEND
 8
0
  0
POLYLINE
  8
0
 62
     0
 66
     1
 10
0
 20
0
 30
0.0
 70
     1
 40
0.75
 41
0.75
  0
VERTEX
  8
0
 10
58.5
 20
17.7
 30
0.0
 40
0.0104167
 41
0.0104167
  0
VERTEX
  8
0
 10
58.5025
 20
17.6215
 30
0.0
 40
0.0104167
 41
0.0104167
  0
VERTEX
  8
0
 10
58.5099
 20
17.5431
 30
0.0
 40
0.0104167
 41
0.0104167
  0
VERTEX
  8
0
 10
58.5222
 20
17.4647
 30
0.0
 40
0.0104167
 41
0.0104167
  0
VERTEX
  8
0
 10
58.5394
 20
17.3867
 30
0.0
 40
0.0104167
 41
0.0104167
  0
VERTEX
  8
0
 10
58.5615
 20
17.3089
 30
0.0
 40
0.0104167
 41
0.0104167
  0
VERTEX
  8
0
 10
58.5885
 20
17.2315
 30
0.0
 40
0.0104167
 41
0.0104167
  0
VERTEX
  8
0
 10
58.6204
 20
17.1546
 30
0.0
 40
0.0104167
 41
0.0104167
  0
VERTEX
  8
0
 10
58.6571
 20
17.0783
 30
0.0
 40
0.0104167
 41
0.0104167
  0
VERTEX
  8
0
 10
58.6985
 20
17.0025
 30
0.0
 40
0.0104167
 41
0.0104167
  0
VERTEX
  8
0
 10
58.7447
 20
16.9275
 30
0.0
 40
0.0104167
 41
0.0104167
  0
VERTEX
  8
0
 10
58.7956
 20
16.8532
 30
0.0
 40
0.0104167
 41
0.0104167
  0
VERTEX
  8
0
 10
58.8511
 20
16.7797
 30
0.0
 40
0.0104167
 41
0.0104167
  0
VERTEX
  8
0
 10
58.9112
 20
16.7071
 30
0.0
 40
0.0104167
 41
0.0104167
  0
VERTEX
  8
0
 10
58.9758
 20
16.6356
 30
0.0
 40
0.0104167
 41
0.0104167
  0
VERTEX
  8
0
 10
59.045
 20
16.565
 30
0.0
 40
0.0104167
 41
0.0104167
  0
VERTEX
  8
0
 10
59.1185
 20
16.4956
 30
0.0
 40
0.0104167
 41
0.0104167
  0
VERTEX
  8
0
 10
59.1962
 20
16.4274
 30
0.0
 40
0.0104167
 41
0.0104167
  0
VERTEX
  8
0
 10
59.2783
 20
16.3604
 30
0.0
 40
0.0104167
 41
0.0104167
  0
VERTEX
  8
0
 10
59.3646
 20
16.2947
 30
0.0
 40
0.0104167
 41
0.0104167
  0
VERTEX
  8
0
 10
59.4549
 20
16.2306
 30
0.0
 40
0.0104167
 41
0.0104167
  0
VERTEX
  8
0
 10
59.5492
 20
16.1678
 30
0.0
 40
0.0104167
 41
0.0104167
  0
VERTEX
  8
0
 10
59.6474
 20
16.1064
 30
0.0
 40
0.0104167
 41
0.0104167
  0
VERTEX
  8
0
 10
59.7494
 20
16.0467
 30
0.0
 40
0.0104167
 41
0.0104167
  0
VERTEX
  8
0
 10
59.8551
 20
15.9886
 30
0.0
 40
0.0104167
 41
0.0104167
  0
VERTEX
  8
0
 10
59.9644
 20
15.9322
 30
0.0
 40
0.0104167
 41
0.0104167
  0
VERTEX
  8
0
 10
60.0772
 20
15.8776
 30
0.0
 40
0.0104167
 41
0.0104167
  0
VERTEX
  8
0
 10
60.1935
 20
15.8247
 30
0.0
 40
0.0104167
 41
0.0104167
  0
VERTEX
  8
0
 10
60.3128
 20
15.7737
 30
0.0
 40
0.0104167
 41
0.0104167
  0
VERTEX
  8
0
 10
60.4354
 20
15.7246
 30
0.0
 40
0.0104167
 41
0.0104167
  0
VERTEX
  8
0
 10
60.561
 20
15.6775
 30
0.0
 40
0.0104167
 41
0.0104167
  0
VERTEX
  8
0
 10
60.6896
 20
15.6324
 30
0.0
 40
0.0104167
 41
0.0104167
  0
VERTEX
  8
0
 10
60.8208
 20
15.5892
 30
0.0
 40
0.0104167
 41
0.0104167
  0
VERTEX
  8
0
 10
60.9547
 20
15.5482
 30
0.0
 40
0.0104167
 41
0.0104167
  0
VERTEX
  8
0
 10
61.0912
 20
15.5092
 30
0.0
 40
0.0104167
 41
0.0104167
  0
VERTEX
  8
0
 10
61.23
 20
15.4725
 30
0.0
 40
0.0104167
 41
0.0104167
  0
VERTEX
  8
0
 10
61.3711
 20
15.4379
 30
0.0
 40
0.0104167
 41
0.0104167
  0
VERTEX
  8
0
 10
61.5142
 20
15.4056
 30
0.0
 40
0.0104167
 41
0.0104167
  0
VERTEX
  8
0
 10
61.6593
 20
15.3756
 30
0.0
 40
0.0104167
 41
0.0104167
  0
VERTEX
  8
0
 10
61.8062
 20
15.3478
 30
0.0
 40
0.0104167
 41
0.0104167
  0
VERTEX
  8
0
 10
61.9549
 20
15.3224
 30
0.0
 40
0.0104167
 41
0.0104167
  0
VERTEX
  8
0
 10
62.105
 20
15.2993
 30
0.0
 40
0.0104167
 41
0.0104167
  0
VERTEX
  8
0
 10
62.2565
 20
15.2785
 30
0.0
 40
0.0104167
 41
0.0104167
  0
VERTEX
  8
0
 10
62.4093
 20
15.2601
 30
0.0
 40
0.0104167
 41
0.0104167
  0
VERTEX
  8
0
 10
62.5631
 20
15.2443
 30
0.0
 40
0.0104167
 41
0.0104167
  0
VERTEX
  8
0
 10
62.7178
 20
15.2308
 30
0.0
 40
0.0104167
 41
0.0104167
  0
VERTEX
  8
0
 10
62.8733
 20
15.2197
 30
0.0
 40
0.0104167
 41
0.0104167
  0
VERTEX
  8
0
 10
63.0294
 20
15.2111
 30
0.0
 40
0.0104167
 41
0.0104167
  0
VERTEX
  8
0
 10
63.186
 20
15.2049
 30
0.0
 40
0.0104167
 41
0.0104167
  0
VERTEX
  8
0
 10
63.3429
 20
15.2012
 30
0.0
 40
0.0104167
 41
0.0104167
  0
VERTEX
  8
0
 10
63.5
 20
15.2
 30
0.0
 40
0.0104167
 41
0.0104167
  0
VERTEX
  8
0
 10
63.6571
 20
15.2012
 30
0.0
 40
0.0104167
 41
0.0104167
  0
VERTEX
  8
0
 10
63.8139
 20
15.2049
 30
0.0
 40
0.0104167
 41
0.0104167
  0
VERTEX
  8
0
 10
63.9706
 20
15.2111
 30
0.0
 40
0.0104167
 41
0.0104167
  0
VERTEX
  8
0
 10
64.1267
 20
15.2197
 30
0.0
 40
0.0104167
 41
0.0104167
  0
VERTEX
  8
0
 10
64.2821
 20
15.2308
 30
0.0
 40
0.0104167
 41
0.0104167
  0
VERTEX
  8
0
 10
64.4368
 20
15.2443
 30
0.0
 40
0.0104167
 41
0.0104167
  0
VERTEX
  8
0
 10
64.5907
 20
15.2601
 30
0.0
 40
0.0104167
 41
0.0104167
  0
VERTEX
  8
0
 10
64.7435
 20
15.2785
 30
0.0
 40
0.0104167
 41
0.0104167
  0
VERTEX
  8
0
 10
64.8949
 20
15.2993
 30
0.0
 40
0.0104167
 41
0.0104167
  0
VERTEX
  8
0
 10
65.045
 20
15.3224
 30
0.0
 40
0.0104167
 41
0.0104167
  0
VERTEX
  8
0
 10
65.1936
 20
15.3478
 30
0.0
 40
0.0104167
 41
0.0104167
  0
VERTEX
  8
0
 10
65.3406
 20
15.3756
 30
0.0
 40
0.0104167
 41
0.0104167
  0
VERTEX
  8
0
 10
65.4857
 20
15.4056
 30
0.0
 40
0.0104167
 41
0.0104167
  0
VERTEX
  8
0
 10
65.6289
 20
15.4379
 30
0.0
 40
0.0104167
 41
0.0104167
  0
VERTEX
  8
0
 10
65.7699
 20
15.4725
 30
0.0
 40
0.0104167
 41
0.0104167
  0
VERTEX
  8
0
 10
65.9088
 20
15.5092
 30
0.0
 40
0.0104167
 41
0.0104167
  0
VERTEX
  8
0
 10
66.0451
 20
15.5482
 30
0.0
 40
0.0104167
 41
0.0104167
  0
VERTEX
  8
0
 10
66.1792
 20
15.5892
 30
0.0
 40
0.0104167
 41
0.0104167
  0
VERTEX
  8
0
 10
66.3104
 20
15.6324
 30
0.0
 40
0.0104167
 41
0.0104167
  0
VERTEX
  8
0
 10
66.4389
 20
15.6775
 30
0.0
 40
0.0104167
 41
0.0104167
  0
VERTEX
  8
0
 10
66.5644
 20
15.7246
 30
0.0
 40
0.0104167
 41
0.0104167
  0
VERTEX
  8
0
 10
66.6871
 20
15.7737
 30
0.0
 40
0.0104167
 41
0.0104167
  0
VERTEX
  8
0
 10
66.8065
 20
15.8247
 30
0.0
 40
0.0104167
 41
0.0104167
  0
VERTEX
  8
0
 10
66.9226
 20
15.8776
 30
0.0
 40
0.0104167
 41
0.0104167
  0
VERTEX
  8
0
 10
67.0356
 20
15.9322
 30
0.0
 40
0.0104167
 41
0.0104167
  0
VERTEX
  8
0
 10
67.1449
 20
15.9886
 30
0.0
 40
0.0104167
 41
0.0104167
  0
VERTEX
  8
0
 10
67.2506
 20
16.0467
 30
0.0
 40
0.0104167
 41
0.0104167
  0
VERTEX
  8
0
 10
67.3525
 20
16.1064
 30
0.0
 40
0.0104167
 41
0.0104167
  0
VERTEX
  8
0
 10
67.4507
 20
16.1678
 30
0.0
 40
0.0104167
 41
0.0104167
  0
VERTEX
  8
0
 10
67.545
 20
16.2306
 30
0.0
 40
0.0104167
 41
0.0104167
  0
VERTEX
  8
0
 10
67.6354
 20
16.2947
 30
0.0
 40
0.0104167
 41
0.0104167
  0
VERTEX
  8
0
 10
67.7217
 20
16.3604
 30
0.0
 40
0.0104167
 41
0.0104167
  0
VERTEX
  8
0
 10
67.8036
 20
16.4274
 30
0.0
 40
0.0104167
 41
0.0104167
  0
VERTEX
  8
0
 10
67.8815
 20
16.4956
 30
0.0
 40
0.0104167
 41
0.0104167
  0
VERTEX
  8
0
 10
67.955
 20
16.565
 30
0.0
 40
0.0104167
 41
0.0104167
  0
VERTEX
  8
0
 10
68.0242
 20
16.6356
 30
0.0
 40
0.0104167
 41
0.0104167
  0
VERTEX
  8
0
 10
68.0888
 20
16.7071
 30
0.0
 40
0.0104167
 41
0.0104167
  0
VERTEX
  8
0
 10
68.1489
 20
16.7797
 30
0.0
 40
0.0104167
 41
0.0104167
  0
VERTEX
  8
0
 10
68.2043
 20
16.8532
 30
0.0
 40
0.0104167
 41
0.0104167
  0
VERTEX
  8
0
 10
68.2553
 20
16.9275
 30
0.0
 40
0.0104167
 41
0.0104167
  0
VERTEX
  8
0
 10
68.3014
 20
17.0025
 30
0.0
 40
0.0104167
 41
0.0104167
  0
VERTEX
  8
0
 10
68.3429
 20
17.0783
 30
0.0
 40
0.0104167
 41
0.0104167
  0
VERTEX
  8
0
 10
68.3796
 20
17.1546
 30
0.0
 40
0.0104167
 41
0.0104167
  0
VERTEX
  8
0
 10
68.4114
 20
17.2315
 30
0.0
 40
0.0104167
 41
0.0104167
  0
VERTEX
  8
0
 10
68.4385
 20
17.3089
 30
0.0
 40
0.0104167
 41
0.0104167
  0
VERTEX
  8
0
 10
68.4606
 20
17.3867
 30
0.0
 40
0.0104167
 41
0.0104167
  0
VERTEX
  8
0
 10
68.4778
 20
17.4647
 30
0.0
 40
0.0104167
 41
0.0104167
  0
VERTEX
  8
0
 10
68.4901
 20
17.5431
 30
0.0
 40
0.0104167
 41
0.0104167
  0
VERTEX
  8
0
 10
68.4975
 20
17.6215
 30
0.0
 40
0.0104167
 41
0.0104167
  0
VERTEX
  8
0
 10
68.5
 20
17.7
 30
0.0
 40
0.0104167
 41
0.0104167
  0
VERTEX
  8
0
 10
58.5
 20
17.7
 30
0.0
 40
0.0104167
 41
0.0104167
  0
SEQEND
 8
0
  0
POLYLINE
  8
0
 62
     0
 66
     1
 10
0
 20
0
 30
0.0
 70
     1
 40
0
 41
0
  0
VERTEX
  8
0
 10
58.5
 20
81.75
 30
0.0
 40
0
 41
0
  0
VERTEX
  8
0
 10
68.5
 20
81.75
 30
0.0
 40
0
 41
0
  0
VERTEX
  8
0
 10
68.5
 20
51.71
 30
0.0
 40
0
 41
0
  0
VERTEX
  8
0
 10
58.5
 20
51.71
 30
0.0
 40
0
 41
0
  0
VERTEX
  8
0
 10
58.5
 20
81.75
 30
0.0
 40
0
 41
0
  0
SEQEND
 8
0
  0
POLYLINE
  8
0
 62
     0
 66
     1
 10
0
 20
0
 30
0.0
 70
     1
 40
0
 41
0
  0
VERTEX
  8
0
 10
58.5
 20
47.74
 30
0.0
 40
0
 41
0
  0
VERTEX
  8
0
 10
68.5
 20
47.74
 30
0.0
 40
0
 41
0
  0
VERTEX
  8
0
 10
68.5
 20
17.7
 30
0.0
 40
0
 41
0
  0
VERTEX
  8
0
 10
58.5
 20
17.7
 30
0.0
 40
0
 41
0
  0
VERTEX
  8
0
 10
58.5
 20
47.74
 30
0.0
 40
0
 41
0
  0
SEQEND
 8
0
  0
POLYLINE
  8
0
 62
     0
 66
     1
 10
0
 20
0
 30
0.0
 70
     1
 40
0
 41
0
  0
VERTEX
  8
0
 10
58.5
 20
51.75
 30
0.0
 40
0
 41
0
  0
VERTEX
  8
0
 10
68.5
 20
51.75
 30
0.0
 40
0
 41
0
  0
VERTEX
  8
0
 10
63.475
 20
49.75
 30
0.0
 40
0
 41
0
  0
VERTEX
  8
0
 10
63.525
 20
49.75
 30
0.0
 40
0
 41
0
  0
VERTEX
  8
0
 10
58.5
 20
51.75
 30
0.0
 40
0
 41
0
  0
SEQEND
 8
0
  0
POLYLINE
  8
0
 62
     0
 66
     1
 10
0
 20
0
 30
0.0
 70
     1
 40
0
 41
0
  0
VERTEX
  8
0
 10
58.5
 20
47.7
 30
0.0
 40
0
 41
0
  0
VERTEX
  8
0
 10
68.5
 20
47.7
 30
0.0
 40
0
 41
0
  0
VERTEX
  8
0
 10
63.475
 20
49.7
 30
0.0
 40
0
 41
0
  0
VERTEX
  8
0
 10
63.525
 20
49.7
 30
0.0
 40
0
 41
0
  0
VERTEX
  8
0
 10
58.5
 20
47.7
 30
0.0
 40
0
 41
0
  0
SEQEND
 8
0
  0
POLYLINE
  8
0
 62
     0
 66
     1
 10
0
 20
0
 30
0.0
 70
     1
 40
0
 41
0
  0
VERTEX
  8
0
 10
63.475
 20
51.75
 30
0.0
 40
0
 41
0
  0
VERTEX
  8
0
 10
63.525
 20
51.75
 30
0.0
 40
0
 41
0
  0
VERTEX
  8
0
 10
63.525
 20
47.7
 30
0.0
 40
0
 41
0
  0
VERTEX
  8
0
 10
63.475
 20
47.7
 30
0.0
 40
0
 41
0
  0
VERTEX
  8
0
 10
63.475
 20
51.75
 30
0.0
 40
0
 41
0
  0
SEQEND
 8
0
  0
POLYLINE
  8
0
 62
     0
 66
     1
 10
0
 20
0
 30
0.0
 70
     1
 40
0
 41
0
  0
VERTEX
  8
0
 10
55.04
 20
54.1371
 30
0.0
 40
0
 41
0
  0
VERTEX
  8
0
 10
55.0404
 20
54.169
 30
0.0
 40
0
 41
0
  0
VERTEX
  8
0
 10
55.0418
 20
54.2006
 30
0.0
 40
0
 41
0
  0
VERTEX
  8
0
 10
55.0442
 20
54.2317
 30
0.0
 40
0
 41
0
  0
VERTEX
  8
0
 10
55.0474
 20
54.2624
 30
0.0
 40
0
 41
0
  0
VERTEX
  8
0
 10
55.0514
 20
54.2925
 30
0.0
 40
0
 41
0
  0
VERTEX
  8
0
 10
55.0564
 20
54.3222
 30
0.0
 40
0
 41
0
  0
VERTEX
  8
0
 10
55.0624
 20
54.3514
 30
0.0
 40
0
 41
0
  0
VERTEX
  8
0
 10
55.0692
 20
54.3803
 30
0.0
 40
0
 41
0
  0
VERTEX
  8
0
 10
55.0769
 20
54.4086
 30
0.0
 40
0
 41
0
  0
VERTEX
  8
0
 10
55.0856
 20
54.4365
 30
0.0
 40
0
 41
0
  0
VERTEX
  8
0
 10
55.0949
 20
54.4642
 30
0.0
 40
0
 41
0
  0
VERTEX
  8
0
 10
55.1049
 20
54.491
 30
0.0
 40
0
 41
0
  0
VERTEX
  8
0
 10
55.1158
 20
54.5171
 30
0.0
 40
0
 41
0
  0
VERTEX
  8
0
 10
55.1278
 20
54.5425
 30
0.0
 40
0
 41
0
  0
VERTEX
  8
0
 10
55.1406
 20
54.5671
 30
0.0
 40
0
 41
0
  0
VERTEX
  8
0
 10
55.1542
 20
54.591
 30
0.0
 40
0
 41
0
  0
VERTEX
  8
0
 10
55.1686
 20
54.6142
 30
0.0
 40
0
 41
0
  0
VERTEX
  8
0
 10
55.184
 20
54.6365
 30
0.0
 40
0
 41
0
  0
VERTEX
  8
0
 10
55.2003
 20
54.6582
 30
0.0
 40
0
 41
0
  0
VERTEX
  8
0
 10
55.2174
 20
54.679
 30
0.0
 40
0
 41
0
  0
VERTEX
  8
0
 10
55.2354
 20
54.6994
 30
0.0
 40
0
 41
0
  0
VERTEX
  8
0
 10
55.2543
 20
54.7189
 30
0.0
 40
0
 41
0
  0
VERTEX
  8
0
 10
55.2739
 20
54.7374
 30
0.0
 40
0
 41
0
  0
VERTEX
  8
0
 10
55.2944
 20
54.7551
 30
0.0
 40
0
 41
0
  0
VERTEX
  8
0
 10
55.3158
 20
54.7718
 30
0.0
 40
0
 41
0
  0
VERTEX
  8
0
 10
55.3381
 20
54.7876
 30
0.0
 40
0
 41
0
  0
VERTEX
  8
0
 10
55.3613
 20
54.8025
 30
0.0
 40
0
 41
0
  0
VERTEX
  8
0
 10
55.3851
 20
54.8165
 30
0.0
 40
0
 41
0
  0
VERTEX
  8
0
 10
55.4099
 20
54.8296
 30
0.0
 40
0
 41
0
  0
VERTEX
  8
0
 10
55.4356
 20
54.8418
 30
0.0
 40
0
 41
0
  0
VERTEX
  8
0
 10
55.4619
 20
54.8529
 30
0.0
 40
0
 41
0
  0
VERTEX
  8
0
 10
55.4892
 20
54.8629
 30
0.0
 40
0
 41
0
  0
VERTEX
  8
0
 10
55.5174
 20
54.8717
 30
0.0
 40
0
 41
0
  0
VERTEX
  8
0
 10
55.5463
 20
54.8793
 30
0.0
 40
0
 41
0
  0
VERTEX
  8
0
 10
55.5758
 20
54.8857
 30
0.0
 40
0
 41
0
  0
VERTEX
  8
0
 10
55.6064
 20
54.891
 30
0.0
 40
0
 41
0
  0
VERTEX
  8
0
 10
55.6378
 20
54.8951
 30
0.0
 40
0
 41
0
  0
VERTEX
  8
0
 10
55.6699
 20
54.8981
 30
0.0
 40
0
 41
0
  0
VERTEX
  8
0
 10
55.7028
 20
54.8999
 30
0.0
 40
0
 41
0
  0
VERTEX
  8
0
 10
55.7367
 20
54.9004
 30
0.0
 40
0
 41
0
  0
VERTEX
  8
0
 10
55.7733
 20
54.8999
 30
0.0
 40
0
 41
0
  0
VERTEX
  8
0
 10
55.8093
 20
54.8982
 30
0.0
 40
0
 41
0
  0
VERTEX
  8
0
 10
55.8446
 20
54.8954
 30
0.0
 40
0
 41
0
  0
VERTEX
  8
0
 10
55.879
 20
54.8915
 30
0.0
 40
0
 41
0
  0
VERTEX
  8
0
 10
55.9128
 20
54.8865
 30
0.0
 40
0
 41
0
  0
VERTEX
  8
0
 10
55.9458
 20
54.8804
 30
0.0
 40
0
 41
0
  0
VERTEX
  8
0
 10
55.9781
 20
54.8733
 30
0.0
 40
0
 41
0
  0
VERTEX
  8
0
 10
56.0096
 20
54.865
 30
0.0
 40
0
 41
0
  0
VERTEX
  8
0
 10
56.0403
 20
54.8556
 30
0.0
 40
0
 41
0
  0
VERTEX
  8
0
 10
56.0703
 20
54.845
 30
0.0
 40
0
 41
0
  0
VERTEX
  8
0
 10
56.0994
 20
54.8335
 30
0.0
 40
0
 41
0
  0
VERTEX
  8
0
 10
56.1276
 20
54.8207
 30
0.0
 40
0
 41
0
  0
VERTEX
  8
0
 10
56.155
 20
54.8069
 30
0.0
 40
0
 41
0
  0
VERTEX
  8
0
 10
56.1815
 20
54.7922
 30
0.0
 40
0
 41
0
  0
VERTEX
  8
0
 10
56.2069
 20
54.7762
 30
0.0
 40
0
 41
0
  0
VERTEX
  8
0
 10
56.2317
 20
54.7593
 30
0.0
 40
0
 41
0
  0
VERTEX
  8
0
 10
56.2553
 20
54.7413
 30
0.0
 40
0
 41
0
  0
VERTEX
  8
0
 10
56.2781
 20
54.7221
 30
0.0
 40
0
 41
0
  0
VERTEX
  8
0
 10
56.3
 20
54.7019
 30
0.0
 40
0
 41
0
  0
VERTEX
  8
0
 10
56.321
 20
54.6807
 30
0.0
 40
0
 41
0
  0
VERTEX
  8
0
 10
56.341
 20
54.6583
 30
0.0
 40
0
 41
0
  0
VERTEX
  8
0
 10
56.36
 20
54.635
 30
0.0
 40
0
 41
0
  0
VERTEX
  8
0
 10
56.3782
 20
54.6106
 30
0.0
 40
0
 41
0
  0
VERTEX
  8
0
 10
56.3954
 20
54.5851
 30
0.0
 40
0
 41
0
  0
VERTEX
  8
0
 10
56.4117
 20
54.5586
 30
0.0
 40
0
 41
0
  0
VERTEX
  8
0
 10
56.4269
 20
54.5311
 30
0.0
 40
0
 41
0
  0
VERTEX
  8
0
 10
56.4414
 20
54.5025
 30
0.0
 40
0
 41
0
  0
VERTEX
  8
0
 10
56.4547
 20
54.4728
 30
0.0
 40
0
 41
0
  0
VERTEX
  8
0
 10
56.4672
 20
54.4422
 30
0.0
 40
0
 41
0
  0
VERTEX
  8
0
 10
56.4788
 20
54.4104
 30
0.0
 40
0
 41
0
  0
VERTEX
  8
0
 10
56.489
 20
54.3781
 30
0.0
 40
0
 41
0
  0
VERTEX
  8
0
 10
56.4982
 20
54.3447
 30
0.0
 40
0
 41
0
  0
VERTEX
  8
0
 10
56.5062
 20
54.3104
 30
0.0
 40
0
 41
0
  0
VERTEX
  8
0
 10
56.5132
 20
54.275
 30
0.0
 40
0
 41
0
  0
VERTEX
  8
0
 10
56.519
 20
54.2387
 30
0.0
 40
0
 41
0
  0
VERTEX
  8
0
 10
56.5239
 20
54.2015
 30
0.0
 40
0
 41
0
  0
VERTEX
  8
0
 10
56.5276
 20
54.1632
 30
0.0
 40
0
 41
0
  0
VERTEX
  8
0
 10
56.5304
 20
54.124
 30
0.0
 40
0
 41
0
  0
VERTEX
  8
0
 10
56.5319
 20
54.0838
 30
0.0
 40
0
 41
0
  0
VERTEX
  8
0
 10
56.5325
 20
54.0426
 30
0.0
 40
0
 41
0
  0
VERTEX
  8
0
 10
56.5325
 20
54.0261
 30
0.0
 40
0
 41
0
  0
VERTEX
  8
0
 10
56.5322
 20
54.0094
 30
0.0
 40
0
 41
0
  0
VERTEX
  8
0
 10
56.5318
 20
53.9929
 30
0.0
 40
0
 41
0
  0
VERTEX
  8
0
 10
56.5313
 20
53.9765
 30
0.0
 40
0
 41
0
  0
VERTEX
  8
0
 10
56.5304
 20
53.96
 30
0.0
 40
0
 41
0
  0
VERTEX
  8
0
 10
56.5296
 20
53.9436
 30
0.0
 40
0
 41
0
  0
VERTEX
  8
0
 10
56.5285
 20
53.9272
 30
0.0
 40
0
 41
0
  0
VERTEX
  8
0
 10
56.5274
 20
53.9108
 30
0.0
 40
0
 41
0
  0
VERTEX
  8
0
 10
56.526
 20
53.8946
 30
0.0
 40
0
 41
0
  0
VERTEX
  8
0
 10
56.5244
 20
53.8782
 30
0.0
 40
0
 41
0
  0
VERTEX
  8
0
 10
56.5226
 20
53.8624
 30
0.0
 40
0
 41
0
  0
VERTEX
  8
0
 10
56.5208
 20
53.8465
 30
0.0
 40
0
 41
0
  0
VERTEX
  8
0
 10
56.5188
 20
53.8308
 30
0.0
 40
0
 41
0
  0
VERTEX
  8
0
 10
56.5165
 20
53.8153
 30
0.0
 40
0
 41
0
  0
VERTEX
  8
0
 10
56.5142
 20
53.7997
 30
0.0
 40
0
 41
0
  0
VERTEX
  8
0
 10
56.5117
 20
53.7843
 30
0.0
 40
0
 41
0
  0
VERTEX
  8
0
 10
56.509
 20
53.769
 30
0.0
 40
0
 41
0
  0
VERTEX
  8
0
 10
56.5061
 20
53.7538
 30
0.0
 40
0
 41
0
  0
VERTEX
  8
0
 10
56.5032
 20
53.7386
 30
0.0
 40
0
 41
0
  0
VERTEX
  8
0
 10
56.5
 20
53.7236
 30
0.0
 40
0
 41
0
  0
VERTEX
  8
0
 10
56.4969
 20
53.709
 30
0.0
 40
0
 41
0
  0
VERTEX
  8
0
 10
56.4938
 20
53.6946
 30
0.0
 40
0
 41
0
  0
VERTEX
  8
0
 10
56.4903
 20
53.6803
 30
0.0
 40
0
 41
0
  0
VERTEX
  8
0
 10
56.4867
 20
53.6661
 30
0.0
 40
0
 41
0
  0
VERTEX
  8
0
 10
56.4829
 20
53.6519
 30
0.0
 40
0
 41
0
  0
VERTEX
  8
0
 10
56.4789
 20
53.6381
 30
0.0
 40
0
 41
0
  0
VERTEX
  8
0
 10
56.4747
 20
53.6243
 30
0.0
 40
0
 41
0
  0
VERTEX
  8
0
 10
56.4703
 20
53.6106
 30
0.0
 40
0
 41
0
  0
VERTEX
  8
0
 10
56.4657
 20
53.5971
 30
0.0
 40
0
 41
0
  0
VERTEX
  8
0
 10
56.461
 20
53.5836
 30
0.0
 40
0
 41
0
  0
VERTEX
  8
0
 10
56.456
 20
53.5704
 30
0.0
 40
0
 41
0
  0
VERTEX
  8
0
 10
56.4508
 20
53.5575
 30
0.0
 40
0
 41
0
  0
VERTEX
  8
0
 10
56.4456
 20
53.5447
 30
0.0
 40
0
 41
0
  0
VERTEX
  8
0
 10
56.4401
 20
53.5324
 30
0.0
 40
0
 41
0
  0
VERTEX
  8
0
 10
56.4344
 20
53.5201
 30
0.0
 40
0
 41
0
  0
VERTEX
  8
0
 10
56.4286
 20
53.5082
 30
0.0
 40
0
 41
0
  0
VERTEX
  8
0
 10
56.4228
 20
53.4967
 30
0.0
 40
0
 41
0
  0
VERTEX
  8
0
 10
56.4167
 20
53.4853
 30
0.0
 40
0
 41
0
  0
VERTEX
  8
0
 10
56.4104
 20
53.474
 30
0.0
 40
0
 41
0
  0
VERTEX
  8
0
 10
56.4039
 20
53.4632
 30
0.0
 40
0
 41
0
  0
VERTEX
  8
0
 10
56.124
 20
53.4632
 30
0.0
 40
0
 41
0
  0
VERTEX
  8
0
 10
56.1314
 20
53.4742
 30
0.0
 40
0
 41
0
  0
VERTEX
  8
0
 10
56.1386
 20
53.4854
 30
0.0
 40
0
 41
0
  0
VERTEX
  8
0
 10
56.1457
 20
53.4971
 30
0.0
 40
0
 41
0
  0
VERTEX
  8
0
 10
56.1526
 20
53.509
 30
0.0
 40
0
 41
0
  0
VERTEX
  8
0
 10
56.1594
 20
53.5214
 30
0.0
 40
0
 41
0
  0
VERTEX
  8
0
 10
56.166
 20
53.5342
 30
0.0
 40
0
 41
0
  0
VERTEX
  8
0
 10
56.1724
 20
53.5472
 30
0.0
 40
0
 41
0
  0
VERTEX
  8
0
 10
56.1786
 20
53.5606
 30
0.0
 40
0
 41
0
  0
VERTEX
  8
0
 10
56.1847
 20
53.5744
 30
0.0
 40
0
 41
0
  0
VERTEX
  8
0
 10
56.1907
 20
53.5885
 30
0.0
 40
0
 41
0
  0
VERTEX
  8
0
 10
56.1965
 20
53.6032
 30
0.0
 40
0
 41
0
  0
VERTEX
  8
0
 10
56.2021
 20
53.6181
 30
0.0
 40
0
 41
0
  0
VERTEX
  8
0
 10
56.2074
 20
53.6331
 30
0.0
 40
0
 41
0
  0
VERTEX
  8
0
 10
56.2126
 20
53.6482
 30
0.0
 40
0
 41
0
  0
VERTEX
  8
0
 10
56.2176
 20
53.6635
 30
0.0
 40
0
 41
0
  0
VERTEX
  8
0
 10
56.2224
 20
53.6788
 30
0.0
 40
0
 41
0
  0
VERTEX
  8
0
 10
56.2269
 20
53.6943
 30
0.0
 40
0
 41
0
  0
VERTEX
  8
0
 10
56.2314
 20
53.7099
 30
0.0
 40
0
 41
0
  0
VERTEX
  8
0
 10
56.2356
 20
53.7257
 30
0.0
 40
0
 41
0
  0
VERTEX
  8
0
 10
56.2396
 20
53.7415
 30
0.0
 40
0
 41
0
  0
VERTEX
  8
0
 10
56.2433
 20
53.7575
 30
0.0
 40
0
 41
0
  0
VERTEX
  8
0
 10
56.2471
 20
53.7735
 30
0.0
 40
0
 41
0
  0
VERTEX
  8
0
 10
56.2506
 20
53.7894
 30
0.0
 40
0
 41
0
  0
VERTEX
  8
0
 10
56.2539
 20
53.8053
 30
0.0
 40
0
 41
0
  0
VERTEX
  8
0
 10
56.2571
 20
53.8212
 30
0.0
 40
0
 41
0
  0
VERTEX
  8
0
 10
56.26
 20
53.8372
 30
0.0
 40
0
 41
0
  0
VERTEX
  8
0
 10
56.2629
 20
53.8532
 30
0.0
 40
0
 41
0
  0
VERTEX
  8
0
 10
56.2656
 20
53.8692
 30
0.0
 40
0
 41
0
  0
VERTEX
  8
0
 10
56.2681
 20
53.8851
 30
0.0
 40
0
 41
0
  0
VERTEX
  8
0
 10
56.2704
 20
53.901
 30
0.0
 40
0
 41
0
  0
VERTEX
  8
0
 10
56.2724
 20
53.9172
 30
0.0
 40
0
 41
0
  0
VERTEX
  8
0
 10
56.274
 20
53.9331
 30
0.0
 40
0
 41
0
  0
VERTEX
  8
0
 10
56.2754
 20
53.9488
 30
0.0
 40
0
 41
0
  0
VERTEX
  8
0
 10
56.2767
 20
53.964
 30
0.0
 40
0
 41
0
  0
VERTEX
  8
0
 10
56.2778
 20
53.9792
 30
0.0
 40
0
 41
0
  0
VERTEX
  8
0
 10
56.2786
 20
53.994
 30
0.0
 40
0
 41
0
  0
VERTEX
  8
0
 10
56.2793
 20
54.0086
 30
0.0
 40
0
 41
0
  0
VERTEX
  8
0
 10
56.2799
 20
54.0229
 30
0.0
 40
0
 41
0
  0
VERTEX
  8
0
 10
56.2801
 20
54.0369
 30
0.0
 40
0
 41
0
  0
VERTEX
  8
0
 10
56.2803
 20
54.0508
 30
0.0
 40
0
 41
0
  0
VERTEX
  8
0
 10
56.28
 20
54.0763
 30
0.0
 40
0
 41
0
  0
VERTEX
  8
0
 10
56.279
 20
54.1011
 30
0.0
 40
0
 41
0
  0
VERTEX
  8
0
 10
56.2776
 20
54.1254
 30
0.0
 40
0
 41
0
  0
VERTEX
  8
0
 10
56.2756
 20
54.1492
 30
0.0
 40
0
 41
0
  0
VERTEX
  8
0
 10
56.2729
 20
54.1725
 30
0.0
 40
0
 41
0
  0
VERTEX
  8
0
 10
56.2697
 20
54.1951
 30
0.0
 40
0
 41
0
  0
VERTEX
  8
0
 10
56.2658
 20
54.2172
 30
0.0
 40
0
 41
0
  0
VERTEX
  8
0
 10
56.2615
 20
54.2387
 30
0.0
 40
0
 41
0
  0
VERTEX
  8
0
 10
56.2565
 20
54.2599
 30
0.0
 40
0
 41
0
  0
VERTEX
  8
0
 10
56.251
 20
54.2803
 30
0.0
 40
0
 41
0
  0
VERTEX
  8
0
 10
56.2444
 20
54.3001
 30
0.0
 40
0
 41
0
  0
VERTEX
  8
0
 10
56.2372
 20
54.3194
 30
0.0
 40
0
 41
0
  0
VERTEX
  8
0
 10
56.2294
 20
54.3381
 30
0.0
 40
0
 41
0
  0
VERTEX
  8
0
 10
56.221
 20
54.3561
 30
0.0
 40
0
 41
0
  0
VERTEX
  8
0
 10
56.2119
 20
54.3735
 30
0.0
 40
0
 41
0
  0
VERTEX
  8
0
 10
56.2021
 20
54.3903
 30
0.0
 40
0
 41
0
  0
VERTEX
  8
0
 10
56.1917
 20
54.4064
 30
0.0
 40
0
 41
0
  0
VERTEX
  8
0
 10
56.1807
 20
54.4219
 30
0.0
 40
0
 41
0
  0
VERTEX
  8
0
 10
56.1689
 20
54.4368
 30
0.0
 40
0
 41
0
  0
VERTEX
  8
0
 10
56.1565
 20
54.4511
 30
0.0
 40
0
 41
0
  0
VERTEX
  8
0
 10
56.1435
 20
54.4649
 30
0.0
 40
0
 41
0
  0
VERTEX
  8
0
 10
56.1299
 20
54.4779
 30
0.0
 40
0
 41
0
  0
VERTEX
  8
0
 10
56.1156
 20
54.4903
 30
0.0
 40
0
 41
0
  0
VERTEX
  8
0
 10
56.1006
 20
54.5019
 30
0.0
 40
0
 41
0
  0
VERTEX
  8
0
 10
56.0849
 20
54.5131
 30
0.0
 40
0
 41
0
  0
VERTEX
  8
0
 10
56.0686
 20
54.5235
 30
0.0
 40
0
 41
0
  0
VERTEX
  8
0
 10
56.0517
 20
54.5332
 30
0.0
 40
0
 41
0
  0
VERTEX
  8
0
 10
56.0342
 20
54.5424
 30
0.0
 40
0
 41
0
  0
VERTEX
  8
0
 10
56.016
 20
54.5508
 30
0.0
 40
0
 41
0
  0
VERTEX
  8
0
 10
55.9971
 20
54.5586
 30
0.0
 40
0
 41
0
  0
VERTEX
  8
0
 10
55.9775
 20
54.5657
 30
0.0
 40
0
 41
0
  0
VERTEX
  8
0
 10
55.9572
 20
54.5721
 30
0.0
 40
0
 41
0
  0
VERTEX
  8
0
 10
55.9362
 20
54.5776
 30
0.0
 40
0
 41
0
  0
VERTEX
  8
0
 10
55.9144
 20
54.5825
 30
0.0
 40
0
 41
0
  0
VERTEX
  8
0
 10
55.8921
 20
54.5867
 30
0.0
 40
0
 41
0
  0
VERTEX
  8
0
 10
55.8689
 20
54.59
 30
0.0
 40
0
 41
0
  0
VERTEX
  8
0
 10
55.845
 20
54.5926
 30
0.0
 40
0
 41
0
  0
VERTEX
  8
0
 10
55.8204
 20
54.5946
 30
0.0
 40
0
 41
0
  0
VERTEX
  8
0
 10
55.7951
 20
54.5957
 30
0.0
 40
0
 41
0
  0
VERTEX
  8
0
 10
55.7692
 20
54.596
 30
0.0
 40
0
 41
0
  0
VERTEX
  8
0
 10
55.7238
 20
54.5946
 30
0.0
 40
0
 41
0
  0
VERTEX
  8
0
 10
55.6806
 20
54.5903
 30
0.0
 40
0
 41
0
  0
VERTEX
  8
0
 10
55.6394
 20
54.5832
 30
0.0
 40
0
 41
0
  0
VERTEX
  8
0
 10
55.6007
 20
54.5731
 30
0.0
 40
0
 41
0
  0
VERTEX
  8
0
 10
55.564
 20
54.5603
 30
0.0
 40
0
 41
0
  0
VERTEX
  8
0
 10
55.5297
 20
54.5444
 30
0.0
 40
0
 41
0
  0
VERTEX
  8
0
 10
55.4975
 20
54.5258
 30
0.0
 40
0
 41
0
  0
VERTEX
  8
0
 10
55.4676
 20
54.5043
 30
0.0
 40
0
 41
0
  0
VERTEX
  8
0
 10
55.4399
 20
54.48
 30
0.0
 40
0
 41
0
  0
VERTEX
  8
0
 10
55.4143
 20
54.4528
 30
0.0
 40
0
 41
0
  0
VERTEX
  8
0
 10
55.3908
 20
54.4228
 30
0.0
 40
0
 41
0
  0
VERTEX
  8
0
 10
55.3699
 20
54.3903
 30
0.0
 40
0
 41
0
  0
VERTEX
  8
0
 10
55.3513
 20
54.3551
 30
0.0
 40
0
 41
0
  0
VERTEX
  8
0
 10
55.3351
 20
54.3174
 30
0.0
 40
0
 41
0
  0
VERTEX
  8
0
 10
55.3215
 20
54.2769
 30
0.0
 40
0
 41
0
  0
VERTEX
  8
0
 10
55.3104
 20
54.234
 30
0.0
 40
0
 41
0
  0
VERTEX
  8
0
 10
55.3018
 20
54.1885
 30
0.0
 40
0
 41
0
  0
VERTEX
  8
0
 10
55.2956
 20
54.1403
 30
0.0
 40
0
 41
0
  0
VERTEX
  8
0
 10
55.2919
 20
54.0894
 30
0.0
 40
0
 41
0
  0
VERTEX
  8
0
 10
55.2907
 20
54.0361
 30
0.0
 40
0
 41
0
  0
VERTEX
  8
0
 10
55.2907
 20
54.0272
 30
0.0
 40
0
 41
0
  0
VERTEX
  8
0
 10
55.2908
 20
54.0182
 30
0.0
 40
0
 41
0
  0
VERTEX
  8
0
 10
55.2911
 20
54.009
 30
0.0
 40
0
 41
0
  0
VERTEX
  8
0
 10
55.2914
 20
53.9997
 30
0.0
 40
0
 41
0
  0
VERTEX
  8
0
 10
55.2919
 20
53.9901
 30
0.0
 40
0
 41
0
  0
VERTEX
  8
0
 10
55.2924
 20
53.9804
 30
0.0
 40
0
 41
0
  0
VERTEX
  8
0
 10
55.2931
 20
53.9706
 30
0.0
 40
0
 41
0
  0
VERTEX
  8
0
 10
55.2937
 20
53.9606
 30
0.0
 40
0
 41
0
  0
VERTEX
  8
0
 10
55.2946
 20
53.9504
 30
0.0
 40
0
 41
0
  0
VERTEX
  8
0
 10
55.2956
 20
53.9401
 30
0.0
 40
0
 41
0
  0
VERTEX
  8
0
 10
55.2963
 20
53.93
 30
0.0
 40
0
 41
0
  0
VERTEX
  8
0
 10
55.2969
 20
53.9199
 30
0.0
 40
0
 41
0
  0
VERTEX
  8
0
 10
55.2978
 20
53.9097
 30
0.0
 40
0
 41
0
  0
VERTEX
  8
0
 10
55.2986
 20
53.8994
 30
0.0
 40
0
 41
0
  0
VERTEX
  8
0
 10
55.2996
 20
53.8892
 30
0.0
 40
0
 41
0
  0
VERTEX
  8
0
 10
55.3006
 20
53.879
 30
0.0
 40
0
 41
0
  0
VERTEX
  8
0
 10
55.3017
 20
53.8686
 30
0.0
 40
0
 41
0
  0
VERTEX
  8
0
 10
55.3028
 20
53.8583
 30
0.0
 40
0
 41
0
  0
VERTEX
  8
0
 10
55.3053
 20
53.8375
 30
0.0
 40
0
 41
0
  0
VERTEX
  8
0
 10
55.3067
 20
53.8275
 30
0.0
 40
0
 41
0
  0
VERTEX
  8
0
 10
55.3079
 20
53.8175
 30
0.0
 40
0
 41
0
  0
VERTEX
  8
0
 10
55.3093
 20
53.8076
 30
0.0
 40
0
 41
0
  0
VERTEX
  8
0
 10
55.3108
 20
53.7978
 30
0.0
 40
0
 41
0
  0
VERTEX
  8
0
 10
55.3122
 20
53.7879
 30
0.0
 40
0
 41
0
  0
VERTEX
  8
0
 10
55.3138
 20
53.7782
 30
0.0
 40
0
 41
0
  0
VERTEX
  8
0
 10
55.3153
 20
53.7685
 30
0.0
 40
0
 41
0
  0
VERTEX
  8
0
 10
55.3168
 20
53.7589
 30
0.0
 40
0
 41
0
  0
VERTEX
  8
0
 10
55.3183
 20
53.7493
 30
0.0
 40
0
 41
0
  0
VERTEX
  8
0
 10
55.32
 20
53.7399
 30
0.0
 40
0
 41
0
  0
VERTEX
  8
0
 10
55.3212
 20
53.7308
 30
0.0
 40
0
 41
0
  0
VERTEX
  8
0
 10
55.3225
 20
53.7221
 30
0.0
 40
0
 41
0
  0
VERTEX
  8
0
 10
55.3239
 20
53.7136
 30
0.0
 40
0
 41
0
  0
VERTEX
  8
0
 10
55.3251
 20
53.7053
 30
0.0
 40
0
 41
0
  0
VERTEX
  8
0
 10
55.3265
 20
53.6972
 30
0.0
 40
0
 41
0
  0
VERTEX
  8
0
 10
55.3278
 20
53.6893
 30
0.0
 40
0
 41
0
  0
VERTEX
  8
0
 10
55.329
 20
53.6817
 30
0.0
 40
0
 41
0
  0
VERTEX
  8
0
 10
55.3304
 20
53.6743
 30
0.0
 40
0
 41
0
  0
VERTEX
  8
0
 10
55.3317
 20
53.6671
 30
0.0
 40
0
 41
0
  0
VERTEX
  8
0
 10
55.3329
 20
53.6601
 30
0.0
 40
0
 41
0
  0
VERTEX
  8
0
 10
55.2401
 20
53.5136
 30
0.0
 40
0
 41
0
  0
VERTEX
  8
0
 10
54.1204
 20
53.6032
 30
0.0
 40
0
 41
0
  0
VERTEX
  8
0
 10
54.1204
 20
54.7263
 30
0.0
 40
0
 41
0
  0
VERTEX
  8
0
 10
54.3906
 20
54.7263
 30
0.0
 40
0
 41
0
  0
VERTEX
  8
0
 10
54.3906
 20
53.8603
 30
0.0
 40
0
 41
0
  0
VERTEX
  8
0
 10
55.0725
 20
53.7968
 30
0.0
 40
0
 41
0
  0
VERTEX
  8
0
 10
55.0706
 20
53.8076
 30
0.0
 40
0
 41
0
  0
VERTEX
  8
0
 10
55.0686
 20
53.819
 30
0.0
 40
0
 41
0
  0
VERTEX
  8
0
 10
55.0665
 20
53.8311
 30
0.0
 40
0
 41
0
  0
VERTEX
  8
0
 10
55.0644
 20
53.8438
 30
0.0
 40
0
 41
0
  0
VERTEX
  8
0
 10
55.0624
 20
53.8571
 30
0.0
 40
0
 41
0
  0
VERTEX
  8
0
 10
55.0603
 20
53.8711
 30
0.0
 40
0
 41
0
  0
VERTEX
  8
0
 10
55.0581
 20
53.8857
 30
0.0
 40
0
 41
0
  0
VERTEX
  8
0
 10
55.0558
 20
53.901
 30
0.0
 40
0
 41
0
  0
VERTEX
  8
0
 10
55.0536
 20
53.9169
 30
0.0
 40
0
 41
0
  0
VERTEX
  8
0
 10
55.0514
 20
53.9336
 30
0.0
 40
0
 41
0
  0
VERTEX
  8
0
 10
55.0492
 20
53.9511
 30
0.0
 40
0
 41
0
  0
VERTEX
  8
0
 10
55.0474
 20
53.9693
 30
0.0
 40
0
 41
0
  0
VERTEX
  8
0
 10
55.0456
 20
53.9882
 30
0.0
 40
0
 41
0
  0
VERTEX
  8
0
 10
55.0442
 20
54.0075
 30
0.0
 40
0
 41
0
  0
VERTEX
  8
0
 10
55.0429
 20
54.0276
 30
0.0
 40
0
 41
0
  0
VERTEX
  8
0
 10
55.0418
 20
54.0482
 30
0.0
 40
0
 41
0
  0
VERTEX
  8
0
 10
55.041
 20
54.0694
 30
0.0
 40
0
 41
0
  0
VERTEX
  8
0
 10
55.0404
 20
54.0914
 30
0.0
 40
0
 41
0
  0
VERTEX
  8
0
 10
55.0401
 20
54.1139
 30
0.0
 40
0
 41
0
  0
VERTEX
  8
0
 10
55.04
 20
54.1371
 30
0.0
 40
0
 41
0
  0
SEQEND
 8
0
  0
POLYLINE
  8
0
 62
     0
 66
     1
 10
0
 20
0
 30
0.0
 70
     1
 40
0
 41
0
  0
VERTEX
  8
0
 10
56.7994
 20
56.4629
 30
0.0
 40
0
 41
0
  0
VERTEX
  8
0
 10
57.0274
 20
56.4629
 30
0.0
 40
0
 41
0
  0
VERTEX
  8
0
 10
57.0274
 20
55.0794
 30
0.0
 40
0
 41
0
  0
VERTEX
  8
0
 10
56.7994
 20
55.0794
 30
0.0
 40
0
 41
0
  0
VERTEX
  8
0
 10
56.7994
 20
56.4629
 30
0.0
 40
0
 41
0
  0
SEQEND
 8
0
  0
POLYLINE
  8
0
 62
     0
 66
     1
 10
0
 20
0
 30
0.0
 70
     1
 40
0
 41
0
  0
VERTEX
  8
0
 10
55.04
 20
57.3435
 30
0.0
 40
0
 41
0
  0
VERTEX
  8
0
 10
55.0404
 20
57.3754
 30
0.0
 40
0
 41
0
  0
VERTEX
  8
0
 10
55.0418
 20
57.4069
 30
0.0
 40
0
 41
0
  0
VERTEX
  8
0
 10
55.0442
 20
57.4381
 30
0.0
 40
0
 41
0
  0
VERTEX
  8
0
 10
55.0474
 20
57.4686
 30
0.0
 40
0
 41
0
  0
VERTEX
  8
0
 10
55.0514
 20
57.4989
 30
0.0
 40
0
 41
0
  0
VERTEX
  8
0
 10
55.0564
 20
57.5286
 30
0.0
 40
0
 41
0
  0
VERTEX
  8
0
 10
55.0624
 20
57.5578
 30
0.0
 40
0
 41
0
  0
VERTEX
  8
0
 10
55.0692
 20
57.5867
 30
0.0
 40
0
 41
0
  0
VERTEX
  8
0
 10
55.0769
 20
57.615
 30
0.0
 40
0
 41
0
  0
VERTEX
  8
0
 10
55.0856
 20
57.6429
 30
0.0
 40
0
 41
0
  0
VERTEX
  8
0
 10
55.0949
 20
57.6706
 30
0.0
 40
0
 41
0
  0
VERTEX
  8
0
 10
55.1049
 20
57.6974
 30
0.0
 40
0
 41
0
  0
VERTEX
  8
0
 10
55.1158
 20
57.7235
 30
0.0
 40
0
 41
0
  0
VERTEX
  8
0
 10
55.1278
 20
57.7489
 30
0.0
 40
0
 41
0
  0
VERTEX
  8
0
 10
55.1406
 20
57.7735
 30
0.0
 40
0
 41
0
  0
VERTEX
  8
0
 10
55.1542
 20
57.7974
 30
0.0
 40
0
 41
0
  0
VERTEX
  8
0
 10
55.1686
 20
57.8206
 30
0.0
 40
0
 41
0
  0
VERTEX
  8
0
 10
55.184
 20
57.8429
 30
0.0
 40
0
 41
0
  0
VERTEX
  8
0
 10
55.2003
 20
57.8646
 30
0.0
 40
0
 41
0
  0
VERTEX
  8
0
 10
55.2174
 20
57.8854
 30
0.0
 40
0
 41
0
  0
VERTEX
  8
0
 10
55.2354
 20
57.9058
 30
0.0
 40
0
 41
0
  0
VERTEX
  8
0
 10
55.2543
 20
57.9253
 30
0.0
 40
0
 41
0
  0
VERTEX
  8
0
 10
55.2739
 20
57.9438
 30
0.0
 40
0
 41
0
  0
VERTEX
  8
0
 10
55.2944
 20
57.9614
 30
0.0
 40
0
 41
0
  0
VERTEX
  8
0
 10
55.3158
 20
57.9782
 30
0.0
 40
0
 41
0
  0
VERTEX
  8
0
 10
55.3381
 20
57.994
 30
0.0
 40
0
 41
0
  0
VERTEX
  8
0
 10
55.3613
 20
58.0089
 30
0.0
 40
0
 41
0
  0
VERTEX
  8
0
 10
55.3851
 20
58.0229
 30
0.0
 40
0
 41
0
  0
VERTEX
  8
0
 10
55.4099
 20
58.036
 30
0.0
 40
0
 41
0
  0
VERTEX
  8
0
 10
55.4356
 20
58.0482
 30
0.0
 40
0
 41
0
  0
VERTEX
  8
0
 10
55.4619
 20
58.0593
 30
0.0
 40
0
 41
0
  0
VERTEX
  8
0
 10
55.4892
 20
58.0693
 30
0.0
 40
0
 41
0
  0
VERTEX
  8
0
 10
55.5174
 20
58.0781
 30
0.0
 40
0
 41
0
  0
VERTEX
  8
0
 10
55.5463
 20
58.0857
 30
0.0
 40
0
 41
0
  0
VERTEX
  8
0
 10
55.5758
 20
58.0921
 30
0.0
 40
0
 41
0
  0
VERTEX
  8
0
 10
55.6064
 20
58.0974
 30
0.0
 40
0
 41
0
  0
VERTEX
  8
0
 10
55.6378
 20
58.1015
 30
0.0
 40
0
 41
0
  0
VERTEX
  8
0
 10
55.6699
 20
58.1044
 30
0.0
 40
0
 41
0
  0
VERTEX
  8
0
 10
55.7028
 20
58.1061
 30
0.0
 40
0
 41
0
  0
VERTEX
  8
0
 10
55.7367
 20
58.1068
 30
0.0
 40
0
 41
0
  0
VERTEX
  8
0
 10
55.7733
 20
58.1062
 30
0.0
 40
0
 41
0
  0
VERTEX
  8
0
 10
55.8093
 20
58.1046
 30
0.0
 40
0
 41
0
  0
VERTEX
  8
0
 10
55.8446
 20
58.1018
 30
0.0
 40
0
 41
0
  0
VERTEX
  8
0
 10
55.879
 20
58.0979
 30
0.0
 40
0
 41
0
  0
VERTEX
  8
0
 10
55.9128
 20
58.0929
 30
0.0
 40
0
 41
0
  0
VERTEX
  8
0
 10
55.9458
 20
58.0868
 30
0.0
 40
0
 41
0
  0
VERTEX
  8
0
 10
55.9781
 20
58.0796
 30
0.0
 40
0
 41
0
  0
VERTEX
  8
0
 10
56.0096
 20
58.0714
 30
0.0
 40
0
 41
0
  0
VERTEX
  8
0
 10
56.0403
 20
58.0619
 30
0.0
 40
0
 41
0
  0
VERTEX
  8
0
 10
56.0703
 20
58.0514
 30
0.0
 40
0
 41
0
  0
VERTEX
  8
0
 10
56.0994
 20
58.0399
 30
0.0
 40
0
 41
0
  0
VERTEX
  8
0
 10
56.1276
 20
58.0271
 30
0.0
 40
0
 41
0
  0
VERTEX
  8
0
 10
56.155
 20
58.0133
 30
0.0
 40
0
 41
0
  0
VERTEX
  8
0
 10
56.1815
 20
57.9986
 30
0.0
 40
0
 41
0
  0
VERTEX
  8
0
 10
56.2069
 20
57.9826
 30
0.0
 40
0
 41
0
  0
VERTEX
  8
0
 10
56.2317
 20
57.9657
 30
0.0
 40
0
 41
0
  0
VERTEX
  8
0
 10
56.2553
 20
57.9476
 30
0.0
 40
0
 41
0
  0
VERTEX
  8
0
 10
56.2781
 20
57.9285
 30
0.0
 40
0
 41
0
  0
VERTEX
  8
0
 10
56.3
 20
57.9083
 30
0.0
 40
0
 41
0
  0
VERTEX
  8
0
 10
56.321
 20
57.8871
 30
0.0
 40
0
 41
0
  0
VERTEX
  8
0
 10
56.341
 20
57.8647
 30
0.0
 40
0
 41
0
  0
VERTEX
  8
0
 10
56.36
 20
57.8414
 30
0.0
 40
0
 41
0
  0
VERTEX
  8
0
 10
56.3782
 20
57.8169
 30
0.0
 40
0
 41
0
  0
VERTEX
  8
0
 10
56.3954
 20
57.7915
 30
0.0
 40
0
 41
0
  0
VERTEX
  8
0
 10
56.4117
 20
57.765
 30
0.0
 40
0
 41
0
  0
VERTEX
  8
0
 10
56.4269
 20
57.7374
 30
0.0
 40
0
 41
0
  0
VERTEX
  8
0
 10
56.4414
 20
57.7089
 30
0.0
 40
0
 41
0
  0
VERTEX
  8
0
 10
56.4547
 20
57.6792
 30
0.0
 40
0
 41
0
  0
VERTEX
  8
0
 10
56.4672
 20
57.6486
 30
0.0
 40
0
 41
0
  0
VERTEX
  8
0
 10
56.4788
 20
57.6168
 30
0.0
 40
0
 41
0
  0
VERTEX
  8
0
 10
56.489
 20
57.5844
 30
0.0
 40
0
 41
0
  0
VERTEX
  8
0
 10
56.4982
 20
57.5511
 30
0.0
 40
0
 41
0
  0
VERTEX
  8
0
 10
56.5062
 20
57.5168
 30
0.0
 40
0
 41
0
  0
VERTEX
  8
0
 10
56.5132
 20
57.4814
 30
0.0
 40
0
 41
0
  0
VERTEX
  8
0
 10
56.519
 20
57.4451
 30
0.0
 40
0
 41
0
  0
VERTEX
  8
0
 10
56.5239
 20
57.4079
 30
0.0
 40
0
 41
0
  0
VERTEX
  8
0
 10
56.5276
 20
57.3696
 30
0.0
 40
0
 41
0
  0
VERTEX
  8
0
 10
56.5304
 20
57.3304
 30
0.0
 40
0
 41
0
  0
VERTEX
  8
0
 10
56.5319
 20
57.2901
 30
0.0
 40
0
 41
0
  0
VERTEX
  8
0
 10
56.5325
 20
57.249
 30
0.0
 40
0
 41
0
  0
VERTEX
  8
0
 10
56.5325
 20
57.2325
 30
0.0
 40
0
 41
0
  0
VERTEX
  8
0
 10
56.5322
 20
57.2158
 30
0.0
 40
0
 41
0
  0
VERTEX
  8
0
 10
56.5318
 20
57.1993
 30
0.0
 40
0
 41
0
  0
VERTEX
  8
0
 10
56.5313
 20
57.1829
 30
0.0
 40
0
 41
0
  0
VERTEX
  8
0
 10
56.5304
 20
57.1664
 30
0.0
 40
0
 41
0
  0
VERTEX
  8
0
 10
56.5296
 20
57.15
 30
0.0
 40
0
 41
0
  0
VERTEX
  8
0
 10
56.5285
 20
57.1336
 30
0.0
 40
0
 41
0
  0
VERTEX
  8
0
 10
56.5274
 20
57.1172
 30
0.0
 40
0
 41
0
  0
VERTEX
  8
0
 10
56.526
 20
57.101
 30
0.0
 40
0
 41
0
  0
VERTEX
  8
0
 10
56.5244
 20
57.0846
 30
0.0
 40
0
 41
0
  0
VERTEX
  8
0
 10
56.5226
 20
57.0688
 30
0.0
 40
0
 41
0
  0
VERTEX
  8
0
 10
56.5208
 20
57.0529
 30
0.0
 40
0
 41
0
  0
VERTEX
  8
0
 10
56.5188
 20
57.0372
 30
0.0
 40
0
 41
0
  0
VERTEX
  8
0
 10
56.5165
 20
57.0217
 30
0.0
 40
0
 41
0
  0
VERTEX
  8
0
 10
56.5142
 20
57.0061
 30
0.0
 40
0
 41
0
  0
VERTEX
  8
0
 10
56.5117
 20
56.9907
 30
0.0
 40
0
 41
0
  0
VERTEX
  8
0
 10
56.509
 20
56.9754
 30
0.0
 40
0
 41
0
  0
VERTEX
  8
0
 10
56.5061
 20
56.9601
 30
0.0
 40
0
 41
0
  0
VERTEX
  8
0
 10
56.5032
 20
56.945
 30
0.0
 40
0
 41
0
  0
VERTEX
  8
0
 10
56.5
 20
56.93
 30
0.0
 40
0
 41
0
  0
VERTEX
  8
0
 10
56.4969
 20
56.9154
 30
0.0
 40
0
 41
0
  0
VERTEX
  8
0
 10
56.4938
 20
56.901
 30
0.0
 40
0
 41
0
  0
VERTEX
  8
0
 10
56.4903
 20
56.8867
 30
0.0
 40
0
 41
0
  0
VERTEX
  8
0
 10
56.4867
 20
56.8725
 30
0.0
 40
0
 41
0
  0
VERTEX
  8
0
 10
56.4829
 20
56.8583
 30
0.0
 40
0
 41
0
  0
VERTEX
  8
0
 10
56.4789
 20
56.8444
 30
0.0
 40
0
 41
0
  0
VERTEX
  8
0
 10
56.4747
 20
56.8307
 30
0.0
 40
0
 41
0
  0
VERTEX
  8
0
 10
56.4703
 20
56.8169
 30
0.0
 40
0
 41
0
  0
VERTEX
  8
0
 10
56.4657
 20
56.8035
 30
0.0
 40
0
 41
0
  0
VERTEX
  8
0
 10
56.461
 20
56.79
 30
0.0
 40
0
 41
0
  0
VERTEX
  8
0
 10
56.456
 20
56.7768
 30
0.0
 40
0
 41
0
  0
VERTEX
  8
0
 10
56.4508
 20
56.7639
 30
0.0
 40
0
 41
0
  0
VERTEX
  8
0
 10
56.4456
 20
56.7511
 30
0.0
 40
0
 41
0
  0
VERTEX
  8
0
 10
56.4401
 20
56.7387
 30
0.0
 40
0
 41
0
  0
VERTEX
  8
0
 10
56.4344
 20
56.7265
 30
0.0
 40
0
 41
0
  0
VERTEX
  8
0
 10
56.4286
 20
56.7146
 30
0.0
 40
0
 41
0
  0
VERTEX
  8
0
 10
56.4228
 20
56.7031
 30
0.0
 40
0
 41
0
  0
VERTEX
  8
0
 10
56.4167
 20
56.6915
 30
0.0
 40
0
 41
0
  0
VERTEX
  8
0
 10
56.4104
 20
56.6804
 30
0.0
 40
0
 41
0
  0
VERTEX
  8
0
 10
56.4039
 20
56.6696
 30
0.0
 40
0
 41
0
  0
VERTEX
  8
0
 10
56.124
 20
56.6696
 30
0.0
 40
0
 41
0
  0
VERTEX
  8
0
 10
56.1314
 20
56.6806
 30
0.0
 40
0
 41
0
  0
VERTEX
  8
0
 10
56.1386
 20
56.6918
 30
0.0
 40
0
 41
0
  0
VERTEX
  8
0
 10
56.1457
 20
56.7035
 30
0.0
 40
0
 41
0
  0
VERTEX
  8
0
 10
56.1526
 20
56.7154
 30
0.0
 40
0
 41
0
  0
VERTEX
  8
0
 10
56.1594
 20
56.7278
 30
0.0
 40
0
 41
0
  0
VERTEX
  8
0
 10
56.166
 20
56.7406
 30
0.0
 40
0
 41
0
  0
VERTEX
  8
0
 10
56.1724
 20
56.7536
 30
0.0
 40
0
 41
0
  0
VERTEX
  8
0
 10
56.1786
 20
56.7669
 30
0.0
 40
0
 41
0
  0
VERTEX
  8
0
 10
56.1847
 20
56.7808
 30
0.0
 40
0
 41
0
  0
VERTEX
  8
0
 10
56.1907
 20
56.7949
 30
0.0
 40
0
 41
0
  0
VERTEX
  8
0
 10
56.1965
 20
56.8096
 30
0.0
 40
0
 41
0
  0
VERTEX
  8
0
 10
56.2021
 20
56.8244
 30
0.0
 40
0
 41
0
  0
VERTEX
  8
0
 10
56.2074
 20
56.8394
 30
0.0
 40
0
 41
0
  0
VERTEX
  8
0
 10
56.2126
 20
56.8546
 30
0.0
 40
0
 41
0
  0
VERTEX
  8
0
 10
56.2176
 20
56.8697
 30
0.0
 40
0
 41
0
  0
VERTEX
  8
0
 10
56.2224
 20
56.8851
 30
0.0
 40
0
 41
0
  0
VERTEX
  8
0
 10
56.2269
 20
56.9007
 30
0.0
 40
0
 41
0
  0
VERTEX
  8
0
 10
56.2314
 20
56.9163
 30
0.0
 40
0
 41
0
  0
VERTEX
  8
0
 10
56.2356
 20
56.9321
 30
0.0
 40
0
 41
0
  0
VERTEX
  8
0
 10
56.2396
 20
56.9479
 30
0.0
 40
0
 41
0
  0
VERTEX
  8
0
 10
56.2433
 20
56.9639
 30
0.0
 40
0
 41
0
  0
VERTEX
  8
0
 10
56.2471
 20
56.9799
 30
0.0
 40
0
 41
0
  0
VERTEX
  8
0
 10
56.2506
 20
56.9957
 30
0.0
 40
0
 41
0
  0
VERTEX
  8
0
 10
56.2539
 20
57.0117
 30
0.0
 40
0
 41
0
  0
VERTEX
  8
0
 10
56.2571
 20
57.0276
 30
0.0
 40
0
 41
0
  0
VERTEX
  8
0
 10
56.26
 20
57.0436
 30
0.0
 40
0
 41
0
  0
VERTEX
  8
0
 10
56.2629
 20
57.0596
 30
0.0
 40
0
 41
0
  0
VERTEX
  8
0
 10
56.2656
 20
57.0756
 30
0.0
 40
0
 41
0
  0
VERTEX
  8
0
 10
56.2681
 20
57.0915
 30
0.0
 40
0
 41
0
  0
VERTEX
  8
0
 10
56.2704
 20
57.1074
 30
0.0
 40
0
 41
0
  0
VERTEX
  8
0
 10
56.2724
 20
57.1236
 30
0.0
 40
0
 41
0
  0
VERTEX
  8
0
 10
56.274
 20
57.1394
 30
0.0
 40
0
 41
0
  0
VERTEX
  8
0
 10
56.2754
 20
57.1551
 30
0.0
 40
0
 41
0
  0
VERTEX
  8
0
 10
56.2767
 20
57.1704
 30
0.0
 40
0
 41
0
  0
VERTEX
  8
0
 10
56.2778
 20
57.1856
 30
0.0
 40
0
 41
0
  0
VERTEX
  8
0
 10
56.2786
 20
57.2004
 30
0.0
 40
0
 41
0
  0
VERTEX
  8
0
 10
56.2793
 20
57.215
 30
0.0
 40
0
 41
0
  0
VERTEX
  8
0
 10
56.2799
 20
57.2293
 30
0.0
 40
0
 41
0
  0
VERTEX
  8
0
 10
56.2801
 20
57.2433
 30
0.0
 40
0
 41
0
  0
VERTEX
  8
0
 10
56.2803
 20
57.2572
 30
0.0
 40
0
 41
0
  0
VERTEX
  8
0
 10
56.28
 20
57.2826
 30
0.0
 40
0
 41
0
  0
VERTEX
  8
0
 10
56.279
 20
57.3075
 30
0.0
 40
0
 41
0
  0
VERTEX
  8
0
 10
56.2776
 20
57.3318
 30
0.0
 40
0
 41
0
  0
VERTEX
  8
0
 10
56.2756
 20
57.3556
 30
0.0
 40
0
 41
0
  0
VERTEX
  8
0
 10
56.2729
 20
57.3788
 30
0.0
 40
0
 41
0
  0
VERTEX
  8
0
 10
56.2697
 20
57.4015
 30
0.0
 40
0
 41
0
  0
VERTEX
  8
0
 10
56.2658
 20
57.4236
 30
0.0
 40
0
 41
0
  0
VERTEX
  8
0
 10
56.2615
 20
57.4451
 30
0.0
 40
0
 41
0
  0
VERTEX
  8
0
 10
56.2565
 20
57.4662
 30
0.0
 40
0
 41
0
  0
VERTEX
  8
0
 10
56.251
 20
57.4867
 30
0.0
 40
0
 41
0
  0
VERTEX
  8
0
 10
56.2444
 20
57.5065
 30
0.0
 40
0
 41
0
  0
VERTEX
  8
0
 10
56.2372
 20
57.5258
 30
0.0
 40
0
 41
0
  0
VERTEX
  8
0
 10
56.2294
 20
57.5444
 30
0.0
 40
0
 41
0
  0
VERTEX
  8
0
 10
56.221
 20
57.5624
 30
0.0
 40
0
 41
0
  0
VERTEX
  8
0
 10
56.2119
 20
57.5799
 30
0.0
 40
0
 41
0
  0
VERTEX
  8
0
 10
56.2021
 20
57.5967
 30
0.0
 40
0
 41
0
  0
VERTEX
  8
0
 10
56.1917
 20
57.6128
 30
0.0
 40
0
 41
0
  0
VERTEX
  8
0
 10
56.1807
 20
57.6283
 30
0.0
 40
0
 41
0
  0
VERTEX
  8
0
 10
56.1689
 20
57.6432
 30
0.0
 40
0
 41
0
  0
VERTEX
  8
0
 10
56.1565
 20
57.6575
 30
0.0
 40
0
 41
0
  0
VERTEX
  8
0
 10
56.1435
 20
57.6713
 30
0.0
 40
0
 41
0
  0
VERTEX
  8
0
 10
56.1299
 20
57.6843
 30
0.0
 40
0
 41
0
  0
VERTEX
  8
0
 10
56.1156
 20
57.6967
 30
0.0
 40
0
 41
0
  0
VERTEX
  8
0
 10
56.1006
 20
57.7083
 30
0.0
 40
0
 41
0
  0
VERTEX
  8
0
 10
56.0849
 20
57.7194
 30
0.0
 40
0
 41
0
  0
VERTEX
  8
0
 10
56.0686
 20
57.7299
 30
0.0
 40
0
 41
0
  0
VERTEX
  8
0
 10
56.0517
 20
57.7396
 30
0.0
 40
0
 41
0
  0
VERTEX
  8
0
 10
56.0342
 20
57.7488
 30
0.0
 40
0
 41
0
  0
VERTEX
  8
0
 10
56.016
 20
57.7572
 30
0.0
 40
0
 41
0
  0
VERTEX
  8
0
 10
55.9971
 20
57.765
 30
0.0
 40
0
 41
0
  0
VERTEX
  8
0
 10
55.9775
 20
57.7721
 30
0.0
 40
0
 41
0
  0
VERTEX
  8
0
 10
55.9572
 20
57.7785
 30
0.0
 40
0
 41
0
  0
VERTEX
  8
0
 10
55.9362
 20
57.784
 30
0.0
 40
0
 41
0
  0
VERTEX
  8
0
 10
55.9144
 20
57.7889
 30
0.0
 40
0
 41
0
  0
VERTEX
  8
0
 10
55.8921
 20
57.7931
 30
0.0
 40
0
 41
0
  0
VERTEX
  8
0
 10
55.8689
 20
57.7964
 30
0.0
 40
0
 41
0
  0
VERTEX
  8
0
 10
55.845
 20
57.799
 30
0.0
 40
0
 41
0
  0
VERTEX
  8
0
 10
55.8204
 20
57.801
 30
0.0
 40
0
 41
0
  0
VERTEX
  8
0
 10
55.7951
 20
57.8021
 30
0.0
 40
0
 41
0
  0
VERTEX
  8
0
 10
55.7692
 20
57.8024
 30
0.0
 40
0
 41
0
  0
VERTEX
  8
0
 10
55.7238
 20
57.801
 30
0.0
 40
0
 41
0
  0
VERTEX
  8
0
 10
55.6806
 20
57.7967
 30
0.0
 40
0
 41
0
  0
VERTEX
  8
0
 10
55.6394
 20
57.7894
 30
0.0
 40
0
 41
0
  0
VERTEX
  8
0
 10
55.6007
 20
57.7794
 30
0.0
 40
0
 41
0
  0
VERTEX
  8
0
 10
55.564
 20
57.7665
 30
0.0
 40
0
 41
0
  0
VERTEX
  8
0
 10
55.5297
 20
57.7508
 30
0.0
 40
0
 41
0
  0
VERTEX
  8
0
 10
55.4975
 20
57.7322
 30
0.0
 40
0
 41
0
  0
VERTEX
  8
0
 10
55.4676
 20
57.7107
 30
0.0
 40
0
 41
0
  0
VERTEX
  8
0
 10
55.4399
 20
57.6864
 30
0.0
 40
0
 41
0
  0
VERTEX
  8
0
 10
55.4143
 20
57.6592
 30
0.0
 40
0
 41
0
  0
VERTEX
  8
0
 10
55.3908
 20
57.6292
 30
0.0
 40
0
 41
0
  0
VERTEX
  8
0
 10
55.3699
 20
57.5967
 30
0.0
 40
0
 41
0
  0
VERTEX
  8
0
 10
55.3513
 20
57.5615
 30
0.0
 40
0
 41
0
  0
VERTEX
  8
0
 10
55.3351
 20
57.5237
 30
0.0
 40
0
 41
0
  0
VERTEX
  8
0
 10
55.3215
 20
57.4833
 30
0.0
 40
0
 41
0
  0
VERTEX
  8
0
 10
55.3104
 20
57.4404
 30
0.0
 40
0
 41
0
  0
VERTEX
  8
0
 10
55.3018
 20
57.3949
 30
0.0
 40
0
 41
0
  0
VERTEX
  8
0
 10
55.2956
 20
57.3467
 30
0.0
 40
0
 41
0
  0
VERTEX
  8
0
 10
55.2919
 20
57.2958
 30
0.0
 40
0
 41
0
  0
VERTEX
  8
0
 10
55.2907
 20
57.2425
 30
0.0
 40
0
 41
0
  0
VERTEX
  8
0
 10
55.2907
 20
57.2336
 30
0.0
 40
0
 41
0
  0
VERTEX
  8
0
 10
55.2908
 20
57.2246
 30
0.0
 40
0
 41
0
  0
VERTEX
  8
0
 10
55.2911
 20
57.2154
 30
0.0
 40
0
 41
0
  0
VERTEX
  8
0
 10
55.2914
 20
57.2061
 30
0.0
 40
0
 41
0
  0
VERTEX
  8
0
 10
55.2919
 20
57.1965
 30
0.0
 40
0
 41
0
  0
VERTEX
  8
0
 10
55.2924
 20
57.1868
 30
0.0
 40
0
 41
0
  0
VERTEX
  8
0
 10
55.2931
 20
57.1769
 30
0.0
 40
0
 41
0
  0
VERTEX
  8
0
 10
55.2937
 20
57.1669
 30
0.0
 40
0
 41
0
  0
VERTEX
  8
0
 10
55.2946
 20
57.1568
 30
0.0
 40
0
 41
0
  0
VERTEX
  8
0
 10
55.2956
 20
57.1465
 30
0.0
 40
0
 41
0
  0
VERTEX
  8
0
 10
55.2963
 20
57.1364
 30
0.0
 40
0
 41
0
  0
VERTEX
  8
0
 10
55.2969
 20
57.1262
 30
0.0
 40
0
 41
0
  0
VERTEX
  8
0
 10
55.2978
 20
57.1161
 30
0.0
 40
0
 41
0
  0
VERTEX
  8
0
 10
55.2986
 20
57.1058
 30
0.0
 40
0
 41
0
  0
VERTEX
  8
0
 10
55.2996
 20
57.0956
 30
0.0
 40
0
 41
0
  0
VERTEX
  8
0
 10
55.3006
 20
57.0853
 30
0.0
 40
0
 41
0
  0
VERTEX
  8
0
 10
55.3017
 20
57.075
 30
0.0
 40
0
 41
0
  0
VERTEX
  8
0
 10
55.3028
 20
57.0647
 30
0.0
 40
0
 41
0
  0
VERTEX
  8
0
 10
55.3053
 20
57.0439
 30
0.0
 40
0
 41
0
  0
VERTEX
  8
0
 10
55.3067
 20
57.0339
 30
0.0
 40
0
 41
0
  0
VERTEX
  8
0
 10
55.3079
 20
57.0239
 30
0.0
 40
0
 41
0
  0
VERTEX
  8
0
 10
55.3093
 20
57.0139
 30
0.0
 40
0
 41
0
  0
VERTEX
  8
0
 10
55.3108
 20
57.004
 30
0.0
 40
0
 41
0
  0
VERTEX
  8
0
 10
55.3122
 20
56.9943
 30
0.0
 40
0
 41
0
  0
VERTEX
  8
0
 10
55.3153
 20
56.9749
 30
0.0
 40
0
 41
0
  0
VERTEX
  8
0
 10
55.3183
 20
56.9557
 30
0.0
 40
0
 41
0
  0
VERTEX
  8
0
 10
55.32
 20
56.9462
 30
0.0
 40
0
 41
0
  0
VERTEX
  8
0
 10
55.3212
 20
56.9372
 30
0.0
 40
0
 41
0
  0
VERTEX
  8
0
 10
55.3225
 20
56.9285
 30
0.0
 40
0
 41
0
  0
VERTEX
  8
0
 10
55.3239
 20
56.92
 30
0.0
 40
0
 41
0
  0
VERTEX
  8
0
 10
55.3251
 20
56.9117
 30
0.0
 40
0
 41
0
  0
VERTEX
  8
0
 10
55.3265
 20
56.9036
 30
0.0
 40
0
 41
0
  0
VERTEX
  8
0
 10
55.3278
 20
56.8957
 30
0.0
 40
0
 41
0
  0
VERTEX
  8
0
 10
55.329
 20
56.8881
 30
0.0
 40
0
 41
0
  0
VERTEX
  8
0
 10
55.3304
 20
56.8807
 30
0.0
 40
0
 41
0
  0
VERTEX
  8
0
 10
55.3317
 20
56.8735
 30
0.0
 40
0
 41
0
  0
VERTEX
  8
0
 10
55.3329
 20
56.8665
 30
0.0
 40
0
 41
0
  0
VERTEX
  8
0
 10
55.2401
 20
56.72
 30
0.0
 40
0
 41
0
  0
VERTEX
  8
0
 10
54.1204
 20
56.8096
 30
0.0
 40
0
 41
0
  0
VERTEX
  8
0
 10
54.1204
 20
57.9326
 30
0.0
 40
0
 41
0
  0
VERTEX
  8
0
 10
54.3906
 20
57.9326
 30
0.0
 40
0
 41
0
  0
VERTEX
  8
0
 10
54.3906
 20
57.0667
 30
0.0
 40
0
 41
0
  0
VERTEX
  8
0
 10
55.0725
 20
57.0032
 30
0.0
 40
0
 41
0
  0
VERTEX
  8
0
 10
55.0706
 20
57.014
 30
0.0
 40
0
 41
0
  0
VERTEX
  8
0
 10
55.0686
 20
57.0254
 30
0.0
 40
0
 41
0
  0
VERTEX
  8
0
 10
55.0665
 20
57.0374
 30
0.0
 40
0
 41
0
  0
VERTEX
  8
0
 10
55.0644
 20
57.0501
 30
0.0
 40
0
 41
0
  0
VERTEX
  8
0
 10
55.0624
 20
57.0635
 30
0.0
 40
0
 41
0
  0
VERTEX
  8
0
 10
55.0603
 20
57.0775
 30
0.0
 40
0
 41
0
  0
VERTEX
  8
0
 10
55.0581
 20
57.0921
 30
0.0
 40
0
 41
0
  0
VERTEX
  8
0
 10
55.0558
 20
57.1074
 30
0.0
 40
0
 41
0
  0
VERTEX
  8
0
 10
55.0536
 20
57.1233
 30
0.0
 40
0
 41
0
  0
VERTEX
  8
0
 10
55.0514
 20
57.14
 30
0.0
 40
0
 41
0
  0
VERTEX
  8
0
 10
55.0492
 20
57.1575
 30
0.0
 40
0
 41
0
  0
VERTEX
  8
0
 10
55.0474
 20
57.1757
 30
0.0
 40
0
 41
0
  0
VERTEX
  8
0
 10
55.0456
 20
57.1944
 30
0.0
 40
0
 41
0
  0
VERTEX
  8
0
 10
55.0442
 20
57.2139
 30
0.0
 40
0
 41
0
  0
VERTEX
  8
0
 10
55.0429
 20
57.234
 30
0.0
 40
0
 41
0
  0
VERTEX
  8
0
 10
55.0418
 20
57.2546
 30
0.0
 40
0
 41
0
  0
VERTEX
  8
0
 10
55.041
 20
57.2758
 30
0.0
 40
0
 41
0
  0
VERTEX
  8
0
 10
55.0404
 20
57.2978
 30
0.0
 40
0
 41
0
  0
VERTEX
  8
0
 10
55.0401
 20
57.3203
 30
0.0
 40
0
 41
0
  0
VERTEX
  8
0
 10
55.04
 20
57.3435
 30
0.0
 40
0
 41
0
  0
SEQEND
 8
0
  0
POLYLINE
  8
0
 62
     0
 66
     1
 10
0
 20
0
 30
0.0
 70
     1
 40
0
 41
0
  0
VERTEX
  8
0
 10
56.7994
 20
59.6693
 30
0.0
 40
0
 41
0
  0
VERTEX
  8
0
 10
57.0274
 20
59.6693
 30
0.0
 40
0
 41
0
  0
VERTEX
  8
0
 10
57.0274
 20
58.2858
 30
0.0
 40
0
 41
0
  0
VERTEX
  8
0
 10
56.7994
 20
58.2858
 30
0.0
 40
0
 41
0
  0
VERTEX
  8
0
 10
56.7994
 20
59.6693
 30
0.0
 40
0
 41
0
  0
SEQEND
 8
0
  0
POLYLINE
  8
0
 62
     0
 66
     1
 10
0
 20
0
 30
0.0
 70
     1
 40
0
 41
0
  0
VERTEX
  8
0
 10
56.5
 20
60.82
 30
0.0
 40
0
 41
0
  0
VERTEX
  8
0
 10
56.5
 20
60.5335
 30
0.0
 40
0
 41
0
  0
VERTEX
  8
0
 10
54.8642
 20
60.5335
 30
0.0
 40
0
 41
0
  0
VERTEX
  8
0
 10
54.8483
 20
60.5339
 30
0.0
 40
0
 41
0
  0
VERTEX
  8
0
 10
54.8324
 20
60.5342
 30
0.0
 40
0
 41
0
  0
VERTEX
  8
0
 10
54.8165
 20
60.5344
 30
0.0
 40
0
 41
0
  0
VERTEX
  8
0
 10
54.8007
 20
60.5349
 30
0.0
 40
0
 41
0
  0
VERTEX
  8
0
 10
54.7849
 20
60.5351
 30
0.0
 40
0
 41
0
  0
VERTEX
  8
0
 10
54.7692
 20
60.5354
 30
0.0
 40
0
 41
0
  0
VERTEX
  8
0
 10
54.7533
 20
60.5358
 30
0.0
 40
0
 41
0
  0
VERTEX
  8
0
 10
54.7376
 20
60.5361
 30
0.0
 40
0
 41
0
  0
VERTEX
  8
0
 10
54.7219
 20
60.5364
 30
0.0
 40
0
 41
0
  0
VERTEX
  8
0
 10
54.7064
 20
60.5368
 30
0.0
 40
0
 41
0
  0
VERTEX
  8
0
 10
54.6904
 20
60.5374
 30
0.0
 40
0
 41
0
  0
VERTEX
  8
0
 10
54.6747
 20
60.5381
 30
0.0
 40
0
 41
0
  0
VERTEX
  8
0
 10
54.6592
 20
60.5386
 30
0.0
 40
0
 41
0
  0
VERTEX
  8
0
 10
54.6439
 20
60.5392
 30
0.0
 40
0
 41
0
  0
VERTEX
  8
0
 10
54.6286
 20
60.5396
 30
0.0
 40
0
 41
0
  0
VERTEX
  8
0
 10
54.6136
 20
60.5401
 30
0.0
 40
0
 41
0
  0
VERTEX
  8
0
 10
54.5986
 20
60.5406
 30
0.0
 40
0
 41
0
  0
VERTEX
  8
0
 10
54.5839
 20
60.541
 30
0.0
 40
0
 41
0
  0
VERTEX
  8
0
 10
54.5694
 20
60.5413
 30
0.0
 40
0
 41
0
  0
VERTEX
  8
0
 10
54.555
 20
60.5417
 30
0.0
 40
0
 41
0
  0
VERTEX
  8
0
 10
54.5406
 20
60.5424
 30
0.0
 40
0
 41
0
  0
VERTEX
  8
0
 10
54.5264
 20
60.5429
 30
0.0
 40
0
 41
0
  0
VERTEX
  8
0
 10
54.5126
 20
60.5435
 30
0.0
 40
0
 41
0
  0
VERTEX
  8
0
 10
54.4993
 20
60.544
 30
0.0
 40
0
 41
0
  0
VERTEX
  8
0
 10
54.4863
 20
60.5444
 30
0.0
 40
0
 41
0
  0
VERTEX
  8
0
 10
54.4735
 20
60.545
 30
0.0
 40
0
 41
0
  0
VERTEX
  8
0
 10
54.4612
 20
60.5454
 30
0.0
 40
0
 41
0
  0
VERTEX
  8
0
 10
54.4493
 20
60.5458
 30
0.0
 40
0
 41
0
  0
VERTEX
  8
0
 10
54.4376
 20
60.5463
 30
0.0
 40
0
 41
0
  0
VERTEX
  8
0
 10
54.4264
 20
60.5465
 30
0.0
 40
0
 41
0
  0
VERTEX
  8
0
 10
54.4322
 20
60.5411
 30
0.0
 40
0
 41
0
  0
VERTEX
  8
0
 10
54.4378
 20
60.5357
 30
0.0
 40
0
 41
0
  0
VERTEX
  8
0
 10
54.4432
 20
60.5306
 30
0.0
 40
0
 41
0
  0
VERTEX
  8
0
 10
54.4485
 20
60.5254
 30
0.0
 40
0
 41
0
  0
VERTEX
  8
0
 10
54.4536
 20
60.5206
 30
0.0
 40
0
 41
0
  0
VERTEX
  8
0
 10
54.4586
 20
60.5157
 30
0.0
 40
0
 41
0
  0
VERTEX
  8
0
 10
54.4635
 20
60.511
 30
0.0
 40
0
 41
0
  0
VERTEX
  8
0
 10
54.4725
 20
60.5019
 30
0.0
 40
0
 41
0
  0
VERTEX
  8
0
 10
54.4768
 20
60.4978
 30
0.0
 40
0
 41
0
  0
VERTEX
  8
0
 10
54.4811
 20
60.4935
 30
0.0
 40
0
 41
0
  0
VERTEX
  8
0
 10
54.4853
 20
60.4892
 30
0.0
 40
0
 41
0
  0
VERTEX
  8
0
 10
54.4894
 20
60.4849
 30
0.0
 40
0
 41
0
  0
VERTEX
  8
0
 10
54.4935
 20
60.4806
 30
0.0
 40
0
 41
0
  0
VERTEX
  8
0
 10
54.4976
 20
60.4761
 30
0.0
 40
0
 41
0
  0
VERTEX
  8
0
 10
54.5017
 20
60.4718
 30
0.0
 40
0
 41
0
  0
VERTEX
  8
0
 10
54.5057
 20
60.4674
 30
0.0
 40
0
 41
0
  0
VERTEX
  8
0
 10
54.5097
 20
60.4628
 30
0.0
 40
0
 41
0
  0
VERTEX
  8
0
 10
54.5136
 20
60.4583
 30
0.0
 40
0
 41
0
  0
VERTEX
  8
0
 10
54.5175
 20
60.4537
 30
0.0
 40
0
 41
0
  0
VERTEX
  8
0
 10
54.5256
 20
60.4451
 30
0.0
 40
0
 41
0
  0
VERTEX
  8
0
 10
54.5296
 20
60.4408
 30
0.0
 40
0
 41
0
  0
VERTEX
  8
0
 10
54.5337
 20
60.4364
 30
0.0
 40
0
 41
0
  0
VERTEX
  8
0
 10
54.5379
 20
60.4318
 30
0.0
 40
0
 41
0
  0
VERTEX
  8
0
 10
54.5422
 20
60.4272
 30
0.0
 40
0
 41
0
  0
VERTEX
  8
0
 10
54.5465
 20
60.4225
 30
0.0
 40
0
 41
0
  0
VERTEX
  8
0
 10
54.5508
 20
60.4178
 30
0.0
 40
0
 41
0
  0
VERTEX
  8
0
 10
54.5553
 20
60.4131
 30
0.0
 40
0
 41
0
  0
VERTEX
  8
0
 10
54.5599
 20
60.4082
 30
0.0
 40
0
 41
0
  0
VERTEX
  8
0
 10
54.5642
 20
60.4032
 30
0.0
 40
0
 41
0
  0
VERTEX
  8
0
 10
54.5686
 20
60.3981
 30
0.0
 40
0
 41
0
  0
VERTEX
  8
0
 10
54.5733
 20
60.3926
 30
0.0
 40
0
 41
0
  0
VERTEX
  8
0
 10
54.5781
 20
60.3871
 30
0.0
 40
0
 41
0
  0
VERTEX
  8
0
 10
54.5831
 20
60.3814
 30
0.0
 40
0
 41
0
  0
VERTEX
  8
0
 10
54.5882
 20
60.3754
 30
0.0
 40
0
 41
0
  0
VERTEX
  8
0
 10
54.5935
 20
60.3692
 30
0.0
 40
0
 41
0
  0
VERTEX
  8
0
 10
54.5989
 20
60.3629
 30
0.0
 40
0
 41
0
  0
VERTEX
  8
0
 10
54.6046
 20
60.3564
 30
0.0
 40
0
 41
0
  0
VERTEX
  8
0
 10
54.6103
 20
60.3496
 30
0.0
 40
0
 41
0
  0
VERTEX
  8
0
 10
54.8072
 20
60.1088
 30
0.0
 40
0
 41
0
  0
VERTEX
  8
0
 10
54.6071
 20
59.9525
 30
0.0
 40
0
 41
0
  0
VERTEX
  8
0
 10
54.1204
 20
60.5758
 30
0.0
 40
0
 41
0
  0
VERTEX
  8
0
 10
54.1204
 20
60.82
 30
0.0
 40
0
 41
0
  0
VERTEX
  8
0
 10
56.5
 20
60.82
 30
0.0
 40
0
 41
0
  0
SEQEND
 8
0
  0
POLYLINE
  8
0
 62
     0
 66
     1
 10
0
 20
0
 30
0.0
 70
     1
 40
0
 41
0
  0
VERTEX
  8
0
 10
56.5
 20
63.9222
 30
0.0
 40
0
 41
0
  0
VERTEX
  8
0
 10
55.3493
 20
63.9222
 30
0.0
 40
0
 41
0
  0
VERTEX
  8
0
 10
55.3081
 20
63.9214
 30
0.0
 40
0
 41
0
  0
VERTEX
  8
0
 10
55.2689
 20
63.9189
 30
0.0
 40
0
 41
0
  0
VERTEX
  8
0
 10
55.2318
 20
63.9149
 30
0.0
 40
0
 41
0
  0
VERTEX
  8
0
 10
55.1969
 20
63.9092
 30
0.0
 40
0
 41
0
  0
VERTEX
  8
0
 10
55.1642
 20
63.9018
 30
0.0
 40
0
 41
0
  0
VERTEX
  8
0
 10
55.1335
 20
63.8929
 30
0.0
 40
0
 41
0
  0
VERTEX
  8
0
 10
55.1049
 20
63.8824
 30
0.0
 40
0
 41
0
  0
VERTEX
  8
0
 10
55.0785
 20
63.8701
 30
0.0
 40
0
 41
0
  0
VERTEX
  8
0
 10
55.054
 20
63.8562
 30
0.0
 40
0
 41
0
  0
VERTEX
  8
0
 10
55.0318
 20
63.8408
 30
0.0
 40
0
 41
0
  0
VERTEX
  8
0
 10
55.0118
 20
63.8236
 30
0.0
 40
0
 41
0
  0
VERTEX
  8
0
 10
54.9938
 20
63.8047
 30
0.0
 40
0
 41
0
  0
VERTEX
  8
0
 10
54.9779
 20
63.7839
 30
0.0
 40
0
 41
0
  0
VERTEX
  8
0
 10
54.9642
 20
63.7614
 30
0.0
 40
0
 41
0
  0
VERTEX
  8
0
 10
54.9525
 20
63.7371
 30
0.0
 40
0
 41
0
  0
VERTEX
  8
0
 10
54.9431
 20
63.711
 30
0.0
 40
0
 41
0
  0
VERTEX
  8
0
 10
54.9356
 20
63.6831
 30
0.0
 40
0
 41
0
  0
VERTEX
  8
0
 10
54.9303
 20
63.6533
 30
0.0
 40
0
 41
0
  0
VERTEX
  8
0
 10
54.9271
 20
63.6218
 30
0.0
 40
0
 41
0
  0
VERTEX
  8
0
 10
54.9261
 20
63.5885
 30
0.0
 40
0
 41
0
  0
VERTEX
  8
0
 10
54.9265
 20
63.5651
 30
0.0
 40
0
 41
0
  0
VERTEX
  8
0
 10
54.9276
 20
63.5425
 30
0.0
 40
0
 41
0
  0
VERTEX
  8
0
 10
54.9296
 20
63.5204
 30
0.0
 40
0
 41
0
  0
VERTEX
  8
0
 10
54.9324
 20
63.4992
 30
0.0
 40
0
 41
0
  0
VERTEX
  8
0
 10
54.9358
 20
63.4786
 30
0.0
 40
0
 41
0
  0
VERTEX
  8
0
 10
54.9401
 20
63.4589
 30
0.0
 40
0
 41
0
  0
VERTEX
  8
0
 10
54.9453
 20
63.4397
 30
0.0
 40
0
 41
0
  0
VERTEX
  8
0
 10
54.9511
 20
63.4214
 30
0.0
 40
0
 41
0
  0
VERTEX
  8
0
 10
54.9578
 20
63.4036
 30
0.0
 40
0
 41
0
  0
VERTEX
  8
0
 10
54.9651
 20
63.3867
 30
0.0
 40
0
 41
0
  0
VERTEX
  8
0
 10
54.9731
 20
63.3704
 30
0.0
 40
0
 41
0
  0
VERTEX
  8
0
 10
54.9817
 20
63.3547
 30
0.0
 40
0
 41
0
  0
VERTEX
  8
0
 10
54.991
 20
63.3396
 30
0.0
 40
0
 41
0
  0
VERTEX
  8
0
 10
55.0011
 20
63.325
 30
0.0
 40
0
 41
0
  0
VERTEX
  8
0
 10
55.0119
 20
63.311
 30
0.0
 40
0
 41
0
  0
VERTEX
  8
0
 10
55.0235
 20
63.2976
 30
0.0
 40
0
 41
0
  0
VERTEX
  8
0
 10
55.0358
 20
63.2849
 30
0.0
 40
0
 41
0
  0
VERTEX
  8
0
 10
55.049
 20
63.2726
 30
0.0
 40
0
 41
0
  0
VERTEX
  8
0
 10
55.0628
 20
63.261
 30
0.0
 40
0
 41
0
  0
VERTEX
  8
0
 10
55.0775
 20
63.25
 30
0.0
 40
0
 41
0
  0
VERTEX
  8
0
 10
55.0925
 20
63.2399
 30
0.0
 40
0
 41
0
  0
VERTEX
  8
0
 10
55.1082
 20
63.2303
 30
0.0
 40
0
 41
0
  0
VERTEX
  8
0
 10
55.1247
 20
63.2213
 30
0.0
 40
0
 41
0
  0
VERTEX
  8
0
 10
55.1421
 20
63.2128
 30
0.0
 40
0
 41
0
  0
VERTEX
  8
0
 10
55.16
 20
63.2049
 30
0.0
 40
0
 41
0
  0
VERTEX
  8
0
 10
55.1788
 20
63.1975
 30
0.0
 40
0
 41
0
  0
VERTEX
  8
0
 10
55.1983
 20
63.1907
 30
0.0
 40
0
 41
0
  0
VERTEX
  8
0
 10
55.2186
 20
63.1843
 30
0.0
 40
0
 41
0
  0
VERTEX
  8
0
 10
55.2396
 20
63.1786
 30
0.0
 40
0
 41
0
  0
VERTEX
  8
0
 10
55.2614
 20
63.1735
 30
0.0
 40
0
 41
0
  0
VERTEX
  8
0
 10
55.2835
 20
63.1689
 30
0.0
 40
0
 41
0
  0
VERTEX
  8
0
 10
55.3064
 20
63.1647
 30
0.0
 40
0
 41
0
  0
VERTEX
  8
0
 10
55.3299
 20
63.1611
 30
0.0
 40
0
 41
0
  0
VERTEX
  8
0
 10
55.354
 20
63.1579
 30
0.0
 40
0
 41
0
  0
VERTEX
  8
0
 10
55.3789
 20
63.1551
 30
0.0
 40
0
 41
0
  0
VERTEX
  8
0
 10
55.4046
 20
63.1531
 30
0.0
 40
0
 41
0
  0
VERTEX
  8
0
 10
55.4308
 20
63.1513
 30
0.0
 40
0
 41
0
  0
VERTEX
  8
0
 10
55.4578
 20
63.15
 30
0.0
 40
0
 41
0
  0
VERTEX
  8
0
 10
55.4853
 20
63.1493
 30
0.0
 40
0
 41
0
  0
VERTEX
  8
0
 10
55.5136
 20
63.149
 30
0.0
 40
0
 41
0
  0
VERTEX
  8
0
 10
56.5
 20
63.149
 30
0.0
 40
0
 41
0
  0
VERTEX
  8
0
 10
56.5
 20
62.8513
 30
0.0
 40
0
 41
0
  0
VERTEX
  8
0
 10
55.3493
 20
62.8513
 30
0.0
 40
0
 41
0
  0
VERTEX
  8
0
 10
55.3081
 20
62.8504
 30
0.0
 40
0
 41
0
  0
VERTEX
  8
0
 10
55.2689
 20
62.8479
 30
0.0
 40
0
 41
0
  0
VERTEX
  8
0
 10
55.2318
 20
62.8439
 30
0.0
 40
0
 41
0
  0
VERTEX
  8
0
 10
55.1969
 20
62.8382
 30
0.0
 40
0
 41
0
  0
VERTEX
  8
0
 10
55.1642
 20
62.8308
 30
0.0
 40
0
 41
0
  0
VERTEX
  8
0
 10
55.1335
 20
62.8219
 30
0.0
 40
0
 41
0
  0
VERTEX
  8
0
 10
55.1049
 20
62.8114
 30
0.0
 40
0
 41
0
  0
VERTEX
  8
0
 10
55.0785
 20
62.7992
 30
0.0
 40
0
 41
0
  0
VERTEX
  8
0
 10
55.054
 20
62.7853
 30
0.0
 40
0
 41
0
  0
VERTEX
  8
0
 10
55.0318
 20
62.7699
 30
0.0
 40
0
 41
0
  0
VERTEX
  8
0
 10
55.0118
 20
62.7531
 30
0.0
 40
0
 41
0
  0
VERTEX
  8
0
 10
54.9938
 20
62.7343
 30
0.0
 40
0
 41
0
  0
VERTEX
  8
0
 10
54.9779
 20
62.7138
 30
0.0
 40
0
 41
0
  0
VERTEX
  8
0
 10
54.9642
 20
62.6915
 30
0.0
 40
0
 41
0
  0
VERTEX
  8
0
 10
54.9525
 20
62.6674
 30
0.0
 40
0
 41
0
  0
VERTEX
  8
0
 10
54.9431
 20
62.6414
 30
0.0
 40
0
 41
0
  0
VERTEX
  8
0
 10
54.9356
 20
62.6135
 30
0.0
 40
0
 41
0
  0
VERTEX
  8
0
 10
54.9303
 20
62.5839
 30
0.0
 40
0
 41
0
  0
VERTEX
  8
0
 10
54.9271
 20
62.5525
 30
0.0
 40
0
 41
0
  0
VERTEX
  8
0
 10
54.9261
 20
62.5192
 30
0.0
 40
0
 41
0
  0
VERTEX
  8
0
 10
54.9265
 20
62.4946
 30
0.0
 40
0
 41
0
  0
VERTEX
  8
0
 10
54.9278
 20
62.4707
 30
0.0
 40
0
 41
0
  0
VERTEX
  8
0
 10
54.9299
 20
62.4476
 30
0.0
 40
0
 41
0
  0
VERTEX
  8
0
 10
54.9328
 20
62.4254
 30
0.0
 40
0
 41
0
  0
VERTEX
  8
0
 10
54.9367
 20
62.404
 30
0.0
 40
0
 41
0
  0
VERTEX
  8
0
 10
54.9413
 20
62.3835
 30
0.0
 40
0
 41
0
  0
VERTEX
  8
0
 10
54.9468
 20
62.3637
 30
0.0
 40
0
 41
0
  0
VERTEX
  8
0
 10
54.9532
 20
62.3447
 30
0.0
 40
0
 41
0
  0
VERTEX
  8
0
 10
54.9604
 20
62.3265
 30
0.0
 40
0
 41
0
  0
VERTEX
  8
0
 10
54.9683
 20
62.3093
 30
0.0
 40
0
 41
0
  0
VERTEX
  8
0
 10
54.9772
 20
62.2926
 30
0.0
 40
0
 41
0
  0
VERTEX
  8
0
 10
54.9869
 20
62.2767
 30
0.0
 40
0
 41
0
  0
VERTEX
  8
0
 10
54.9975
 20
62.2614
 30
0.0
 40
0
 41
0
  0
VERTEX
  8
0
 10
55.0087
 20
62.2468
 30
0.0
 40
0
 41
0
  0
VERTEX
  8
0
 10
55.0208
 20
62.2328
 30
0.0
 40
0
 41
0
  0
VERTEX
  8
0
 10
55.0339
 20
62.2194
 30
0.0
 40
0
 41
0
  0
VERTEX
  8
0
 10
55.0476
 20
62.2067
 30
0.0
 40
0
 41
0
  0
VERTEX
  8
0
 10
55.0621
 20
62.1947
 30
0.0
 40
0
 41
0
  0
VERTEX
  8
0
 10
55.0775
 20
62.1832
 30
0.0
 40
0
 41
0
  0
VERTEX
  8
0
 10
55.0938
 20
62.1725
 30
0.0
 40
0
 41
0
  0
VERTEX
  8
0
 10
55.1107
 20
62.1626
 30
0.0
 40
0
 41
0
  0
VERTEX
  8
0
 10
55.1285
 20
62.1535
 30
0.0
 40
0
 41
0
  0
VERTEX
  8
0
 10
55.1469
 20
62.1447
 30
0.0
 40
0
 41
0
  0
VERTEX
  8
0
 10
55.1661
 20
62.1365
 30
0.0
 40
0
 41
0
  0
VERTEX
  8
0
 10
55.1861
 20
62.129
 30
0.0
 40
0
 41
0
  0
VERTEX
  8
0
 10
55.2068
 20
62.1219
 30
0.0
 40
0
 41
0
  0
VERTEX
  8
0
 10
55.2283
 20
62.1154
 30
0.0
 40
0
 41
0
  0
VERTEX
  8
0
 10
55.2506
 20
62.1094
 30
0.0
 40
0
 41
0
  0
VERTEX
  8
0
 10
55.2735
 20
62.1042
 30
0.0
 40
0
 41
0
  0
VERTEX
  8
0
 10
55.2972
 20
62.0993
 30
0.0
 40
0
 41
0
  0
VERTEX
  8
0
 10
55.3217
 20
62.0953
 30
0.0
 40
0
 41
0
  0
VERTEX
  8
0
 10
55.3468
 20
62.0917
 30
0.0
 40
0
 41
0
  0
VERTEX
  8
0
 10
55.3726
 20
62.0885
 30
0.0
 40
0
 41
0
  0
VERTEX
  8
0
 10
55.3993
 20
62.0857
 30
0.0
 40
0
 41
0
  0
VERTEX
  8
0
 10
55.4265
 20
62.0835
 30
0.0
 40
0
 41
0
  0
VERTEX
  8
0
 10
55.4546
 20
62.0815
 30
0.0
 40
0
 41
0
  0
VERTEX
  8
0
 10
55.4833
 20
62.08
 30
0.0
 40
0
 41
0
  0
VERTEX
  8
0
 10
55.5128
 20
62.079
 30
0.0
 40
0
 41
0
  0
VERTEX
  8
0
 10
55.5429
 20
62.0783
 30
0.0
 40
0
 41
0
  0
VERTEX
  8
0
 10
55.5739
 20
62.0781
 30
0.0
 40
0
 41
0
  0
VERTEX
  8
0
 10
56.5
 20
62.0781
 30
0.0
 40
0
 41
0
  0
VERTEX
  8
0
 10
56.5
 20
61.7819
 30
0.0
 40
0
 41
0
  0
VERTEX
  8
0
 10
54.7129
 20
61.7819
 30
0.0
 40
0
 41
0
  0
VERTEX
  8
0
 10
54.7129
 20
62.0228
 30
0.0
 40
0
 41
0
  0
VERTEX
  8
0
 10
54.9537
 20
62.0651
 30
0.0
 40
0
 41
0
  0
VERTEX
  8
0
 10
54.9537
 20
62.0814
 30
0.0
 40
0
 41
0
  0
VERTEX
  8
0
 10
54.94
 20
62.0893
 30
0.0
 40
0
 41
0
  0
VERTEX
  8
0
 10
54.9265
 20
62.0976
 30
0.0
 40
0
 41
0
  0
VERTEX
  8
0
 10
54.9135
 20
62.1061
 30
0.0
 40
0
 41
0
  0
VERTEX
  8
0
 10
54.9008
 20
62.115
 30
0.0
 40
0
 41
0
  0
VERTEX
  8
0
 10
54.8886
 20
62.1242
 30
0.0
 40
0
 41
0
  0
VERTEX
  8
0
 10
54.8768
 20
62.1335
 30
0.0
 40
0
 41
0
  0
VERTEX
  8
0
 10
54.8653
 20
62.1432
 30
0.0
 40
0
 41
0
  0
VERTEX
  8
0
 10
54.8543
 20
62.1532
 30
0.0
 40
0
 41
0
  0
VERTEX
  8
0
 10
54.8436
 20
62.1636
 30
0.0
 40
0
 41
0
  0
VERTEX
  8
0
 10
54.8333
 20
62.1742
 30
0.0
 40
0
 41
0
  0
VERTEX
  8
0
 10
54.8231
 20
62.185
 30
0.0
 40
0
 41
0
  0
VERTEX
  8
0
 10
54.8132
 20
62.196
 30
0.0
 40
0
 41
0
  0
VERTEX
  8
0
 10
54.8036
 20
62.2072
 30
0.0
 40
0
 41
0
  0
VERTEX
  8
0
 10
54.7944
 20
62.2186
 30
0.0
 40
0
 41
0
  0
VERTEX
  8
0
 10
54.7857
 20
62.2303
 30
0.0
 40
0
 41
0
  0
VERTEX
  8
0
 10
54.7772
 20
62.2421
 30
0.0
 40
0
 41
0
  0
VERTEX
  8
0
 10
54.7692
 20
62.2542
 30
0.0
 40
0
 41
0
  0
VERTEX
  8
0
 10
54.7614
 20
62.2664
 30
0.0
 40
0
 41
0
  0
VERTEX
  8
0
 10
54.754
 20
62.2787
 30
0.0
 40
0
 41
0
  0
VERTEX
  8
0
 10
54.7471
 20
62.2914
 30
0.0
 40
0
 41
0
  0
VERTEX
  8
0
 10
54.7404
 20
62.3044
 30
0.0
 40
0
 41
0
  0
VERTEX
  8
0
 10
54.734
 20
62.3176
 30
0.0
 40
0
 41
0
  0
VERTEX
  8
0
 10
54.7282
 20
62.331
 30
0.0
 40
0
 41
0
  0
VERTEX
  8
0
 10
54.7225
 20
62.3444
 30
0.0
 40
0
 41
0
  0
VERTEX
  8
0
 10
54.7174
 20
62.3581
 30
0.0
 40
0
 41
0
  0
VERTEX
  8
0
 10
54.7125
 20
62.3718
 30
0.0
 40
0
 41
0
  0
VERTEX
  8
0
 10
54.7079
 20
62.3857
 30
0.0
 40
0
 41
0
  0
VERTEX
  8
0
 10
54.7037
 20
62.3997
 30
0.0
 40
0
 41
0
  0
VERTEX
  8
0
 10
54.7
 20
62.4138
 30
0.0
 40
0
 41
0
  0
VERTEX
  8
0
 10
54.6965
 20
62.4281
 30
0.0
 40
0
 41
0
  0
VERTEX
  8
0
 10
54.6935
 20
62.4428
 30
0.0
 40
0
 41
0
  0
VERTEX
  8
0
 10
54.6907
 20
62.4574
 30
0.0
 40
0
 41
0
  0
VERTEX
  8
0
 10
54.6883
 20
62.4721
 30
0.0
 40
0
 41
0
  0
VERTEX
  8
0
 10
54.6861
 20
62.4869
 30
0.0
 40
0
 41
0
  0
VERTEX
  8
0
 10
54.6843
 20
62.5017
 30
0.0
 40
0
 41
0
  0
VERTEX
  8
0
 10
54.6829
 20
62.5165
 30
0.0
 40
0
 41
0
  0
VERTEX
  8
0
 10
54.6818
 20
62.5314
 30
0.0
 40
0
 41
0
  0
VERTEX
  8
0
 10
54.681
 20
62.5463
 30
0.0
 40
0
 41
0
  0
VERTEX
  8
0
 10
54.6804
 20
62.5613
 30
0.0
 40
0
 41
0
  0
VERTEX
  8
0
 10
54.6803
 20
62.5761
 30
0.0
 40
0
 41
0
  0
VERTEX
  8
0
 10
54.681
 20
62.6146
 30
0.0
 40
0
 41
0
  0
VERTEX
  8
0
 10
54.6832
 20
62.6517
 30
0.0
 40
0
 41
0
  0
VERTEX
  8
0
 10
54.6868
 20
62.6874
 30
0.0
 40
0
 41
0
  0
VERTEX
  8
0
 10
54.6918
 20
62.7218
 30
0.0
 40
0
 41
0
  0
VERTEX
  8
0
 10
54.6982
 20
62.7549
 30
0.0
 40
0
 41
0
  0
VERTEX
  8
0
 10
54.7061
 20
62.7865
 30
0.0
 40
0
 41
0
  0
VERTEX
  8
0
 10
54.7154
 20
62.8169
 30
0.0
 40
0
 41
0
  0
VERTEX
  8
0
 10
54.7261
 20
62.846
 30
0.0
 40
0
 41
0
  0
VERTEX
  8
0
 10
54.7383
 20
62.8736
 30
0.0
 40
0
 41
0
  0
VERTEX
  8
0
 10
54.7519
 20
62.9
 30
0.0
 40
0
 41
0
  0
VERTEX
  8
0
 10
54.7671
 20
62.9254
 30
0.0
 40
0
 41
0
  0
VERTEX
  8
0
 10
54.7839
 20
62.9494
 30
0.0
 40
0
 41
0
  0
VERTEX
  8
0
 10
54.8022
 20
62.9721
 30
0.0
 40
0
 41
0
  0
VERTEX
  8
0
 10
54.8222
 20
62.9933
 30
0.0
 40
0
 41
0
  0
VERTEX
  8
0
 10
54.8439
 20
63.0132
 30
0.0
 40
0
 41
0
  0
VERTEX
  8
0
 10
54.8672
 20
63.0317
 30
0.0
 40
0
 41
0
  0
VERTEX
  8
0
 10
54.8921
 20
63.0489
 30
0.0
 40
0
 41
0
  0
VERTEX
  8
0
 10
54.9186
 20
63.0646
 30
0.0
 40
0
 41
0
  0
VERTEX
  8
0
 10
54.9468
 20
63.079
 30
0.0
 40
0
 41
0
  0
VERTEX
  8
0
 10
54.9765
 20
63.0921
 30
0.0
 40
0
 41
0
  0
VERTEX
  8
0
 10
54.9765
 20
63.1051
 30
0.0
 40
0
 41
0
  0
VERTEX
  8
0
 10
54.9614
 20
63.1137
 30
0.0
 40
0
 41
0
  0
VERTEX
  8
0
 10
54.9468
 20
63.1228
 30
0.0
 40
0
 41
0
  0
VERTEX
  8
0
 10
54.9325
 20
63.1319
 30
0.0
 40
0
 41
0
  0
VERTEX
  8
0
 10
54.9187
 20
63.1415
 30
0.0
 40
0
 41
0
  0
VERTEX
  8
0
 10
54.9053
 20
63.1515
 30
0.0
 40
0
 41
0
  0
VERTEX
  8
0
 10
54.8924
 20
63.1618
 30
0.0
 40
0
 41
0
  0
VERTEX
  8
0
 10
54.8799
 20
63.1724
 30
0.0
 40
0
 41
0
  0
VERTEX
  8
0
 10
54.8676
 20
63.1832
 30
0.0
 40
0
 41
0
  0
VERTEX
  8
0
 10
54.856
 20
63.1944
 30
0.0
 40
0
 41
0
  0
VERTEX
  8
0
 10
54.8447
 20
63.2061
 30
0.0
 40
0
 41
0
  0
VERTEX
  8
0
 10
54.8339
 20
63.2182
 30
0.0
 40
0
 41
0
  0
VERTEX
  8
0
 10
54.8233
 20
63.2306
 30
0.0
 40
0
 41
0
  0
VERTEX
  8
0
 10
54.8132
 20
63.2431
 30
0.0
 40
0
 41
0
  0
VERTEX
  8
0
 10
54.8036
 20
63.2558
 30
0.0
 40
0
 41
0
  0
VERTEX
  8
0
 10
54.7943
 20
63.2688
 30
0.0
 40
0
 41
0
  0
VERTEX
  8
0
 10
54.7853
 20
63.2818
 30
0.0
 40
0
 41
0
  0
VERTEX
  8
0
 10
54.7768
 20
63.2951
 30
0.0
 40
0
 41
0
  0
VERTEX
  8
0
 10
54.7686
 20
63.3086
 30
0.0
 40
0
 41
0
  0
VERTEX
  8
0
 10
54.761
 20
63.3224
 30
0.0
 40
0
 41
0
  0
VERTEX
  8
0
 10
54.7536
 20
63.3362
 30
0.0
 40
0
 41
0
  0
VERTEX
  8
0
 10
54.7463
 20
63.3507
 30
0.0
 40
0
 41
0
  0
VERTEX
  8
0
 10
54.7393
 20
63.3651
 30
0.0
 40
0
 41
0
  0
VERTEX
  8
0
 10
54.7328
 20
63.3799
 30
0.0
 40
0
 41
0
  0
VERTEX
  8
0
 10
54.7267
 20
63.3946
 30
0.0
 40
0
 41
0
  0
VERTEX
  8
0
 10
54.721
 20
63.4094
 30
0.0
 40
0
 41
0
  0
VERTEX
  8
0
 10
54.7157
 20
63.4246
 30
0.0
 40
0
 41
0
  0
VERTEX
  8
0
 10
54.7107
 20
63.4397
 30
0.0
 40
0
 41
0
  0
VERTEX
  8
0
 10
54.7061
 20
63.455
 30
0.0
 40
0
 41
0
  0
VERTEX
  8
0
 10
54.7019
 20
63.4704
 30
0.0
 40
0
 41
0
  0
VERTEX
  8
0
 10
54.6982
 20
63.486
 30
0.0
 40
0
 41
0
  0
VERTEX
  8
0
 10
54.6949
 20
63.5017
 30
0.0
 40
0
 41
0
  0
VERTEX
  8
0
 10
54.6918
 20
63.5174
 30
0.0
 40
0
 41
0
  0
VERTEX
  8
0
 10
54.689
 20
63.5332
 30
0.0
 40
0
 41
0
  0
VERTEX
  8
0
 10
54.6868
 20
63.549
 30
0.0
 40
0
 41
0
  0
VERTEX
  8
0
 10
54.6847
 20
63.565
 30
0.0
 40
0
 41
0
  0
VERTEX
  8
0
 10
54.6832
 20
63.581
 30
0.0
 40
0
 41
0
  0
VERTEX
  8
0
 10
54.6819
 20
63.5969
 30
0.0
 40
0
 41
0
  0
VERTEX
  8
0
 10
54.681
 20
63.6131
 30
0.0
 40
0
 41
0
  0
VERTEX
  8
0
 10
54.6804
 20
63.6293
 30
0.0
 40
0
 41
0
  0
VERTEX
  8
0
 10
54.6803
 20
63.6456
 30
0.0
 40
0
 41
0
  0
VERTEX
  8
0
 10
54.6818
 20
63.7011
 30
0.0
 40
0
 41
0
  0
VERTEX
  8
0
 10
54.6865
 20
63.7538
 30
0.0
 40
0
 41
0
  0
VERTEX
  8
0
 10
54.6943
 20
63.8036
 30
0.0
 40
0
 41
0
  0
VERTEX
  8
0
 10
54.7053
 20
63.8507
 30
0.0
 40
0
 41
0
  0
VERTEX
  8
0
 10
54.7193
 20
63.895
 30
0.0
 40
0
 41
0
  0
VERTEX
  8
0
 10
54.7365
 20
63.9364
 30
0.0
 40
0
 41
0
  0
VERTEX
  8
0
 10
54.7568
 20
63.9749
 30
0.0
 40
0
 41
0
  0
VERTEX
  8
0
 10
54.7803
 20
64.0106
 30
0.0
 40
0
 41
0
  0
VERTEX
  8
0
 10
54.8068
 20
64.0435
 30
0.0
 40
0
 41
0
  0
VERTEX
  8
0
 10
54.8365
 20
64.0736
 30
0.0
 40
0
 41
0
  0
VERTEX
  8
0
 10
54.8693
 20
64.1011
 30
0.0
 40
0
 41
0
  0
VERTEX
  8
0
 10
54.9058
 20
64.1257
 30
0.0
 40
0
 41
0
  0
VERTEX
  8
0
 10
54.9461
 20
64.1475
 30
0.0
 40
0
 41
0
  0
VERTEX
  8
0
 10
54.9901
 20
64.1663
 30
0.0
 40
0
 41
0
  0
VERTEX
  8
0
 10
55.0379
 20
64.1822
 30
0.0
 40
0
 41
0
  0
VERTEX
  8
0
 10
55.0894
 20
64.1953
 30
0.0
 40
0
 41
0
  0
VERTEX
  8
0
 10
55.1447
 20
64.2054
 30
0.0
 40
0
 41
0
  0
VERTEX
  8
0
 10
55.2037
 20
64.2126
 30
0.0
 40
0
 41
0
  0
VERTEX
  8
0
 10
55.2665
 20
64.2169
 30
0.0
 40
0
 41
0
  0
VERTEX
  8
0
 10
55.3329
 20
64.2185
 30
0.0
 40
0
 41
0
  0
VERTEX
  8
0
 10
56.5
 20
64.2185
 30
0.0
 40
0
 41
0
  0
VERTEX
  8
0
 10
56.5
 20
63.9222
 30
0.0
 40
0
 41
0
  0
SEQEND
 8
0
  0
POLYLINE
  8
0
 62
     0
 66
     1
 10
0
 20
0
 30
0.0
 70
     1
 40
0
 41
0
  0
VERTEX
  8
0
 10
56.5
 20
66.9089
 30
0.0
 40
0
 41
0
  0
VERTEX
  8
0
 10
55.3493
 20
66.9089
 30
0.0
 40
0
 41
0
  0
VERTEX
  8
0
 10
55.3081
 20
66.9081
 30
0.0
 40
0
 41
0
  0
VERTEX
  8
0
 10
55.2689
 20
66.9056
 30
0.0
 40
0
 41
0
  0
VERTEX
  8
0
 10
55.2318
 20
66.9015
 30
0.0
 40
0
 41
0
  0
VERTEX
  8
0
 10
55.1969
 20
66.8958
 30
0.0
 40
0
 41
0
  0
VERTEX
  8
0
 10
55.1642
 20
66.8885
 30
0.0
 40
0
 41
0
  0
VERTEX
  8
0
 10
55.1335
 20
66.8796
 30
0.0
 40
0
 41
0
  0
VERTEX
  8
0
 10
55.1049
 20
66.869
 30
0.0
 40
0
 41
0
  0
VERTEX
  8
0
 10
55.0785
 20
66.8568
 30
0.0
 40
0
 41
0
  0
VERTEX
  8
0
 10
55.054
 20
66.8429
 30
0.0
 40
0
 41
0
  0
VERTEX
  8
0
 10
55.0318
 20
66.8275
 30
0.0
 40
0
 41
0
  0
VERTEX
  8
0
 10
55.0118
 20
66.8103
 30
0.0
 40
0
 41
0
  0
VERTEX
  8
0
 10
54.9938
 20
66.7914
 30
0.0
 40
0
 41
0
  0
VERTEX
  8
0
 10
54.9779
 20
66.7706
 30
0.0
 40
0
 41
0
  0
VERTEX
  8
0
 10
54.9642
 20
66.7481
 30
0.0
 40
0
 41
0
  0
VERTEX
  8
0
 10
54.9525
 20
66.7237
 30
0.0
 40
0
 41
0
  0
VERTEX
  8
0
 10
54.9431
 20
66.6976
 30
0.0
 40
0
 41
0
  0
VERTEX
  8
0
 10
54.9356
 20
66.6697
 30
0.0
 40
0
 41
0
  0
VERTEX
  8
0
 10
54.9303
 20
66.64
 30
0.0
 40
0
 41
0
  0
VERTEX
  8
0
 10
54.9271
 20
66.6085
 30
0.0
 40
0
 41
0
  0
VERTEX
  8
0
 10
54.9261
 20
66.5751
 30
0.0
 40
0
 41
0
  0
VERTEX
  8
0
 10
54.9265
 20
66.5518
 30
0.0
 40
0
 41
0
  0
VERTEX
  8
0
 10
54.9276
 20
66.529
 30
0.0
 40
0
 41
0
  0
VERTEX
  8
0
 10
54.9296
 20
66.5071
 30
0.0
 40
0
 41
0
  0
VERTEX
  8
0
 10
54.9324
 20
66.4858
 30
0.0
 40
0
 41
0
  0
VERTEX
  8
0
 10
54.9358
 20
66.4653
 30
0.0
 40
0
 41
0
  0
VERTEX
  8
0
 10
54.9401
 20
66.4456
 30
0.0
 40
0
 41
0
  0
VERTEX
  8
0
 10
54.9453
 20
66.4264
 30
0.0
 40
0
 41
0
  0
VERTEX
  8
0
 10
54.9511
 20
66.4081
 30
0.0
 40
0
 41
0
  0
VERTEX
  8
0
 10
54.9578
 20
66.3903
 30
0.0
 40
0
 41
0
  0
VERTEX
  8
0
 10
54.9651
 20
66.3733
 30
0.0
 40
0
 41
0
  0
VERTEX
  8
0
 10
54.9731
 20
66.3571
 30
0.0
 40
0
 41
0
  0
VERTEX
  8
0
 10
54.9817
 20
66.3414
 30
0.0
 40
0
 41
0
  0
VERTEX
  8
0
 10
54.991
 20
66.3263
 30
0.0
 40
0
 41
0
  0
VERTEX
  8
0
 10
55.0011
 20
66.3117
 30
0.0
 40
0
 41
0
  0
VERTEX
  8
0
 10
55.0119
 20
66.2976
 30
0.0
 40
0
 41
0
  0
VERTEX
  8
0
 10
55.0235
 20
66.2843
 30
0.0
 40
0
 41
0
  0
VERTEX
  8
0
 10
55.0358
 20
66.2715
 30
0.0
 40
0
 41
0
  0
VERTEX
  8
0
 10
55.049
 20
66.2593
 30
0.0
 40
0
 41
0
  0
VERTEX
  8
0
 10
55.0628
 20
66.2476
 30
0.0
 40
0
 41
0
  0
VERTEX
  8
0
 10
55.0775
 20
66.2367
 30
0.0
 40
0
 41
0
  0
VERTEX
  8
0
 10
55.0925
 20
66.2265
 30
0.0
 40
0
 41
0
  0
VERTEX
  8
0
 10
55.1082
 20
66.2169
 30
0.0
 40
0
 41
0
  0
VERTEX
  8
0
 10
55.1247
 20
66.2079
 30
0.0
 40
0
 41
0
  0
VERTEX
  8
0
 10
55.1421
 20
66.1994
 30
0.0
 40
0
 41
0
  0
VERTEX
  8
0
 10
55.16
 20
66.1915
 30
0.0
 40
0
 41
0
  0
VERTEX
  8
0
 10
55.1788
 20
66.1842
 30
0.0
 40
0
 41
0
  0
VERTEX
  8
0
 10
55.1983
 20
66.1772
 30
0.0
 40
0
 41
0
  0
VERTEX
  8
0
 10
55.2186
 20
66.171
 30
0.0
 40
0
 41
0
  0
VERTEX
  8
0
 10
55.2396
 20
66.1653
 30
0.0
 40
0
 41
0
  0
VERTEX
  8
0
 10
55.2614
 20
66.1601
 30
0.0
 40
0
 41
0
  0
VERTEX
  8
0
 10
55.2835
 20
66.1556
 30
0.0
 40
0
 41
0
  0
VERTEX
  8
0
 10
55.3064
 20
66.1514
 30
0.0
 40
0
 41
0
  0
VERTEX
  8
0
 10
55.3299
 20
66.1476
 30
0.0
 40
0
 41
0
  0
VERTEX
  8
0
 10
55.354
 20
66.1446
 30
0.0
 40
0
 41
0
  0
VERTEX
  8
0
 10
55.3789
 20
66.1418
 30
0.0
 40
0
 41
0
  0
VERTEX
  8
0
 10
55.4046
 20
66.1396
 30
0.0
 40
0
 41
0
  0
VERTEX
  8
0
 10
55.4308
 20
66.1379
 30
0.0
 40
0
 41
0
  0
VERTEX
  8
0
 10
55.4578
 20
66.1367
 30
0.0
 40
0
 41
0
  0
VERTEX
  8
0
 10
55.4853
 20
66.136
 30
0.0
 40
0
 41
0
  0
VERTEX
  8
0
 10
55.5136
 20
66.1357
 30
0.0
 40
0
 41
0
  0
VERTEX
  8
0
 10
56.5
 20
66.1357
 30
0.0
 40
0
 41
0
  0
VERTEX
  8
0
 10
56.5
 20
65.8379
 30
0.0
 40
0
 41
0
  0
VERTEX
  8
0
 10
55.3493
 20
65.8379
 30
0.0
 40
0
 41
0
  0
VERTEX
  8
0
 10
55.3081
 20
65.8371
 30
0.0
 40
0
 41
0
  0
VERTEX
  8
0
 10
55.2689
 20
65.8346
 30
0.0
 40
0
 41
0
  0
VERTEX
  8
0
 10
55.2318
 20
65.8306
 30
0.0
 40
0
 41
0
  0
VERTEX
  8
0
 10
55.1969
 20
65.8249
 30
0.0
 40
0
 41
0
  0
VERTEX
  8
0
 10
55.1642
 20
65.8175
 30
0.0
 40
0
 41
0
  0
VERTEX
  8
0
 10
55.1335
 20
65.8086
 30
0.0
 40
0
 41
0
  0
VERTEX
  8
0
 10
55.1049
 20
65.7981
 30
0.0
 40
0
 41
0
  0
VERTEX
  8
0
 10
55.0785
 20
65.7858
 30
0.0
 40
0
 41
0
  0
VERTEX
  8
0
 10
55.054
 20
65.7719
 30
0.0
 40
0
 41
0
  0
VERTEX
  8
0
 10
55.0318
 20
65.7565
 30
0.0
 40
0
 41
0
  0
VERTEX
  8
0
 10
55.0118
 20
65.7396
 30
0.0
 40
0
 41
0
  0
VERTEX
  8
0
 10
54.9938
 20
65.721
 30
0.0
 40
0
 41
0
  0
VERTEX
  8
0
 10
54.9779
 20
65.7004
 30
0.0
 40
0
 41
0
  0
VERTEX
  8
0
 10
54.9642
 20
65.6781
 30
0.0
 40
0
 41
0
  0
VERTEX
  8
0
 10
54.9525
 20
65.654
 30
0.0
 40
0
 41
0
  0
VERTEX
  8
0
 10
54.9431
 20
65.6281
 30
0.0
 40
0
 41
0
  0
VERTEX
  8
0
 10
54.9356
 20
65.6001
 30
0.0
 40
0
 41
0
  0
VERTEX
  8
0
 10
54.9303
 20
65.5706
 30
0.0
 40
0
 41
0
  0
VERTEX
  8
0
 10
54.9271
 20
65.5392
 30
0.0
 40
0
 41
0
  0
VERTEX
  8
0
 10
54.9261
 20
65.5058
 30
0.0
 40
0
 41
0
  0
VERTEX
  8
0
 10
54.9265
 20
65.4812
 30
0.0
 40
0
 41
0
  0
VERTEX
  8
0
 10
54.9278
 20
65.4574
 30
0.0
 40
0
 41
0
  0
VERTEX
  8
0
 10
54.9299
 20
65.4343
 30
0.0
 40
0
 41
0
  0
VERTEX
  8
0
 10
54.9328
 20
65.4121
 30
0.0
 40
0
 41
0
  0
VERTEX
  8
0
 10
54.9367
 20
65.3907
 30
0.0
 40
0
 41
0
  0
VERTEX
  8
0
 10
54.9413
 20
65.3701
 30
0.0
 40
0
 41
0
  0
VERTEX
  8
0
 10
54.9468
 20
65.3503
 30
0.0
 40
0
 41
0
  0
VERTEX
  8
0
 10
54.9532
 20
65.3314
 30
0.0
 40
0
 41
0
  0
VERTEX
  8
0
 10
54.9604
 20
65.3132
 30
0.0
 40
0
 41
0
  0
VERTEX
  8
0
 10
54.9683
 20
65.2958
 30
0.0
 40
0
 41
0
  0
VERTEX
  8
0
 10
54.9772
 20
65.2793
 30
0.0
 40
0
 41
0
  0
VERTEX
  8
0
 10
54.9869
 20
65.2633
 30
0.0
 40
0
 41
0
  0
VERTEX
  8
0
 10
54.9975
 20
65.2481
 30
0.0
 40
0
 41
0
  0
VERTEX
  8
0
 10
55.0087
 20
65.2333
 30
0.0
 40
0
 41
0
  0
VERTEX
  8
0
 10
55.0208
 20
65.2194
 30
0.0
 40
0
 41
0
  0
VERTEX
  8
0
 10
55.0339
 20
65.2061
 30
0.0
 40
0
 41
0
  0
VERTEX
  8
0
 10
55.0476
 20
65.1933
 30
0.0
 40
0
 41
0
  0
VERTEX
  8
0
 10
55.0621
 20
65.1812
 30
0.0
 40
0
 41
0
  0
VERTEX
  8
0
 10
55.0775
 20
65.1699
 30
0.0
 40
0
 41
0
  0
VERTEX
  8
0
 10
55.0938
 20
65.1592
 30
0.0
 40
0
 41
0
  0
VERTEX
  8
0
 10
55.1107
 20
65.1493
 30
0.0
 40
0
 41
0
  0
VERTEX
  8
0
 10
55.1285
 20
65.1401
 30
0.0
 40
0
 41
0
  0
VERTEX
  8
0
 10
55.1469
 20
65.1314
 30
0.0
 40
0
 41
0
  0
VERTEX
  8
0
 10
55.1661
 20
65.1232
 30
0.0
 40
0
 41
0
  0
VERTEX
  8
0
 10
55.1861
 20
65.1157
 30
0.0
 40
0
 41
0
  0
VERTEX
  8
0
 10
55.2068
 20
65.1086
 30
0.0
 40
0
 41
0
  0
VERTEX
  8
0
 10
55.2283
 20
65.1021
 30
0.0
 40
0
 41
0
  0
VERTEX
  8
0
 10
55.2506
 20
65.0961
 30
0.0
 40
0
 41
0
  0
VERTEX
  8
0
 10
55.2735
 20
65.0908
 30
0.0
 40
0
 41
0
  0
VERTEX
  8
0
 10
55.2972
 20
65.086
 30
0.0
 40
0
 41
0
  0
VERTEX
  8
0
 10
55.3217
 20
65.0819
 30
0.0
 40
0
 41
0
  0
VERTEX
  8
0
 10
55.3468
 20
65.0783
 30
0.0
 40
0
 41
0
  0
VERTEX
  8
0
 10
55.3726
 20
65.0751
 30
0.0
 40
0
 41
0
  0
VERTEX
  8
0
 10
55.3993
 20
65.0724
 30
0.0
 40
0
 41
0
  0
VERTEX
  8
0
 10
55.4265
 20
65.07
 30
0.0
 40
0
 41
0
  0
VERTEX
  8
0
 10
55.4546
 20
65.0682
 30
0.0
 40
0
 41
0
  0
VERTEX
  8
0
 10
55.4833
 20
65.0667
 30
0.0
 40
0
 41
0
  0
VERTEX
  8
0
 10
55.5128
 20
65.0656
 30
0.0
 40
0
 41
0
  0
VERTEX
  8
0
 10
55.5429
 20
65.065
 30
0.0
 40
0
 41
0
  0
VERTEX
  8
0
 10
55.5739
 20
65.0647
 30
0.0
 40
0
 41
0
  0
VERTEX
  8
0
 10
56.5
 20
65.0647
 30
0.0
 40
0
 41
0
  0
VERTEX
  8
0
 10
56.5
 20
64.7686
 30
0.0
 40
0
 41
0
  0
VERTEX
  8
0
 10
54.7129
 20
64.7686
 30
0.0
 40
0
 41
0
  0
VERTEX
  8
0
 10
54.7129
 20
65.0094
 30
0.0
 40
0
 41
0
  0
VERTEX
  8
0
 10
54.9537
 20
65.0518
 30
0.0
 40
0
 41
0
  0
VERTEX
  8
0
 10
54.9537
 20
65.0681
 30
0.0
 40
0
 41
0
  0
VERTEX
  8
0
 10
54.94
 20
65.076
 30
0.0
 40
0
 41
0
  0
VERTEX
  8
0
 10
54.9265
 20
65.0843
 30
0.0
 40
0
 41
0
  0
VERTEX
  8
0
 10
54.9135
 20
65.0928
 30
0.0
 40
0
 41
0
  0
VERTEX
  8
0
 10
54.9008
 20
65.1017
 30
0.0
 40
0
 41
0
  0
VERTEX
  8
0
 10
54.8886
 20
65.1107
 30
0.0
 40
0
 41
0
  0
VERTEX
  8
0
 10
54.8768
 20
65.1201
 30
0.0
 40
0
 41
0
  0
VERTEX
  8
0
 10
54.8653
 20
65.1299
 30
0.0
 40
0
 41
0
  0
VERTEX
  8
0
 10
54.8543
 20
65.1399
 30
0.0
 40
0
 41
0
  0
VERTEX
  8
0
 10
54.8436
 20
65.1501
 30
0.0
 40
0
 41
0
  0
VERTEX
  8
0
 10
54.8333
 20
65.1608
 30
0.0
 40
0
 41
0
  0
VERTEX
  8
0
 10
54.8231
 20
65.1717
 30
0.0
 40
0
 41
0
  0
VERTEX
  8
0
 10
54.8132
 20
65.1826
 30
0.0
 40
0
 41
0
  0
VERTEX
  8
0
 10
54.8036
 20
65.1939
 30
0.0
 40
0
 41
0
  0
VERTEX
  8
0
 10
54.7944
 20
65.2053
 30
0.0
 40
0
 41
0
  0
VERTEX
  8
0
 10
54.7857
 20
65.2169
 30
0.0
 40
0
 41
0
  0
VERTEX
  8
0
 10
54.7772
 20
65.2288
 30
0.0
 40
0
 41
0
  0
VERTEX
  8
0
 10
54.7692
 20
65.2408
 30
0.0
 40
0
 41
0
  0
VERTEX
  8
0
 10
54.7614
 20
65.2531
 30
0.0
 40
0
 41
0
  0
VERTEX
  8
0
 10
54.754
 20
65.2654
 30
0.0
 40
0
 41
0
  0
VERTEX
  8
0
 10
54.7471
 20
65.2781
 30
0.0
 40
0
 41
0
  0
VERTEX
  8
0
 10
54.7404
 20
65.2911
 30
0.0
 40
0
 41
0
  0
VERTEX
  8
0
 10
54.734
 20
65.3043
 30
0.0
 40
0
 41
0
  0
VERTEX
  8
0
 10
54.7282
 20
65.3176
 30
0.0
 40
0
 41
0
  0
VERTEX
  8
0
 10
54.7225
 20
65.3311
 30
0.0
 40
0
 41
0
  0
VERTEX
  8
0
 10
54.7174
 20
65.3447
 30
0.0
 40
0
 41
0
  0
VERTEX
  8
0
 10
54.7125
 20
65.3585
 30
0.0
 40
0
 41
0
  0
VERTEX
  8
0
 10
54.7079
 20
65.3724
 30
0.0
 40
0
 41
0
  0
VERTEX
  8
0
 10
54.7037
 20
65.3864
 30
0.0
 40
0
 41
0
  0
VERTEX
  8
0
 10
54.7
 20
65.4004
 30
0.0
 40
0
 41
0
  0
VERTEX
  8
0
 10
54.6965
 20
65.4147
 30
0.0
 40
0
 41
0
  0
VERTEX
  8
0
 10
54.6935
 20
65.4293
 30
0.0
 40
0
 41
0
  0
VERTEX
  8
0
 10
54.6907
 20
65.444
 30
0.0
 40
0
 41
0
  0
VERTEX
  8
0
 10
54.6883
 20
65.4587
 30
0.0
 40
0
 41
0
  0
VERTEX
  8
0
 10
54.6861
 20
65.4736
 30
0.0
 40
0
 41
0
  0
VERTEX
  8
0
 10
54.6843
 20
65.4883
 30
0.0
 40
0
 41
0
  0
VERTEX
  8
0
 10
54.6829
 20
65.5032
 30
0.0
 40
0
 41
0
  0
VERTEX
  8
0
 10
54.6818
 20
65.5181
 30
0.0
 40
0
 41
0
  0
VERTEX
  8
0
 10
54.681
 20
65.5329
 30
0.0
 40
0
 41
0
  0
VERTEX
  8
0
 10
54.6804
 20
65.5479
 30
0.0
 40
0
 41
0
  0
VERTEX
  8
0
 10
54.6803
 20
65.5628
 30
0.0
 40
0
 41
0
  0
VERTEX
  8
0
 10
54.681
 20
65.6013
 30
0.0
 40
0
 41
0
  0
VERTEX
  8
0
 10
54.6832
 20
65.6383
 30
0.0
 40
0
 41
0
  0
VERTEX
  8
0
 10
54.6868
 20
65.674
 30
0.0
 40
0
 41
0
  0
VERTEX
  8
0
 10
54.6918
 20
65.7083
 30
0.0
 40
0
 41
0
  0
VERTEX
  8
0
 10
54.6982
 20
65.7414
 30
0.0
 40
0
 41
0
  0
VERTEX
  8
0
 10
54.7061
 20
65.7732
 30
0.0
 40
0
 41
0
  0
VERTEX
  8
0
 10
54.7154
 20
65.8036
 30
0.0
 40
0
 41
0
  0
VERTEX
  8
0
 10
54.7261
 20
65.8326
 30
0.0
 40
0
 41
0
  0
VERTEX
  8
0
 10
54.7383
 20
65.8603
 30
0.0
 40
0
 41
0
  0
VERTEX
  8
0
 10
54.7519
 20
65.8867
 30
0.0
 40
0
 41
0
  0
VERTEX
  8
0
 10
54.7671
 20
65.9121
 30
0.0
 40
0
 41
0
  0
VERTEX
  8
0
 10
54.7839
 20
65.9361
 30
0.0
 40
0
 41
0
  0
VERTEX
  8
0
 10
54.8022
 20
65.9587
 30
0.0
 40
0
 41
0
  0
VERTEX
  8
0
 10
54.8222
 20
65.98
 30
0.0
 40
0
 41
0
  0
VERTEX
  8
0
 10
54.8439
 20
65.9999
 30
0.0
 40
0
 41
0
  0
VERTEX
  8
0
 10
54.8672
 20
66.0183
 30
0.0
 40
0
 41
0
  0
VERTEX
  8
0
 10
54.8921
 20
66.0356
 30
0.0
 40
0
 41
0
  0
VERTEX
  8
0
 10
54.9186
 20
66.0512
 30
0.0
 40
0
 41
0
  0
VERTEX
  8
0
 10
54.9468
 20
66.0657
 30
0.0
 40
0
 41
0
  0
VERTEX
  8
0
 10
54.9765
 20
66.0787
 30
0.0
 40
0
 41
0
  0
VERTEX
  8
0
 10
54.9765
 20
66.0918
 30
0.0
 40
0
 41
0
  0
VERTEX
  8
0
 10
54.9614
 20
66.1004
 30
0.0
 40
0
 41
0
  0
VERTEX
  8
0
 10
54.9468
 20
66.1093
 30
0.0
 40
0
 41
0
  0
VERTEX
  8
0
 10
54.9325
 20
66.1186
 30
0.0
 40
0
 41
0
  0
VERTEX
  8
0
 10
54.9187
 20
66.1282
 30
0.0
 40
0
 41
0
  0
VERTEX
  8
0
 10
54.9053
 20
66.1382
 30
0.0
 40
0
 41
0
  0
VERTEX
  8
0
 10
54.8924
 20
66.1485
 30
0.0
 40
0
 41
0
  0
VERTEX
  8
0
 10
54.8799
 20
66.159
 30
0.0
 40
0
 41
0
  0
VERTEX
  8
0
 10
54.8676
 20
66.1699
 30
0.0
 40
0
 41
0
  0
VERTEX
  8
0
 10
54.856
 20
66.1811
 30
0.0
 40
0
 41
0
  0
VERTEX
  8
0
 10
54.8447
 20
66.1926
 30
0.0
 40
0
 41
0
  0
VERTEX
  8
0
 10
54.8339
 20
66.2049
 30
0.0
 40
0
 41
0
  0
VERTEX
  8
0
 10
54.8233
 20
66.2172
 30
0.0
 40
0
 41
0
  0
VERTEX
  8
0
 10
54.8132
 20
66.2297
 30
0.0
 40
0
 41
0
  0
VERTEX
  8
0
 10
54.8036
 20
66.2425
 30
0.0
 40
0
 41
0
  0
VERTEX
  8
0
 10
54.7943
 20
66.2554
 30
0.0
 40
0
 41
0
  0
VERTEX
  8
0
 10
54.7853
 20
66.2685
 30
0.0
 40
0
 41
0
  0
VERTEX
  8
0
 10
54.7768
 20
66.2818
 30
0.0
 40
0
 41
0
  0
VERTEX
  8
0
 10
54.7686
 20
66.2953
 30
0.0
 40
0
 41
0
  0
VERTEX
  8
0
 10
54.761
 20
66.309
 30
0.0
 40
0
 41
0
  0
VERTEX
  8
0
 10
54.7536
 20
66.3229
 30
0.0
 40
0
 41
0
  0
VERTEX
  8
0
 10
54.7463
 20
66.3374
 30
0.0
 40
0
 41
0
  0
VERTEX
  8
0
 10
54.7393
 20
66.3518
 30
0.0
 40
0
 41
0
  0
VERTEX
  8
0
 10
54.7328
 20
66.3665
 30
0.0
 40
0
 41
0
  0
VERTEX
  8
0
 10
54.7267
 20
66.3813
 30
0.0
 40
0
 41
0
  0
VERTEX
  8
0
 10
54.721
 20
66.3961
 30
0.0
 40
0
 41
0
  0
VERTEX
  8
0
 10
54.7157
 20
66.4112
 30
0.0
 40
0
 41
0
  0
VERTEX
  8
0
 10
54.7107
 20
66.4264
 30
0.0
 40
0
 41
0
  0
VERTEX
  8
0
 10
54.7061
 20
66.4417
 30
0.0
 40
0
 41
0
  0
VERTEX
  8
0
 10
54.7019
 20
66.4571
 30
0.0
 40
0
 41
0
  0
VERTEX
  8
0
 10
54.6982
 20
66.4726
 30
0.0
 40
0
 41
0
  0
VERTEX
  8
0
 10
54.6949
 20
66.4883
 30
0.0
 40
0
 41
0
  0
VERTEX
  8
0
 10
54.6918
 20
66.504
 30
0.0
 40
0
 41
0
  0
VERTEX
  8
0
 10
54.689
 20
66.5199
 30
0.0
 40
0
 41
0
  0
VERTEX
  8
0
 10
54.6868
 20
66.5357
 30
0.0
 40
0
 41
0
  0
VERTEX
  8
0
 10
54.6847
 20
66.5515
 30
0.0
 40
0
 41
0
  0
VERTEX
  8
0
 10
54.6832
 20
66.5676
 30
0.0
 40
0
 41
0
  0
VERTEX
  8
0
 10
54.6819
 20
66.5836
 30
0.0
 40
0
 41
0
  0
VERTEX
  8
0
 10
54.681
 20
66.5997
 30
0.0
 40
0
 41
0
  0
VERTEX
  8
0
 10
54.6804
 20
66.616
 30
0.0
 40
0
 41
0
  0
VERTEX
  8
0
 10
54.6803
 20
66.6322
 30
0.0
 40
0
 41
0
  0
VERTEX
  8
0
 10
54.6818
 20
66.6876
 30
0.0
 40
0
 41
0
  0
VERTEX
  8
0
 10
54.6865
 20
66.7404
 30
0.0
 40
0
 41
0
  0
VERTEX
  8
0
 10
54.6943
 20
66.7903
 30
0.0
 40
0
 41
0
  0
VERTEX
  8
0
 10
54.7053
 20
66.8374
 30
0.0
 40
0
 41
0
  0
VERTEX
  8
0
 10
54.7193
 20
66.8815
 30
0.0
 40
0
 41
0
  0
VERTEX
  8
0
 10
54.7365
 20
66.9229
 30
0.0
 40
0
 41
0
  0
VERTEX
  8
0
 10
54.7568
 20
66.9615
 30
0.0
 40
0
 41
0
  0
VERTEX
  8
0
 10
54.7803
 20
66.9972
 30
0.0
 40
0
 41
0
  0
VERTEX
  8
0
 10
54.8068
 20
67.0301
 30
0.0
 40
0
 41
0
  0
VERTEX
  8
0
 10
54.8365
 20
67.0603
 30
0.0
 40
0
 41
0
  0
VERTEX
  8
0
 10
54.8693
 20
67.0878
 30
0.0
 40
0
 41
0
  0
VERTEX
  8
0
 10
54.9058
 20
67.1124
 30
0.0
 40
0
 41
0
  0
VERTEX
  8
0
 10
54.9461
 20
67.134
 30
0.0
 40
0
 41
0
  0
VERTEX
  8
0
 10
54.9901
 20
67.1529
 30
0.0
 40
0
 41
0
  0
VERTEX
  8
0
 10
55.0379
 20
67.1689
 30
0.0
 40
0
 41
0
  0
VERTEX
  8
0
 10
55.0894
 20
67.1819
 30
0.0
 40
0
 41
0
  0
VERTEX
  8
0
 10
55.1447
 20
67.1921
 30
0.0
 40
0
 41
0
  0
VERTEX
  8
0
 10
55.2037
 20
67.1993
 30
0.0
 40
0
 41
0
  0
VERTEX
  8
0
 10
55.2665
 20
67.2036
 30
0.0
 40
0
 41
0
  0
VERTEX
  8
0
 10
55.3329
 20
67.2051
 30
0.0
 40
0
 41
0
  0
VERTEX
  8
0
 10
56.5
 20
67.2051
 30
0.0
 40
0
 41
0
  0
VERTEX
  8
0
 10
56.5
 20
66.9089
 30
0.0
 40
0
 41
0
  0
SEQEND
 8
0
  0
POLYLINE
  8
0
 62
     0
 66
     1
 10
0
 20
0
 30
0.0
 70
     1
 40
0
 41
0
  0
VERTEX
  8
0
 10
71.4196
 20
32.865
 30
0.0
 40
0
 41
0
  0
VERTEX
  8
0
 10
71.42
 20
32.8971
 30
0.0
 40
0
 41
0
  0
VERTEX
  8
0
 10
71.4214
 20
32.9286
 30
0.0
 40
0
 41
0
  0
VERTEX
  8
0
 10
71.4236
 20
32.9597
 30
0.0
 40
0
 41
0
  0
VERTEX
  8
0
 10
71.4268
 20
32.9903
 30
0.0
 40
0
 41
0
  0
VERTEX
  8
0
 10
71.431
 20
33.0204
 30
0.0
 40
0
 41
0
  0
VERTEX
  8
0
 10
71.436
 20
33.0501
 30
0.0
 40
0
 41
0
  0
VERTEX
  8
0
 10
71.4419
 20
33.0794
 30
0.0
 40
0
 41
0
  0
VERTEX
  8
0
 10
71.4488
 20
33.1082
 30
0.0
 40
0
 41
0
  0
VERTEX
  8
0
 10
71.4565
 20
33.1367
 30
0.0
 40
0
 41
0
  0
VERTEX
  8
0
 10
71.4651
 20
33.1644
 30
0.0
 40
0
 41
0
  0
VERTEX
  8
0
 10
71.4743
 20
33.1921
 30
0.0
 40
0
 41
0
  0
VERTEX
  8
0
 10
71.4844
 20
33.219
 30
0.0
 40
0
 41
0
  0
VERTEX
  8
0
 10
71.4954
 20
33.2451
 30
0.0
 40
0
 41
0
  0
VERTEX
  8
0
 10
71.5074
 20
33.2706
 30
0.0
 40
0
 41
0
  0
VERTEX
  8
0
 10
71.52
 20
33.2951
 30
0.0
 40
0
 41
0
  0
VERTEX
  8
0
 10
71.5338
 20
33.319
 30
0.0
 40
0
 41
0
  0
VERTEX
  8
0
 10
71.5482
 20
33.3421
 30
0.0
 40
0
 41
0
  0
VERTEX
  8
0
 10
71.5636
 20
33.3644
 30
0.0
 40
0
 41
0
  0
VERTEX
  8
0
 10
71.5799
 20
33.3861
 30
0.0
 40
0
 41
0
  0
VERTEX
  8
0
 10
71.5969
 20
33.4071
 30
0.0
 40
0
 41
0
  0
VERTEX
  8
0
 10
71.615
 20
33.4274
 30
0.0
 40
0
 41
0
  0
VERTEX
  8
0
 10
71.6339
 20
33.4468
 30
0.0
 40
0
 41
0
  0
VERTEX
  8
0
 10
71.6535
 20
33.4654
 30
0.0
 40
0
 41
0
  0
VERTEX
  8
0
 10
71.674
 20
33.4831
 30
0.0
 40
0
 41
0
  0
VERTEX
  8
0
 10
71.6954
 20
33.4999
 30
0.0
 40
0
 41
0
  0
VERTEX
  8
0
 10
71.7176
 20
33.5156
 30
0.0
 40
0
 41
0
  0
VERTEX
  8
0
 10
71.7407
 20
33.5306
 30
0.0
 40
0
 41
0
  0
VERTEX
  8
0
 10
71.7647
 20
33.5446
 30
0.0
 40
0
 41
0
  0
VERTEX
  8
0
 10
71.7894
 20
33.5576
 30
0.0
 40
0
 41
0
  0
VERTEX
  8
0
 10
71.8151
 20
33.5697
 30
0.0
 40
0
 41
0
  0
VERTEX
  8
0
 10
71.8415
 20
33.581
 30
0.0
 40
0
 41
0
  0
VERTEX
  8
0
 10
71.8687
 20
33.5908
 30
0.0
 40
0
 41
0
  0
VERTEX
  8
0
 10
71.8968
 20
33.5997
 30
0.0
 40
0
 41
0
  0
VERTEX
  8
0
 10
71.9257
 20
33.6072
 30
0.0
 40
0
 41
0
  0
VERTEX
  8
0
 10
71.9554
 20
33.6137
 30
0.0
 40
0
 41
0
  0
VERTEX
  8
0
 10
71.986
 20
33.619
 30
0.0
 40
0
 41
0
  0
VERTEX
  8
0
 10
72.0174
 20
33.6231
 30
0.0
 40
0
 41
0
  0
VERTEX
  8
0
 10
72.0494
 20
33.626
 30
0.0
 40
0
 41
0
  0
VERTEX
  8
0
 10
72.0824
 20
33.6278
 30
0.0
 40
0
 41
0
  0
VERTEX
  8
0
 10
72.1161
 20
33.6283
 30
0.0
 40
0
 41
0
  0
VERTEX
  8
0
 10
72.1529
 20
33.6278
 30
0.0
 40
0
 41
0
  0
VERTEX
  8
0
 10
72.1889
 20
33.6261
 30
0.0
 40
0
 41
0
  0
VERTEX
  8
0
 10
72.2242
 20
33.6233
 30
0.0
 40
0
 41
0
  0
VERTEX
  8
0
 10
72.2586
 20
33.6196
 30
0.0
 40
0
 41
0
  0
VERTEX
  8
0
 10
72.2924
 20
33.6146
 30
0.0
 40
0
 41
0
  0
VERTEX
  8
0
 10
72.3254
 20
33.6085
 30
0.0
 40
0
 41
0
  0
VERTEX
  8
0
 10
72.3576
 20
33.6013
 30
0.0
 40
0
 41
0
  0
VERTEX
  8
0
 10
72.389
 20
33.5929
 30
0.0
 40
0
 41
0
  0
VERTEX
  8
0
 10
72.4199
 20
33.5836
 30
0.0
 40
0
 41
0
  0
VERTEX
  8
0
 10
72.4499
 20
33.5731
 30
0.0
 40
0
 41
0
  0
VERTEX
  8
0
 10
72.479
 20
33.5614
 30
0.0
 40
0
 41
0
  0
VERTEX
  8
0
 10
72.5072
 20
33.5488
 30
0.0
 40
0
 41
0
  0
VERTEX
  8
0
 10
72.5346
 20
33.535
 30
0.0
 40
0
 41
0
  0
VERTEX
  8
0
 10
72.561
 20
33.5201
 30
0.0
 40
0
 41
0
  0
VERTEX
  8
0
 10
72.5865
 20
33.5043
 30
0.0
 40
0
 41
0
  0
VERTEX
  8
0
 10
72.6111
 20
33.4874
 30
0.0
 40
0
 41
0
  0
VERTEX
  8
0
 10
72.6349
 20
33.4693
 30
0.0
 40
0
 41
0
  0
VERTEX
  8
0
 10
72.6576
 20
33.4501
 30
0.0
 40
0
 41
0
  0
VERTEX
  8
0
 10
72.6796
 20
33.4299
 30
0.0
 40
0
 41
0
  0
VERTEX
  8
0
 10
72.7006
 20
33.4086
 30
0.0
 40
0
 41
0
  0
VERTEX
  8
0
 10
72.7206
 20
33.3864
 30
0.0
 40
0
 41
0
  0
VERTEX
  8
0
 10
72.7396
 20
33.3629
 30
0.0
 40
0
 41
0
  0
VERTEX
  8
0
 10
72.7578
 20
33.3385
 30
0.0
 40
0
 41
0
  0
VERTEX
  8
0
 10
72.775
 20
33.3131
 30
0.0
 40
0
 41
0
  0
VERTEX
  8
0
 10
72.7913
 20
33.2865
 30
0.0
 40
0
 41
0
  0
VERTEX
  8
0
 10
72.8065
 20
33.259
 30
0.0
 40
0
 41
0
  0
VERTEX
  8
0
 10
72.821
 20
33.2304
 30
0.0
 40
0
 41
0
  0
VERTEX
  8
0
 10
72.8343
 20
33.2008
 30
0.0
 40
0
 41
0
  0
VERTEX
  8
0
 10
72.8468
 20
33.1701
 30
0.0
 40
0
 41
0
  0
VERTEX
  8
0
 10
72.8583
 20
33.1385
 30
0.0
 40
0
 41
0
  0
VERTEX
  8
0
 10
72.8686
 20
33.1061
 30
0.0
 40
0
 41
0
  0
VERTEX
  8
0
 10
72.8776
 20
33.0728
 30
0.0
 40
0
 41
0
  0
VERTEX
  8
0
 10
72.8857
 20
33.0383
 30
0.0
 40
0
 41
0
  0
VERTEX
  8
0
 10
72.8928
 20
33.0031
 30
0.0
 40
0
 41
0
  0
VERTEX
  8
0
 10
72.8986
 20
32.9668
 30
0.0
 40
0
 41
0
  0
VERTEX
  8
0
 10
72.9035
 20
32.9294
 30
0.0
 40
0
 41
0
  0
VERTEX
  8
0
 10
72.9072
 20
32.8912
 30
0.0
 40
0
 41
0
  0
VERTEX
  8
0
 10
72.9099
 20
32.8519
 30
0.0
 40
0
 41
0
  0
VERTEX
  8
0
 10
72.9115
 20
32.8118
 30
0.0
 40
0
 41
0
  0
VERTEX
  8
0
 10
72.9121
 20
32.7707
 30
0.0
 40
0
 41
0
  0
VERTEX
  8
0
 10
72.9119
 20
32.754
 30
0.0
 40
0
 41
0
  0
VERTEX
  8
0
 10
72.9118
 20
32.7375
 30
0.0
 40
0
 41
0
  0
VERTEX
  8
0
 10
72.9114
 20
32.721
 30
0.0
 40
0
 41
0
  0
VERTEX
  8
0
 10
72.9108
 20
32.7044
 30
0.0
 40
0
 41
0
  0
VERTEX
  8
0
 10
72.9092
 20
32.6717
 30
0.0
 40
0
 41
0
  0
VERTEX
  8
0
 10
72.9081
 20
32.6553
 30
0.0
 40
0
 41
0
  0
VERTEX
  8
0
 10
72.9068
 20
32.6389
 30
0.0
 40
0
 41
0
  0
VERTEX
  8
0
 10
72.9054
 20
32.6225
 30
0.0
 40
0
 41
0
  0
VERTEX
  8
0
 10
72.9039
 20
32.6062
 30
0.0
 40
0
 41
0
  0
VERTEX
  8
0
 10
72.9022
 20
32.5903
 30
0.0
 40
0
 41
0
  0
VERTEX
  8
0
 10
72.9004
 20
32.5746
 30
0.0
 40
0
 41
0
  0
VERTEX
  8
0
 10
72.8983
 20
32.5589
 30
0.0
 40
0
 41
0
  0
VERTEX
  8
0
 10
72.8961
 20
32.5432
 30
0.0
 40
0
 41
0
  0
VERTEX
  8
0
 10
72.8938
 20
32.5278
 30
0.0
 40
0
 41
0
  0
VERTEX
  8
0
 10
72.8912
 20
32.5124
 30
0.0
 40
0
 41
0
  0
VERTEX
  8
0
 10
72.8886
 20
32.4969
 30
0.0
 40
0
 41
0
  0
VERTEX
  8
0
 10
72.8857
 20
32.4818
 30
0.0
 40
0
 41
0
  0
VERTEX
  8
0
 10
72.8826
 20
32.4667
 30
0.0
 40
0
 41
0
  0
VERTEX
  8
0
 10
72.8796
 20
32.4517
 30
0.0
 40
0
 41
0
  0
VERTEX
  8
0
 10
72.8765
 20
32.4371
 30
0.0
 40
0
 41
0
  0
VERTEX
  8
0
 10
72.8733
 20
32.4226
 30
0.0
 40
0
 41
0
  0
VERTEX
  8
0
 10
72.8699
 20
32.4082
 30
0.0
 40
0
 41
0
  0
VERTEX
  8
0
 10
72.8663
 20
32.394
 30
0.0
 40
0
 41
0
  0
VERTEX
  8
0
 10
72.8625
 20
32.38
 30
0.0
 40
0
 41
0
  0
VERTEX
  8
0
 10
72.8585
 20
32.3661
 30
0.0
 40
0
 41
0
  0
VERTEX
  8
0
 10
72.8542
 20
32.3522
 30
0.0
 40
0
 41
0
  0
VERTEX
  8
0
 10
72.8499
 20
32.3386
 30
0.0
 40
0
 41
0
  0
VERTEX
  8
0
 10
72.8453
 20
32.325
 30
0.0
 40
0
 41
0
  0
VERTEX
  8
0
 10
72.8404
 20
32.3117
 30
0.0
 40
0
 41
0
  0
VERTEX
  8
0
 10
72.8356
 20
32.2985
 30
0.0
 40
0
 41
0
  0
VERTEX
  8
0
 10
72.8304
 20
32.2854
 30
0.0
 40
0
 41
0
  0
VERTEX
  8
0
 10
72.8251
 20
32.2728
 30
0.0
 40
0
 41
0
  0
VERTEX
  8
0
 10
72.8196
 20
32.2603
 30
0.0
 40
0
 41
0
  0
VERTEX
  8
0
 10
72.814
 20
32.2482
 30
0.0
 40
0
 41
0
  0
VERTEX
  8
0
 10
72.8082
 20
32.2363
 30
0.0
 40
0
 41
0
  0
VERTEX
  8
0
 10
72.8024
 20
32.2246
 30
0.0
 40
0
 41
0
  0
VERTEX
  8
0
 10
72.7963
 20
32.2132
 30
0.0
 40
0
 41
0
  0
VERTEX
  8
0
 10
72.7899
 20
32.2021
 30
0.0
 40
0
 41
0
  0
VERTEX
  8
0
 10
72.7835
 20
32.1913
 30
0.0
 40
0
 41
0
  0
VERTEX
  8
0
 10
72.5036
 20
32.1913
 30
0.0
 40
0
 41
0
  0
VERTEX
  8
0
 10
72.511
 20
32.2021
 30
0.0
 40
0
 41
0
  0
VERTEX
  8
0
 10
72.5182
 20
32.2135
 30
0.0
 40
0
 41
0
  0
VERTEX
  8
0
 10
72.5253
 20
32.225
 30
0.0
 40
0
 41
0
  0
VERTEX
  8
0
 10
72.5322
 20
32.2371
 30
0.0
 40
0
 41
0
  0
VERTEX
  8
0
 10
72.5389
 20
32.2494
 30
0.0
 40
0
 41
0
  0
VERTEX
  8
0
 10
72.5456
 20
32.2621
 30
0.0
 40
0
 41
0
  0
VERTEX
  8
0
 10
72.5519
 20
32.2751
 30
0.0
 40
0
 41
0
  0
VERTEX
  8
0
 10
72.5582
 20
32.2886
 30
0.0
 40
0
 41
0
  0
VERTEX
  8
0
 10
72.5643
 20
32.3024
 30
0.0
 40
0
 41
0
  0
VERTEX
  8
0
 10
72.5703
 20
32.3165
 30
0.0
 40
0
 41
0
  0
VERTEX
  8
0
 10
72.576
 20
32.3313
 30
0.0
 40
0
 41
0
  0
VERTEX
  8
0
 10
72.5817
 20
32.3461
 30
0.0
 40
0
 41
0
  0
VERTEX
  8
0
 10
72.5869
 20
32.3611
 30
0.0
 40
0
 41
0
  0
VERTEX
  8
0
 10
72.5922
 20
32.3761
 30
0.0
 40
0
 41
0
  0
VERTEX
  8
0
 10
72.5971
 20
32.3914
 30
0.0
 40
0
 41
0
  0
VERTEX
  8
0
 10
72.6019
 20
32.4068
 30
0.0
 40
0
 41
0
  0
VERTEX
  8
0
 10
72.6065
 20
32.4222
 30
0.0
 40
0
 41
0
  0
VERTEX
  8
0
 10
72.611
 20
32.4379
 30
0.0
 40
0
 41
0
  0
VERTEX
  8
0
 10
72.6151
 20
32.4536
 30
0.0
 40
0
 41
0
  0
VERTEX
  8
0
 10
72.6192
 20
32.4696
 30
0.0
 40
0
 41
0
  0
VERTEX
  8
0
 10
72.6229
 20
32.4854
 30
0.0
 40
0
 41
0
  0
VERTEX
  8
0
 10
72.6265
 20
32.5014
 30
0.0
 40
0
 41
0
  0
VERTEX
  8
0
 10
72.6301
 20
32.5174
 30
0.0
 40
0
 41
0
  0
VERTEX
  8
0
 10
72.6335
 20
32.5333
 30
0.0
 40
0
 41
0
  0
VERTEX
  8
0
 10
72.6367
 20
32.5493
 30
0.0
 40
0
 41
0
  0
VERTEX
  8
0
 10
72.6396
 20
32.5653
 30
0.0
 40
0
 41
0
  0
VERTEX
  8
0
 10
72.6425
 20
32.5811
 30
0.0
 40
0
 41
0
  0
VERTEX
  8
0
 10
72.6451
 20
32.5971
 30
0.0
 40
0
 41
0
  0
VERTEX
  8
0
 10
72.6476
 20
32.6131
 30
0.0
 40
0
 41
0
  0
VERTEX
  8
0
 10
72.65
 20
32.629
 30
0.0
 40
0
 41
0
  0
VERTEX
  8
0
 10
72.6519
 20
32.6451
 30
0.0
 40
0
 41
0
  0
VERTEX
  8
0
 10
72.6536
 20
32.6611
 30
0.0
 40
0
 41
0
  0
VERTEX
  8
0
 10
72.655
 20
32.6767
 30
0.0
 40
0
 41
0
  0
VERTEX
  8
0
 10
72.6563
 20
32.6921
 30
0.0
 40
0
 41
0
  0
VERTEX
  8
0
 10
72.6574
 20
32.7072
 30
0.0
 40
0
 41
0
  0
VERTEX
  8
0
 10
72.6582
 20
32.7219
 30
0.0
 40
0
 41
0
  0
VERTEX
  8
0
 10
72.6589
 20
32.7365
 30
0.0
 40
0
 41
0
  0
VERTEX
  8
0
 10
72.6594
 20
32.751
 30
0.0
 40
0
 41
0
  0
VERTEX
  8
0
 10
72.6597
 20
32.765
 30
0.0
 40
0
 41
0
  0
VERTEX
  8
0
 10
72.6599
 20
32.7788
 30
0.0
 40
0
 41
0
  0
VERTEX
  8
0
 10
72.6594
 20
32.8042
 30
0.0
 40
0
 41
0
  0
VERTEX
  8
0
 10
72.6586
 20
32.829
 30
0.0
 40
0
 41
0
  0
VERTEX
  8
0
 10
72.6572
 20
32.8535
 30
0.0
 40
0
 41
0
  0
VERTEX
  8
0
 10
72.6551
 20
32.8772
 30
0.0
 40
0
 41
0
  0
VERTEX
  8
0
 10
72.6525
 20
32.9004
 30
0.0
 40
0
 41
0
  0
VERTEX
  8
0
 10
72.6493
 20
32.9231
 30
0.0
 40
0
 41
0
  0
VERTEX
  8
0
 10
72.6454
 20
32.9453
 30
0.0
 40
0
 41
0
  0
VERTEX
  8
0
 10
72.6411
 20
32.9668
 30
0.0
 40
0
 41
0
  0
VERTEX
  8
0
 10
72.6361
 20
32.9878
 30
0.0
 40
0
 41
0
  0
VERTEX
  8
0
 10
72.6306
 20
33.0082
 30
0.0
 40
0
 41
0
  0
VERTEX
  8
0
 10
72.624
 20
33.0282
 30
0.0
 40
0
 41
0
  0
VERTEX
  8
0
 10
72.6168
 20
33.0474
 30
0.0
 40
0
 41
0
  0
VERTEX
  8
0
 10
72.609
 20
33.066
 30
0.0
 40
0
 41
0
  0
VERTEX
  8
0
 10
72.6006
 20
33.084
 30
0.0
 40
0
 41
0
  0
VERTEX
  8
0
 10
72.5914
 20
33.1014
 30
0.0
 40
0
 41
0
  0
VERTEX
  8
0
 10
72.5817
 20
33.1182
 30
0.0
 40
0
 41
0
  0
VERTEX
  8
0
 10
72.5712
 20
33.1344
 30
0.0
 40
0
 41
0
  0
VERTEX
  8
0
 10
72.5601
 20
33.1499
 30
0.0
 40
0
 41
0
  0
VERTEX
  8
0
 10
72.5485
 20
33.1649
 30
0.0
 40
0
 41
0
  0
VERTEX
  8
0
 10
72.5361
 20
33.1792
 30
0.0
 40
0
 41
0
  0
VERTEX
  8
0
 10
72.5231
 20
33.1928
 30
0.0
 40
0
 41
0
  0
VERTEX
  8
0
 10
72.5094
 20
33.2058
 30
0.0
 40
0
 41
0
  0
VERTEX
  8
0
 10
72.4951
 20
33.2182
 30
0.0
 40
0
 41
0
  0
VERTEX
  8
0
 10
72.4801
 20
33.23
 30
0.0
 40
0
 41
0
  0
VERTEX
  8
0
 10
72.4644
 20
33.241
 30
0.0
 40
0
 41
0
  0
VERTEX
  8
0
 10
72.4482
 20
33.2514
 30
0.0
 40
0
 41
0
  0
VERTEX
  8
0
 10
72.4312
 20
33.2613
 30
0.0
 40
0
 41
0
  0
VERTEX
  8
0
 10
72.4138
 20
33.2703
 30
0.0
 40
0
 41
0
  0
VERTEX
  8
0
 10
72.3954
 20
33.2788
 30
0.0
 40
0
 41
0
  0
VERTEX
  8
0
 10
72.3765
 20
33.2865
 30
0.0
 40
0
 41
0
  0
VERTEX
  8
0
 10
72.3571
 20
33.2937
 30
0.0
 40
0
 41
0
  0
VERTEX
  8
0
 10
72.3368
 20
33.3
 30
0.0
 40
0
 41
0
  0
VERTEX
  8
0
 10
72.3157
 20
33.3057
 30
0.0
 40
0
 41
0
  0
VERTEX
  8
0
 10
72.294
 20
33.3106
 30
0.0
 40
0
 41
0
  0
VERTEX
  8
0
 10
72.2717
 20
33.3147
 30
0.0
 40
0
 41
0
  0
VERTEX
  8
0
 10
72.2485
 20
33.3181
 30
0.0
 40
0
 41
0
  0
VERTEX
  8
0
 10
72.2246
 20
33.3207
 30
0.0
 40
0
 41
0
  0
VERTEX
  8
0
 10
72.2
 20
33.3225
 30
0.0
 40
0
 41
0
  0
VERTEX
  8
0
 10
72.1747
 20
33.3236
 30
0.0
 40
0
 41
0
  0
VERTEX
  8
0
 10
72.1487
 20
33.324
 30
0.0
 40
0
 41
0
  0
VERTEX
  8
0
 10
72.1033
 20
33.3226
 30
0.0
 40
0
 41
0
  0
VERTEX
  8
0
 10
72.06
 20
33.3183
 30
0.0
 40
0
 41
0
  0
VERTEX
  8
0
 10
72.019
 20
33.3111
 30
0.0
 40
0
 41
0
  0
VERTEX
  8
0
 10
71.9803
 20
33.3011
 30
0.0
 40
0
 41
0
  0
VERTEX
  8
0
 10
71.9436
 20
33.2882
 30
0.0
 40
0
 41
0
  0
VERTEX
  8
0
 10
71.9093
 20
33.2725
 30
0.0
 40
0
 41
0
  0
VERTEX
  8
0
 10
71.8771
 20
33.2539
 30
0.0
 40
0
 41
0
  0
VERTEX
  8
0
 10
71.8472
 20
33.2324
 30
0.0
 40
0
 41
0
  0
VERTEX
  8
0
 10
71.8194
 20
33.2081
 30
0.0
 40
0
 41
0
  0
VERTEX
  8
0
 10
71.7939
 20
33.1808
 30
0.0
 40
0
 41
0
  0
VERTEX
  8
0
 10
71.7704
 20
33.1508
 30
0.0
 40
0
 41
0
  0
VERTEX
  8
0
 10
71.7494
 20
33.1183
 30
0.0
 40
0
 41
0
  0
VERTEX
  8
0
 10
71.7308
 20
33.0832
 30
0.0
 40
0
 41
0
  0
VERTEX
  8
0
 10
71.7147
 20
33.0454
 30
0.0
 40
0
 41
0
  0
VERTEX
  8
0
 10
71.7011
 20
33.005
 30
0.0
 40
0
 41
0
  0
VERTEX
  8
0
 10
71.69
 20
32.9621
 30
0.0
 40
0
 41
0
  0
VERTEX
  8
0
 10
71.6814
 20
32.9165
 30
0.0
 40
0
 41
0
  0
VERTEX
  8
0
 10
71.6751
 20
32.8683
 30
0.0
 40
0
 41
0
  0
VERTEX
  8
0
 10
71.6714
 20
32.8175
 30
0.0
 40
0
 41
0
  0
VERTEX
  8
0
 10
71.6703
 20
32.7642
 30
0.0
 40
0
 41
0
  0
VERTEX
  8
0
 10
71.6703
 20
32.7553
 30
0.0
 40
0
 41
0
  0
VERTEX
  8
0
 10
71.6704
 20
32.7462
 30
0.0
 40
0
 41
0
  0
VERTEX
  8
0
 10
71.6707
 20
32.7371
 30
0.0
 40
0
 41
0
  0
VERTEX
  8
0
 10
71.671
 20
32.7276
 30
0.0
 40
0
 41
0
  0
VERTEX
  8
0
 10
71.6714
 20
32.7182
 30
0.0
 40
0
 41
0
  0
VERTEX
  8
0
 10
71.6719
 20
32.7085
 30
0.0
 40
0
 41
0
  0
VERTEX
  8
0
 10
71.6726
 20
32.6986
 30
0.0
 40
0
 41
0
  0
VERTEX
  8
0
 10
71.6733
 20
32.6886
 30
0.0
 40
0
 41
0
  0
VERTEX
  8
0
 10
71.6742
 20
32.6785
 30
0.0
 40
0
 41
0
  0
VERTEX
  8
0
 10
71.6751
 20
32.6681
 30
0.0
 40
0
 41
0
  0
VERTEX
  8
0
 10
71.6765
 20
32.6478
 30
0.0
 40
0
 41
0
  0
VERTEX
  8
0
 10
71.6782
 20
32.6275
 30
0.0
 40
0
 41
0
  0
VERTEX
  8
0
 10
71.6792
 20
32.6172
 30
0.0
 40
0
 41
0
  0
VERTEX
  8
0
 10
71.6801
 20
32.6069
 30
0.0
 40
0
 41
0
  0
VERTEX
  8
0
 10
71.6812
 20
32.5967
 30
0.0
 40
0
 41
0
  0
VERTEX
  8
0
 10
71.6824
 20
32.5864
 30
0.0
 40
0
 41
0
  0
VERTEX
  8
0
 10
71.6849
 20
32.5656
 30
0.0
 40
0
 41
0
  0
VERTEX
  8
0
 10
71.6861
 20
32.5556
 30
0.0
 40
0
 41
0
  0
VERTEX
  8
0
 10
71.6875
 20
32.5456
 30
0.0
 40
0
 41
0
  0
VERTEX
  8
0
 10
71.6889
 20
32.5356
 30
0.0
 40
0
 41
0
  0
VERTEX
  8
0
 10
71.6903
 20
32.5257
 30
0.0
 40
0
 41
0
  0
VERTEX
  8
0
 10
71.6918
 20
32.516
 30
0.0
 40
0
 41
0
  0
VERTEX
  8
0
 10
71.6932
 20
32.5061
 30
0.0
 40
0
 41
0
  0
VERTEX
  8
0
 10
71.6947
 20
32.4965
 30
0.0
 40
0
 41
0
  0
VERTEX
  8
0
 10
71.6964
 20
32.4869
 30
0.0
 40
0
 41
0
  0
VERTEX
  8
0
 10
71.6979
 20
32.4774
 30
0.0
 40
0
 41
0
  0
VERTEX
  8
0
 10
71.6994
 20
32.4679
 30
0.0
 40
0
 41
0
  0
VERTEX
  8
0
 10
71.7008
 20
32.4589
 30
0.0
 40
0
 41
0
  0
VERTEX
  8
0
 10
71.7021
 20
32.4501
 30
0.0
 40
0
 41
0
  0
VERTEX
  8
0
 10
71.7035
 20
32.4415
 30
0.0
 40
0
 41
0
  0
VERTEX
  8
0
 10
71.7047
 20
32.4332
 30
0.0
 40
0
 41
0
  0
VERTEX
  8
0
 10
71.706
 20
32.4251
 30
0.0
 40
0
 41
0
  0
VERTEX
  8
0
 10
71.7074
 20
32.4174
 30
0.0
 40
0
 41
0
  0
VERTEX
  8
0
 10
71.7086
 20
32.4097
 30
0.0
 40
0
 41
0
  0
VERTEX
  8
0
 10
71.7099
 20
32.4022
 30
0.0
 40
0
 41
0
  0
VERTEX
  8
0
 10
71.7112
 20
32.3951
 30
0.0
 40
0
 41
0
  0
VERTEX
  8
0
 10
71.7125
 20
32.3882
 30
0.0
 40
0
 41
0
  0
VERTEX
  8
0
 10
71.6197
 20
32.2417
 30
0.0
 40
0
 41
0
  0
VERTEX
  8
0
 10
70.5
 20
32.3311
 30
0.0
 40
0
 41
0
  0
VERTEX
  8
0
 10
70.5
 20
33.4542
 30
0.0
 40
0
 41
0
  0
VERTEX
  8
0
 10
70.7701
 20
33.4542
 30
0.0
 40
0
 41
0
  0
VERTEX
  8
0
 10
70.7701
 20
32.5883
 30
0.0
 40
0
 41
0
  0
VERTEX
  8
0
 10
71.4521
 20
32.5249
 30
0.0
 40
0
 41
0
  0
VERTEX
  8
0
 10
71.4501
 20
32.5356
 30
0.0
 40
0
 41
0
  0
VERTEX
  8
0
 10
71.4482
 20
32.5469
 30
0.0
 40
0
 41
0
  0
VERTEX
  8
0
 10
71.4461
 20
32.559
 30
0.0
 40
0
 41
0
  0
VERTEX
  8
0
 10
71.444
 20
32.5718
 30
0.0
 40
0
 41
0
  0
VERTEX
  8
0
 10
71.4419
 20
32.5851
 30
0.0
 40
0
 41
0
  0
VERTEX
  8
0
 10
71.4399
 20
32.599
 30
0.0
 40
0
 41
0
  0
VERTEX
  8
0
 10
71.4376
 20
32.6137
 30
0.0
 40
0
 41
0
  0
VERTEX
  8
0
 10
71.4354
 20
32.629
 30
0.0
 40
0
 41
0
  0
VERTEX
  8
0
 10
71.4332
 20
32.645
 30
0.0
 40
0
 41
0
  0
VERTEX
  8
0
 10
71.431
 20
32.6615
 30
0.0
 40
0
 41
0
  0
VERTEX
  8
0
 10
71.4288
 20
32.6792
 30
0.0
 40
0
 41
0
  0
VERTEX
  8
0
 10
71.4268
 20
32.6974
 30
0.0
 40
0
 41
0
  0
VERTEX
  8
0
 10
71.4251
 20
32.7161
 30
0.0
 40
0
 41
0
  0
VERTEX
  8
0
 10
71.4236
 20
32.7356
 30
0.0
 40
0
 41
0
  0
VERTEX
  8
0
 10
71.4224
 20
32.7556
 30
0.0
 40
0
 41
0
  0
VERTEX
  8
0
 10
71.4214
 20
32.7762
 30
0.0
 40
0
 41
0
  0
VERTEX
  8
0
 10
71.4206
 20
32.7975
 30
0.0
 40
0
 41
0
  0
VERTEX
  8
0
 10
71.42
 20
32.8194
 30
0.0
 40
0
 41
0
  0
VERTEX
  8
0
 10
71.4197
 20
32.8419
 30
0.0
 40
0
 41
0
  0
VERTEX
  8
0
 10
71.4196
 20
32.865
 30
0.0
 40
0
 41
0
  0
SEQEND
 8
0
  0
POLYLINE
  8
0
 62
     0
 66
     1
 10
0
 20
0
 30
0.0
 70
     1
 40
0
 41
0
  0
VERTEX
  8
0
 10
73.179
 20
35.1908
 30
0.0
 40
0
 41
0
  0
VERTEX
  8
0
 10
73.4068
 20
35.1908
 30
0.0
 40
0
 41
0
  0
VERTEX
  8
0
 10
73.4068
 20
33.8074
 30
0.0
 40
0
 41
0
  0
VERTEX
  8
0
 10
73.179
 20
33.8074
 30
0.0
 40
0
 41
0
  0
VERTEX
  8
0
 10
73.179
 20
35.1908
 30
0.0
 40
0
 41
0
  0
SEQEND
 8
0
  0
POLYLINE
  8
0
 62
     0
 66
     1
 10
0
 20
0
 30
0.0
 70
     1
 40
0
 41
0
  0
VERTEX
  8
0
 10
71.4196
 20
36.0714
 30
0.0
 40
0
 41
0
  0
VERTEX
  8
0
 10
71.42
 20
36.1035
 30
0.0
 40
0
 41
0
  0
VERTEX
  8
0
 10
71.4214
 20
36.135
 30
0.0
 40
0
 41
0
  0
VERTEX
  8
0
 10
71.4236
 20
36.166
 30
0.0
 40
0
 41
0
  0
VERTEX
  8
0
 10
71.4268
 20
36.1967
 30
0.0
 40
0
 41
0
  0
VERTEX
  8
0
 10
71.431
 20
36.2268
 30
0.0
 40
0
 41
0
  0
VERTEX
  8
0
 10
71.436
 20
36.2565
 30
0.0
 40
0
 41
0
  0
VERTEX
  8
0
 10
71.4419
 20
36.2858
 30
0.0
 40
0
 41
0
  0
VERTEX
  8
0
 10
71.4488
 20
36.3146
 30
0.0
 40
0
 41
0
  0
VERTEX
  8
0
 10
71.4565
 20
36.3431
 30
0.0
 40
0
 41
0
  0
VERTEX
  8
0
 10
71.4651
 20
36.3708
 30
0.0
 40
0
 41
0
  0
VERTEX
  8
0
 10
71.4743
 20
36.3985
 30
0.0
 40
0
 41
0
  0
VERTEX
  8
0
 10
71.4844
 20
36.4254
 30
0.0
 40
0
 41
0
  0
VERTEX
  8
0
 10
71.4954
 20
36.4515
 30
0.0
 40
0
 41
0
  0
VERTEX
  8
0
 10
71.5074
 20
36.4769
 30
0.0
 40
0
 41
0
  0
VERTEX
  8
0
 10
71.52
 20
36.5015
 30
0.0
 40
0
 41
0
  0
VERTEX
  8
0
 10
71.5338
 20
36.5254
 30
0.0
 40
0
 41
0
  0
VERTEX
  8
0
 10
71.5482
 20
36.5485
 30
0.0
 40
0
 41
0
  0
VERTEX
  8
0
 10
71.5636
 20
36.5708
 30
0.0
 40
0
 41
0
  0
VERTEX
  8
0
 10
71.5799
 20
36.5925
 30
0.0
 40
0
 41
0
  0
VERTEX
  8
0
 10
71.5969
 20
36.6135
 30
0.0
 40
0
 41
0
  0
VERTEX
  8
0
 10
71.615
 20
36.6337
 30
0.0
 40
0
 41
0
  0
VERTEX
  8
0
 10
71.6339
 20
36.6532
 30
0.0
 40
0
 41
0
  0
VERTEX
  8
0
 10
71.6535
 20
36.6718
 30
0.0
 40
0
 41
0
  0
VERTEX
  8
0
 10
71.674
 20
36.6894
 30
0.0
 40
0
 41
0
  0
VERTEX
  8
0
 10
71.6954
 20
36.7061
 30
0.0
 40
0
 41
0
  0
VERTEX
  8
0
 10
71.7176
 20
36.7219
 30
0.0
 40
0
 41
0
  0
VERTEX
  8
0
 10
71.7407
 20
36.7369
 30
0.0
 40
0
 41
0
  0
VERTEX
  8
0
 10
71.7647
 20
36.751
 30
0.0
 40
0
 41
0
  0
VERTEX
  8
0
 10
71.7894
 20
36.764
 30
0.0
 40
0
 41
0
  0
VERTEX
  8
0
 10
71.8151
 20
36.7761
 30
0.0
 40
0
 41
0
  0
VERTEX
  8
0
 10
71.8415
 20
36.7874
 30
0.0
 40
0
 41
0
  0
VERTEX
  8
0
 10
71.8687
 20
36.7972
 30
0.0
 40
0
 41
0
  0
VERTEX
  8
0
 10
71.8968
 20
36.8061
 30
0.0
 40
0
 41
0
  0
VERTEX
  8
0
 10
71.9257
 20
36.8136
 30
0.0
 40
0
 41
0
  0
VERTEX
  8
0
 10
71.9554
 20
36.8201
 30
0.0
 40
0
 41
0
  0
VERTEX
  8
0
 10
71.986
 20
36.8254
 30
0.0
 40
0
 41
0
  0
VERTEX
  8
0
 10
72.0174
 20
36.8294
 30
0.0
 40
0
 41
0
  0
VERTEX
  8
0
 10
72.0494
 20
36.8324
 30
0.0
 40
0
 41
0
  0
VERTEX
  8
0
 10
72.0824
 20
36.8342
 30
0.0
 40
0
 41
0
  0
VERTEX
  8
0
 10
72.1161
 20
36.8347
 30
0.0
 40
0
 41
0
  0
VERTEX
  8
0
 10
72.1529
 20
36.8342
 30
0.0
 40
0
 41
0
  0
VERTEX
  8
0
 10
72.1889
 20
36.8325
 30
0.0
 40
0
 41
0
  0
VERTEX
  8
0
 10
72.2242
 20
36.8297
 30
0.0
 40
0
 41
0
  0
VERTEX
  8
0
 10
72.2586
 20
36.826
 30
0.0
 40
0
 41
0
  0
VERTEX
  8
0
 10
72.2924
 20
36.821
 30
0.0
 40
0
 41
0
  0
VERTEX
  8
0
 10
72.3254
 20
36.8149
 30
0.0
 40
0
 41
0
  0
VERTEX
  8
0
 10
72.3576
 20
36.8076
 30
0.0
 40
0
 41
0
  0
VERTEX
  8
0
 10
72.389
 20
36.7993
 30
0.0
 40
0
 41
0
  0
VERTEX
  8
0
 10
72.4199
 20
36.79
 30
0.0
 40
0
 41
0
  0
VERTEX
  8
0
 10
72.4499
 20
36.7794
 30
0.0
 40
0
 41
0
  0
VERTEX
  8
0
 10
72.479
 20
36.7678
 30
0.0
 40
0
 41
0
  0
VERTEX
  8
0
 10
72.5072
 20
36.7551
 30
0.0
 40
0
 41
0
  0
VERTEX
  8
0
 10
72.5346
 20
36.7414
 30
0.0
 40
0
 41
0
  0
VERTEX
  8
0
 10
72.561
 20
36.7265
 30
0.0
 40
0
 41
0
  0
VERTEX
  8
0
 10
72.5865
 20
36.7107
 30
0.0
 40
0
 41
0
  0
VERTEX
  8
0
 10
72.6111
 20
36.6936
 30
0.0
 40
0
 41
0
  0
VERTEX
  8
0
 10
72.6349
 20
36.6757
 30
0.0
 40
0
 41
0
  0
VERTEX
  8
0
 10
72.6576
 20
36.6565
 30
0.0
 40
0
 41
0
  0
VERTEX
  8
0
 10
72.6796
 20
36.6363
 30
0.0
 40
0
 41
0
  0
VERTEX
  8
0
 10
72.7006
 20
36.615
 30
0.0
 40
0
 41
0
  0
VERTEX
  8
0
 10
72.7206
 20
36.5926
 30
0.0
 40
0
 41
0
  0
VERTEX
  8
0
 10
72.7396
 20
36.5693
 30
0.0
 40
0
 41
0
  0
VERTEX
  8
0
 10
72.7578
 20
36.5449
 30
0.0
 40
0
 41
0
  0
VERTEX
  8
0
 10
72.775
 20
36.5194
 30
0.0
 40
0
 41
0
  0
VERTEX
  8
0
 10
72.7913
 20
36.4929
 30
0.0
 40
0
 41
0
  0
VERTEX
  8
0
 10
72.8065
 20
36.4654
 30
0.0
 40
0
 41
0
  0
VERTEX
  8
0
 10
72.821
 20
36.4368
 30
0.0
 40
0
 41
0
  0
VERTEX
  8
0
 10
72.8343
 20
36.4072
 30
0.0
 40
0
 41
0
  0
VERTEX
  8
0
 10
72.8468
 20
36.3765
 30
0.0
 40
0
 41
0
  0
VERTEX
  8
0
 10
72.8583
 20
36.3449
 30
0.0
 40
0
 41
0
  0
VERTEX
  8
0
 10
72.8686
 20
36.3125
 30
0.0
 40
0
 41
0
  0
VERTEX
  8
0
 10
72.8776
 20
36.279
 30
0.0
 40
0
 41
0
  0
VERTEX
  8
0
 10
72.8857
 20
36.2447
 30
0.0
 40
0
 41
0
  0
VERTEX
  8
0
 10
72.8928
 20
36.2094
 30
0.0
 40
0
 41
0
  0
VERTEX
  8
0
 10
72.8986
 20
36.1732
 30
0.0
 40
0
 41
0
  0
VERTEX
  8
0
 10
72.9035
 20
36.1358
 30
0.0
 40
0
 41
0
  0
VERTEX
  8
0
 10
72.9072
 20
36.0976
 30
0.0
 40
0
 41
0
  0
VERTEX
  8
0
 10
72.9099
 20
36.0583
 30
0.0
 40
0
 41
0
  0
VERTEX
  8
0
 10
72.9115
 20
36.0182
 30
0.0
 40
0
 41
0
  0
VERTEX
  8
0
 10
72.9121
 20
35.9769
 30
0.0
 40
0
 41
0
  0
VERTEX
  8
0
 10
72.9119
 20
35.9604
 30
0.0
 40
0
 41
0
  0
VERTEX
  8
0
 10
72.9118
 20
35.9439
 30
0.0
 40
0
 41
0
  0
VERTEX
  8
0
 10
72.9114
 20
35.9274
 30
0.0
 40
0
 41
0
  0
VERTEX
  8
0
 10
72.9108
 20
35.9108
 30
0.0
 40
0
 41
0
  0
VERTEX
  8
0
 10
72.9092
 20
35.8781
 30
0.0
 40
0
 41
0
  0
VERTEX
  8
0
 10
72.9081
 20
35.8617
 30
0.0
 40
0
 41
0
  0
VERTEX
  8
0
 10
72.9068
 20
35.8453
 30
0.0
 40
0
 41
0
  0
VERTEX
  8
0
 10
72.9054
 20
35.8289
 30
0.0
 40
0
 41
0
  0
VERTEX
  8
0
 10
72.9039
 20
35.8126
 30
0.0
 40
0
 41
0
  0
VERTEX
  8
0
 10
72.9022
 20
35.7967
 30
0.0
 40
0
 41
0
  0
VERTEX
  8
0
 10
72.9004
 20
35.781
 30
0.0
 40
0
 41
0
  0
VERTEX
  8
0
 10
72.8983
 20
35.7653
 30
0.0
 40
0
 41
0
  0
VERTEX
  8
0
 10
72.8961
 20
35.7496
 30
0.0
 40
0
 41
0
  0
VERTEX
  8
0
 10
72.8938
 20
35.734
 30
0.0
 40
0
 41
0
  0
VERTEX
  8
0
 10
72.8912
 20
35.7186
 30
0.0
 40
0
 41
0
  0
VERTEX
  8
0
 10
72.8886
 20
35.7033
 30
0.0
 40
0
 41
0
  0
VERTEX
  8
0
 10
72.8857
 20
35.6882
 30
0.0
 40
0
 41
0
  0
VERTEX
  8
0
 10
72.8826
 20
35.6731
 30
0.0
 40
0
 41
0
  0
VERTEX
  8
0
 10
72.8796
 20
35.6581
 30
0.0
 40
0
 41
0
  0
VERTEX
  8
0
 10
72.8765
 20
35.6435
 30
0.0
 40
0
 41
0
  0
VERTEX
  8
0
 10
72.8733
 20
35.629
 30
0.0
 40
0
 41
0
  0
VERTEX
  8
0
 10
72.8699
 20
35.6146
 30
0.0
 40
0
 41
0
  0
VERTEX
  8
0
 10
72.8663
 20
35.6004
 30
0.0
 40
0
 41
0
  0
VERTEX
  8
0
 10
72.8625
 20
35.5864
 30
0.0
 40
0
 41
0
  0
VERTEX
  8
0
 10
72.8585
 20
35.5725
 30
0.0
 40
0
 41
0
  0
VERTEX
  8
0
 10
72.8542
 20
35.5586
 30
0.0
 40
0
 41
0
  0
VERTEX
  8
0
 10
72.8499
 20
35.545
 30
0.0
 40
0
 41
0
  0
VERTEX
  8
0
 10
72.8453
 20
35.5314
 30
0.0
 40
0
 41
0
  0
VERTEX
  8
0
 10
72.8404
 20
35.5181
 30
0.0
 40
0
 41
0
  0
VERTEX
  8
0
 10
72.8356
 20
35.5049
 30
0.0
 40
0
 41
0
  0
VERTEX
  8
0
 10
72.8304
 20
35.4918
 30
0.0
 40
0
 41
0
  0
VERTEX
  8
0
 10
72.8251
 20
35.4792
 30
0.0
 40
0
 41
0
  0
VERTEX
  8
0
 10
72.8196
 20
35.4667
 30
0.0
 40
0
 41
0
  0
VERTEX
  8
0
 10
72.814
 20
35.4546
 30
0.0
 40
0
 41
0
  0
VERTEX
  8
0
 10
72.8082
 20
35.4426
 30
0.0
 40
0
 41
0
  0
VERTEX
  8
0
 10
72.8024
 20
35.431
 30
0.0
 40
0
 41
0
  0
VERTEX
  8
0
 10
72.7963
 20
35.4196
 30
0.0
 40
0
 41
0
  0
VERTEX
  8
0
 10
72.7899
 20
35.4085
 30
0.0
 40
0
 41
0
  0
VERTEX
  8
0
 10
72.7835
 20
35.3976
 30
0.0
 40
0
 41
0
  0
VERTEX
  8
0
 10
72.5036
 20
35.3976
 30
0.0
 40
0
 41
0
  0
VERTEX
  8
0
 10
72.511
 20
35.4085
 30
0.0
 40
0
 41
0
  0
VERTEX
  8
0
 10
72.5182
 20
35.4197
 30
0.0
 40
0
 41
0
  0
VERTEX
  8
0
 10
72.5253
 20
35.4314
 30
0.0
 40
0
 41
0
  0
VERTEX
  8
0
 10
72.5322
 20
35.4435
 30
0.0
 40
0
 41
0
  0
VERTEX
  8
0
 10
72.5389
 20
35.4558
 30
0.0
 40
0
 41
0
  0
VERTEX
  8
0
 10
72.5456
 20
35.4685
 30
0.0
 40
0
 41
0
  0
VERTEX
  8
0
 10
72.5519
 20
35.4815
 30
0.0
 40
0
 41
0
  0
VERTEX
  8
0
 10
72.5582
 20
35.495
 30
0.0
 40
0
 41
0
  0
VERTEX
  8
0
 10
72.5643
 20
35.5087
 30
0.0
 40
0
 41
0
  0
VERTEX
  8
0
 10
72.5703
 20
35.5229
 30
0.0
 40
0
 41
0
  0
VERTEX
  8
0
 10
72.576
 20
35.5376
 30
0.0
 40
0
 41
0
  0
VERTEX
  8
0
 10
72.5817
 20
35.5525
 30
0.0
 40
0
 41
0
  0
VERTEX
  8
0
 10
72.5869
 20
35.5675
 30
0.0
 40
0
 41
0
  0
VERTEX
  8
0
 10
72.5922
 20
35.5825
 30
0.0
 40
0
 41
0
  0
VERTEX
  8
0
 10
72.5971
 20
35.5978
 30
0.0
 40
0
 41
0
  0
VERTEX
  8
0
 10
72.6019
 20
35.6132
 30
0.0
 40
0
 41
0
  0
VERTEX
  8
0
 10
72.6065
 20
35.6286
 30
0.0
 40
0
 41
0
  0
VERTEX
  8
0
 10
72.611
 20
35.6443
 30
0.0
 40
0
 41
0
  0
VERTEX
  8
0
 10
72.6151
 20
35.66
 30
0.0
 40
0
 41
0
  0
VERTEX
  8
0
 10
72.6192
 20
35.676
 30
0.0
 40
0
 41
0
  0
VERTEX
  8
0
 10
72.6229
 20
35.6918
 30
0.0
 40
0
 41
0
  0
VERTEX
  8
0
 10
72.6265
 20
35.7078
 30
0.0
 40
0
 41
0
  0
VERTEX
  8
0
 10
72.6301
 20
35.7238
 30
0.0
 40
0
 41
0
  0
VERTEX
  8
0
 10
72.6335
 20
35.7397
 30
0.0
 40
0
 41
0
  0
VERTEX
  8
0
 10
72.6367
 20
35.7557
 30
0.0
 40
0
 41
0
  0
VERTEX
  8
0
 10
72.6396
 20
35.7717
 30
0.0
 40
0
 41
0
  0
VERTEX
  8
0
 10
72.6425
 20
35.7875
 30
0.0
 40
0
 41
0
  0
VERTEX
  8
0
 10
72.6451
 20
35.8035
 30
0.0
 40
0
 41
0
  0
VERTEX
  8
0
 10
72.6476
 20
35.8194
 30
0.0
 40
0
 41
0
  0
VERTEX
  8
0
 10
72.65
 20
35.8354
 30
0.0
 40
0
 41
0
  0
VERTEX
  8
0
 10
72.6519
 20
35.8515
 30
0.0
 40
0
 41
0
  0
VERTEX
  8
0
 10
72.6536
 20
35.8675
 30
0.0
 40
0
 41
0
  0
VERTEX
  8
0
 10
72.655
 20
35.8831
 30
0.0
 40
0
 41
0
  0
VERTEX
  8
0
 10
72.6563
 20
35.8985
 30
0.0
 40
0
 41
0
  0
VERTEX
  8
0
 10
72.6574
 20
35.9135
 30
0.0
 40
0
 41
0
  0
VERTEX
  8
0
 10
72.6582
 20
35.9283
 30
0.0
 40
0
 41
0
  0
VERTEX
  8
0
 10
72.6589
 20
35.9429
 30
0.0
 40
0
 41
0
  0
VERTEX
  8
0
 10
72.6594
 20
35.9572
 30
0.0
 40
0
 41
0
  0
VERTEX
  8
0
 10
72.6597
 20
35.9714
 30
0.0
 40
0
 41
0
  0
VERTEX
  8
0
 10
72.6599
 20
35.9851
 30
0.0
 40
0
 41
0
  0
VERTEX
  8
0
 10
72.6594
 20
36.0106
 30
0.0
 40
0
 41
0
  0
VERTEX
  8
0
 10
72.6586
 20
36.0354
 30
0.0
 40
0
 41
0
  0
VERTEX
  8
0
 10
72.6572
 20
36.0599
 30
0.0
 40
0
 41
0
  0
VERTEX
  8
0
 10
72.6551
 20
36.0836
 30
0.0
 40
0
 41
0
  0
VERTEX
  8
0
 10
72.6525
 20
36.1068
 30
0.0
 40
0
 41
0
  0
VERTEX
  8
0
 10
72.6493
 20
36.1294
 30
0.0
 40
0
 41
0
  0
VERTEX
  8
0
 10
72.6454
 20
36.1517
 30
0.0
 40
0
 41
0
  0
VERTEX
  8
0
 10
72.6411
 20
36.1732
 30
0.0
 40
0
 41
0
  0
VERTEX
  8
0
 10
72.6361
 20
36.1942
 30
0.0
 40
0
 41
0
  0
VERTEX
  8
0
 10
72.6306
 20
36.2146
 30
0.0
 40
0
 41
0
  0
VERTEX
  8
0
 10
72.624
 20
36.2346
 30
0.0
 40
0
 41
0
  0
VERTEX
  8
0
 10
72.6168
 20
36.2538
 30
0.0
 40
0
 41
0
  0
VERTEX
  8
0
 10
72.609
 20
36.2724
 30
0.0
 40
0
 41
0
  0
VERTEX
  8
0
 10
72.6006
 20
36.2904
 30
0.0
 40
0
 41
0
  0
VERTEX
  8
0
 10
72.5914
 20
36.3078
 30
0.0
 40
0
 41
0
  0
VERTEX
  8
0
 10
72.5817
 20
36.3246
 30
0.0
 40
0
 41
0
  0
VERTEX
  8
0
 10
72.5712
 20
36.3408
 30
0.0
 40
0
 41
0
  0
VERTEX
  8
0
 10
72.5601
 20
36.3562
 30
0.0
 40
0
 41
0
  0
VERTEX
  8
0
 10
72.5485
 20
36.3712
 30
0.0
 40
0
 41
0
  0
VERTEX
  8
0
 10
72.5361
 20
36.3856
 30
0.0
 40
0
 41
0
  0
VERTEX
  8
0
 10
72.5231
 20
36.3992
 30
0.0
 40
0
 41
0
  0
VERTEX
  8
0
 10
72.5094
 20
36.4122
 30
0.0
 40
0
 41
0
  0
VERTEX
  8
0
 10
72.4951
 20
36.4246
 30
0.0
 40
0
 41
0
  0
VERTEX
  8
0
 10
72.4801
 20
36.4364
 30
0.0
 40
0
 41
0
  0
VERTEX
  8
0
 10
72.4644
 20
36.4474
 30
0.0
 40
0
 41
0
  0
VERTEX
  8
0
 10
72.4482
 20
36.4578
 30
0.0
 40
0
 41
0
  0
VERTEX
  8
0
 10
72.4312
 20
36.4676
 30
0.0
 40
0
 41
0
  0
VERTEX
  8
0
 10
72.4138
 20
36.4767
 30
0.0
 40
0
 41
0
  0
VERTEX
  8
0
 10
72.3954
 20
36.4851
 30
0.0
 40
0
 41
0
  0
VERTEX
  8
0
 10
72.3765
 20
36.4929
 30
0.0
 40
0
 41
0
  0
VERTEX
  8
0
 10
72.3571
 20
36.5001
 30
0.0
 40
0
 41
0
  0
VERTEX
  8
0
 10
72.3368
 20
36.5064
 30
0.0
 40
0
 41
0
  0
VERTEX
  8
0
 10
72.3157
 20
36.5121
 30
0.0
 40
0
 41
0
  0
VERTEX
  8
0
 10
72.294
 20
36.5169
 30
0.0
 40
0
 41
0
  0
VERTEX
  8
0
 10
72.2717
 20
36.521
 30
0.0
 40
0
 41
0
  0
VERTEX
  8
0
 10
72.2485
 20
36.5244
 30
0.0
 40
0
 41
0
  0
VERTEX
  8
0
 10
72.2246
 20
36.5271
 30
0.0
 40
0
 41
0
  0
VERTEX
  8
0
 10
72.2
 20
36.5289
 30
0.0
 40
0
 41
0
  0
VERTEX
  8
0
 10
72.1747
 20
36.53
 30
0.0
 40
0
 41
0
  0
VERTEX
  8
0
 10
72.1487
 20
36.5304
 30
0.0
 40
0
 41
0
  0
VERTEX
  8
0
 10
72.1033
 20
36.529
 30
0.0
 40
0
 41
0
  0
VERTEX
  8
0
 10
72.06
 20
36.5247
 30
0.0
 40
0
 41
0
  0
VERTEX
  8
0
 10
72.019
 20
36.5175
 30
0.0
 40
0
 41
0
  0
VERTEX
  8
0
 10
71.9803
 20
36.5075
 30
0.0
 40
0
 41
0
  0
VERTEX
  8
0
 10
71.9436
 20
36.4946
 30
0.0
 40
0
 41
0
  0
VERTEX
  8
0
 10
71.9093
 20
36.4789
 30
0.0
 40
0
 41
0
  0
VERTEX
  8
0
 10
71.8771
 20
36.4603
 30
0.0
 40
0
 41
0
  0
VERTEX
  8
0
 10
71.8472
 20
36.4388
 30
0.0
 40
0
 41
0
  0
VERTEX
  8
0
 10
71.8194
 20
36.4144
 30
0.0
 40
0
 41
0
  0
VERTEX
  8
0
 10
71.7939
 20
36.3872
 30
0.0
 40
0
 41
0
  0
VERTEX
  8
0
 10
71.7704
 20
36.3572
 30
0.0
 40
0
 41
0
  0
VERTEX
  8
0
 10
71.7494
 20
36.3247
 30
0.0
 40
0
 41
0
  0
VERTEX
  8
0
 10
71.7308
 20
36.2894
 30
0.0
 40
0
 41
0
  0
VERTEX
  8
0
 10
71.7147
 20
36.2518
 30
0.0
 40
0
 41
0
  0
VERTEX
  8
0
 10
71.7011
 20
36.2114
 30
0.0
 40
0
 41
0
  0
VERTEX
  8
0
 10
71.69
 20
36.1685
 30
0.0
 40
0
 41
0
  0
VERTEX
  8
0
 10
71.6814
 20
36.1228
 30
0.0
 40
0
 41
0
  0
VERTEX
  8
0
 10
71.6751
 20
36.0747
 30
0.0
 40
0
 41
0
  0
VERTEX
  8
0
 10
71.6714
 20
36.0239
 30
0.0
 40
0
 41
0
  0
VERTEX
  8
0
 10
71.6703
 20
35.9706
 30
0.0
 40
0
 41
0
  0
VERTEX
  8
0
 10
71.6703
 20
35.9617
 30
0.0
 40
0
 41
0
  0
VERTEX
  8
0
 10
71.6704
 20
35.9526
 30
0.0
 40
0
 41
0
  0
VERTEX
  8
0
 10
71.6707
 20
35.9433
 30
0.0
 40
0
 41
0
  0
VERTEX
  8
0
 10
71.671
 20
35.934
 30
0.0
 40
0
 41
0
  0
VERTEX
  8
0
 10
71.6714
 20
35.9246
 30
0.0
 40
0
 41
0
  0
VERTEX
  8
0
 10
71.6719
 20
35.9149
 30
0.0
 40
0
 41
0
  0
VERTEX
  8
0
 10
71.6726
 20
35.905
 30
0.0
 40
0
 41
0
  0
VERTEX
  8
0
 10
71.6733
 20
35.895
 30
0.0
 40
0
 41
0
  0
VERTEX
  8
0
 10
71.6742
 20
35.8849
 30
0.0
 40
0
 41
0
  0
VERTEX
  8
0
 10
71.6751
 20
35.8744
 30
0.0
 40
0
 41
0
  0
VERTEX
  8
0
 10
71.6765
 20
35.8542
 30
0.0
 40
0
 41
0
  0
VERTEX
  8
0
 10
71.6782
 20
35.8339
 30
0.0
 40
0
 41
0
  0
VERTEX
  8
0
 10
71.6792
 20
35.8236
 30
0.0
 40
0
 41
0
  0
VERTEX
  8
0
 10
71.6801
 20
35.8133
 30
0.0
 40
0
 41
0
  0
VERTEX
  8
0
 10
71.6812
 20
35.8031
 30
0.0
 40
0
 41
0
  0
VERTEX
  8
0
 10
71.6824
 20
35.7926
 30
0.0
 40
0
 41
0
  0
VERTEX
  8
0
 10
71.6836
 20
35.7824
 30
0.0
 40
0
 41
0
  0
VERTEX
  8
0
 10
71.6849
 20
35.7719
 30
0.0
 40
0
 41
0
  0
VERTEX
  8
0
 10
71.6861
 20
35.7618
 30
0.0
 40
0
 41
0
  0
VERTEX
  8
0
 10
71.6875
 20
35.7519
 30
0.0
 40
0
 41
0
  0
VERTEX
  8
0
 10
71.6889
 20
35.7419
 30
0.0
 40
0
 41
0
  0
VERTEX
  8
0
 10
71.6903
 20
35.7321
 30
0.0
 40
0
 41
0
  0
VERTEX
  8
0
 10
71.6918
 20
35.7222
 30
0.0
 40
0
 41
0
  0
VERTEX
  8
0
 10
71.6932
 20
35.7125
 30
0.0
 40
0
 41
0
  0
VERTEX
  8
0
 10
71.6947
 20
35.7029
 30
0.0
 40
0
 41
0
  0
VERTEX
  8
0
 10
71.6964
 20
35.6933
 30
0.0
 40
0
 41
0
  0
VERTEX
  8
0
 10
71.6979
 20
35.6837
 30
0.0
 40
0
 41
0
  0
VERTEX
  8
0
 10
71.6994
 20
35.6743
 30
0.0
 40
0
 41
0
  0
VERTEX
  8
0
 10
71.7008
 20
35.6653
 30
0.0
 40
0
 41
0
  0
VERTEX
  8
0
 10
71.7021
 20
35.6565
 30
0.0
 40
0
 41
0
  0
VERTEX
  8
0
 10
71.7035
 20
35.6479
 30
0.0
 40
0
 41
0
  0
VERTEX
  8
0
 10
71.7047
 20
35.6396
 30
0.0
 40
0
 41
0
  0
VERTEX
  8
0
 10
71.706
 20
35.6315
 30
0.0
 40
0
 41
0
  0
VERTEX
  8
0
 10
71.7074
 20
35.6237
 30
0.0
 40
0
 41
0
  0
VERTEX
  8
0
 10
71.7086
 20
35.6161
 30
0.0
 40
0
 41
0
  0
VERTEX
  8
0
 10
71.7099
 20
35.6086
 30
0.0
 40
0
 41
0
  0
VERTEX
  8
0
 10
71.7112
 20
35.6015
 30
0.0
 40
0
 41
0
  0
VERTEX
  8
0
 10
71.7125
 20
35.5946
 30
0.0
 40
0
 41
0
  0
VERTEX
  8
0
 10
71.6197
 20
35.4481
 30
0.0
 40
0
 41
0
  0
VERTEX
  8
0
 10
70.5
 20
35.5375
 30
0.0
 40
0
 41
0
  0
VERTEX
  8
0
 10
70.5
 20
36.6606
 30
0.0
 40
0
 41
0
  0
VERTEX
  8
0
 10
70.7701
 20
36.6606
 30
0.0
 40
0
 41
0
  0
VERTEX
  8
0
 10
70.7701
 20
35.7947
 30
0.0
 40
0
 41
0
  0
VERTEX
  8
0
 10
71.4521
 20
35.7312
 30
0.0
 40
0
 41
0
  0
VERTEX
  8
0
 10
71.4501
 20
35.7419
 30
0.0
 40
0
 41
0
  0
VERTEX
  8
0
 10
71.4482
 20
35.7533
 30
0.0
 40
0
 41
0
  0
VERTEX
  8
0
 10
71.4461
 20
35.7654
 30
0.0
 40
0
 41
0
  0
VERTEX
  8
0
 10
71.444
 20
35.7781
 30
0.0
 40
0
 41
0
  0
VERTEX
  8
0
 10
71.4419
 20
35.7915
 30
0.0
 40
0
 41
0
  0
VERTEX
  8
0
 10
71.4399
 20
35.8054
 30
0.0
 40
0
 41
0
  0
VERTEX
  8
0
 10
71.4376
 20
35.8201
 30
0.0
 40
0
 41
0
  0
VERTEX
  8
0
 10
71.4354
 20
35.8354
 30
0.0
 40
0
 41
0
  0
VERTEX
  8
0
 10
71.4332
 20
35.8514
 30
0.0
 40
0
 41
0
  0
VERTEX
  8
0
 10
71.431
 20
35.8679
 30
0.0
 40
0
 41
0
  0
VERTEX
  8
0
 10
71.4288
 20
35.8856
 30
0.0
 40
0
 41
0
  0
VERTEX
  8
0
 10
71.4268
 20
35.9038
 30
0.0
 40
0
 41
0
  0
VERTEX
  8
0
 10
71.4251
 20
35.9225
 30
0.0
 40
0
 41
0
  0
VERTEX
  8
0
 10
71.4236
 20
35.9419
 30
0.0
 40
0
 41
0
  0
VERTEX
  8
0
 10
71.4224
 20
35.9619
 30
0.0
 40
0
 41
0
  0
VERTEX
  8
0
 10
71.4214
 20
35.9826
 30
0.0
 40
0
 41
0
  0
VERTEX
  8
0
 10
71.4206
 20
36.0039
 30
0.0
 40
0
 41
0
  0
VERTEX
  8
0
 10
71.42
 20
36.0258
 30
0.0
 40
0
 41
0
  0
VERTEX
  8
0
 10
71.4197
 20
36.0483
 30
0.0
 40
0
 41
0
  0
VERTEX
  8
0
 10
71.4196
 20
36.0714
 30
0.0
 40
0
 41
0
  0
SEQEND
 8
0
  0
POLYLINE
  8
0
 62
     0
 66
     1
 10
0
 20
0
 30
0.0
 70
     1
 40
0
 41
0
  0
VERTEX
  8
0
 10
73.179
 20
38.3972
 30
0.0
 40
0
 41
0
  0
VERTEX
  8
0
 10
73.4068
 20
38.3972
 30
0.0
 40
0
 41
0
  0
VERTEX
  8
0
 10
73.4068
 20
37.0138
 30
0.0
 40
0
 41
0
  0
VERTEX
  8
0
 10
73.179
 20
37.0138
 30
0.0
 40
0
 41
0
  0
VERTEX
  8
0
 10
73.179
 20
38.3972
 30
0.0
 40
0
 41
0
  0
SEQEND
 8
0
  0
POLYLINE
  8
0
 62
     0
 66
     1
 10
0
 20
0
 30
0.0
 70
     1
 40
0
 41
0
  0
VERTEX
  8
0
 10
72.8796
 20
39.5479
 30
0.0
 40
0
 41
0
  0
VERTEX
  8
0
 10
72.8796
 20
39.2615
 30
0.0
 40
0
 41
0
  0
VERTEX
  8
0
 10
71.2437
 20
39.2615
 30
0.0
 40
0
 41
0
  0
VERTEX
  8
0
 10
71.2278
 20
39.2618
 30
0.0
 40
0
 41
0
  0
VERTEX
  8
0
 10
71.2119
 20
39.2622
 30
0.0
 40
0
 41
0
  0
VERTEX
  8
0
 10
71.1803
 20
39.2628
 30
0.0
 40
0
 41
0
  0
VERTEX
  8
0
 10
71.1644
 20
39.2632
 30
0.0
 40
0
 41
0
  0
VERTEX
  8
0
 10
71.1486
 20
39.2635
 30
0.0
 40
0
 41
0
  0
VERTEX
  8
0
 10
71.1329
 20
39.2638
 30
0.0
 40
0
 41
0
  0
VERTEX
  8
0
 10
71.1172
 20
39.2642
 30
0.0
 40
0
 41
0
  0
VERTEX
  8
0
 10
71.1015
 20
39.2644
 30
0.0
 40
0
 41
0
  0
VERTEX
  8
0
 10
71.086
 20
39.2647
 30
0.0
 40
0
 41
0
  0
VERTEX
  8
0
 10
71.07
 20
39.2654
 30
0.0
 40
0
 41
0
  0
VERTEX
  8
0
 10
71.0543
 20
39.266
 30
0.0
 40
0
 41
0
  0
VERTEX
  8
0
 10
71.0388
 20
39.2665
 30
0.0
 40
0
 41
0
  0
VERTEX
  8
0
 10
71.0235
 20
39.2671
 30
0.0
 40
0
 41
0
  0
VERTEX
  8
0
 10
71.0082
 20
39.2676
 30
0.0
 40
0
 41
0
  0
VERTEX
  8
0
 10
70.9932
 20
39.2681
 30
0.0
 40
0
 41
0
  0
VERTEX
  8
0
 10
70.9782
 20
39.2685
 30
0.0
 40
0
 41
0
  0
VERTEX
  8
0
 10
70.9635
 20
39.2689
 30
0.0
 40
0
 41
0
  0
VERTEX
  8
0
 10
70.9489
 20
39.2693
 30
0.0
 40
0
 41
0
  0
VERTEX
  8
0
 10
70.9346
 20
39.2697
 30
0.0
 40
0
 41
0
  0
VERTEX
  8
0
 10
70.92
 20
39.2703
 30
0.0
 40
0
 41
0
  0
VERTEX
  8
0
 10
70.906
 20
39.2708
 30
0.0
 40
0
 41
0
  0
VERTEX
  8
0
 10
70.8922
 20
39.2715
 30
0.0
 40
0
 41
0
  0
VERTEX
  8
0
 10
70.8788
 20
39.2719
 30
0.0
 40
0
 41
0
  0
VERTEX
  8
0
 10
70.8658
 20
39.2725
 30
0.0
 40
0
 41
0
  0
VERTEX
  8
0
 10
70.8531
 20
39.2729
 30
0.0
 40
0
 41
0
  0
VERTEX
  8
0
 10
70.8408
 20
39.2735
 30
0.0
 40
0
 41
0
  0
VERTEX
  8
0
 10
70.8287
 20
39.2739
 30
0.0
 40
0
 41
0
  0
VERTEX
  8
0
 10
70.8172
 20
39.2742
 30
0.0
 40
0
 41
0
  0
VERTEX
  8
0
 10
70.806
 20
39.2746
 30
0.0
 40
0
 41
0
  0
VERTEX
  8
0
 10
70.8117
 20
39.269
 30
0.0
 40
0
 41
0
  0
VERTEX
  8
0
 10
70.8174
 20
39.2638
 30
0.0
 40
0
 41
0
  0
VERTEX
  8
0
 10
70.8228
 20
39.2585
 30
0.0
 40
0
 41
0
  0
VERTEX
  8
0
 10
70.8281
 20
39.2535
 30
0.0
 40
0
 41
0
  0
VERTEX
  8
0
 10
70.8332
 20
39.2485
 30
0.0
 40
0
 41
0
  0
VERTEX
  8
0
 10
70.8382
 20
39.2436
 30
0.0
 40
0
 41
0
  0
VERTEX
  8
0
 10
70.8429
 20
39.239
 30
0.0
 40
0
 41
0
  0
VERTEX
  8
0
 10
70.8476
 20
39.2344
 30
0.0
 40
0
 41
0
  0
VERTEX
  8
0
 10
70.8564
 20
39.2257
 30
0.0
 40
0
 41
0
  0
VERTEX
  8
0
 10
70.8607
 20
39.2215
 30
0.0
 40
0
 41
0
  0
VERTEX
  8
0
 10
70.8649
 20
39.2172
 30
0.0
 40
0
 41
0
  0
VERTEX
  8
0
 10
70.869
 20
39.2129
 30
0.0
 40
0
 41
0
  0
VERTEX
  8
0
 10
70.8731
 20
39.2085
 30
0.0
 40
0
 41
0
  0
VERTEX
  8
0
 10
70.8772
 20
39.2042
 30
0.0
 40
0
 41
0
  0
VERTEX
  8
0
 10
70.8853
 20
39.1953
 30
0.0
 40
0
 41
0
  0
VERTEX
  8
0
 10
70.8892
 20
39.1908
 30
0.0
 40
0
 41
0
  0
VERTEX
  8
0
 10
70.8932
 20
39.1862
 30
0.0
 40
0
 41
0
  0
VERTEX
  8
0
 10
70.8971
 20
39.1818
 30
0.0
 40
0
 41
0
  0
VERTEX
  8
0
 10
70.901
 20
39.1775
 30
0.0
 40
0
 41
0
  0
VERTEX
  8
0
 10
70.905
 20
39.1732
 30
0.0
 40
0
 41
0
  0
VERTEX
  8
0
 10
70.9092
 20
39.1687
 30
0.0
 40
0
 41
0
  0
VERTEX
  8
0
 10
70.9132
 20
39.1643
 30
0.0
 40
0
 41
0
  0
VERTEX
  8
0
 10
70.9175
 20
39.1597
 30
0.0
 40
0
 41
0
  0
VERTEX
  8
0
 10
70.9217
 20
39.1551
 30
0.0
 40
0
 41
0
  0
VERTEX
  8
0
 10
70.926
 20
39.1506
 30
0.0
 40
0
 41
0
  0
VERTEX
  8
0
 10
70.9304
 20
39.1458
 30
0.0
 40
0
 41
0
  0
VERTEX
  8
0
 10
70.9349
 20
39.141
 30
0.0
 40
0
 41
0
  0
VERTEX
  8
0
 10
70.9394
 20
39.1363
 30
0.0
 40
0
 41
0
  0
VERTEX
  8
0
 10
70.9438
 20
39.1312
 30
0.0
 40
0
 41
0
  0
VERTEX
  8
0
 10
70.9482
 20
39.126
 30
0.0
 40
0
 41
0
  0
VERTEX
  8
0
 10
70.9528
 20
39.1207
 30
0.0
 40
0
 41
0
  0
VERTEX
  8
0
 10
70.9576
 20
39.1151
 30
0.0
 40
0
 41
0
  0
VERTEX
  8
0
 10
70.9626
 20
39.1093
 30
0.0
 40
0
 41
0
  0
VERTEX
  8
0
 10
70.9678
 20
39.1033
 30
0.0
 40
0
 41
0
  0
VERTEX
  8
0
 10
70.9731
 20
39.0972
 30
0.0
 40
0
 41
0
  0
VERTEX
  8
0
 10
70.9785
 20
39.0908
 30
0.0
 40
0
 41
0
  0
VERTEX
  8
0
 10
70.984
 20
39.0843
 30
0.0
 40
0
 41
0
  0
VERTEX
  8
0
 10
70.9899
 20
39.0776
 30
0.0
 40
0
 41
0
  0
VERTEX
  8
0
 10
71.1868
 20
38.8367
 30
0.0
 40
0
 41
0
  0
VERTEX
  8
0
 10
70.9867
 20
38.6804
 30
0.0
 40
0
 41
0
  0
VERTEX
  8
0
 10
70.5
 20
39.3039
 30
0.0
 40
0
 41
0
  0
VERTEX
  8
0
 10
70.5
 20
39.5479
 30
0.0
 40
0
 41
0
  0
VERTEX
  8
0
 10
72.8796
 20
39.5479
 30
0.0
 40
0
 41
0
  0
SEQEND
 8
0
  0
POLYLINE
  8
0
 62
     0
 66
     1
 10
0
 20
0
 30
0.0
 70
     1
 40
0
 41
0
  0
VERTEX
  8
0
 10
72.8796
 20
42.6501
 30
0.0
 40
0
 41
0
  0
VERTEX
  8
0
 10
71.7288
 20
42.6501
 30
0.0
 40
0
 41
0
  0
VERTEX
  8
0
 10
71.6875
 20
42.6493
 30
0.0
 40
0
 41
0
  0
VERTEX
  8
0
 10
71.6485
 20
42.6469
 30
0.0
 40
0
 41
0
  0
VERTEX
  8
0
 10
71.6114
 20
42.6429
 30
0.0
 40
0
 41
0
  0
VERTEX
  8
0
 10
71.5765
 20
42.6372
 30
0.0
 40
0
 41
0
  0
VERTEX
  8
0
 10
71.5436
 20
42.6299
 30
0.0
 40
0
 41
0
  0
VERTEX
  8
0
 10
71.5131
 20
42.6208
 30
0.0
 40
0
 41
0
  0
VERTEX
  8
0
 10
71.4844
 20
42.6103
 30
0.0
 40
0
 41
0
  0
VERTEX
  8
0
 10
71.4579
 20
42.5981
 30
0.0
 40
0
 41
0
  0
VERTEX
  8
0
 10
71.4336
 20
42.5843
 30
0.0
 40
0
 41
0
  0
VERTEX
  8
0
 10
71.4114
 20
42.5687
 30
0.0
 40
0
 41
0
  0
VERTEX
  8
0
 10
71.3914
 20
42.5517
 30
0.0
 40
0
 41
0
  0
VERTEX
  8
0
 10
71.3733
 20
42.5326
 30
0.0
 40
0
 41
0
  0
VERTEX
  8
0
 10
71.3575
 20
42.5119
 30
0.0
 40
0
 41
0
  0
VERTEX
  8
0
 10
71.3438
 20
42.4894
 30
0.0
 40
0
 41
0
  0
VERTEX
  8
0
 10
71.3321
 20
42.465
 30
0.0
 40
0
 41
0
  0
VERTEX
  8
0
 10
71.3225
 20
42.4389
 30
0.0
 40
0
 41
0
  0
VERTEX
  8
0
 10
71.3151
 20
42.411
 30
0.0
 40
0
 41
0
  0
VERTEX
  8
0
 10
71.3099
 20
42.3812
 30
0.0
 40
0
 41
0
  0
VERTEX
  8
0
 10
71.3067
 20
42.3499
 30
0.0
 40
0
 41
0
  0
VERTEX
  8
0
 10
71.3057
 20
42.3165
 30
0.0
 40
0
 41
0
  0
VERTEX
  8
0
 10
71.306
 20
42.2931
 30
0.0
 40
0
 41
0
  0
VERTEX
  8
0
 10
71.3072
 20
42.2704
 30
0.0
 40
0
 41
0
  0
VERTEX
  8
0
 10
71.3092
 20
42.2485
 30
0.0
 40
0
 41
0
  0
VERTEX
  8
0
 10
71.3119
 20
42.2272
 30
0.0
 40
0
 41
0
  0
VERTEX
  8
0
 10
71.3154
 20
42.2067
 30
0.0
 40
0
 41
0
  0
VERTEX
  8
0
 10
71.3197
 20
42.1868
 30
0.0
 40
0
 41
0
  0
VERTEX
  8
0
 10
71.3247
 20
42.1678
 30
0.0
 40
0
 41
0
  0
VERTEX
  8
0
 10
71.3307
 20
42.1493
 30
0.0
 40
0
 41
0
  0
VERTEX
  8
0
 10
71.3372
 20
42.1317
 30
0.0
 40
0
 41
0
  0
VERTEX
  8
0
 10
71.3447
 20
42.1147
 30
0.0
 40
0
 41
0
  0
VERTEX
  8
0
 10
71.3525
 20
42.0983
 30
0.0
 40
0
 41
0
  0
VERTEX
  8
0
 10
71.3611
 20
42.0826
 30
0.0
 40
0
 41
0
  0
VERTEX
  8
0
 10
71.3706
 20
42.0675
 30
0.0
 40
0
 41
0
  0
VERTEX
  8
0
 10
71.3807
 20
42.0531
 30
0.0
 40
0
 41
0
  0
VERTEX
  8
0
 10
71.3915
 20
42.039
 30
0.0
 40
0
 41
0
  0
VERTEX
  8
0
 10
71.4031
 20
42.0257
 30
0.0
 40
0
 41
0
  0
VERTEX
  8
0
 10
71.4154
 20
42.0129
 30
0.0
 40
0
 41
0
  0
VERTEX
  8
0
 10
71.4286
 20
42.0007
 30
0.0
 40
0
 41
0
  0
VERTEX
  8
0
 10
71.4424
 20
41.989
 30
0.0
 40
0
 41
0
  0
VERTEX
  8
0
 10
71.4569
 20
41.9781
 30
0.0
 40
0
 41
0
  0
VERTEX
  8
0
 10
71.4721
 20
41.9679
 30
0.0
 40
0
 41
0
  0
VERTEX
  8
0
 10
71.4878
 20
41.9582
 30
0.0
 40
0
 41
0
  0
VERTEX
  8
0
 10
71.5043
 20
41.9492
 30
0.0
 40
0
 41
0
  0
VERTEX
  8
0
 10
71.5215
 20
41.9407
 30
0.0
 40
0
 41
0
  0
VERTEX
  8
0
 10
71.5396
 20
41.9328
 30
0.0
 40
0
 41
0
  0
VERTEX
  8
0
 10
71.5583
 20
41.9254
 30
0.0
 40
0
 41
0
  0
VERTEX
  8
0
 10
71.5779
 20
41.9186
 30
0.0
 40
0
 41
0
  0
VERTEX
  8
0
 10
71.5982
 20
41.9124
 30
0.0
 40
0
 41
0
  0
VERTEX
  8
0
 10
71.6192
 20
41.9067
 30
0.0
 40
0
 41
0
  0
VERTEX
  8
0
 10
71.641
 20
41.9015
 30
0.0
 40
0
 41
0
  0
VERTEX
  8
0
 10
71.6631
 20
41.8968
 30
0.0
 40
0
 41
0
  0
VERTEX
  8
0
 10
71.686
 20
41.8926
 30
0.0
 40
0
 41
0
  0
VERTEX
  8
0
 10
71.7094
 20
41.889
 30
0.0
 40
0
 41
0
  0
VERTEX
  8
0
 10
71.7336
 20
41.8858
 30
0.0
 40
0
 41
0
  0
VERTEX
  8
0
 10
71.7585
 20
41.8832
 30
0.0
 40
0
 41
0
  0
VERTEX
  8
0
 10
71.784
 20
41.881
 30
0.0
 40
0
 41
0
  0
VERTEX
  8
0
 10
71.8103
 20
41.8793
 30
0.0
 40
0
 41
0
  0
VERTEX
  8
0
 10
71.8372
 20
41.8781
 30
0.0
 40
0
 41
0
  0
VERTEX
  8
0
 10
71.8649
 20
41.8774
 30
0.0
 40
0
 41
0
  0
VERTEX
  8
0
 10
71.8932
 20
41.8771
 30
0.0
 40
0
 41
0
  0
VERTEX
  8
0
 10
72.8796
 20
41.8771
 30
0.0
 40
0
 41
0
  0
VERTEX
  8
0
 10
72.8796
 20
41.5792
 30
0.0
 40
0
 41
0
  0
VERTEX
  8
0
 10
71.7288
 20
41.5792
 30
0.0
 40
0
 41
0
  0
VERTEX
  8
0
 10
71.6875
 20
41.5785
 30
0.0
 40
0
 41
0
  0
VERTEX
  8
0
 10
71.6485
 20
41.576
 30
0.0
 40
0
 41
0
  0
VERTEX
  8
0
 10
71.6114
 20
41.5719
 30
0.0
 40
0
 41
0
  0
VERTEX
  8
0
 10
71.5765
 20
41.5663
 30
0.0
 40
0
 41
0
  0
VERTEX
  8
0
 10
71.5436
 20
41.5589
 30
0.0
 40
0
 41
0
  0
VERTEX
  8
0
 10
71.5131
 20
41.5499
 30
0.0
 40
0
 41
0
  0
VERTEX
  8
0
 10
71.4844
 20
41.5393
 30
0.0
 40
0
 41
0
  0
VERTEX
  8
0
 10
71.4579
 20
41.5271
 30
0.0
 40
0
 41
0
  0
VERTEX
  8
0
 10
71.4336
 20
41.5133
 30
0.0
 40
0
 41
0
  0
VERTEX
  8
0
 10
71.4114
 20
41.4978
 30
0.0
 40
0
 41
0
  0
VERTEX
  8
0
 10
71.3914
 20
41.481
 30
0.0
 40
0
 41
0
  0
VERTEX
  8
0
 10
71.3733
 20
41.4624
 30
0.0
 40
0
 41
0
  0
VERTEX
  8
0
 10
71.3575
 20
41.4418
 30
0.0
 40
0
 41
0
  0
VERTEX
  8
0
 10
71.3438
 20
41.4194
 30
0.0
 40
0
 41
0
  0
VERTEX
  8
0
 10
71.3321
 20
41.3953
 30
0.0
 40
0
 41
0
  0
VERTEX
  8
0
 10
71.3225
 20
41.3693
 30
0.0
 40
0
 41
0
  0
VERTEX
  8
0
 10
71.3151
 20
41.3415
 30
0.0
 40
0
 41
0
  0
VERTEX
  8
0
 10
71.3099
 20
41.3119
 30
0.0
 40
0
 41
0
  0
VERTEX
  8
0
 10
71.3067
 20
41.2804
 30
0.0
 40
0
 41
0
  0
VERTEX
  8
0
 10
71.3057
 20
41.2472
 30
0.0
 40
0
 41
0
  0
VERTEX
  8
0
 10
71.3061
 20
41.2225
 30
0.0
 40
0
 41
0
  0
VERTEX
  8
0
 10
71.3074
 20
41.1988
 30
0.0
 40
0
 41
0
  0
VERTEX
  8
0
 10
71.3094
 20
41.1757
 30
0.0
 40
0
 41
0
  0
VERTEX
  8
0
 10
71.3124
 20
41.1535
 30
0.0
 40
0
 41
0
  0
VERTEX
  8
0
 10
71.3163
 20
41.1321
 30
0.0
 40
0
 41
0
  0
VERTEX
  8
0
 10
71.3208
 20
41.1114
 30
0.0
 40
0
 41
0
  0
VERTEX
  8
0
 10
71.3264
 20
41.0917
 30
0.0
 40
0
 41
0
  0
VERTEX
  8
0
 10
71.3328
 20
41.0728
 30
0.0
 40
0
 41
0
  0
VERTEX
  8
0
 10
71.3399
 20
41.0546
 30
0.0
 40
0
 41
0
  0
VERTEX
  8
0
 10
71.3479
 20
41.0372
 30
0.0
 40
0
 41
0
  0
VERTEX
  8
0
 10
71.3568
 20
41.0207
 30
0.0
 40
0
 41
0
  0
VERTEX
  8
0
 10
71.3665
 20
41.0047
 30
0.0
 40
0
 41
0
  0
VERTEX
  8
0
 10
71.3769
 20
40.9894
 30
0.0
 40
0
 41
0
  0
VERTEX
  8
0
 10
71.3883
 20
40.9747
 30
0.0
 40
0
 41
0
  0
VERTEX
  8
0
 10
71.4004
 20
40.9607
 30
0.0
 40
0
 41
0
  0
VERTEX
  8
0
 10
71.4133
 20
40.9474
 30
0.0
 40
0
 41
0
  0
VERTEX
  8
0
 10
71.4271
 20
40.9347
 30
0.0
 40
0
 41
0
  0
VERTEX
  8
0
 10
71.4417
 20
40.9226
 30
0.0
 40
0
 41
0
  0
VERTEX
  8
0
 10
71.4571
 20
40.9113
 30
0.0
 40
0
 41
0
  0
VERTEX
  8
0
 10
71.4733
 20
40.9006
 30
0.0
 40
0
 41
0
  0
VERTEX
  8
0
 10
71.4903
 20
40.8907
 30
0.0
 40
0
 41
0
  0
VERTEX
  8
0
 10
71.5079
 20
40.8814
 30
0.0
 40
0
 41
0
  0
VERTEX
  8
0
 10
71.5264
 20
40.8728
 30
0.0
 40
0
 41
0
  0
VERTEX
  8
0
 10
71.5457
 20
40.8646
 30
0.0
 40
0
 41
0
  0
VERTEX
  8
0
 10
71.5657
 20
40.8569
 30
0.0
 40
0
 41
0
  0
VERTEX
  8
0
 10
71.5864
 20
40.8499
 30
0.0
 40
0
 41
0
  0
VERTEX
  8
0
 10
71.6078
 20
40.8435
 30
0.0
 40
0
 41
0
  0
VERTEX
  8
0
 10
71.63
 20
40.8375
 30
0.0
 40
0
 41
0
  0
VERTEX
  8
0
 10
71.6531
 20
40.8321
 30
0.0
 40
0
 41
0
  0
VERTEX
  8
0
 10
71.6767
 20
40.8272
 30
0.0
 40
0
 41
0
  0
VERTEX
  8
0
 10
71.7011
 20
40.8232
 30
0.0
 40
0
 41
0
  0
VERTEX
  8
0
 10
71.7264
 20
40.8197
 30
0.0
 40
0
 41
0
  0
VERTEX
  8
0
 10
71.7522
 20
40.8165
 30
0.0
 40
0
 41
0
  0
VERTEX
  8
0
 10
71.7787
 20
40.8138
 30
0.0
 40
0
 41
0
  0
VERTEX
  8
0
 10
71.8061
 20
40.8114
 30
0.0
 40
0
 41
0
  0
VERTEX
  8
0
 10
71.8342
 20
40.8094
 30
0.0
 40
0
 41
0
  0
VERTEX
  8
0
 10
71.8629
 20
40.8081
 30
0.0
 40
0
 41
0
  0
VERTEX
  8
0
 10
71.8924
 20
40.8069
 30
0.0
 40
0
 41
0
  0
VERTEX
  8
0
 10
71.9225
 20
40.8064
 30
0.0
 40
0
 41
0
  0
VERTEX
  8
0
 10
71.9535
 20
40.8061
 30
0.0
 40
0
 41
0
  0
VERTEX
  8
0
 10
72.8796
 20
40.8061
 30
0.0
 40
0
 41
0
  0
VERTEX
  8
0
 10
72.8796
 20
40.5099
 30
0.0
 40
0
 41
0
  0
VERTEX
  8
0
 10
71.0924
 20
40.5099
 30
0.0
 40
0
 41
0
  0
VERTEX
  8
0
 10
71.0924
 20
40.7508
 30
0.0
 40
0
 41
0
  0
VERTEX
  8
0
 10
71.3333
 20
40.7931
 30
0.0
 40
0
 41
0
  0
VERTEX
  8
0
 10
71.3333
 20
40.8093
 30
0.0
 40
0
 41
0
  0
VERTEX
  8
0
 10
71.3194
 20
40.8174
 30
0.0
 40
0
 41
0
  0
VERTEX
  8
0
 10
71.3061
 20
40.8256
 30
0.0
 40
0
 41
0
  0
VERTEX
  8
0
 10
71.2931
 20
40.8342
 30
0.0
 40
0
 41
0
  0
VERTEX
  8
0
 10
71.2804
 20
40.8429
 30
0.0
 40
0
 41
0
  0
VERTEX
  8
0
 10
71.2682
 20
40.8521
 30
0.0
 40
0
 41
0
  0
VERTEX
  8
0
 10
71.2564
 20
40.8615
 30
0.0
 40
0
 41
0
  0
VERTEX
  8
0
 10
71.2449
 20
40.8713
 30
0.0
 40
0
 41
0
  0
VERTEX
  8
0
 10
71.2339
 20
40.8812
 30
0.0
 40
0
 41
0
  0
VERTEX
  8
0
 10
71.2232
 20
40.8915
 30
0.0
 40
0
 41
0
  0
VERTEX
  8
0
 10
71.2129
 20
40.9021
 30
0.0
 40
0
 41
0
  0
VERTEX
  8
0
 10
71.2026
 20
40.9129
 30
0.0
 40
0
 41
0
  0
VERTEX
  8
0
 10
71.1928
 20
40.924
 30
0.0
 40
0
 41
0
  0
VERTEX
  8
0
 10
71.1832
 20
40.9353
 30
0.0
 40
0
 41
0
  0
VERTEX
  8
0
 10
71.174
 20
40.9467
 30
0.0
 40
0
 41
0
  0
VERTEX
  8
0
 10
71.1653
 20
40.9583
 30
0.0
 40
0
 41
0
  0
VERTEX
  8
0
 10
71.1568
 20
40.9701
 30
0.0
 40
0
 41
0
  0
VERTEX
  8
0
 10
71.1487
 20
40.9821
 30
0.0
 40
0
 41
0
  0
VERTEX
  8
0
 10
71.141
 20
40.9943
 30
0.0
 40
0
 41
0
  0
VERTEX
  8
0
 10
71.1336
 20
41.0067
 30
0.0
 40
0
 41
0
  0
VERTEX
  8
0
 10
71.1265
 20
41.0193
 30
0.0
 40
0
 41
0
  0
VERTEX
  8
0
 10
71.12
 20
41.0324
 30
0.0
 40
0
 41
0
  0
VERTEX
  8
0
 10
71.1136
 20
41.0457
 30
0.0
 40
0
 41
0
  0
VERTEX
  8
0
 10
71.1076
 20
41.059
 30
0.0
 40
0
 41
0
  0
VERTEX
  8
0
 10
71.1021
 20
41.0725
 30
0.0
 40
0
 41
0
  0
VERTEX
  8
0
 10
71.0969
 20
41.0861
 30
0.0
 40
0
 41
0
  0
VERTEX
  8
0
 10
71.0921
 20
41.0999
 30
0.0
 40
0
 41
0
  0
VERTEX
  8
0
 10
71.0875
 20
41.1136
 30
0.0
 40
0
 41
0
  0
VERTEX
  8
0
 10
71.0833
 20
41.1276
 30
0.0
 40
0
 41
0
  0
VERTEX
  8
0
 10
71.0796
 20
41.1418
 30
0.0
 40
0
 41
0
  0
VERTEX
  8
0
 10
71.0761
 20
41.1561
 30
0.0
 40
0
 41
0
  0
VERTEX
  8
0
 10
71.0731
 20
41.1707
 30
0.0
 40
0
 41
0
  0
VERTEX
  8
0
 10
71.0703
 20
41.1854
 30
0.0
 40
0
 41
0
  0
VERTEX
  8
0
 10
71.0678
 20
41.2001
 30
0.0
 40
0
 41
0
  0
VERTEX
  8
0
 10
71.0657
 20
41.2149
 30
0.0
 40
0
 41
0
  0
VERTEX
  8
0
 10
71.0639
 20
41.2297
 30
0.0
 40
0
 41
0
  0
VERTEX
  8
0
 10
71.0625
 20
41.2446
 30
0.0
 40
0
 41
0
  0
VERTEX
  8
0
 10
71.0614
 20
41.2594
 30
0.0
 40
0
 41
0
  0
VERTEX
  8
0
 10
71.0606
 20
41.2743
 30
0.0
 40
0
 41
0
  0
VERTEX
  8
0
 10
71.06
 20
41.2892
 30
0.0
 40
0
 41
0
  0
VERTEX
  8
0
 10
71.0599
 20
41.3042
 30
0.0
 40
0
 41
0
  0
VERTEX
  8
0
 10
71.0606
 20
41.3425
 30
0.0
 40
0
 41
0
  0
VERTEX
  8
0
 10
71.0628
 20
41.3796
 30
0.0
 40
0
 41
0
  0
VERTEX
  8
0
 10
71.0663
 20
41.4153
 30
0.0
 40
0
 41
0
  0
VERTEX
  8
0
 10
71.0714
 20
41.4497
 30
0.0
 40
0
 41
0
  0
VERTEX
  8
0
 10
71.0778
 20
41.4828
 30
0.0
 40
0
 41
0
  0
VERTEX
  8
0
 10
71.0857
 20
41.5144
 30
0.0
 40
0
 41
0
  0
VERTEX
  8
0
 10
71.095
 20
41.5449
 30
0.0
 40
0
 41
0
  0
VERTEX
  8
0
 10
71.1057
 20
41.5739
 30
0.0
 40
0
 41
0
  0
VERTEX
  8
0
 10
71.1179
 20
41.6017
 30
0.0
 40
0
 41
0
  0
VERTEX
  8
0
 10
71.1315
 20
41.6281
 30
0.0
 40
0
 41
0
  0
VERTEX
  8
0
 10
71.1467
 20
41.6535
 30
0.0
 40
0
 41
0
  0
VERTEX
  8
0
 10
71.1633
 20
41.6774
 30
0.0
 40
0
 41
0
  0
VERTEX
  8
0
 10
71.1818
 20
41.7
 30
0.0
 40
0
 41
0
  0
VERTEX
  8
0
 10
71.2018
 20
41.7212
 30
0.0
 40
0
 41
0
  0
VERTEX
  8
0
 10
71.2235
 20
41.7411
 30
0.0
 40
0
 41
0
  0
VERTEX
  8
0
 10
71.2467
 20
41.7597
 30
0.0
 40
0
 41
0
  0
VERTEX
  8
0
 10
71.2717
 20
41.7768
 30
0.0
 40
0
 41
0
  0
VERTEX
  8
0
 10
71.2982
 20
41.7926
 30
0.0
 40
0
 41
0
  0
VERTEX
  8
0
 10
71.3263
 20
41.8071
 30
0.0
 40
0
 41
0
  0
VERTEX
  8
0
 10
71.3561
 20
41.8201
 30
0.0
 40
0
 41
0
  0
VERTEX
  8
0
 10
71.3561
 20
41.8332
 30
0.0
 40
0
 41
0
  0
VERTEX
  8
0
 10
71.341
 20
41.8418
 30
0.0
 40
0
 41
0
  0
VERTEX
  8
0
 10
71.3264
 20
41.8507
 30
0.0
 40
0
 41
0
  0
VERTEX
  8
0
 10
71.3121
 20
41.86
 30
0.0
 40
0
 41
0
  0
VERTEX
  8
0
 10
71.2983
 20
41.8696
 30
0.0
 40
0
 41
0
  0
VERTEX
  8
0
 10
71.2849
 20
41.8796
 30
0.0
 40
0
 41
0
  0
VERTEX
  8
0
 10
71.2719
 20
41.8897
 30
0.0
 40
0
 41
0
  0
VERTEX
  8
0
 10
71.2593
 20
41.9004
 30
0.0
 40
0
 41
0
  0
VERTEX
  8
0
 10
71.2472
 20
41.9113
 30
0.0
 40
0
 41
0
  0
VERTEX
  8
0
 10
71.2356
 20
41.9225
 30
0.0
 40
0
 41
0
  0
VERTEX
  8
0
 10
71.2243
 20
41.934
 30
0.0
 40
0
 41
0
  0
VERTEX
  8
0
 10
71.2133
 20
41.9462
 30
0.0
 40
0
 41
0
  0
VERTEX
  8
0
 10
71.2029
 20
41.9585
 30
0.0
 40
0
 41
0
  0
VERTEX
  8
0
 10
71.1928
 20
41.9711
 30
0.0
 40
0
 41
0
  0
VERTEX
  8
0
 10
71.1831
 20
41.9838
 30
0.0
 40
0
 41
0
  0
VERTEX
  8
0
 10
71.1737
 20
41.9967
 30
0.0
 40
0
 41
0
  0
VERTEX
  8
0
 10
71.1649
 20
42.0099
 30
0.0
 40
0
 41
0
  0
VERTEX
  8
0
 10
71.1564
 20
42.0232
 30
0.0
 40
0
 41
0
  0
VERTEX
  8
0
 10
71.1482
 20
42.0367
 30
0.0
 40
0
 41
0
  0
VERTEX
  8
0
 10
71.1404
 20
42.0504
 30
0.0
 40
0
 41
0
  0
VERTEX
  8
0
 10
71.1331
 20
42.0643
 30
0.0
 40
0
 41
0
  0
VERTEX
  8
0
 10
71.1258
 20
42.0786
 30
0.0
 40
0
 41
0
  0
VERTEX
  8
0
 10
71.1189
 20
42.0932
 30
0.0
 40
0
 41
0
  0
VERTEX
  8
0
 10
71.1124
 20
42.1078
 30
0.0
 40
0
 41
0
  0
VERTEX
  8
0
 10
71.1062
 20
42.1226
 30
0.0
 40
0
 41
0
  0
VERTEX
  8
0
 10
71.1006
 20
42.1375
 30
0.0
 40
0
 41
0
  0
VERTEX
  8
0
 10
71.0953
 20
42.1525
 30
0.0
 40
0
 41
0
  0
VERTEX
  8
0
 10
71.0903
 20
42.1676
 30
0.0
 40
0
 41
0
  0
VERTEX
  8
0
 10
71.0857
 20
42.1831
 30
0.0
 40
0
 41
0
  0
VERTEX
  8
0
 10
71.0815
 20
42.1985
 30
0.0
 40
0
 41
0
  0
VERTEX
  8
0
 10
71.0778
 20
42.214
 30
0.0
 40
0
 41
0
  0
VERTEX
  8
0
 10
71.0743
 20
42.2296
 30
0.0
 40
0
 41
0
  0
VERTEX
  8
0
 10
71.0714
 20
42.2454
 30
0.0
 40
0
 41
0
  0
VERTEX
  8
0
 10
71.0686
 20
42.2611
 30
0.0
 40
0
 41
0
  0
VERTEX
  8
0
 10
71.0663
 20
42.2769
 30
0.0
 40
0
 41
0
  0
VERTEX
  8
0
 10
71.0643
 20
42.2929
 30
0.0
 40
0
 41
0
  0
VERTEX
  8
0
 10
71.0628
 20
42.3089
 30
0.0
 40
0
 41
0
  0
VERTEX
  8
0
 10
71.0615
 20
42.325
 30
0.0
 40
0
 41
0
  0
VERTEX
  8
0
 10
71.0606
 20
42.3411
 30
0.0
 40
0
 41
0
  0
VERTEX
  8
0
 10
71.06
 20
42.3572
 30
0.0
 40
0
 41
0
  0
VERTEX
  8
0
 10
71.0599
 20
42.3735
 30
0.0
 40
0
 41
0
  0
VERTEX
  8
0
 10
71.0614
 20
42.429
 30
0.0
 40
0
 41
0
  0
VERTEX
  8
0
 10
71.0661
 20
42.4818
 30
0.0
 40
0
 41
0
  0
VERTEX
  8
0
 10
71.0739
 20
42.5317
 30
0.0
 40
0
 41
0
  0
VERTEX
  8
0
 10
71.0849
 20
42.5787
 30
0.0
 40
0
 41
0
  0
VERTEX
  8
0
 10
71.0989
 20
42.6229
 30
0.0
 40
0
 41
0
  0
VERTEX
  8
0
 10
71.1161
 20
42.6643
 30
0.0
 40
0
 41
0
  0
VERTEX
  8
0
 10
71.1364
 20
42.7029
 30
0.0
 40
0
 41
0
  0
VERTEX
  8
0
 10
71.1599
 20
42.7386
 30
0.0
 40
0
 41
0
  0
VERTEX
  8
0
 10
71.1864
 20
42.7715
 30
0.0
 40
0
 41
0
  0
VERTEX
  8
0
 10
71.2161
 20
42.8015
 30
0.0
 40
0
 41
0
  0
VERTEX
  8
0
 10
71.2489
 20
42.829
 30
0.0
 40
0
 41
0
  0
VERTEX
  8
0
 10
71.2854
 20
42.8537
 30
0.0
 40
0
 41
0
  0
VERTEX
  8
0
 10
71.3257
 20
42.8754
 30
0.0
 40
0
 41
0
  0
VERTEX
  8
0
 10
71.3697
 20
42.8943
 30
0.0
 40
0
 41
0
  0
VERTEX
  8
0
 10
71.4175
 20
42.9101
 30
0.0
 40
0
 41
0
  0
VERTEX
  8
0
 10
71.469
 20
42.9232
 30
0.0
 40
0
 41
0
  0
VERTEX
  8
0
 10
71.5243
 20
42.9333
 30
0.0
 40
0
 41
0
  0
VERTEX
  8
0
 10
71.5833
 20
42.9406
 30
0.0
 40
0
 41
0
  0
VERTEX
  8
0
 10
71.6461
 20
42.945
 30
0.0
 40
0
 41
0
  0
VERTEX
  8
0
 10
71.7125
 20
42.9464
 30
0.0
 40
0
 41
0
  0
VERTEX
  8
0
 10
72.8796
 20
42.9464
 30
0.0
 40
0
 41
0
  0
VERTEX
  8
0
 10
72.8796
 20
42.6501
 30
0.0
 40
0
 41
0
  0
SEQEND
 8
0
  0
POLYLINE
  8
0
 62
     0
 66
     1
 10
0
 20
0
 30
0.0
 70
     1
 40
0
 41
0
  0
VERTEX
  8
0
 10
72.8796
 20
45.6368
 30
0.0
 40
0
 41
0
  0
VERTEX
  8
0
 10
71.7288
 20
45.6368
 30
0.0
 40
0
 41
0
  0
VERTEX
  8
0
 10
71.6875
 20
45.636
 30
0.0
 40
0
 41
0
  0
VERTEX
  8
0
 10
71.6485
 20
45.6336
 30
0.0
 40
0
 41
0
  0
VERTEX
  8
0
 10
71.6114
 20
45.6296
 30
0.0
 40
0
 41
0
  0
VERTEX
  8
0
 10
71.5765
 20
45.6239
 30
0.0
 40
0
 41
0
  0
VERTEX
  8
0
 10
71.5436
 20
45.6165
 30
0.0
 40
0
 41
0
  0
VERTEX
  8
0
 10
71.5131
 20
45.6075
 30
0.0
 40
0
 41
0
  0
VERTEX
  8
0
 10
71.4844
 20
45.5969
 30
0.0
 40
0
 41
0
  0
VERTEX
  8
0
 10
71.4579
 20
45.5847
 30
0.0
 40
0
 41
0
  0
VERTEX
  8
0
 10
71.4336
 20
45.571
 30
0.0
 40
0
 41
0
  0
VERTEX
  8
0
 10
71.4114
 20
45.5554
 30
0.0
 40
0
 41
0
  0
VERTEX
  8
0
 10
71.3914
 20
45.5383
 30
0.0
 40
0
 41
0
  0
VERTEX
  8
0
 10
71.3733
 20
45.5193
 30
0.0
 40
0
 41
0
  0
VERTEX
  8
0
 10
71.3575
 20
45.4986
 30
0.0
 40
0
 41
0
  0
VERTEX
  8
0
 10
71.3438
 20
45.476
 30
0.0
 40
0
 41
0
  0
VERTEX
  8
0
 10
71.3321
 20
45.4517
 30
0.0
 40
0
 41
0
  0
VERTEX
  8
0
 10
71.3225
 20
45.4256
 30
0.0
 40
0
 41
0
  0
VERTEX
  8
0
 10
71.3151
 20
45.3976
 30
0.0
 40
0
 41
0
  0
VERTEX
  8
0
 10
71.3099
 20
45.3679
 30
0.0
 40
0
 41
0
  0
VERTEX
  8
0
 10
71.3067
 20
45.3365
 30
0.0
 40
0
 41
0
  0
VERTEX
  8
0
 10
71.3057
 20
45.3032
 30
0.0
 40
0
 41
0
  0
VERTEX
  8
0
 10
71.306
 20
45.2797
 30
0.0
 40
0
 41
0
  0
VERTEX
  8
0
 10
71.3072
 20
45.2571
 30
0.0
 40
0
 41
0
  0
VERTEX
  8
0
 10
71.3092
 20
45.2351
 30
0.0
 40
0
 41
0
  0
VERTEX
  8
0
 10
71.3119
 20
45.2139
 30
0.0
 40
0
 41
0
  0
VERTEX
  8
0
 10
71.3154
 20
45.1933
 30
0.0
 40
0
 41
0
  0
VERTEX
  8
0
 10
71.3197
 20
45.1735
 30
0.0
 40
0
 41
0
  0
VERTEX
  8
0
 10
71.3247
 20
45.1544
 30
0.0
 40
0
 41
0
  0
VERTEX
  8
0
 10
71.3307
 20
45.136
 30
0.0
 40
0
 41
0
  0
VERTEX
  8
0
 10
71.3372
 20
45.1183
 30
0.0
 40
0
 41
0
  0
VERTEX
  8
0
 10
71.3447
 20
45.1014
 30
0.0
 40
0
 41
0
  0
VERTEX
  8
0
 10
71.3525
 20
45.085
 30
0.0
 40
0
 41
0
  0
VERTEX
  8
0
 10
71.3611
 20
45.0693
 30
0.0
 40
0
 41
0
  0
VERTEX
  8
0
 10
71.3706
 20
45.0542
 30
0.0
 40
0
 41
0
  0
VERTEX
  8
0
 10
71.3807
 20
45.0396
 30
0.0
 40
0
 41
0
  0
VERTEX
  8
0
 10
71.3915
 20
45.0257
 30
0.0
 40
0
 41
0
  0
VERTEX
  8
0
 10
71.4031
 20
45.0124
 30
0.0
 40
0
 41
0
  0
VERTEX
  8
0
 10
71.4154
 20
44.9994
 30
0.0
 40
0
 41
0
  0
VERTEX
  8
0
 10
71.4286
 20
44.9874
 30
0.0
 40
0
 41
0
  0
VERTEX
  8
0
 10
71.4424
 20
44.9757
 30
0.0
 40
0
 41
0
  0
VERTEX
  8
0
 10
71.4569
 20
44.9646
 30
0.0
 40
0
 41
0
  0
VERTEX
  8
0
 10
71.4721
 20
44.9544
 30
0.0
 40
0
 41
0
  0
VERTEX
  8
0
 10
71.4878
 20
44.9449
 30
0.0
 40
0
 41
0
  0
VERTEX
  8
0
 10
71.5043
 20
44.9358
 30
0.0
 40
0
 41
0
  0
VERTEX
  8
0
 10
71.5215
 20
44.9274
 30
0.0
 40
0
 41
0
  0
VERTEX
  8
0
 10
71.5396
 20
44.9194
 30
0.0
 40
0
 41
0
  0
VERTEX
  8
0
 10
71.5583
 20
44.9121
 30
0.0
 40
0
 41
0
  0
VERTEX
  8
0
 10
71.5779
 20
44.9053
 30
0.0
 40
0
 41
0
  0
VERTEX
  8
0
 10
71.5982
 20
44.899
 30
0.0
 40
0
 41
0
  0
VERTEX
  8
0
 10
71.6192
 20
44.8933
 30
0.0
 40
0
 41
0
  0
VERTEX
  8
0
 10
71.641
 20
44.8882
 30
0.0
 40
0
 41
0
  0
VERTEX
  8
0
 10
71.6631
 20
44.8835
 30
0.0
 40
0
 41
0
  0
VERTEX
  8
0
 10
71.686
 20
44.8793
 30
0.0
 40
0
 41
0
  0
VERTEX
  8
0
 10
71.7094
 20
44.8757
 30
0.0
 40
0
 41
0
  0
VERTEX
  8
0
 10
71.7336
 20
44.8725
 30
0.0
 40
0
 41
0
  0
VERTEX
  8
0
 10
71.7585
 20
44.8699
 30
0.0
 40
0
 41
0
  0
VERTEX
  8
0
 10
71.784
 20
44.8676
 30
0.0
 40
0
 41
0
  0
VERTEX
  8
0
 10
71.8103
 20
44.866
 30
0.0
 40
0
 41
0
  0
VERTEX
  8
0
 10
71.8372
 20
44.8647
 30
0.0
 40
0
 41
0
  0
VERTEX
  8
0
 10
71.8649
 20
44.864
 30
0.0
 40
0
 41
0
  0
VERTEX
  8
0
 10
71.8932
 20
44.8637
 30
0.0
 40
0
 41
0
  0
VERTEX
  8
0
 10
72.8796
 20
44.8637
 30
0.0
 40
0
 41
0
  0
VERTEX
  8
0
 10
72.8796
 20
44.5658
 30
0.0
 40
0
 41
0
  0
VERTEX
  8
0
 10
71.7288
 20
44.5658
 30
0.0
 40
0
 41
0
  0
VERTEX
  8
0
 10
71.6875
 20
44.565
 30
0.0
 40
0
 41
0
  0
VERTEX
  8
0
 10
71.6485
 20
44.5626
 30
0.0
 40
0
 41
0
  0
VERTEX
  8
0
 10
71.6114
 20
44.5586
 30
0.0
 40
0
 41
0
  0
VERTEX
  8
0
 10
71.5765
 20
44.5529
 30
0.0
 40
0
 41
0
  0
VERTEX
  8
0
 10
71.5436
 20
44.5456
 30
0.0
 40
0
 41
0
  0
VERTEX
  8
0
 10
71.5131
 20
44.5365
 30
0.0
 40
0
 41
0
  0
VERTEX
  8
0
 10
71.4844
 20
44.526
 30
0.0
 40
0
 41
0
  0
VERTEX
  8
0
 10
71.4579
 20
44.5138
 30
0.0
 40
0
 41
0
  0
VERTEX
  8
0
 10
71.4336
 20
44.5
 30
0.0
 40
0
 41
0
  0
VERTEX
  8
0
 10
71.4114
 20
44.4844
 30
0.0
 40
0
 41
0
  0
VERTEX
  8
0
 10
71.3914
 20
44.4676
 30
0.0
 40
0
 41
0
  0
VERTEX
  8
0
 10
71.3733
 20
44.4489
 30
0.0
 40
0
 41
0
  0
VERTEX
  8
0
 10
71.3575
 20
44.4285
 30
0.0
 40
0
 41
0
  0
VERTEX
  8
0
 10
71.3438
 20
44.4061
 30
0.0
 40
0
 41
0
  0
VERTEX
  8
0
 10
71.3321
 20
44.3819
 30
0.0
 40
0
 41
0
  0
VERTEX
  8
0
 10
71.3225
 20
44.356
 30
0.0
 40
0
 41
0
  0
VERTEX
  8
0
 10
71.3151
 20
44.3282
 30
0.0
 40
0
 41
0
  0
VERTEX
  8
0
 10
71.3099
 20
44.2986
 30
0.0
 40
0
 41
0
  0
VERTEX
  8
0
 10
71.3067
 20
44.2671
 30
0.0
 40
0
 41
0
  0
VERTEX
  8
0
 10
71.3057
 20
44.2339
 30
0.0
 40
0
 41
0
  0
VERTEX
  8
0
 10
71.3061
 20
44.2092
 30
0.0
 40
0
 41
0
  0
VERTEX
  8
0
 10
71.3074
 20
44.1853
 30
0.0
 40
0
 41
0
  0
VERTEX
  8
0
 10
71.3094
 20
44.1624
 30
0.0
 40
0
 41
0
  0
VERTEX
  8
0
 10
71.3124
 20
44.1401
 30
0.0
 40
0
 41
0
  0
VERTEX
  8
0
 10
71.3163
 20
44.1188
 30
0.0
 40
0
 41
0
  0
VERTEX
  8
0
 10
71.3208
 20
44.0981
 30
0.0
 40
0
 41
0
  0
VERTEX
  8
0
 10
71.3264
 20
44.0783
 30
0.0
 40
0
 41
0
  0
VERTEX
  8
0
 10
71.3328
 20
44.0593
 30
0.0
 40
0
 41
0
  0
VERTEX
  8
0
 10
71.3399
 20
44.0412
 30
0.0
 40
0
 41
0
  0
VERTEX
  8
0
 10
71.3479
 20
44.0239
 30
0.0
 40
0
 41
0
  0
VERTEX
  8
0
 10
71.3568
 20
44.0072
 30
0.0
 40
0
 41
0
  0
VERTEX
  8
0
 10
71.3665
 20
43.9914
 30
0.0
 40
0
 41
0
  0
VERTEX
  8
0
 10
71.3769
 20
43.976
 30
0.0
 40
0
 41
0
  0
VERTEX
  8
0
 10
71.3883
 20
43.9614
 30
0.0
 40
0
 41
0
  0
VERTEX
  8
0
 10
71.4004
 20
43.9474
 30
0.0
 40
0
 41
0
  0
VERTEX
  8
0
 10
71.4133
 20
43.934
 30
0.0
 40
0
 41
0
  0
VERTEX
  8
0
 10
71.4271
 20
43.9214
 30
0.0
 40
0
 41
0
  0
VERTEX
  8
0
 10
71.4417
 20
43.9093
 30
0.0
 40
0
 41
0
  0
VERTEX
  8
0
 10
71.4571
 20
43.8979
 30
0.0
 40
0
 41
0
  0
VERTEX
  8
0
 10
71.4733
 20
43.8872
 30
0.0
 40
0
 41
0
  0
VERTEX
  8
0
 10
71.4903
 20
43.8774
 30
0.0
 40
0
 41
0
  0
VERTEX
  8
0
 10
71.5079
 20
43.8681
 30
0.0
 40
0
 41
0
  0
VERTEX
  8
0
 10
71.5264
 20
43.8594
 30
0.0
 40
0
 41
0
  0
VERTEX
  8
0
 10
71.5457
 20
43.8513
 30
0.0
 40
0
 41
0
  0
VERTEX
  8
0
 10
71.5657
 20
43.8436
 30
0.0
 40
0
 41
0
  0
VERTEX
  8
0
 10
71.5864
 20
43.8365
 30
0.0
 40
0
 41
0
  0
VERTEX
  8
0
 10
71.6078
 20
43.8301
 30
0.0
 40
0
 41
0
  0
VERTEX
  8
0
 10
71.63
 20
43.8242
 30
0.0
 40
0
 41
0
  0
VERTEX
  8
0
 10
71.6531
 20
43.8187
 30
0.0
 40
0
 41
0
  0
VERTEX
  8
0
 10
71.6767
 20
43.8139
 30
0.0
 40
0
 41
0
  0
VERTEX
  8
0
 10
71.7011
 20
43.8099
 30
0.0
 40
0
 41
0
  0
VERTEX
  8
0
 10
71.7264
 20
43.8063
 30
0.0
 40
0
 41
0
  0
VERTEX
  8
0
 10
71.7522
 20
43.8032
 30
0.0
 40
0
 41
0
  0
VERTEX
  8
0
 10
71.7787
 20
43.8004
 30
0.0
 40
0
 41
0
  0
VERTEX
  8
0
 10
71.8061
 20
43.7981
 30
0.0
 40
0
 41
0
  0
VERTEX
  8
0
 10
71.8342
 20
43.7961
 30
0.0
 40
0
 41
0
  0
VERTEX
  8
0
 10
71.8629
 20
43.7947
 30
0.0
 40
0
 41
0
  0
VERTEX
  8
0
 10
71.8924
 20
43.7936
 30
0.0
 40
0
 41
0
  0
VERTEX
  8
0
 10
71.9225
 20
43.7929
 30
0.0
 40
0
 41
0
  0
VERTEX
  8
0
 10
71.9535
 20
43.7928
 30
0.0
 40
0
 41
0
  0
VERTEX
  8
0
 10
72.8796
 20
43.7928
 30
0.0
 40
0
 41
0
  0
VERTEX
  8
0
 10
72.8796
 20
43.4965
 30
0.0
 40
0
 41
0
  0
VERTEX
  8
0
 10
71.0924
 20
43.4965
 30
0.0
 40
0
 41
0
  0
VERTEX
  8
0
 10
71.0924
 20
43.7374
 30
0.0
 40
0
 41
0
  0
VERTEX
  8
0
 10
71.3333
 20
43.7797
 30
0.0
 40
0
 41
0
  0
VERTEX
  8
0
 10
71.3333
 20
43.796
 30
0.0
 40
0
 41
0
  0
VERTEX
  8
0
 10
71.3194
 20
43.804
 30
0.0
 40
0
 41
0
  0
VERTEX
  8
0
 10
71.3061
 20
43.8122
 30
0.0
 40
0
 41
0
  0
VERTEX
  8
0
 10
71.2931
 20
43.8208
 30
0.0
 40
0
 41
0
  0
VERTEX
  8
0
 10
71.2804
 20
43.8296
 30
0.0
 40
0
 41
0
  0
VERTEX
  8
0
 10
71.2682
 20
43.8387
 30
0.0
 40
0
 41
0
  0
VERTEX
  8
0
 10
71.2564
 20
43.8482
 30
0.0
 40
0
 41
0
  0
VERTEX
  8
0
 10
71.2449
 20
43.8579
 30
0.0
 40
0
 41
0
  0
VERTEX
  8
0
 10
71.2339
 20
43.8679
 30
0.0
 40
0
 41
0
  0
VERTEX
  8
0
 10
71.2232
 20
43.8782
 30
0.0
 40
0
 41
0
  0
VERTEX
  8
0
 10
71.2129
 20
43.8888
 30
0.0
 40
0
 41
0
  0
VERTEX
  8
0
 10
71.2026
 20
43.8996
 30
0.0
 40
0
 41
0
  0
VERTEX
  8
0
 10
71.1928
 20
43.9107
 30
0.0
 40
0
 41
0
  0
VERTEX
  8
0
 10
71.1832
 20
43.9219
 30
0.0
 40
0
 41
0
  0
VERTEX
  8
0
 10
71.174
 20
43.9333
 30
0.0
 40
0
 41
0
  0
VERTEX
  8
0
 10
71.1653
 20
43.945
 30
0.0
 40
0
 41
0
  0
VERTEX
  8
0
 10
71.1568
 20
43.9568
 30
0.0
 40
0
 41
0
  0
VERTEX
  8
0
 10
71.1487
 20
43.9688
 30
0.0
 40
0
 41
0
  0
VERTEX
  8
0
 10
71.141
 20
43.981
 30
0.0
 40
0
 41
0
  0
VERTEX
  8
0
 10
71.1336
 20
43.9933
 30
0.0
 40
0
 41
0
  0
VERTEX
  8
0
 10
71.1265
 20
44.006
 30
0.0
 40
0
 41
0
  0
VERTEX
  8
0
 10
71.12
 20
44.019
 30
0.0
 40
0
 41
0
  0
VERTEX
  8
0
 10
71.1136
 20
44.0322
 30
0.0
 40
0
 41
0
  0
VERTEX
  8
0
 10
71.1076
 20
44.0457
 30
0.0
 40
0
 41
0
  0
VERTEX
  8
0
 10
71.1021
 20
44.0592
 30
0.0
 40
0
 41
0
  0
VERTEX
  8
0
 10
71.0969
 20
44.0728
 30
0.0
 40
0
 41
0
  0
VERTEX
  8
0
 10
71.0921
 20
44.0864
 30
0.0
 40
0
 41
0
  0
VERTEX
  8
0
 10
71.0875
 20
44.1003
 30
0.0
 40
0
 41
0
  0
VERTEX
  8
0
 10
71.0833
 20
44.1143
 30
0.0
 40
0
 41
0
  0
VERTEX
  8
0
 10
71.0796
 20
44.1285
 30
0.0
 40
0
 41
0
  0
VERTEX
  8
0
 10
71.0761
 20
44.1426
 30
0.0
 40
0
 41
0
  0
VERTEX
  8
0
 10
71.0731
 20
44.1574
 30
0.0
 40
0
 41
0
  0
VERTEX
  8
0
 10
71.0703
 20
44.1721
 30
0.0
 40
0
 41
0
  0
VERTEX
  8
0
 10
71.0678
 20
44.1868
 30
0.0
 40
0
 41
0
  0
VERTEX
  8
0
 10
71.0657
 20
44.2015
 30
0.0
 40
0
 41
0
  0
VERTEX
  8
0
 10
71.0639
 20
44.2164
 30
0.0
 40
0
 41
0
  0
VERTEX
  8
0
 10
71.0625
 20
44.2311
 30
0.0
 40
0
 41
0
  0
VERTEX
  8
0
 10
71.0614
 20
44.246
 30
0.0
 40
0
 41
0
  0
VERTEX
  8
0
 10
71.0606
 20
44.261
 30
0.0
 40
0
 41
0
  0
VERTEX
  8
0
 10
71.06
 20
44.2758
 30
0.0
 40
0
 41
0
  0
VERTEX
  8
0
 10
71.0599
 20
44.2908
 30
0.0
 40
0
 41
0
  0
VERTEX
  8
0
 10
71.0606
 20
44.3292
 30
0.0
 40
0
 41
0
  0
VERTEX
  8
0
 10
71.0628
 20
44.3663
 30
0.0
 40
0
 41
0
  0
VERTEX
  8
0
 10
71.0663
 20
44.4019
 30
0.0
 40
0
 41
0
  0
VERTEX
  8
0
 10
71.0714
 20
44.4364
 30
0.0
 40
0
 41
0
  0
VERTEX
  8
0
 10
71.0778
 20
44.4694
 30
0.0
 40
0
 41
0
  0
VERTEX
  8
0
 10
71.0857
 20
44.5011
 30
0.0
 40
0
 41
0
  0
VERTEX
  8
0
 10
71.095
 20
44.5315
 30
0.0
 40
0
 41
0
  0
VERTEX
  8
0
 10
71.1057
 20
44.5606
 30
0.0
 40
0
 41
0
  0
VERTEX
  8
0
 10
71.1179
 20
44.5883
 30
0.0
 40
0
 41
0
  0
VERTEX
  8
0
 10
71.1315
 20
44.6147
 30
0.0
 40
0
 41
0
  0
VERTEX
  8
0
 10
71.1467
 20
44.64
 30
0.0
 40
0
 41
0
  0
VERTEX
  8
0
 10
71.1633
 20
44.664
 30
0.0
 40
0
 41
0
  0
VERTEX
  8
0
 10
71.1818
 20
44.6867
 30
0.0
 40
0
 41
0
  0
VERTEX
  8
0
 10
71.2018
 20
44.7079
 30
0.0
 40
0
 41
0
  0
VERTEX
  8
0
 10
71.2235
 20
44.7278
 30
0.0
 40
0
 41
0
  0
VERTEX
  8
0
 10
71.2467
 20
44.7464
 30
0.0
 40
0
 41
0
  0
VERTEX
  8
0
 10
71.2717
 20
44.7635
 30
0.0
 40
0
 41
0
  0
VERTEX
  8
0
 10
71.2982
 20
44.7793
 30
0.0
 40
0
 41
0
  0
VERTEX
  8
0
 10
71.3263
 20
44.7937
 30
0.0
 40
0
 41
0
  0
VERTEX
  8
0
 10
71.3561
 20
44.8068
 30
0.0
 40
0
 41
0
  0
VERTEX
  8
0
 10
71.3561
 20
44.8197
 30
0.0
 40
0
 41
0
  0
VERTEX
  8
0
 10
71.341
 20
44.8285
 30
0.0
 40
0
 41
0
  0
VERTEX
  8
0
 10
71.3264
 20
44.8374
 30
0.0
 40
0
 41
0
  0
VERTEX
  8
0
 10
71.3121
 20
44.8467
 30
0.0
 40
0
 41
0
  0
VERTEX
  8
0
 10
71.2983
 20
44.8562
 30
0.0
 40
0
 41
0
  0
VERTEX
  8
0
 10
71.2849
 20
44.8661
 30
0.0
 40
0
 41
0
  0
VERTEX
  8
0
 10
71.2719
 20
44.8764
 30
0.0
 40
0
 41
0
  0
VERTEX
  8
0
 10
71.2593
 20
44.8869
 30
0.0
 40
0
 41
0
  0
VERTEX
  8
0
 10
71.2472
 20
44.8979
 30
0.0
 40
0
 41
0
  0
VERTEX
  8
0
 10
71.2356
 20
44.9092
 30
0.0
 40
0
 41
0
  0
VERTEX
  8
0
 10
71.2243
 20
44.9207
 30
0.0
 40
0
 41
0
  0
VERTEX
  8
0
 10
71.2133
 20
44.9328
 30
0.0
 40
0
 41
0
  0
VERTEX
  8
0
 10
71.2029
 20
44.9451
 30
0.0
 40
0
 41
0
  0
VERTEX
  8
0
 10
71.1928
 20
44.9576
 30
0.0
 40
0
 41
0
  0
VERTEX
  8
0
 10
71.1831
 20
44.9704
 30
0.0
 40
0
 41
0
  0
VERTEX
  8
0
 10
71.1737
 20
44.9833
 30
0.0
 40
0
 41
0
  0
VERTEX
  8
0
 10
71.1649
 20
44.9965
 30
0.0
 40
0
 41
0
  0
VERTEX
  8
0
 10
71.1564
 20
45.0097
 30
0.0
 40
0
 41
0
  0
VERTEX
  8
0
 10
71.1482
 20
45.0233
 30
0.0
 40
0
 41
0
  0
VERTEX
  8
0
 10
71.1404
 20
45.0369
 30
0.0
 40
0
 41
0
  0
VERTEX
  8
0
 10
71.1331
 20
45.051
 30
0.0
 40
0
 41
0
  0
VERTEX
  8
0
 10
71.1258
 20
45.0653
 30
0.0
 40
0
 41
0
  0
VERTEX
  8
0
 10
71.1189
 20
45.0799
 30
0.0
 40
0
 41
0
  0
VERTEX
  8
0
 10
71.1124
 20
45.0944
 30
0.0
 40
0
 41
0
  0
VERTEX
  8
0
 10
71.1062
 20
45.1093
 30
0.0
 40
0
 41
0
  0
VERTEX
  8
0
 10
71.1006
 20
45.1242
 30
0.0
 40
0
 41
0
  0
VERTEX
  8
0
 10
71.0953
 20
45.1392
 30
0.0
 40
0
 41
0
  0
VERTEX
  8
0
 10
71.0903
 20
45.1543
 30
0.0
 40
0
 41
0
  0
VERTEX
  8
0
 10
71.0857
 20
45.1697
 30
0.0
 40
0
 41
0
  0
VERTEX
  8
0
 10
71.0815
 20
45.1851
 30
0.0
 40
0
 41
0
  0
VERTEX
  8
0
 10
71.0778
 20
45.2007
 30
0.0
 40
0
 41
0
  0
VERTEX
  8
0
 10
71.0743
 20
45.2163
 30
0.0
 40
0
 41
0
  0
VERTEX
  8
0
 10
71.0714
 20
45.2321
 30
0.0
 40
0
 41
0
  0
VERTEX
  8
0
 10
71.0686
 20
45.2478
 30
0.0
 40
0
 41
0
  0
VERTEX
  8
0
 10
71.0663
 20
45.2636
 30
0.0
 40
0
 41
0
  0
VERTEX
  8
0
 10
71.0643
 20
45.2796
 30
0.0
 40
0
 41
0
  0
VERTEX
  8
0
 10
71.0628
 20
45.2956
 30
0.0
 40
0
 41
0
  0
VERTEX
  8
0
 10
71.0615
 20
45.3117
 30
0.0
 40
0
 41
0
  0
VERTEX
  8
0
 10
71.0606
 20
45.3278
 30
0.0
 40
0
 41
0
  0
VERTEX
  8
0
 10
71.06
 20
45.3439
 30
0.0
 40
0
 41
0
  0
VERTEX
  8
0
 10
71.0599
 20
45.3601
 30
0.0
 40
0
 41
0
  0
VERTEX
  8
0
 10
71.0614
 20
45.4157
 30
0.0
 40
0
 41
0
  0
VERTEX
  8
0
 10
71.0661
 20
45.4685
 30
0.0
 40
0
 41
0
  0
VERTEX
  8
0
 10
71.0739
 20
45.5183
 30
0.0
 40
0
 41
0
  0
VERTEX
  8
0
 10
71.0849
 20
45.5654
 30
0.0
 40
0
 41
0
  0
VERTEX
  8
0
 10
71.0989
 20
45.6096
 30
0.0
 40
0
 41
0
  0
VERTEX
  8
0
 10
71.1161
 20
45.651
 30
0.0
 40
0
 41
0
  0
VERTEX
  8
0
 10
71.1364
 20
45.6896
 30
0.0
 40
0
 41
0
  0
VERTEX
  8
0
 10
71.1599
 20
45.7253
 30
0.0
 40
0
 41
0
  0
VERTEX
  8
0
 10
71.1864
 20
45.7582
 30
0.0
 40
0
 41
0
  0
VERTEX
  8
0
 10
71.2161
 20
45.7882
 30
0.0
 40
0
 41
0
  0
VERTEX
  8
0
 10
71.2489
 20
45.8157
 30
0.0
 40
0
 41
0
  0
VERTEX
  8
0
 10
71.2854
 20
45.8404
 30
0.0
 40
0
 41
0
  0
VERTEX
  8
0
 10
71.3257
 20
45.8621
 30
0.0
 40
0
 41
0
  0
VERTEX
  8
0
 10
71.3697
 20
45.881
 30
0.0
 40
0
 41
0
  0
VERTEX
  8
0
 10
71.4175
 20
45.8968
 30
0.0
 40
0
 41
0
  0
VERTEX
  8
0
 10
71.469
 20
45.9099
 30
0.0
 40
0
 41
0
  0
VERTEX
  8
0
 10
71.5243
 20
45.92
 30
0.0
 40
0
 41
0
  0
VERTEX
  8
0
 10
71.5833
 20
45.9272
 30
0.0
 40
0
 41
0
  0
VERTEX
  8
0
 10
71.6461
 20
45.9317
 30
0.0
 40
0
 41
0
  0
VERTEX
  8
0
 10
71.7125
 20
45.9331
 30
0.0
 40
0
 41
0
  0
VERTEX
  8
0
 10
72.8796
 20
45.9331
 30
0.0
 40
0
 41
0
  0
VERTEX
  8
0
 10
72.8796
 20
45.6368
 30
0.0
 40
0
 41
0
  0
SEQEND
 8
0
  0
ENDSEC
  0
EOF
