  0
SECTION
  2
HEADER
  9
$ACADVER
  1
AC1009
  9
$EXTMIN
 10
0.0
 20
0.0
 30
0.0
  9
$EXTMAX
 10
1000.0
 20
1000.0
 30
0.0
  9
$FILLMODE
 70
 0
  9
$SPLFRAME
 70
 1
  0
ENDSEC
  0
SECTION
  2
TABLES
  0
TABLE
  2
LAYER
 70
1
  0
LAYER
  2
0
 70
     0
 62
     7
  6
CONTINUOUS
  0
ENDTAB
  0
ENDSEC
  0
SECTION
  2
ENTITIES
  0
POLYLINE
  8
0
 62
     0
 66
     1
 10
0
 20
0
 30
0.0
 70
     1
 40
0
 41
0
  0
VERTEX
  8
0
 10
304
 20
146.8
 30
0.0
 40
0
 41
0
  0
VERTEX
  8
0
 10
303.975
 20
147.585
 30
0.0
 40
0
 41
0
  0
VERTEX
  8
0
 10
303.901
 20
148.369
 30
0.0
 40
0
 41
0
  0
VERTEX
  8
0
 10
303.778
 20
149.153
 30
0.0
 40
0
 41
0
  0
VERTEX
  8
0
 10
303.606
 20
149.933
 30
0.0
 40
0
 41
0
  0
VERTEX
  8
0
 10
303.385
 20
150.711
 30
0.0
 40
0
 41
0
  0
VERTEX
  8
0
 10
303.114
 20
151.485
 30
0.0
 40
0
 41
0
  0
VERTEX
  8
0
 10
302.796
 20
152.254
 30
0.0
 40
0
 41
0
  0
VERTEX
  8
0
 10
302.429
 20
153.017
 30
0.0
 40
0
 41
0
  0
VERTEX
  8
0
 10
302.015
 20
153.775
 30
0.0
 40
0
 41
0
  0
VERTEX
  8
0
 10
301.553
 20
154.525
 30
0.0
 40
0
 41
0
  0
VERTEX
  8
0
 10
301.044
 20
155.268
 30
0.0
 40
0
 41
0
  0
VERTEX
  8
0
 10
300.489
 20
156.003
 30
0.0
 40
0
 41
0
  0
VERTEX
  8
0
 10
299.888
 20
156.729
 30
0.0
 40
0
 41
0
  0
VERTEX
  8
0
 10
299.242
 20
157.444
 30
0.0
 40
0
 41
0
  0
VERTEX
  8
0
 10
298.55
 20
158.15
 30
0.0
 40
0
 41
0
  0
VERTEX
  8
0
 10
297.815
 20
158.844
 30
0.0
 40
0
 41
0
  0
VERTEX
  8
0
 10
297.037
 20
159.526
 30
0.0
 40
0
 41
0
  0
VERTEX
  8
0
 10
296.217
 20
160.196
 30
0.0
 40
0
 41
0
  0
VERTEX
  8
0
 10
295.354
 20
160.851
 30
0.0
 40
0
 41
0
  0
VERTEX
  8
0
 10
294.45
 20
161.494
 30
0.0
 40
0
 41
0
  0
VERTEX
  8
0
 10
293.508
 20
162.122
 30
0.0
 40
0
 41
0
  0
VERTEX
  8
0
 10
292.525
 20
162.736
 30
0.0
 40
0
 41
0
  0
VERTEX
  8
0
 10
291.506
 20
163.333
 30
0.0
 40
0
 41
0
  0
VERTEX
  8
0
 10
290.449
 20
163.914
 30
0.0
 40
0
 41
0
  0
VERTEX
  8
0
 10
289.356
 20
164.478
 30
0.0
 40
0
 41
0
  0
VERTEX
  8
0
 10
288.228
 20
165.024
 30
0.0
 40
0
 41
0
  0
VERTEX
  8
0
 10
287.065
 20
165.553
 30
0.0
 40
0
 41
0
  0
VERTEX
  8
0
 10
285.871
 20
166.063
 30
0.0
 40
0
 41
0
  0
VERTEX
  8
0
 10
284.646
 20
166.554
 30
0.0
 40
0
 41
0
  0
VERTEX
  8
0
 10
283.389
 20
167.025
 30
0.0
 40
0
 41
0
  0
VERTEX
  8
0
 10
282.104
 20
167.476
 30
0.0
 40
0
 41
0
  0
VERTEX
  8
0
 10
280.792
 20
167.908
 30
0.0
 40
0
 41
0
  0
VERTEX
  8
0
 10
279.451
 20
168.318
 30
0.0
 40
0
 41
0
  0
VERTEX
  8
0
 10
278.088
 20
168.707
 30
0.0
 40
0
 41
0
  0
VERTEX
  8
0
 10
276.7
 20
169.075
 30
0.0
 40
0
 41
0
  0
VERTEX
  8
0
 10
275.289
 20
169.421
 30
0.0
 40
0
 41
0
  0
VERTEX
  8
0
 10
273.857
 20
169.744
 30
0.0
 40
0
 41
0
  0
VERTEX
  8
0
 10
272.406
 20
170.044
 30
0.0
 40
0
 41
0
  0
VERTEX
  8
0
 10
270.936
 20
170.322
 30
0.0
 40
0
 41
0
  0
VERTEX
  8
0
 10
269.45
 20
170.576
 30
0.0
 40
0
 41
0
  0
VERTEX
  8
0
 10
267.95
 20
170.807
 30
0.0
 40
0
 41
0
  0
VERTEX
  8
0
 10
266.435
 20
171.015
 30
0.0
 40
0
 41
0
  0
VERTEX
  8
0
 10
264.907
 20
171.199
 30
0.0
 40
0
 41
0
  0
VERTEX
  8
0
 10
263.369
 20
171.357
 30
0.0
 40
0
 41
0
  0
VERTEX
  8
0
 10
261.821
 20
171.492
 30
0.0
 40
0
 41
0
  0
VERTEX
  8
0
 10
260.267
 20
171.603
 30
0.0
 40
0
 41
0
  0
VERTEX
  8
0
 10
258.706
 20
171.689
 30
0.0
 40
0
 41
0
  0
VERTEX
  8
0
 10
257.139
 20
171.751
 30
0.0
 40
0
 41
0
  0
VERTEX
  8
0
 10
255.571
 20
171.788
 30
0.0
 40
0
 41
0
  0
VERTEX
  8
0
 10
254
 20
171.8
 30
0.0
 40
0
 41
0
  0
VERTEX
  8
0
 10
252.429
 20
171.788
 30
0.0
 40
0
 41
0
  0
VERTEX
  8
0
 10
250.86
 20
171.751
 30
0.0
 40
0
 41
0
  0
VERTEX
  8
0
 10
249.294
 20
171.689
 30
0.0
 40
0
 41
0
  0
VERTEX
  8
0
 10
247.733
 20
171.603
 30
0.0
 40
0
 41
0
  0
VERTEX
  8
0
 10
246.178
 20
171.492
 30
0.0
 40
0
 41
0
  0
VERTEX
  8
0
 10
244.631
 20
171.357
 30
0.0
 40
0
 41
0
  0
VERTEX
  8
0
 10
243.093
 20
171.199
 30
0.0
 40
0
 41
0
  0
VERTEX
  8
0
 10
241.565
 20
171.015
 30
0.0
 40
0
 41
0
  0
VERTEX
  8
0
 10
240.05
 20
170.807
 30
0.0
 40
0
 41
0
  0
VERTEX
  8
0
 10
238.549
 20
170.576
 30
0.0
 40
0
 41
0
  0
VERTEX
  8
0
 10
237.063
 20
170.322
 30
0.0
 40
0
 41
0
  0
VERTEX
  8
0
 10
235.593
 20
170.044
 30
0.0
 40
0
 41
0
  0
VERTEX
  8
0
 10
234.143
 20
169.744
 30
0.0
 40
0
 41
0
  0
VERTEX
  8
0
 10
232.711
 20
169.421
 30
0.0
 40
0
 41
0
  0
VERTEX
  8
0
 10
231.3
 20
169.075
 30
0.0
 40
0
 41
0
  0
VERTEX
  8
0
 10
229.912
 20
168.707
 30
0.0
 40
0
 41
0
  0
VERTEX
  8
0
 10
228.547
 20
168.318
 30
0.0
 40
0
 41
0
  0
VERTEX
  8
0
 10
227.208
 20
167.908
 30
0.0
 40
0
 41
0
  0
VERTEX
  8
0
 10
225.896
 20
167.476
 30
0.0
 40
0
 41
0
  0
VERTEX
  8
0
 10
224.611
 20
167.025
 30
0.0
 40
0
 41
0
  0
VERTEX
  8
0
 10
223.354
 20
166.554
 30
0.0
 40
0
 41
0
  0
VERTEX
  8
0
 10
222.129
 20
166.063
 30
0.0
 40
0
 41
0
  0
VERTEX
  8
0
 10
220.935
 20
165.553
 30
0.0
 40
0
 41
0
  0
VERTEX
  8
0
 10
219.772
 20
165.024
 30
0.0
 40
0
 41
0
  0
VERTEX
  8
0
 10
218.644
 20
164.478
 30
0.0
 40
0
 41
0
  0
VERTEX
  8
0
 10
217.551
 20
163.914
 30
0.0
 40
0
 41
0
  0
VERTEX
  8
0
 10
216.494
 20
163.333
 30
0.0
 40
0
 41
0
  0
VERTEX
  8
0
 10
215.474
 20
162.736
 30
0.0
 40
0
 41
0
  0
VERTEX
  8
0
 10
214.492
 20
162.122
 30
0.0
 40
0
 41
0
  0
VERTEX
  8
0
 10
213.549
 20
161.494
 30
0.0
 40
0
 41
0
  0
VERTEX
  8
0
 10
212.646
 20
160.851
 30
0.0
 40
0
 41
0
  0
VERTEX
  8
0
 10
211.783
 20
160.196
 30
0.0
 40
0
 41
0
  0
VERTEX
  8
0
 10
210.962
 20
159.526
 30
0.0
 40
0
 41
0
  0
VERTEX
  8
0
 10
210.185
 20
158.844
 30
0.0
 40
0
 41
0
  0
VERTEX
  8
0
 10
209.45
 20
158.15
 30
0.0
 40
0
 41
0
  0
VERTEX
  8
0
 10
208.758
 20
157.444
 30
0.0
 40
0
 41
0
  0
VERTEX
  8
0
 10
208.112
 20
156.729
 30
0.0
 40
0
 41
0
  0
VERTEX
  8
0
 10
207.511
 20
156.003
 30
0.0
 40
0
 41
0
  0
VERTEX
  8
0
 10
206.956
 20
155.268
 30
0.0
 40
0
 41
0
  0
VERTEX
  8
0
 10
206.447
 20
154.525
 30
0.0
 40
0
 41
0
  0
VERTEX
  8
0
 10
205.985
 20
153.775
 30
0.0
 40
0
 41
0
  0
VERTEX
  8
0
 10
205.571
 20
153.017
 30
0.0
 40
0
 41
0
  0
VERTEX
  8
0
 10
205.204
 20
152.254
 30
0.0
 40
0
 41
0
  0
VERTEX
  8
0
 10
204.886
 20
151.485
 30
0.0
 40
0
 41
0
  0
VERTEX
  8
0
 10
204.615
 20
150.711
 30
0.0
 40
0
 41
0
  0
VERTEX
  8
0
 10
204.394
 20
149.933
 30
0.0
 40
0
 41
0
  0
VERTEX
  8
0
 10
204.222
 20
149.153
 30
0.0
 40
0
 41
0
  0
VERTEX
  8
0
 10
204.099
 20
148.369
 30
0.0
 40
0
 41
0
  0
VERTEX
  8
0
 10
204.025
 20
147.585
 30
0.0
 40
0
 41
0
  0
VERTEX
  8
0
 10
204
 20
146.8
 30
0.0
 40
0
 41
0
  0
VERTEX
  8
0
 10
304
 20
146.8
 30
0.0
 40
0
 41
0
  0
SEQEND
 8
0
  0
POLYLINE
  8
0
 62
     0
 66
     1
 10
0
 20
0
 30
0.0
 70
     1
 40
0.75
 41
0.75
  0
VERTEX
  8
0
 10
304
 20
146.8
 30
0.0
 40
0.0104167
 41
0.0104167
  0
VERTEX
  8
0
 10
303.975
 20
147.585
 30
0.0
 40
0.0104167
 41
0.0104167
  0
VERTEX
  8
0
 10
303.901
 20
148.369
 30
0.0
 40
0.0104167
 41
0.0104167
  0
VERTEX
  8
0
 10
303.778
 20
149.153
 30
0.0
 40
0.0104167
 41
0.0104167
  0
VERTEX
  8
0
 10
303.606
 20
149.933
 30
0.0
 40
0.0104167
 41
0.0104167
  0
VERTEX
  8
0
 10
303.385
 20
150.711
 30
0.0
 40
0.0104167
 41
0.0104167
  0
VERTEX
  8
0
 10
303.114
 20
151.485
 30
0.0
 40
0.0104167
 41
0.0104167
  0
VERTEX
  8
0
 10
302.796
 20
152.254
 30
0.0
 40
0.0104167
 41
0.0104167
  0
VERTEX
  8
0
 10
302.429
 20
153.017
 30
0.0
 40
0.0104167
 41
0.0104167
  0
VERTEX
  8
0
 10
302.015
 20
153.775
 30
0.0
 40
0.0104167
 41
0.0104167
  0
VERTEX
  8
0
 10
301.553
 20
154.525
 30
0.0
 40
0.0104167
 41
0.0104167
  0
VERTEX
  8
0
 10
301.044
 20
155.268
 30
0.0
 40
0.0104167
 41
0.0104167
  0
VERTEX
  8
0
 10
300.489
 20
156.003
 30
0.0
 40
0.0104167
 41
0.0104167
  0
VERTEX
  8
0
 10
299.888
 20
156.729
 30
0.0
 40
0.0104167
 41
0.0104167
  0
VERTEX
  8
0
 10
299.242
 20
157.444
 30
0.0
 40
0.0104167
 41
0.0104167
  0
VERTEX
  8
0
 10
298.55
 20
158.15
 30
0.0
 40
0.0104167
 41
0.0104167
  0
VERTEX
  8
0
 10
297.815
 20
158.844
 30
0.0
 40
0.0104167
 41
0.0104167
  0
VERTEX
  8
0
 10
297.037
 20
159.526
 30
0.0
 40
0.0104167
 41
0.0104167
  0
VERTEX
  8
0
 10
296.217
 20
160.196
 30
0.0
 40
0.0104167
 41
0.0104167
  0
VERTEX
  8
0
 10
295.354
 20
160.851
 30
0.0
 40
0.0104167
 41
0.0104167
  0
VERTEX
  8
0
 10
294.45
 20
161.494
 30
0.0
 40
0.0104167
 41
0.0104167
  0
VERTEX
  8
0
 10
293.508
 20
162.122
 30
0.0
 40
0.0104167
 41
0.0104167
  0
VERTEX
  8
0
 10
292.525
 20
162.736
 30
0.0
 40
0.0104167
 41
0.0104167
  0
VERTEX
  8
0
 10
291.506
 20
163.333
 30
0.0
 40
0.0104167
 41
0.0104167
  0
VERTEX
  8
0
 10
290.449
 20
163.914
 30
0.0
 40
0.0104167
 41
0.0104167
  0
VERTEX
  8
0
 10
289.356
 20
164.478
 30
0.0
 40
0.0104167
 41
0.0104167
  0
VERTEX
  8
0
 10
288.228
 20
165.024
 30
0.0
 40
0.0104167
 41
0.0104167
  0
VERTEX
  8
0
 10
287.065
 20
165.553
 30
0.0
 40
0.0104167
 41
0.0104167
  0
VERTEX
  8
0
 10
285.871
 20
166.063
 30
0.0
 40
0.0104167
 41
0.0104167
  0
VERTEX
  8
0
 10
284.646
 20
166.554
 30
0.0
 40
0.0104167
 41
0.0104167
  0
VERTEX
  8
0
 10
283.389
 20
167.025
 30
0.0
 40
0.0104167
 41
0.0104167
  0
VERTEX
  8
0
 10
282.104
 20
167.476
 30
0.0
 40
0.0104167
 41
0.0104167
  0
VERTEX
  8
0
 10
280.792
 20
167.908
 30
0.0
 40
0.0104167
 41
0.0104167
  0
VERTEX
  8
0
 10
279.451
 20
168.318
 30
0.0
 40
0.0104167
 41
0.0104167
  0
VERTEX
  8
0
 10
278.088
 20
168.707
 30
0.0
 40
0.0104167
 41
0.0104167
  0
VERTEX
  8
0
 10
276.7
 20
169.075
 30
0.0
 40
0.0104167
 41
0.0104167
  0
VERTEX
  8
0
 10
275.289
 20
169.421
 30
0.0
 40
0.0104167
 41
0.0104167
  0
VERTEX
  8
0
 10
273.857
 20
169.744
 30
0.0
 40
0.0104167
 41
0.0104167
  0
VERTEX
  8
0
 10
272.406
 20
170.044
 30
0.0
 40
0.0104167
 41
0.0104167
  0
VERTEX
  8
0
 10
270.936
 20
170.322
 30
0.0
 40
0.0104167
 41
0.0104167
  0
VERTEX
  8
0
 10
269.45
 20
170.576
 30
0.0
 40
0.0104167
 41
0.0104167
  0
VERTEX
  8
0
 10
267.95
 20
170.807
 30
0.0
 40
0.0104167
 41
0.0104167
  0
VERTEX
  8
0
 10
266.435
 20
171.015
 30
0.0
 40
0.0104167
 41
0.0104167
  0
VERTEX
  8
0
 10
264.907
 20
171.199
 30
0.0
 40
0.0104167
 41
0.0104167
  0
VERTEX
  8
0
 10
263.369
 20
171.357
 30
0.0
 40
0.0104167
 41
0.0104167
  0
VERTEX
  8
0
 10
261.821
 20
171.492
 30
0.0
 40
0.0104167
 41
0.0104167
  0
VERTEX
  8
0
 10
260.267
 20
171.603
 30
0.0
 40
0.0104167
 41
0.0104167
  0
VERTEX
  8
0
 10
258.706
 20
171.689
 30
0.0
 40
0.0104167
 41
0.0104167
  0
VERTEX
  8
0
 10
257.139
 20
171.751
 30
0.0
 40
0.0104167
 41
0.0104167
  0
VERTEX
  8
0
 10
255.571
 20
171.788
 30
0.0
 40
0.0104167
 41
0.0104167
  0
VERTEX
  8
0
 10
254
 20
171.8
 30
0.0
 40
0.0104167
 41
0.0104167
  0
VERTEX
  8
0
 10
252.429
 20
171.788
 30
0.0
 40
0.0104167
 41
0.0104167
  0
VERTEX
  8
0
 10
250.86
 20
171.751
 30
0.0
 40
0.0104167
 41
0.0104167
  0
VERTEX
  8
0
 10
249.294
 20
171.689
 30
0.0
 40
0.0104167
 41
0.0104167
  0
VERTEX
  8
0
 10
247.733
 20
171.603
 30
0.0
 40
0.0104167
 41
0.0104167
  0
VERTEX
  8
0
 10
246.178
 20
171.492
 30
0.0
 40
0.0104167
 41
0.0104167
  0
VERTEX
  8
0
 10
244.631
 20
171.357
 30
0.0
 40
0.0104167
 41
0.0104167
  0
VERTEX
  8
0
 10
243.093
 20
171.199
 30
0.0
 40
0.0104167
 41
0.0104167
  0
VERTEX
  8
0
 10
241.565
 20
171.015
 30
0.0
 40
0.0104167
 41
0.0104167
  0
VERTEX
  8
0
 10
240.05
 20
170.807
 30
0.0
 40
0.0104167
 41
0.0104167
  0
VERTEX
  8
0
 10
238.549
 20
170.576
 30
0.0
 40
0.0104167
 41
0.0104167
  0
VERTEX
  8
0
 10
237.063
 20
170.322
 30
0.0
 40
0.0104167
 41
0.0104167
  0
VERTEX
  8
0
 10
235.593
 20
170.044
 30
0.0
 40
0.0104167
 41
0.0104167
  0
VERTEX
  8
0
 10
234.143
 20
169.744
 30
0.0
 40
0.0104167
 41
0.0104167
  0
VERTEX
  8
0
 10
232.711
 20
169.421
 30
0.0
 40
0.0104167
 41
0.0104167
  0
VERTEX
  8
0
 10
231.3
 20
169.075
 30
0.0
 40
0.0104167
 41
0.0104167
  0
VERTEX
  8
0
 10
229.912
 20
168.707
 30
0.0
 40
0.0104167
 41
0.0104167
  0
VERTEX
  8
0
 10
228.547
 20
168.318
 30
0.0
 40
0.0104167
 41
0.0104167
  0
VERTEX
  8
0
 10
227.208
 20
167.908
 30
0.0
 40
0.0104167
 41
0.0104167
  0
VERTEX
  8
0
 10
225.896
 20
167.476
 30
0.0
 40
0.0104167
 41
0.0104167
  0
VERTEX
  8
0
 10
224.611
 20
167.025
 30
0.0
 40
0.0104167
 41
0.0104167
  0
VERTEX
  8
0
 10
223.354
 20
166.554
 30
0.0
 40
0.0104167
 41
0.0104167
  0
VERTEX
  8
0
 10
222.129
 20
166.063
 30
0.0
 40
0.0104167
 41
0.0104167
  0
VERTEX
  8
0
 10
220.935
 20
165.553
 30
0.0
 40
0.0104167
 41
0.0104167
  0
VERTEX
  8
0
 10
219.772
 20
165.024
 30
0.0
 40
0.0104167
 41
0.0104167
  0
VERTEX
  8
0
 10
218.644
 20
164.478
 30
0.0
 40
0.0104167
 41
0.0104167
  0
VERTEX
  8
0
 10
217.551
 20
163.914
 30
0.0
 40
0.0104167
 41
0.0104167
  0
VERTEX
  8
0
 10
216.494
 20
163.333
 30
0.0
 40
0.0104167
 41
0.0104167
  0
VERTEX
  8
0
 10
215.474
 20
162.736
 30
0.0
 40
0.0104167
 41
0.0104167
  0
VERTEX
  8
0
 10
214.492
 20
162.122
 30
0.0
 40
0.0104167
 41
0.0104167
  0
VERTEX
  8
0
 10
213.549
 20
161.494
 30
0.0
 40
0.0104167
 41
0.0104167
  0
VERTEX
  8
0
 10
212.646
 20
160.851
 30
0.0
 40
0.0104167
 41
0.0104167
  0
VERTEX
  8
0
 10
211.783
 20
160.196
 30
0.0
 40
0.0104167
 41
0.0104167
  0
VERTEX
  8
0
 10
210.962
 20
159.526
 30
0.0
 40
0.0104167
 41
0.0104167
  0
VERTEX
  8
0
 10
210.185
 20
158.844
 30
0.0
 40
0.0104167
 41
0.0104167
  0
VERTEX
  8
0
 10
209.45
 20
158.15
 30
0.0
 40
0.0104167
 41
0.0104167
  0
VERTEX
  8
0
 10
208.758
 20
157.444
 30
0.0
 40
0.0104167
 41
0.0104167
  0
VERTEX
  8
0
 10
208.112
 20
156.729
 30
0.0
 40
0.0104167
 41
0.0104167
  0
VERTEX
  8
0
 10
207.511
 20
156.003
 30
0.0
 40
0.0104167
 41
0.0104167
  0
VERTEX
  8
0
 10
206.956
 20
155.268
 30
0.0
 40
0.0104167
 41
0.0104167
  0
VERTEX
  8
0
 10
206.447
 20
154.525
 30
0.0
 40
0.0104167
 41
0.0104167
  0
VERTEX
  8
0
 10
205.985
 20
153.775
 30
0.0
 40
0.0104167
 41
0.0104167
  0
VERTEX
  8
0
 10
205.571
 20
153.017
 30
0.0
 40
0.0104167
 41
0.0104167
  0
VERTEX
  8
0
 10
205.204
 20
152.254
 30
0.0
 40
0.0104167
 41
0.0104167
  0
VERTEX
  8
0
 10
204.886
 20
151.485
 30
0.0
 40
0.0104167
 41
0.0104167
  0
VERTEX
  8
0
 10
204.615
 20
150.711
 30
0.0
 40
0.0104167
 41
0.0104167
  0
VERTEX
  8
0
 10
204.394
 20
149.933
 30
0.0
 40
0.0104167
 41
0.0104167
  0
VERTEX
  8
0
 10
204.222
 20
149.153
 30
0.0
 40
0.0104167
 41
0.0104167
  0
VERTEX
  8
0
 10
204.099
 20
148.369
 30
0.0
 40
0.0104167
 41
0.0104167
  0
VERTEX
  8
0
 10
204.025
 20
147.585
 30
0.0
 40
0.0104167
 41
0.0104167
  0
VERTEX
  8
0
 10
204
 20
146.8
 30
0.0
 40
0.0104167
 41
0.0104167
  0
VERTEX
  8
0
 10
304
 20
146.8
 30
0.0
 40
0.0104167
 41
0.0104167
  0
SEQEND
 8
0
  0
POLYLINE
  8
0
 62
     0
 66
     1
 10
0
 20
0
 30
0.0
 70
     1
 40
0
 41
0
  0
VERTEX
  8
0
 10
204
 20
62.7
 30
0.0
 40
0
 41
0
  0
VERTEX
  8
0
 10
204.025
 20
61.9147
 30
0.0
 40
0
 41
0
  0
VERTEX
  8
0
 10
204.099
 20
61.1303
 30
0.0
 40
0
 41
0
  0
VERTEX
  8
0
 10
204.222
 20
60.3472
 30
0.0
 40
0
 41
0
  0
VERTEX
  8
0
 10
204.394
 20
59.5667
 30
0.0
 40
0
 41
0
  0
VERTEX
  8
0
 10
204.615
 20
58.7892
 30
0.0
 40
0
 41
0
  0
VERTEX
  8
0
 10
204.886
 20
58.0154
 30
0.0
 40
0
 41
0
  0
VERTEX
  8
0
 10
205.204
 20
57.2464
 30
0.0
 40
0
 41
0
  0
VERTEX
  8
0
 10
205.571
 20
56.4828
 30
0.0
 40
0
 41
0
  0
VERTEX
  8
0
 10
205.985
 20
55.7253
 30
0.0
 40
0
 41
0
  0
VERTEX
  8
0
 10
206.447
 20
54.9746
 30
0.0
 40
0
 41
0
  0
VERTEX
  8
0
 10
206.956
 20
54.2315
 30
0.0
 40
0
 41
0
  0
VERTEX
  8
0
 10
207.511
 20
53.4969
 30
0.0
 40
0
 41
0
  0
VERTEX
  8
0
 10
208.112
 20
52.7713
 30
0.0
 40
0
 41
0
  0
VERTEX
  8
0
 10
208.758
 20
52.0556
 30
0.0
 40
0
 41
0
  0
VERTEX
  8
0
 10
209.45
 20
51.3503
 30
0.0
 40
0
 41
0
  0
VERTEX
  8
0
 10
210.185
 20
50.6561
 30
0.0
 40
0
 41
0
  0
VERTEX
  8
0
 10
210.962
 20
49.9739
 30
0.0
 40
0
 41
0
  0
VERTEX
  8
0
 10
211.783
 20
49.3043
 30
0.0
 40
0
 41
0
  0
VERTEX
  8
0
 10
212.646
 20
48.6479
 30
0.0
 40
0
 41
0
  0
VERTEX
  8
0
 10
213.549
 20
48.0054
 30
0.0
 40
0
 41
0
  0
VERTEX
  8
0
 10
214.492
 20
47.3774
 30
0.0
 40
0
 41
0
  0
VERTEX
  8
0
 10
215.474
 20
46.7644
 30
0.0
 40
0
 41
0
  0
VERTEX
  8
0
 10
216.494
 20
46.1672
 30
0.0
 40
0
 41
0
  0
VERTEX
  8
0
 10
217.551
 20
45.5862
 30
0.0
 40
0
 41
0
  0
VERTEX
  8
0
 10
218.644
 20
45.0224
 30
0.0
 40
0
 41
0
  0
VERTEX
  8
0
 10
219.772
 20
44.4758
 30
0.0
 40
0
 41
0
  0
VERTEX
  8
0
 10
220.935
 20
43.9472
 30
0.0
 40
0
 41
0
  0
VERTEX
  8
0
 10
222.129
 20
43.4372
 30
0.0
 40
0
 41
0
  0
VERTEX
  8
0
 10
223.354
 20
42.9461
 30
0.0
 40
0
 41
0
  0
VERTEX
  8
0
 10
224.611
 20
42.4746
 30
0.0
 40
0
 41
0
  0
VERTEX
  8
0
 10
225.896
 20
42.0229
 30
0.0
 40
0
 41
0
  0
VERTEX
  8
0
 10
227.208
 20
41.5918
 30
0.0
 40
0
 41
0
  0
VERTEX
  8
0
 10
228.547
 20
41.1814
 30
0.0
 40
0
 41
0
  0
VERTEX
  8
0
 10
229.912
 20
40.7924
 30
0.0
 40
0
 41
0
  0
VERTEX
  8
0
 10
231.3
 20
40.4249
 30
0.0
 40
0
 41
0
  0
VERTEX
  8
0
 10
232.711
 20
40.0793
 30
0.0
 40
0
 41
0
  0
VERTEX
  8
0
 10
234.143
 20
39.7561
 30
0.0
 40
0
 41
0
  0
VERTEX
  8
0
 10
235.593
 20
39.4556
 30
0.0
 40
0
 41
0
  0
VERTEX
  8
0
 10
237.063
 20
39.1779
 30
0.0
 40
0
 41
0
  0
VERTEX
  8
0
 10
238.549
 20
38.9236
 30
0.0
 40
0
 41
0
  0
VERTEX
  8
0
 10
240.05
 20
38.6926
 30
0.0
 40
0
 41
0
  0
VERTEX
  8
0
 10
241.565
 20
38.4854
 30
0.0
 40
0
 41
0
  0
VERTEX
  8
0
 10
243.093
 20
38.3021
 30
0.0
 40
0
 41
0
  0
VERTEX
  8
0
 10
244.631
 20
38.1428
 30
0.0
 40
0
 41
0
  0
VERTEX
  8
0
 10
246.178
 20
38.0078
 30
0.0
 40
0
 41
0
  0
VERTEX
  8
0
 10
247.733
 20
37.8971
 30
0.0
 40
0
 41
0
  0
VERTEX
  8
0
 10
249.294
 20
37.811
 30
0.0
 40
0
 41
0
  0
VERTEX
  8
0
 10
250.86
 20
37.7493
 30
0.0
 40
0
 41
0
  0
VERTEX
  8
0
 10
252.429
 20
37.7124
 30
0.0
 40
0
 41
0
  0
VERTEX
  8
0
 10
254
 20
37.7
 30
0.0
 40
0
 41
0
  0
VERTEX
  8
0
 10
255.571
 20
37.7124
 30
0.0
 40
0
 41
0
  0
VERTEX
  8
0
 10
257.139
 20
37.7493
 30
0.0
 40
0
 41
0
  0
VERTEX
  8
0
 10
258.706
 20
37.811
 30
0.0
 40
0
 41
0
  0
VERTEX
  8
0
 10
260.267
 20
37.8971
 30
0.0
 40
0
 41
0
  0
VERTEX
  8
0
 10
261.821
 20
38.0078
 30
0.0
 40
0
 41
0
  0
VERTEX
  8
0
 10
263.369
 20
38.1428
 30
0.0
 40
0
 41
0
  0
VERTEX
  8
0
 10
264.907
 20
38.3021
 30
0.0
 40
0
 41
0
  0
VERTEX
  8
0
 10
266.435
 20
38.4854
 30
0.0
 40
0
 41
0
  0
VERTEX
  8
0
 10
267.95
 20
38.6926
 30
0.0
 40
0
 41
0
  0
VERTEX
  8
0
 10
269.45
 20
38.9236
 30
0.0
 40
0
 41
0
  0
VERTEX
  8
0
 10
270.936
 20
39.1779
 30
0.0
 40
0
 41
0
  0
VERTEX
  8
0
 10
272.406
 20
39.4556
 30
0.0
 40
0
 41
0
  0
VERTEX
  8
0
 10
273.857
 20
39.7561
 30
0.0
 40
0
 41
0
  0
VERTEX
  8
0
 10
275.289
 20
40.0793
 30
0.0
 40
0
 41
0
  0
VERTEX
  8
0
 10
276.7
 20
40.4249
 30
0.0
 40
0
 41
0
  0
VERTEX
  8
0
 10
278.088
 20
40.7924
 30
0.0
 40
0
 41
0
  0
VERTEX
  8
0
 10
279.451
 20
41.1814
 30
0.0
 40
0
 41
0
  0
VERTEX
  8
0
 10
280.792
 20
41.5918
 30
0.0
 40
0
 41
0
  0
VERTEX
  8
0
 10
282.104
 20
42.0229
 30
0.0
 40
0
 41
0
  0
VERTEX
  8
0
 10
283.389
 20
42.4746
 30
0.0
 40
0
 41
0
  0
VERTEX
  8
0
 10
284.646
 20
42.9461
 30
0.0
 40
0
 41
0
  0
VERTEX
  8
0
 10
285.871
 20
43.4372
 30
0.0
 40
0
 41
0
  0
VERTEX
  8
0
 10
287.065
 20
43.9472
 30
0.0
 40
0
 41
0
  0
VERTEX
  8
0
 10
288.228
 20
44.4758
 30
0.0
 40
0
 41
0
  0
VERTEX
  8
0
 10
289.356
 20
45.0224
 30
0.0
 40
0
 41
0
  0
VERTEX
  8
0
 10
290.449
 20
45.5862
 30
0.0
 40
0
 41
0
  0
VERTEX
  8
0
 10
291.506
 20
46.1672
 30
0.0
 40
0
 41
0
  0
VERTEX
  8
0
 10
292.525
 20
46.7644
 30
0.0
 40
0
 41
0
  0
VERTEX
  8
0
 10
293.508
 20
47.3774
 30
0.0
 40
0
 41
0
  0
VERTEX
  8
0
 10
294.45
 20
48.0054
 30
0.0
 40
0
 41
0
  0
VERTEX
  8
0
 10
295.354
 20
48.6479
 30
0.0
 40
0
 41
0
  0
VERTEX
  8
0
 10
296.217
 20
49.3043
 30
0.0
 40
0
 41
0
  0
VERTEX
  8
0
 10
297.037
 20
49.9739
 30
0.0
 40
0
 41
0
  0
VERTEX
  8
0
 10
297.815
 20
50.6561
 30
0.0
 40
0
 41
0
  0
VERTEX
  8
0
 10
298.55
 20
51.3503
 30
0.0
 40
0
 41
0
  0
VERTEX
  8
0
 10
299.242
 20
52.0556
 30
0.0
 40
0
 41
0
  0
VERTEX
  8
0
 10
299.888
 20
52.7713
 30
0.0
 40
0
 41
0
  0
VERTEX
  8
0
 10
300.489
 20
53.4969
 30
0.0
 40
0
 41
0
  0
VERTEX
  8
0
 10
301.044
 20
54.2315
 30
0.0
 40
0
 41
0
  0
VERTEX
  8
0
 10
301.553
 20
54.9746
 30
0.0
 40
0
 41
0
  0
VERTEX
  8
0
 10
302.015
 20
55.7253
 30
0.0
 40
0
 41
0
  0
VERTEX
  8
0
 10
302.429
 20
56.4828
 30
0.0
 40
0
 41
0
  0
VERTEX
  8
0
 10
302.796
 20
57.2464
 30
0.0
 40
0
 41
0
  0
VERTEX
  8
0
 10
303.114
 20
58.0154
 30
0.0
 40
0
 41
0
  0
VERTEX
  8
0
 10
303.385
 20
58.7892
 30
0.0
 40
0
 41
0
  0
VERTEX
  8
0
 10
303.606
 20
59.5667
 30
0.0
 40
0
 41
0
  0
VERTEX
  8
0
 10
303.778
 20
60.3472
 30
0.0
 40
0
 41
0
  0
VERTEX
  8
0
 10
303.901
 20
61.1303
 30
0.0
 40
0
 41
0
  0
VERTEX
  8
0
 10
303.975
 20
61.9147
 30
0.0
 40
0
 41
0
  0
VERTEX
  8
0
 10
304
 20
62.7
 30
0.0
 40
0
 41
0
  0
VERTEX
  8
0
 10
204
 20
62.7
 30
0.0
 40
0
 41
0
  0
SEQEND
 8
0
  0
POLYLINE
  8
0
 62
     0
 66
     1
 10
0
 20
0
 30
0.0
 70
     1
 40
0.75
 41
0.75
  0
VERTEX
  8
0
 10
204
 20
62.7
 30
0.0
 40
0.0104167
 41
0.0104167
  0
VERTEX
  8
0
 10
204.025
 20
61.9147
 30
0.0
 40
0.0104167
 41
0.0104167
  0
VERTEX
  8
0
 10
204.099
 20
61.1303
 30
0.0
 40
0.0104167
 41
0.0104167
  0
VERTEX
  8
0
 10
204.222
 20
60.3472
 30
0.0
 40
0.0104167
 41
0.0104167
  0
VERTEX
  8
0
 10
204.394
 20
59.5667
 30
0.0
 40
0.0104167
 41
0.0104167
  0
VERTEX
  8
0
 10
204.615
 20
58.7892
 30
0.0
 40
0.0104167
 41
0.0104167
  0
VERTEX
  8
0
 10
204.886
 20
58.0154
 30
0.0
 40
0.0104167
 41
0.0104167
  0
VERTEX
  8
0
 10
205.204
 20
57.2464
 30
0.0
 40
0.0104167
 41
0.0104167
  0
VERTEX
  8
0
 10
205.571
 20
56.4828
 30
0.0
 40
0.0104167
 41
0.0104167
  0
VERTEX
  8
0
 10
205.985
 20
55.7253
 30
0.0
 40
0.0104167
 41
0.0104167
  0
VERTEX
  8
0
 10
206.447
 20
54.9746
 30
0.0
 40
0.0104167
 41
0.0104167
  0
VERTEX
  8
0
 10
206.956
 20
54.2315
 30
0.0
 40
0.0104167
 41
0.0104167
  0
VERTEX
  8
0
 10
207.511
 20
53.4969
 30
0.0
 40
0.0104167
 41
0.0104167
  0
VERTEX
  8
0
 10
208.112
 20
52.7713
 30
0.0
 40
0.0104167
 41
0.0104167
  0
VERTEX
  8
0
 10
208.758
 20
52.0556
 30
0.0
 40
0.0104167
 41
0.0104167
  0
VERTEX
  8
0
 10
209.45
 20
51.3503
 30
0.0
 40
0.0104167
 41
0.0104167
  0
VERTEX
  8
0
 10
210.185
 20
50.6561
 30
0.0
 40
0.0104167
 41
0.0104167
  0
VERTEX
  8
0
 10
210.962
 20
49.9739
 30
0.0
 40
0.0104167
 41
0.0104167
  0
VERTEX
  8
0
 10
211.783
 20
49.3043
 30
0.0
 40
0.0104167
 41
0.0104167
  0
VERTEX
  8
0
 10
212.646
 20
48.6479
 30
0.0
 40
0.0104167
 41
0.0104167
  0
VERTEX
  8
0
 10
213.549
 20
48.0054
 30
0.0
 40
0.0104167
 41
0.0104167
  0
VERTEX
  8
0
 10
214.492
 20
47.3774
 30
0.0
 40
0.0104167
 41
0.0104167
  0
VERTEX
  8
0
 10
215.474
 20
46.7644
 30
0.0
 40
0.0104167
 41
0.0104167
  0
VERTEX
  8
0
 10
216.494
 20
46.1672
 30
0.0
 40
0.0104167
 41
0.0104167
  0
VERTEX
  8
0
 10
217.551
 20
45.5862
 30
0.0
 40
0.0104167
 41
0.0104167
  0
VERTEX
  8
0
 10
218.644
 20
45.0224
 30
0.0
 40
0.0104167
 41
0.0104167
  0
VERTEX
  8
0
 10
219.772
 20
44.4758
 30
0.0
 40
0.0104167
 41
0.0104167
  0
VERTEX
  8
0
 10
220.935
 20
43.9472
 30
0.0
 40
0.0104167
 41
0.0104167
  0
VERTEX
  8
0
 10
222.129
 20
43.4372
 30
0.0
 40
0.0104167
 41
0.0104167
  0
VERTEX
  8
0
 10
223.354
 20
42.9461
 30
0.0
 40
0.0104167
 41
0.0104167
  0
VERTEX
  8
0
 10
224.611
 20
42.4746
 30
0.0
 40
0.0104167
 41
0.0104167
  0
VERTEX
  8
0
 10
225.896
 20
42.0229
 30
0.0
 40
0.0104167
 41
0.0104167
  0
VERTEX
  8
0
 10
227.208
 20
41.5918
 30
0.0
 40
0.0104167
 41
0.0104167
  0
VERTEX
  8
0
 10
228.547
 20
41.1814
 30
0.0
 40
0.0104167
 41
0.0104167
  0
VERTEX
  8
0
 10
229.912
 20
40.7924
 30
0.0
 40
0.0104167
 41
0.0104167
  0
VERTEX
  8
0
 10
231.3
 20
40.4249
 30
0.0
 40
0.0104167
 41
0.0104167
  0
VERTEX
  8
0
 10
232.711
 20
40.0793
 30
0.0
 40
0.0104167
 41
0.0104167
  0
VERTEX
  8
0
 10
234.143
 20
39.7561
 30
0.0
 40
0.0104167
 41
0.0104167
  0
VERTEX
  8
0
 10
235.593
 20
39.4556
 30
0.0
 40
0.0104167
 41
0.0104167
  0
VERTEX
  8
0
 10
237.063
 20
39.1779
 30
0.0
 40
0.0104167
 41
0.0104167
  0
VERTEX
  8
0
 10
238.549
 20
38.9236
 30
0.0
 40
0.0104167
 41
0.0104167
  0
VERTEX
  8
0
 10
240.05
 20
38.6926
 30
0.0
 40
0.0104167
 41
0.0104167
  0
VERTEX
  8
0
 10
241.565
 20
38.4854
 30
0.0
 40
0.0104167
 41
0.0104167
  0
VERTEX
  8
0
 10
243.093
 20
38.3021
 30
0.0
 40
0.0104167
 41
0.0104167
  0
VERTEX
  8
0
 10
244.631
 20
38.1428
 30
0.0
 40
0.0104167
 41
0.0104167
  0
VERTEX
  8
0
 10
246.178
 20
38.0078
 30
0.0
 40
0.0104167
 41
0.0104167
  0
VERTEX
  8
0
 10
247.733
 20
37.8971
 30
0.0
 40
0.0104167
 41
0.0104167
  0
VERTEX
  8
0
 10
249.294
 20
37.811
 30
0.0
 40
0.0104167
 41
0.0104167
  0
VERTEX
  8
0
 10
250.86
 20
37.7493
 30
0.0
 40
0.0104167
 41
0.0104167
  0
VERTEX
  8
0
 10
252.429
 20
37.7124
 30
0.0
 40
0.0104167
 41
0.0104167
  0
VERTEX
  8
0
 10
254
 20
37.7
 30
0.0
 40
0.0104167
 41
0.0104167
  0
VERTEX
  8
0
 10
255.571
 20
37.7124
 30
0.0
 40
0.0104167
 41
0.0104167
  0
VERTEX
  8
0
 10
257.139
 20
37.7493
 30
0.0
 40
0.0104167
 41
0.0104167
  0
VERTEX
  8
0
 10
258.706
 20
37.811
 30
0.0
 40
0.0104167
 41
0.0104167
  0
VERTEX
  8
0
 10
260.267
 20
37.8971
 30
0.0
 40
0.0104167
 41
0.0104167
  0
VERTEX
  8
0
 10
261.821
 20
38.0078
 30
0.0
 40
0.0104167
 41
0.0104167
  0
VERTEX
  8
0
 10
263.369
 20
38.1428
 30
0.0
 40
0.0104167
 41
0.0104167
  0
VERTEX
  8
0
 10
264.907
 20
38.3021
 30
0.0
 40
0.0104167
 41
0.0104167
  0
VERTEX
  8
0
 10
266.435
 20
38.4854
 30
0.0
 40
0.0104167
 41
0.0104167
  0
VERTEX
  8
0
 10
267.95
 20
38.6926
 30
0.0
 40
0.0104167
 41
0.0104167
  0
VERTEX
  8
0
 10
269.45
 20
38.9236
 30
0.0
 40
0.0104167
 41
0.0104167
  0
VERTEX
  8
0
 10
270.936
 20
39.1779
 30
0.0
 40
0.0104167
 41
0.0104167
  0
VERTEX
  8
0
 10
272.406
 20
39.4556
 30
0.0
 40
0.0104167
 41
0.0104167
  0
VERTEX
  8
0
 10
273.857
 20
39.7561
 30
0.0
 40
0.0104167
 41
0.0104167
  0
VERTEX
  8
0
 10
275.289
 20
40.0793
 30
0.0
 40
0.0104167
 41
0.0104167
  0
VERTEX
  8
0
 10
276.7
 20
40.4249
 30
0.0
 40
0.0104167
 41
0.0104167
  0
VERTEX
  8
0
 10
278.088
 20
40.7924
 30
0.0
 40
0.0104167
 41
0.0104167
  0
VERTEX
  8
0
 10
279.451
 20
41.1814
 30
0.0
 40
0.0104167
 41
0.0104167
  0
VERTEX
  8
0
 10
280.792
 20
41.5918
 30
0.0
 40
0.0104167
 41
0.0104167
  0
VERTEX
  8
0
 10
282.104
 20
42.0229
 30
0.0
 40
0.0104167
 41
0.0104167
  0
VERTEX
  8
0
 10
283.389
 20
42.4746
 30
0.0
 40
0.0104167
 41
0.0104167
  0
VERTEX
  8
0
 10
284.646
 20
42.9461
 30
0.0
 40
0.0104167
 41
0.0104167
  0
VERTEX
  8
0
 10
285.871
 20
43.4372
 30
0.0
 40
0.0104167
 41
0.0104167
  0
VERTEX
  8
0
 10
287.065
 20
43.9472
 30
0.0
 40
0.0104167
 41
0.0104167
  0
VERTEX
  8
0
 10
288.228
 20
44.4758
 30
0.0
 40
0.0104167
 41
0.0104167
  0
VERTEX
  8
0
 10
289.356
 20
45.0224
 30
0.0
 40
0.0104167
 41
0.0104167
  0
VERTEX
  8
0
 10
290.449
 20
45.5862
 30
0.0
 40
0.0104167
 41
0.0104167
  0
VERTEX
  8
0
 10
291.506
 20
46.1672
 30
0.0
 40
0.0104167
 41
0.0104167
  0
VERTEX
  8
0
 10
292.525
 20
46.7644
 30
0.0
 40
0.0104167
 41
0.0104167
  0
VERTEX
  8
0
 10
293.508
 20
47.3774
 30
0.0
 40
0.0104167
 41
0.0104167
  0
VERTEX
  8
0
 10
294.45
 20
48.0054
 30
0.0
 40
0.0104167
 41
0.0104167
  0
VERTEX
  8
0
 10
295.354
 20
48.6479
 30
0.0
 40
0.0104167
 41
0.0104167
  0
VERTEX
  8
0
 10
296.217
 20
49.3043
 30
0.0
 40
0.0104167
 41
0.0104167
  0
VERTEX
  8
0
 10
297.037
 20
49.9739
 30
0.0
 40
0.0104167
 41
0.0104167
  0
VERTEX
  8
0
 10
297.815
 20
50.6561
 30
0.0
 40
0.0104167
 41
0.0104167
  0
VERTEX
  8
0
 10
298.55
 20
51.3503
 30
0.0
 40
0.0104167
 41
0.0104167
  0
VERTEX
  8
0
 10
299.242
 20
52.0556
 30
0.0
 40
0.0104167
 41
0.0104167
  0
VERTEX
  8
0
 10
299.888
 20
52.7713
 30
0.0
 40
0.0104167
 41
0.0104167
  0
VERTEX
  8
0
 10
300.489
 20
53.4969
 30
0.0
 40
0.0104167
 41
0.0104167
  0
VERTEX
  8
0
 10
301.044
 20
54.2315
 30
0.0
 40
0.0104167
 41
0.0104167
  0
VERTEX
  8
0
 10
301.553
 20
54.9746
 30
0.0
 40
0.0104167
 41
0.0104167
  0
VERTEX
  8
0
 10
302.015
 20
55.7253
 30
0.0
 40
0.0104167
 41
0.0104167
  0
VERTEX
  8
0
 10
302.429
 20
56.4828
 30
0.0
 40
0.0104167
 41
0.0104167
  0
VERTEX
  8
0
 10
302.796
 20
57.2464
 30
0.0
 40
0.0104167
 41
0.0104167
  0
VERTEX
  8
0
 10
303.114
 20
58.0154
 30
0.0
 40
0.0104167
 41
0.0104167
  0
VERTEX
  8
0
 10
303.385
 20
58.7892
 30
0.0
 40
0.0104167
 41
0.0104167
  0
VERTEX
  8
0
 10
303.606
 20
59.5667
 30
0.0
 40
0.0104167
 41
0.0104167
  0
VERTEX
  8
0
 10
303.778
 20
60.3472
 30
0.0
 40
0.0104167
 41
0.0104167
  0
VERTEX
  8
0
 10
303.901
 20
61.1303
 30
0.0
 40
0.0104167
 41
0.0104167
  0
VERTEX
  8
0
 10
303.975
 20
61.9147
 30
0.0
 40
0.0104167
 41
0.0104167
  0
VERTEX
  8
0
 10
304
 20
62.7
 30
0.0
 40
0.0104167
 41
0.0104167
  0
VERTEX
  8
0
 10
204
 20
62.7
 30
0.0
 40
0.0104167
 41
0.0104167
  0
SEQEND
 8
0
  0
POLYLINE
  8
0
 62
     0
 66
     1
 10
0
 20
0
 30
0.0
 70
     1
 40
0
 41
0
  0
VERTEX
  8
0
 10
204
 20
146.8
 30
0.0
 40
0
 41
0
  0
VERTEX
  8
0
 10
304
 20
146.8
 30
0.0
 40
0
 41
0
  0
VERTEX
  8
0
 10
304
 20
106.76
 30
0.0
 40
0
 41
0
  0
VERTEX
  8
0
 10
204
 20
106.76
 30
0.0
 40
0
 41
0
  0
VERTEX
  8
0
 10
204
 20
146.8
 30
0.0
 40
0
 41
0
  0
SEQEND
 8
0
  0
POLYLINE
  8
0
 62
     0
 66
     1
 10
0
 20
0
 30
0.0
 70
     1
 40
0
 41
0
  0
VERTEX
  8
0
 10
204
 20
102.74
 30
0.0
 40
0
 41
0
  0
VERTEX
  8
0
 10
304
 20
102.74
 30
0.0
 40
0
 41
0
  0
VERTEX
  8
0
 10
304
 20
62.7
 30
0.0
 40
0
 41
0
  0
VERTEX
  8
0
 10
204
 20
62.7
 30
0.0
 40
0
 41
0
  0
VERTEX
  8
0
 10
204
 20
102.74
 30
0.0
 40
0
 41
0
  0
SEQEND
 8
0
  0
POLYLINE
  8
0
 62
     0
 66
     1
 10
0
 20
0
 30
0.0
 70
     1
 40
0
 41
0
  0
VERTEX
  8
0
 10
204
 20
106.8
 30
0.0
 40
0
 41
0
  0
VERTEX
  8
0
 10
304
 20
106.8
 30
0.0
 40
0
 41
0
  0
VERTEX
  8
0
 10
253.95
 20
104.8
 30
0.0
 40
0
 41
0
  0
VERTEX
  8
0
 10
254.05
 20
104.8
 30
0.0
 40
0
 41
0
  0
VERTEX
  8
0
 10
204
 20
106.8
 30
0.0
 40
0
 41
0
  0
SEQEND
 8
0
  0
POLYLINE
  8
0
 62
     0
 66
     1
 10
0
 20
0
 30
0.0
 70
     1
 40
0
 41
0
  0
VERTEX
  8
0
 10
204
 20
102.7
 30
0.0
 40
0
 41
0
  0
VERTEX
  8
0
 10
304
 20
102.7
 30
0.0
 40
0
 41
0
  0
VERTEX
  8
0
 10
253.95
 20
104.7
 30
0.0
 40
0
 41
0
  0
VERTEX
  8
0
 10
254.05
 20
104.7
 30
0.0
 40
0
 41
0
  0
VERTEX
  8
0
 10
204
 20
102.7
 30
0.0
 40
0
 41
0
  0
SEQEND
 8
0
  0
POLYLINE
  8
0
 62
     0
 66
     1
 10
0
 20
0
 30
0.0
 70
     1
 40
0
 41
0
  0
VERTEX
  8
0
 10
253.95
 20
106.8
 30
0.0
 40
0
 41
0
  0
VERTEX
  8
0
 10
254.05
 20
106.8
 30
0.0
 40
0
 41
0
  0
VERTEX
  8
0
 10
254.05
 20
102.7
 30
0.0
 40
0
 41
0
  0
VERTEX
  8
0
 10
253.95
 20
102.7
 30
0.0
 40
0
 41
0
  0
VERTEX
  8
0
 10
253.95
 20
106.8
 30
0.0
 40
0
 41
0
  0
SEQEND
 8
0
  0
POLYLINE
  8
0
 62
     0
 66
     1
 10
0
 20
0
 30
0.0
 70
     1
 40
0
 41
0
  0
VERTEX
  8
0
 10
202
 20
109.957
 30
0.0
 40
0
 41
0
  0
VERTEX
  8
0
 10
202
 20
109.671
 30
0.0
 40
0
 41
0
  0
VERTEX
  8
0
 10
200.364
 20
109.671
 30
0.0
 40
0
 41
0
  0
VERTEX
  8
0
 10
200.349
 20
109.671
 30
0.0
 40
0
 41
0
  0
VERTEX
  8
0
 10
200.332
 20
109.671
 30
0.0
 40
0
 41
0
  0
VERTEX
  8
0
 10
200.317
 20
109.672
 30
0.0
 40
0
 41
0
  0
VERTEX
  8
0
 10
200.285
 20
109.672
 30
0.0
 40
0
 41
0
  0
VERTEX
  8
0
 10
200.269
 20
109.673
 30
0.0
 40
0
 41
0
  0
VERTEX
  8
0
 10
200.253
 20
109.673
 30
0.0
 40
0
 41
0
  0
VERTEX
  8
0
 10
200.237
 20
109.673
 30
0.0
 40
0
 41
0
  0
VERTEX
  8
0
 10
200.222
 20
109.674
 30
0.0
 40
0
 41
0
  0
VERTEX
  8
0
 10
200.207
 20
109.674
 30
0.0
 40
0
 41
0
  0
VERTEX
  8
0
 10
200.19
 20
109.675
 30
0.0
 40
0
 41
0
  0
VERTEX
  8
0
 10
200.175
 20
109.675
 30
0.0
 40
0
 41
0
  0
VERTEX
  8
0
 10
200.16
 20
109.676
 30
0.0
 40
0
 41
0
  0
VERTEX
  8
0
 10
200.144
 20
109.676
 30
0.0
 40
0
 41
0
  0
VERTEX
  8
0
 10
200.129
 20
109.677
 30
0.0
 40
0
 41
0
  0
VERTEX
  8
0
 10
200.114
 20
109.677
 30
0.0
 40
0
 41
0
  0
VERTEX
  8
0
 10
200.099
 20
109.678
 30
0.0
 40
0
 41
0
  0
VERTEX
  8
0
 10
200.083
 20
109.678
 30
0.0
 40
0
 41
0
  0
VERTEX
  8
0
 10
200.069
 20
109.679
 30
0.0
 40
0
 41
0
  0
VERTEX
  8
0
 10
200.054
 20
109.679
 30
0.0
 40
0
 41
0
  0
VERTEX
  8
0
 10
200.04
 20
109.68
 30
0.0
 40
0
 41
0
  0
VERTEX
  8
0
 10
200.026
 20
109.68
 30
0.0
 40
0
 41
0
  0
VERTEX
  8
0
 10
200.013
 20
109.681
 30
0.0
 40
0
 41
0
  0
VERTEX
  8
0
 10
199.999
 20
109.681
 30
0.0
 40
0
 41
0
  0
VERTEX
  8
0
 10
199.986
 20
109.682
 30
0.0
 40
0
 41
0
  0
VERTEX
  8
0
 10
199.974
 20
109.682
 30
0.0
 40
0
 41
0
  0
VERTEX
  8
0
 10
199.961
 20
109.683
 30
0.0
 40
0
 41
0
  0
VERTEX
  8
0
 10
199.949
 20
109.683
 30
0.0
 40
0
 41
0
  0
VERTEX
  8
0
 10
199.938
 20
109.683
 30
0.0
 40
0
 41
0
  0
VERTEX
  8
0
 10
199.926
 20
109.684
 30
0.0
 40
0
 41
0
  0
VERTEX
  8
0
 10
199.932
 20
109.678
 30
0.0
 40
0
 41
0
  0
VERTEX
  8
0
 10
199.938
 20
109.673
 30
0.0
 40
0
 41
0
  0
VERTEX
  8
0
 10
199.943
 20
109.668
 30
0.0
 40
0
 41
0
  0
VERTEX
  8
0
 10
199.949
 20
109.663
 30
0.0
 40
0
 41
0
  0
VERTEX
  8
0
 10
199.954
 20
109.658
 30
0.0
 40
0
 41
0
  0
VERTEX
  8
0
 10
199.958
 20
109.653
 30
0.0
 40
0
 41
0
  0
VERTEX
  8
0
 10
199.964
 20
109.648
 30
0.0
 40
0
 41
0
  0
VERTEX
  8
0
 10
199.968
 20
109.644
 30
0.0
 40
0
 41
0
  0
VERTEX
  8
0
 10
199.972
 20
109.639
 30
0.0
 40
0
 41
0
  0
VERTEX
  8
0
 10
199.976
 20
109.635
 30
0.0
 40
0
 41
0
  0
VERTEX
  8
0
 10
199.981
 20
109.631
 30
0.0
 40
0
 41
0
  0
VERTEX
  8
0
 10
199.985
 20
109.626
 30
0.0
 40
0
 41
0
  0
VERTEX
  8
0
 10
199.993
 20
109.618
 30
0.0
 40
0
 41
0
  0
VERTEX
  8
0
 10
199.997
 20
109.613
 30
0.0
 40
0
 41
0
  0
VERTEX
  8
0
 10
200.001
 20
109.609
 30
0.0
 40
0
 41
0
  0
VERTEX
  8
0
 10
200.006
 20
109.605
 30
0.0
 40
0
 41
0
  0
VERTEX
  8
0
 10
200.01
 20
109.6
 30
0.0
 40
0
 41
0
  0
VERTEX
  8
0
 10
200.014
 20
109.596
 30
0.0
 40
0
 41
0
  0
VERTEX
  8
0
 10
200.018
 20
109.591
 30
0.0
 40
0
 41
0
  0
VERTEX
  8
0
 10
200.021
 20
109.587
 30
0.0
 40
0
 41
0
  0
VERTEX
  8
0
 10
200.025
 20
109.582
 30
0.0
 40
0
 41
0
  0
VERTEX
  8
0
 10
200.029
 20
109.578
 30
0.0
 40
0
 41
0
  0
VERTEX
  8
0
 10
200.033
 20
109.574
 30
0.0
 40
0
 41
0
  0
VERTEX
  8
0
 10
200.038
 20
109.569
 30
0.0
 40
0
 41
0
  0
VERTEX
  8
0
 10
200.042
 20
109.564
 30
0.0
 40
0
 41
0
  0
VERTEX
  8
0
 10
200.046
 20
109.56
 30
0.0
 40
0
 41
0
  0
VERTEX
  8
0
 10
200.051
 20
109.555
 30
0.0
 40
0
 41
0
  0
VERTEX
  8
0
 10
200.056
 20
109.55
 30
0.0
 40
0
 41
0
  0
VERTEX
  8
0
 10
200.06
 20
109.545
 30
0.0
 40
0
 41
0
  0
VERTEX
  8
0
 10
200.064
 20
109.54
 30
0.0
 40
0
 41
0
  0
VERTEX
  8
0
 10
200.068
 20
109.535
 30
0.0
 40
0
 41
0
  0
VERTEX
  8
0
 10
200.074
 20
109.53
 30
0.0
 40
0
 41
0
  0
VERTEX
  8
0
 10
200.078
 20
109.524
 30
0.0
 40
0
 41
0
  0
VERTEX
  8
0
 10
200.083
 20
109.519
 30
0.0
 40
0
 41
0
  0
VERTEX
  8
0
 10
200.087
 20
109.513
 30
0.0
 40
0
 41
0
  0
VERTEX
  8
0
 10
200.093
 20
109.507
 30
0.0
 40
0
 41
0
  0
VERTEX
  8
0
 10
200.099
 20
109.5
 30
0.0
 40
0
 41
0
  0
VERTEX
  8
0
 10
200.104
 20
109.494
 30
0.0
 40
0
 41
0
  0
VERTEX
  8
0
 10
200.11
 20
109.487
 30
0.0
 40
0
 41
0
  0
VERTEX
  8
0
 10
200.307
 20
109.246
 30
0.0
 40
0
 41
0
  0
VERTEX
  8
0
 10
200.107
 20
109.09
 30
0.0
 40
0
 41
0
  0
VERTEX
  8
0
 10
199.621
 20
109.713
 30
0.0
 40
0
 41
0
  0
VERTEX
  8
0
 10
199.621
 20
109.957
 30
0.0
 40
0
 41
0
  0
VERTEX
  8
0
 10
202
 20
109.957
 30
0.0
 40
0
 41
0
  0
SEQEND
 8
0
  0
POLYLINE
  8
0
 62
     0
 66
     1
 10
0
 20
0
 30
0.0
 70
     1
 40
0
 41
0
  0
VERTEX
  8
0
 10
200.807
 20
112.316
 30
0.0
 40
0
 41
0
  0
VERTEX
  8
0
 10
200.864
 20
112.315
 30
0.0
 40
0
 41
0
  0
VERTEX
  8
0
 10
200.919
 20
112.314
 30
0.0
 40
0
 41
0
  0
VERTEX
  8
0
 10
200.974
 20
112.312
 30
0.0
 40
0
 41
0
  0
VERTEX
  8
0
 10
201.028
 20
112.309
 30
0.0
 40
0
 41
0
  0
VERTEX
  8
0
 10
201.081
 20
112.305
 30
0.0
 40
0
 41
0
  0
VERTEX
  8
0
 10
201.131
 20
112.3
 30
0.0
 40
0
 41
0
  0
VERTEX
  8
0
 10
201.181
 20
112.295
 30
0.0
 40
0
 41
0
  0
VERTEX
  8
0
 10
201.229
 20
112.288
 30
0.0
 40
0
 41
0
  0
VERTEX
  8
0
 10
201.276
 20
112.281
 30
0.0
 40
0
 41
0
  0
VERTEX
  8
0
 10
201.322
 20
112.273
 30
0.0
 40
0
 41
0
  0
VERTEX
  8
0
 10
201.368
 20
112.265
 30
0.0
 40
0
 41
0
  0
VERTEX
  8
0
 10
201.411
 20
112.255
 30
0.0
 40
0
 41
0
  0
VERTEX
  8
0
 10
201.453
 20
112.244
 30
0.0
 40
0
 41
0
  0
VERTEX
  8
0
 10
201.494
 20
112.232
 30
0.0
 40
0
 41
0
  0
VERTEX
  8
0
 10
201.533
 20
112.22
 30
0.0
 40
0
 41
0
  0
VERTEX
  8
0
 10
201.571
 20
112.206
 30
0.0
 40
0
 41
0
  0
VERTEX
  8
0
 10
201.607
 20
112.191
 30
0.0
 40
0
 41
0
  0
VERTEX
  8
0
 10
201.643
 20
112.175
 30
0.0
 40
0
 41
0
  0
VERTEX
  8
0
 10
201.676
 20
112.158
 30
0.0
 40
0
 41
0
  0
VERTEX
  8
0
 10
201.708
 20
112.14
 30
0.0
 40
0
 41
0
  0
VERTEX
  8
0
 10
201.739
 20
112.121
 30
0.0
 40
0
 41
0
  0
VERTEX
  8
0
 10
201.768
 20
112.101
 30
0.0
 40
0
 41
0
  0
VERTEX
  8
0
 10
201.797
 20
112.08
 30
0.0
 40
0
 41
0
  0
VERTEX
  8
0
 10
201.822
 20
112.058
 30
0.0
 40
0
 41
0
  0
VERTEX
  8
0
 10
201.847
 20
112.035
 30
0.0
 40
0
 41
0
  0
VERTEX
  8
0
 10
201.871
 20
112.011
 30
0.0
 40
0
 41
0
  0
VERTEX
  8
0
 10
201.893
 20
111.986
 30
0.0
 40
0
 41
0
  0
VERTEX
  8
0
 10
201.914
 20
111.96
 30
0.0
 40
0
 41
0
  0
VERTEX
  8
0
 10
201.932
 20
111.932
 30
0.0
 40
0
 41
0
  0
VERTEX
  8
0
 10
201.95
 20
111.904
 30
0.0
 40
0
 41
0
  0
VERTEX
  8
0
 10
201.965
 20
111.874
 30
0.0
 40
0
 41
0
  0
VERTEX
  8
0
 10
201.979
 20
111.843
 30
0.0
 40
0
 41
0
  0
VERTEX
  8
0
 10
201.992
 20
111.811
 30
0.0
 40
0
 41
0
  0
VERTEX
  8
0
 10
202.003
 20
111.778
 30
0.0
 40
0
 41
0
  0
VERTEX
  8
0
 10
202.011
 20
111.743
 30
0.0
 40
0
 41
0
  0
VERTEX
  8
0
 10
202.019
 20
111.708
 30
0.0
 40
0
 41
0
  0
VERTEX
  8
0
 10
202.025
 20
111.671
 30
0.0
 40
0
 41
0
  0
VERTEX
  8
0
 10
202.029
 20
111.633
 30
0.0
 40
0
 41
0
  0
VERTEX
  8
0
 10
202.032
 20
111.593
 30
0.0
 40
0
 41
0
  0
VERTEX
  8
0
 10
202.032
 20
111.552
 30
0.0
 40
0
 41
0
  0
VERTEX
  8
0
 10
202.032
 20
111.514
 30
0.0
 40
0
 41
0
  0
VERTEX
  8
0
 10
202.029
 20
111.477
 30
0.0
 40
0
 41
0
  0
VERTEX
  8
0
 10
202.025
 20
111.441
 30
0.0
 40
0
 41
0
  0
VERTEX
  8
0
 10
202.019
 20
111.406
 30
0.0
 40
0
 41
0
  0
VERTEX
  8
0
 10
202.011
 20
111.372
 30
0.0
 40
0
 41
0
  0
VERTEX
  8
0
 10
202.003
 20
111.339
 30
0.0
 40
0
 41
0
  0
VERTEX
  8
0
 10
201.992
 20
111.307
 30
0.0
 40
0
 41
0
  0
VERTEX
  8
0
 10
201.979
 20
111.276
 30
0.0
 40
0
 41
0
  0
VERTEX
  8
0
 10
201.965
 20
111.246
 30
0.0
 40
0
 41
0
  0
VERTEX
  8
0
 10
201.95
 20
111.217
 30
0.0
 40
0
 41
0
  0
VERTEX
  8
0
 10
201.932
 20
111.189
 30
0.0
 40
0
 41
0
  0
VERTEX
  8
0
 10
201.914
 20
111.162
 30
0.0
 40
0
 41
0
  0
VERTEX
  8
0
 10
201.893
 20
111.136
 30
0.0
 40
0
 41
0
  0
VERTEX
  8
0
 10
201.871
 20
111.111
 30
0.0
 40
0
 41
0
  0
VERTEX
  8
0
 10
201.847
 20
111.087
 30
0.0
 40
0
 41
0
  0
VERTEX
  8
0
 10
201.822
 20
111.064
 30
0.0
 40
0
 41
0
  0
VERTEX
  8
0
 10
201.797
 20
111.042
 30
0.0
 40
0
 41
0
  0
VERTEX
  8
0
 10
201.768
 20
111.021
 30
0.0
 40
0
 41
0
  0
VERTEX
  8
0
 10
201.739
 20
111
 30
0.0
 40
0
 41
0
  0
VERTEX
  8
0
 10
201.708
 20
110.981
 30
0.0
 40
0
 41
0
  0
VERTEX
  8
0
 10
201.676
 20
110.963
 30
0.0
 40
0
 41
0
  0
VERTEX
  8
0
 10
201.643
 20
110.946
 30
0.0
 40
0
 41
0
  0
VERTEX
  8
0
 10
201.607
 20
110.929
 30
0.0
 40
0
 41
0
  0
VERTEX
  8
0
 10
201.571
 20
110.914
 30
0.0
 40
0
 41
0
  0
VERTEX
  8
0
 10
201.533
 20
110.9
 30
0.0
 40
0
 41
0
  0
VERTEX
  8
0
 10
201.494
 20
110.886
 30
0.0
 40
0
 41
0
  0
VERTEX
  8
0
 10
201.453
 20
110.873
 30
0.0
 40
0
 41
0
  0
VERTEX
  8
0
 10
201.411
 20
110.862
 30
0.0
 40
0
 41
0
  0
VERTEX
  8
0
 10
201.368
 20
110.851
 30
0.0
 40
0
 41
0
  0
VERTEX
  8
0
 10
201.322
 20
110.841
 30
0.0
 40
0
 41
0
  0
VERTEX
  8
0
 10
201.276
 20
110.832
 30
0.0
 40
0
 41
0
  0
VERTEX
  8
0
 10
201.229
 20
110.825
 30
0.0
 40
0
 41
0
  0
VERTEX
  8
0
 10
201.181
 20
110.818
 30
0.0
 40
0
 41
0
  0
VERTEX
  8
0
 10
201.131
 20
110.812
 30
0.0
 40
0
 41
0
  0
VERTEX
  8
0
 10
201.081
 20
110.807
 30
0.0
 40
0
 41
0
  0
VERTEX
  8
0
 10
201.028
 20
110.803
 30
0.0
 40
0
 41
0
  0
VERTEX
  8
0
 10
200.974
 20
110.8
 30
0.0
 40
0
 41
0
  0
VERTEX
  8
0
 10
200.919
 20
110.797
 30
0.0
 40
0
 41
0
  0
VERTEX
  8
0
 10
200.864
 20
110.796
 30
0.0
 40
0
 41
0
  0
VERTEX
  8
0
 10
200.807
 20
110.795
 30
0.0
 40
0
 41
0
  0
VERTEX
  8
0
 10
200.75
 20
110.796
 30
0.0
 40
0
 41
0
  0
VERTEX
  8
0
 10
200.694
 20
110.797
 30
0.0
 40
0
 41
0
  0
VERTEX
  8
0
 10
200.639
 20
110.799
 30
0.0
 40
0
 41
0
  0
VERTEX
  8
0
 10
200.586
 20
110.802
 30
0.0
 40
0
 41
0
  0
VERTEX
  8
0
 10
200.533
 20
110.806
 30
0.0
 40
0
 41
0
  0
VERTEX
  8
0
 10
200.483
 20
110.81
 30
0.0
 40
0
 41
0
  0
VERTEX
  8
0
 10
200.433
 20
110.815
 30
0.0
 40
0
 41
0
  0
VERTEX
  8
0
 10
200.385
 20
110.822
 30
0.0
 40
0
 41
0
  0
VERTEX
  8
0
 10
200.337
 20
110.828
 30
0.0
 40
0
 41
0
  0
VERTEX
  8
0
 10
200.29
 20
110.836
 30
0.0
 40
0
 41
0
  0
VERTEX
  8
0
 10
200.246
 20
110.845
 30
0.0
 40
0
 41
0
  0
VERTEX
  8
0
 10
200.203
 20
110.855
 30
0.0
 40
0
 41
0
  0
VERTEX
  8
0
 10
200.161
 20
110.866
 30
0.0
 40
0
 41
0
  0
VERTEX
  8
0
 10
200.119
 20
110.878
 30
0.0
 40
0
 41
0
  0
VERTEX
  8
0
 10
200.081
 20
110.89
 30
0.0
 40
0
 41
0
  0
VERTEX
  8
0
 10
200.043
 20
110.904
 30
0.0
 40
0
 41
0
  0
VERTEX
  8
0
 10
200.007
 20
110.918
 30
0.0
 40
0
 41
0
  0
VERTEX
  8
0
 10
199.972
 20
110.934
 30
0.0
 40
0
 41
0
  0
VERTEX
  8
0
 10
199.939
 20
110.951
 30
0.0
 40
0
 41
0
  0
VERTEX
  8
0
 10
199.907
 20
110.968
 30
0.0
 40
0
 41
0
  0
VERTEX
  8
0
 10
199.876
 20
110.987
 30
0.0
 40
0
 41
0
  0
VERTEX
  8
0
 10
199.847
 20
111.007
 30
0.0
 40
0
 41
0
  0
VERTEX
  8
0
 10
199.818
 20
111.027
 30
0.0
 40
0
 41
0
  0
VERTEX
  8
0
 10
199.793
 20
111.049
 30
0.0
 40
0
 41
0
  0
VERTEX
  8
0
 10
199.768
 20
111.072
 30
0.0
 40
0
 41
0
  0
VERTEX
  8
0
 10
199.744
 20
111.096
 30
0.0
 40
0
 41
0
  0
VERTEX
  8
0
 10
199.722
 20
111.121
 30
0.0
 40
0
 41
0
  0
VERTEX
  8
0
 10
199.703
 20
111.147
 30
0.0
 40
0
 41
0
  0
VERTEX
  8
0
 10
199.683
 20
111.174
 30
0.0
 40
0
 41
0
  0
VERTEX
  8
0
 10
199.665
 20
111.202
 30
0.0
 40
0
 41
0
  0
VERTEX
  8
0
 10
199.65
 20
111.232
 30
0.0
 40
0
 41
0
  0
VERTEX
  8
0
 10
199.636
 20
111.263
 30
0.0
 40
0
 41
0
  0
VERTEX
  8
0
 10
199.624
 20
111.295
 30
0.0
 40
0
 41
0
  0
VERTEX
  8
0
 10
199.612
 20
111.328
 30
0.0
 40
0
 41
0
  0
VERTEX
  8
0
 10
199.604
 20
111.362
 30
0.0
 40
0
 41
0
  0
VERTEX
  8
0
 10
199.596
 20
111.398
 30
0.0
 40
0
 41
0
  0
VERTEX
  8
0
 10
199.59
 20
111.435
 30
0.0
 40
0
 41
0
  0
VERTEX
  8
0
 10
199.586
 20
111.473
 30
0.0
 40
0
 41
0
  0
VERTEX
  8
0
 10
199.583
 20
111.512
 30
0.0
 40
0
 41
0
  0
VERTEX
  8
0
 10
199.583
 20
111.552
 30
0.0
 40
0
 41
0
  0
VERTEX
  8
0
 10
199.583
 20
111.591
 30
0.0
 40
0
 41
0
  0
VERTEX
  8
0
 10
199.586
 20
111.628
 30
0.0
 40
0
 41
0
  0
VERTEX
  8
0
 10
199.59
 20
111.664
 30
0.0
 40
0
 41
0
  0
VERTEX
  8
0
 10
199.596
 20
111.699
 30
0.0
 40
0
 41
0
  0
VERTEX
  8
0
 10
199.604
 20
111.733
 30
0.0
 40
0
 41
0
  0
VERTEX
  8
0
 10
199.612
 20
111.767
 30
0.0
 40
0
 41
0
  0
VERTEX
  8
0
 10
199.624
 20
111.799
 30
0.0
 40
0
 41
0
  0
VERTEX
  8
0
 10
199.636
 20
111.83
 30
0.0
 40
0
 41
0
  0
VERTEX
  8
0
 10
199.65
 20
111.86
 30
0.0
 40
0
 41
0
  0
VERTEX
  8
0
 10
199.665
 20
111.889
 30
0.0
 40
0
 41
0
  0
VERTEX
  8
0
 10
199.683
 20
111.917
 30
0.0
 40
0
 41
0
  0
VERTEX
  8
0
 10
199.701
 20
111.945
 30
0.0
 40
0
 41
0
  0
VERTEX
  8
0
 10
199.721
 20
111.971
 30
0.0
 40
0
 41
0
  0
VERTEX
  8
0
 10
199.743
 20
111.996
 30
0.0
 40
0
 41
0
  0
VERTEX
  8
0
 10
199.767
 20
112.02
 30
0.0
 40
0
 41
0
  0
VERTEX
  8
0
 10
199.792
 20
112.043
 30
0.0
 40
0
 41
0
  0
VERTEX
  8
0
 10
199.818
 20
112.066
 30
0.0
 40
0
 41
0
  0
VERTEX
  8
0
 10
199.844
 20
112.087
 30
0.0
 40
0
 41
0
  0
VERTEX
  8
0
 10
199.874
 20
112.108
 30
0.0
 40
0
 41
0
  0
VERTEX
  8
0
 10
199.906
 20
112.127
 30
0.0
 40
0
 41
0
  0
VERTEX
  8
0
 10
199.938
 20
112.145
 30
0.0
 40
0
 41
0
  0
VERTEX
  8
0
 10
199.971
 20
112.163
 30
0.0
 40
0
 41
0
  0
VERTEX
  8
0
 10
200.006
 20
112.179
 30
0.0
 40
0
 41
0
  0
VERTEX
  8
0
 10
200.042
 20
112.195
 30
0.0
 40
0
 41
0
  0
VERTEX
  8
0
 10
200.079
 20
112.209
 30
0.0
 40
0
 41
0
  0
VERTEX
  8
0
 10
200.118
 20
112.223
 30
0.0
 40
0
 41
0
  0
VERTEX
  8
0
 10
200.158
 20
112.236
 30
0.0
 40
0
 41
0
  0
VERTEX
  8
0
 10
200.201
 20
112.248
 30
0.0
 40
0
 41
0
  0
VERTEX
  8
0
 10
200.244
 20
112.258
 30
0.0
 40
0
 41
0
  0
VERTEX
  8
0
 10
200.289
 20
112.268
 30
0.0
 40
0
 41
0
  0
VERTEX
  8
0
 10
200.335
 20
112.277
 30
0.0
 40
0
 41
0
  0
VERTEX
  8
0
 10
200.383
 20
112.285
 30
0.0
 40
0
 41
0
  0
VERTEX
  8
0
 10
200.432
 20
112.293
 30
0.0
 40
0
 41
0
  0
VERTEX
  8
0
 10
200.482
 20
112.299
 30
0.0
 40
0
 41
0
  0
VERTEX
  8
0
 10
200.533
 20
112.304
 30
0.0
 40
0
 41
0
  0
VERTEX
  8
0
 10
200.585
 20
112.308
 30
0.0
 40
0
 41
0
  0
VERTEX
  8
0
 10
200.639
 20
112.311
 30
0.0
 40
0
 41
0
  0
VERTEX
  8
0
 10
200.693
 20
112.314
 30
0.0
 40
0
 41
0
  0
VERTEX
  8
0
 10
200.75
 20
112.315
 30
0.0
 40
0
 41
0
  0
VERTEX
  8
0
 10
200.807
 20
112.316
 30
0.0
 40
0
 41
0
  0
SEQEND
 8
0
  0
POLYLINE
  8
0
 62
     0
 66
     1
 10
0
 20
0
 30
0.0
 70
     1
 40
0
 41
0
  0
VERTEX
  8
0
 10
200.807
 20
111.097
 30
0.0
 40
0
 41
0
  0
VERTEX
  8
0
 10
200.856
 20
111.097
 30
0.0
 40
0
 41
0
  0
VERTEX
  8
0
 10
200.901
 20
111.098
 30
0.0
 40
0
 41
0
  0
VERTEX
  8
0
 10
200.947
 20
111.099
 30
0.0
 40
0
 41
0
  0
VERTEX
  8
0
 10
200.992
 20
111.1
 30
0.0
 40
0
 41
0
  0
VERTEX
  8
0
 10
201.036
 20
111.103
 30
0.0
 40
0
 41
0
  0
VERTEX
  8
0
 10
201.078
 20
111.105
 30
0.0
 40
0
 41
0
  0
VERTEX
  8
0
 10
201.118
 20
111.108
 30
0.0
 40
0
 41
0
  0
VERTEX
  8
0
 10
201.158
 20
111.112
 30
0.0
 40
0
 41
0
  0
VERTEX
  8
0
 10
201.196
 20
111.116
 30
0.0
 40
0
 41
0
  0
VERTEX
  8
0
 10
201.233
 20
111.121
 30
0.0
 40
0
 41
0
  0
VERTEX
  8
0
 10
201.269
 20
111.126
 30
0.0
 40
0
 41
0
  0
VERTEX
  8
0
 10
201.304
 20
111.132
 30
0.0
 40
0
 41
0
  0
VERTEX
  8
0
 10
201.337
 20
111.138
 30
0.0
 40
0
 41
0
  0
VERTEX
  8
0
 10
201.369
 20
111.145
 30
0.0
 40
0
 41
0
  0
VERTEX
  8
0
 10
201.4
 20
111.153
 30
0.0
 40
0
 41
0
  0
VERTEX
  8
0
 10
201.431
 20
111.161
 30
0.0
 40
0
 41
0
  0
VERTEX
  8
0
 10
201.46
 20
111.169
 30
0.0
 40
0
 41
0
  0
VERTEX
  8
0
 10
201.486
 20
111.179
 30
0.0
 40
0
 41
0
  0
VERTEX
  8
0
 10
201.513
 20
111.189
 30
0.0
 40
0
 41
0
  0
VERTEX
  8
0
 10
201.538
 20
111.199
 30
0.0
 40
0
 41
0
  0
VERTEX
  8
0
 10
201.561
 20
111.21
 30
0.0
 40
0
 41
0
  0
VERTEX
  8
0
 10
201.583
 20
111.222
 30
0.0
 40
0
 41
0
  0
VERTEX
  8
0
 10
201.604
 20
111.234
 30
0.0
 40
0
 41
0
  0
VERTEX
  8
0
 10
201.625
 20
111.247
 30
0.0
 40
0
 41
0
  0
VERTEX
  8
0
 10
201.643
 20
111.261
 30
0.0
 40
0
 41
0
  0
VERTEX
  8
0
 10
201.661
 20
111.275
 30
0.0
 40
0
 41
0
  0
VERTEX
  8
0
 10
201.678
 20
111.29
 30
0.0
 40
0
 41
0
  0
VERTEX
  8
0
 10
201.693
 20
111.306
 30
0.0
 40
0
 41
0
  0
VERTEX
  8
0
 10
201.707
 20
111.322
 30
0.0
 40
0
 41
0
  0
VERTEX
  8
0
 10
201.719
 20
111.339
 30
0.0
 40
0
 41
0
  0
VERTEX
  8
0
 10
201.732
 20
111.357
 30
0.0
 40
0
 41
0
  0
VERTEX
  8
0
 10
201.742
 20
111.376
 30
0.0
 40
0
 41
0
  0
VERTEX
  8
0
 10
201.751
 20
111.395
 30
0.0
 40
0
 41
0
  0
VERTEX
  8
0
 10
201.758
 20
111.415
 30
0.0
 40
0
 41
0
  0
VERTEX
  8
0
 10
201.765
 20
111.436
 30
0.0
 40
0
 41
0
  0
VERTEX
  8
0
 10
201.771
 20
111.458
 30
0.0
 40
0
 41
0
  0
VERTEX
  8
0
 10
201.775
 20
111.48
 30
0.0
 40
0
 41
0
  0
VERTEX
  8
0
 10
201.778
 20
111.504
 30
0.0
 40
0
 41
0
  0
VERTEX
  8
0
 10
201.779
 20
111.528
 30
0.0
 40
0
 41
0
  0
VERTEX
  8
0
 10
201.781
 20
111.552
 30
0.0
 40
0
 41
0
  0
VERTEX
  8
0
 10
201.779
 20
111.577
 30
0.0
 40
0
 41
0
  0
VERTEX
  8
0
 10
201.778
 20
111.601
 30
0.0
 40
0
 41
0
  0
VERTEX
  8
0
 10
201.775
 20
111.624
 30
0.0
 40
0
 41
0
  0
VERTEX
  8
0
 10
201.771
 20
111.647
 30
0.0
 40
0
 41
0
  0
VERTEX
  8
0
 10
201.765
 20
111.668
 30
0.0
 40
0
 41
0
  0
VERTEX
  8
0
 10
201.758
 20
111.689
 30
0.0
 40
0
 41
0
  0
VERTEX
  8
0
 10
201.751
 20
111.709
 30
0.0
 40
0
 41
0
  0
VERTEX
  8
0
 10
201.742
 20
111.729
 30
0.0
 40
0
 41
0
  0
VERTEX
  8
0
 10
201.732
 20
111.747
 30
0.0
 40
0
 41
0
  0
VERTEX
  8
0
 10
201.719
 20
111.766
 30
0.0
 40
0
 41
0
  0
VERTEX
  8
0
 10
201.707
 20
111.783
 30
0.0
 40
0
 41
0
  0
VERTEX
  8
0
 10
201.693
 20
111.799
 30
0.0
 40
0
 41
0
  0
VERTEX
  8
0
 10
201.678
 20
111.815
 30
0.0
 40
0
 41
0
  0
VERTEX
  8
0
 10
201.663
 20
111.831
 30
0.0
 40
0
 41
0
  0
VERTEX
  8
0
 10
201.644
 20
111.845
 30
0.0
 40
0
 41
0
  0
VERTEX
  8
0
 10
201.626
 20
111.859
 30
0.0
 40
0
 41
0
  0
VERTEX
  8
0
 10
201.606
 20
111.873
 30
0.0
 40
0
 41
0
  0
VERTEX
  8
0
 10
201.585
 20
111.885
 30
0.0
 40
0
 41
0
  0
VERTEX
  8
0
 10
201.563
 20
111.897
 30
0.0
 40
0
 41
0
  0
VERTEX
  8
0
 10
201.539
 20
111.909
 30
0.0
 40
0
 41
0
  0
VERTEX
  8
0
 10
201.515
 20
111.92
 30
0.0
 40
0
 41
0
  0
VERTEX
  8
0
 10
201.489
 20
111.93
 30
0.0
 40
0
 41
0
  0
VERTEX
  8
0
 10
201.461
 20
111.94
 30
0.0
 40
0
 41
0
  0
VERTEX
  8
0
 10
201.433
 20
111.949
 30
0.0
 40
0
 41
0
  0
VERTEX
  8
0
 10
201.403
 20
111.958
 30
0.0
 40
0
 41
0
  0
VERTEX
  8
0
 10
201.372
 20
111.965
 30
0.0
 40
0
 41
0
  0
VERTEX
  8
0
 10
201.34
 20
111.973
 30
0.0
 40
0
 41
0
  0
VERTEX
  8
0
 10
201.307
 20
111.979
 30
0.0
 40
0
 41
0
  0
VERTEX
  8
0
 10
201.272
 20
111.985
 30
0.0
 40
0
 41
0
  0
VERTEX
  8
0
 10
201.236
 20
111.99
 30
0.0
 40
0
 41
0
  0
VERTEX
  8
0
 10
201.199
 20
111.995
 30
0.0
 40
0
 41
0
  0
VERTEX
  8
0
 10
201.161
 20
111.999
 30
0.0
 40
0
 41
0
  0
VERTEX
  8
0
 10
201.121
 20
112.003
 30
0.0
 40
0
 41
0
  0
VERTEX
  8
0
 10
201.079
 20
112.007
 30
0.0
 40
0
 41
0
  0
VERTEX
  8
0
 10
201.038
 20
112.01
 30
0.0
 40
0
 41
0
  0
VERTEX
  8
0
 10
200.993
 20
112.012
 30
0.0
 40
0
 41
0
  0
VERTEX
  8
0
 10
200.949
 20
112.014
 30
0.0
 40
0
 41
0
  0
VERTEX
  8
0
 10
200.903
 20
112.015
 30
0.0
 40
0
 41
0
  0
VERTEX
  8
0
 10
200.856
 20
112.016
 30
0.0
 40
0
 41
0
  0
VERTEX
  8
0
 10
200.807
 20
112.016
 30
0.0
 40
0
 41
0
  0
VERTEX
  8
0
 10
200.758
 20
112.016
 30
0.0
 40
0
 41
0
  0
VERTEX
  8
0
 10
200.711
 20
112.015
 30
0.0
 40
0
 41
0
  0
VERTEX
  8
0
 10
200.665
 20
112.014
 30
0.0
 40
0
 41
0
  0
VERTEX
  8
0
 10
200.621
 20
112.012
 30
0.0
 40
0
 41
0
  0
VERTEX
  8
0
 10
200.578
 20
112.01
 30
0.0
 40
0
 41
0
  0
VERTEX
  8
0
 10
200.536
 20
112.007
 30
0.0
 40
0
 41
0
  0
VERTEX
  8
0
 10
200.496
 20
112.003
 30
0.0
 40
0
 41
0
  0
VERTEX
  8
0
 10
200.456
 20
111.999
 30
0.0
 40
0
 41
0
  0
VERTEX
  8
0
 10
200.418
 20
111.995
 30
0.0
 40
0
 41
0
  0
VERTEX
  8
0
 10
200.381
 20
111.99
 30
0.0
 40
0
 41
0
  0
VERTEX
  8
0
 10
200.344
 20
111.985
 30
0.0
 40
0
 41
0
  0
VERTEX
  8
0
 10
200.31
 20
111.979
 30
0.0
 40
0
 41
0
  0
VERTEX
  8
0
 10
200.276
 20
111.973
 30
0.0
 40
0
 41
0
  0
VERTEX
  8
0
 10
200.244
 20
111.965
 30
0.0
 40
0
 41
0
  0
VERTEX
  8
0
 10
200.214
 20
111.958
 30
0.0
 40
0
 41
0
  0
VERTEX
  8
0
 10
200.183
 20
111.949
 30
0.0
 40
0
 41
0
  0
VERTEX
  8
0
 10
200.156
 20
111.94
 30
0.0
 40
0
 41
0
  0
VERTEX
  8
0
 10
200.128
 20
111.93
 30
0.0
 40
0
 41
0
  0
VERTEX
  8
0
 10
200.103
 20
111.92
 30
0.0
 40
0
 41
0
  0
VERTEX
  8
0
 10
200.078
 20
111.909
 30
0.0
 40
0
 41
0
  0
VERTEX
  8
0
 10
200.054
 20
111.897
 30
0.0
 40
0
 41
0
  0
VERTEX
  8
0
 10
200.032
 20
111.885
 30
0.0
 40
0
 41
0
  0
VERTEX
  8
0
 10
200.011
 20
111.873
 30
0.0
 40
0
 41
0
  0
VERTEX
  8
0
 10
199.992
 20
111.859
 30
0.0
 40
0
 41
0
  0
VERTEX
  8
0
 10
199.972
 20
111.845
 30
0.0
 40
0
 41
0
  0
VERTEX
  8
0
 10
199.956
 20
111.831
 30
0.0
 40
0
 41
0
  0
VERTEX
  8
0
 10
199.939
 20
111.815
 30
0.0
 40
0
 41
0
  0
VERTEX
  8
0
 10
199.924
 20
111.799
 30
0.0
 40
0
 41
0
  0
VERTEX
  8
0
 10
199.91
 20
111.783
 30
0.0
 40
0
 41
0
  0
VERTEX
  8
0
 10
199.897
 20
111.766
 30
0.0
 40
0
 41
0
  0
VERTEX
  8
0
 10
199.886
 20
111.747
 30
0.0
 40
0
 41
0
  0
VERTEX
  8
0
 10
199.875
 20
111.729
 30
0.0
 40
0
 41
0
  0
VERTEX
  8
0
 10
199.867
 20
111.709
 30
0.0
 40
0
 41
0
  0
VERTEX
  8
0
 10
199.858
 20
111.689
 30
0.0
 40
0
 41
0
  0
VERTEX
  8
0
 10
199.851
 20
111.668
 30
0.0
 40
0
 41
0
  0
VERTEX
  8
0
 10
199.846
 20
111.647
 30
0.0
 40
0
 41
0
  0
VERTEX
  8
0
 10
199.842
 20
111.624
 30
0.0
 40
0
 41
0
  0
VERTEX
  8
0
 10
199.839
 20
111.601
 30
0.0
 40
0
 41
0
  0
VERTEX
  8
0
 10
199.837
 20
111.577
 30
0.0
 40
0
 41
0
  0
VERTEX
  8
0
 10
199.837
 20
111.552
 30
0.0
 40
0
 41
0
  0
VERTEX
  8
0
 10
199.837
 20
111.528
 30
0.0
 40
0
 41
0
  0
VERTEX
  8
0
 10
199.839
 20
111.504
 30
0.0
 40
0
 41
0
  0
VERTEX
  8
0
 10
199.842
 20
111.48
 30
0.0
 40
0
 41
0
  0
VERTEX
  8
0
 10
199.846
 20
111.458
 30
0.0
 40
0
 41
0
  0
VERTEX
  8
0
 10
199.851
 20
111.436
 30
0.0
 40
0
 41
0
  0
VERTEX
  8
0
 10
199.858
 20
111.415
 30
0.0
 40
0
 41
0
  0
VERTEX
  8
0
 10
199.867
 20
111.395
 30
0.0
 40
0
 41
0
  0
VERTEX
  8
0
 10
199.875
 20
111.376
 30
0.0
 40
0
 41
0
  0
VERTEX
  8
0
 10
199.886
 20
111.357
 30
0.0
 40
0
 41
0
  0
VERTEX
  8
0
 10
199.897
 20
111.339
 30
0.0
 40
0
 41
0
  0
VERTEX
  8
0
 10
199.91
 20
111.322
 30
0.0
 40
0
 41
0
  0
VERTEX
  8
0
 10
199.924
 20
111.306
 30
0.0
 40
0
 41
0
  0
VERTEX
  8
0
 10
199.939
 20
111.29
 30
0.0
 40
0
 41
0
  0
VERTEX
  8
0
 10
199.956
 20
111.275
 30
0.0
 40
0
 41
0
  0
VERTEX
  8
0
 10
199.972
 20
111.261
 30
0.0
 40
0
 41
0
  0
VERTEX
  8
0
 10
199.992
 20
111.247
 30
0.0
 40
0
 41
0
  0
VERTEX
  8
0
 10
200.011
 20
111.234
 30
0.0
 40
0
 41
0
  0
VERTEX
  8
0
 10
200.032
 20
111.222
 30
0.0
 40
0
 41
0
  0
VERTEX
  8
0
 10
200.054
 20
111.21
 30
0.0
 40
0
 41
0
  0
VERTEX
  8
0
 10
200.078
 20
111.199
 30
0.0
 40
0
 41
0
  0
VERTEX
  8
0
 10
200.103
 20
111.189
 30
0.0
 40
0
 41
0
  0
VERTEX
  8
0
 10
200.128
 20
111.179
 30
0.0
 40
0
 41
0
  0
VERTEX
  8
0
 10
200.156
 20
111.169
 30
0.0
 40
0
 41
0
  0
VERTEX
  8
0
 10
200.183
 20
111.161
 30
0.0
 40
0
 41
0
  0
VERTEX
  8
0
 10
200.214
 20
111.153
 30
0.0
 40
0
 41
0
  0
VERTEX
  8
0
 10
200.244
 20
111.145
 30
0.0
 40
0
 41
0
  0
VERTEX
  8
0
 10
200.276
 20
111.138
 30
0.0
 40
0
 41
0
  0
VERTEX
  8
0
 10
200.31
 20
111.132
 30
0.0
 40
0
 41
0
  0
VERTEX
  8
0
 10
200.344
 20
111.126
 30
0.0
 40
0
 41
0
  0
VERTEX
  8
0
 10
200.381
 20
111.121
 30
0.0
 40
0
 41
0
  0
VERTEX
  8
0
 10
200.418
 20
111.116
 30
0.0
 40
0
 41
0
  0
VERTEX
  8
0
 10
200.456
 20
111.112
 30
0.0
 40
0
 41
0
  0
VERTEX
  8
0
 10
200.496
 20
111.108
 30
0.0
 40
0
 41
0
  0
VERTEX
  8
0
 10
200.536
 20
111.105
 30
0.0
 40
0
 41
0
  0
VERTEX
  8
0
 10
200.578
 20
111.103
 30
0.0
 40
0
 41
0
  0
VERTEX
  8
0
 10
200.621
 20
111.1
 30
0.0
 40
0
 41
0
  0
VERTEX
  8
0
 10
200.665
 20
111.099
 30
0.0
 40
0
 41
0
  0
VERTEX
  8
0
 10
200.711
 20
111.098
 30
0.0
 40
0
 41
0
  0
VERTEX
  8
0
 10
200.758
 20
111.097
 30
0.0
 40
0
 41
0
  0
VERTEX
  8
0
 10
200.807
 20
111.097
 30
0.0
 40
0
 41
0
  0
SEQEND
 8
0
  0
POLYLINE
  8
0
 62
     0
 66
     1
 10
0
 20
0
 30
0.0
 70
     1
 40
0
 41
0
  0
VERTEX
  8
0
 10
202.3
 20
113.849
 30
0.0
 40
0
 41
0
  0
VERTEX
  8
0
 10
202.528
 20
113.849
 30
0.0
 40
0
 41
0
  0
VERTEX
  8
0
 10
202.528
 20
112.465
 30
0.0
 40
0
 41
0
  0
VERTEX
  8
0
 10
202.3
 20
112.465
 30
0.0
 40
0
 41
0
  0
VERTEX
  8
0
 10
202.3
 20
113.849
 30
0.0
 40
0
 41
0
  0
SEQEND
 8
0
  0
POLYLINE
  8
0
 62
     0
 66
     1
 10
0
 20
0
 30
0.0
 70
     1
 40
0
 41
0
  0
VERTEX
  8
0
 10
202
 20
115
 30
0.0
 40
0
 41
0
  0
VERTEX
  8
0
 10
202
 20
114.713
 30
0.0
 40
0
 41
0
  0
VERTEX
  8
0
 10
200.364
 20
114.713
 30
0.0
 40
0
 41
0
  0
VERTEX
  8
0
 10
200.349
 20
114.713
 30
0.0
 40
0
 41
0
  0
VERTEX
  8
0
 10
200.332
 20
114.714
 30
0.0
 40
0
 41
0
  0
VERTEX
  8
0
 10
200.317
 20
114.714
 30
0.0
 40
0
 41
0
  0
VERTEX
  8
0
 10
200.3
 20
114.714
 30
0.0
 40
0
 41
0
  0
VERTEX
  8
0
 10
200.285
 20
114.715
 30
0.0
 40
0
 41
0
  0
VERTEX
  8
0
 10
200.269
 20
114.715
 30
0.0
 40
0
 41
0
  0
VERTEX
  8
0
 10
200.253
 20
114.715
 30
0.0
 40
0
 41
0
  0
VERTEX
  8
0
 10
200.237
 20
114.716
 30
0.0
 40
0
 41
0
  0
VERTEX
  8
0
 10
200.222
 20
114.716
 30
0.0
 40
0
 41
0
  0
VERTEX
  8
0
 10
200.207
 20
114.716
 30
0.0
 40
0
 41
0
  0
VERTEX
  8
0
 10
200.19
 20
114.717
 30
0.0
 40
0
 41
0
  0
VERTEX
  8
0
 10
200.175
 20
114.718
 30
0.0
 40
0
 41
0
  0
VERTEX
  8
0
 10
200.16
 20
114.718
 30
0.0
 40
0
 41
0
  0
VERTEX
  8
0
 10
200.144
 20
114.719
 30
0.0
 40
0
 41
0
  0
VERTEX
  8
0
 10
200.129
 20
114.719
 30
0.0
 40
0
 41
0
  0
VERTEX
  8
0
 10
200.114
 20
114.72
 30
0.0
 40
0
 41
0
  0
VERTEX
  8
0
 10
200.099
 20
114.72
 30
0.0
 40
0
 41
0
  0
VERTEX
  8
0
 10
200.083
 20
114.721
 30
0.0
 40
0
 41
0
  0
VERTEX
  8
0
 10
200.069
 20
114.721
 30
0.0
 40
0
 41
0
  0
VERTEX
  8
0
 10
200.054
 20
114.721
 30
0.0
 40
0
 41
0
  0
VERTEX
  8
0
 10
200.04
 20
114.722
 30
0.0
 40
0
 41
0
  0
VERTEX
  8
0
 10
200.026
 20
114.722
 30
0.0
 40
0
 41
0
  0
VERTEX
  8
0
 10
200.013
 20
114.723
 30
0.0
 40
0
 41
0
  0
VERTEX
  8
0
 10
199.999
 20
114.724
 30
0.0
 40
0
 41
0
  0
VERTEX
  8
0
 10
199.986
 20
114.724
 30
0.0
 40
0
 41
0
  0
VERTEX
  8
0
 10
199.974
 20
114.725
 30
0.0
 40
0
 41
0
  0
VERTEX
  8
0
 10
199.961
 20
114.725
 30
0.0
 40
0
 41
0
  0
VERTEX
  8
0
 10
199.949
 20
114.725
 30
0.0
 40
0
 41
0
  0
VERTEX
  8
0
 10
199.938
 20
114.726
 30
0.0
 40
0
 41
0
  0
VERTEX
  8
0
 10
199.926
 20
114.726
 30
0.0
 40
0
 41
0
  0
VERTEX
  8
0
 10
199.932
 20
114.721
 30
0.0
 40
0
 41
0
  0
VERTEX
  8
0
 10
199.938
 20
114.715
 30
0.0
 40
0
 41
0
  0
VERTEX
  8
0
 10
199.943
 20
114.71
 30
0.0
 40
0
 41
0
  0
VERTEX
  8
0
 10
199.949
 20
114.705
 30
0.0
 40
0
 41
0
  0
VERTEX
  8
0
 10
199.954
 20
114.7
 30
0.0
 40
0
 41
0
  0
VERTEX
  8
0
 10
199.958
 20
114.695
 30
0.0
 40
0
 41
0
  0
VERTEX
  8
0
 10
199.964
 20
114.691
 30
0.0
 40
0
 41
0
  0
VERTEX
  8
0
 10
199.968
 20
114.686
 30
0.0
 40
0
 41
0
  0
VERTEX
  8
0
 10
199.972
 20
114.682
 30
0.0
 40
0
 41
0
  0
VERTEX
  8
0
 10
199.976
 20
114.677
 30
0.0
 40
0
 41
0
  0
VERTEX
  8
0
 10
199.981
 20
114.673
 30
0.0
 40
0
 41
0
  0
VERTEX
  8
0
 10
199.985
 20
114.669
 30
0.0
 40
0
 41
0
  0
VERTEX
  8
0
 10
199.993
 20
114.66
 30
0.0
 40
0
 41
0
  0
VERTEX
  8
0
 10
200.006
 20
114.647
 30
0.0
 40
0
 41
0
  0
VERTEX
  8
0
 10
200.01
 20
114.642
 30
0.0
 40
0
 41
0
  0
VERTEX
  8
0
 10
200.014
 20
114.638
 30
0.0
 40
0
 41
0
  0
VERTEX
  8
0
 10
200.018
 20
114.633
 30
0.0
 40
0
 41
0
  0
VERTEX
  8
0
 10
200.021
 20
114.629
 30
0.0
 40
0
 41
0
  0
VERTEX
  8
0
 10
200.025
 20
114.625
 30
0.0
 40
0
 41
0
  0
VERTEX
  8
0
 10
200.029
 20
114.62
 30
0.0
 40
0
 41
0
  0
VERTEX
  8
0
 10
200.033
 20
114.616
 30
0.0
 40
0
 41
0
  0
VERTEX
  8
0
 10
200.038
 20
114.611
 30
0.0
 40
0
 41
0
  0
VERTEX
  8
0
 10
200.042
 20
114.607
 30
0.0
 40
0
 41
0
  0
VERTEX
  8
0
 10
200.046
 20
114.602
 30
0.0
 40
0
 41
0
  0
VERTEX
  8
0
 10
200.056
 20
114.593
 30
0.0
 40
0
 41
0
  0
VERTEX
  8
0
 10
200.06
 20
114.588
 30
0.0
 40
0
 41
0
  0
VERTEX
  8
0
 10
200.064
 20
114.583
 30
0.0
 40
0
 41
0
  0
VERTEX
  8
0
 10
200.068
 20
114.578
 30
0.0
 40
0
 41
0
  0
VERTEX
  8
0
 10
200.074
 20
114.572
 30
0.0
 40
0
 41
0
  0
VERTEX
  8
0
 10
200.078
 20
114.567
 30
0.0
 40
0
 41
0
  0
VERTEX
  8
0
 10
200.083
 20
114.561
 30
0.0
 40
0
 41
0
  0
VERTEX
  8
0
 10
200.087
 20
114.555
 30
0.0
 40
0
 41
0
  0
VERTEX
  8
0
 10
200.093
 20
114.549
 30
0.0
 40
0
 41
0
  0
VERTEX
  8
0
 10
200.099
 20
114.542
 30
0.0
 40
0
 41
0
  0
VERTEX
  8
0
 10
200.104
 20
114.536
 30
0.0
 40
0
 41
0
  0
VERTEX
  8
0
 10
200.11
 20
114.529
 30
0.0
 40
0
 41
0
  0
VERTEX
  8
0
 10
200.307
 20
114.288
 30
0.0
 40
0
 41
0
  0
VERTEX
  8
0
 10
200.107
 20
114.132
 30
0.0
 40
0
 41
0
  0
VERTEX
  8
0
 10
199.621
 20
114.755
 30
0.0
 40
0
 41
0
  0
VERTEX
  8
0
 10
199.621
 20
115
 30
0.0
 40
0
 41
0
  0
VERTEX
  8
0
 10
202
 20
115
 30
0.0
 40
0
 41
0
  0
SEQEND
 8
0
  0
POLYLINE
  8
0
 62
     0
 66
     1
 10
0
 20
0
 30
0.0
 70
     1
 40
0
 41
0
  0
VERTEX
  8
0
 10
200.807
 20
117.358
 30
0.0
 40
0
 41
0
  0
VERTEX
  8
0
 10
200.864
 20
117.358
 30
0.0
 40
0
 41
0
  0
VERTEX
  8
0
 10
200.919
 20
117.356
 30
0.0
 40
0
 41
0
  0
VERTEX
  8
0
 10
200.974
 20
117.354
 30
0.0
 40
0
 41
0
  0
VERTEX
  8
0
 10
201.028
 20
117.351
 30
0.0
 40
0
 41
0
  0
VERTEX
  8
0
 10
201.081
 20
117.347
 30
0.0
 40
0
 41
0
  0
VERTEX
  8
0
 10
201.131
 20
117.343
 30
0.0
 40
0
 41
0
  0
VERTEX
  8
0
 10
201.181
 20
117.337
 30
0.0
 40
0
 41
0
  0
VERTEX
  8
0
 10
201.229
 20
117.331
 30
0.0
 40
0
 41
0
  0
VERTEX
  8
0
 10
201.276
 20
117.324
 30
0.0
 40
0
 41
0
  0
VERTEX
  8
0
 10
201.322
 20
117.316
 30
0.0
 40
0
 41
0
  0
VERTEX
  8
0
 10
201.368
 20
117.307
 30
0.0
 40
0
 41
0
  0
VERTEX
  8
0
 10
201.411
 20
117.297
 30
0.0
 40
0
 41
0
  0
VERTEX
  8
0
 10
201.453
 20
117.287
 30
0.0
 40
0
 41
0
  0
VERTEX
  8
0
 10
201.494
 20
117.275
 30
0.0
 40
0
 41
0
  0
VERTEX
  8
0
 10
201.533
 20
117.262
 30
0.0
 40
0
 41
0
  0
VERTEX
  8
0
 10
201.571
 20
117.248
 30
0.0
 40
0
 41
0
  0
VERTEX
  8
0
 10
201.607
 20
117.233
 30
0.0
 40
0
 41
0
  0
VERTEX
  8
0
 10
201.643
 20
117.217
 30
0.0
 40
0
 41
0
  0
VERTEX
  8
0
 10
201.676
 20
117.2
 30
0.0
 40
0
 41
0
  0
VERTEX
  8
0
 10
201.708
 20
117.182
 30
0.0
 40
0
 41
0
  0
VERTEX
  8
0
 10
201.739
 20
117.163
 30
0.0
 40
0
 41
0
  0
VERTEX
  8
0
 10
201.768
 20
117.144
 30
0.0
 40
0
 41
0
  0
VERTEX
  8
0
 10
201.797
 20
117.123
 30
0.0
 40
0
 41
0
  0
VERTEX
  8
0
 10
201.822
 20
117.101
 30
0.0
 40
0
 41
0
  0
VERTEX
  8
0
 10
201.847
 20
117.078
 30
0.0
 40
0
 41
0
  0
VERTEX
  8
0
 10
201.871
 20
117.053
 30
0.0
 40
0
 41
0
  0
VERTEX
  8
0
 10
201.893
 20
117.028
 30
0.0
 40
0
 41
0
  0
VERTEX
  8
0
 10
201.914
 20
117.002
 30
0.0
 40
0
 41
0
  0
VERTEX
  8
0
 10
201.932
 20
116.975
 30
0.0
 40
0
 41
0
  0
VERTEX
  8
0
 10
201.95
 20
116.946
 30
0.0
 40
0
 41
0
  0
VERTEX
  8
0
 10
201.965
 20
116.917
 30
0.0
 40
0
 41
0
  0
VERTEX
  8
0
 10
201.979
 20
116.886
 30
0.0
 40
0
 41
0
  0
VERTEX
  8
0
 10
201.992
 20
116.854
 30
0.0
 40
0
 41
0
  0
VERTEX
  8
0
 10
202.003
 20
116.82
 30
0.0
 40
0
 41
0
  0
VERTEX
  8
0
 10
202.011
 20
116.786
 30
0.0
 40
0
 41
0
  0
VERTEX
  8
0
 10
202.019
 20
116.75
 30
0.0
 40
0
 41
0
  0
VERTEX
  8
0
 10
202.025
 20
116.713
 30
0.0
 40
0
 41
0
  0
VERTEX
  8
0
 10
202.029
 20
116.675
 30
0.0
 40
0
 41
0
  0
VERTEX
  8
0
 10
202.032
 20
116.635
 30
0.0
 40
0
 41
0
  0
VERTEX
  8
0
 10
202.032
 20
116.595
 30
0.0
 40
0
 41
0
  0
VERTEX
  8
0
 10
202.032
 20
116.557
 30
0.0
 40
0
 41
0
  0
VERTEX
  8
0
 10
202.029
 20
116.52
 30
0.0
 40
0
 41
0
  0
VERTEX
  8
0
 10
202.025
 20
116.484
 30
0.0
 40
0
 41
0
  0
VERTEX
  8
0
 10
202.019
 20
116.449
 30
0.0
 40
0
 41
0
  0
VERTEX
  8
0
 10
202.011
 20
116.415
 30
0.0
 40
0
 41
0
  0
VERTEX
  8
0
 10
202.003
 20
116.382
 30
0.0
 40
0
 41
0
  0
VERTEX
  8
0
 10
201.992
 20
116.35
 30
0.0
 40
0
 41
0
  0
VERTEX
  8
0
 10
201.979
 20
116.319
 30
0.0
 40
0
 41
0
  0
VERTEX
  8
0
 10
201.965
 20
116.288
 30
0.0
 40
0
 41
0
  0
VERTEX
  8
0
 10
201.95
 20
116.259
 30
0.0
 40
0
 41
0
  0
VERTEX
  8
0
 10
201.932
 20
116.231
 30
0.0
 40
0
 41
0
  0
VERTEX
  8
0
 10
201.914
 20
116.205
 30
0.0
 40
0
 41
0
  0
VERTEX
  8
0
 10
201.893
 20
116.179
 30
0.0
 40
0
 41
0
  0
VERTEX
  8
0
 10
201.871
 20
116.154
 30
0.0
 40
0
 41
0
  0
VERTEX
  8
0
 10
201.847
 20
116.129
 30
0.0
 40
0
 41
0
  0
VERTEX
  8
0
 10
201.822
 20
116.106
 30
0.0
 40
0
 41
0
  0
VERTEX
  8
0
 10
201.797
 20
116.084
 30
0.0
 40
0
 41
0
  0
VERTEX
  8
0
 10
201.768
 20
116.063
 30
0.0
 40
0
 41
0
  0
VERTEX
  8
0
 10
201.739
 20
116.043
 30
0.0
 40
0
 41
0
  0
VERTEX
  8
0
 10
201.708
 20
116.023
 30
0.0
 40
0
 41
0
  0
VERTEX
  8
0
 10
201.676
 20
116.005
 30
0.0
 40
0
 41
0
  0
VERTEX
  8
0
 10
201.643
 20
115.988
 30
0.0
 40
0
 41
0
  0
VERTEX
  8
0
 10
201.607
 20
115.972
 30
0.0
 40
0
 41
0
  0
VERTEX
  8
0
 10
201.571
 20
115.956
 30
0.0
 40
0
 41
0
  0
VERTEX
  8
0
 10
201.533
 20
115.942
 30
0.0
 40
0
 41
0
  0
VERTEX
  8
0
 10
201.494
 20
115.928
 30
0.0
 40
0
 41
0
  0
VERTEX
  8
0
 10
201.453
 20
115.916
 30
0.0
 40
0
 41
0
  0
VERTEX
  8
0
 10
201.411
 20
115.904
 30
0.0
 40
0
 41
0
  0
VERTEX
  8
0
 10
201.368
 20
115.893
 30
0.0
 40
0
 41
0
  0
VERTEX
  8
0
 10
201.322
 20
115.883
 30
0.0
 40
0
 41
0
  0
VERTEX
  8
0
 10
201.276
 20
115.875
 30
0.0
 40
0
 41
0
  0
VERTEX
  8
0
 10
201.229
 20
115.867
 30
0.0
 40
0
 41
0
  0
VERTEX
  8
0
 10
201.181
 20
115.86
 30
0.0
 40
0
 41
0
  0
VERTEX
  8
0
 10
201.131
 20
115.854
 30
0.0
 40
0
 41
0
  0
VERTEX
  8
0
 10
201.081
 20
115.849
 30
0.0
 40
0
 41
0
  0
VERTEX
  8
0
 10
201.028
 20
115.845
 30
0.0
 40
0
 41
0
  0
VERTEX
  8
0
 10
200.974
 20
115.842
 30
0.0
 40
0
 41
0
  0
VERTEX
  8
0
 10
200.919
 20
115.84
 30
0.0
 40
0
 41
0
  0
VERTEX
  8
0
 10
200.864
 20
115.838
 30
0.0
 40
0
 41
0
  0
VERTEX
  8
0
 10
200.807
 20
115.838
 30
0.0
 40
0
 41
0
  0
VERTEX
  8
0
 10
200.75
 20
115.838
 30
0.0
 40
0
 41
0
  0
VERTEX
  8
0
 10
200.694
 20
115.839
 30
0.0
 40
0
 41
0
  0
VERTEX
  8
0
 10
200.639
 20
115.841
 30
0.0
 40
0
 41
0
  0
VERTEX
  8
0
 10
200.586
 20
115.844
 30
0.0
 40
0
 41
0
  0
VERTEX
  8
0
 10
200.533
 20
115.848
 30
0.0
 40
0
 41
0
  0
VERTEX
  8
0
 10
200.483
 20
115.852
 30
0.0
 40
0
 41
0
  0
VERTEX
  8
0
 10
200.433
 20
115.858
 30
0.0
 40
0
 41
0
  0
VERTEX
  8
0
 10
200.385
 20
115.864
 30
0.0
 40
0
 41
0
  0
VERTEX
  8
0
 10
200.337
 20
115.871
 30
0.0
 40
0
 41
0
  0
VERTEX
  8
0
 10
200.29
 20
115.878
 30
0.0
 40
0
 41
0
  0
VERTEX
  8
0
 10
200.246
 20
115.887
 30
0.0
 40
0
 41
0
  0
VERTEX
  8
0
 10
200.203
 20
115.897
 30
0.0
 40
0
 41
0
  0
VERTEX
  8
0
 10
200.161
 20
115.908
 30
0.0
 40
0
 41
0
  0
VERTEX
  8
0
 10
200.119
 20
115.92
 30
0.0
 40
0
 41
0
  0
VERTEX
  8
0
 10
200.081
 20
115.932
 30
0.0
 40
0
 41
0
  0
VERTEX
  8
0
 10
200.043
 20
115.946
 30
0.0
 40
0
 41
0
  0
VERTEX
  8
0
 10
200.007
 20
115.961
 30
0.0
 40
0
 41
0
  0
VERTEX
  8
0
 10
199.972
 20
115.976
 30
0.0
 40
0
 41
0
  0
VERTEX
  8
0
 10
199.939
 20
115.993
 30
0.0
 40
0
 41
0
  0
VERTEX
  8
0
 10
199.907
 20
116.01
 30
0.0
 40
0
 41
0
  0
VERTEX
  8
0
 10
199.876
 20
116.029
 30
0.0
 40
0
 41
0
  0
VERTEX
  8
0
 10
199.847
 20
116.049
 30
0.0
 40
0
 41
0
  0
VERTEX
  8
0
 10
199.818
 20
116.07
 30
0.0
 40
0
 41
0
  0
VERTEX
  8
0
 10
199.793
 20
116.092
 30
0.0
 40
0
 41
0
  0
VERTEX
  8
0
 10
199.768
 20
116.114
 30
0.0
 40
0
 41
0
  0
VERTEX
  8
0
 10
199.744
 20
116.138
 30
0.0
 40
0
 41
0
  0
VERTEX
  8
0
 10
199.722
 20
116.163
 30
0.0
 40
0
 41
0
  0
VERTEX
  8
0
 10
199.703
 20
116.189
 30
0.0
 40
0
 41
0
  0
VERTEX
  8
0
 10
199.683
 20
116.217
 30
0.0
 40
0
 41
0
  0
VERTEX
  8
0
 10
199.665
 20
116.245
 30
0.0
 40
0
 41
0
  0
VERTEX
  8
0
 10
199.65
 20
116.274
 30
0.0
 40
0
 41
0
  0
VERTEX
  8
0
 10
199.636
 20
116.305
 30
0.0
 40
0
 41
0
  0
VERTEX
  8
0
 10
199.624
 20
116.337
 30
0.0
 40
0
 41
0
  0
VERTEX
  8
0
 10
199.612
 20
116.37
 30
0.0
 40
0
 41
0
  0
VERTEX
  8
0
 10
199.604
 20
116.405
 30
0.0
 40
0
 41
0
  0
VERTEX
  8
0
 10
199.596
 20
116.44
 30
0.0
 40
0
 41
0
  0
VERTEX
  8
0
 10
199.59
 20
116.477
 30
0.0
 40
0
 41
0
  0
VERTEX
  8
0
 10
199.586
 20
116.515
 30
0.0
 40
0
 41
0
  0
VERTEX
  8
0
 10
199.583
 20
116.554
 30
0.0
 40
0
 41
0
  0
VERTEX
  8
0
 10
199.583
 20
116.595
 30
0.0
 40
0
 41
0
  0
VERTEX
  8
0
 10
199.583
 20
116.633
 30
0.0
 40
0
 41
0
  0
VERTEX
  8
0
 10
199.586
 20
116.67
 30
0.0
 40
0
 41
0
  0
VERTEX
  8
0
 10
199.59
 20
116.706
 30
0.0
 40
0
 41
0
  0
VERTEX
  8
0
 10
199.596
 20
116.742
 30
0.0
 40
0
 41
0
  0
VERTEX
  8
0
 10
199.604
 20
116.776
 30
0.0
 40
0
 41
0
  0
VERTEX
  8
0
 10
199.612
 20
116.809
 30
0.0
 40
0
 41
0
  0
VERTEX
  8
0
 10
199.624
 20
116.841
 30
0.0
 40
0
 41
0
  0
VERTEX
  8
0
 10
199.636
 20
116.872
 30
0.0
 40
0
 41
0
  0
VERTEX
  8
0
 10
199.65
 20
116.902
 30
0.0
 40
0
 41
0
  0
VERTEX
  8
0
 10
199.665
 20
116.932
 30
0.0
 40
0
 41
0
  0
VERTEX
  8
0
 10
199.683
 20
116.96
 30
0.0
 40
0
 41
0
  0
VERTEX
  8
0
 10
199.701
 20
116.987
 30
0.0
 40
0
 41
0
  0
VERTEX
  8
0
 10
199.721
 20
117.013
 30
0.0
 40
0
 41
0
  0
VERTEX
  8
0
 10
199.743
 20
117.038
 30
0.0
 40
0
 41
0
  0
VERTEX
  8
0
 10
199.767
 20
117.063
 30
0.0
 40
0
 41
0
  0
VERTEX
  8
0
 10
199.792
 20
117.086
 30
0.0
 40
0
 41
0
  0
VERTEX
  8
0
 10
199.818
 20
117.108
 30
0.0
 40
0
 41
0
  0
VERTEX
  8
0
 10
199.844
 20
117.129
 30
0.0
 40
0
 41
0
  0
VERTEX
  8
0
 10
199.874
 20
117.15
 30
0.0
 40
0
 41
0
  0
VERTEX
  8
0
 10
199.906
 20
117.169
 30
0.0
 40
0
 41
0
  0
VERTEX
  8
0
 10
199.938
 20
117.188
 30
0.0
 40
0
 41
0
  0
VERTEX
  8
0
 10
199.971
 20
117.205
 30
0.0
 40
0
 41
0
  0
VERTEX
  8
0
 10
200.006
 20
117.222
 30
0.0
 40
0
 41
0
  0
VERTEX
  8
0
 10
200.042
 20
117.237
 30
0.0
 40
0
 41
0
  0
VERTEX
  8
0
 10
200.079
 20
117.252
 30
0.0
 40
0
 41
0
  0
VERTEX
  8
0
 10
200.118
 20
117.265
 30
0.0
 40
0
 41
0
  0
VERTEX
  8
0
 10
200.158
 20
117.278
 30
0.0
 40
0
 41
0
  0
VERTEX
  8
0
 10
200.201
 20
117.29
 30
0.0
 40
0
 41
0
  0
VERTEX
  8
0
 10
200.244
 20
117.301
 30
0.0
 40
0
 41
0
  0
VERTEX
  8
0
 10
200.289
 20
117.311
 30
0.0
 40
0
 41
0
  0
VERTEX
  8
0
 10
200.335
 20
117.32
 30
0.0
 40
0
 41
0
  0
VERTEX
  8
0
 10
200.383
 20
117.328
 30
0.0
 40
0
 41
0
  0
VERTEX
  8
0
 10
200.432
 20
117.335
 30
0.0
 40
0
 41
0
  0
VERTEX
  8
0
 10
200.482
 20
117.341
 30
0.0
 40
0
 41
0
  0
VERTEX
  8
0
 10
200.533
 20
117.346
 30
0.0
 40
0
 41
0
  0
VERTEX
  8
0
 10
200.585
 20
117.35
 30
0.0
 40
0
 41
0
  0
VERTEX
  8
0
 10
200.639
 20
117.354
 30
0.0
 40
0
 41
0
  0
VERTEX
  8
0
 10
200.693
 20
117.356
 30
0.0
 40
0
 41
0
  0
VERTEX
  8
0
 10
200.75
 20
117.358
 30
0.0
 40
0
 41
0
  0
VERTEX
  8
0
 10
200.807
 20
117.358
 30
0.0
 40
0
 41
0
  0
SEQEND
 8
0
  0
POLYLINE
  8
0
 62
     0
 66
     1
 10
0
 20
0
 30
0.0
 70
     1
 40
0
 41
0
  0
VERTEX
  8
0
 10
200.807
 20
116.139
 30
0.0
 40
0
 41
0
  0
VERTEX
  8
0
 10
200.856
 20
116.139
 30
0.0
 40
0
 41
0
  0
VERTEX
  8
0
 10
200.901
 20
116.14
 30
0.0
 40
0
 41
0
  0
VERTEX
  8
0
 10
200.947
 20
116.141
 30
0.0
 40
0
 41
0
  0
VERTEX
  8
0
 10
200.992
 20
116.143
 30
0.0
 40
0
 41
0
  0
VERTEX
  8
0
 10
201.036
 20
116.145
 30
0.0
 40
0
 41
0
  0
VERTEX
  8
0
 10
201.078
 20
116.148
 30
0.0
 40
0
 41
0
  0
VERTEX
  8
0
 10
201.118
 20
116.151
 30
0.0
 40
0
 41
0
  0
VERTEX
  8
0
 10
201.158
 20
116.154
 30
0.0
 40
0
 41
0
  0
VERTEX
  8
0
 10
201.196
 20
116.159
 30
0.0
 40
0
 41
0
  0
VERTEX
  8
0
 10
201.233
 20
116.163
 30
0.0
 40
0
 41
0
  0
VERTEX
  8
0
 10
201.269
 20
116.168
 30
0.0
 40
0
 41
0
  0
VERTEX
  8
0
 10
201.304
 20
116.174
 30
0.0
 40
0
 41
0
  0
VERTEX
  8
0
 10
201.337
 20
116.181
 30
0.0
 40
0
 41
0
  0
VERTEX
  8
0
 10
201.369
 20
116.188
 30
0.0
 40
0
 41
0
  0
VERTEX
  8
0
 10
201.4
 20
116.195
 30
0.0
 40
0
 41
0
  0
VERTEX
  8
0
 10
201.431
 20
116.203
 30
0.0
 40
0
 41
0
  0
VERTEX
  8
0
 10
201.46
 20
116.212
 30
0.0
 40
0
 41
0
  0
VERTEX
  8
0
 10
201.486
 20
116.221
 30
0.0
 40
0
 41
0
  0
VERTEX
  8
0
 10
201.513
 20
116.231
 30
0.0
 40
0
 41
0
  0
VERTEX
  8
0
 10
201.538
 20
116.241
 30
0.0
 40
0
 41
0
  0
VERTEX
  8
0
 10
201.561
 20
116.252
 30
0.0
 40
0
 41
0
  0
VERTEX
  8
0
 10
201.583
 20
116.264
 30
0.0
 40
0
 41
0
  0
VERTEX
  8
0
 10
201.604
 20
116.277
 30
0.0
 40
0
 41
0
  0
VERTEX
  8
0
 10
201.625
 20
116.29
 30
0.0
 40
0
 41
0
  0
VERTEX
  8
0
 10
201.643
 20
116.303
 30
0.0
 40
0
 41
0
  0
VERTEX
  8
0
 10
201.661
 20
116.318
 30
0.0
 40
0
 41
0
  0
VERTEX
  8
0
 10
201.678
 20
116.333
 30
0.0
 40
0
 41
0
  0
VERTEX
  8
0
 10
201.693
 20
116.348
 30
0.0
 40
0
 41
0
  0
VERTEX
  8
0
 10
201.707
 20
116.364
 30
0.0
 40
0
 41
0
  0
VERTEX
  8
0
 10
201.719
 20
116.381
 30
0.0
 40
0
 41
0
  0
VERTEX
  8
0
 10
201.732
 20
116.399
 30
0.0
 40
0
 41
0
  0
VERTEX
  8
0
 10
201.742
 20
116.418
 30
0.0
 40
0
 41
0
  0
VERTEX
  8
0
 10
201.751
 20
116.438
 30
0.0
 40
0
 41
0
  0
VERTEX
  8
0
 10
201.758
 20
116.458
 30
0.0
 40
0
 41
0
  0
VERTEX
  8
0
 10
201.765
 20
116.479
 30
0.0
 40
0
 41
0
  0
VERTEX
  8
0
 10
201.771
 20
116.5
 30
0.0
 40
0
 41
0
  0
VERTEX
  8
0
 10
201.775
 20
116.523
 30
0.0
 40
0
 41
0
  0
VERTEX
  8
0
 10
201.778
 20
116.546
 30
0.0
 40
0
 41
0
  0
VERTEX
  8
0
 10
201.779
 20
116.57
 30
0.0
 40
0
 41
0
  0
VERTEX
  8
0
 10
201.781
 20
116.595
 30
0.0
 40
0
 41
0
  0
VERTEX
  8
0
 10
201.779
 20
116.619
 30
0.0
 40
0
 41
0
  0
VERTEX
  8
0
 10
201.778
 20
116.643
 30
0.0
 40
0
 41
0
  0
VERTEX
  8
0
 10
201.775
 20
116.666
 30
0.0
 40
0
 41
0
  0
VERTEX
  8
0
 10
201.771
 20
116.689
 30
0.0
 40
0
 41
0
  0
VERTEX
  8
0
 10
201.765
 20
116.711
 30
0.0
 40
0
 41
0
  0
VERTEX
  8
0
 10
201.758
 20
116.732
 30
0.0
 40
0
 41
0
  0
VERTEX
  8
0
 10
201.751
 20
116.752
 30
0.0
 40
0
 41
0
  0
VERTEX
  8
0
 10
201.742
 20
116.771
 30
0.0
 40
0
 41
0
  0
VERTEX
  8
0
 10
201.732
 20
116.79
 30
0.0
 40
0
 41
0
  0
VERTEX
  8
0
 10
201.719
 20
116.808
 30
0.0
 40
0
 41
0
  0
VERTEX
  8
0
 10
201.707
 20
116.825
 30
0.0
 40
0
 41
0
  0
VERTEX
  8
0
 10
201.693
 20
116.842
 30
0.0
 40
0
 41
0
  0
VERTEX
  8
0
 10
201.678
 20
116.858
 30
0.0
 40
0
 41
0
  0
VERTEX
  8
0
 10
201.663
 20
116.873
 30
0.0
 40
0
 41
0
  0
VERTEX
  8
0
 10
201.644
 20
116.888
 30
0.0
 40
0
 41
0
  0
VERTEX
  8
0
 10
201.626
 20
116.902
 30
0.0
 40
0
 41
0
  0
VERTEX
  8
0
 10
201.606
 20
116.915
 30
0.0
 40
0
 41
0
  0
VERTEX
  8
0
 10
201.585
 20
116.928
 30
0.0
 40
0
 41
0
  0
VERTEX
  8
0
 10
201.563
 20
116.94
 30
0.0
 40
0
 41
0
  0
VERTEX
  8
0
 10
201.539
 20
116.951
 30
0.0
 40
0
 41
0
  0
VERTEX
  8
0
 10
201.515
 20
116.962
 30
0.0
 40
0
 41
0
  0
VERTEX
  8
0
 10
201.489
 20
116.972
 30
0.0
 40
0
 41
0
  0
VERTEX
  8
0
 10
201.461
 20
116.982
 30
0.0
 40
0
 41
0
  0
VERTEX
  8
0
 10
201.433
 20
116.991
 30
0.0
 40
0
 41
0
  0
VERTEX
  8
0
 10
201.403
 20
117
 30
0.0
 40
0
 41
0
  0
VERTEX
  8
0
 10
201.372
 20
117.008
 30
0.0
 40
0
 41
0
  0
VERTEX
  8
0
 10
201.34
 20
117.015
 30
0.0
 40
0
 41
0
  0
VERTEX
  8
0
 10
201.307
 20
117.021
 30
0.0
 40
0
 41
0
  0
VERTEX
  8
0
 10
201.272
 20
117.027
 30
0.0
 40
0
 41
0
  0
VERTEX
  8
0
 10
201.236
 20
117.032
 30
0.0
 40
0
 41
0
  0
VERTEX
  8
0
 10
201.199
 20
117.037
 30
0.0
 40
0
 41
0
  0
VERTEX
  8
0
 10
201.161
 20
117.042
 30
0.0
 40
0
 41
0
  0
VERTEX
  8
0
 10
201.121
 20
117.046
 30
0.0
 40
0
 41
0
  0
VERTEX
  8
0
 10
201.079
 20
117.049
 30
0.0
 40
0
 41
0
  0
VERTEX
  8
0
 10
201.038
 20
117.052
 30
0.0
 40
0
 41
0
  0
VERTEX
  8
0
 10
200.993
 20
117.054
 30
0.0
 40
0
 41
0
  0
VERTEX
  8
0
 10
200.949
 20
117.056
 30
0.0
 40
0
 41
0
  0
VERTEX
  8
0
 10
200.903
 20
117.057
 30
0.0
 40
0
 41
0
  0
VERTEX
  8
0
 10
200.856
 20
117.058
 30
0.0
 40
0
 41
0
  0
VERTEX
  8
0
 10
200.807
 20
117.058
 30
0.0
 40
0
 41
0
  0
VERTEX
  8
0
 10
200.758
 20
117.058
 30
0.0
 40
0
 41
0
  0
VERTEX
  8
0
 10
200.711
 20
117.057
 30
0.0
 40
0
 41
0
  0
VERTEX
  8
0
 10
200.665
 20
117.056
 30
0.0
 40
0
 41
0
  0
VERTEX
  8
0
 10
200.621
 20
117.054
 30
0.0
 40
0
 41
0
  0
VERTEX
  8
0
 10
200.578
 20
117.052
 30
0.0
 40
0
 41
0
  0
VERTEX
  8
0
 10
200.536
 20
117.049
 30
0.0
 40
0
 41
0
  0
VERTEX
  8
0
 10
200.496
 20
117.046
 30
0.0
 40
0
 41
0
  0
VERTEX
  8
0
 10
200.456
 20
117.042
 30
0.0
 40
0
 41
0
  0
VERTEX
  8
0
 10
200.418
 20
117.037
 30
0.0
 40
0
 41
0
  0
VERTEX
  8
0
 10
200.381
 20
117.032
 30
0.0
 40
0
 41
0
  0
VERTEX
  8
0
 10
200.344
 20
117.027
 30
0.0
 40
0
 41
0
  0
VERTEX
  8
0
 10
200.31
 20
117.021
 30
0.0
 40
0
 41
0
  0
VERTEX
  8
0
 10
200.276
 20
117.015
 30
0.0
 40
0
 41
0
  0
VERTEX
  8
0
 10
200.244
 20
117.008
 30
0.0
 40
0
 41
0
  0
VERTEX
  8
0
 10
200.214
 20
117
 30
0.0
 40
0
 41
0
  0
VERTEX
  8
0
 10
200.183
 20
116.991
 30
0.0
 40
0
 41
0
  0
VERTEX
  8
0
 10
200.156
 20
116.982
 30
0.0
 40
0
 41
0
  0
VERTEX
  8
0
 10
200.128
 20
116.972
 30
0.0
 40
0
 41
0
  0
VERTEX
  8
0
 10
200.103
 20
116.962
 30
0.0
 40
0
 41
0
  0
VERTEX
  8
0
 10
200.078
 20
116.951
 30
0.0
 40
0
 41
0
  0
VERTEX
  8
0
 10
200.054
 20
116.94
 30
0.0
 40
0
 41
0
  0
VERTEX
  8
0
 10
200.032
 20
116.928
 30
0.0
 40
0
 41
0
  0
VERTEX
  8
0
 10
200.011
 20
116.915
 30
0.0
 40
0
 41
0
  0
VERTEX
  8
0
 10
199.992
 20
116.902
 30
0.0
 40
0
 41
0
  0
VERTEX
  8
0
 10
199.972
 20
116.888
 30
0.0
 40
0
 41
0
  0
VERTEX
  8
0
 10
199.956
 20
116.873
 30
0.0
 40
0
 41
0
  0
VERTEX
  8
0
 10
199.939
 20
116.858
 30
0.0
 40
0
 41
0
  0
VERTEX
  8
0
 10
199.924
 20
116.842
 30
0.0
 40
0
 41
0
  0
VERTEX
  8
0
 10
199.91
 20
116.825
 30
0.0
 40
0
 41
0
  0
VERTEX
  8
0
 10
199.897
 20
116.808
 30
0.0
 40
0
 41
0
  0
VERTEX
  8
0
 10
199.886
 20
116.79
 30
0.0
 40
0
 41
0
  0
VERTEX
  8
0
 10
199.875
 20
116.771
 30
0.0
 40
0
 41
0
  0
VERTEX
  8
0
 10
199.867
 20
116.752
 30
0.0
 40
0
 41
0
  0
VERTEX
  8
0
 10
199.858
 20
116.732
 30
0.0
 40
0
 41
0
  0
VERTEX
  8
0
 10
199.851
 20
116.711
 30
0.0
 40
0
 41
0
  0
VERTEX
  8
0
 10
199.846
 20
116.689
 30
0.0
 40
0
 41
0
  0
VERTEX
  8
0
 10
199.842
 20
116.666
 30
0.0
 40
0
 41
0
  0
VERTEX
  8
0
 10
199.839
 20
116.643
 30
0.0
 40
0
 41
0
  0
VERTEX
  8
0
 10
199.837
 20
116.619
 30
0.0
 40
0
 41
0
  0
VERTEX
  8
0
 10
199.837
 20
116.595
 30
0.0
 40
0
 41
0
  0
VERTEX
  8
0
 10
199.837
 20
116.57
 30
0.0
 40
0
 41
0
  0
VERTEX
  8
0
 10
199.839
 20
116.546
 30
0.0
 40
0
 41
0
  0
VERTEX
  8
0
 10
199.842
 20
116.523
 30
0.0
 40
0
 41
0
  0
VERTEX
  8
0
 10
199.846
 20
116.5
 30
0.0
 40
0
 41
0
  0
VERTEX
  8
0
 10
199.851
 20
116.479
 30
0.0
 40
0
 41
0
  0
VERTEX
  8
0
 10
199.858
 20
116.458
 30
0.0
 40
0
 41
0
  0
VERTEX
  8
0
 10
199.867
 20
116.438
 30
0.0
 40
0
 41
0
  0
VERTEX
  8
0
 10
199.875
 20
116.418
 30
0.0
 40
0
 41
0
  0
VERTEX
  8
0
 10
199.886
 20
116.399
 30
0.0
 40
0
 41
0
  0
VERTEX
  8
0
 10
199.897
 20
116.381
 30
0.0
 40
0
 41
0
  0
VERTEX
  8
0
 10
199.91
 20
116.364
 30
0.0
 40
0
 41
0
  0
VERTEX
  8
0
 10
199.924
 20
116.348
 30
0.0
 40
0
 41
0
  0
VERTEX
  8
0
 10
199.939
 20
116.333
 30
0.0
 40
0
 41
0
  0
VERTEX
  8
0
 10
199.956
 20
116.318
 30
0.0
 40
0
 41
0
  0
VERTEX
  8
0
 10
199.972
 20
116.303
 30
0.0
 40
0
 41
0
  0
VERTEX
  8
0
 10
199.992
 20
116.29
 30
0.0
 40
0
 41
0
  0
VERTEX
  8
0
 10
200.011
 20
116.277
 30
0.0
 40
0
 41
0
  0
VERTEX
  8
0
 10
200.032
 20
116.264
 30
0.0
 40
0
 41
0
  0
VERTEX
  8
0
 10
200.054
 20
116.252
 30
0.0
 40
0
 41
0
  0
VERTEX
  8
0
 10
200.078
 20
116.241
 30
0.0
 40
0
 41
0
  0
VERTEX
  8
0
 10
200.103
 20
116.231
 30
0.0
 40
0
 41
0
  0
VERTEX
  8
0
 10
200.128
 20
116.221
 30
0.0
 40
0
 41
0
  0
VERTEX
  8
0
 10
200.156
 20
116.212
 30
0.0
 40
0
 41
0
  0
VERTEX
  8
0
 10
200.183
 20
116.203
 30
0.0
 40
0
 41
0
  0
VERTEX
  8
0
 10
200.214
 20
116.195
 30
0.0
 40
0
 41
0
  0
VERTEX
  8
0
 10
200.244
 20
116.188
 30
0.0
 40
0
 41
0
  0
VERTEX
  8
0
 10
200.276
 20
116.181
 30
0.0
 40
0
 41
0
  0
VERTEX
  8
0
 10
200.31
 20
116.174
 30
0.0
 40
0
 41
0
  0
VERTEX
  8
0
 10
200.344
 20
116.168
 30
0.0
 40
0
 41
0
  0
VERTEX
  8
0
 10
200.381
 20
116.163
 30
0.0
 40
0
 41
0
  0
VERTEX
  8
0
 10
200.418
 20
116.159
 30
0.0
 40
0
 41
0
  0
VERTEX
  8
0
 10
200.456
 20
116.154
 30
0.0
 40
0
 41
0
  0
VERTEX
  8
0
 10
200.496
 20
116.151
 30
0.0
 40
0
 41
0
  0
VERTEX
  8
0
 10
200.536
 20
116.148
 30
0.0
 40
0
 41
0
  0
VERTEX
  8
0
 10
200.578
 20
116.145
 30
0.0
 40
0
 41
0
  0
VERTEX
  8
0
 10
200.621
 20
116.143
 30
0.0
 40
0
 41
0
  0
VERTEX
  8
0
 10
200.665
 20
116.141
 30
0.0
 40
0
 41
0
  0
VERTEX
  8
0
 10
200.711
 20
116.14
 30
0.0
 40
0
 41
0
  0
VERTEX
  8
0
 10
200.758
 20
116.139
 30
0.0
 40
0
 41
0
  0
VERTEX
  8
0
 10
200.807
 20
116.139
 30
0.0
 40
0
 41
0
  0
SEQEND
 8
0
  0
POLYLINE
  8
0
 62
     0
 66
     1
 10
0
 20
0
 30
0.0
 70
     1
 40
0
 41
0
  0
VERTEX
  8
0
 10
202.3
 20
118.891
 30
0.0
 40
0
 41
0
  0
VERTEX
  8
0
 10
202.528
 20
118.891
 30
0.0
 40
0
 41
0
  0
VERTEX
  8
0
 10
202.528
 20
117.508
 30
0.0
 40
0
 41
0
  0
VERTEX
  8
0
 10
202.3
 20
117.508
 30
0.0
 40
0
 41
0
  0
VERTEX
  8
0
 10
202.3
 20
118.891
 30
0.0
 40
0
 41
0
  0
SEQEND
 8
0
  0
POLYLINE
  8
0
 62
     0
 66
     1
 10
0
 20
0
 30
0.0
 70
     1
 40
0
 41
0
  0
VERTEX
  8
0
 10
202
 20
120.042
 30
0.0
 40
0
 41
0
  0
VERTEX
  8
0
 10
202
 20
119.755
 30
0.0
 40
0
 41
0
  0
VERTEX
  8
0
 10
200.364
 20
119.755
 30
0.0
 40
0
 41
0
  0
VERTEX
  8
0
 10
200.349
 20
119.756
 30
0.0
 40
0
 41
0
  0
VERTEX
  8
0
 10
200.332
 20
119.756
 30
0.0
 40
0
 41
0
  0
VERTEX
  8
0
 10
200.317
 20
119.756
 30
0.0
 40
0
 41
0
  0
VERTEX
  8
0
 10
200.3
 20
119.757
 30
0.0
 40
0
 41
0
  0
VERTEX
  8
0
 10
200.285
 20
119.757
 30
0.0
 40
0
 41
0
  0
VERTEX
  8
0
 10
200.269
 20
119.757
 30
0.0
 40
0
 41
0
  0
VERTEX
  8
0
 10
200.253
 20
119.758
 30
0.0
 40
0
 41
0
  0
VERTEX
  8
0
 10
200.237
 20
119.758
 30
0.0
 40
0
 41
0
  0
VERTEX
  8
0
 10
200.222
 20
119.758
 30
0.0
 40
0
 41
0
  0
VERTEX
  8
0
 10
200.207
 20
119.759
 30
0.0
 40
0
 41
0
  0
VERTEX
  8
0
 10
200.19
 20
119.759
 30
0.0
 40
0
 41
0
  0
VERTEX
  8
0
 10
200.175
 20
119.76
 30
0.0
 40
0
 41
0
  0
VERTEX
  8
0
 10
200.16
 20
119.76
 30
0.0
 40
0
 41
0
  0
VERTEX
  8
0
 10
200.144
 20
119.761
 30
0.0
 40
0
 41
0
  0
VERTEX
  8
0
 10
200.129
 20
119.762
 30
0.0
 40
0
 41
0
  0
VERTEX
  8
0
 10
200.114
 20
119.762
 30
0.0
 40
0
 41
0
  0
VERTEX
  8
0
 10
200.099
 20
119.762
 30
0.0
 40
0
 41
0
  0
VERTEX
  8
0
 10
200.083
 20
119.763
 30
0.0
 40
0
 41
0
  0
VERTEX
  8
0
 10
200.069
 20
119.763
 30
0.0
 40
0
 41
0
  0
VERTEX
  8
0
 10
200.054
 20
119.763
 30
0.0
 40
0
 41
0
  0
VERTEX
  8
0
 10
200.04
 20
119.764
 30
0.0
 40
0
 41
0
  0
VERTEX
  8
0
 10
200.026
 20
119.765
 30
0.0
 40
0
 41
0
  0
VERTEX
  8
0
 10
200.013
 20
119.765
 30
0.0
 40
0
 41
0
  0
VERTEX
  8
0
 10
199.999
 20
119.766
 30
0.0
 40
0
 41
0
  0
VERTEX
  8
0
 10
199.986
 20
119.766
 30
0.0
 40
0
 41
0
  0
VERTEX
  8
0
 10
199.974
 20
119.767
 30
0.0
 40
0
 41
0
  0
VERTEX
  8
0
 10
199.961
 20
119.767
 30
0.0
 40
0
 41
0
  0
VERTEX
  8
0
 10
199.949
 20
119.768
 30
0.0
 40
0
 41
0
  0
VERTEX
  8
0
 10
199.938
 20
119.768
 30
0.0
 40
0
 41
0
  0
VERTEX
  8
0
 10
199.926
 20
119.768
 30
0.0
 40
0
 41
0
  0
VERTEX
  8
0
 10
199.932
 20
119.763
 30
0.0
 40
0
 41
0
  0
VERTEX
  8
0
 10
199.938
 20
119.758
 30
0.0
 40
0
 41
0
  0
VERTEX
  8
0
 10
199.943
 20
119.752
 30
0.0
 40
0
 41
0
  0
VERTEX
  8
0
 10
199.949
 20
119.747
 30
0.0
 40
0
 41
0
  0
VERTEX
  8
0
 10
199.954
 20
119.742
 30
0.0
 40
0
 41
0
  0
VERTEX
  8
0
 10
199.958
 20
119.737
 30
0.0
 40
0
 41
0
  0
VERTEX
  8
0
 10
199.964
 20
119.733
 30
0.0
 40
0
 41
0
  0
VERTEX
  8
0
 10
199.968
 20
119.728
 30
0.0
 40
0
 41
0
  0
VERTEX
  8
0
 10
199.972
 20
119.724
 30
0.0
 40
0
 41
0
  0
VERTEX
  8
0
 10
199.976
 20
119.72
 30
0.0
 40
0
 41
0
  0
VERTEX
  8
0
 10
199.981
 20
119.715
 30
0.0
 40
0
 41
0
  0
VERTEX
  8
0
 10
199.985
 20
119.711
 30
0.0
 40
0
 41
0
  0
VERTEX
  8
0
 10
199.989
 20
119.707
 30
0.0
 40
0
 41
0
  0
VERTEX
  8
0
 10
199.993
 20
119.702
 30
0.0
 40
0
 41
0
  0
VERTEX
  8
0
 10
199.997
 20
119.698
 30
0.0
 40
0
 41
0
  0
VERTEX
  8
0
 10
200.001
 20
119.694
 30
0.0
 40
0
 41
0
  0
VERTEX
  8
0
 10
200.006
 20
119.689
 30
0.0
 40
0
 41
0
  0
VERTEX
  8
0
 10
200.01
 20
119.685
 30
0.0
 40
0
 41
0
  0
VERTEX
  8
0
 10
200.014
 20
119.68
 30
0.0
 40
0
 41
0
  0
VERTEX
  8
0
 10
200.018
 20
119.676
 30
0.0
 40
0
 41
0
  0
VERTEX
  8
0
 10
200.021
 20
119.671
 30
0.0
 40
0
 41
0
  0
VERTEX
  8
0
 10
200.025
 20
119.667
 30
0.0
 40
0
 41
0
  0
VERTEX
  8
0
 10
200.029
 20
119.663
 30
0.0
 40
0
 41
0
  0
VERTEX
  8
0
 10
200.033
 20
119.658
 30
0.0
 40
0
 41
0
  0
VERTEX
  8
0
 10
200.038
 20
119.654
 30
0.0
 40
0
 41
0
  0
VERTEX
  8
0
 10
200.042
 20
119.649
 30
0.0
 40
0
 41
0
  0
VERTEX
  8
0
 10
200.046
 20
119.644
 30
0.0
 40
0
 41
0
  0
VERTEX
  8
0
 10
200.051
 20
119.64
 30
0.0
 40
0
 41
0
  0
VERTEX
  8
0
 10
200.056
 20
119.635
 30
0.0
 40
0
 41
0
  0
VERTEX
  8
0
 10
200.06
 20
119.63
 30
0.0
 40
0
 41
0
  0
VERTEX
  8
0
 10
200.064
 20
119.625
 30
0.0
 40
0
 41
0
  0
VERTEX
  8
0
 10
200.068
 20
119.62
 30
0.0
 40
0
 41
0
  0
VERTEX
  8
0
 10
200.074
 20
119.615
 30
0.0
 40
0
 41
0
  0
VERTEX
  8
0
 10
200.078
 20
119.609
 30
0.0
 40
0
 41
0
  0
VERTEX
  8
0
 10
200.083
 20
119.603
 30
0.0
 40
0
 41
0
  0
VERTEX
  8
0
 10
200.087
 20
119.597
 30
0.0
 40
0
 41
0
  0
VERTEX
  8
0
 10
200.093
 20
119.591
 30
0.0
 40
0
 41
0
  0
VERTEX
  8
0
 10
200.099
 20
119.585
 30
0.0
 40
0
 41
0
  0
VERTEX
  8
0
 10
200.104
 20
119.578
 30
0.0
 40
0
 41
0
  0
VERTEX
  8
0
 10
200.11
 20
119.572
 30
0.0
 40
0
 41
0
  0
VERTEX
  8
0
 10
200.307
 20
119.331
 30
0.0
 40
0
 41
0
  0
VERTEX
  8
0
 10
200.107
 20
119.174
 30
0.0
 40
0
 41
0
  0
VERTEX
  8
0
 10
199.621
 20
119.798
 30
0.0
 40
0
 41
0
  0
VERTEX
  8
0
 10
199.621
 20
120.042
 30
0.0
 40
0
 41
0
  0
VERTEX
  8
0
 10
202
 20
120.042
 30
0.0
 40
0
 41
0
  0
SEQEND
 8
0
  0
POLYLINE
  8
0
 62
     0
 66
     1
 10
0
 20
0
 30
0.0
 70
     1
 40
0
 41
0
  0
VERTEX
  8
0
 10
202.032
 20
121.687
 30
0.0
 40
0
 41
0
  0
VERTEX
  8
0
 10
202.032
 20
121.655
 30
0.0
 40
0
 41
0
  0
VERTEX
  8
0
 10
202.031
 20
121.623
 30
0.0
 40
0
 41
0
  0
VERTEX
  8
0
 10
202.028
 20
121.591
 30
0.0
 40
0
 41
0
  0
VERTEX
  8
0
 10
202.025
 20
121.559
 30
0.0
 40
0
 41
0
  0
VERTEX
  8
0
 10
202.019
 20
121.528
 30
0.0
 40
0
 41
0
  0
VERTEX
  8
0
 10
202.014
 20
121.498
 30
0.0
 40
0
 41
0
  0
VERTEX
  8
0
 10
202.008
 20
121.468
 30
0.0
 40
0
 41
0
  0
VERTEX
  8
0
 10
202
 20
121.438
 30
0.0
 40
0
 41
0
  0
VERTEX
  8
0
 10
201.992
 20
121.409
 30
0.0
 40
0
 41
0
  0
VERTEX
  8
0
 10
201.982
 20
121.38
 30
0.0
 40
0
 41
0
  0
VERTEX
  8
0
 10
201.971
 20
121.352
 30
0.0
 40
0
 41
0
  0
VERTEX
  8
0
 10
201.958
 20
121.324
 30
0.0
 40
0
 41
0
  0
VERTEX
  8
0
 10
201.946
 20
121.297
 30
0.0
 40
0
 41
0
  0
VERTEX
  8
0
 10
201.931
 20
121.271
 30
0.0
 40
0
 41
0
  0
VERTEX
  8
0
 10
201.915
 20
121.246
 30
0.0
 40
0
 41
0
  0
VERTEX
  8
0
 10
201.899
 20
121.221
 30
0.0
 40
0
 41
0
  0
VERTEX
  8
0
 10
201.881
 20
121.197
 30
0.0
 40
0
 41
0
  0
VERTEX
  8
0
 10
201.861
 20
121.175
 30
0.0
 40
0
 41
0
  0
VERTEX
  8
0
 10
201.84
 20
121.152
 30
0.0
 40
0
 41
0
  0
VERTEX
  8
0
 10
201.819
 20
121.131
 30
0.0
 40
0
 41
0
  0
VERTEX
  8
0
 10
201.796
 20
121.11
 30
0.0
 40
0
 41
0
  0
VERTEX
  8
0
 10
201.772
 20
121.09
 30
0.0
 40
0
 41
0
  0
VERTEX
  8
0
 10
201.746
 20
121.071
 30
0.0
 40
0
 41
0
  0
VERTEX
  8
0
 10
201.719
 20
121.053
 30
0.0
 40
0
 41
0
  0
VERTEX
  8
0
 10
201.692
 20
121.036
 30
0.0
 40
0
 41
0
  0
VERTEX
  8
0
 10
201.663
 20
121.02
 30
0.0
 40
0
 41
0
  0
VERTEX
  8
0
 10
201.632
 20
121.005
 30
0.0
 40
0
 41
0
  0
VERTEX
  8
0
 10
201.601
 20
120.991
 30
0.0
 40
0
 41
0
  0
VERTEX
  8
0
 10
201.568
 20
120.977
 30
0.0
 40
0
 41
0
  0
VERTEX
  8
0
 10
201.535
 20
120.965
 30
0.0
 40
0
 41
0
  0
VERTEX
  8
0
 10
201.499
 20
120.953
 30
0.0
 40
0
 41
0
  0
VERTEX
  8
0
 10
201.462
 20
120.943
 30
0.0
 40
0
 41
0
  0
VERTEX
  8
0
 10
201.424
 20
120.934
 30
0.0
 40
0
 41
0
  0
VERTEX
  8
0
 10
201.383
 20
120.926
 30
0.0
 40
0
 41
0
  0
VERTEX
  8
0
 10
201.343
 20
120.92
 30
0.0
 40
0
 41
0
  0
VERTEX
  8
0
 10
201.3
 20
120.914
 30
0.0
 40
0
 41
0
  0
VERTEX
  8
0
 10
201.256
 20
120.91
 30
0.0
 40
0
 41
0
  0
VERTEX
  8
0
 10
201.211
 20
120.907
 30
0.0
 40
0
 41
0
  0
VERTEX
  8
0
 10
201.164
 20
120.905
 30
0.0
 40
0
 41
0
  0
VERTEX
  8
0
 10
201.117
 20
120.904
 30
0.0
 40
0
 41
0
  0
VERTEX
  8
0
 10
201.065
 20
120.905
 30
0.0
 40
0
 41
0
  0
VERTEX
  8
0
 10
201.017
 20
120.907
 30
0.0
 40
0
 41
0
  0
VERTEX
  8
0
 10
200.969
 20
120.91
 30
0.0
 40
0
 41
0
  0
VERTEX
  8
0
 10
200.924
 20
120.914
 30
0.0
 40
0
 41
0
  0
VERTEX
  8
0
 10
200.881
 20
120.92
 30
0.0
 40
0
 41
0
  0
VERTEX
  8
0
 10
200.837
 20
120.927
 30
0.0
 40
0
 41
0
  0
VERTEX
  8
0
 10
200.797
 20
120.935
 30
0.0
 40
0
 41
0
  0
VERTEX
  8
0
 10
200.757
 20
120.944
 30
0.0
 40
0
 41
0
  0
VERTEX
  8
0
 10
200.719
 20
120.955
 30
0.0
 40
0
 41
0
  0
VERTEX
  8
0
 10
200.683
 20
120.966
 30
0.0
 40
0
 41
0
  0
VERTEX
  8
0
 10
200.649
 20
120.979
 30
0.0
 40
0
 41
0
  0
VERTEX
  8
0
 10
200.614
 20
120.993
 30
0.0
 40
0
 41
0
  0
VERTEX
  8
0
 10
200.582
 20
121.008
 30
0.0
 40
0
 41
0
  0
VERTEX
  8
0
 10
200.551
 20
121.023
 30
0.0
 40
0
 41
0
  0
VERTEX
  8
0
 10
200.521
 20
121.04
 30
0.0
 40
0
 41
0
  0
VERTEX
  8
0
 10
200.493
 20
121.057
 30
0.0
 40
0
 41
0
  0
VERTEX
  8
0
 10
200.467
 20
121.075
 30
0.0
 40
0
 41
0
  0
VERTEX
  8
0
 10
200.44
 20
121.094
 30
0.0
 40
0
 41
0
  0
VERTEX
  8
0
 10
200.417
 20
121.115
 30
0.0
 40
0
 41
0
  0
VERTEX
  8
0
 10
200.393
 20
121.136
 30
0.0
 40
0
 41
0
  0
VERTEX
  8
0
 10
200.372
 20
121.158
 30
0.0
 40
0
 41
0
  0
VERTEX
  8
0
 10
200.351
 20
121.181
 30
0.0
 40
0
 41
0
  0
VERTEX
  8
0
 10
200.332
 20
121.204
 30
0.0
 40
0
 41
0
  0
VERTEX
  8
0
 10
200.314
 20
121.229
 30
0.0
 40
0
 41
0
  0
VERTEX
  8
0
 10
200.297
 20
121.254
 30
0.0
 40
0
 41
0
  0
VERTEX
  8
0
 10
200.281
 20
121.279
 30
0.0
 40
0
 41
0
  0
VERTEX
  8
0
 10
200.267
 20
121.306
 30
0.0
 40
0
 41
0
  0
VERTEX
  8
0
 10
200.253
 20
121.333
 30
0.0
 40
0
 41
0
  0
VERTEX
  8
0
 10
200.242
 20
121.361
 30
0.0
 40
0
 41
0
  0
VERTEX
  8
0
 10
200.231
 20
121.389
 30
0.0
 40
0
 41
0
  0
VERTEX
  8
0
 10
200.221
 20
121.419
 30
0.0
 40
0
 41
0
  0
VERTEX
  8
0
 10
200.212
 20
121.448
 30
0.0
 40
0
 41
0
  0
VERTEX
  8
0
 10
200.206
 20
121.478
 30
0.0
 40
0
 41
0
  0
VERTEX
  8
0
 10
200.199
 20
121.509
 30
0.0
 40
0
 41
0
  0
VERTEX
  8
0
 10
200.193
 20
121.54
 30
0.0
 40
0
 41
0
  0
VERTEX
  8
0
 10
200.189
 20
121.571
 30
0.0
 40
0
 41
0
  0
VERTEX
  8
0
 10
200.185
 20
121.603
 30
0.0
 40
0
 41
0
  0
VERTEX
  8
0
 10
200.182
 20
121.635
 30
0.0
 40
0
 41
0
  0
VERTEX
  8
0
 10
200.181
 20
121.667
 30
0.0
 40
0
 41
0
  0
VERTEX
  8
0
 10
200.181
 20
121.7
 30
0.0
 40
0
 41
0
  0
VERTEX
  8
0
 10
200.181
 20
121.726
 30
0.0
 40
0
 41
0
  0
VERTEX
  8
0
 10
200.182
 20
121.751
 30
0.0
 40
0
 41
0
  0
VERTEX
  8
0
 10
200.182
 20
121.776
 30
0.0
 40
0
 41
0
  0
VERTEX
  8
0
 10
200.185
 20
121.801
 30
0.0
 40
0
 41
0
  0
VERTEX
  8
0
 10
200.188
 20
121.826
 30
0.0
 40
0
 41
0
  0
VERTEX
  8
0
 10
200.19
 20
121.85
 30
0.0
 40
0
 41
0
  0
VERTEX
  8
0
 10
200.193
 20
121.875
 30
0.0
 40
0
 41
0
  0
VERTEX
  8
0
 10
200.199
 20
121.899
 30
0.0
 40
0
 41
0
  0
VERTEX
  8
0
 10
200.203
 20
121.924
 30
0.0
 40
0
 41
0
  0
VERTEX
  8
0
 10
200.208
 20
121.948
 30
0.0
 40
0
 41
0
  0
VERTEX
  8
0
 10
200.214
 20
121.972
 30
0.0
 40
0
 41
0
  0
VERTEX
  8
0
 10
200.219
 20
121.995
 30
0.0
 40
0
 41
0
  0
VERTEX
  8
0
 10
200.226
 20
122.017
 30
0.0
 40
0
 41
0
  0
VERTEX
  8
0
 10
200.232
 20
122.039
 30
0.0
 40
0
 41
0
  0
VERTEX
  8
0
 10
200.239
 20
122.06
 30
0.0
 40
0
 41
0
  0
VERTEX
  8
0
 10
200.246
 20
122.08
 30
0.0
 40
0
 41
0
  0
VERTEX
  8
0
 10
200.253
 20
122.099
 30
0.0
 40
0
 41
0
  0
VERTEX
  8
0
 10
200.261
 20
122.117
 30
0.0
 40
0
 41
0
  0
VERTEX
  8
0
 10
200.268
 20
122.135
 30
0.0
 40
0
 41
0
  0
VERTEX
  8
0
 10
200.276
 20
122.151
 30
0.0
 40
0
 41
0
  0
VERTEX
  8
0
 10
200.526
 20
122.063
 30
0.0
 40
0
 41
0
  0
VERTEX
  8
0
 10
200.524
 20
122.056
 30
0.0
 40
0
 41
0
  0
VERTEX
  8
0
 10
200.521
 20
122.048
 30
0.0
 40
0
 41
0
  0
VERTEX
  8
0
 10
200.517
 20
122.04
 30
0.0
 40
0
 41
0
  0
VERTEX
  8
0
 10
200.514
 20
122.032
 30
0.0
 40
0
 41
0
  0
VERTEX
  8
0
 10
200.511
 20
122.024
 30
0.0
 40
0
 41
0
  0
VERTEX
  8
0
 10
200.508
 20
122.016
 30
0.0
 40
0
 41
0
  0
VERTEX
  8
0
 10
200.506
 20
122.007
 30
0.0
 40
0
 41
0
  0
VERTEX
  8
0
 10
200.501
 20
121.998
 30
0.0
 40
0
 41
0
  0
VERTEX
  8
0
 10
200.499
 20
121.989
 30
0.0
 40
0
 41
0
  0
VERTEX
  8
0
 10
200.496
 20
121.98
 30
0.0
 40
0
 41
0
  0
VERTEX
  8
0
 10
200.493
 20
121.971
 30
0.0
 40
0
 41
0
  0
VERTEX
  8
0
 10
200.49
 20
121.962
 30
0.0
 40
0
 41
0
  0
VERTEX
  8
0
 10
200.486
 20
121.953
 30
0.0
 40
0
 41
0
  0
VERTEX
  8
0
 10
200.483
 20
121.943
 30
0.0
 40
0
 41
0
  0
VERTEX
  8
0
 10
200.481
 20
121.934
 30
0.0
 40
0
 41
0
  0
VERTEX
  8
0
 10
200.475
 20
121.915
 30
0.0
 40
0
 41
0
  0
VERTEX
  8
0
 10
200.474
 20
121.905
 30
0.0
 40
0
 41
0
  0
VERTEX
  8
0
 10
200.471
 20
121.896
 30
0.0
 40
0
 41
0
  0
VERTEX
  8
0
 10
200.468
 20
121.886
 30
0.0
 40
0
 41
0
  0
VERTEX
  8
0
 10
200.465
 20
121.876
 30
0.0
 40
0
 41
0
  0
VERTEX
  8
0
 10
200.464
 20
121.867
 30
0.0
 40
0
 41
0
  0
VERTEX
  8
0
 10
200.461
 20
121.857
 30
0.0
 40
0
 41
0
  0
VERTEX
  8
0
 10
200.458
 20
121.847
 30
0.0
 40
0
 41
0
  0
VERTEX
  8
0
 10
200.457
 20
121.837
 30
0.0
 40
0
 41
0
  0
VERTEX
  8
0
 10
200.456
 20
121.828
 30
0.0
 40
0
 41
0
  0
VERTEX
  8
0
 10
200.453
 20
121.818
 30
0.0
 40
0
 41
0
  0
VERTEX
  8
0
 10
200.451
 20
121.809
 30
0.0
 40
0
 41
0
  0
VERTEX
  8
0
 10
200.45
 20
121.799
 30
0.0
 40
0
 41
0
  0
VERTEX
  8
0
 10
200.449
 20
121.79
 30
0.0
 40
0
 41
0
  0
VERTEX
  8
0
 10
200.447
 20
121.781
 30
0.0
 40
0
 41
0
  0
VERTEX
  8
0
 10
200.446
 20
121.771
 30
0.0
 40
0
 41
0
  0
VERTEX
  8
0
 10
200.444
 20
121.762
 30
0.0
 40
0
 41
0
  0
VERTEX
  8
0
 10
200.443
 20
121.753
 30
0.0
 40
0
 41
0
  0
VERTEX
  8
0
 10
200.443
 20
121.744
 30
0.0
 40
0
 41
0
  0
VERTEX
  8
0
 10
200.442
 20
121.735
 30
0.0
 40
0
 41
0
  0
VERTEX
  8
0
 10
200.442
 20
121.726
 30
0.0
 40
0
 41
0
  0
VERTEX
  8
0
 10
200.442
 20
121.718
 30
0.0
 40
0
 41
0
  0
VERTEX
  8
0
 10
200.44
 20
121.709
 30
0.0
 40
0
 41
0
  0
VERTEX
  8
0
 10
200.44
 20
121.7
 30
0.0
 40
0
 41
0
  0
VERTEX
  8
0
 10
200.442
 20
121.651
 30
0.0
 40
0
 41
0
  0
VERTEX
  8
0
 10
200.447
 20
121.604
 30
0.0
 40
0
 41
0
  0
VERTEX
  8
0
 10
200.456
 20
121.56
 30
0.0
 40
0
 41
0
  0
VERTEX
  8
0
 10
200.467
 20
121.518
 30
0.0
 40
0
 41
0
  0
VERTEX
  8
0
 10
200.482
 20
121.479
 30
0.0
 40
0
 41
0
  0
VERTEX
  8
0
 10
200.5
 20
121.444
 30
0.0
 40
0
 41
0
  0
VERTEX
  8
0
 10
200.521
 20
121.41
 30
0.0
 40
0
 41
0
  0
VERTEX
  8
0
 10
200.546
 20
121.38
 30
0.0
 40
0
 41
0
  0
VERTEX
  8
0
 10
200.574
 20
121.352
 30
0.0
 40
0
 41
0
  0
VERTEX
  8
0
 10
200.606
 20
121.328
 30
0.0
 40
0
 41
0
  0
VERTEX
  8
0
 10
200.639
 20
121.305
 30
0.0
 40
0
 41
0
  0
VERTEX
  8
0
 10
200.678
 20
121.285
 30
0.0
 40
0
 41
0
  0
VERTEX
  8
0
 10
200.719
 20
121.268
 30
0.0
 40
0
 41
0
  0
VERTEX
  8
0
 10
200.764
 20
121.253
 30
0.0
 40
0
 41
0
  0
VERTEX
  8
0
 10
200.814
 20
121.24
 30
0.0
 40
0
 41
0
  0
VERTEX
  8
0
 10
200.867
 20
121.229
 30
0.0
 40
0
 41
0
  0
VERTEX
  8
0
 10
200.922
 20
121.221
 30
0.0
 40
0
 41
0
  0
VERTEX
  8
0
 10
200.982
 20
121.215
 30
0.0
 40
0
 41
0
  0
VERTEX
  8
0
 10
201.046
 20
121.212
 30
0.0
 40
0
 41
0
  0
VERTEX
  8
0
 10
201.112
 20
121.21
 30
0.0
 40
0
 41
0
  0
VERTEX
  8
0
 10
201.179
 20
121.212
 30
0.0
 40
0
 41
0
  0
VERTEX
  8
0
 10
201.243
 20
121.215
 30
0.0
 40
0
 41
0
  0
VERTEX
  8
0
 10
201.303
 20
121.221
 30
0.0
 40
0
 41
0
  0
VERTEX
  8
0
 10
201.358
 20
121.229
 30
0.0
 40
0
 41
0
  0
VERTEX
  8
0
 10
201.41
 20
121.24
 30
0.0
 40
0
 41
0
  0
VERTEX
  8
0
 10
201.458
 20
121.253
 30
0.0
 40
0
 41
0
  0
VERTEX
  8
0
 10
201.504
 20
121.268
 30
0.0
 40
0
 41
0
  0
VERTEX
  8
0
 10
201.544
 20
121.285
 30
0.0
 40
0
 41
0
  0
VERTEX
  8
0
 10
201.582
 20
121.305
 30
0.0
 40
0
 41
0
  0
VERTEX
  8
0
 10
201.615
 20
121.328
 30
0.0
 40
0
 41
0
  0
VERTEX
  8
0
 10
201.646
 20
121.353
 30
0.0
 40
0
 41
0
  0
VERTEX
  8
0
 10
201.672
 20
121.38
 30
0.0
 40
0
 41
0
  0
VERTEX
  8
0
 10
201.696
 20
121.41
 30
0.0
 40
0
 41
0
  0
VERTEX
  8
0
 10
201.717
 20
121.442
 30
0.0
 40
0
 41
0
  0
VERTEX
  8
0
 10
201.735
 20
121.477
 30
0.0
 40
0
 41
0
  0
VERTEX
  8
0
 10
201.749
 20
121.514
 30
0.0
 40
0
 41
0
  0
VERTEX
  8
0
 10
201.76
 20
121.554
 30
0.0
 40
0
 41
0
  0
VERTEX
  8
0
 10
201.768
 20
121.596
 30
0.0
 40
0
 41
0
  0
VERTEX
  8
0
 10
201.772
 20
121.64
 30
0.0
 40
0
 41
0
  0
VERTEX
  8
0
 10
201.774
 20
121.687
 30
0.0
 40
0
 41
0
  0
VERTEX
  8
0
 10
201.774
 20
121.713
 30
0.0
 40
0
 41
0
  0
VERTEX
  8
0
 10
201.772
 20
121.739
 30
0.0
 40
0
 41
0
  0
VERTEX
  8
0
 10
201.771
 20
121.764
 30
0.0
 40
0
 41
0
  0
VERTEX
  8
0
 10
201.769
 20
121.789
 30
0.0
 40
0
 41
0
  0
VERTEX
  8
0
 10
201.767
 20
121.813
 30
0.0
 40
0
 41
0
  0
VERTEX
  8
0
 10
201.763
 20
121.836
 30
0.0
 40
0
 41
0
  0
VERTEX
  8
0
 10
201.76
 20
121.859
 30
0.0
 40
0
 41
0
  0
VERTEX
  8
0
 10
201.756
 20
121.882
 30
0.0
 40
0
 41
0
  0
VERTEX
  8
0
 10
201.75
 20
121.904
 30
0.0
 40
0
 41
0
  0
VERTEX
  8
0
 10
201.744
 20
121.925
 30
0.0
 40
0
 41
0
  0
VERTEX
  8
0
 10
201.737
 20
121.946
 30
0.0
 40
0
 41
0
  0
VERTEX
  8
0
 10
201.732
 20
121.967
 30
0.0
 40
0
 41
0
  0
VERTEX
  8
0
 10
201.725
 20
121.988
 30
0.0
 40
0
 41
0
  0
VERTEX
  8
0
 10
201.718
 20
122.008
 30
0.0
 40
0
 41
0
  0
VERTEX
  8
0
 10
201.711
 20
122.028
 30
0.0
 40
0
 41
0
  0
VERTEX
  8
0
 10
201.704
 20
122.047
 30
0.0
 40
0
 41
0
  0
VERTEX
  8
0
 10
201.696
 20
122.066
 30
0.0
 40
0
 41
0
  0
VERTEX
  8
0
 10
201.689
 20
122.084
 30
0.0
 40
0
 41
0
  0
VERTEX
  8
0
 10
201.681
 20
122.102
 30
0.0
 40
0
 41
0
  0
VERTEX
  8
0
 10
201.672
 20
122.12
 30
0.0
 40
0
 41
0
  0
VERTEX
  8
0
 10
201.936
 20
122.12
 30
0.0
 40
0
 41
0
  0
VERTEX
  8
0
 10
201.946
 20
122.103
 30
0.0
 40
0
 41
0
  0
VERTEX
  8
0
 10
201.954
 20
122.085
 30
0.0
 40
0
 41
0
  0
VERTEX
  8
0
 10
201.962
 20
122.066
 30
0.0
 40
0
 41
0
  0
VERTEX
  8
0
 10
201.971
 20
122.048
 30
0.0
 40
0
 41
0
  0
VERTEX
  8
0
 10
201.978
 20
122.029
 30
0.0
 40
0
 41
0
  0
VERTEX
  8
0
 10
201.985
 20
122.01
 30
0.0
 40
0
 41
0
  0
VERTEX
  8
0
 10
201.992
 20
121.991
 30
0.0
 40
0
 41
0
  0
VERTEX
  8
0
 10
201.997
 20
121.971
 30
0.0
 40
0
 41
0
  0
VERTEX
  8
0
 10
202.003
 20
121.952
 30
0.0
 40
0
 41
0
  0
VERTEX
  8
0
 10
202.008
 20
121.932
 30
0.0
 40
0
 41
0
  0
VERTEX
  8
0
 10
202.013
 20
121.911
 30
0.0
 40
0
 41
0
  0
VERTEX
  8
0
 10
202.017
 20
121.89
 30
0.0
 40
0
 41
0
  0
VERTEX
  8
0
 10
202.021
 20
121.868
 30
0.0
 40
0
 41
0
  0
VERTEX
  8
0
 10
202.024
 20
121.845
 30
0.0
 40
0
 41
0
  0
VERTEX
  8
0
 10
202.026
 20
121.821
 30
0.0
 40
0
 41
0
  0
VERTEX
  8
0
 10
202.029
 20
121.796
 30
0.0
 40
0
 41
0
  0
VERTEX
  8
0
 10
202.031
 20
121.77
 30
0.0
 40
0
 41
0
  0
VERTEX
  8
0
 10
202.032
 20
121.743
 30
0.0
 40
0
 41
0
  0
VERTEX
  8
0
 10
202.032
 20
121.716
 30
0.0
 40
0
 41
0
  0
VERTEX
  8
0
 10
202.032
 20
121.687
 30
0.0
 40
0
 41
0
  0
SEQEND
 8
0
  0
POLYLINE
  8
0
 62
     0
 66
     1
 10
0
 20
0
 30
0.0
 70
     1
 40
0
 41
0
  0
VERTEX
  8
0
 10
202
 20
124.687
 30
0.0
 40
0
 41
0
  0
VERTEX
  8
0
 10
200.849
 20
124.687
 30
0.0
 40
0
 41
0
  0
VERTEX
  8
0
 10
200.808
 20
124.686
 30
0.0
 40
0
 41
0
  0
VERTEX
  8
0
 10
200.769
 20
124.684
 30
0.0
 40
0
 41
0
  0
VERTEX
  8
0
 10
200.732
 20
124.68
 30
0.0
 40
0
 41
0
  0
VERTEX
  8
0
 10
200.697
 20
124.674
 30
0.0
 40
0
 41
0
  0
VERTEX
  8
0
 10
200.664
 20
124.667
 30
0.0
 40
0
 41
0
  0
VERTEX
  8
0
 10
200.633
 20
124.658
 30
0.0
 40
0
 41
0
  0
VERTEX
  8
0
 10
200.604
 20
124.647
 30
0.0
 40
0
 41
0
  0
VERTEX
  8
0
 10
200.578
 20
124.635
 30
0.0
 40
0
 41
0
  0
VERTEX
  8
0
 10
200.554
 20
124.621
 30
0.0
 40
0
 41
0
  0
VERTEX
  8
0
 10
200.532
 20
124.606
 30
0.0
 40
0
 41
0
  0
VERTEX
  8
0
 10
200.511
 20
124.588
 30
0.0
 40
0
 41
0
  0
VERTEX
  8
0
 10
200.493
 20
124.57
 30
0.0
 40
0
 41
0
  0
VERTEX
  8
0
 10
200.478
 20
124.549
 30
0.0
 40
0
 41
0
  0
VERTEX
  8
0
 10
200.464
 20
124.526
 30
0.0
 40
0
 41
0
  0
VERTEX
  8
0
 10
200.453
 20
124.502
 30
0.0
 40
0
 41
0
  0
VERTEX
  8
0
 10
200.443
 20
124.476
 30
0.0
 40
0
 41
0
  0
VERTEX
  8
0
 10
200.436
 20
124.448
 30
0.0
 40
0
 41
0
  0
VERTEX
  8
0
 10
200.431
 20
124.418
 30
0.0
 40
0
 41
0
  0
VERTEX
  8
0
 10
200.428
 20
124.387
 30
0.0
 40
0
 41
0
  0
VERTEX
  8
0
 10
200.426
 20
124.353
 30
0.0
 40
0
 41
0
  0
VERTEX
  8
0
 10
200.426
 20
124.33
 30
0.0
 40
0
 41
0
  0
VERTEX
  8
0
 10
200.428
 20
124.307
 30
0.0
 40
0
 41
0
  0
VERTEX
  8
0
 10
200.429
 20
124.285
 30
0.0
 40
0
 41
0
  0
VERTEX
  8
0
 10
200.432
 20
124.264
 30
0.0
 40
0
 41
0
  0
VERTEX
  8
0
 10
200.436
 20
124.243
 30
0.0
 40
0
 41
0
  0
VERTEX
  8
0
 10
200.44
 20
124.224
 30
0.0
 40
0
 41
0
  0
VERTEX
  8
0
 10
200.446
 20
124.205
 30
0.0
 40
0
 41
0
  0
VERTEX
  8
0
 10
200.451
 20
124.186
 30
0.0
 40
0
 41
0
  0
VERTEX
  8
0
 10
200.457
 20
124.168
 30
0.0
 40
0
 41
0
  0
VERTEX
  8
0
 10
200.465
 20
124.152
 30
0.0
 40
0
 41
0
  0
VERTEX
  8
0
 10
200.474
 20
124.135
 30
0.0
 40
0
 41
0
  0
VERTEX
  8
0
 10
200.482
 20
124.12
 30
0.0
 40
0
 41
0
  0
VERTEX
  8
0
 10
200.49
 20
124.104
 30
0.0
 40
0
 41
0
  0
VERTEX
  8
0
 10
200.501
 20
124.09
 30
0.0
 40
0
 41
0
  0
VERTEX
  8
0
 10
200.513
 20
124.076
 30
0.0
 40
0
 41
0
  0
VERTEX
  8
0
 10
200.524
 20
124.063
 30
0.0
 40
0
 41
0
  0
VERTEX
  8
0
 10
200.536
 20
124.05
 30
0.0
 40
0
 41
0
  0
VERTEX
  8
0
 10
200.549
 20
124.038
 30
0.0
 40
0
 41
0
  0
VERTEX
  8
0
 10
200.563
 20
124.026
 30
0.0
 40
0
 41
0
  0
VERTEX
  8
0
 10
200.578
 20
124.015
 30
0.0
 40
0
 41
0
  0
VERTEX
  8
0
 10
200.592
 20
124.005
 30
0.0
 40
0
 41
0
  0
VERTEX
  8
0
 10
200.608
 20
123.995
 30
0.0
 40
0
 41
0
  0
VERTEX
  8
0
 10
200.625
 20
123.986
 30
0.0
 40
0
 41
0
  0
VERTEX
  8
0
 10
200.642
 20
123.978
 30
0.0
 40
0
 41
0
  0
VERTEX
  8
0
 10
200.66
 20
123.97
 30
0.0
 40
0
 41
0
  0
VERTEX
  8
0
 10
200.679
 20
123.962
 30
0.0
 40
0
 41
0
  0
VERTEX
  8
0
 10
200.699
 20
123.955
 30
0.0
 40
0
 41
0
  0
VERTEX
  8
0
 10
200.718
 20
123.949
 30
0.0
 40
0
 41
0
  0
VERTEX
  8
0
 10
200.739
 20
123.943
 30
0.0
 40
0
 41
0
  0
VERTEX
  8
0
 10
200.761
 20
123.938
 30
0.0
 40
0
 41
0
  0
VERTEX
  8
0
 10
200.783
 20
123.934
 30
0.0
 40
0
 41
0
  0
VERTEX
  8
0
 10
200.807
 20
123.93
 30
0.0
 40
0
 41
0
  0
VERTEX
  8
0
 10
200.829
 20
123.926
 30
0.0
 40
0
 41
0
  0
VERTEX
  8
0
 10
200.854
 20
123.923
 30
0.0
 40
0
 41
0
  0
VERTEX
  8
0
 10
200.879
 20
123.92
 30
0.0
 40
0
 41
0
  0
VERTEX
  8
0
 10
200.904
 20
123.918
 30
0.0
 40
0
 41
0
  0
VERTEX
  8
0
 10
200.931
 20
123.916
 30
0.0
 40
0
 41
0
  0
VERTEX
  8
0
 10
200.957
 20
123.915
 30
0.0
 40
0
 41
0
  0
VERTEX
  8
0
 10
200.985
 20
123.914
 30
0.0
 40
0
 41
0
  0
VERTEX
  8
0
 10
201.014
 20
123.914
 30
0.0
 40
0
 41
0
  0
VERTEX
  8
0
 10
202
 20
123.914
 30
0.0
 40
0
 41
0
  0
VERTEX
  8
0
 10
202
 20
123.616
 30
0.0
 40
0
 41
0
  0
VERTEX
  8
0
 10
200.849
 20
123.616
 30
0.0
 40
0
 41
0
  0
VERTEX
  8
0
 10
200.808
 20
123.615
 30
0.0
 40
0
 41
0
  0
VERTEX
  8
0
 10
200.769
 20
123.613
 30
0.0
 40
0
 41
0
  0
VERTEX
  8
0
 10
200.732
 20
123.609
 30
0.0
 40
0
 41
0
  0
VERTEX
  8
0
 10
200.697
 20
123.603
 30
0.0
 40
0
 41
0
  0
VERTEX
  8
0
 10
200.664
 20
123.596
 30
0.0
 40
0
 41
0
  0
VERTEX
  8
0
 10
200.633
 20
123.587
 30
0.0
 40
0
 41
0
  0
VERTEX
  8
0
 10
200.604
 20
123.576
 30
0.0
 40
0
 41
0
  0
VERTEX
  8
0
 10
200.578
 20
123.564
 30
0.0
 40
0
 41
0
  0
VERTEX
  8
0
 10
200.554
 20
123.55
 30
0.0
 40
0
 41
0
  0
VERTEX
  8
0
 10
200.532
 20
123.535
 30
0.0
 40
0
 41
0
  0
VERTEX
  8
0
 10
200.511
 20
123.518
 30
0.0
 40
0
 41
0
  0
VERTEX
  8
0
 10
200.493
 20
123.499
 30
0.0
 40
0
 41
0
  0
VERTEX
  8
0
 10
200.478
 20
123.479
 30
0.0
 40
0
 41
0
  0
VERTEX
  8
0
 10
200.464
 20
123.456
 30
0.0
 40
0
 41
0
  0
VERTEX
  8
0
 10
200.453
 20
123.432
 30
0.0
 40
0
 41
0
  0
VERTEX
  8
0
 10
200.443
 20
123.406
 30
0.0
 40
0
 41
0
  0
VERTEX
  8
0
 10
200.436
 20
123.378
 30
0.0
 40
0
 41
0
  0
VERTEX
  8
0
 10
200.431
 20
123.349
 30
0.0
 40
0
 41
0
  0
VERTEX
  8
0
 10
200.428
 20
123.317
 30
0.0
 40
0
 41
0
  0
VERTEX
  8
0
 10
200.426
 20
123.284
 30
0.0
 40
0
 41
0
  0
VERTEX
  8
0
 10
200.426
 20
123.259
 30
0.0
 40
0
 41
0
  0
VERTEX
  8
0
 10
200.428
 20
123.236
 30
0.0
 40
0
 41
0
  0
VERTEX
  8
0
 10
200.429
 20
123.212
 30
0.0
 40
0
 41
0
  0
VERTEX
  8
0
 10
200.433
 20
123.19
 30
0.0
 40
0
 41
0
  0
VERTEX
  8
0
 10
200.436
 20
123.169
 30
0.0
 40
0
 41
0
  0
VERTEX
  8
0
 10
200.442
 20
123.148
 30
0.0
 40
0
 41
0
  0
VERTEX
  8
0
 10
200.447
 20
123.128
 30
0.0
 40
0
 41
0
  0
VERTEX
  8
0
 10
200.453
 20
123.11
 30
0.0
 40
0
 41
0
  0
VERTEX
  8
0
 10
200.46
 20
123.091
 30
0.0
 40
0
 41
0
  0
VERTEX
  8
0
 10
200.468
 20
123.074
 30
0.0
 40
0
 41
0
  0
VERTEX
  8
0
 10
200.478
 20
123.057
 30
0.0
 40
0
 41
0
  0
VERTEX
  8
0
 10
200.487
 20
123.042
 30
0.0
 40
0
 41
0
  0
VERTEX
  8
0
 10
200.497
 20
123.026
 30
0.0
 40
0
 41
0
  0
VERTEX
  8
0
 10
200.508
 20
123.012
 30
0.0
 40
0
 41
0
  0
VERTEX
  8
0
 10
200.521
 20
122.998
 30
0.0
 40
0
 41
0
  0
VERTEX
  8
0
 10
200.533
 20
122.984
 30
0.0
 40
0
 41
0
  0
VERTEX
  8
0
 10
200.547
 20
122.972
 30
0.0
 40
0
 41
0
  0
VERTEX
  8
0
 10
200.563
 20
122.959
 30
0.0
 40
0
 41
0
  0
VERTEX
  8
0
 10
200.578
 20
122.948
 30
0.0
 40
0
 41
0
  0
VERTEX
  8
0
 10
200.593
 20
122.937
 30
0.0
 40
0
 41
0
  0
VERTEX
  8
0
 10
200.611
 20
122.928
 30
0.0
 40
0
 41
0
  0
VERTEX
  8
0
 10
200.628
 20
122.918
 30
0.0
 40
0
 41
0
  0
VERTEX
  8
0
 10
200.647
 20
122.91
 30
0.0
 40
0
 41
0
  0
VERTEX
  8
0
 10
200.665
 20
122.901
 30
0.0
 40
0
 41
0
  0
VERTEX
  8
0
 10
200.686
 20
122.894
 30
0.0
 40
0
 41
0
  0
VERTEX
  8
0
 10
200.707
 20
122.887
 30
0.0
 40
0
 41
0
  0
VERTEX
  8
0
 10
200.728
 20
122.88
 30
0.0
 40
0
 41
0
  0
VERTEX
  8
0
 10
200.75
 20
122.874
 30
0.0
 40
0
 41
0
  0
VERTEX
  8
0
 10
200.774
 20
122.869
 30
0.0
 40
0
 41
0
  0
VERTEX
  8
0
 10
200.797
 20
122.864
 30
0.0
 40
0
 41
0
  0
VERTEX
  8
0
 10
200.821
 20
122.86
 30
0.0
 40
0
 41
0
  0
VERTEX
  8
0
 10
200.847
 20
122.857
 30
0.0
 40
0
 41
0
  0
VERTEX
  8
0
 10
200.872
 20
122.853
 30
0.0
 40
0
 41
0
  0
VERTEX
  8
0
 10
200.899
 20
122.851
 30
0.0
 40
0
 41
0
  0
VERTEX
  8
0
 10
200.926
 20
122.848
 30
0.0
 40
0
 41
0
  0
VERTEX
  8
0
 10
200.954
 20
122.846
 30
0.0
 40
0
 41
0
  0
VERTEX
  8
0
 10
200.983
 20
122.845
 30
0.0
 40
0
 41
0
  0
VERTEX
  8
0
 10
201.013
 20
122.844
 30
0.0
 40
0
 41
0
  0
VERTEX
  8
0
 10
201.043
 20
122.843
 30
0.0
 40
0
 41
0
  0
VERTEX
  8
0
 10
201.074
 20
122.843
 30
0.0
 40
0
 41
0
  0
VERTEX
  8
0
 10
202
 20
122.843
 30
0.0
 40
0
 41
0
  0
VERTEX
  8
0
 10
202
 20
122.547
 30
0.0
 40
0
 41
0
  0
VERTEX
  8
0
 10
200.212
 20
122.547
 30
0.0
 40
0
 41
0
  0
VERTEX
  8
0
 10
200.212
 20
122.788
 30
0.0
 40
0
 41
0
  0
VERTEX
  8
0
 10
200.454
 20
122.83
 30
0.0
 40
0
 41
0
  0
VERTEX
  8
0
 10
200.454
 20
122.846
 30
0.0
 40
0
 41
0
  0
VERTEX
  8
0
 10
200.44
 20
122.854
 30
0.0
 40
0
 41
0
  0
VERTEX
  8
0
 10
200.426
 20
122.862
 30
0.0
 40
0
 41
0
  0
VERTEX
  8
0
 10
200.414
 20
122.871
 30
0.0
 40
0
 41
0
  0
VERTEX
  8
0
 10
200.401
 20
122.88
 30
0.0
 40
0
 41
0
  0
VERTEX
  8
0
 10
200.389
 20
122.889
 30
0.0
 40
0
 41
0
  0
VERTEX
  8
0
 10
200.376
 20
122.898
 30
0.0
 40
0
 41
0
  0
VERTEX
  8
0
 10
200.365
 20
122.908
 30
0.0
 40
0
 41
0
  0
VERTEX
  8
0
 10
200.354
 20
122.918
 30
0.0
 40
0
 41
0
  0
VERTEX
  8
0
 10
200.343
 20
122.928
 30
0.0
 40
0
 41
0
  0
VERTEX
  8
0
 10
200.333
 20
122.939
 30
0.0
 40
0
 41
0
  0
VERTEX
  8
0
 10
200.324
 20
122.95
 30
0.0
 40
0
 41
0
  0
VERTEX
  8
0
 10
200.313
 20
122.961
 30
0.0
 40
0
 41
0
  0
VERTEX
  8
0
 10
200.304
 20
122.972
 30
0.0
 40
0
 41
0
  0
VERTEX
  8
0
 10
200.294
 20
122.983
 30
0.0
 40
0
 41
0
  0
VERTEX
  8
0
 10
200.286
 20
122.995
 30
0.0
 40
0
 41
0
  0
VERTEX
  8
0
 10
200.276
 20
123.007
 30
0.0
 40
0
 41
0
  0
VERTEX
  8
0
 10
200.269
 20
123.019
 30
0.0
 40
0
 41
0
  0
VERTEX
  8
0
 10
200.261
 20
123.031
 30
0.0
 40
0
 41
0
  0
VERTEX
  8
0
 10
200.254
 20
123.044
 30
0.0
 40
0
 41
0
  0
VERTEX
  8
0
 10
200.247
 20
123.056
 30
0.0
 40
0
 41
0
  0
VERTEX
  8
0
 10
200.24
 20
123.069
 30
0.0
 40
0
 41
0
  0
VERTEX
  8
0
 10
200.235
 20
123.083
 30
0.0
 40
0
 41
0
  0
VERTEX
  8
0
 10
200.228
 20
123.096
 30
0.0
 40
0
 41
0
  0
VERTEX
  8
0
 10
200.222
 20
123.109
 30
0.0
 40
0
 41
0
  0
VERTEX
  8
0
 10
200.217
 20
123.123
 30
0.0
 40
0
 41
0
  0
VERTEX
  8
0
 10
200.212
 20
123.137
 30
0.0
 40
0
 41
0
  0
VERTEX
  8
0
 10
200.208
 20
123.151
 30
0.0
 40
0
 41
0
  0
VERTEX
  8
0
 10
200.204
 20
123.164
 30
0.0
 40
0
 41
0
  0
VERTEX
  8
0
 10
200.2
 20
123.179
 30
0.0
 40
0
 41
0
  0
VERTEX
  8
0
 10
200.196
 20
123.193
 30
0.0
 40
0
 41
0
  0
VERTEX
  8
0
 10
200.193
 20
123.208
 30
0.0
 40
0
 41
0
  0
VERTEX
  8
0
 10
200.19
 20
123.222
 30
0.0
 40
0
 41
0
  0
VERTEX
  8
0
 10
200.189
 20
123.237
 30
0.0
 40
0
 41
0
  0
VERTEX
  8
0
 10
200.186
 20
123.252
 30
0.0
 40
0
 41
0
  0
VERTEX
  8
0
 10
200.185
 20
123.267
 30
0.0
 40
0
 41
0
  0
VERTEX
  8
0
 10
200.183
 20
123.281
 30
0.0
 40
0
 41
0
  0
VERTEX
  8
0
 10
200.182
 20
123.296
 30
0.0
 40
0
 41
0
  0
VERTEX
  8
0
 10
200.181
 20
123.311
 30
0.0
 40
0
 41
0
  0
VERTEX
  8
0
 10
200.181
 20
123.326
 30
0.0
 40
0
 41
0
  0
VERTEX
  8
0
 10
200.181
 20
123.341
 30
0.0
 40
0
 41
0
  0
VERTEX
  8
0
 10
200.181
 20
123.379
 30
0.0
 40
0
 41
0
  0
VERTEX
  8
0
 10
200.183
 20
123.417
 30
0.0
 40
0
 41
0
  0
VERTEX
  8
0
 10
200.186
 20
123.452
 30
0.0
 40
0
 41
0
  0
VERTEX
  8
0
 10
200.192
 20
123.487
 30
0.0
 40
0
 41
0
  0
VERTEX
  8
0
 10
200.199
 20
123.52
 30
0.0
 40
0
 41
0
  0
VERTEX
  8
0
 10
200.206
 20
123.551
 30
0.0
 40
0
 41
0
  0
VERTEX
  8
0
 10
200.215
 20
123.582
 30
0.0
 40
0
 41
0
  0
VERTEX
  8
0
 10
200.226
 20
123.611
 30
0.0
 40
0
 41
0
  0
VERTEX
  8
0
 10
200.237
 20
123.638
 30
0.0
 40
0
 41
0
  0
VERTEX
  8
0
 10
200.251
 20
123.665
 30
0.0
 40
0
 41
0
  0
VERTEX
  8
0
 10
200.267
 20
123.69
 30
0.0
 40
0
 41
0
  0
VERTEX
  8
0
 10
200.283
 20
123.714
 30
0.0
 40
0
 41
0
  0
VERTEX
  8
0
 10
200.303
 20
123.737
 30
0.0
 40
0
 41
0
  0
VERTEX
  8
0
 10
200.322
 20
123.758
 30
0.0
 40
0
 41
0
  0
VERTEX
  8
0
 10
200.344
 20
123.778
 30
0.0
 40
0
 41
0
  0
VERTEX
  8
0
 10
200.367
 20
123.797
 30
0.0
 40
0
 41
0
  0
VERTEX
  8
0
 10
200.392
 20
123.814
 30
0.0
 40
0
 41
0
  0
VERTEX
  8
0
 10
200.418
 20
123.829
 30
0.0
 40
0
 41
0
  0
VERTEX
  8
0
 10
200.447
 20
123.844
 30
0.0
 40
0
 41
0
  0
VERTEX
  8
0
 10
200.476
 20
123.857
 30
0.0
 40
0
 41
0
  0
VERTEX
  8
0
 10
200.476
 20
123.87
 30
0.0
 40
0
 41
0
  0
VERTEX
  8
0
 10
200.461
 20
123.879
 30
0.0
 40
0
 41
0
  0
VERTEX
  8
0
 10
200.447
 20
123.888
 30
0.0
 40
0
 41
0
  0
VERTEX
  8
0
 10
200.432
 20
123.897
 30
0.0
 40
0
 41
0
  0
VERTEX
  8
0
 10
200.418
 20
123.906
 30
0.0
 40
0
 41
0
  0
VERTEX
  8
0
 10
200.406
 20
123.916
 30
0.0
 40
0
 41
0
  0
VERTEX
  8
0
 10
200.392
 20
123.927
 30
0.0
 40
0
 41
0
  0
VERTEX
  8
0
 10
200.379
 20
123.937
 30
0.0
 40
0
 41
0
  0
VERTEX
  8
0
 10
200.368
 20
123.948
 30
0.0
 40
0
 41
0
  0
VERTEX
  8
0
 10
200.356
 20
123.959
 30
0.0
 40
0
 41
0
  0
VERTEX
  8
0
 10
200.344
 20
123.971
 30
0.0
 40
0
 41
0
  0
VERTEX
  8
0
 10
200.333
 20
123.983
 30
0.0
 40
0
 41
0
  0
VERTEX
  8
0
 10
200.324
 20
123.995
 30
0.0
 40
0
 41
0
  0
VERTEX
  8
0
 10
200.314
 20
124.008
 30
0.0
 40
0
 41
0
  0
VERTEX
  8
0
 10
200.304
 20
124.021
 30
0.0
 40
0
 41
0
  0
VERTEX
  8
0
 10
200.294
 20
124.034
 30
0.0
 40
0
 41
0
  0
VERTEX
  8
0
 10
200.285
 20
124.047
 30
0.0
 40
0
 41
0
  0
VERTEX
  8
0
 10
200.276
 20
124.06
 30
0.0
 40
0
 41
0
  0
VERTEX
  8
0
 10
200.268
 20
124.073
 30
0.0
 40
0
 41
0
  0
VERTEX
  8
0
 10
200.261
 20
124.087
 30
0.0
 40
0
 41
0
  0
VERTEX
  8
0
 10
200.254
 20
124.101
 30
0.0
 40
0
 41
0
  0
VERTEX
  8
0
 10
200.246
 20
124.116
 30
0.0
 40
0
 41
0
  0
VERTEX
  8
0
 10
200.239
 20
124.13
 30
0.0
 40
0
 41
0
  0
VERTEX
  8
0
 10
200.233
 20
124.145
 30
0.0
 40
0
 41
0
  0
VERTEX
  8
0
 10
200.226
 20
124.159
 30
0.0
 40
0
 41
0
  0
VERTEX
  8
0
 10
200.221
 20
124.174
 30
0.0
 40
0
 41
0
  0
VERTEX
  8
0
 10
200.215
 20
124.189
 30
0.0
 40
0
 41
0
  0
VERTEX
  8
0
 10
200.211
 20
124.205
 30
0.0
 40
0
 41
0
  0
VERTEX
  8
0
 10
200.206
 20
124.22
 30
0.0
 40
0
 41
0
  0
VERTEX
  8
0
 10
200.201
 20
124.235
 30
0.0
 40
0
 41
0
  0
VERTEX
  8
0
 10
200.199
 20
124.251
 30
0.0
 40
0
 41
0
  0
VERTEX
  8
0
 10
200.194
 20
124.267
 30
0.0
 40
0
 41
0
  0
VERTEX
  8
0
 10
200.192
 20
124.282
 30
0.0
 40
0
 41
0
  0
VERTEX
  8
0
 10
200.189
 20
124.298
 30
0.0
 40
0
 41
0
  0
VERTEX
  8
0
 10
200.186
 20
124.314
 30
0.0
 40
0
 41
0
  0
VERTEX
  8
0
 10
200.185
 20
124.33
 30
0.0
 40
0
 41
0
  0
VERTEX
  8
0
 10
200.183
 20
124.346
 30
0.0
 40
0
 41
0
  0
VERTEX
  8
0
 10
200.182
 20
124.362
 30
0.0
 40
0
 41
0
  0
VERTEX
  8
0
 10
200.181
 20
124.378
 30
0.0
 40
0
 41
0
  0
VERTEX
  8
0
 10
200.181
 20
124.394
 30
0.0
 40
0
 41
0
  0
VERTEX
  8
0
 10
200.181
 20
124.41
 30
0.0
 40
0
 41
0
  0
VERTEX
  8
0
 10
200.182
 20
124.466
 30
0.0
 40
0
 41
0
  0
VERTEX
  8
0
 10
200.186
 20
124.519
 30
0.0
 40
0
 41
0
  0
VERTEX
  8
0
 10
200.194
 20
124.568
 30
0.0
 40
0
 41
0
  0
VERTEX
  8
0
 10
200.206
 20
124.616
 30
0.0
 40
0
 41
0
  0
VERTEX
  8
0
 10
200.219
 20
124.66
 30
0.0
 40
0
 41
0
  0
VERTEX
  8
0
 10
200.236
 20
124.701
 30
0.0
 40
0
 41
0
  0
VERTEX
  8
0
 10
200.257
 20
124.74
 30
0.0
 40
0
 41
0
  0
VERTEX
  8
0
 10
200.281
 20
124.775
 30
0.0
 40
0
 41
0
  0
VERTEX
  8
0
 10
200.307
 20
124.808
 30
0.0
 40
0
 41
0
  0
VERTEX
  8
0
 10
200.336
 20
124.838
 30
0.0
 40
0
 41
0
  0
VERTEX
  8
0
 10
200.369
 20
124.866
 30
0.0
 40
0
 41
0
  0
VERTEX
  8
0
 10
200.406
 20
124.891
 30
0.0
 40
0
 41
0
  0
VERTEX
  8
0
 10
200.446
 20
124.912
 30
0.0
 40
0
 41
0
  0
VERTEX
  8
0
 10
200.49
 20
124.931
 30
0.0
 40
0
 41
0
  0
VERTEX
  8
0
 10
200.538
 20
124.947
 30
0.0
 40
0
 41
0
  0
VERTEX
  8
0
 10
200.589
 20
124.96
 30
0.0
 40
0
 41
0
  0
VERTEX
  8
0
 10
200.644
 20
124.97
 30
0.0
 40
0
 41
0
  0
VERTEX
  8
0
 10
200.704
 20
124.977
 30
0.0
 40
0
 41
0
  0
VERTEX
  8
0
 10
200.767
 20
124.982
 30
0.0
 40
0
 41
0
  0
VERTEX
  8
0
 10
200.833
 20
124.983
 30
0.0
 40
0
 41
0
  0
VERTEX
  8
0
 10
202
 20
124.983
 30
0.0
 40
0
 41
0
  0
VERTEX
  8
0
 10
202
 20
124.687
 30
0.0
 40
0
 41
0
  0
SEQEND
 8
0
  0
POLYLINE
  8
0
 62
     0
 66
     1
 10
0
 20
0
 30
0.0
 70
     1
 40
0
 41
0
  0
VERTEX
  8
0
 10
308.379
 20
85.4071
 30
0.0
 40
0
 41
0
  0
VERTEX
  8
0
 10
308.379
 20
85.1206
 30
0.0
 40
0
 41
0
  0
VERTEX
  8
0
 10
306.743
 20
85.1206
 30
0.0
 40
0
 41
0
  0
VERTEX
  8
0
 10
306.728
 20
85.1208
 30
0.0
 40
0
 41
0
  0
VERTEX
  8
0
 10
306.713
 20
85.1213
 30
0.0
 40
0
 41
0
  0
VERTEX
  8
0
 10
306.681
 20
85.1218
 30
0.0
 40
0
 41
0
  0
VERTEX
  8
0
 10
306.664
 20
85.1222
 30
0.0
 40
0
 41
0
  0
VERTEX
  8
0
 10
306.649
 20
85.1225
 30
0.0
 40
0
 41
0
  0
VERTEX
  8
0
 10
306.633
 20
85.1228
 30
0.0
 40
0
 41
0
  0
VERTEX
  8
0
 10
306.617
 20
85.1232
 30
0.0
 40
0
 41
0
  0
VERTEX
  8
0
 10
306.601
 20
85.1235
 30
0.0
 40
0
 41
0
  0
VERTEX
  8
0
 10
306.586
 20
85.1239
 30
0.0
 40
0
 41
0
  0
VERTEX
  8
0
 10
306.569
 20
85.1244
 30
0.0
 40
0
 41
0
  0
VERTEX
  8
0
 10
306.554
 20
85.125
 30
0.0
 40
0
 41
0
  0
VERTEX
  8
0
 10
306.539
 20
85.1257
 30
0.0
 40
0
 41
0
  0
VERTEX
  8
0
 10
306.524
 20
85.1261
 30
0.0
 40
0
 41
0
  0
VERTEX
  8
0
 10
306.508
 20
85.1267
 30
0.0
 40
0
 41
0
  0
VERTEX
  8
0
 10
306.493
 20
85.1271
 30
0.0
 40
0
 41
0
  0
VERTEX
  8
0
 10
306.478
 20
85.1276
 30
0.0
 40
0
 41
0
  0
VERTEX
  8
0
 10
306.464
 20
85.1281
 30
0.0
 40
0
 41
0
  0
VERTEX
  8
0
 10
306.449
 20
85.1283
 30
0.0
 40
0
 41
0
  0
VERTEX
  8
0
 10
306.435
 20
85.1288
 30
0.0
 40
0
 41
0
  0
VERTEX
  8
0
 10
306.419
 20
85.1293
 30
0.0
 40
0
 41
0
  0
VERTEX
  8
0
 10
306.406
 20
85.13
 30
0.0
 40
0
 41
0
  0
VERTEX
  8
0
 10
306.392
 20
85.1306
 30
0.0
 40
0
 41
0
  0
VERTEX
  8
0
 10
306.379
 20
85.1311
 30
0.0
 40
0
 41
0
  0
VERTEX
  8
0
 10
306.365
 20
85.1315
 30
0.0
 40
0
 41
0
  0
VERTEX
  8
0
 10
306.353
 20
85.1321
 30
0.0
 40
0
 41
0
  0
VERTEX
  8
0
 10
306.34
 20
85.1325
 30
0.0
 40
0
 41
0
  0
VERTEX
  8
0
 10
306.329
 20
85.1329
 30
0.0
 40
0
 41
0
  0
VERTEX
  8
0
 10
306.317
 20
85.1332
 30
0.0
 40
0
 41
0
  0
VERTEX
  8
0
 10
306.306
 20
85.1336
 30
0.0
 40
0
 41
0
  0
VERTEX
  8
0
 10
306.311
 20
85.1281
 30
0.0
 40
0
 41
0
  0
VERTEX
  8
0
 10
306.317
 20
85.1228
 30
0.0
 40
0
 41
0
  0
VERTEX
  8
0
 10
306.328
 20
85.1125
 30
0.0
 40
0
 41
0
  0
VERTEX
  8
0
 10
306.333
 20
85.1075
 30
0.0
 40
0
 41
0
  0
VERTEX
  8
0
 10
306.338
 20
85.1028
 30
0.0
 40
0
 41
0
  0
VERTEX
  8
0
 10
306.343
 20
85.0981
 30
0.0
 40
0
 41
0
  0
VERTEX
  8
0
 10
306.347
 20
85.0935
 30
0.0
 40
0
 41
0
  0
VERTEX
  8
0
 10
306.351
 20
85.089
 30
0.0
 40
0
 41
0
  0
VERTEX
  8
0
 10
306.356
 20
85.0847
 30
0.0
 40
0
 41
0
  0
VERTEX
  8
0
 10
306.361
 20
85.0806
 30
0.0
 40
0
 41
0
  0
VERTEX
  8
0
 10
306.365
 20
85.0763
 30
0.0
 40
0
 41
0
  0
VERTEX
  8
0
 10
306.369
 20
85.0719
 30
0.0
 40
0
 41
0
  0
VERTEX
  8
0
 10
306.372
 20
85.0676
 30
0.0
 40
0
 41
0
  0
VERTEX
  8
0
 10
306.376
 20
85.0632
 30
0.0
 40
0
 41
0
  0
VERTEX
  8
0
 10
306.381
 20
85.0588
 30
0.0
 40
0
 41
0
  0
VERTEX
  8
0
 10
306.385
 20
85.0543
 30
0.0
 40
0
 41
0
  0
VERTEX
  8
0
 10
306.389
 20
85.0499
 30
0.0
 40
0
 41
0
  0
VERTEX
  8
0
 10
306.393
 20
85.0454
 30
0.0
 40
0
 41
0
  0
VERTEX
  8
0
 10
306.397
 20
85.0408
 30
0.0
 40
0
 41
0
  0
VERTEX
  8
0
 10
306.401
 20
85.0365
 30
0.0
 40
0
 41
0
  0
VERTEX
  8
0
 10
306.406
 20
85.0322
 30
0.0
 40
0
 41
0
  0
VERTEX
  8
0
 10
306.408
 20
85.0278
 30
0.0
 40
0
 41
0
  0
VERTEX
  8
0
 10
306.418
 20
85.0189
 30
0.0
 40
0
 41
0
  0
VERTEX
  8
0
 10
306.422
 20
85.0143
 30
0.0
 40
0
 41
0
  0
VERTEX
  8
0
 10
306.426
 20
85.0096
 30
0.0
 40
0
 41
0
  0
VERTEX
  8
0
 10
306.431
 20
85.0049
 30
0.0
 40
0
 41
0
  0
VERTEX
  8
0
 10
306.435
 20
85.0001
 30
0.0
 40
0
 41
0
  0
VERTEX
  8
0
 10
306.439
 20
84.9953
 30
0.0
 40
0
 41
0
  0
VERTEX
  8
0
 10
306.443
 20
84.9903
 30
0.0
 40
0
 41
0
  0
VERTEX
  8
0
 10
306.449
 20
84.9851
 30
0.0
 40
0
 41
0
  0
VERTEX
  8
0
 10
306.453
 20
84.9797
 30
0.0
 40
0
 41
0
  0
VERTEX
  8
0
 10
306.457
 20
84.9742
 30
0.0
 40
0
 41
0
  0
VERTEX
  8
0
 10
306.463
 20
84.9683
 30
0.0
 40
0
 41
0
  0
VERTEX
  8
0
 10
306.468
 20
84.9624
 30
0.0
 40
0
 41
0
  0
VERTEX
  8
0
 10
306.474
 20
84.9563
 30
0.0
 40
0
 41
0
  0
VERTEX
  8
0
 10
306.478
 20
84.9499
 30
0.0
 40
0
 41
0
  0
VERTEX
  8
0
 10
306.483
 20
84.9433
 30
0.0
 40
0
 41
0
  0
VERTEX
  8
0
 10
306.49
 20
84.9367
 30
0.0
 40
0
 41
0
  0
VERTEX
  8
0
 10
306.686
 20
84.6957
 30
0.0
 40
0
 41
0
  0
VERTEX
  8
0
 10
306.486
 20
84.5394
 30
0.0
 40
0
 41
0
  0
VERTEX
  8
0
 10
306
 20
85.1629
 30
0.0
 40
0
 41
0
  0
VERTEX
  8
0
 10
306
 20
85.4071
 30
0.0
 40
0
 41
0
  0
VERTEX
  8
0
 10
308.379
 20
85.4071
 30
0.0
 40
0
 41
0
  0
SEQEND
 8
0
  0
POLYLINE
  8
0
 62
     0
 66
     1
 10
0
 20
0
 30
0.0
 70
     1
 40
0
 41
0
  0
VERTEX
  8
0
 10
307.186
 20
87.7654
 30
0.0
 40
0
 41
0
  0
VERTEX
  8
0
 10
307.243
 20
87.765
 30
0.0
 40
0
 41
0
  0
VERTEX
  8
0
 10
307.299
 20
87.7638
 30
0.0
 40
0
 41
0
  0
VERTEX
  8
0
 10
307.354
 20
87.7617
 30
0.0
 40
0
 41
0
  0
VERTEX
  8
0
 10
307.407
 20
87.7586
 30
0.0
 40
0
 41
0
  0
VERTEX
  8
0
 10
307.46
 20
87.7549
 30
0.0
 40
0
 41
0
  0
VERTEX
  8
0
 10
307.511
 20
87.7501
 30
0.0
 40
0
 41
0
  0
VERTEX
  8
0
 10
307.56
 20
87.7447
 30
0.0
 40
0
 41
0
  0
VERTEX
  8
0
 10
307.608
 20
87.7383
 30
0.0
 40
0
 41
0
  0
VERTEX
  8
0
 10
307.656
 20
87.7311
 30
0.0
 40
0
 41
0
  0
VERTEX
  8
0
 10
307.703
 20
87.7231
 30
0.0
 40
0
 41
0
  0
VERTEX
  8
0
 10
307.747
 20
87.7144
 30
0.0
 40
0
 41
0
  0
VERTEX
  8
0
 10
307.79
 20
87.7047
 30
0.0
 40
0
 41
0
  0
VERTEX
  8
0
 10
307.833
 20
87.694
 30
0.0
 40
0
 41
0
  0
VERTEX
  8
0
 10
307.874
 20
87.6822
 30
0.0
 40
0
 41
0
  0
VERTEX
  8
0
 10
307.912
 20
87.6694
 30
0.0
 40
0
 41
0
  0
VERTEX
  8
0
 10
307.95
 20
87.6556
 30
0.0
 40
0
 41
0
  0
VERTEX
  8
0
 10
307.987
 20
87.6406
 30
0.0
 40
0
 41
0
  0
VERTEX
  8
0
 10
308.022
 20
87.6247
 30
0.0
 40
0
 41
0
  0
VERTEX
  8
0
 10
308.056
 20
87.6076
 30
0.0
 40
0
 41
0
  0
VERTEX
  8
0
 10
308.088
 20
87.5896
 30
0.0
 40
0
 41
0
  0
VERTEX
  8
0
 10
308.119
 20
87.5708
 30
0.0
 40
0
 41
0
  0
VERTEX
  8
0
 10
308.149
 20
87.551
 30
0.0
 40
0
 41
0
  0
VERTEX
  8
0
 10
308.176
 20
87.5301
 30
0.0
 40
0
 41
0
  0
VERTEX
  8
0
 10
308.203
 20
87.5082
 30
0.0
 40
0
 41
0
  0
VERTEX
  8
0
 10
308.228
 20
87.485
 30
0.0
 40
0
 41
0
  0
VERTEX
  8
0
 10
308.25
 20
87.461
 30
0.0
 40
0
 41
0
  0
VERTEX
  8
0
 10
308.272
 20
87.4357
 30
0.0
 40
0
 41
0
  0
VERTEX
  8
0
 10
308.293
 20
87.4094
 30
0.0
 40
0
 41
0
  0
VERTEX
  8
0
 10
308.311
 20
87.3821
 30
0.0
 40
0
 41
0
  0
VERTEX
  8
0
 10
308.329
 20
87.3536
 30
0.0
 40
0
 41
0
  0
VERTEX
  8
0
 10
308.344
 20
87.324
 30
0.0
 40
0
 41
0
  0
VERTEX
  8
0
 10
308.358
 20
87.2932
 30
0.0
 40
0
 41
0
  0
VERTEX
  8
0
 10
308.371
 20
87.2611
 30
0.0
 40
0
 41
0
  0
VERTEX
  8
0
 10
308.382
 20
87.2279
 30
0.0
 40
0
 41
0
  0
VERTEX
  8
0
 10
308.392
 20
87.1933
 30
0.0
 40
0
 41
0
  0
VERTEX
  8
0
 10
308.399
 20
87.1575
 30
0.0
 40
0
 41
0
  0
VERTEX
  8
0
 10
308.404
 20
87.1206
 30
0.0
 40
0
 41
0
  0
VERTEX
  8
0
 10
308.408
 20
87.0822
 30
0.0
 40
0
 41
0
  0
VERTEX
  8
0
 10
308.411
 20
87.0428
 30
0.0
 40
0
 41
0
  0
VERTEX
  8
0
 10
308.412
 20
87.0021
 30
0.0
 40
0
 41
0
  0
VERTEX
  8
0
 10
308.411
 20
86.9642
 30
0.0
 40
0
 41
0
  0
VERTEX
  8
0
 10
308.408
 20
86.9272
 30
0.0
 40
0
 41
0
  0
VERTEX
  8
0
 10
308.404
 20
86.8912
 30
0.0
 40
0
 41
0
  0
VERTEX
  8
0
 10
308.399
 20
86.8562
 30
0.0
 40
0
 41
0
  0
VERTEX
  8
0
 10
308.392
 20
86.8222
 30
0.0
 40
0
 41
0
  0
VERTEX
  8
0
 10
308.382
 20
86.7892
 30
0.0
 40
0
 41
0
  0
VERTEX
  8
0
 10
308.371
 20
86.7571
 30
0.0
 40
0
 41
0
  0
VERTEX
  8
0
 10
308.358
 20
86.726
 30
0.0
 40
0
 41
0
  0
VERTEX
  8
0
 10
308.344
 20
86.696
 30
0.0
 40
0
 41
0
  0
VERTEX
  8
0
 10
308.329
 20
86.6668
 30
0.0
 40
0
 41
0
  0
VERTEX
  8
0
 10
308.311
 20
86.6389
 30
0.0
 40
0
 41
0
  0
VERTEX
  8
0
 10
308.293
 20
86.6121
 30
0.0
 40
0
 41
0
  0
VERTEX
  8
0
 10
308.272
 20
86.5861
 30
0.0
 40
0
 41
0
  0
VERTEX
  8
0
 10
308.25
 20
86.5611
 30
0.0
 40
0
 41
0
  0
VERTEX
  8
0
 10
308.228
 20
86.5369
 30
0.0
 40
0
 41
0
  0
VERTEX
  8
0
 10
308.203
 20
86.5139
 30
0.0
 40
0
 41
0
  0
VERTEX
  8
0
 10
308.176
 20
86.4917
 30
0.0
 40
0
 41
0
  0
VERTEX
  8
0
 10
308.149
 20
86.4704
 30
0.0
 40
0
 41
0
  0
VERTEX
  8
0
 10
308.119
 20
86.4501
 30
0.0
 40
0
 41
0
  0
VERTEX
  8
0
 10
308.088
 20
86.4308
 30
0.0
 40
0
 41
0
  0
VERTEX
  8
0
 10
308.056
 20
86.4126
 30
0.0
 40
0
 41
0
  0
VERTEX
  8
0
 10
308.022
 20
86.3956
 30
0.0
 40
0
 41
0
  0
VERTEX
  8
0
 10
307.987
 20
86.3792
 30
0.0
 40
0
 41
0
  0
VERTEX
  8
0
 10
307.95
 20
86.3639
 30
0.0
 40
0
 41
0
  0
VERTEX
  8
0
 10
307.912
 20
86.3494
 30
0.0
 40
0
 41
0
  0
VERTEX
  8
0
 10
307.874
 20
86.3358
 30
0.0
 40
0
 41
0
  0
VERTEX
  8
0
 10
307.833
 20
86.3232
 30
0.0
 40
0
 41
0
  0
VERTEX
  8
0
 10
307.79
 20
86.3115
 30
0.0
 40
0
 41
0
  0
VERTEX
  8
0
 10
307.747
 20
86.3007
 30
0.0
 40
0
 41
0
  0
VERTEX
  8
0
 10
307.703
 20
86.2908
 30
0.0
 40
0
 41
0
  0
VERTEX
  8
0
 10
307.656
 20
86.2822
 30
0.0
 40
0
 41
0
  0
VERTEX
  8
0
 10
307.608
 20
86.2744
 30
0.0
 40
0
 41
0
  0
VERTEX
  8
0
 10
307.56
 20
86.2676
 30
0.0
 40
0
 41
0
  0
VERTEX
  8
0
 10
307.511
 20
86.2617
 30
0.0
 40
0
 41
0
  0
VERTEX
  8
0
 10
307.46
 20
86.2567
 30
0.0
 40
0
 41
0
  0
VERTEX
  8
0
 10
307.407
 20
86.2525
 30
0.0
 40
0
 41
0
  0
VERTEX
  8
0
 10
307.354
 20
86.2493
 30
0.0
 40
0
 41
0
  0
VERTEX
  8
0
 10
307.299
 20
86.2471
 30
0.0
 40
0
 41
0
  0
VERTEX
  8
0
 10
307.243
 20
86.2457
 30
0.0
 40
0
 41
0
  0
VERTEX
  8
0
 10
307.186
 20
86.2453
 30
0.0
 40
0
 41
0
  0
VERTEX
  8
0
 10
307.129
 20
86.2457
 30
0.0
 40
0
 41
0
  0
VERTEX
  8
0
 10
307.074
 20
86.2468
 30
0.0
 40
0
 41
0
  0
VERTEX
  8
0
 10
307.019
 20
86.2489
 30
0.0
 40
0
 41
0
  0
VERTEX
  8
0
 10
306.965
 20
86.2518
 30
0.0
 40
0
 41
0
  0
VERTEX
  8
0
 10
306.914
 20
86.2554
 30
0.0
 40
0
 41
0
  0
VERTEX
  8
0
 10
306.862
 20
86.2599
 30
0.0
 40
0
 41
0
  0
VERTEX
  8
0
 10
306.813
 20
86.2651
 30
0.0
 40
0
 41
0
  0
VERTEX
  8
0
 10
306.764
 20
86.2712
 30
0.0
 40
0
 41
0
  0
VERTEX
  8
0
 10
306.717
 20
86.2782
 30
0.0
 40
0
 41
0
  0
VERTEX
  8
0
 10
306.671
 20
86.286
 30
0.0
 40
0
 41
0
  0
VERTEX
  8
0
 10
306.625
 20
86.2949
 30
0.0
 40
0
 41
0
  0
VERTEX
  8
0
 10
306.582
 20
86.3047
 30
0.0
 40
0
 41
0
  0
VERTEX
  8
0
 10
306.54
 20
86.3156
 30
0.0
 40
0
 41
0
  0
VERTEX
  8
0
 10
306.5
 20
86.3274
 30
0.0
 40
0
 41
0
  0
VERTEX
  8
0
 10
306.46
 20
86.34
 30
0.0
 40
0
 41
0
  0
VERTEX
  8
0
 10
306.422
 20
86.3538
 30
0.0
 40
0
 41
0
  0
VERTEX
  8
0
 10
306.386
 20
86.3683
 30
0.0
 40
0
 41
0
  0
VERTEX
  8
0
 10
306.351
 20
86.3839
 30
0.0
 40
0
 41
0
  0
VERTEX
  8
0
 10
306.318
 20
86.4003
 30
0.0
 40
0
 41
0
  0
VERTEX
  8
0
 10
306.286
 20
86.4178
 30
0.0
 40
0
 41
0
  0
VERTEX
  8
0
 10
306.256
 20
86.4365
 30
0.0
 40
0
 41
0
  0
VERTEX
  8
0
 10
306.226
 20
86.4563
 30
0.0
 40
0
 41
0
  0
VERTEX
  8
0
 10
306.199
 20
86.4771
 30
0.0
 40
0
 41
0
  0
VERTEX
  8
0
 10
306.172
 20
86.499
 30
0.0
 40
0
 41
0
  0
VERTEX
  8
0
 10
306.147
 20
86.5219
 30
0.0
 40
0
 41
0
  0
VERTEX
  8
0
 10
306.124
 20
86.5458
 30
0.0
 40
0
 41
0
  0
VERTEX
  8
0
 10
306.101
 20
86.5708
 30
0.0
 40
0
 41
0
  0
VERTEX
  8
0
 10
306.082
 20
86.5969
 30
0.0
 40
0
 41
0
  0
VERTEX
  8
0
 10
306.063
 20
86.624
 30
0.0
 40
0
 41
0
  0
VERTEX
  8
0
 10
306.046
 20
86.6521
 30
0.0
 40
0
 41
0
  0
VERTEX
  8
0
 10
306.029
 20
86.6817
 30
0.0
 40
0
 41
0
  0
VERTEX
  8
0
 10
306.015
 20
86.7125
 30
0.0
 40
0
 41
0
  0
VERTEX
  8
0
 10
306.003
 20
86.7444
 30
0.0
 40
0
 41
0
  0
VERTEX
  8
0
 10
305.992
 20
86.7776
 30
0.0
 40
0
 41
0
  0
VERTEX
  8
0
 10
305.983
 20
86.8121
 30
0.0
 40
0
 41
0
  0
VERTEX
  8
0
 10
305.976
 20
86.8476
 30
0.0
 40
0
 41
0
  0
VERTEX
  8
0
 10
305.969
 20
86.8844
 30
0.0
 40
0
 41
0
  0
VERTEX
  8
0
 10
305.965
 20
86.9225
 30
0.0
 40
0
 41
0
  0
VERTEX
  8
0
 10
305.963
 20
86.9617
 30
0.0
 40
0
 41
0
  0
VERTEX
  8
0
 10
305.963
 20
87.0021
 30
0.0
 40
0
 41
0
  0
VERTEX
  8
0
 10
305.963
 20
87.0403
 30
0.0
 40
0
 41
0
  0
VERTEX
  8
0
 10
305.965
 20
87.0775
 30
0.0
 40
0
 41
0
  0
VERTEX
  8
0
 10
305.969
 20
87.1137
 30
0.0
 40
0
 41
0
  0
VERTEX
  8
0
 10
305.976
 20
87.1489
 30
0.0
 40
0
 41
0
  0
VERTEX
  8
0
 10
305.983
 20
87.1832
 30
0.0
 40
0
 41
0
  0
VERTEX
  8
0
 10
305.992
 20
87.2164
 30
0.0
 40
0
 41
0
  0
VERTEX
  8
0
 10
306.003
 20
87.2485
 30
0.0
 40
0
 41
0
  0
VERTEX
  8
0
 10
306.015
 20
87.2797
 30
0.0
 40
0
 41
0
  0
VERTEX
  8
0
 10
306.029
 20
87.3099
 30
0.0
 40
0
 41
0
  0
VERTEX
  8
0
 10
306.046
 20
87.339
 30
0.0
 40
0
 41
0
  0
VERTEX
  8
0
 10
306.063
 20
87.3671
 30
0.0
 40
0
 41
0
  0
VERTEX
  8
0
 10
306.081
 20
87.3943
 30
0.0
 40
0
 41
0
  0
VERTEX
  8
0
 10
306.101
 20
87.4206
 30
0.0
 40
0
 41
0
  0
VERTEX
  8
0
 10
306.122
 20
87.4457
 30
0.0
 40
0
 41
0
  0
VERTEX
  8
0
 10
306.146
 20
87.47
 30
0.0
 40
0
 41
0
  0
VERTEX
  8
0
 10
306.171
 20
87.4933
 30
0.0
 40
0
 41
0
  0
VERTEX
  8
0
 10
306.197
 20
87.5156
 30
0.0
 40
0
 41
0
  0
VERTEX
  8
0
 10
306.225
 20
87.5369
 30
0.0
 40
0
 41
0
  0
VERTEX
  8
0
 10
306.254
 20
87.5572
 30
0.0
 40
0
 41
0
  0
VERTEX
  8
0
 10
306.285
 20
87.5767
 30
0.0
 40
0
 41
0
  0
VERTEX
  8
0
 10
306.317
 20
87.595
 30
0.0
 40
0
 41
0
  0
VERTEX
  8
0
 10
306.35
 20
87.6125
 30
0.0
 40
0
 41
0
  0
VERTEX
  8
0
 10
306.385
 20
87.629
 30
0.0
 40
0
 41
0
  0
VERTEX
  8
0
 10
306.421
 20
87.6446
 30
0.0
 40
0
 41
0
  0
VERTEX
  8
0
 10
306.458
 20
87.6592
 30
0.0
 40
0
 41
0
  0
VERTEX
  8
0
 10
306.497
 20
87.6729
 30
0.0
 40
0
 41
0
  0
VERTEX
  8
0
 10
306.539
 20
87.6857
 30
0.0
 40
0
 41
0
  0
VERTEX
  8
0
 10
306.581
 20
87.6975
 30
0.0
 40
0
 41
0
  0
VERTEX
  8
0
 10
306.624
 20
87.7083
 30
0.0
 40
0
 41
0
  0
VERTEX
  8
0
 10
306.668
 20
87.7182
 30
0.0
 40
0
 41
0
  0
VERTEX
  8
0
 10
306.715
 20
87.7272
 30
0.0
 40
0
 41
0
  0
VERTEX
  8
0
 10
306.763
 20
87.7353
 30
0.0
 40
0
 41
0
  0
VERTEX
  8
0
 10
306.811
 20
87.7424
 30
0.0
 40
0
 41
0
  0
VERTEX
  8
0
 10
306.861
 20
87.7485
 30
0.0
 40
0
 41
0
  0
VERTEX
  8
0
 10
306.912
 20
87.7536
 30
0.0
 40
0
 41
0
  0
VERTEX
  8
0
 10
306.964
 20
87.7579
 30
0.0
 40
0
 41
0
  0
VERTEX
  8
0
 10
307.018
 20
87.7611
 30
0.0
 40
0
 41
0
  0
VERTEX
  8
0
 10
307.074
 20
87.7635
 30
0.0
 40
0
 41
0
  0
VERTEX
  8
0
 10
307.129
 20
87.765
 30
0.0
 40
0
 41
0
  0
VERTEX
  8
0
 10
307.186
 20
87.7654
 30
0.0
 40
0
 41
0
  0
SEQEND
 8
0
  0
POLYLINE
  8
0
 62
     0
 66
     1
 10
0
 20
0
 30
0.0
 70
     1
 40
0
 41
0
  0
VERTEX
  8
0
 10
307.186
 20
86.5464
 30
0.0
 40
0
 41
0
  0
VERTEX
  8
0
 10
307.235
 20
86.5465
 30
0.0
 40
0
 41
0
  0
VERTEX
  8
0
 10
307.282
 20
86.5474
 30
0.0
 40
0
 41
0
  0
VERTEX
  8
0
 10
307.328
 20
86.5486
 30
0.0
 40
0
 41
0
  0
VERTEX
  8
0
 10
307.372
 20
86.5503
 30
0.0
 40
0
 41
0
  0
VERTEX
  8
0
 10
307.415
 20
86.5525
 30
0.0
 40
0
 41
0
  0
VERTEX
  8
0
 10
307.457
 20
86.5551
 30
0.0
 40
0
 41
0
  0
VERTEX
  8
0
 10
307.497
 20
86.5583
 30
0.0
 40
0
 41
0
  0
VERTEX
  8
0
 10
307.537
 20
86.5619
 30
0.0
 40
0
 41
0
  0
VERTEX
  8
0
 10
307.575
 20
86.5661
 30
0.0
 40
0
 41
0
  0
VERTEX
  8
0
 10
307.612
 20
86.5707
 30
0.0
 40
0
 41
0
  0
VERTEX
  8
0
 10
307.649
 20
86.576
 30
0.0
 40
0
 41
0
  0
VERTEX
  8
0
 10
307.683
 20
86.5817
 30
0.0
 40
0
 41
0
  0
VERTEX
  8
0
 10
307.717
 20
86.5881
 30
0.0
 40
0
 41
0
  0
VERTEX
  8
0
 10
307.749
 20
86.595
 30
0.0
 40
0
 41
0
  0
VERTEX
  8
0
 10
307.781
 20
86.6025
 30
0.0
 40
0
 41
0
  0
VERTEX
  8
0
 10
307.81
 20
86.6106
 30
0.0
 40
0
 41
0
  0
VERTEX
  8
0
 10
307.839
 20
86.6193
 30
0.0
 40
0
 41
0
  0
VERTEX
  8
0
 10
307.865
 20
86.6286
 30
0.0
 40
0
 41
0
  0
VERTEX
  8
0
 10
307.892
 20
86.6385
 30
0.0
 40
0
 41
0
  0
VERTEX
  8
0
 10
307.917
 20
86.6489
 30
0.0
 40
0
 41
0
  0
VERTEX
  8
0
 10
307.94
 20
86.66
 30
0.0
 40
0
 41
0
  0
VERTEX
  8
0
 10
307.963
 20
86.6717
 30
0.0
 40
0
 41
0
  0
VERTEX
  8
0
 10
307.985
 20
86.684
 30
0.0
 40
0
 41
0
  0
VERTEX
  8
0
 10
308.004
 20
86.6971
 30
0.0
 40
0
 41
0
  0
VERTEX
  8
0
 10
308.022
 20
86.7107
 30
0.0
 40
0
 41
0
  0
VERTEX
  8
0
 10
308.04
 20
86.725
 30
0.0
 40
0
 41
0
  0
VERTEX
  8
0
 10
308.057
 20
86.74
 30
0.0
 40
0
 41
0
  0
VERTEX
  8
0
 10
308.072
 20
86.7557
 30
0.0
 40
0
 41
0
  0
VERTEX
  8
0
 10
308.086
 20
86.7719
 30
0.0
 40
0
 41
0
  0
VERTEX
  8
0
 10
308.1
 20
86.7889
 30
0.0
 40
0
 41
0
  0
VERTEX
  8
0
 10
308.111
 20
86.8068
 30
0.0
 40
0
 41
0
  0
VERTEX
  8
0
 10
308.121
 20
86.8256
 30
0.0
 40
0
 41
0
  0
VERTEX
  8
0
 10
308.131
 20
86.845
 30
0.0
 40
0
 41
0
  0
VERTEX
  8
0
 10
308.138
 20
86.8651
 30
0.0
 40
0
 41
0
  0
VERTEX
  8
0
 10
308.144
 20
86.8861
 30
0.0
 40
0
 41
0
  0
VERTEX
  8
0
 10
308.15
 20
86.9078
 30
0.0
 40
0
 41
0
  0
VERTEX
  8
0
 10
308.154
 20
86.9303
 30
0.0
 40
0
 41
0
  0
VERTEX
  8
0
 10
308.157
 20
86.9535
 30
0.0
 40
0
 41
0
  0
VERTEX
  8
0
 10
308.158
 20
86.9774
 30
0.0
 40
0
 41
0
  0
VERTEX
  8
0
 10
308.16
 20
87.0021
 30
0.0
 40
0
 41
0
  0
VERTEX
  8
0
 10
308.158
 20
87.0268
 30
0.0
 40
0
 41
0
  0
VERTEX
  8
0
 10
308.157
 20
87.0507
 30
0.0
 40
0
 41
0
  0
VERTEX
  8
0
 10
308.154
 20
87.0739
 30
0.0
 40
0
 41
0
  0
VERTEX
  8
0
 10
308.15
 20
87.0964
 30
0.0
 40
0
 41
0
  0
VERTEX
  8
0
 10
308.144
 20
87.1181
 30
0.0
 40
0
 41
0
  0
VERTEX
  8
0
 10
308.138
 20
87.139
 30
0.0
 40
0
 41
0
  0
VERTEX
  8
0
 10
308.131
 20
87.1592
 30
0.0
 40
0
 41
0
  0
VERTEX
  8
0
 10
308.121
 20
87.1786
 30
0.0
 40
0
 41
0
  0
VERTEX
  8
0
 10
308.111
 20
87.1974
 30
0.0
 40
0
 41
0
  0
VERTEX
  8
0
 10
308.1
 20
87.2153
 30
0.0
 40
0
 41
0
  0
VERTEX
  8
0
 10
308.088
 20
87.2325
 30
0.0
 40
0
 41
0
  0
VERTEX
  8
0
 10
308.074
 20
87.2492
 30
0.0
 40
0
 41
0
  0
VERTEX
  8
0
 10
308.058
 20
87.2651
 30
0.0
 40
0
 41
0
  0
VERTEX
  8
0
 10
308.042
 20
87.2804
 30
0.0
 40
0
 41
0
  0
VERTEX
  8
0
 10
308.024
 20
87.295
 30
0.0
 40
0
 41
0
  0
VERTEX
  8
0
 10
308.006
 20
87.309
 30
0.0
 40
0
 41
0
  0
VERTEX
  8
0
 10
307.986
 20
87.3224
 30
0.0
 40
0
 41
0
  0
VERTEX
  8
0
 10
307.964
 20
87.3351
 30
0.0
 40
0
 41
0
  0
VERTEX
  8
0
 10
307.942
 20
87.3471
 30
0.0
 40
0
 41
0
  0
VERTEX
  8
0
 10
307.918
 20
87.3585
 30
0.0
 40
0
 41
0
  0
VERTEX
  8
0
 10
307.894
 20
87.3696
 30
0.0
 40
0
 41
0
  0
VERTEX
  8
0
 10
307.868
 20
87.38
 30
0.0
 40
0
 41
0
  0
VERTEX
  8
0
 10
307.842
 20
87.3897
 30
0.0
 40
0
 41
0
  0
VERTEX
  8
0
 10
307.813
 20
87.3989
 30
0.0
 40
0
 41
0
  0
VERTEX
  8
0
 10
307.783
 20
87.4074
 30
0.0
 40
0
 41
0
  0
VERTEX
  8
0
 10
307.751
 20
87.4151
 30
0.0
 40
0
 41
0
  0
VERTEX
  8
0
 10
307.719
 20
87.4224
 30
0.0
 40
0
 41
0
  0
VERTEX
  8
0
 10
307.686
 20
87.4289
 30
0.0
 40
0
 41
0
  0
VERTEX
  8
0
 10
307.651
 20
87.4347
 30
0.0
 40
0
 41
0
  0
VERTEX
  8
0
 10
307.617
 20
87.4399
 30
0.0
 40
0
 41
0
  0
VERTEX
  8
0
 10
307.579
 20
87.4449
 30
0.0
 40
0
 41
0
  0
VERTEX
  8
0
 10
307.54
 20
87.4493
 30
0.0
 40
0
 41
0
  0
VERTEX
  8
0
 10
307.5
 20
87.4532
 30
0.0
 40
0
 41
0
  0
VERTEX
  8
0
 10
307.46
 20
87.4565
 30
0.0
 40
0
 41
0
  0
VERTEX
  8
0
 10
307.417
 20
87.4594
 30
0.0
 40
0
 41
0
  0
VERTEX
  8
0
 10
307.374
 20
87.4618
 30
0.0
 40
0
 41
0
  0
VERTEX
  8
0
 10
307.328
 20
87.4636
 30
0.0
 40
0
 41
0
  0
VERTEX
  8
0
 10
307.282
 20
87.4649
 30
0.0
 40
0
 41
0
  0
VERTEX
  8
0
 10
307.235
 20
87.4657
 30
0.0
 40
0
 41
0
  0
VERTEX
  8
0
 10
307.186
 20
87.466
 30
0.0
 40
0
 41
0
  0
VERTEX
  8
0
 10
307.138
 20
87.4657
 30
0.0
 40
0
 41
0
  0
VERTEX
  8
0
 10
307.092
 20
87.4649
 30
0.0
 40
0
 41
0
  0
VERTEX
  8
0
 10
307.046
 20
87.4636
 30
0.0
 40
0
 41
0
  0
VERTEX
  8
0
 10
307.001
 20
87.4618
 30
0.0
 40
0
 41
0
  0
VERTEX
  8
0
 10
306.957
 20
87.4594
 30
0.0
 40
0
 41
0
  0
VERTEX
  8
0
 10
306.915
 20
87.4565
 30
0.0
 40
0
 41
0
  0
VERTEX
  8
0
 10
306.875
 20
87.4532
 30
0.0
 40
0
 41
0
  0
VERTEX
  8
0
 10
306.835
 20
87.4493
 30
0.0
 40
0
 41
0
  0
VERTEX
  8
0
 10
306.797
 20
87.4449
 30
0.0
 40
0
 41
0
  0
VERTEX
  8
0
 10
306.76
 20
87.4399
 30
0.0
 40
0
 41
0
  0
VERTEX
  8
0
 10
306.724
 20
87.4347
 30
0.0
 40
0
 41
0
  0
VERTEX
  8
0
 10
306.689
 20
87.4289
 30
0.0
 40
0
 41
0
  0
VERTEX
  8
0
 10
306.656
 20
87.4224
 30
0.0
 40
0
 41
0
  0
VERTEX
  8
0
 10
306.624
 20
87.4151
 30
0.0
 40
0
 41
0
  0
VERTEX
  8
0
 10
306.593
 20
87.4074
 30
0.0
 40
0
 41
0
  0
VERTEX
  8
0
 10
306.564
 20
87.3989
 30
0.0
 40
0
 41
0
  0
VERTEX
  8
0
 10
306.535
 20
87.3897
 30
0.0
 40
0
 41
0
  0
VERTEX
  8
0
 10
306.508
 20
87.38
 30
0.0
 40
0
 41
0
  0
VERTEX
  8
0
 10
306.482
 20
87.3696
 30
0.0
 40
0
 41
0
  0
VERTEX
  8
0
 10
306.457
 20
87.3585
 30
0.0
 40
0
 41
0
  0
VERTEX
  8
0
 10
306.433
 20
87.3471
 30
0.0
 40
0
 41
0
  0
VERTEX
  8
0
 10
306.411
 20
87.3351
 30
0.0
 40
0
 41
0
  0
VERTEX
  8
0
 10
306.39
 20
87.3224
 30
0.0
 40
0
 41
0
  0
VERTEX
  8
0
 10
306.371
 20
87.309
 30
0.0
 40
0
 41
0
  0
VERTEX
  8
0
 10
306.351
 20
87.295
 30
0.0
 40
0
 41
0
  0
VERTEX
  8
0
 10
306.335
 20
87.2804
 30
0.0
 40
0
 41
0
  0
VERTEX
  8
0
 10
306.318
 20
87.2651
 30
0.0
 40
0
 41
0
  0
VERTEX
  8
0
 10
306.303
 20
87.2492
 30
0.0
 40
0
 41
0
  0
VERTEX
  8
0
 10
306.289
 20
87.2325
 30
0.0
 40
0
 41
0
  0
VERTEX
  8
0
 10
306.276
 20
87.2153
 30
0.0
 40
0
 41
0
  0
VERTEX
  8
0
 10
306.265
 20
87.1974
 30
0.0
 40
0
 41
0
  0
VERTEX
  8
0
 10
306.254
 20
87.1786
 30
0.0
 40
0
 41
0
  0
VERTEX
  8
0
 10
306.246
 20
87.1592
 30
0.0
 40
0
 41
0
  0
VERTEX
  8
0
 10
306.237
 20
87.139
 30
0.0
 40
0
 41
0
  0
VERTEX
  8
0
 10
306.232
 20
87.1181
 30
0.0
 40
0
 41
0
  0
VERTEX
  8
0
 10
306.226
 20
87.0964
 30
0.0
 40
0
 41
0
  0
VERTEX
  8
0
 10
306.222
 20
87.0739
 30
0.0
 40
0
 41
0
  0
VERTEX
  8
0
 10
306.219
 20
87.0507
 30
0.0
 40
0
 41
0
  0
VERTEX
  8
0
 10
306.217
 20
87.0268
 30
0.0
 40
0
 41
0
  0
VERTEX
  8
0
 10
306.217
 20
87.0021
 30
0.0
 40
0
 41
0
  0
VERTEX
  8
0
 10
306.217
 20
86.9774
 30
0.0
 40
0
 41
0
  0
VERTEX
  8
0
 10
306.219
 20
86.9535
 30
0.0
 40
0
 41
0
  0
VERTEX
  8
0
 10
306.222
 20
86.9303
 30
0.0
 40
0
 41
0
  0
VERTEX
  8
0
 10
306.226
 20
86.9078
 30
0.0
 40
0
 41
0
  0
VERTEX
  8
0
 10
306.232
 20
86.8861
 30
0.0
 40
0
 41
0
  0
VERTEX
  8
0
 10
306.237
 20
86.8651
 30
0.0
 40
0
 41
0
  0
VERTEX
  8
0
 10
306.246
 20
86.845
 30
0.0
 40
0
 41
0
  0
VERTEX
  8
0
 10
306.254
 20
86.8256
 30
0.0
 40
0
 41
0
  0
VERTEX
  8
0
 10
306.265
 20
86.8068
 30
0.0
 40
0
 41
0
  0
VERTEX
  8
0
 10
306.276
 20
86.7889
 30
0.0
 40
0
 41
0
  0
VERTEX
  8
0
 10
306.289
 20
86.7719
 30
0.0
 40
0
 41
0
  0
VERTEX
  8
0
 10
306.303
 20
86.7557
 30
0.0
 40
0
 41
0
  0
VERTEX
  8
0
 10
306.318
 20
86.74
 30
0.0
 40
0
 41
0
  0
VERTEX
  8
0
 10
306.335
 20
86.725
 30
0.0
 40
0
 41
0
  0
VERTEX
  8
0
 10
306.351
 20
86.7107
 30
0.0
 40
0
 41
0
  0
VERTEX
  8
0
 10
306.371
 20
86.6971
 30
0.0
 40
0
 41
0
  0
VERTEX
  8
0
 10
306.39
 20
86.684
 30
0.0
 40
0
 41
0
  0
VERTEX
  8
0
 10
306.411
 20
86.6717
 30
0.0
 40
0
 41
0
  0
VERTEX
  8
0
 10
306.433
 20
86.66
 30
0.0
 40
0
 41
0
  0
VERTEX
  8
0
 10
306.457
 20
86.6489
 30
0.0
 40
0
 41
0
  0
VERTEX
  8
0
 10
306.482
 20
86.6385
 30
0.0
 40
0
 41
0
  0
VERTEX
  8
0
 10
306.508
 20
86.6286
 30
0.0
 40
0
 41
0
  0
VERTEX
  8
0
 10
306.535
 20
86.6193
 30
0.0
 40
0
 41
0
  0
VERTEX
  8
0
 10
306.564
 20
86.6106
 30
0.0
 40
0
 41
0
  0
VERTEX
  8
0
 10
306.593
 20
86.6025
 30
0.0
 40
0
 41
0
  0
VERTEX
  8
0
 10
306.624
 20
86.595
 30
0.0
 40
0
 41
0
  0
VERTEX
  8
0
 10
306.656
 20
86.5881
 30
0.0
 40
0
 41
0
  0
VERTEX
  8
0
 10
306.689
 20
86.5817
 30
0.0
 40
0
 41
0
  0
VERTEX
  8
0
 10
306.724
 20
86.576
 30
0.0
 40
0
 41
0
  0
VERTEX
  8
0
 10
306.76
 20
86.5707
 30
0.0
 40
0
 41
0
  0
VERTEX
  8
0
 10
306.797
 20
86.5661
 30
0.0
 40
0
 41
0
  0
VERTEX
  8
0
 10
306.835
 20
86.5619
 30
0.0
 40
0
 41
0
  0
VERTEX
  8
0
 10
306.875
 20
86.5583
 30
0.0
 40
0
 41
0
  0
VERTEX
  8
0
 10
306.915
 20
86.5551
 30
0.0
 40
0
 41
0
  0
VERTEX
  8
0
 10
306.957
 20
86.5525
 30
0.0
 40
0
 41
0
  0
VERTEX
  8
0
 10
307.001
 20
86.5503
 30
0.0
 40
0
 41
0
  0
VERTEX
  8
0
 10
307.046
 20
86.5486
 30
0.0
 40
0
 41
0
  0
VERTEX
  8
0
 10
307.092
 20
86.5474
 30
0.0
 40
0
 41
0
  0
VERTEX
  8
0
 10
307.138
 20
86.5465
 30
0.0
 40
0
 41
0
  0
VERTEX
  8
0
 10
307.186
 20
86.5464
 30
0.0
 40
0
 41
0
  0
SEQEND
 8
0
  0
POLYLINE
  8
0
 62
     0
 66
     1
 10
0
 20
0
 30
0.0
 70
     1
 40
0
 41
0
  0
VERTEX
  8
0
 10
308.679
 20
89.2986
 30
0.0
 40
0
 41
0
  0
VERTEX
  8
0
 10
308.907
 20
89.2986
 30
0.0
 40
0
 41
0
  0
VERTEX
  8
0
 10
308.907
 20
87.9151
 30
0.0
 40
0
 41
0
  0
VERTEX
  8
0
 10
308.679
 20
87.9151
 30
0.0
 40
0
 41
0
  0
VERTEX
  8
0
 10
308.679
 20
89.2986
 30
0.0
 40
0
 41
0
  0
SEQEND
 8
0
  0
POLYLINE
  8
0
 62
     0
 66
     1
 10
0
 20
0
 30
0.0
 70
     1
 40
0
 41
0
  0
VERTEX
  8
0
 10
308.379
 20
90.4493
 30
0.0
 40
0
 41
0
  0
VERTEX
  8
0
 10
308.379
 20
90.1629
 30
0.0
 40
0
 41
0
  0
VERTEX
  8
0
 10
306.743
 20
90.1629
 30
0.0
 40
0
 41
0
  0
VERTEX
  8
0
 10
306.728
 20
90.1632
 30
0.0
 40
0
 41
0
  0
VERTEX
  8
0
 10
306.713
 20
90.1635
 30
0.0
 40
0
 41
0
  0
VERTEX
  8
0
 10
306.696
 20
90.1639
 30
0.0
 40
0
 41
0
  0
VERTEX
  8
0
 10
306.664
 20
90.1644
 30
0.0
 40
0
 41
0
  0
VERTEX
  8
0
 10
306.649
 20
90.1649
 30
0.0
 40
0
 41
0
  0
VERTEX
  8
0
 10
306.633
 20
90.1651
 30
0.0
 40
0
 41
0
  0
VERTEX
  8
0
 10
306.617
 20
90.1656
 30
0.0
 40
0
 41
0
  0
VERTEX
  8
0
 10
306.601
 20
90.1658
 30
0.0
 40
0
 41
0
  0
VERTEX
  8
0
 10
306.586
 20
90.1661
 30
0.0
 40
0
 41
0
  0
VERTEX
  8
0
 10
306.569
 20
90.1668
 30
0.0
 40
0
 41
0
  0
VERTEX
  8
0
 10
306.554
 20
90.1674
 30
0.0
 40
0
 41
0
  0
VERTEX
  8
0
 10
306.524
 20
90.1685
 30
0.0
 40
0
 41
0
  0
VERTEX
  8
0
 10
306.508
 20
90.169
 30
0.0
 40
0
 41
0
  0
VERTEX
  8
0
 10
306.493
 20
90.1694
 30
0.0
 40
0
 41
0
  0
VERTEX
  8
0
 10
306.478
 20
90.1699
 30
0.0
 40
0
 41
0
  0
VERTEX
  8
0
 10
306.464
 20
90.1703
 30
0.0
 40
0
 41
0
  0
VERTEX
  8
0
 10
306.449
 20
90.1707
 30
0.0
 40
0
 41
0
  0
VERTEX
  8
0
 10
306.435
 20
90.171
 30
0.0
 40
0
 41
0
  0
VERTEX
  8
0
 10
306.419
 20
90.1717
 30
0.0
 40
0
 41
0
  0
VERTEX
  8
0
 10
306.406
 20
90.1722
 30
0.0
 40
0
 41
0
  0
VERTEX
  8
0
 10
306.392
 20
90.1728
 30
0.0
 40
0
 41
0
  0
VERTEX
  8
0
 10
306.379
 20
90.1733
 30
0.0
 40
0
 41
0
  0
VERTEX
  8
0
 10
306.365
 20
90.1739
 30
0.0
 40
0
 41
0
  0
VERTEX
  8
0
 10
306.353
 20
90.1743
 30
0.0
 40
0
 41
0
  0
VERTEX
  8
0
 10
306.34
 20
90.1747
 30
0.0
 40
0
 41
0
  0
VERTEX
  8
0
 10
306.329
 20
90.1751
 30
0.0
 40
0
 41
0
  0
VERTEX
  8
0
 10
306.317
 20
90.1756
 30
0.0
 40
0
 41
0
  0
VERTEX
  8
0
 10
306.306
 20
90.176
 30
0.0
 40
0
 41
0
  0
VERTEX
  8
0
 10
306.311
 20
90.1704
 30
0.0
 40
0
 41
0
  0
VERTEX
  8
0
 10
306.317
 20
90.1651
 30
0.0
 40
0
 41
0
  0
VERTEX
  8
0
 10
306.322
 20
90.1599
 30
0.0
 40
0
 41
0
  0
VERTEX
  8
0
 10
306.328
 20
90.1549
 30
0.0
 40
0
 41
0
  0
VERTEX
  8
0
 10
306.333
 20
90.1499
 30
0.0
 40
0
 41
0
  0
VERTEX
  8
0
 10
306.338
 20
90.145
 30
0.0
 40
0
 41
0
  0
VERTEX
  8
0
 10
306.343
 20
90.1404
 30
0.0
 40
0
 41
0
  0
VERTEX
  8
0
 10
306.347
 20
90.1358
 30
0.0
 40
0
 41
0
  0
VERTEX
  8
0
 10
306.351
 20
90.1314
 30
0.0
 40
0
 41
0
  0
VERTEX
  8
0
 10
306.356
 20
90.1271
 30
0.0
 40
0
 41
0
  0
VERTEX
  8
0
 10
306.361
 20
90.1228
 30
0.0
 40
0
 41
0
  0
VERTEX
  8
0
 10
306.365
 20
90.1186
 30
0.0
 40
0
 41
0
  0
VERTEX
  8
0
 10
306.369
 20
90.1142
 30
0.0
 40
0
 41
0
  0
VERTEX
  8
0
 10
306.372
 20
90.1099
 30
0.0
 40
0
 41
0
  0
VERTEX
  8
0
 10
306.376
 20
90.1056
 30
0.0
 40
0
 41
0
  0
VERTEX
  8
0
 10
306.381
 20
90.1011
 30
0.0
 40
0
 41
0
  0
VERTEX
  8
0
 10
306.385
 20
90.0967
 30
0.0
 40
0
 41
0
  0
VERTEX
  8
0
 10
306.389
 20
90.0922
 30
0.0
 40
0
 41
0
  0
VERTEX
  8
0
 10
306.393
 20
90.0876
 30
0.0
 40
0
 41
0
  0
VERTEX
  8
0
 10
306.397
 20
90.0832
 30
0.0
 40
0
 41
0
  0
VERTEX
  8
0
 10
306.401
 20
90.0789
 30
0.0
 40
0
 41
0
  0
VERTEX
  8
0
 10
306.406
 20
90.0746
 30
0.0
 40
0
 41
0
  0
VERTEX
  8
0
 10
306.408
 20
90.0701
 30
0.0
 40
0
 41
0
  0
VERTEX
  8
0
 10
306.414
 20
90.0657
 30
0.0
 40
0
 41
0
  0
VERTEX
  8
0
 10
306.418
 20
90.0611
 30
0.0
 40
0
 41
0
  0
VERTEX
  8
0
 10
306.422
 20
90.0565
 30
0.0
 40
0
 41
0
  0
VERTEX
  8
0
 10
306.426
 20
90.0519
 30
0.0
 40
0
 41
0
  0
VERTEX
  8
0
 10
306.431
 20
90.0472
 30
0.0
 40
0
 41
0
  0
VERTEX
  8
0
 10
306.435
 20
90.0424
 30
0.0
 40
0
 41
0
  0
VERTEX
  8
0
 10
306.439
 20
90.0375
 30
0.0
 40
0
 41
0
  0
VERTEX
  8
0
 10
306.443
 20
90.0326
 30
0.0
 40
0
 41
0
  0
VERTEX
  8
0
 10
306.449
 20
90.0274
 30
0.0
 40
0
 41
0
  0
VERTEX
  8
0
 10
306.453
 20
90.0221
 30
0.0
 40
0
 41
0
  0
VERTEX
  8
0
 10
306.457
 20
90.0165
 30
0.0
 40
0
 41
0
  0
VERTEX
  8
0
 10
306.463
 20
90.0107
 30
0.0
 40
0
 41
0
  0
VERTEX
  8
0
 10
306.468
 20
90.0047
 30
0.0
 40
0
 41
0
  0
VERTEX
  8
0
 10
306.474
 20
89.9986
 30
0.0
 40
0
 41
0
  0
VERTEX
  8
0
 10
306.478
 20
89.9922
 30
0.0
 40
0
 41
0
  0
VERTEX
  8
0
 10
306.483
 20
89.9857
 30
0.0
 40
0
 41
0
  0
VERTEX
  8
0
 10
306.49
 20
89.979
 30
0.0
 40
0
 41
0
  0
VERTEX
  8
0
 10
306.686
 20
89.7381
 30
0.0
 40
0
 41
0
  0
VERTEX
  8
0
 10
306.486
 20
89.5818
 30
0.0
 40
0
 41
0
  0
VERTEX
  8
0
 10
306
 20
90.2051
 30
0.0
 40
0
 41
0
  0
VERTEX
  8
0
 10
306
 20
90.4493
 30
0.0
 40
0
 41
0
  0
VERTEX
  8
0
 10
308.379
 20
90.4493
 30
0.0
 40
0
 41
0
  0
SEQEND
 8
0
  0
POLYLINE
  8
0
 62
     0
 66
     1
 10
0
 20
0
 30
0.0
 70
     1
 40
0
 41
0
  0
VERTEX
  8
0
 10
307.186
 20
92.8078
 30
0.0
 40
0
 41
0
  0
VERTEX
  8
0
 10
307.243
 20
92.8074
 30
0.0
 40
0
 41
0
  0
VERTEX
  8
0
 10
307.299
 20
92.8061
 30
0.0
 40
0
 41
0
  0
VERTEX
  8
0
 10
307.354
 20
92.8039
 30
0.0
 40
0
 41
0
  0
VERTEX
  8
0
 10
307.407
 20
92.801
 30
0.0
 40
0
 41
0
  0
VERTEX
  8
0
 10
307.46
 20
92.7972
 30
0.0
 40
0
 41
0
  0
VERTEX
  8
0
 10
307.511
 20
92.7925
 30
0.0
 40
0
 41
0
  0
VERTEX
  8
0
 10
307.56
 20
92.7869
 30
0.0
 40
0
 41
0
  0
VERTEX
  8
0
 10
307.608
 20
92.7807
 30
0.0
 40
0
 41
0
  0
VERTEX
  8
0
 10
307.656
 20
92.7735
 30
0.0
 40
0
 41
0
  0
VERTEX
  8
0
 10
307.703
 20
92.7654
 30
0.0
 40
0
 41
0
  0
VERTEX
  8
0
 10
307.747
 20
92.7568
 30
0.0
 40
0
 41
0
  0
VERTEX
  8
0
 10
307.79
 20
92.7471
 30
0.0
 40
0
 41
0
  0
VERTEX
  8
0
 10
307.833
 20
92.7364
 30
0.0
 40
0
 41
0
  0
VERTEX
  8
0
 10
307.874
 20
92.7246
 30
0.0
 40
0
 41
0
  0
VERTEX
  8
0
 10
307.912
 20
92.7117
 30
0.0
 40
0
 41
0
  0
VERTEX
  8
0
 10
307.95
 20
92.6978
 30
0.0
 40
0
 41
0
  0
VERTEX
  8
0
 10
307.987
 20
92.6829
 30
0.0
 40
0
 41
0
  0
VERTEX
  8
0
 10
308.022
 20
92.6669
 30
0.0
 40
0
 41
0
  0
VERTEX
  8
0
 10
308.056
 20
92.65
 30
0.0
 40
0
 41
0
  0
VERTEX
  8
0
 10
308.088
 20
92.6319
 30
0.0
 40
0
 41
0
  0
VERTEX
  8
0
 10
308.119
 20
92.6132
 30
0.0
 40
0
 41
0
  0
VERTEX
  8
0
 10
308.149
 20
92.5933
 30
0.0
 40
0
 41
0
  0
VERTEX
  8
0
 10
308.176
 20
92.5725
 30
0.0
 40
0
 41
0
  0
VERTEX
  8
0
 10
308.203
 20
92.5504
 30
0.0
 40
0
 41
0
  0
VERTEX
  8
0
 10
308.228
 20
92.5274
 30
0.0
 40
0
 41
0
  0
VERTEX
  8
0
 10
308.25
 20
92.5032
 30
0.0
 40
0
 41
0
  0
VERTEX
  8
0
 10
308.272
 20
92.4781
 30
0.0
 40
0
 41
0
  0
VERTEX
  8
0
 10
308.293
 20
92.4518
 30
0.0
 40
0
 41
0
  0
VERTEX
  8
0
 10
308.311
 20
92.4244
 30
0.0
 40
0
 41
0
  0
VERTEX
  8
0
 10
308.329
 20
92.396
 30
0.0
 40
0
 41
0
  0
VERTEX
  8
0
 10
308.344
 20
92.3664
 30
0.0
 40
0
 41
0
  0
VERTEX
  8
0
 10
308.358
 20
92.3356
 30
0.0
 40
0
 41
0
  0
VERTEX
  8
0
 10
308.371
 20
92.3035
 30
0.0
 40
0
 41
0
  0
VERTEX
  8
0
 10
308.382
 20
92.2701
 30
0.0
 40
0
 41
0
  0
VERTEX
  8
0
 10
308.392
 20
92.2357
 30
0.0
 40
0
 41
0
  0
VERTEX
  8
0
 10
308.399
 20
92.1999
 30
0.0
 40
0
 41
0
  0
VERTEX
  8
0
 10
308.404
 20
92.1629
 30
0.0
 40
0
 41
0
  0
VERTEX
  8
0
 10
308.408
 20
92.1246
 30
0.0
 40
0
 41
0
  0
VERTEX
  8
0
 10
308.411
 20
92.0851
 30
0.0
 40
0
 41
0
  0
VERTEX
  8
0
 10
308.412
 20
92.0444
 30
0.0
 40
0
 41
0
  0
VERTEX
  8
0
 10
308.411
 20
92.0065
 30
0.0
 40
0
 41
0
  0
VERTEX
  8
0
 10
308.408
 20
91.9696
 30
0.0
 40
0
 41
0
  0
VERTEX
  8
0
 10
308.404
 20
91.9336
 30
0.0
 40
0
 41
0
  0
VERTEX
  8
0
 10
308.399
 20
91.8986
 30
0.0
 40
0
 41
0
  0
VERTEX
  8
0
 10
308.392
 20
91.8646
 30
0.0
 40
0
 41
0
  0
VERTEX
  8
0
 10
308.382
 20
91.8315
 30
0.0
 40
0
 41
0
  0
VERTEX
  8
0
 10
308.371
 20
91.7994
 30
0.0
 40
0
 41
0
  0
VERTEX
  8
0
 10
308.358
 20
91.7683
 30
0.0
 40
0
 41
0
  0
VERTEX
  8
0
 10
308.344
 20
91.7382
 30
0.0
 40
0
 41
0
  0
VERTEX
  8
0
 10
308.329
 20
91.7092
 30
0.0
 40
0
 41
0
  0
VERTEX
  8
0
 10
308.311
 20
91.6812
 30
0.0
 40
0
 41
0
  0
VERTEX
  8
0
 10
308.293
 20
91.6543
 30
0.0
 40
0
 41
0
  0
VERTEX
  8
0
 10
308.272
 20
91.6283
 30
0.0
 40
0
 41
0
  0
VERTEX
  8
0
 10
308.25
 20
91.6033
 30
0.0
 40
0
 41
0
  0
VERTEX
  8
0
 10
308.228
 20
91.5793
 30
0.0
 40
0
 41
0
  0
VERTEX
  8
0
 10
308.203
 20
91.5561
 30
0.0
 40
0
 41
0
  0
VERTEX
  8
0
 10
308.176
 20
91.534
 30
0.0
 40
0
 41
0
  0
VERTEX
  8
0
 10
308.149
 20
91.5128
 30
0.0
 40
0
 41
0
  0
VERTEX
  8
0
 10
308.119
 20
91.4925
 30
0.0
 40
0
 41
0
  0
VERTEX
  8
0
 10
308.088
 20
91.4731
 30
0.0
 40
0
 41
0
  0
VERTEX
  8
0
 10
308.056
 20
91.455
 30
0.0
 40
0
 41
0
  0
VERTEX
  8
0
 10
308.022
 20
91.4378
 30
0.0
 40
0
 41
0
  0
VERTEX
  8
0
 10
307.987
 20
91.4215
 30
0.0
 40
0
 41
0
  0
VERTEX
  8
0
 10
307.95
 20
91.4061
 30
0.0
 40
0
 41
0
  0
VERTEX
  8
0
 10
307.912
 20
91.3917
 30
0.0
 40
0
 41
0
  0
VERTEX
  8
0
 10
307.874
 20
91.3782
 30
0.0
 40
0
 41
0
  0
VERTEX
  8
0
 10
307.833
 20
91.3656
 30
0.0
 40
0
 41
0
  0
VERTEX
  8
0
 10
307.79
 20
91.3539
 30
0.0
 40
0
 41
0
  0
VERTEX
  8
0
 10
307.747
 20
91.3431
 30
0.0
 40
0
 41
0
  0
VERTEX
  8
0
 10
307.703
 20
91.3332
 30
0.0
 40
0
 41
0
  0
VERTEX
  8
0
 10
307.656
 20
91.3244
 30
0.0
 40
0
 41
0
  0
VERTEX
  8
0
 10
307.608
 20
91.3167
 30
0.0
 40
0
 41
0
  0
VERTEX
  8
0
 10
307.56
 20
91.3099
 30
0.0
 40
0
 41
0
  0
VERTEX
  8
0
 10
307.511
 20
91.304
 30
0.0
 40
0
 41
0
  0
VERTEX
  8
0
 10
307.46
 20
91.2989
 30
0.0
 40
0
 41
0
  0
VERTEX
  8
0
 10
307.407
 20
91.2949
 30
0.0
 40
0
 41
0
  0
VERTEX
  8
0
 10
307.354
 20
91.2917
 30
0.0
 40
0
 41
0
  0
VERTEX
  8
0
 10
307.299
 20
91.2894
 30
0.0
 40
0
 41
0
  0
VERTEX
  8
0
 10
307.243
 20
91.2881
 30
0.0
 40
0
 41
0
  0
VERTEX
  8
0
 10
307.186
 20
91.2875
 30
0.0
 40
0
 41
0
  0
VERTEX
  8
0
 10
307.129
 20
91.2879
 30
0.0
 40
0
 41
0
  0
VERTEX
  8
0
 10
307.074
 20
91.2892
 30
0.0
 40
0
 41
0
  0
VERTEX
  8
0
 10
307.019
 20
91.2913
 30
0.0
 40
0
 41
0
  0
VERTEX
  8
0
 10
306.965
 20
91.294
 30
0.0
 40
0
 41
0
  0
VERTEX
  8
0
 10
306.914
 20
91.2978
 30
0.0
 40
0
 41
0
  0
VERTEX
  8
0
 10
306.862
 20
91.3022
 30
0.0
 40
0
 41
0
  0
VERTEX
  8
0
 10
306.813
 20
91.3075
 30
0.0
 40
0
 41
0
  0
VERTEX
  8
0
 10
306.764
 20
91.3136
 30
0.0
 40
0
 41
0
  0
VERTEX
  8
0
 10
306.717
 20
91.3206
 30
0.0
 40
0
 41
0
  0
VERTEX
  8
0
 10
306.671
 20
91.3282
 30
0.0
 40
0
 41
0
  0
VERTEX
  8
0
 10
306.625
 20
91.3372
 30
0.0
 40
0
 41
0
  0
VERTEX
  8
0
 10
306.582
 20
91.3471
 30
0.0
 40
0
 41
0
  0
VERTEX
  8
0
 10
306.54
 20
91.3579
 30
0.0
 40
0
 41
0
  0
VERTEX
  8
0
 10
306.5
 20
91.3697
 30
0.0
 40
0
 41
0
  0
VERTEX
  8
0
 10
306.46
 20
91.3824
 30
0.0
 40
0
 41
0
  0
VERTEX
  8
0
 10
306.422
 20
91.396
 30
0.0
 40
0
 41
0
  0
VERTEX
  8
0
 10
306.386
 20
91.4106
 30
0.0
 40
0
 41
0
  0
VERTEX
  8
0
 10
306.351
 20
91.4261
 30
0.0
 40
0
 41
0
  0
VERTEX
  8
0
 10
306.318
 20
91.4426
 30
0.0
 40
0
 41
0
  0
VERTEX
  8
0
 10
306.286
 20
91.4601
 30
0.0
 40
0
 41
0
  0
VERTEX
  8
0
 10
306.256
 20
91.4789
 30
0.0
 40
0
 41
0
  0
VERTEX
  8
0
 10
306.226
 20
91.4986
 30
0.0
 40
0
 41
0
  0
VERTEX
  8
0
 10
306.199
 20
91.5194
 30
0.0
 40
0
 41
0
  0
VERTEX
  8
0
 10
306.172
 20
91.5414
 30
0.0
 40
0
 41
0
  0
VERTEX
  8
0
 10
306.147
 20
91.5643
 30
0.0
 40
0
 41
0
  0
VERTEX
  8
0
 10
306.124
 20
91.5882
 30
0.0
 40
0
 41
0
  0
VERTEX
  8
0
 10
306.101
 20
91.6132
 30
0.0
 40
0
 41
0
  0
VERTEX
  8
0
 10
306.082
 20
91.6393
 30
0.0
 40
0
 41
0
  0
VERTEX
  8
0
 10
306.063
 20
91.6664
 30
0.0
 40
0
 41
0
  0
VERTEX
  8
0
 10
306.046
 20
91.6944
 30
0.0
 40
0
 41
0
  0
VERTEX
  8
0
 10
306.029
 20
91.724
 30
0.0
 40
0
 41
0
  0
VERTEX
  8
0
 10
306.015
 20
91.7549
 30
0.0
 40
0
 41
0
  0
VERTEX
  8
0
 10
306.003
 20
91.7868
 30
0.0
 40
0
 41
0
  0
VERTEX
  8
0
 10
305.992
 20
91.82
 30
0.0
 40
0
 41
0
  0
VERTEX
  8
0
 10
305.983
 20
91.8543
 30
0.0
 40
0
 41
0
  0
VERTEX
  8
0
 10
305.976
 20
91.89
 30
0.0
 40
0
 41
0
  0
VERTEX
  8
0
 10
305.969
 20
91.9268
 30
0.0
 40
0
 41
0
  0
VERTEX
  8
0
 10
305.965
 20
91.9647
 30
0.0
 40
0
 41
0
  0
VERTEX
  8
0
 10
305.963
 20
92.004
 30
0.0
 40
0
 41
0
  0
VERTEX
  8
0
 10
305.963
 20
92.0444
 30
0.0
 40
0
 41
0
  0
VERTEX
  8
0
 10
305.963
 20
92.0826
 30
0.0
 40
0
 41
0
  0
VERTEX
  8
0
 10
305.965
 20
92.1199
 30
0.0
 40
0
 41
0
  0
VERTEX
  8
0
 10
305.969
 20
92.1561
 30
0.0
 40
0
 41
0
  0
VERTEX
  8
0
 10
305.976
 20
92.1913
 30
0.0
 40
0
 41
0
  0
VERTEX
  8
0
 10
305.983
 20
92.2254
 30
0.0
 40
0
 41
0
  0
VERTEX
  8
0
 10
305.992
 20
92.2586
 30
0.0
 40
0
 41
0
  0
VERTEX
  8
0
 10
306.003
 20
92.2908
 30
0.0
 40
0
 41
0
  0
VERTEX
  8
0
 10
306.015
 20
92.3219
 30
0.0
 40
0
 41
0
  0
VERTEX
  8
0
 10
306.029
 20
92.3522
 30
0.0
 40
0
 41
0
  0
VERTEX
  8
0
 10
306.046
 20
92.3813
 30
0.0
 40
0
 41
0
  0
VERTEX
  8
0
 10
306.063
 20
92.4094
 30
0.0
 40
0
 41
0
  0
VERTEX
  8
0
 10
306.081
 20
92.4367
 30
0.0
 40
0
 41
0
  0
VERTEX
  8
0
 10
306.101
 20
92.4629
 30
0.0
 40
0
 41
0
  0
VERTEX
  8
0
 10
306.122
 20
92.4881
 30
0.0
 40
0
 41
0
  0
VERTEX
  8
0
 10
306.146
 20
92.5124
 30
0.0
 40
0
 41
0
  0
VERTEX
  8
0
 10
306.171
 20
92.5356
 30
0.0
 40
0
 41
0
  0
VERTEX
  8
0
 10
306.197
 20
92.5579
 30
0.0
 40
0
 41
0
  0
VERTEX
  8
0
 10
306.225
 20
92.5792
 30
0.0
 40
0
 41
0
  0
VERTEX
  8
0
 10
306.254
 20
92.5996
 30
0.0
 40
0
 41
0
  0
VERTEX
  8
0
 10
306.285
 20
92.6189
 30
0.0
 40
0
 41
0
  0
VERTEX
  8
0
 10
306.317
 20
92.6374
 30
0.0
 40
0
 41
0
  0
VERTEX
  8
0
 10
306.35
 20
92.6549
 30
0.0
 40
0
 41
0
  0
VERTEX
  8
0
 10
306.385
 20
92.6714
 30
0.0
 40
0
 41
0
  0
VERTEX
  8
0
 10
306.421
 20
92.6869
 30
0.0
 40
0
 41
0
  0
VERTEX
  8
0
 10
306.458
 20
92.7015
 30
0.0
 40
0
 41
0
  0
VERTEX
  8
0
 10
306.497
 20
92.7153
 30
0.0
 40
0
 41
0
  0
VERTEX
  8
0
 10
306.539
 20
92.7279
 30
0.0
 40
0
 41
0
  0
VERTEX
  8
0
 10
306.581
 20
92.7397
 30
0.0
 40
0
 41
0
  0
VERTEX
  8
0
 10
306.624
 20
92.7507
 30
0.0
 40
0
 41
0
  0
VERTEX
  8
0
 10
306.668
 20
92.7606
 30
0.0
 40
0
 41
0
  0
VERTEX
  8
0
 10
306.715
 20
92.7694
 30
0.0
 40
0
 41
0
  0
VERTEX
  8
0
 10
306.763
 20
92.7775
 30
0.0
 40
0
 41
0
  0
VERTEX
  8
0
 10
306.811
 20
92.7846
 30
0.0
 40
0
 41
0
  0
VERTEX
  8
0
 10
306.861
 20
92.7907
 30
0.0
 40
0
 41
0
  0
VERTEX
  8
0
 10
306.912
 20
92.796
 30
0.0
 40
0
 41
0
  0
VERTEX
  8
0
 10
306.964
 20
92.8001
 30
0.0
 40
0
 41
0
  0
VERTEX
  8
0
 10
307.018
 20
92.8035
 30
0.0
 40
0
 41
0
  0
VERTEX
  8
0
 10
307.074
 20
92.8058
 30
0.0
 40
0
 41
0
  0
VERTEX
  8
0
 10
307.129
 20
92.8072
 30
0.0
 40
0
 41
0
  0
VERTEX
  8
0
 10
307.186
 20
92.8078
 30
0.0
 40
0
 41
0
  0
SEQEND
 8
0
  0
POLYLINE
  8
0
 62
     0
 66
     1
 10
0
 20
0
 30
0.0
 70
     1
 40
0
 41
0
  0
VERTEX
  8
0
 10
307.186
 20
91.5886
 30
0.0
 40
0
 41
0
  0
VERTEX
  8
0
 10
307.235
 20
91.5889
 30
0.0
 40
0
 41
0
  0
VERTEX
  8
0
 10
307.282
 20
91.5896
 30
0.0
 40
0
 41
0
  0
VERTEX
  8
0
 10
307.328
 20
91.5908
 30
0.0
 40
0
 41
0
  0
VERTEX
  8
0
 10
307.372
 20
91.5926
 30
0.0
 40
0
 41
0
  0
VERTEX
  8
0
 10
307.415
 20
91.5947
 30
0.0
 40
0
 41
0
  0
VERTEX
  8
0
 10
307.457
 20
91.5975
 30
0.0
 40
0
 41
0
  0
VERTEX
  8
0
 10
307.497
 20
91.6007
 30
0.0
 40
0
 41
0
  0
VERTEX
  8
0
 10
307.537
 20
91.6043
 30
0.0
 40
0
 41
0
  0
VERTEX
  8
0
 10
307.575
 20
91.6085
 30
0.0
 40
0
 41
0
  0
VERTEX
  8
0
 10
307.612
 20
91.6131
 30
0.0
 40
0
 41
0
  0
VERTEX
  8
0
 10
307.649
 20
91.6182
 30
0.0
 40
0
 41
0
  0
VERTEX
  8
0
 10
307.683
 20
91.624
 30
0.0
 40
0
 41
0
  0
VERTEX
  8
0
 10
307.717
 20
91.6304
 30
0.0
 40
0
 41
0
  0
VERTEX
  8
0
 10
307.749
 20
91.6374
 30
0.0
 40
0
 41
0
  0
VERTEX
  8
0
 10
307.781
 20
91.6449
 30
0.0
 40
0
 41
0
  0
VERTEX
  8
0
 10
307.81
 20
91.6529
 30
0.0
 40
0
 41
0
  0
VERTEX
  8
0
 10
307.839
 20
91.6617
 30
0.0
 40
0
 41
0
  0
VERTEX
  8
0
 10
307.865
 20
91.6708
 30
0.0
 40
0
 41
0
  0
VERTEX
  8
0
 10
307.892
 20
91.6807
 30
0.0
 40
0
 41
0
  0
VERTEX
  8
0
 10
307.917
 20
91.6913
 30
0.0
 40
0
 41
0
  0
VERTEX
  8
0
 10
307.94
 20
91.7022
 30
0.0
 40
0
 41
0
  0
VERTEX
  8
0
 10
307.963
 20
91.714
 30
0.0
 40
0
 41
0
  0
VERTEX
  8
0
 10
307.985
 20
91.7264
 30
0.0
 40
0
 41
0
  0
VERTEX
  8
0
 10
308.004
 20
91.7394
 30
0.0
 40
0
 41
0
  0
VERTEX
  8
0
 10
308.022
 20
91.7531
 30
0.0
 40
0
 41
0
  0
VERTEX
  8
0
 10
308.04
 20
91.7674
 30
0.0
 40
0
 41
0
  0
VERTEX
  8
0
 10
308.057
 20
91.7824
 30
0.0
 40
0
 41
0
  0
VERTEX
  8
0
 10
308.072
 20
91.7979
 30
0.0
 40
0
 41
0
  0
VERTEX
  8
0
 10
308.086
 20
91.8143
 30
0.0
 40
0
 41
0
  0
VERTEX
  8
0
 10
308.1
 20
91.8311
 30
0.0
 40
0
 41
0
  0
VERTEX
  8
0
 10
308.111
 20
91.8492
 30
0.0
 40
0
 41
0
  0
VERTEX
  8
0
 10
308.121
 20
91.8678
 30
0.0
 40
0
 41
0
  0
VERTEX
  8
0
 10
308.131
 20
91.8872
 30
0.0
 40
0
 41
0
  0
VERTEX
  8
0
 10
308.138
 20
91.9075
 30
0.0
 40
0
 41
0
  0
VERTEX
  8
0
 10
308.144
 20
91.9285
 30
0.0
 40
0
 41
0
  0
VERTEX
  8
0
 10
308.15
 20
91.9501
 30
0.0
 40
0
 41
0
  0
VERTEX
  8
0
 10
308.154
 20
91.9725
 30
0.0
 40
0
 41
0
  0
VERTEX
  8
0
 10
308.157
 20
91.9957
 30
0.0
 40
0
 41
0
  0
VERTEX
  8
0
 10
308.158
 20
92.0197
 30
0.0
 40
0
 41
0
  0
VERTEX
  8
0
 10
308.16
 20
92.0444
 30
0.0
 40
0
 41
0
  0
VERTEX
  8
0
 10
308.158
 20
92.069
 30
0.0
 40
0
 41
0
  0
VERTEX
  8
0
 10
308.157
 20
92.0931
 30
0.0
 40
0
 41
0
  0
VERTEX
  8
0
 10
308.154
 20
92.1163
 30
0.0
 40
0
 41
0
  0
VERTEX
  8
0
 10
308.15
 20
92.1386
 30
0.0
 40
0
 41
0
  0
VERTEX
  8
0
 10
308.144
 20
92.1604
 30
0.0
 40
0
 41
0
  0
VERTEX
  8
0
 10
308.138
 20
92.1812
 30
0.0
 40
0
 41
0
  0
VERTEX
  8
0
 10
308.131
 20
92.2015
 30
0.0
 40
0
 41
0
  0
VERTEX
  8
0
 10
308.121
 20
92.221
 30
0.0
 40
0
 41
0
  0
VERTEX
  8
0
 10
308.111
 20
92.2397
 30
0.0
 40
0
 41
0
  0
VERTEX
  8
0
 10
308.1
 20
92.2576
 30
0.0
 40
0
 41
0
  0
VERTEX
  8
0
 10
308.088
 20
92.2749
 30
0.0
 40
0
 41
0
  0
VERTEX
  8
0
 10
308.074
 20
92.2915
 30
0.0
 40
0
 41
0
  0
VERTEX
  8
0
 10
308.058
 20
92.3074
 30
0.0
 40
0
 41
0
  0
VERTEX
  8
0
 10
308.042
 20
92.3228
 30
0.0
 40
0
 41
0
  0
VERTEX
  8
0
 10
308.024
 20
92.3374
 30
0.0
 40
0
 41
0
  0
VERTEX
  8
0
 10
308.006
 20
92.3514
 30
0.0
 40
0
 41
0
  0
VERTEX
  8
0
 10
307.986
 20
92.3647
 30
0.0
 40
0
 41
0
  0
VERTEX
  8
0
 10
307.964
 20
92.3774
 30
0.0
 40
0
 41
0
  0
VERTEX
  8
0
 10
307.942
 20
92.3894
 30
0.0
 40
0
 41
0
  0
VERTEX
  8
0
 10
307.918
 20
92.4008
 30
0.0
 40
0
 41
0
  0
VERTEX
  8
0
 10
307.894
 20
92.4119
 30
0.0
 40
0
 41
0
  0
VERTEX
  8
0
 10
307.868
 20
92.4224
 30
0.0
 40
0
 41
0
  0
VERTEX
  8
0
 10
307.842
 20
92.4321
 30
0.0
 40
0
 41
0
  0
VERTEX
  8
0
 10
307.813
 20
92.4413
 30
0.0
 40
0
 41
0
  0
VERTEX
  8
0
 10
307.783
 20
92.4497
 30
0.0
 40
0
 41
0
  0
VERTEX
  8
0
 10
307.751
 20
92.4575
 30
0.0
 40
0
 41
0
  0
VERTEX
  8
0
 10
307.719
 20
92.4646
 30
0.0
 40
0
 41
0
  0
VERTEX
  8
0
 10
307.686
 20
92.4711
 30
0.0
 40
0
 41
0
  0
VERTEX
  8
0
 10
307.651
 20
92.4769
 30
0.0
 40
0
 41
0
  0
VERTEX
  8
0
 10
307.617
 20
92.4822
 30
0.0
 40
0
 41
0
  0
VERTEX
  8
0
 10
307.579
 20
92.4872
 30
0.0
 40
0
 41
0
  0
VERTEX
  8
0
 10
307.54
 20
92.4915
 30
0.0
 40
0
 41
0
  0
VERTEX
  8
0
 10
307.5
 20
92.4956
 30
0.0
 40
0
 41
0
  0
VERTEX
  8
0
 10
307.46
 20
92.4989
 30
0.0
 40
0
 41
0
  0
VERTEX
  8
0
 10
307.417
 20
92.5018
 30
0.0
 40
0
 41
0
  0
VERTEX
  8
0
 10
307.374
 20
92.504
 30
0.0
 40
0
 41
0
  0
VERTEX
  8
0
 10
307.328
 20
92.506
 30
0.0
 40
0
 41
0
  0
VERTEX
  8
0
 10
307.282
 20
92.5072
 30
0.0
 40
0
 41
0
  0
VERTEX
  8
0
 10
307.235
 20
92.5081
 30
0.0
 40
0
 41
0
  0
VERTEX
  8
0
 10
307.186
 20
92.5082
 30
0.0
 40
0
 41
0
  0
VERTEX
  8
0
 10
307.138
 20
92.5081
 30
0.0
 40
0
 41
0
  0
VERTEX
  8
0
 10
307.092
 20
92.5072
 30
0.0
 40
0
 41
0
  0
VERTEX
  8
0
 10
307.046
 20
92.506
 30
0.0
 40
0
 41
0
  0
VERTEX
  8
0
 10
307.001
 20
92.504
 30
0.0
 40
0
 41
0
  0
VERTEX
  8
0
 10
306.957
 20
92.5018
 30
0.0
 40
0
 41
0
  0
VERTEX
  8
0
 10
306.915
 20
92.4989
 30
0.0
 40
0
 41
0
  0
VERTEX
  8
0
 10
306.875
 20
92.4956
 30
0.0
 40
0
 41
0
  0
VERTEX
  8
0
 10
306.835
 20
92.4915
 30
0.0
 40
0
 41
0
  0
VERTEX
  8
0
 10
306.797
 20
92.4872
 30
0.0
 40
0
 41
0
  0
VERTEX
  8
0
 10
306.76
 20
92.4822
 30
0.0
 40
0
 41
0
  0
VERTEX
  8
0
 10
306.724
 20
92.4769
 30
0.0
 40
0
 41
0
  0
VERTEX
  8
0
 10
306.689
 20
92.4711
 30
0.0
 40
0
 41
0
  0
VERTEX
  8
0
 10
306.656
 20
92.4646
 30
0.0
 40
0
 41
0
  0
VERTEX
  8
0
 10
306.624
 20
92.4575
 30
0.0
 40
0
 41
0
  0
VERTEX
  8
0
 10
306.593
 20
92.4497
 30
0.0
 40
0
 41
0
  0
VERTEX
  8
0
 10
306.564
 20
92.4413
 30
0.0
 40
0
 41
0
  0
VERTEX
  8
0
 10
306.535
 20
92.4321
 30
0.0
 40
0
 41
0
  0
VERTEX
  8
0
 10
306.508
 20
92.4224
 30
0.0
 40
0
 41
0
  0
VERTEX
  8
0
 10
306.482
 20
92.4119
 30
0.0
 40
0
 41
0
  0
VERTEX
  8
0
 10
306.457
 20
92.4008
 30
0.0
 40
0
 41
0
  0
VERTEX
  8
0
 10
306.433
 20
92.3894
 30
0.0
 40
0
 41
0
  0
VERTEX
  8
0
 10
306.411
 20
92.3774
 30
0.0
 40
0
 41
0
  0
VERTEX
  8
0
 10
306.39
 20
92.3647
 30
0.0
 40
0
 41
0
  0
VERTEX
  8
0
 10
306.371
 20
92.3514
 30
0.0
 40
0
 41
0
  0
VERTEX
  8
0
 10
306.351
 20
92.3374
 30
0.0
 40
0
 41
0
  0
VERTEX
  8
0
 10
306.335
 20
92.3228
 30
0.0
 40
0
 41
0
  0
VERTEX
  8
0
 10
306.318
 20
92.3074
 30
0.0
 40
0
 41
0
  0
VERTEX
  8
0
 10
306.303
 20
92.2915
 30
0.0
 40
0
 41
0
  0
VERTEX
  8
0
 10
306.289
 20
92.2749
 30
0.0
 40
0
 41
0
  0
VERTEX
  8
0
 10
306.276
 20
92.2576
 30
0.0
 40
0
 41
0
  0
VERTEX
  8
0
 10
306.265
 20
92.2397
 30
0.0
 40
0
 41
0
  0
VERTEX
  8
0
 10
306.254
 20
92.221
 30
0.0
 40
0
 41
0
  0
VERTEX
  8
0
 10
306.246
 20
92.2015
 30
0.0
 40
0
 41
0
  0
VERTEX
  8
0
 10
306.237
 20
92.1812
 30
0.0
 40
0
 41
0
  0
VERTEX
  8
0
 10
306.232
 20
92.1604
 30
0.0
 40
0
 41
0
  0
VERTEX
  8
0
 10
306.226
 20
92.1386
 30
0.0
 40
0
 41
0
  0
VERTEX
  8
0
 10
306.222
 20
92.1163
 30
0.0
 40
0
 41
0
  0
VERTEX
  8
0
 10
306.219
 20
92.0931
 30
0.0
 40
0
 41
0
  0
VERTEX
  8
0
 10
306.217
 20
92.069
 30
0.0
 40
0
 41
0
  0
VERTEX
  8
0
 10
306.217
 20
92.0444
 30
0.0
 40
0
 41
0
  0
VERTEX
  8
0
 10
306.217
 20
92.0197
 30
0.0
 40
0
 41
0
  0
VERTEX
  8
0
 10
306.219
 20
91.9957
 30
0.0
 40
0
 41
0
  0
VERTEX
  8
0
 10
306.222
 20
91.9725
 30
0.0
 40
0
 41
0
  0
VERTEX
  8
0
 10
306.226
 20
91.9501
 30
0.0
 40
0
 41
0
  0
VERTEX
  8
0
 10
306.232
 20
91.9285
 30
0.0
 40
0
 41
0
  0
VERTEX
  8
0
 10
306.237
 20
91.9075
 30
0.0
 40
0
 41
0
  0
VERTEX
  8
0
 10
306.246
 20
91.8872
 30
0.0
 40
0
 41
0
  0
VERTEX
  8
0
 10
306.254
 20
91.8678
 30
0.0
 40
0
 41
0
  0
VERTEX
  8
0
 10
306.265
 20
91.8492
 30
0.0
 40
0
 41
0
  0
VERTEX
  8
0
 10
306.276
 20
91.8311
 30
0.0
 40
0
 41
0
  0
VERTEX
  8
0
 10
306.289
 20
91.8143
 30
0.0
 40
0
 41
0
  0
VERTEX
  8
0
 10
306.303
 20
91.7979
 30
0.0
 40
0
 41
0
  0
VERTEX
  8
0
 10
306.318
 20
91.7824
 30
0.0
 40
0
 41
0
  0
VERTEX
  8
0
 10
306.335
 20
91.7674
 30
0.0
 40
0
 41
0
  0
VERTEX
  8
0
 10
306.351
 20
91.7531
 30
0.0
 40
0
 41
0
  0
VERTEX
  8
0
 10
306.371
 20
91.7394
 30
0.0
 40
0
 41
0
  0
VERTEX
  8
0
 10
306.39
 20
91.7264
 30
0.0
 40
0
 41
0
  0
VERTEX
  8
0
 10
306.411
 20
91.714
 30
0.0
 40
0
 41
0
  0
VERTEX
  8
0
 10
306.433
 20
91.7022
 30
0.0
 40
0
 41
0
  0
VERTEX
  8
0
 10
306.457
 20
91.6913
 30
0.0
 40
0
 41
0
  0
VERTEX
  8
0
 10
306.482
 20
91.6807
 30
0.0
 40
0
 41
0
  0
VERTEX
  8
0
 10
306.508
 20
91.6708
 30
0.0
 40
0
 41
0
  0
VERTEX
  8
0
 10
306.535
 20
91.6617
 30
0.0
 40
0
 41
0
  0
VERTEX
  8
0
 10
306.564
 20
91.6529
 30
0.0
 40
0
 41
0
  0
VERTEX
  8
0
 10
306.593
 20
91.6449
 30
0.0
 40
0
 41
0
  0
VERTEX
  8
0
 10
306.624
 20
91.6374
 30
0.0
 40
0
 41
0
  0
VERTEX
  8
0
 10
306.656
 20
91.6304
 30
0.0
 40
0
 41
0
  0
VERTEX
  8
0
 10
306.689
 20
91.624
 30
0.0
 40
0
 41
0
  0
VERTEX
  8
0
 10
306.724
 20
91.6182
 30
0.0
 40
0
 41
0
  0
VERTEX
  8
0
 10
306.76
 20
91.6131
 30
0.0
 40
0
 41
0
  0
VERTEX
  8
0
 10
306.797
 20
91.6085
 30
0.0
 40
0
 41
0
  0
VERTEX
  8
0
 10
306.835
 20
91.6043
 30
0.0
 40
0
 41
0
  0
VERTEX
  8
0
 10
306.875
 20
91.6007
 30
0.0
 40
0
 41
0
  0
VERTEX
  8
0
 10
306.915
 20
91.5975
 30
0.0
 40
0
 41
0
  0
VERTEX
  8
0
 10
306.957
 20
91.5947
 30
0.0
 40
0
 41
0
  0
VERTEX
  8
0
 10
307.001
 20
91.5926
 30
0.0
 40
0
 41
0
  0
VERTEX
  8
0
 10
307.046
 20
91.5908
 30
0.0
 40
0
 41
0
  0
VERTEX
  8
0
 10
307.092
 20
91.5896
 30
0.0
 40
0
 41
0
  0
VERTEX
  8
0
 10
307.138
 20
91.5889
 30
0.0
 40
0
 41
0
  0
VERTEX
  8
0
 10
307.186
 20
91.5886
 30
0.0
 40
0
 41
0
  0
SEQEND
 8
0
  0
POLYLINE
  8
0
 62
     0
 66
     1
 10
0
 20
0
 30
0.0
 70
     1
 40
0
 41
0
  0
VERTEX
  8
0
 10
308.679
 20
94.341
 30
0.0
 40
0
 41
0
  0
VERTEX
  8
0
 10
308.907
 20
94.341
 30
0.0
 40
0
 41
0
  0
VERTEX
  8
0
 10
308.907
 20
92.9575
 30
0.0
 40
0
 41
0
  0
VERTEX
  8
0
 10
308.679
 20
92.9575
 30
0.0
 40
0
 41
0
  0
VERTEX
  8
0
 10
308.679
 20
94.341
 30
0.0
 40
0
 41
0
  0
SEQEND
 8
0
  0
POLYLINE
  8
0
 62
     0
 66
     1
 10
0
 20
0
 30
0.0
 70
     1
 40
0
 41
0
  0
VERTEX
  8
0
 10
308.379
 20
95.4917
 30
0.0
 40
0
 41
0
  0
VERTEX
  8
0
 10
308.379
 20
95.2051
 30
0.0
 40
0
 41
0
  0
VERTEX
  8
0
 10
306.743
 20
95.2051
 30
0.0
 40
0
 41
0
  0
VERTEX
  8
0
 10
306.728
 20
95.2056
 30
0.0
 40
0
 41
0
  0
VERTEX
  8
0
 10
306.713
 20
95.2058
 30
0.0
 40
0
 41
0
  0
VERTEX
  8
0
 10
306.696
 20
95.2061
 30
0.0
 40
0
 41
0
  0
VERTEX
  8
0
 10
306.681
 20
95.2065
 30
0.0
 40
0
 41
0
  0
VERTEX
  8
0
 10
306.664
 20
95.2068
 30
0.0
 40
0
 41
0
  0
VERTEX
  8
0
 10
306.649
 20
95.2072
 30
0.0
 40
0
 41
0
  0
VERTEX
  8
0
 10
306.633
 20
95.2075
 30
0.0
 40
0
 41
0
  0
VERTEX
  8
0
 10
306.617
 20
95.2078
 30
0.0
 40
0
 41
0
  0
VERTEX
  8
0
 10
306.601
 20
95.2082
 30
0.0
 40
0
 41
0
  0
VERTEX
  8
0
 10
306.586
 20
95.2085
 30
0.0
 40
0
 41
0
  0
VERTEX
  8
0
 10
306.569
 20
95.209
 30
0.0
 40
0
 41
0
  0
VERTEX
  8
0
 10
306.554
 20
95.2097
 30
0.0
 40
0
 41
0
  0
VERTEX
  8
0
 10
306.539
 20
95.2103
 30
0.0
 40
0
 41
0
  0
VERTEX
  8
0
 10
306.524
 20
95.2108
 30
0.0
 40
0
 41
0
  0
VERTEX
  8
0
 10
306.508
 20
95.2113
 30
0.0
 40
0
 41
0
  0
VERTEX
  8
0
 10
306.493
 20
95.2118
 30
0.0
 40
0
 41
0
  0
VERTEX
  8
0
 10
306.478
 20
95.2122
 30
0.0
 40
0
 41
0
  0
VERTEX
  8
0
 10
306.464
 20
95.2126
 30
0.0
 40
0
 41
0
  0
VERTEX
  8
0
 10
306.449
 20
95.2131
 30
0.0
 40
0
 41
0
  0
VERTEX
  8
0
 10
306.435
 20
95.2133
 30
0.0
 40
0
 41
0
  0
VERTEX
  8
0
 10
306.419
 20
95.214
 30
0.0
 40
0
 41
0
  0
VERTEX
  8
0
 10
306.406
 20
95.2146
 30
0.0
 40
0
 41
0
  0
VERTEX
  8
0
 10
306.392
 20
95.2151
 30
0.0
 40
0
 41
0
  0
VERTEX
  8
0
 10
306.379
 20
95.2157
 30
0.0
 40
0
 41
0
  0
VERTEX
  8
0
 10
306.365
 20
95.2162
 30
0.0
 40
0
 41
0
  0
VERTEX
  8
0
 10
306.353
 20
95.2167
 30
0.0
 40
0
 41
0
  0
VERTEX
  8
0
 10
306.34
 20
95.2171
 30
0.0
 40
0
 41
0
  0
VERTEX
  8
0
 10
306.329
 20
95.2175
 30
0.0
 40
0
 41
0
  0
VERTEX
  8
0
 10
306.317
 20
95.2179
 30
0.0
 40
0
 41
0
  0
VERTEX
  8
0
 10
306.306
 20
95.2182
 30
0.0
 40
0
 41
0
  0
VERTEX
  8
0
 10
306.311
 20
95.2128
 30
0.0
 40
0
 41
0
  0
VERTEX
  8
0
 10
306.317
 20
95.2074
 30
0.0
 40
0
 41
0
  0
VERTEX
  8
0
 10
306.322
 20
95.2022
 30
0.0
 40
0
 41
0
  0
VERTEX
  8
0
 10
306.328
 20
95.1971
 30
0.0
 40
0
 41
0
  0
VERTEX
  8
0
 10
306.338
 20
95.1874
 30
0.0
 40
0
 41
0
  0
VERTEX
  8
0
 10
306.343
 20
95.1826
 30
0.0
 40
0
 41
0
  0
VERTEX
  8
0
 10
306.347
 20
95.1781
 30
0.0
 40
0
 41
0
  0
VERTEX
  8
0
 10
306.351
 20
95.1737
 30
0.0
 40
0
 41
0
  0
VERTEX
  8
0
 10
306.356
 20
95.1694
 30
0.0
 40
0
 41
0
  0
VERTEX
  8
0
 10
306.361
 20
95.1651
 30
0.0
 40
0
 41
0
  0
VERTEX
  8
0
 10
306.365
 20
95.1608
 30
0.0
 40
0
 41
0
  0
VERTEX
  8
0
 10
306.369
 20
95.1565
 30
0.0
 40
0
 41
0
  0
VERTEX
  8
0
 10
306.372
 20
95.1522
 30
0.0
 40
0
 41
0
  0
VERTEX
  8
0
 10
306.376
 20
95.1478
 30
0.0
 40
0
 41
0
  0
VERTEX
  8
0
 10
306.381
 20
95.1435
 30
0.0
 40
0
 41
0
  0
VERTEX
  8
0
 10
306.385
 20
95.139
 30
0.0
 40
0
 41
0
  0
VERTEX
  8
0
 10
306.389
 20
95.1344
 30
0.0
 40
0
 41
0
  0
VERTEX
  8
0
 10
306.393
 20
95.13
 30
0.0
 40
0
 41
0
  0
VERTEX
  8
0
 10
306.397
 20
95.1254
 30
0.0
 40
0
 41
0
  0
VERTEX
  8
0
 10
306.401
 20
95.1213
 30
0.0
 40
0
 41
0
  0
VERTEX
  8
0
 10
306.406
 20
95.1168
 30
0.0
 40
0
 41
0
  0
VERTEX
  8
0
 10
306.408
 20
95.1125
 30
0.0
 40
0
 41
0
  0
VERTEX
  8
0
 10
306.414
 20
95.1081
 30
0.0
 40
0
 41
0
  0
VERTEX
  8
0
 10
306.418
 20
95.1035
 30
0.0
 40
0
 41
0
  0
VERTEX
  8
0
 10
306.422
 20
95.0989
 30
0.0
 40
0
 41
0
  0
VERTEX
  8
0
 10
306.426
 20
95.0942
 30
0.0
 40
0
 41
0
  0
VERTEX
  8
0
 10
306.431
 20
95.0894
 30
0.0
 40
0
 41
0
  0
VERTEX
  8
0
 10
306.435
 20
95.0847
 30
0.0
 40
0
 41
0
  0
VERTEX
  8
0
 10
306.439
 20
95.0799
 30
0.0
 40
0
 41
0
  0
VERTEX
  8
0
 10
306.443
 20
95.0749
 30
0.0
 40
0
 41
0
  0
VERTEX
  8
0
 10
306.449
 20
95.0697
 30
0.0
 40
0
 41
0
  0
VERTEX
  8
0
 10
306.453
 20
95.0643
 30
0.0
 40
0
 41
0
  0
VERTEX
  8
0
 10
306.457
 20
95.0588
 30
0.0
 40
0
 41
0
  0
VERTEX
  8
0
 10
306.463
 20
95.0531
 30
0.0
 40
0
 41
0
  0
VERTEX
  8
0
 10
306.468
 20
95.0471
 30
0.0
 40
0
 41
0
  0
VERTEX
  8
0
 10
306.474
 20
95.041
 30
0.0
 40
0
 41
0
  0
VERTEX
  8
0
 10
306.478
 20
95.0346
 30
0.0
 40
0
 41
0
  0
VERTEX
  8
0
 10
306.483
 20
95.0281
 30
0.0
 40
0
 41
0
  0
VERTEX
  8
0
 10
306.49
 20
95.0212
 30
0.0
 40
0
 41
0
  0
VERTEX
  8
0
 10
306.686
 20
94.7804
 30
0.0
 40
0
 41
0
  0
VERTEX
  8
0
 10
306.486
 20
94.6242
 30
0.0
 40
0
 41
0
  0
VERTEX
  8
0
 10
306
 20
95.2475
 30
0.0
 40
0
 41
0
  0
VERTEX
  8
0
 10
306
 20
95.4917
 30
0.0
 40
0
 41
0
  0
VERTEX
  8
0
 10
308.379
 20
95.4917
 30
0.0
 40
0
 41
0
  0
SEQEND
 8
0
  0
POLYLINE
  8
0
 62
     0
 66
     1
 10
0
 20
0
 30
0.0
 70
     1
 40
0
 41
0
  0
VERTEX
  8
0
 10
308.412
 20
97.1372
 30
0.0
 40
0
 41
0
  0
VERTEX
  8
0
 10
308.411
 20
97.1044
 30
0.0
 40
0
 41
0
  0
VERTEX
  8
0
 10
308.41
 20
97.0722
 30
0.0
 40
0
 41
0
  0
VERTEX
  8
0
 10
308.407
 20
97.0404
 30
0.0
 40
0
 41
0
  0
VERTEX
  8
0
 10
308.404
 20
97.009
 30
0.0
 40
0
 41
0
  0
VERTEX
  8
0
 10
308.4
 20
96.9781
 30
0.0
 40
0
 41
0
  0
VERTEX
  8
0
 10
308.393
 20
96.9475
 30
0.0
 40
0
 41
0
  0
VERTEX
  8
0
 10
308.388
 20
96.9174
 30
0.0
 40
0
 41
0
  0
VERTEX
  8
0
 10
308.379
 20
96.8876
 30
0.0
 40
0
 41
0
  0
VERTEX
  8
0
 10
308.371
 20
96.8585
 30
0.0
 40
0
 41
0
  0
VERTEX
  8
0
 10
308.361
 20
96.8296
 30
0.0
 40
0
 41
0
  0
VERTEX
  8
0
 10
308.35
 20
96.8012
 30
0.0
 40
0
 41
0
  0
VERTEX
  8
0
 10
308.339
 20
96.7738
 30
0.0
 40
0
 41
0
  0
VERTEX
  8
0
 10
308.325
 20
96.7469
 30
0.0
 40
0
 41
0
  0
VERTEX
  8
0
 10
308.31
 20
96.721
 30
0.0
 40
0
 41
0
  0
VERTEX
  8
0
 10
308.294
 20
96.6957
 30
0.0
 40
0
 41
0
  0
VERTEX
  8
0
 10
308.278
 20
96.6711
 30
0.0
 40
0
 41
0
  0
VERTEX
  8
0
 10
308.26
 20
96.6474
 30
0.0
 40
0
 41
0
  0
VERTEX
  8
0
 10
308.24
 20
96.6243
 30
0.0
 40
0
 41
0
  0
VERTEX
  8
0
 10
308.221
 20
96.6021
 30
0.0
 40
0
 41
0
  0
VERTEX
  8
0
 10
308.199
 20
96.5806
 30
0.0
 40
0
 41
0
  0
VERTEX
  8
0
 10
308.175
 20
96.5599
 30
0.0
 40
0
 41
0
  0
VERTEX
  8
0
 10
308.151
 20
96.54
 30
0.0
 40
0
 41
0
  0
VERTEX
  8
0
 10
308.126
 20
96.5211
 30
0.0
 40
0
 41
0
  0
VERTEX
  8
0
 10
308.099
 20
96.5032
 30
0.0
 40
0
 41
0
  0
VERTEX
  8
0
 10
308.071
 20
96.4861
 30
0.0
 40
0
 41
0
  0
VERTEX
  8
0
 10
308.043
 20
96.47
 30
0.0
 40
0
 41
0
  0
VERTEX
  8
0
 10
308.013
 20
96.4547
 30
0.0
 40
0
 41
0
  0
VERTEX
  8
0
 10
307.981
 20
96.4404
 30
0.0
 40
0
 41
0
  0
VERTEX
  8
0
 10
307.947
 20
96.4269
 30
0.0
 40
0
 41
0
  0
VERTEX
  8
0
 10
307.914
 20
96.4144
 30
0.0
 40
0
 41
0
  0
VERTEX
  8
0
 10
307.878
 20
96.4031
 30
0.0
 40
0
 41
0
  0
VERTEX
  8
0
 10
307.842
 20
96.3928
 30
0.0
 40
0
 41
0
  0
VERTEX
  8
0
 10
307.803
 20
96.3837
 30
0.0
 40
0
 41
0
  0
VERTEX
  8
0
 10
307.764
 20
96.376
 30
0.0
 40
0
 41
0
  0
VERTEX
  8
0
 10
307.722
 20
96.3693
 30
0.0
 40
0
 41
0
  0
VERTEX
  8
0
 10
307.679
 20
96.3639
 30
0.0
 40
0
 41
0
  0
VERTEX
  8
0
 10
307.636
 20
96.3597
 30
0.0
 40
0
 41
0
  0
VERTEX
  8
0
 10
307.59
 20
96.3567
 30
0.0
 40
0
 41
0
  0
VERTEX
  8
0
 10
307.543
 20
96.3549
 30
0.0
 40
0
 41
0
  0
VERTEX
  8
0
 10
307.496
 20
96.3543
 30
0.0
 40
0
 41
0
  0
VERTEX
  8
0
 10
307.446
 20
96.3549
 30
0.0
 40
0
 41
0
  0
VERTEX
  8
0
 10
307.397
 20
96.3568
 30
0.0
 40
0
 41
0
  0
VERTEX
  8
0
 10
307.349
 20
96.3599
 30
0.0
 40
0
 41
0
  0
VERTEX
  8
0
 10
307.304
 20
96.3642
 30
0.0
 40
0
 41
0
  0
VERTEX
  8
0
 10
307.26
 20
96.3697
 30
0.0
 40
0
 41
0
  0
VERTEX
  8
0
 10
307.217
 20
96.3765
 30
0.0
 40
0
 41
0
  0
VERTEX
  8
0
 10
307.176
 20
96.3846
 30
0.0
 40
0
 41
0
  0
VERTEX
  8
0
 10
307.136
 20
96.3939
 30
0.0
 40
0
 41
0
  0
VERTEX
  8
0
 10
307.099
 20
96.4044
 30
0.0
 40
0
 41
0
  0
VERTEX
  8
0
 10
307.063
 20
96.4161
 30
0.0
 40
0
 41
0
  0
VERTEX
  8
0
 10
307.028
 20
96.429
 30
0.0
 40
0
 41
0
  0
VERTEX
  8
0
 10
306.994
 20
96.4426
 30
0.0
 40
0
 41
0
  0
VERTEX
  8
0
 10
306.961
 20
96.4574
 30
0.0
 40
0
 41
0
  0
VERTEX
  8
0
 10
306.931
 20
96.4729
 30
0.0
 40
0
 41
0
  0
VERTEX
  8
0
 10
306.9
 20
96.4894
 30
0.0
 40
0
 41
0
  0
VERTEX
  8
0
 10
306.872
 20
96.5068
 30
0.0
 40
0
 41
0
  0
VERTEX
  8
0
 10
306.846
 20
96.525
 30
0.0
 40
0
 41
0
  0
VERTEX
  8
0
 10
306.819
 20
96.5443
 30
0.0
 40
0
 41
0
  0
VERTEX
  8
0
 10
306.796
 20
96.5644
 30
0.0
 40
0
 41
0
  0
VERTEX
  8
0
 10
306.772
 20
96.5854
 30
0.0
 40
0
 41
0
  0
VERTEX
  8
0
 10
306.751
 20
96.6076
 30
0.0
 40
0
 41
0
  0
VERTEX
  8
0
 10
306.731
 20
96.6304
 30
0.0
 40
0
 41
0
  0
VERTEX
  8
0
 10
306.711
 20
96.654
 30
0.0
 40
0
 41
0
  0
VERTEX
  8
0
 10
306.693
 20
96.6783
 30
0.0
 40
0
 41
0
  0
VERTEX
  8
0
 10
306.676
 20
96.7035
 30
0.0
 40
0
 41
0
  0
VERTEX
  8
0
 10
306.661
 20
96.7292
 30
0.0
 40
0
 41
0
  0
VERTEX
  8
0
 10
306.646
 20
96.7556
 30
0.0
 40
0
 41
0
  0
VERTEX
  8
0
 10
306.633
 20
96.7828
 30
0.0
 40
0
 41
0
  0
VERTEX
  8
0
 10
306.621
 20
96.8107
 30
0.0
 40
0
 41
0
  0
VERTEX
  8
0
 10
306.61
 20
96.8393
 30
0.0
 40
0
 41
0
  0
VERTEX
  8
0
 10
306.601
 20
96.8685
 30
0.0
 40
0
 41
0
  0
VERTEX
  8
0
 10
306.592
 20
96.8981
 30
0.0
 40
0
 41
0
  0
VERTEX
  8
0
 10
306.585
 20
96.9282
 30
0.0
 40
0
 41
0
  0
VERTEX
  8
0
 10
306.578
 20
96.9586
 30
0.0
 40
0
 41
0
  0
VERTEX
  8
0
 10
306.572
 20
96.9894
 30
0.0
 40
0
 41
0
  0
VERTEX
  8
0
 10
306.568
 20
97.0207
 30
0.0
 40
0
 41
0
  0
VERTEX
  8
0
 10
306.564
 20
97.0525
 30
0.0
 40
0
 41
0
  0
VERTEX
  8
0
 10
306.561
 20
97.0846
 30
0.0
 40
0
 41
0
  0
VERTEX
  8
0
 10
306.56
 20
97.1172
 30
0.0
 40
0
 41
0
  0
VERTEX
  8
0
 10
306.56
 20
97.1501
 30
0.0
 40
0
 41
0
  0
VERTEX
  8
0
 10
306.56
 20
97.1756
 30
0.0
 40
0
 41
0
  0
VERTEX
  8
0
 10
306.561
 20
97.2007
 30
0.0
 40
0
 41
0
  0
VERTEX
  8
0
 10
306.563
 20
97.2258
 30
0.0
 40
0
 41
0
  0
VERTEX
  8
0
 10
306.564
 20
97.2507
 30
0.0
 40
0
 41
0
  0
VERTEX
  8
0
 10
306.567
 20
97.2756
 30
0.0
 40
0
 41
0
  0
VERTEX
  8
0
 10
306.569
 20
97.3001
 30
0.0
 40
0
 41
0
  0
VERTEX
  8
0
 10
306.574
 20
97.3247
 30
0.0
 40
0
 41
0
  0
VERTEX
  8
0
 10
306.578
 20
97.3492
 30
0.0
 40
0
 41
0
  0
VERTEX
  8
0
 10
306.582
 20
97.3735
 30
0.0
 40
0
 41
0
  0
VERTEX
  8
0
 10
306.588
 20
97.3976
 30
0.0
 40
0
 41
0
  0
VERTEX
  8
0
 10
306.593
 20
97.4215
 30
0.0
 40
0
 41
0
  0
VERTEX
  8
0
 10
306.599
 20
97.4447
 30
0.0
 40
0
 41
0
  0
VERTEX
  8
0
 10
306.606
 20
97.4672
 30
0.0
 40
0
 41
0
  0
VERTEX
  8
0
 10
306.611
 20
97.4887
 30
0.0
 40
0
 41
0
  0
VERTEX
  8
0
 10
306.618
 20
97.5094
 30
0.0
 40
0
 41
0
  0
VERTEX
  8
0
 10
306.625
 20
97.5294
 30
0.0
 40
0
 41
0
  0
VERTEX
  8
0
 10
306.632
 20
97.5486
 30
0.0
 40
0
 41
0
  0
VERTEX
  8
0
 10
306.64
 20
97.5668
 30
0.0
 40
0
 41
0
  0
VERTEX
  8
0
 10
306.647
 20
97.5843
 30
0.0
 40
0
 41
0
  0
VERTEX
  8
0
 10
306.656
 20
97.601
 30
0.0
 40
0
 41
0
  0
VERTEX
  8
0
 10
306.907
 20
97.5132
 30
0.0
 40
0
 41
0
  0
VERTEX
  8
0
 10
306.903
 20
97.5056
 30
0.0
 40
0
 41
0
  0
VERTEX
  8
0
 10
306.897
 20
97.49
 30
0.0
 40
0
 41
0
  0
VERTEX
  8
0
 10
306.893
 20
97.4819
 30
0.0
 40
0
 41
0
  0
VERTEX
  8
0
 10
306.89
 20
97.4736
 30
0.0
 40
0
 41
0
  0
VERTEX
  8
0
 10
306.888
 20
97.4653
 30
0.0
 40
0
 41
0
  0
VERTEX
  8
0
 10
306.885
 20
97.4568
 30
0.0
 40
0
 41
0
  0
VERTEX
  8
0
 10
306.882
 20
97.4481
 30
0.0
 40
0
 41
0
  0
VERTEX
  8
0
 10
306.879
 20
97.4392
 30
0.0
 40
0
 41
0
  0
VERTEX
  8
0
 10
306.875
 20
97.4301
 30
0.0
 40
0
 41
0
  0
VERTEX
  8
0
 10
306.869
 20
97.4118
 30
0.0
 40
0
 41
0
  0
VERTEX
  8
0
 10
306.867
 20
97.4025
 30
0.0
 40
0
 41
0
  0
VERTEX
  8
0
 10
306.864
 20
97.3932
 30
0.0
 40
0
 41
0
  0
VERTEX
  8
0
 10
306.86
 20
97.3837
 30
0.0
 40
0
 41
0
  0
VERTEX
  8
0
 10
306.858
 20
97.3743
 30
0.0
 40
0
 41
0
  0
VERTEX
  8
0
 10
306.856
 20
97.3647
 30
0.0
 40
0
 41
0
  0
VERTEX
  8
0
 10
306.853
 20
97.3551
 30
0.0
 40
0
 41
0
  0
VERTEX
  8
0
 10
306.85
 20
97.3454
 30
0.0
 40
0
 41
0
  0
VERTEX
  8
0
 10
306.847
 20
97.3357
 30
0.0
 40
0
 41
0
  0
VERTEX
  8
0
 10
306.846
 20
97.326
 30
0.0
 40
0
 41
0
  0
VERTEX
  8
0
 10
306.843
 20
97.3163
 30
0.0
 40
0
 41
0
  0
VERTEX
  8
0
 10
306.84
 20
97.3065
 30
0.0
 40
0
 41
0
  0
VERTEX
  8
0
 10
306.839
 20
97.2969
 30
0.0
 40
0
 41
0
  0
VERTEX
  8
0
 10
306.836
 20
97.2874
 30
0.0
 40
0
 41
0
  0
VERTEX
  8
0
 10
306.833
 20
97.2682
 30
0.0
 40
0
 41
0
  0
VERTEX
  8
0
 10
306.831
 20
97.2586
 30
0.0
 40
0
 41
0
  0
VERTEX
  8
0
 10
306.829
 20
97.2492
 30
0.0
 40
0
 41
0
  0
VERTEX
  8
0
 10
306.828
 20
97.2397
 30
0.0
 40
0
 41
0
  0
VERTEX
  8
0
 10
306.826
 20
97.2303
 30
0.0
 40
0
 41
0
  0
VERTEX
  8
0
 10
306.825
 20
97.221
 30
0.0
 40
0
 41
0
  0
VERTEX
  8
0
 10
306.824
 20
97.2118
 30
0.0
 40
0
 41
0
  0
VERTEX
  8
0
 10
306.824
 20
97.2028
 30
0.0
 40
0
 41
0
  0
VERTEX
  8
0
 10
306.822
 20
97.1938
 30
0.0
 40
0
 41
0
  0
VERTEX
  8
0
 10
306.821
 20
97.1849
 30
0.0
 40
0
 41
0
  0
VERTEX
  8
0
 10
306.821
 20
97.176
 30
0.0
 40
0
 41
0
  0
VERTEX
  8
0
 10
306.821
 20
97.1674
 30
0.0
 40
0
 41
0
  0
VERTEX
  8
0
 10
306.821
 20
97.1588
 30
0.0
 40
0
 41
0
  0
VERTEX
  8
0
 10
306.821
 20
97.1501
 30
0.0
 40
0
 41
0
  0
VERTEX
  8
0
 10
306.822
 20
97.1004
 30
0.0
 40
0
 41
0
  0
VERTEX
  8
0
 10
306.826
 20
97.0535
 30
0.0
 40
0
 41
0
  0
VERTEX
  8
0
 10
306.835
 20
97.0093
 30
0.0
 40
0
 41
0
  0
VERTEX
  8
0
 10
306.846
 20
96.9679
 30
0.0
 40
0
 41
0
  0
VERTEX
  8
0
 10
306.861
 20
96.9293
 30
0.0
 40
0
 41
0
  0
VERTEX
  8
0
 10
306.879
 20
96.8933
 30
0.0
 40
0
 41
0
  0
VERTEX
  8
0
 10
306.9
 20
96.8603
 30
0.0
 40
0
 41
0
  0
VERTEX
  8
0
 10
306.925
 20
96.8299
 30
0.0
 40
0
 41
0
  0
VERTEX
  8
0
 10
306.953
 20
96.8022
 30
0.0
 40
0
 41
0
  0
VERTEX
  8
0
 10
306.985
 20
96.7775
 30
0.0
 40
0
 41
0
  0
VERTEX
  8
0
 10
307.019
 20
96.7551
 30
0.0
 40
0
 41
0
  0
VERTEX
  8
0
 10
307.057
 20
96.7353
 30
0.0
 40
0
 41
0
  0
VERTEX
  8
0
 10
307.099
 20
96.7176
 30
0.0
 40
0
 41
0
  0
VERTEX
  8
0
 10
307.144
 20
96.7025
 30
0.0
 40
0
 41
0
  0
VERTEX
  8
0
 10
307.193
 20
96.6896
 30
0.0
 40
0
 41
0
  0
VERTEX
  8
0
 10
307.246
 20
96.679
 30
0.0
 40
0
 41
0
  0
VERTEX
  8
0
 10
307.301
 20
96.6708
 30
0.0
 40
0
 41
0
  0
VERTEX
  8
0
 10
307.361
 20
96.665
 30
0.0
 40
0
 41
0
  0
VERTEX
  8
0
 10
307.425
 20
96.6614
 30
0.0
 40
0
 41
0
  0
VERTEX
  8
0
 10
307.492
 20
96.6603
 30
0.0
 40
0
 41
0
  0
VERTEX
  8
0
 10
307.56
 20
96.6614
 30
0.0
 40
0
 41
0
  0
VERTEX
  8
0
 10
307.622
 20
96.665
 30
0.0
 40
0
 41
0
  0
VERTEX
  8
0
 10
307.682
 20
96.6708
 30
0.0
 40
0
 41
0
  0
VERTEX
  8
0
 10
307.737
 20
96.679
 30
0.0
 40
0
 41
0
  0
VERTEX
  8
0
 10
307.79
 20
96.6896
 30
0.0
 40
0
 41
0
  0
VERTEX
  8
0
 10
307.839
 20
96.7025
 30
0.0
 40
0
 41
0
  0
VERTEX
  8
0
 10
307.883
 20
96.7176
 30
0.0
 40
0
 41
0
  0
VERTEX
  8
0
 10
307.924
 20
96.7353
 30
0.0
 40
0
 41
0
  0
VERTEX
  8
0
 10
307.961
 20
96.7551
 30
0.0
 40
0
 41
0
  0
VERTEX
  8
0
 10
307.996
 20
96.7775
 30
0.0
 40
0
 41
0
  0
VERTEX
  8
0
 10
308.025
 20
96.8025
 30
0.0
 40
0
 41
0
  0
VERTEX
  8
0
 10
308.053
 20
96.8299
 30
0.0
 40
0
 41
0
  0
VERTEX
  8
0
 10
308.076
 20
96.8597
 30
0.0
 40
0
 41
0
  0
VERTEX
  8
0
 10
308.096
 20
96.8921
 30
0.0
 40
0
 41
0
  0
VERTEX
  8
0
 10
308.114
 20
96.9268
 30
0.0
 40
0
 41
0
  0
VERTEX
  8
0
 10
308.128
 20
96.964
 30
0.0
 40
0
 41
0
  0
VERTEX
  8
0
 10
308.139
 20
97.0036
 30
0.0
 40
0
 41
0
  0
VERTEX
  8
0
 10
308.147
 20
97.0457
 30
0.0
 40
0
 41
0
  0
VERTEX
  8
0
 10
308.151
 20
97.0903
 30
0.0
 40
0
 41
0
  0
VERTEX
  8
0
 10
308.153
 20
97.1372
 30
0.0
 40
0
 41
0
  0
VERTEX
  8
0
 10
308.153
 20
97.1633
 30
0.0
 40
0
 41
0
  0
VERTEX
  8
0
 10
308.151
 20
97.1889
 30
0.0
 40
0
 41
0
  0
VERTEX
  8
0
 10
308.15
 20
97.2139
 30
0.0
 40
0
 41
0
  0
VERTEX
  8
0
 10
308.149
 20
97.2385
 30
0.0
 40
0
 41
0
  0
VERTEX
  8
0
 10
308.146
 20
97.2625
 30
0.0
 40
0
 41
0
  0
VERTEX
  8
0
 10
308.143
 20
97.286
 30
0.0
 40
0
 41
0
  0
VERTEX
  8
0
 10
308.139
 20
97.309
 30
0.0
 40
0
 41
0
  0
VERTEX
  8
0
 10
308.135
 20
97.3314
 30
0.0
 40
0
 41
0
  0
VERTEX
  8
0
 10
308.129
 20
97.3533
 30
0.0
 40
0
 41
0
  0
VERTEX
  8
0
 10
308.124
 20
97.3749
 30
0.0
 40
0
 41
0
  0
VERTEX
  8
0
 10
308.118
 20
97.3961
 30
0.0
 40
0
 41
0
  0
VERTEX
  8
0
 10
308.111
 20
97.4169
 30
0.0
 40
0
 41
0
  0
VERTEX
  8
0
 10
308.104
 20
97.4375
 30
0.0
 40
0
 41
0
  0
VERTEX
  8
0
 10
308.097
 20
97.4576
 30
0.0
 40
0
 41
0
  0
VERTEX
  8
0
 10
308.09
 20
97.4774
 30
0.0
 40
0
 41
0
  0
VERTEX
  8
0
 10
308.083
 20
97.4967
 30
0.0
 40
0
 41
0
  0
VERTEX
  8
0
 10
308.076
 20
97.5156
 30
0.0
 40
0
 41
0
  0
VERTEX
  8
0
 10
308.068
 20
97.5342
 30
0.0
 40
0
 41
0
  0
VERTEX
  8
0
 10
308.06
 20
97.5524
 30
0.0
 40
0
 41
0
  0
VERTEX
  8
0
 10
308.053
 20
97.5701
 30
0.0
 40
0
 41
0
  0
VERTEX
  8
0
 10
308.317
 20
97.5701
 30
0.0
 40
0
 41
0
  0
VERTEX
  8
0
 10
308.325
 20
97.5524
 30
0.0
 40
0
 41
0
  0
VERTEX
  8
0
 10
308.333
 20
97.5344
 30
0.0
 40
0
 41
0
  0
VERTEX
  8
0
 10
308.342
 20
97.5162
 30
0.0
 40
0
 41
0
  0
VERTEX
  8
0
 10
308.35
 20
97.4978
 30
0.0
 40
0
 41
0
  0
VERTEX
  8
0
 10
308.357
 20
97.479
 30
0.0
 40
0
 41
0
  0
VERTEX
  8
0
 10
308.364
 20
97.46
 30
0.0
 40
0
 41
0
  0
VERTEX
  8
0
 10
308.371
 20
97.4407
 30
0.0
 40
0
 41
0
  0
VERTEX
  8
0
 10
308.376
 20
97.4211
 30
0.0
 40
0
 41
0
  0
VERTEX
  8
0
 10
308.382
 20
97.4014
 30
0.0
 40
0
 41
0
  0
VERTEX
  8
0
 10
308.388
 20
97.3813
 30
0.0
 40
0
 41
0
  0
VERTEX
  8
0
 10
308.392
 20
97.361
 30
0.0
 40
0
 41
0
  0
VERTEX
  8
0
 10
308.396
 20
97.3397
 30
0.0
 40
0
 41
0
  0
VERTEX
  8
0
 10
308.4
 20
97.3176
 30
0.0
 40
0
 41
0
  0
VERTEX
  8
0
 10
308.403
 20
97.2946
 30
0.0
 40
0
 41
0
  0
VERTEX
  8
0
 10
308.406
 20
97.2707
 30
0.0
 40
0
 41
0
  0
VERTEX
  8
0
 10
308.408
 20
97.2457
 30
0.0
 40
0
 41
0
  0
VERTEX
  8
0
 10
308.41
 20
97.22
 30
0.0
 40
0
 41
0
  0
VERTEX
  8
0
 10
308.411
 20
97.1933
 30
0.0
 40
0
 41
0
  0
VERTEX
  8
0
 10
308.411
 20
97.1657
 30
0.0
 40
0
 41
0
  0
VERTEX
  8
0
 10
308.412
 20
97.1372
 30
0.0
 40
0
 41
0
  0
SEQEND
 8
0
  0
POLYLINE
  8
0
 62
     0
 66
     1
 10
0
 20
0
 30
0.0
 70
     1
 40
0
 41
0
  0
VERTEX
  8
0
 10
308.379
 20
100.137
 30
0.0
 40
0
 41
0
  0
VERTEX
  8
0
 10
307.229
 20
100.137
 30
0.0
 40
0
 41
0
  0
VERTEX
  8
0
 10
307.188
 20
100.136
 30
0.0
 40
0
 41
0
  0
VERTEX
  8
0
 10
307.149
 20
100.134
 30
0.0
 40
0
 41
0
  0
VERTEX
  8
0
 10
307.111
 20
100.13
 30
0.0
 40
0
 41
0
  0
VERTEX
  8
0
 10
307.076
 20
100.124
 30
0.0
 40
0
 41
0
  0
VERTEX
  8
0
 10
307.043
 20
100.117
 30
0.0
 40
0
 41
0
  0
VERTEX
  8
0
 10
307.013
 20
100.108
 30
0.0
 40
0
 41
0
  0
VERTEX
  8
0
 10
306.985
 20
100.097
 30
0.0
 40
0
 41
0
  0
VERTEX
  8
0
 10
306.958
 20
100.085
 30
0.0
 40
0
 41
0
  0
VERTEX
  8
0
 10
306.933
 20
100.071
 30
0.0
 40
0
 41
0
  0
VERTEX
  8
0
 10
306.911
 20
100.055
 30
0.0
 40
0
 41
0
  0
VERTEX
  8
0
 10
306.892
 20
100.038
 30
0.0
 40
0
 41
0
  0
VERTEX
  8
0
 10
306.874
 20
100.019
 30
0.0
 40
0
 41
0
  0
VERTEX
  8
0
 10
306.857
 20
99.9986
 30
0.0
 40
0
 41
0
  0
VERTEX
  8
0
 10
306.843
 20
99.976
 30
0.0
 40
0
 41
0
  0
VERTEX
  8
0
 10
306.832
 20
99.9517
 30
0.0
 40
0
 41
0
  0
VERTEX
  8
0
 10
306.822
 20
99.9256
 30
0.0
 40
0
 41
0
  0
VERTEX
  8
0
 10
306.815
 20
99.8976
 30
0.0
 40
0
 41
0
  0
VERTEX
  8
0
 10
306.81
 20
99.8679
 30
0.0
 40
0
 41
0
  0
VERTEX
  8
0
 10
306.807
 20
99.8365
 30
0.0
 40
0
 41
0
  0
VERTEX
  8
0
 10
306.806
 20
99.8032
 30
0.0
 40
0
 41
0
  0
VERTEX
  8
0
 10
306.806
 20
99.7797
 30
0.0
 40
0
 41
0
  0
VERTEX
  8
0
 10
306.807
 20
99.7571
 30
0.0
 40
0
 41
0
  0
VERTEX
  8
0
 10
306.81
 20
99.7351
 30
0.0
 40
0
 41
0
  0
VERTEX
  8
0
 10
306.811
 20
99.7139
 30
0.0
 40
0
 41
0
  0
VERTEX
  8
0
 10
306.815
 20
99.6933
 30
0.0
 40
0
 41
0
  0
VERTEX
  8
0
 10
306.819
 20
99.6735
 30
0.0
 40
0
 41
0
  0
VERTEX
  8
0
 10
306.825
 20
99.6544
 30
0.0
 40
0
 41
0
  0
VERTEX
  8
0
 10
306.831
 20
99.636
 30
0.0
 40
0
 41
0
  0
VERTEX
  8
0
 10
306.838
 20
99.6183
 30
0.0
 40
0
 41
0
  0
VERTEX
  8
0
 10
306.844
 20
99.6014
 30
0.0
 40
0
 41
0
  0
VERTEX
  8
0
 10
306.853
 20
99.585
 30
0.0
 40
0
 41
0
  0
VERTEX
  8
0
 10
306.861
 20
99.5693
 30
0.0
 40
0
 41
0
  0
VERTEX
  8
0
 10
306.871
 20
99.5542
 30
0.0
 40
0
 41
0
  0
VERTEX
  8
0
 10
306.881
 20
99.5396
 30
0.0
 40
0
 41
0
  0
VERTEX
  8
0
 10
306.892
 20
99.5257
 30
0.0
 40
0
 41
0
  0
VERTEX
  8
0
 10
306.903
 20
99.5124
 30
0.0
 40
0
 41
0
  0
VERTEX
  8
0
 10
306.915
 20
99.4994
 30
0.0
 40
0
 41
0
  0
VERTEX
  8
0
 10
306.928
 20
99.4874
 30
0.0
 40
0
 41
0
  0
VERTEX
  8
0
 10
306.942
 20
99.4757
 30
0.0
 40
0
 41
0
  0
VERTEX
  8
0
 10
306.957
 20
99.4646
 30
0.0
 40
0
 41
0
  0
VERTEX
  8
0
 10
306.972
 20
99.4544
 30
0.0
 40
0
 41
0
  0
VERTEX
  8
0
 10
306.987
 20
99.4449
 30
0.0
 40
0
 41
0
  0
VERTEX
  8
0
 10
307.004
 20
99.4358
 30
0.0
 40
0
 41
0
  0
VERTEX
  8
0
 10
307.022
 20
99.4274
 30
0.0
 40
0
 41
0
  0
VERTEX
  8
0
 10
307.039
 20
99.4194
 30
0.0
 40
0
 41
0
  0
VERTEX
  8
0
 10
307.058
 20
99.4121
 30
0.0
 40
0
 41
0
  0
VERTEX
  8
0
 10
307.078
 20
99.4053
 30
0.0
 40
0
 41
0
  0
VERTEX
  8
0
 10
307.099
 20
99.399
 30
0.0
 40
0
 41
0
  0
VERTEX
  8
0
 10
307.119
 20
99.3933
 30
0.0
 40
0
 41
0
  0
VERTEX
  8
0
 10
307.14
 20
99.3882
 30
0.0
 40
0
 41
0
  0
VERTEX
  8
0
 10
307.162
 20
99.3835
 30
0.0
 40
0
 41
0
  0
VERTEX
  8
0
 10
307.186
 20
99.3793
 30
0.0
 40
0
 41
0
  0
VERTEX
  8
0
 10
307.21
 20
99.3757
 30
0.0
 40
0
 41
0
  0
VERTEX
  8
0
 10
307.233
 20
99.3725
 30
0.0
 40
0
 41
0
  0
VERTEX
  8
0
 10
307.258
 20
99.3699
 30
0.0
 40
0
 41
0
  0
VERTEX
  8
0
 10
307.283
 20
99.3676
 30
0.0
 40
0
 41
0
  0
VERTEX
  8
0
 10
307.31
 20
99.366
 30
0.0
 40
0
 41
0
  0
VERTEX
  8
0
 10
307.338
 20
99.3647
 30
0.0
 40
0
 41
0
  0
VERTEX
  8
0
 10
307.365
 20
99.364
 30
0.0
 40
0
 41
0
  0
VERTEX
  8
0
 10
307.393
 20
99.3637
 30
0.0
 40
0
 41
0
  0
VERTEX
  8
0
 10
308.379
 20
99.3637
 30
0.0
 40
0
 41
0
  0
VERTEX
  8
0
 10
308.379
 20
99.0658
 30
0.0
 40
0
 41
0
  0
VERTEX
  8
0
 10
307.229
 20
99.0658
 30
0.0
 40
0
 41
0
  0
VERTEX
  8
0
 10
307.188
 20
99.065
 30
0.0
 40
0
 41
0
  0
VERTEX
  8
0
 10
307.149
 20
99.0626
 30
0.0
 40
0
 41
0
  0
VERTEX
  8
0
 10
307.111
 20
99.0586
 30
0.0
 40
0
 41
0
  0
VERTEX
  8
0
 10
307.076
 20
99.0529
 30
0.0
 40
0
 41
0
  0
VERTEX
  8
0
 10
307.043
 20
99.0456
 30
0.0
 40
0
 41
0
  0
VERTEX
  8
0
 10
307.013
 20
99.0365
 30
0.0
 40
0
 41
0
  0
VERTEX
  8
0
 10
306.985
 20
99.026
 30
0.0
 40
0
 41
0
  0
VERTEX
  8
0
 10
306.958
 20
99.0138
 30
0.0
 40
0
 41
0
  0
VERTEX
  8
0
 10
306.933
 20
99
 30
0.0
 40
0
 41
0
  0
VERTEX
  8
0
 10
306.911
 20
98.9844
 30
0.0
 40
0
 41
0
  0
VERTEX
  8
0
 10
306.892
 20
98.9676
 30
0.0
 40
0
 41
0
  0
VERTEX
  8
0
 10
306.874
 20
98.9489
 30
0.0
 40
0
 41
0
  0
VERTEX
  8
0
 10
306.857
 20
98.9285
 30
0.0
 40
0
 41
0
  0
VERTEX
  8
0
 10
306.843
 20
98.9061
 30
0.0
 40
0
 41
0
  0
VERTEX
  8
0
 10
306.832
 20
98.8819
 30
0.0
 40
0
 41
0
  0
VERTEX
  8
0
 10
306.822
 20
98.856
 30
0.0
 40
0
 41
0
  0
VERTEX
  8
0
 10
306.815
 20
98.8282
 30
0.0
 40
0
 41
0
  0
VERTEX
  8
0
 10
306.81
 20
98.7986
 30
0.0
 40
0
 41
0
  0
VERTEX
  8
0
 10
306.807
 20
98.7671
 30
0.0
 40
0
 41
0
  0
VERTEX
  8
0
 10
306.806
 20
98.7339
 30
0.0
 40
0
 41
0
  0
VERTEX
  8
0
 10
306.806
 20
98.7092
 30
0.0
 40
0
 41
0
  0
VERTEX
  8
0
 10
306.807
 20
98.6853
 30
0.0
 40
0
 41
0
  0
VERTEX
  8
0
 10
306.81
 20
98.6624
 30
0.0
 40
0
 41
0
  0
VERTEX
  8
0
 10
306.813
 20
98.6401
 30
0.0
 40
0
 41
0
  0
VERTEX
  8
0
 10
306.817
 20
98.6187
 30
0.0
 40
0
 41
0
  0
VERTEX
  8
0
 10
306.821
 20
98.5981
 30
0.0
 40
0
 41
0
  0
VERTEX
  8
0
 10
306.826
 20
98.5783
 30
0.0
 40
0
 41
0
  0
VERTEX
  8
0
 10
306.832
 20
98.5593
 30
0.0
 40
0
 41
0
  0
VERTEX
  8
0
 10
306.84
 20
98.5413
 30
0.0
 40
0
 41
0
  0
VERTEX
  8
0
 10
306.847
 20
98.5239
 30
0.0
 40
0
 41
0
  0
VERTEX
  8
0
 10
306.857
 20
98.5072
 30
0.0
 40
0
 41
0
  0
VERTEX
  8
0
 10
306.867
 20
98.4914
 30
0.0
 40
0
 41
0
  0
VERTEX
  8
0
 10
306.876
 20
98.476
 30
0.0
 40
0
 41
0
  0
VERTEX
  8
0
 10
306.888
 20
98.4614
 30
0.0
 40
0
 41
0
  0
VERTEX
  8
0
 10
306.9
 20
98.4474
 30
0.0
 40
0
 41
0
  0
VERTEX
  8
0
 10
306.914
 20
98.434
 30
0.0
 40
0
 41
0
  0
VERTEX
  8
0
 10
306.928
 20
98.4214
 30
0.0
 40
0
 41
0
  0
VERTEX
  8
0
 10
306.942
 20
98.4093
 30
0.0
 40
0
 41
0
  0
VERTEX
  8
0
 10
306.957
 20
98.3979
 30
0.0
 40
0
 41
0
  0
VERTEX
  8
0
 10
306.974
 20
98.3872
 30
0.0
 40
0
 41
0
  0
VERTEX
  8
0
 10
306.99
 20
98.3774
 30
0.0
 40
0
 41
0
  0
VERTEX
  8
0
 10
307.008
 20
98.3681
 30
0.0
 40
0
 41
0
  0
VERTEX
  8
0
 10
307.026
 20
98.3594
 30
0.0
 40
0
 41
0
  0
VERTEX
  8
0
 10
307.046
 20
98.3513
 30
0.0
 40
0
 41
0
  0
VERTEX
  8
0
 10
307.065
 20
98.3436
 30
0.0
 40
0
 41
0
  0
VERTEX
  8
0
 10
307.086
 20
98.3365
 30
0.0
 40
0
 41
0
  0
VERTEX
  8
0
 10
307.108
 20
98.3301
 30
0.0
 40
0
 41
0
  0
VERTEX
  8
0
 10
307.131
 20
98.3242
 30
0.0
 40
0
 41
0
  0
VERTEX
  8
0
 10
307.153
 20
98.3188
 30
0.0
 40
0
 41
0
  0
VERTEX
  8
0
 10
307.176
 20
98.3139
 30
0.0
 40
0
 41
0
  0
VERTEX
  8
0
 10
307.201
 20
98.3099
 30
0.0
 40
0
 41
0
  0
VERTEX
  8
0
 10
307.226
 20
98.3062
 30
0.0
 40
0
 41
0
  0
VERTEX
  8
0
 10
307.251
 20
98.3032
 30
0.0
 40
0
 41
0
  0
VERTEX
  8
0
 10
307.279
 20
98.3004
 30
0.0
 40
0
 41
0
  0
VERTEX
  8
0
 10
307.306
 20
98.2981
 30
0.0
 40
0
 41
0
  0
VERTEX
  8
0
 10
307.335
 20
98.2961
 30
0.0
 40
0
 41
0
  0
VERTEX
  8
0
 10
307.362
 20
98.2947
 30
0.0
 40
0
 41
0
  0
VERTEX
  8
0
 10
307.392
 20
98.2936
 30
0.0
 40
0
 41
0
  0
VERTEX
  8
0
 10
307.422
 20
98.2929
 30
0.0
 40
0
 41
0
  0
VERTEX
  8
0
 10
307.453
 20
98.2928
 30
0.0
 40
0
 41
0
  0
VERTEX
  8
0
 10
308.379
 20
98.2928
 30
0.0
 40
0
 41
0
  0
VERTEX
  8
0
 10
308.379
 20
97.9965
 30
0.0
 40
0
 41
0
  0
VERTEX
  8
0
 10
306.592
 20
97.9965
 30
0.0
 40
0
 41
0
  0
VERTEX
  8
0
 10
306.592
 20
98.2374
 30
0.0
 40
0
 41
0
  0
VERTEX
  8
0
 10
306.833
 20
98.2797
 30
0.0
 40
0
 41
0
  0
VERTEX
  8
0
 10
306.833
 20
98.296
 30
0.0
 40
0
 41
0
  0
VERTEX
  8
0
 10
306.819
 20
98.304
 30
0.0
 40
0
 41
0
  0
VERTEX
  8
0
 10
306.806
 20
98.3122
 30
0.0
 40
0
 41
0
  0
VERTEX
  8
0
 10
306.793
 20
98.3208
 30
0.0
 40
0
 41
0
  0
VERTEX
  8
0
 10
306.781
 20
98.3296
 30
0.0
 40
0
 41
0
  0
VERTEX
  8
0
 10
306.768
 20
98.3388
 30
0.0
 40
0
 41
0
  0
VERTEX
  8
0
 10
306.756
 20
98.3482
 30
0.0
 40
0
 41
0
  0
VERTEX
  8
0
 10
306.744
 20
98.3579
 30
0.0
 40
0
 41
0
  0
VERTEX
  8
0
 10
306.733
 20
98.3679
 30
0.0
 40
0
 41
0
  0
VERTEX
  8
0
 10
306.724
 20
98.3782
 30
0.0
 40
0
 41
0
  0
VERTEX
  8
0
 10
306.713
 20
98.3888
 30
0.0
 40
0
 41
0
  0
VERTEX
  8
0
 10
306.703
 20
98.3996
 30
0.0
 40
0
 41
0
  0
VERTEX
  8
0
 10
306.693
 20
98.4107
 30
0.0
 40
0
 41
0
  0
VERTEX
  8
0
 10
306.683
 20
98.4219
 30
0.0
 40
0
 41
0
  0
VERTEX
  8
0
 10
306.674
 20
98.4333
 30
0.0
 40
0
 41
0
  0
VERTEX
  8
0
 10
306.665
 20
98.445
 30
0.0
 40
0
 41
0
  0
VERTEX
  8
0
 10
306.657
 20
98.4568
 30
0.0
 40
0
 41
0
  0
VERTEX
  8
0
 10
306.649
 20
98.4688
 30
0.0
 40
0
 41
0
  0
VERTEX
  8
0
 10
306.64
 20
98.481
 30
0.0
 40
0
 41
0
  0
VERTEX
  8
0
 10
306.633
 20
98.4933
 30
0.0
 40
0
 41
0
  0
VERTEX
  8
0
 10
306.626
 20
98.506
 30
0.0
 40
0
 41
0
  0
VERTEX
  8
0
 10
306.619
 20
98.519
 30
0.0
 40
0
 41
0
  0
VERTEX
  8
0
 10
306.614
 20
98.5322
 30
0.0
 40
0
 41
0
  0
VERTEX
  8
0
 10
306.608
 20
98.5457
 30
0.0
 40
0
 41
0
  0
VERTEX
  8
0
 10
306.601
 20
98.5592
 30
0.0
 40
0
 41
0
  0
VERTEX
  8
0
 10
306.597
 20
98.5728
 30
0.0
 40
0
 41
0
  0
VERTEX
  8
0
 10
306.592
 20
98.5864
 30
0.0
 40
0
 41
0
  0
VERTEX
  8
0
 10
306.588
 20
98.6003
 30
0.0
 40
0
 41
0
  0
VERTEX
  8
0
 10
306.583
 20
98.6143
 30
0.0
 40
0
 41
0
  0
VERTEX
  8
0
 10
306.579
 20
98.6285
 30
0.0
 40
0
 41
0
  0
VERTEX
  8
0
 10
306.576
 20
98.6426
 30
0.0
 40
0
 41
0
  0
VERTEX
  8
0
 10
306.574
 20
98.6574
 30
0.0
 40
0
 41
0
  0
VERTEX
  8
0
 10
306.571
 20
98.6721
 30
0.0
 40
0
 41
0
  0
VERTEX
  8
0
 10
306.568
 20
98.6868
 30
0.0
 40
0
 41
0
  0
VERTEX
  8
0
 10
306.565
 20
98.7015
 30
0.0
 40
0
 41
0
  0
VERTEX
  8
0
 10
306.564
 20
98.7164
 30
0.0
 40
0
 41
0
  0
VERTEX
  8
0
 10
306.563
 20
98.7311
 30
0.0
 40
0
 41
0
  0
VERTEX
  8
0
 10
306.561
 20
98.746
 30
0.0
 40
0
 41
0
  0
VERTEX
  8
0
 10
306.56
 20
98.761
 30
0.0
 40
0
 41
0
  0
VERTEX
  8
0
 10
306.56
 20
98.7758
 30
0.0
 40
0
 41
0
  0
VERTEX
  8
0
 10
306.56
 20
98.7908
 30
0.0
 40
0
 41
0
  0
VERTEX
  8
0
 10
306.56
 20
98.8292
 30
0.0
 40
0
 41
0
  0
VERTEX
  8
0
 10
306.563
 20
98.8663
 30
0.0
 40
0
 41
0
  0
VERTEX
  8
0
 10
306.567
 20
98.9019
 30
0.0
 40
0
 41
0
  0
VERTEX
  8
0
 10
306.571
 20
98.9364
 30
0.0
 40
0
 41
0
  0
VERTEX
  8
0
 10
306.578
 20
98.9694
 30
0.0
 40
0
 41
0
  0
VERTEX
  8
0
 10
306.586
 20
99.0011
 30
0.0
 40
0
 41
0
  0
VERTEX
  8
0
 10
306.594
 20
99.0315
 30
0.0
 40
0
 41
0
  0
VERTEX
  8
0
 10
306.606
 20
99.0606
 30
0.0
 40
0
 41
0
  0
VERTEX
  8
0
 10
306.618
 20
99.0883
 30
0.0
 40
0
 41
0
  0
VERTEX
  8
0
 10
306.632
 20
99.1147
 30
0.0
 40
0
 41
0
  0
VERTEX
  8
0
 10
306.647
 20
99.14
 30
0.0
 40
0
 41
0
  0
VERTEX
  8
0
 10
306.664
 20
99.164
 30
0.0
 40
0
 41
0
  0
VERTEX
  8
0
 10
306.682
 20
99.1867
 30
0.0
 40
0
 41
0
  0
VERTEX
  8
0
 10
306.701
 20
99.2079
 30
0.0
 40
0
 41
0
  0
VERTEX
  8
0
 10
306.724
 20
99.2278
 30
0.0
 40
0
 41
0
  0
VERTEX
  8
0
 10
306.747
 20
99.2464
 30
0.0
 40
0
 41
0
  0
VERTEX
  8
0
 10
306.772
 20
99.2635
 30
0.0
 40
0
 41
0
  0
VERTEX
  8
0
 10
306.799
 20
99.2793
 30
0.0
 40
0
 41
0
  0
VERTEX
  8
0
 10
306.826
 20
99.2937
 30
0.0
 40
0
 41
0
  0
VERTEX
  8
0
 10
306.856
 20
99.3068
 30
0.0
 40
0
 41
0
  0
VERTEX
  8
0
 10
306.856
 20
99.3197
 30
0.0
 40
0
 41
0
  0
VERTEX
  8
0
 10
306.84
 20
99.3285
 30
0.0
 40
0
 41
0
  0
VERTEX
  8
0
 10
306.826
 20
99.3374
 30
0.0
 40
0
 41
0
  0
VERTEX
  8
0
 10
306.813
 20
99.3467
 30
0.0
 40
0
 41
0
  0
VERTEX
  8
0
 10
306.799
 20
99.3562
 30
0.0
 40
0
 41
0
  0
VERTEX
  8
0
 10
306.785
 20
99.3661
 30
0.0
 40
0
 41
0
  0
VERTEX
  8
0
 10
306.772
 20
99.3764
 30
0.0
 40
0
 41
0
  0
VERTEX
  8
0
 10
306.76
 20
99.3869
 30
0.0
 40
0
 41
0
  0
VERTEX
  8
0
 10
306.747
 20
99.3979
 30
0.0
 40
0
 41
0
  0
VERTEX
  8
0
 10
306.735
 20
99.4092
 30
0.0
 40
0
 41
0
  0
VERTEX
  8
0
 10
306.724
 20
99.4207
 30
0.0
 40
0
 41
0
  0
VERTEX
  8
0
 10
306.714
 20
99.4328
 30
0.0
 40
0
 41
0
  0
VERTEX
  8
0
 10
306.703
 20
99.4451
 30
0.0
 40
0
 41
0
  0
VERTEX
  8
0
 10
306.693
 20
99.4576
 30
0.0
 40
0
 41
0
  0
VERTEX
  8
0
 10
306.683
 20
99.4704
 30
0.0
 40
0
 41
0
  0
VERTEX
  8
0
 10
306.674
 20
99.4833
 30
0.0
 40
0
 41
0
  0
VERTEX
  8
0
 10
306.665
 20
99.4965
 30
0.0
 40
0
 41
0
  0
VERTEX
  8
0
 10
306.657
 20
99.5097
 30
0.0
 40
0
 41
0
  0
VERTEX
  8
0
 10
306.649
 20
99.5233
 30
0.0
 40
0
 41
0
  0
VERTEX
  8
0
 10
306.64
 20
99.5369
 30
0.0
 40
0
 41
0
  0
VERTEX
  8
0
 10
306.633
 20
99.551
 30
0.0
 40
0
 41
0
  0
VERTEX
  8
0
 10
306.626
 20
99.5653
 30
0.0
 40
0
 41
0
  0
VERTEX
  8
0
 10
306.619
 20
99.5799
 30
0.0
 40
0
 41
0
  0
VERTEX
  8
0
 10
306.612
 20
99.5944
 30
0.0
 40
0
 41
0
  0
VERTEX
  8
0
 10
306.606
 20
99.6093
 30
0.0
 40
0
 41
0
  0
VERTEX
  8
0
 10
306.6
 20
99.6242
 30
0.0
 40
0
 41
0
  0
VERTEX
  8
0
 10
306.594
 20
99.6392
 30
0.0
 40
0
 41
0
  0
VERTEX
  8
0
 10
306.59
 20
99.6543
 30
0.0
 40
0
 41
0
  0
VERTEX
  8
0
 10
306.586
 20
99.6697
 30
0.0
 40
0
 41
0
  0
VERTEX
  8
0
 10
306.582
 20
99.6851
 30
0.0
 40
0
 41
0
  0
VERTEX
  8
0
 10
306.578
 20
99.7007
 30
0.0
 40
0
 41
0
  0
VERTEX
  8
0
 10
306.574
 20
99.7162
 30
0.0
 40
0
 41
0
  0
VERTEX
  8
0
 10
306.571
 20
99.7321
 30
0.0
 40
0
 41
0
  0
VERTEX
  8
0
 10
306.568
 20
99.7478
 30
0.0
 40
0
 41
0
  0
VERTEX
  8
0
 10
306.567
 20
99.7636
 30
0.0
 40
0
 41
0
  0
VERTEX
  8
0
 10
306.564
 20
99.7796
 30
0.0
 40
0
 41
0
  0
VERTEX
  8
0
 10
306.563
 20
99.7956
 30
0.0
 40
0
 41
0
  0
VERTEX
  8
0
 10
306.561
 20
99.8117
 30
0.0
 40
0
 41
0
  0
VERTEX
  8
0
 10
306.56
 20
99.8278
 30
0.0
 40
0
 41
0
  0
VERTEX
  8
0
 10
306.56
 20
99.8439
 30
0.0
 40
0
 41
0
  0
VERTEX
  8
0
 10
306.56
 20
99.8601
 30
0.0
 40
0
 41
0
  0
VERTEX
  8
0
 10
306.561
 20
99.9157
 30
0.0
 40
0
 41
0
  0
VERTEX
  8
0
 10
306.567
 20
99.9685
 30
0.0
 40
0
 41
0
  0
VERTEX
  8
0
 10
306.574
 20
100.018
 30
0.0
 40
0
 41
0
  0
VERTEX
  8
0
 10
306.585
 20
100.065
 30
0.0
 40
0
 41
0
  0
VERTEX
  8
0
 10
306.599
 20
100.11
 30
0.0
 40
0
 41
0
  0
VERTEX
  8
0
 10
306.615
 20
100.151
 30
0.0
 40
0
 41
0
  0
VERTEX
  8
0
 10
306.636
 20
100.19
 30
0.0
 40
0
 41
0
  0
VERTEX
  8
0
 10
306.66
 20
100.225
 30
0.0
 40
0
 41
0
  0
VERTEX
  8
0
 10
306.686
 20
100.258
 30
0.0
 40
0
 41
0
  0
VERTEX
  8
0
 10
306.717
 20
100.288
 30
0.0
 40
0
 41
0
  0
VERTEX
  8
0
 10
306.749
 20
100.316
 30
0.0
 40
0
 41
0
  0
VERTEX
  8
0
 10
306.785
 20
100.34
 30
0.0
 40
0
 41
0
  0
VERTEX
  8
0
 10
306.825
 20
100.362
 30
0.0
 40
0
 41
0
  0
VERTEX
  8
0
 10
306.869
 20
100.381
 30
0.0
 40
0
 41
0
  0
VERTEX
  8
0
 10
306.918
 20
100.397
 30
0.0
 40
0
 41
0
  0
VERTEX
  8
0
 10
306.969
 20
100.41
 30
0.0
 40
0
 41
0
  0
VERTEX
  8
0
 10
307.024
 20
100.42
 30
0.0
 40
0
 41
0
  0
VERTEX
  8
0
 10
307.083
 20
100.427
 30
0.0
 40
0
 41
0
  0
VERTEX
  8
0
 10
307.146
 20
100.432
 30
0.0
 40
0
 41
0
  0
VERTEX
  8
0
 10
307.213
 20
100.433
 30
0.0
 40
0
 41
0
  0
VERTEX
  8
0
 10
308.379
 20
100.433
 30
0.0
 40
0
 41
0
  0
VERTEX
  8
0
 10
308.379
 20
100.137
 30
0.0
 40
0
 41
0
  0
SEQEND
 8
0
  0
ENDSEC
  0
EOF
