  0
SECTION
  2
HEADER
  9
$ACADVER
  1
AC1009
  9
$EXTMIN
 10
0.0
 20
0.0
 30
0.0
  9
$EXTMAX
 10
1000.0
 20
1000.0
 30
0.0
  9
$FILLMODE
 70
 0
  9
$SPLFRAME
 70
 1
  0
ENDSEC
  0
SECTION
  2
TABLES
  0
TABLE
  2
LAYER
 70
1
  0
LAYER
  2
0
 70
     0
 62
     7
  6
CONTINUOUS
  0
ENDTAB
  0
ENDSEC
  0
SECTION
  2
ENTITIES
  0
POLYLINE
  8
0
 62
     0
 66
     1
 10
0
 20
0
 30
0.0
 70
     1
 40
0
 41
0
  0
VERTEX
  8
0
 10
45.4
 20
166.26
 30
0.0
 40
0
 41
0
  0
VERTEX
  8
0
 10
45.3606
 20
167.515
 30
0.0
 40
0
 41
0
  0
VERTEX
  8
0
 10
45.2422
 20
168.765
 30
0.0
 40
0
 41
0
  0
VERTEX
  8
0
 10
45.0457
 20
170.007
 30
0.0
 40
0
 41
0
  0
VERTEX
  8
0
 10
44.7717
 20
171.233
 30
0.0
 40
0
 41
0
  0
VERTEX
  8
0
 10
44.4211
 20
172.439
 30
0.0
 40
0
 41
0
  0
VERTEX
  8
0
 10
43.9956
 20
173.622
 30
0.0
 40
0
 41
0
  0
VERTEX
  8
0
 10
43.4965
 20
174.775
 30
0.0
 40
0
 41
0
  0
VERTEX
  8
0
 10
42.9261
 20
175.894
 30
0.0
 40
0
 41
0
  0
VERTEX
  8
0
 10
42.2865
 20
176.976
 30
0.0
 40
0
 41
0
  0
VERTEX
  8
0
 10
41.5803
 20
178.015
 30
0.0
 40
0
 41
0
  0
VERTEX
  8
0
 10
40.8103
 20
179.008
 30
0.0
 40
0
 41
0
  0
VERTEX
  8
0
 10
39.9793
 20
179.95
 30
0.0
 40
0
 41
0
  0
VERTEX
  8
0
 10
39.091
 20
180.839
 30
0.0
 40
0
 41
0
  0
VERTEX
  8
0
 10
38.1485
 20
181.669
 30
0.0
 40
0
 41
0
  0
VERTEX
  8
0
 10
37.1557
 20
182.439
 30
0.0
 40
0
 41
0
  0
VERTEX
  8
0
 10
36.1165
 20
183.146
 30
0.0
 40
0
 41
0
  0
VERTEX
  8
0
 10
35.035
 20
183.785
 30
0.0
 40
0
 41
0
  0
VERTEX
  8
0
 10
33.9156
 20
184.356
 30
0.0
 40
0
 41
0
  0
VERTEX
  8
0
 10
32.7625
 20
184.854
 30
0.0
 40
0
 41
0
  0
VERTEX
  8
0
 10
31.5803
 20
185.281
 30
0.0
 40
0
 41
0
  0
VERTEX
  8
0
 10
30.3737
 20
185.631
 30
0.0
 40
0
 41
0
  0
VERTEX
  8
0
 10
29.1476
 20
185.904
 30
0.0
 40
0
 41
0
  0
VERTEX
  8
0
 10
27.9067
 20
186.101
 30
0.0
 40
0
 41
0
  0
VERTEX
  8
0
 10
26.6558
 20
186.219
 30
0.0
 40
0
 41
0
  0
VERTEX
  8
0
 10
25.4
 20
186.26
 30
0.0
 40
0
 41
0
  0
VERTEX
  8
0
 10
24.1442
 20
186.219
 30
0.0
 40
0
 41
0
  0
VERTEX
  8
0
 10
22.8933
 20
186.101
 30
0.0
 40
0
 41
0
  0
VERTEX
  8
0
 10
21.6524
 20
185.904
 30
0.0
 40
0
 41
0
  0
VERTEX
  8
0
 10
20.4262
 20
185.631
 30
0.0
 40
0
 41
0
  0
VERTEX
  8
0
 10
19.2196
 20
185.281
 30
0.0
 40
0
 41
0
  0
VERTEX
  8
0
 10
18.0375
 20
184.854
 30
0.0
 40
0
 41
0
  0
VERTEX
  8
0
 10
16.8844
 20
184.356
 30
0.0
 40
0
 41
0
  0
VERTEX
  8
0
 10
15.7649
 20
183.785
 30
0.0
 40
0
 41
0
  0
VERTEX
  8
0
 10
14.6835
 20
183.146
 30
0.0
 40
0
 41
0
  0
VERTEX
  8
0
 10
13.6443
 20
182.439
 30
0.0
 40
0
 41
0
  0
VERTEX
  8
0
 10
12.6515
 20
181.669
 30
0.0
 40
0
 41
0
  0
VERTEX
  8
0
 10
11.709
 20
180.839
 30
0.0
 40
0
 41
0
  0
VERTEX
  8
0
 10
10.8205
 20
179.95
 30
0.0
 40
0
 41
0
  0
VERTEX
  8
0
 10
9.98975
 20
179.008
 30
0.0
 40
0
 41
0
  0
VERTEX
  8
0
 10
9.21957
 20
178.015
 30
0.0
 40
0
 41
0
  0
VERTEX
  8
0
 10
8.51346
 20
176.976
 30
0.0
 40
0
 41
0
  0
VERTEX
  8
0
 10
7.87392
 20
175.894
 30
0.0
 40
0
 41
0
  0
VERTEX
  8
0
 10
7.3035
 20
174.775
 30
0.0
 40
0
 41
0
  0
VERTEX
  8
0
 10
6.80447
 20
173.622
 30
0.0
 40
0
 41
0
  0
VERTEX
  8
0
 10
6.3789
 20
172.439
 30
0.0
 40
0
 41
0
  0
VERTEX
  8
0
 10
6.02832
 20
171.233
 30
0.0
 40
0
 41
0
  0
VERTEX
  8
0
 10
5.75429
 20
170.007
 30
0.0
 40
0
 41
0
  0
VERTEX
  8
0
 10
5.55761
 20
168.765
 30
0.0
 40
0
 41
0
  0
VERTEX
  8
0
 10
5.43946
 20
167.515
 30
0.0
 40
0
 41
0
  0
VERTEX
  8
0
 10
5.40001
 20
166.26
 30
0.0
 40
0
 41
0
  0
VERTEX
  8
0
 10
5.43946
 20
165.003
 30
0.0
 40
0
 41
0
  0
VERTEX
  8
0
 10
5.55761
 20
163.753
 30
0.0
 40
0
 41
0
  0
VERTEX
  8
0
 10
5.75429
 20
162.511
 30
0.0
 40
0
 41
0
  0
VERTEX
  8
0
 10
6.02832
 20
161.286
 30
0.0
 40
0
 41
0
  0
VERTEX
  8
0
 10
6.3789
 20
160.079
 30
0.0
 40
0
 41
0
  0
VERTEX
  8
0
 10
6.80447
 20
158.897
 30
0.0
 40
0
 41
0
  0
VERTEX
  8
0
 10
7.3035
 20
157.743
 30
0.0
 40
0
 41
0
  0
VERTEX
  8
0
 10
7.87392
 20
156.624
 30
0.0
 40
0
 41
0
  0
VERTEX
  8
0
 10
8.51346
 20
155.543
 30
0.0
 40
0
 41
0
  0
VERTEX
  8
0
 10
9.21957
 20
154.504
 30
0.0
 40
0
 41
0
  0
VERTEX
  8
0
 10
9.98975
 20
153.511
 30
0.0
 40
0
 41
0
  0
VERTEX
  8
0
 10
10.8205
 20
152.568
 30
0.0
 40
0
 41
0
  0
VERTEX
  8
0
 10
11.709
 20
151.679
 30
0.0
 40
0
 41
0
  0
VERTEX
  8
0
 10
12.6515
 20
150.849
 30
0.0
 40
0
 41
0
  0
VERTEX
  8
0
 10
13.6443
 20
150.079
 30
0.0
 40
0
 41
0
  0
VERTEX
  8
0
 10
14.6835
 20
149.372
 30
0.0
 40
0
 41
0
  0
VERTEX
  8
0
 10
15.7649
 20
148.733
 30
0.0
 40
0
 41
0
  0
VERTEX
  8
0
 10
16.8844
 20
148.163
 30
0.0
 40
0
 41
0
  0
VERTEX
  8
0
 10
18.0375
 20
147.664
 30
0.0
 40
0
 41
0
  0
VERTEX
  8
0
 10
19.2196
 20
147.237
 30
0.0
 40
0
 41
0
  0
VERTEX
  8
0
 10
20.4262
 20
146.888
 30
0.0
 40
0
 41
0
  0
VERTEX
  8
0
 10
21.6524
 20
146.614
 30
0.0
 40
0
 41
0
  0
VERTEX
  8
0
 10
22.8933
 20
146.417
 30
0.0
 40
0
 41
0
  0
VERTEX
  8
0
 10
24.1442
 20
146.299
 30
0.0
 40
0
 41
0
  0
VERTEX
  8
0
 10
25.4
 20
146.26
 30
0.0
 40
0
 41
0
  0
VERTEX
  8
0
 10
26.6558
 20
146.299
 30
0.0
 40
0
 41
0
  0
VERTEX
  8
0
 10
27.9067
 20
146.417
 30
0.0
 40
0
 41
0
  0
VERTEX
  8
0
 10
29.1476
 20
146.614
 30
0.0
 40
0
 41
0
  0
VERTEX
  8
0
 10
30.3737
 20
146.888
 30
0.0
 40
0
 41
0
  0
VERTEX
  8
0
 10
31.5803
 20
147.237
 30
0.0
 40
0
 41
0
  0
VERTEX
  8
0
 10
32.7625
 20
147.664
 30
0.0
 40
0
 41
0
  0
VERTEX
  8
0
 10
33.9156
 20
148.163
 30
0.0
 40
0
 41
0
  0
VERTEX
  8
0
 10
35.035
 20
148.733
 30
0.0
 40
0
 41
0
  0
VERTEX
  8
0
 10
36.1165
 20
149.372
 30
0.0
 40
0
 41
0
  0
VERTEX
  8
0
 10
37.1557
 20
150.079
 30
0.0
 40
0
 41
0
  0
VERTEX
  8
0
 10
38.1485
 20
150.849
 30
0.0
 40
0
 41
0
  0
VERTEX
  8
0
 10
39.091
 20
151.679
 30
0.0
 40
0
 41
0
  0
VERTEX
  8
0
 10
39.9793
 20
152.568
 30
0.0
 40
0
 41
0
  0
VERTEX
  8
0
 10
40.8103
 20
153.511
 30
0.0
 40
0
 41
0
  0
VERTEX
  8
0
 10
41.5803
 20
154.504
 30
0.0
 40
0
 41
0
  0
VERTEX
  8
0
 10
42.2865
 20
155.543
 30
0.0
 40
0
 41
0
  0
VERTEX
  8
0
 10
42.9261
 20
156.624
 30
0.0
 40
0
 41
0
  0
VERTEX
  8
0
 10
43.4965
 20
157.743
 30
0.0
 40
0
 41
0
  0
VERTEX
  8
0
 10
43.9956
 20
158.897
 30
0.0
 40
0
 41
0
  0
VERTEX
  8
0
 10
44.4211
 20
160.079
 30
0.0
 40
0
 41
0
  0
VERTEX
  8
0
 10
44.7717
 20
161.286
 30
0.0
 40
0
 41
0
  0
VERTEX
  8
0
 10
45.0457
 20
162.511
 30
0.0
 40
0
 41
0
  0
VERTEX
  8
0
 10
45.2422
 20
163.753
 30
0.0
 40
0
 41
0
  0
VERTEX
  8
0
 10
45.3606
 20
165.003
 30
0.0
 40
0
 41
0
  0
VERTEX
  8
0
 10
45.4
 20
166.26
 30
0.0
 40
0
 41
0
  0
SEQEND
 8
0
  0
POLYLINE
  8
0
 62
     0
 66
     1
 10
0
 20
0
 30
0.0
 70
     1
 40
0.75
 41
0.75
  0
VERTEX
  8
0
 10
45.4
 20
166.26
 30
0.0
 40
0.0104167
 41
0.0104167
  0
VERTEX
  8
0
 10
45.3606
 20
167.515
 30
0.0
 40
0.0104167
 41
0.0104167
  0
VERTEX
  8
0
 10
45.2422
 20
168.765
 30
0.0
 40
0.0104167
 41
0.0104167
  0
VERTEX
  8
0
 10
45.0457
 20
170.007
 30
0.0
 40
0.0104167
 41
0.0104167
  0
VERTEX
  8
0
 10
44.7717
 20
171.233
 30
0.0
 40
0.0104167
 41
0.0104167
  0
VERTEX
  8
0
 10
44.4211
 20
172.439
 30
0.0
 40
0.0104167
 41
0.0104167
  0
VERTEX
  8
0
 10
43.9956
 20
173.622
 30
0.0
 40
0.0104167
 41
0.0104167
  0
VERTEX
  8
0
 10
43.4965
 20
174.775
 30
0.0
 40
0.0104167
 41
0.0104167
  0
VERTEX
  8
0
 10
42.9261
 20
175.894
 30
0.0
 40
0.0104167
 41
0.0104167
  0
VERTEX
  8
0
 10
42.2865
 20
176.976
 30
0.0
 40
0.0104167
 41
0.0104167
  0
VERTEX
  8
0
 10
41.5803
 20
178.015
 30
0.0
 40
0.0104167
 41
0.0104167
  0
VERTEX
  8
0
 10
40.8103
 20
179.008
 30
0.0
 40
0.0104167
 41
0.0104167
  0
VERTEX
  8
0
 10
39.9793
 20
179.95
 30
0.0
 40
0.0104167
 41
0.0104167
  0
VERTEX
  8
0
 10
39.091
 20
180.839
 30
0.0
 40
0.0104167
 41
0.0104167
  0
VERTEX
  8
0
 10
38.1485
 20
181.669
 30
0.0
 40
0.0104167
 41
0.0104167
  0
VERTEX
  8
0
 10
37.1557
 20
182.439
 30
0.0
 40
0.0104167
 41
0.0104167
  0
VERTEX
  8
0
 10
36.1165
 20
183.146
 30
0.0
 40
0.0104167
 41
0.0104167
  0
VERTEX
  8
0
 10
35.035
 20
183.785
 30
0.0
 40
0.0104167
 41
0.0104167
  0
VERTEX
  8
0
 10
33.9156
 20
184.356
 30
0.0
 40
0.0104167
 41
0.0104167
  0
VERTEX
  8
0
 10
32.7625
 20
184.854
 30
0.0
 40
0.0104167
 41
0.0104167
  0
VERTEX
  8
0
 10
31.5803
 20
185.281
 30
0.0
 40
0.0104167
 41
0.0104167
  0
VERTEX
  8
0
 10
30.3737
 20
185.631
 30
0.0
 40
0.0104167
 41
0.0104167
  0
VERTEX
  8
0
 10
29.1476
 20
185.904
 30
0.0
 40
0.0104167
 41
0.0104167
  0
VERTEX
  8
0
 10
27.9067
 20
186.101
 30
0.0
 40
0.0104167
 41
0.0104167
  0
VERTEX
  8
0
 10
26.6558
 20
186.219
 30
0.0
 40
0.0104167
 41
0.0104167
  0
VERTEX
  8
0
 10
25.4
 20
186.26
 30
0.0
 40
0.0104167
 41
0.0104167
  0
VERTEX
  8
0
 10
24.1442
 20
186.219
 30
0.0
 40
0.0104167
 41
0.0104167
  0
VERTEX
  8
0
 10
22.8933
 20
186.101
 30
0.0
 40
0.0104167
 41
0.0104167
  0
VERTEX
  8
0
 10
21.6524
 20
185.904
 30
0.0
 40
0.0104167
 41
0.0104167
  0
VERTEX
  8
0
 10
20.4262
 20
185.631
 30
0.0
 40
0.0104167
 41
0.0104167
  0
VERTEX
  8
0
 10
19.2196
 20
185.281
 30
0.0
 40
0.0104167
 41
0.0104167
  0
VERTEX
  8
0
 10
18.0375
 20
184.854
 30
0.0
 40
0.0104167
 41
0.0104167
  0
VERTEX
  8
0
 10
16.8844
 20
184.356
 30
0.0
 40
0.0104167
 41
0.0104167
  0
VERTEX
  8
0
 10
15.7649
 20
183.785
 30
0.0
 40
0.0104167
 41
0.0104167
  0
VERTEX
  8
0
 10
14.6835
 20
183.146
 30
0.0
 40
0.0104167
 41
0.0104167
  0
VERTEX
  8
0
 10
13.6443
 20
182.439
 30
0.0
 40
0.0104167
 41
0.0104167
  0
VERTEX
  8
0
 10
12.6515
 20
181.669
 30
0.0
 40
0.0104167
 41
0.0104167
  0
VERTEX
  8
0
 10
11.709
 20
180.839
 30
0.0
 40
0.0104167
 41
0.0104167
  0
VERTEX
  8
0
 10
10.8205
 20
179.95
 30
0.0
 40
0.0104167
 41
0.0104167
  0
VERTEX
  8
0
 10
9.98975
 20
179.008
 30
0.0
 40
0.0104167
 41
0.0104167
  0
VERTEX
  8
0
 10
9.21957
 20
178.015
 30
0.0
 40
0.0104167
 41
0.0104167
  0
VERTEX
  8
0
 10
8.51346
 20
176.976
 30
0.0
 40
0.0104167
 41
0.0104167
  0
VERTEX
  8
0
 10
7.87392
 20
175.894
 30
0.0
 40
0.0104167
 41
0.0104167
  0
VERTEX
  8
0
 10
7.3035
 20
174.775
 30
0.0
 40
0.0104167
 41
0.0104167
  0
VERTEX
  8
0
 10
6.80447
 20
173.622
 30
0.0
 40
0.0104167
 41
0.0104167
  0
VERTEX
  8
0
 10
6.3789
 20
172.439
 30
0.0
 40
0.0104167
 41
0.0104167
  0
VERTEX
  8
0
 10
6.02832
 20
171.233
 30
0.0
 40
0.0104167
 41
0.0104167
  0
VERTEX
  8
0
 10
5.75429
 20
170.007
 30
0.0
 40
0.0104167
 41
0.0104167
  0
VERTEX
  8
0
 10
5.55761
 20
168.765
 30
0.0
 40
0.0104167
 41
0.0104167
  0
VERTEX
  8
0
 10
5.43946
 20
167.515
 30
0.0
 40
0.0104167
 41
0.0104167
  0
VERTEX
  8
0
 10
5.40001
 20
166.26
 30
0.0
 40
0.0104167
 41
0.0104167
  0
VERTEX
  8
0
 10
5.43946
 20
165.003
 30
0.0
 40
0.0104167
 41
0.0104167
  0
VERTEX
  8
0
 10
5.55761
 20
163.753
 30
0.0
 40
0.0104167
 41
0.0104167
  0
VERTEX
  8
0
 10
5.75429
 20
162.511
 30
0.0
 40
0.0104167
 41
0.0104167
  0
VERTEX
  8
0
 10
6.02832
 20
161.286
 30
0.0
 40
0.0104167
 41
0.0104167
  0
VERTEX
  8
0
 10
6.3789
 20
160.079
 30
0.0
 40
0.0104167
 41
0.0104167
  0
VERTEX
  8
0
 10
6.80447
 20
158.897
 30
0.0
 40
0.0104167
 41
0.0104167
  0
VERTEX
  8
0
 10
7.3035
 20
157.743
 30
0.0
 40
0.0104167
 41
0.0104167
  0
VERTEX
  8
0
 10
7.87392
 20
156.624
 30
0.0
 40
0.0104167
 41
0.0104167
  0
VERTEX
  8
0
 10
8.51346
 20
155.543
 30
0.0
 40
0.0104167
 41
0.0104167
  0
VERTEX
  8
0
 10
9.21957
 20
154.504
 30
0.0
 40
0.0104167
 41
0.0104167
  0
VERTEX
  8
0
 10
9.98975
 20
153.511
 30
0.0
 40
0.0104167
 41
0.0104167
  0
VERTEX
  8
0
 10
10.8205
 20
152.568
 30
0.0
 40
0.0104167
 41
0.0104167
  0
VERTEX
  8
0
 10
11.709
 20
151.679
 30
0.0
 40
0.0104167
 41
0.0104167
  0
VERTEX
  8
0
 10
12.6515
 20
150.849
 30
0.0
 40
0.0104167
 41
0.0104167
  0
VERTEX
  8
0
 10
13.6443
 20
150.079
 30
0.0
 40
0.0104167
 41
0.0104167
  0
VERTEX
  8
0
 10
14.6835
 20
149.372
 30
0.0
 40
0.0104167
 41
0.0104167
  0
VERTEX
  8
0
 10
15.7649
 20
148.733
 30
0.0
 40
0.0104167
 41
0.0104167
  0
VERTEX
  8
0
 10
16.8844
 20
148.163
 30
0.0
 40
0.0104167
 41
0.0104167
  0
VERTEX
  8
0
 10
18.0375
 20
147.664
 30
0.0
 40
0.0104167
 41
0.0104167
  0
VERTEX
  8
0
 10
19.2196
 20
147.237
 30
0.0
 40
0.0104167
 41
0.0104167
  0
VERTEX
  8
0
 10
20.4262
 20
146.888
 30
0.0
 40
0.0104167
 41
0.0104167
  0
VERTEX
  8
0
 10
21.6524
 20
146.614
 30
0.0
 40
0.0104167
 41
0.0104167
  0
VERTEX
  8
0
 10
22.8933
 20
146.417
 30
0.0
 40
0.0104167
 41
0.0104167
  0
VERTEX
  8
0
 10
24.1442
 20
146.299
 30
0.0
 40
0.0104167
 41
0.0104167
  0
VERTEX
  8
0
 10
25.4
 20
146.26
 30
0.0
 40
0.0104167
 41
0.0104167
  0
VERTEX
  8
0
 10
26.6558
 20
146.299
 30
0.0
 40
0.0104167
 41
0.0104167
  0
VERTEX
  8
0
 10
27.9067
 20
146.417
 30
0.0
 40
0.0104167
 41
0.0104167
  0
VERTEX
  8
0
 10
29.1476
 20
146.614
 30
0.0
 40
0.0104167
 41
0.0104167
  0
VERTEX
  8
0
 10
30.3737
 20
146.888
 30
0.0
 40
0.0104167
 41
0.0104167
  0
VERTEX
  8
0
 10
31.5803
 20
147.237
 30
0.0
 40
0.0104167
 41
0.0104167
  0
VERTEX
  8
0
 10
32.7625
 20
147.664
 30
0.0
 40
0.0104167
 41
0.0104167
  0
VERTEX
  8
0
 10
33.9156
 20
148.163
 30
0.0
 40
0.0104167
 41
0.0104167
  0
VERTEX
  8
0
 10
35.035
 20
148.733
 30
0.0
 40
0.0104167
 41
0.0104167
  0
VERTEX
  8
0
 10
36.1165
 20
149.372
 30
0.0
 40
0.0104167
 41
0.0104167
  0
VERTEX
  8
0
 10
37.1557
 20
150.079
 30
0.0
 40
0.0104167
 41
0.0104167
  0
VERTEX
  8
0
 10
38.1485
 20
150.849
 30
0.0
 40
0.0104167
 41
0.0104167
  0
VERTEX
  8
0
 10
39.091
 20
151.679
 30
0.0
 40
0.0104167
 41
0.0104167
  0
VERTEX
  8
0
 10
39.9793
 20
152.568
 30
0.0
 40
0.0104167
 41
0.0104167
  0
VERTEX
  8
0
 10
40.8103
 20
153.511
 30
0.0
 40
0.0104167
 41
0.0104167
  0
VERTEX
  8
0
 10
41.5803
 20
154.504
 30
0.0
 40
0.0104167
 41
0.0104167
  0
VERTEX
  8
0
 10
42.2865
 20
155.543
 30
0.0
 40
0.0104167
 41
0.0104167
  0
VERTEX
  8
0
 10
42.9261
 20
156.624
 30
0.0
 40
0.0104167
 41
0.0104167
  0
VERTEX
  8
0
 10
43.4965
 20
157.743
 30
0.0
 40
0.0104167
 41
0.0104167
  0
VERTEX
  8
0
 10
43.9956
 20
158.897
 30
0.0
 40
0.0104167
 41
0.0104167
  0
VERTEX
  8
0
 10
44.4211
 20
160.079
 30
0.0
 40
0.0104167
 41
0.0104167
  0
VERTEX
  8
0
 10
44.7717
 20
161.286
 30
0.0
 40
0.0104167
 41
0.0104167
  0
VERTEX
  8
0
 10
45.0457
 20
162.511
 30
0.0
 40
0.0104167
 41
0.0104167
  0
VERTEX
  8
0
 10
45.2422
 20
163.753
 30
0.0
 40
0.0104167
 41
0.0104167
  0
VERTEX
  8
0
 10
45.3606
 20
165.003
 30
0.0
 40
0.0104167
 41
0.0104167
  0
VERTEX
  8
0
 10
45.4
 20
166.26
 30
0.0
 40
0.0104167
 41
0.0104167
  0
SEQEND
 8
0
  0
POLYLINE
  8
0
 62
     0
 66
     1
 10
0
 20
0
 30
0.0
 70
     1
 40
0
 41
0
  0
VERTEX
  8
0
 10
45.4
 20
32.7
 30
0.0
 40
0
 41
0
  0
VERTEX
  8
0
 10
45.3606
 20
33.9558
 30
0.0
 40
0
 41
0
  0
VERTEX
  8
0
 10
45.2422
 20
35.2067
 30
0.0
 40
0
 41
0
  0
VERTEX
  8
0
 10
45.0457
 20
36.4476
 30
0.0
 40
0
 41
0
  0
VERTEX
  8
0
 10
44.7717
 20
37.6738
 30
0.0
 40
0
 41
0
  0
VERTEX
  8
0
 10
44.4211
 20
38.8803
 30
0.0
 40
0
 41
0
  0
VERTEX
  8
0
 10
43.9956
 20
40.0625
 30
0.0
 40
0
 41
0
  0
VERTEX
  8
0
 10
43.4965
 20
41.2156
 30
0.0
 40
0
 41
0
  0
VERTEX
  8
0
 10
42.9261
 20
42.335
 30
0.0
 40
0
 41
0
  0
VERTEX
  8
0
 10
42.2865
 20
43.4165
 30
0.0
 40
0
 41
0
  0
VERTEX
  8
0
 10
41.5803
 20
44.4557
 30
0.0
 40
0
 41
0
  0
VERTEX
  8
0
 10
40.8103
 20
45.4485
 30
0.0
 40
0
 41
0
  0
VERTEX
  8
0
 10
39.9793
 20
46.391
 30
0.0
 40
0
 41
0
  0
VERTEX
  8
0
 10
39.091
 20
47.2793
 30
0.0
 40
0
 41
0
  0
VERTEX
  8
0
 10
38.1485
 20
48.1103
 30
0.0
 40
0
 41
0
  0
VERTEX
  8
0
 10
37.1557
 20
48.8803
 30
0.0
 40
0
 41
0
  0
VERTEX
  8
0
 10
36.1165
 20
49.5865
 30
0.0
 40
0
 41
0
  0
VERTEX
  8
0
 10
35.035
 20
50.2261
 30
0.0
 40
0
 41
0
  0
VERTEX
  8
0
 10
33.9156
 20
50.7965
 30
0.0
 40
0
 41
0
  0
VERTEX
  8
0
 10
32.7625
 20
51.2956
 30
0.0
 40
0
 41
0
  0
VERTEX
  8
0
 10
31.5803
 20
51.7211
 30
0.0
 40
0
 41
0
  0
VERTEX
  8
0
 10
30.3737
 20
52.0717
 30
0.0
 40
0
 41
0
  0
VERTEX
  8
0
 10
29.1476
 20
52.3457
 30
0.0
 40
0
 41
0
  0
VERTEX
  8
0
 10
27.9067
 20
52.5422
 30
0.0
 40
0
 41
0
  0
VERTEX
  8
0
 10
26.6558
 20
52.6606
 30
0.0
 40
0
 41
0
  0
VERTEX
  8
0
 10
25.4
 20
52.7
 30
0.0
 40
0
 41
0
  0
VERTEX
  8
0
 10
24.1442
 20
52.6606
 30
0.0
 40
0
 41
0
  0
VERTEX
  8
0
 10
22.8933
 20
52.5422
 30
0.0
 40
0
 41
0
  0
VERTEX
  8
0
 10
21.6524
 20
52.3457
 30
0.0
 40
0
 41
0
  0
VERTEX
  8
0
 10
20.4262
 20
52.0717
 30
0.0
 40
0
 41
0
  0
VERTEX
  8
0
 10
19.2196
 20
51.7211
 30
0.0
 40
0
 41
0
  0
VERTEX
  8
0
 10
18.0375
 20
51.2956
 30
0.0
 40
0
 41
0
  0
VERTEX
  8
0
 10
16.8844
 20
50.7965
 30
0.0
 40
0
 41
0
  0
VERTEX
  8
0
 10
15.7649
 20
50.2261
 30
0.0
 40
0
 41
0
  0
VERTEX
  8
0
 10
14.6835
 20
49.5865
 30
0.0
 40
0
 41
0
  0
VERTEX
  8
0
 10
13.6443
 20
48.8803
 30
0.0
 40
0
 41
0
  0
VERTEX
  8
0
 10
12.6515
 20
48.1103
 30
0.0
 40
0
 41
0
  0
VERTEX
  8
0
 10
11.709
 20
47.2793
 30
0.0
 40
0
 41
0
  0
VERTEX
  8
0
 10
10.8205
 20
46.391
 30
0.0
 40
0
 41
0
  0
VERTEX
  8
0
 10
9.98975
 20
45.4485
 30
0.0
 40
0
 41
0
  0
VERTEX
  8
0
 10
9.21957
 20
44.4557
 30
0.0
 40
0
 41
0
  0
VERTEX
  8
0
 10
8.51346
 20
43.4165
 30
0.0
 40
0
 41
0
  0
VERTEX
  8
0
 10
7.87392
 20
42.335
 30
0.0
 40
0
 41
0
  0
VERTEX
  8
0
 10
7.3035
 20
41.2156
 30
0.0
 40
0
 41
0
  0
VERTEX
  8
0
 10
6.80447
 20
40.0625
 30
0.0
 40
0
 41
0
  0
VERTEX
  8
0
 10
6.3789
 20
38.8803
 30
0.0
 40
0
 41
0
  0
VERTEX
  8
0
 10
6.02832
 20
37.6738
 30
0.0
 40
0
 41
0
  0
VERTEX
  8
0
 10
5.75429
 20
36.4476
 30
0.0
 40
0
 41
0
  0
VERTEX
  8
0
 10
5.55761
 20
35.2067
 30
0.0
 40
0
 41
0
  0
VERTEX
  8
0
 10
5.43946
 20
33.9558
 30
0.0
 40
0
 41
0
  0
VERTEX
  8
0
 10
5.40001
 20
32.7
 30
0.0
 40
0
 41
0
  0
VERTEX
  8
0
 10
5.43946
 20
31.4442
 30
0.0
 40
0
 41
0
  0
VERTEX
  8
0
 10
5.55761
 20
30.1933
 30
0.0
 40
0
 41
0
  0
VERTEX
  8
0
 10
5.75429
 20
28.9524
 30
0.0
 40
0
 41
0
  0
VERTEX
  8
0
 10
6.02832
 20
27.7263
 30
0.0
 40
0
 41
0
  0
VERTEX
  8
0
 10
6.3789
 20
26.5197
 30
0.0
 40
0
 41
0
  0
VERTEX
  8
0
 10
6.80447
 20
25.3375
 30
0.0
 40
0
 41
0
  0
VERTEX
  8
0
 10
7.3035
 20
24.1844
 30
0.0
 40
0
 41
0
  0
VERTEX
  8
0
 10
7.87392
 20
23.0649
 30
0.0
 40
0
 41
0
  0
VERTEX
  8
0
 10
8.51346
 20
21.9835
 30
0.0
 40
0
 41
0
  0
VERTEX
  8
0
 10
9.21957
 20
20.9443
 30
0.0
 40
0
 41
0
  0
VERTEX
  8
0
 10
9.98975
 20
19.9515
 30
0.0
 40
0
 41
0
  0
VERTEX
  8
0
 10
10.8205
 20
19.009
 30
0.0
 40
0
 41
0
  0
VERTEX
  8
0
 10
11.709
 20
18.1206
 30
0.0
 40
0
 41
0
  0
VERTEX
  8
0
 10
12.6515
 20
17.2897
 30
0.0
 40
0
 41
0
  0
VERTEX
  8
0
 10
13.6443
 20
16.5197
 30
0.0
 40
0
 41
0
  0
VERTEX
  8
0
 10
14.6835
 20
15.8135
 30
0.0
 40
0
 41
0
  0
VERTEX
  8
0
 10
15.7649
 20
15.1739
 30
0.0
 40
0
 41
0
  0
VERTEX
  8
0
 10
16.8844
 20
14.6035
 30
0.0
 40
0
 41
0
  0
VERTEX
  8
0
 10
18.0375
 20
14.1044
 30
0.0
 40
0
 41
0
  0
VERTEX
  8
0
 10
19.2196
 20
13.6789
 30
0.0
 40
0
 41
0
  0
VERTEX
  8
0
 10
20.4262
 20
13.3283
 30
0.0
 40
0
 41
0
  0
VERTEX
  8
0
 10
21.6524
 20
13.0543
 30
0.0
 40
0
 41
0
  0
VERTEX
  8
0
 10
22.8933
 20
12.8576
 30
0.0
 40
0
 41
0
  0
VERTEX
  8
0
 10
24.1442
 20
12.7394
 30
0.0
 40
0
 41
0
  0
VERTEX
  8
0
 10
25.4
 20
12.7
 30
0.0
 40
0
 41
0
  0
VERTEX
  8
0
 10
26.6558
 20
12.7394
 30
0.0
 40
0
 41
0
  0
VERTEX
  8
0
 10
27.9067
 20
12.8576
 30
0.0
 40
0
 41
0
  0
VERTEX
  8
0
 10
29.1476
 20
13.0543
 30
0.0
 40
0
 41
0
  0
VERTEX
  8
0
 10
30.3737
 20
13.3283
 30
0.0
 40
0
 41
0
  0
VERTEX
  8
0
 10
31.5803
 20
13.6789
 30
0.0
 40
0
 41
0
  0
VERTEX
  8
0
 10
32.7625
 20
14.1044
 30
0.0
 40
0
 41
0
  0
VERTEX
  8
0
 10
33.9156
 20
14.6035
 30
0.0
 40
0
 41
0
  0
VERTEX
  8
0
 10
35.035
 20
15.1739
 30
0.0
 40
0
 41
0
  0
VERTEX
  8
0
 10
36.1165
 20
15.8135
 30
0.0
 40
0
 41
0
  0
VERTEX
  8
0
 10
37.1557
 20
16.5197
 30
0.0
 40
0
 41
0
  0
VERTEX
  8
0
 10
38.1485
 20
17.2897
 30
0.0
 40
0
 41
0
  0
VERTEX
  8
0
 10
39.091
 20
18.1206
 30
0.0
 40
0
 41
0
  0
VERTEX
  8
0
 10
39.9793
 20
19.009
 30
0.0
 40
0
 41
0
  0
VERTEX
  8
0
 10
40.8103
 20
19.9515
 30
0.0
 40
0
 41
0
  0
VERTEX
  8
0
 10
41.5803
 20
20.9443
 30
0.0
 40
0
 41
0
  0
VERTEX
  8
0
 10
42.2865
 20
21.9835
 30
0.0
 40
0
 41
0
  0
VERTEX
  8
0
 10
42.9261
 20
23.0649
 30
0.0
 40
0
 41
0
  0
VERTEX
  8
0
 10
43.4965
 20
24.1844
 30
0.0
 40
0
 41
0
  0
VERTEX
  8
0
 10
43.9956
 20
25.3375
 30
0.0
 40
0
 41
0
  0
VERTEX
  8
0
 10
44.4211
 20
26.5197
 30
0.0
 40
0
 41
0
  0
VERTEX
  8
0
 10
44.7717
 20
27.7263
 30
0.0
 40
0
 41
0
  0
VERTEX
  8
0
 10
45.0457
 20
28.9524
 30
0.0
 40
0
 41
0
  0
VERTEX
  8
0
 10
45.2422
 20
30.1933
 30
0.0
 40
0
 41
0
  0
VERTEX
  8
0
 10
45.3606
 20
31.4442
 30
0.0
 40
0
 41
0
  0
VERTEX
  8
0
 10
45.4
 20
32.7
 30
0.0
 40
0
 41
0
  0
SEQEND
 8
0
  0
POLYLINE
  8
0
 62
     0
 66
     1
 10
0
 20
0
 30
0.0
 70
     1
 40
0.75
 41
0.75
  0
VERTEX
  8
0
 10
45.4
 20
32.7
 30
0.0
 40
0.0104167
 41
0.0104167
  0
VERTEX
  8
0
 10
45.3606
 20
33.9558
 30
0.0
 40
0.0104167
 41
0.0104167
  0
VERTEX
  8
0
 10
45.2422
 20
35.2067
 30
0.0
 40
0.0104167
 41
0.0104167
  0
VERTEX
  8
0
 10
45.0457
 20
36.4476
 30
0.0
 40
0.0104167
 41
0.0104167
  0
VERTEX
  8
0
 10
44.7717
 20
37.6738
 30
0.0
 40
0.0104167
 41
0.0104167
  0
VERTEX
  8
0
 10
44.4211
 20
38.8803
 30
0.0
 40
0.0104167
 41
0.0104167
  0
VERTEX
  8
0
 10
43.9956
 20
40.0625
 30
0.0
 40
0.0104167
 41
0.0104167
  0
VERTEX
  8
0
 10
43.4965
 20
41.2156
 30
0.0
 40
0.0104167
 41
0.0104167
  0
VERTEX
  8
0
 10
42.9261
 20
42.335
 30
0.0
 40
0.0104167
 41
0.0104167
  0
VERTEX
  8
0
 10
42.2865
 20
43.4165
 30
0.0
 40
0.0104167
 41
0.0104167
  0
VERTEX
  8
0
 10
41.5803
 20
44.4557
 30
0.0
 40
0.0104167
 41
0.0104167
  0
VERTEX
  8
0
 10
40.8103
 20
45.4485
 30
0.0
 40
0.0104167
 41
0.0104167
  0
VERTEX
  8
0
 10
39.9793
 20
46.391
 30
0.0
 40
0.0104167
 41
0.0104167
  0
VERTEX
  8
0
 10
39.091
 20
47.2793
 30
0.0
 40
0.0104167
 41
0.0104167
  0
VERTEX
  8
0
 10
38.1485
 20
48.1103
 30
0.0
 40
0.0104167
 41
0.0104167
  0
VERTEX
  8
0
 10
37.1557
 20
48.8803
 30
0.0
 40
0.0104167
 41
0.0104167
  0
VERTEX
  8
0
 10
36.1165
 20
49.5865
 30
0.0
 40
0.0104167
 41
0.0104167
  0
VERTEX
  8
0
 10
35.035
 20
50.2261
 30
0.0
 40
0.0104167
 41
0.0104167
  0
VERTEX
  8
0
 10
33.9156
 20
50.7965
 30
0.0
 40
0.0104167
 41
0.0104167
  0
VERTEX
  8
0
 10
32.7625
 20
51.2956
 30
0.0
 40
0.0104167
 41
0.0104167
  0
VERTEX
  8
0
 10
31.5803
 20
51.7211
 30
0.0
 40
0.0104167
 41
0.0104167
  0
VERTEX
  8
0
 10
30.3737
 20
52.0717
 30
0.0
 40
0.0104167
 41
0.0104167
  0
VERTEX
  8
0
 10
29.1476
 20
52.3457
 30
0.0
 40
0.0104167
 41
0.0104167
  0
VERTEX
  8
0
 10
27.9067
 20
52.5422
 30
0.0
 40
0.0104167
 41
0.0104167
  0
VERTEX
  8
0
 10
26.6558
 20
52.6606
 30
0.0
 40
0.0104167
 41
0.0104167
  0
VERTEX
  8
0
 10
25.4
 20
52.7
 30
0.0
 40
0.0104167
 41
0.0104167
  0
VERTEX
  8
0
 10
24.1442
 20
52.6606
 30
0.0
 40
0.0104167
 41
0.0104167
  0
VERTEX
  8
0
 10
22.8933
 20
52.5422
 30
0.0
 40
0.0104167
 41
0.0104167
  0
VERTEX
  8
0
 10
21.6524
 20
52.3457
 30
0.0
 40
0.0104167
 41
0.0104167
  0
VERTEX
  8
0
 10
20.4262
 20
52.0717
 30
0.0
 40
0.0104167
 41
0.0104167
  0
VERTEX
  8
0
 10
19.2196
 20
51.7211
 30
0.0
 40
0.0104167
 41
0.0104167
  0
VERTEX
  8
0
 10
18.0375
 20
51.2956
 30
0.0
 40
0.0104167
 41
0.0104167
  0
VERTEX
  8
0
 10
16.8844
 20
50.7965
 30
0.0
 40
0.0104167
 41
0.0104167
  0
VERTEX
  8
0
 10
15.7649
 20
50.2261
 30
0.0
 40
0.0104167
 41
0.0104167
  0
VERTEX
  8
0
 10
14.6835
 20
49.5865
 30
0.0
 40
0.0104167
 41
0.0104167
  0
VERTEX
  8
0
 10
13.6443
 20
48.8803
 30
0.0
 40
0.0104167
 41
0.0104167
  0
VERTEX
  8
0
 10
12.6515
 20
48.1103
 30
0.0
 40
0.0104167
 41
0.0104167
  0
VERTEX
  8
0
 10
11.709
 20
47.2793
 30
0.0
 40
0.0104167
 41
0.0104167
  0
VERTEX
  8
0
 10
10.8205
 20
46.391
 30
0.0
 40
0.0104167
 41
0.0104167
  0
VERTEX
  8
0
 10
9.98975
 20
45.4485
 30
0.0
 40
0.0104167
 41
0.0104167
  0
VERTEX
  8
0
 10
9.21957
 20
44.4557
 30
0.0
 40
0.0104167
 41
0.0104167
  0
VERTEX
  8
0
 10
8.51346
 20
43.4165
 30
0.0
 40
0.0104167
 41
0.0104167
  0
VERTEX
  8
0
 10
7.87392
 20
42.335
 30
0.0
 40
0.0104167
 41
0.0104167
  0
VERTEX
  8
0
 10
7.3035
 20
41.2156
 30
0.0
 40
0.0104167
 41
0.0104167
  0
VERTEX
  8
0
 10
6.80447
 20
40.0625
 30
0.0
 40
0.0104167
 41
0.0104167
  0
VERTEX
  8
0
 10
6.3789
 20
38.8803
 30
0.0
 40
0.0104167
 41
0.0104167
  0
VERTEX
  8
0
 10
6.02832
 20
37.6738
 30
0.0
 40
0.0104167
 41
0.0104167
  0
VERTEX
  8
0
 10
5.75429
 20
36.4476
 30
0.0
 40
0.0104167
 41
0.0104167
  0
VERTEX
  8
0
 10
5.55761
 20
35.2067
 30
0.0
 40
0.0104167
 41
0.0104167
  0
VERTEX
  8
0
 10
5.43946
 20
33.9558
 30
0.0
 40
0.0104167
 41
0.0104167
  0
VERTEX
  8
0
 10
5.40001
 20
32.7
 30
0.0
 40
0.0104167
 41
0.0104167
  0
VERTEX
  8
0
 10
5.43946
 20
31.4442
 30
0.0
 40
0.0104167
 41
0.0104167
  0
VERTEX
  8
0
 10
5.55761
 20
30.1933
 30
0.0
 40
0.0104167
 41
0.0104167
  0
VERTEX
  8
0
 10
5.75429
 20
28.9524
 30
0.0
 40
0.0104167
 41
0.0104167
  0
VERTEX
  8
0
 10
6.02832
 20
27.7263
 30
0.0
 40
0.0104167
 41
0.0104167
  0
VERTEX
  8
0
 10
6.3789
 20
26.5197
 30
0.0
 40
0.0104167
 41
0.0104167
  0
VERTEX
  8
0
 10
6.80447
 20
25.3375
 30
0.0
 40
0.0104167
 41
0.0104167
  0
VERTEX
  8
0
 10
7.3035
 20
24.1844
 30
0.0
 40
0.0104167
 41
0.0104167
  0
VERTEX
  8
0
 10
7.87392
 20
23.0649
 30
0.0
 40
0.0104167
 41
0.0104167
  0
VERTEX
  8
0
 10
8.51346
 20
21.9835
 30
0.0
 40
0.0104167
 41
0.0104167
  0
VERTEX
  8
0
 10
9.21957
 20
20.9443
 30
0.0
 40
0.0104167
 41
0.0104167
  0
VERTEX
  8
0
 10
9.98975
 20
19.9515
 30
0.0
 40
0.0104167
 41
0.0104167
  0
VERTEX
  8
0
 10
10.8205
 20
19.009
 30
0.0
 40
0.0104167
 41
0.0104167
  0
VERTEX
  8
0
 10
11.709
 20
18.1206
 30
0.0
 40
0.0104167
 41
0.0104167
  0
VERTEX
  8
0
 10
12.6515
 20
17.2897
 30
0.0
 40
0.0104167
 41
0.0104167
  0
VERTEX
  8
0
 10
13.6443
 20
16.5197
 30
0.0
 40
0.0104167
 41
0.0104167
  0
VERTEX
  8
0
 10
14.6835
 20
15.8135
 30
0.0
 40
0.0104167
 41
0.0104167
  0
VERTEX
  8
0
 10
15.7649
 20
15.1739
 30
0.0
 40
0.0104167
 41
0.0104167
  0
VERTEX
  8
0
 10
16.8844
 20
14.6035
 30
0.0
 40
0.0104167
 41
0.0104167
  0
VERTEX
  8
0
 10
18.0375
 20
14.1044
 30
0.0
 40
0.0104167
 41
0.0104167
  0
VERTEX
  8
0
 10
19.2196
 20
13.6789
 30
0.0
 40
0.0104167
 41
0.0104167
  0
VERTEX
  8
0
 10
20.4262
 20
13.3283
 30
0.0
 40
0.0104167
 41
0.0104167
  0
VERTEX
  8
0
 10
21.6524
 20
13.0543
 30
0.0
 40
0.0104167
 41
0.0104167
  0
VERTEX
  8
0
 10
22.8933
 20
12.8576
 30
0.0
 40
0.0104167
 41
0.0104167
  0
VERTEX
  8
0
 10
24.1442
 20
12.7394
 30
0.0
 40
0.0104167
 41
0.0104167
  0
VERTEX
  8
0
 10
25.4
 20
12.7
 30
0.0
 40
0.0104167
 41
0.0104167
  0
VERTEX
  8
0
 10
26.6558
 20
12.7394
 30
0.0
 40
0.0104167
 41
0.0104167
  0
VERTEX
  8
0
 10
27.9067
 20
12.8576
 30
0.0
 40
0.0104167
 41
0.0104167
  0
VERTEX
  8
0
 10
29.1476
 20
13.0543
 30
0.0
 40
0.0104167
 41
0.0104167
  0
VERTEX
  8
0
 10
30.3737
 20
13.3283
 30
0.0
 40
0.0104167
 41
0.0104167
  0
VERTEX
  8
0
 10
31.5803
 20
13.6789
 30
0.0
 40
0.0104167
 41
0.0104167
  0
VERTEX
  8
0
 10
32.7625
 20
14.1044
 30
0.0
 40
0.0104167
 41
0.0104167
  0
VERTEX
  8
0
 10
33.9156
 20
14.6035
 30
0.0
 40
0.0104167
 41
0.0104167
  0
VERTEX
  8
0
 10
35.035
 20
15.1739
 30
0.0
 40
0.0104167
 41
0.0104167
  0
VERTEX
  8
0
 10
36.1165
 20
15.8135
 30
0.0
 40
0.0104167
 41
0.0104167
  0
VERTEX
  8
0
 10
37.1557
 20
16.5197
 30
0.0
 40
0.0104167
 41
0.0104167
  0
VERTEX
  8
0
 10
38.1485
 20
17.2897
 30
0.0
 40
0.0104167
 41
0.0104167
  0
VERTEX
  8
0
 10
39.091
 20
18.1206
 30
0.0
 40
0.0104167
 41
0.0104167
  0
VERTEX
  8
0
 10
39.9793
 20
19.009
 30
0.0
 40
0.0104167
 41
0.0104167
  0
VERTEX
  8
0
 10
40.8103
 20
19.9515
 30
0.0
 40
0.0104167
 41
0.0104167
  0
VERTEX
  8
0
 10
41.5803
 20
20.9443
 30
0.0
 40
0.0104167
 41
0.0104167
  0
VERTEX
  8
0
 10
42.2865
 20
21.9835
 30
0.0
 40
0.0104167
 41
0.0104167
  0
VERTEX
  8
0
 10
42.9261
 20
23.0649
 30
0.0
 40
0.0104167
 41
0.0104167
  0
VERTEX
  8
0
 10
43.4965
 20
24.1844
 30
0.0
 40
0.0104167
 41
0.0104167
  0
VERTEX
  8
0
 10
43.9956
 20
25.3375
 30
0.0
 40
0.0104167
 41
0.0104167
  0
VERTEX
  8
0
 10
44.4211
 20
26.5197
 30
0.0
 40
0.0104167
 41
0.0104167
  0
VERTEX
  8
0
 10
44.7717
 20
27.7263
 30
0.0
 40
0.0104167
 41
0.0104167
  0
VERTEX
  8
0
 10
45.0457
 20
28.9524
 30
0.0
 40
0.0104167
 41
0.0104167
  0
VERTEX
  8
0
 10
45.2422
 20
30.1933
 30
0.0
 40
0.0104167
 41
0.0104167
  0
VERTEX
  8
0
 10
45.3606
 20
31.4442
 30
0.0
 40
0.0104167
 41
0.0104167
  0
VERTEX
  8
0
 10
45.4
 20
32.7
 30
0.0
 40
0.0104167
 41
0.0104167
  0
SEQEND
 8
0
  0
POLYLINE
  8
0
 62
     0
 66
     1
 10
0
 20
0
 30
0.0
 70
     1
 40
0
 41
0
  0
VERTEX
  8
0
 10
15.4
 20
166.26
 30
0.0
 40
0
 41
0
  0
VERTEX
  8
0
 10
35.4
 20
166.26
 30
0.0
 40
0
 41
0
  0
VERTEX
  8
0
 10
35.4
 20
117.619
 30
0.0
 40
0
 41
0
  0
VERTEX
  8
0
 10
15.4
 20
117.619
 30
0.0
 40
0
 41
0
  0
VERTEX
  8
0
 10
15.4
 20
166.26
 30
0.0
 40
0
 41
0
  0
SEQEND
 8
0
  0
POLYLINE
  8
0
 62
     0
 66
     1
 10
0
 20
0
 30
0.0
 70
     1
 40
0
 41
0
  0
VERTEX
  8
0
 10
15.4
 20
82.74
 30
0.0
 40
0
 41
0
  0
VERTEX
  8
0
 10
35.4
 20
82.74
 30
0.0
 40
0
 41
0
  0
VERTEX
  8
0
 10
35.4
 20
32.7
 30
0.0
 40
0
 41
0
  0
VERTEX
  8
0
 10
15.4
 20
32.7
 30
0.0
 40
0
 41
0
  0
VERTEX
  8
0
 10
15.4
 20
82.74
 30
0.0
 40
0
 41
0
  0
SEQEND
 8
0
  0
POLYLINE
  8
0
 62
     0
 66
     1
 10
0
 20
0
 30
0.0
 70
     1
 40
0
 41
0
  0
VERTEX
  8
0
 10
15.4
 20
117.659
 30
0.0
 40
0
 41
0
  0
VERTEX
  8
0
 10
35.4
 20
117.659
 30
0.0
 40
0
 41
0
  0
VERTEX
  8
0
 10
24.7
 20
115.659
 30
0.0
 40
0
 41
0
  0
VERTEX
  8
0
 10
26.1
 20
115.659
 30
0.0
 40
0
 41
0
  0
VERTEX
  8
0
 10
15.4
 20
117.659
 30
0.0
 40
0
 41
0
  0
SEQEND
 8
0
  0
POLYLINE
  8
0
 62
     0
 66
     1
 10
0
 20
0
 30
0.0
 70
     1
 40
0
 41
0
  0
VERTEX
  8
0
 10
24.7
 20
117.659
 30
0.0
 40
0
 41
0
  0
VERTEX
  8
0
 10
26.1
 20
117.659
 30
0.0
 40
0
 41
0
  0
VERTEX
  8
0
 10
26.1
 20
114.259
 30
0.0
 40
0
 41
0
  0
VERTEX
  8
0
 10
24.7
 20
114.259
 30
0.0
 40
0
 41
0
  0
VERTEX
  8
0
 10
24.7
 20
117.659
 30
0.0
 40
0
 41
0
  0
SEQEND
 8
0
  0
POLYLINE
  8
0
 62
     0
 66
     1
 10
0
 20
0
 30
0.0
 70
     1
 40
0
 41
0
  0
VERTEX
  8
0
 10
15.4
 20
82.7
 30
0.0
 40
0
 41
0
  0
VERTEX
  8
0
 10
35.4
 20
82.7
 30
0.0
 40
0
 41
0
  0
VERTEX
  8
0
 10
24.7
 20
84.7
 30
0.0
 40
0
 41
0
  0
VERTEX
  8
0
 10
26.1
 20
84.7
 30
0.0
 40
0
 41
0
  0
VERTEX
  8
0
 10
15.4
 20
82.7
 30
0.0
 40
0
 41
0
  0
SEQEND
 8
0
  0
POLYLINE
  8
0
 62
     0
 66
     1
 10
0
 20
0
 30
0.0
 70
     1
 40
0
 41
0
  0
VERTEX
  8
0
 10
24.7
 20
86.1
 30
0.0
 40
0
 41
0
  0
VERTEX
  8
0
 10
26.1
 20
86.1
 30
0.0
 40
0
 41
0
  0
VERTEX
  8
0
 10
26.1
 20
82.7
 30
0.0
 40
0
 41
0
  0
VERTEX
  8
0
 10
24.7
 20
82.7
 30
0.0
 40
0
 41
0
  0
VERTEX
  8
0
 10
24.7
 20
86.1
 30
0.0
 40
0
 41
0
  0
SEQEND
 8
0
  0
POLYLINE
  8
0
 62
     0
 66
     1
 10
0
 20
0
 30
0.0
 70
     1
 40
0
 41
0
  0
VERTEX
  8
0
 10
25.4
 20
84.7
 30
0.0
 40
0
 41
0
  0
VERTEX
  8
0
 10
25.0904
 20
84.7526
 30
0.0
 40
0
 41
0
  0
VERTEX
  8
0
 10
24.7832
 20
84.8118
 30
0.0
 40
0
 41
0
  0
VERTEX
  8
0
 10
24.4782
 20
84.8774
 30
0.0
 40
0
 41
0
  0
VERTEX
  8
0
 10
24.1757
 20
84.9492
 30
0.0
 40
0
 41
0
  0
VERTEX
  8
0
 10
23.8758
 20
85.0272
 30
0.0
 40
0
 41
0
  0
VERTEX
  8
0
 10
23.5788
 20
85.1115
 30
0.0
 40
0
 41
0
  0
VERTEX
  8
0
 10
23.2844
 20
85.2019
 30
0.0
 40
0
 41
0
  0
VERTEX
  8
0
 10
22.9932
 20
85.2982
 30
0.0
 40
0
 41
0
  0
VERTEX
  8
0
 10
22.705
 20
85.4004
 30
0.0
 40
0
 41
0
  0
VERTEX
  8
0
 10
22.4201
 20
85.5086
 30
0.0
 40
0
 41
0
  0
VERTEX
  8
0
 10
22.1385
 20
85.6224
 30
0.0
 40
0
 41
0
  0
VERTEX
  8
0
 10
21.8604
 20
85.7418
 30
0.0
 40
0
 41
0
  0
VERTEX
  8
0
 10
21.5858
 20
85.8668
 30
0.0
 40
0
 41
0
  0
VERTEX
  8
0
 10
21.315
 20
85.9972
 30
0.0
 40
0
 41
0
  0
VERTEX
  8
0
 10
21.0479
 20
86.1331
 30
0.0
 40
0
 41
0
  0
VERTEX
  8
0
 10
20.7847
 20
86.2742
 30
0.0
 40
0
 41
0
  0
VERTEX
  8
0
 10
20.5256
 20
86.4203
 30
0.0
 40
0
 41
0
  0
VERTEX
  8
0
 10
20.2706
 20
86.5715
 30
0.0
 40
0
 41
0
  0
VERTEX
  8
0
 10
20.0196
 20
86.7278
 30
0.0
 40
0
 41
0
  0
VERTEX
  8
0
 10
19.7731
 20
86.8888
 30
0.0
 40
0
 41
0
  0
VERTEX
  8
0
 10
19.5308
 20
87.0544
 30
0.0
 40
0
 41
0
  0
VERTEX
  8
0
 10
19.2931
 20
87.2247
 30
0.0
 40
0
 41
0
  0
VERTEX
  8
0
 10
19.0599
 20
87.3996
 30
0.0
 40
0
 41
0
  0
VERTEX
  8
0
 10
18.8314
 20
87.5787
 30
0.0
 40
0
 41
0
  0
VERTEX
  8
0
 10
18.6075
 20
87.7621
 30
0.0
 40
0
 41
0
  0
VERTEX
  8
0
 10
18.3885
 20
87.9497
 30
0.0
 40
0
 41
0
  0
VERTEX
  8
0
 10
18.1743
 20
88.1412
 30
0.0
 40
0
 41
0
  0
VERTEX
  8
0
 10
17.9651
 20
88.3367
 30
0.0
 40
0
 41
0
  0
VERTEX
  8
0
 10
17.761
 20
88.536
 30
0.0
 40
0
 41
0
  0
VERTEX
  8
0
 10
17.5618
 20
88.7387
 30
0.0
 40
0
 41
0
  0
VERTEX
  8
0
 10
17.3678
 20
88.9451
 30
0.0
 40
0
 41
0
  0
VERTEX
  8
0
 10
17.179
 20
89.155
 30
0.0
 40
0
 41
0
  0
VERTEX
  8
0
 10
16.9956
 20
89.3679
 30
0.0
 40
0
 41
0
  0
VERTEX
  8
0
 10
16.8172
 20
89.5842
 30
0.0
 40
0
 41
0
  0
VERTEX
  8
0
 10
16.6444
 20
89.8033
 30
0.0
 40
0
 41
0
  0
VERTEX
  8
0
 10
16.4769
 20
90.0254
 30
0.0
 40
0
 41
0
  0
VERTEX
  8
0
 10
16.3149
 20
90.2501
 30
0.0
 40
0
 41
0
  0
VERTEX
  8
0
 10
16.1585
 20
90.4776
 30
0.0
 40
0
 41
0
  0
VERTEX
  8
0
 10
16.0074
 20
90.7075
 30
0.0
 40
0
 41
0
  0
VERTEX
  8
0
 10
15.8619
 20
90.9399
 30
0.0
 40
0
 41
0
  0
VERTEX
  8
0
 10
15.7222
 20
91.1743
 30
0.0
 40
0
 41
0
  0
VERTEX
  8
0
 10
15.5879
 20
91.4108
 30
0.0
 40
0
 41
0
  0
VERTEX
  8
0
 10
15.4594
 20
91.6494
 30
0.0
 40
0
 41
0
  0
VERTEX
  8
0
 10
15.3365
 20
91.8897
 30
0.0
 40
0
 41
0
  0
VERTEX
  8
0
 10
15.2194
 20
92.1318
 30
0.0
 40
0
 41
0
  0
VERTEX
  8
0
 10
15.1079
 20
92.3754
 30
0.0
 40
0
 41
0
  0
VERTEX
  8
0
 10
15.0022
 20
92.6206
 30
0.0
 40
0
 41
0
  0
VERTEX
  8
0
 10
14.9022
 20
92.8668
 30
0.0
 40
0
 41
0
  0
VERTEX
  8
0
 10
14.8079
 20
93.1143
 30
0.0
 40
0
 41
0
  0
VERTEX
  8
0
 10
14.7194
 20
93.3629
 30
0.0
 40
0
 41
0
  0
VERTEX
  8
0
 10
14.6367
 20
93.6124
 30
0.0
 40
0
 41
0
  0
VERTEX
  8
0
 10
14.5596
 20
93.8625
 30
0.0
 40
0
 41
0
  0
VERTEX
  8
0
 10
14.4883
 20
94.1133
 30
0.0
 40
0
 41
0
  0
VERTEX
  8
0
 10
14.4228
 20
94.3647
 30
0.0
 40
0
 41
0
  0
VERTEX
  8
0
 10
14.3629
 20
94.6164
 30
0.0
 40
0
 41
0
  0
VERTEX
  8
0
 10
14.3089
 20
94.8685
 30
0.0
 40
0
 41
0
  0
VERTEX
  8
0
 10
14.2604
 20
95.1206
 30
0.0
 40
0
 41
0
  0
VERTEX
  8
0
 10
14.2176
 20
95.3725
 30
0.0
 40
0
 41
0
  0
VERTEX
  8
0
 10
14.1806
 20
95.6244
 30
0.0
 40
0
 41
0
  0
VERTEX
  8
0
 10
14.1492
 20
95.8761
 30
0.0
 40
0
 41
0
  0
VERTEX
  8
0
 10
14.1233
 20
96.1275
 30
0.0
 40
0
 41
0
  0
VERTEX
  8
0
 10
14.1031
 20
96.3782
 30
0.0
 40
0
 41
0
  0
VERTEX
  8
0
 10
14.0883
 20
96.6283
 30
0.0
 40
0
 41
0
  0
VERTEX
  8
0
 10
14.079
 20
96.8778
 30
0.0
 40
0
 41
0
  0
VERTEX
  8
0
 10
14.0753
 20
97.1262
 30
0.0
 40
0
 41
0
  0
VERTEX
  8
0
 10
14.0769
 20
97.3738
 30
0.0
 40
0
 41
0
  0
VERTEX
  8
0
 10
14.0839
 20
97.6201
 30
0.0
 40
0
 41
0
  0
VERTEX
  8
0
 10
14.0963
 20
97.8654
 30
0.0
 40
0
 41
0
  0
VERTEX
  8
0
 10
14.114
 20
98.1092
 30
0.0
 40
0
 41
0
  0
VERTEX
  8
0
 10
14.1368
 20
98.3515
 30
0.0
 40
0
 41
0
  0
VERTEX
  8
0
 10
14.1649
 20
98.5924
 30
0.0
 40
0
 41
0
  0
VERTEX
  8
0
 10
14.1981
 20
98.8315
 30
0.0
 40
0
 41
0
  0
VERTEX
  8
0
 10
14.2364
 20
99.0689
 30
0.0
 40
0
 41
0
  0
VERTEX
  8
0
 10
14.2796
 20
99.3043
 30
0.0
 40
0
 41
0
  0
VERTEX
  8
0
 10
14.3278
 20
99.5378
 30
0.0
 40
0
 41
0
  0
VERTEX
  8
0
 10
14.3808
 20
99.769
 30
0.0
 40
0
 41
0
  0
VERTEX
  8
0
 10
14.4387
 20
99.9982
 30
0.0
 40
0
 41
0
  0
VERTEX
  8
0
 10
14.5014
 20
100.225
 30
0.0
 40
0
 41
0
  0
VERTEX
  8
0
 10
14.5687
 20
100.449
 30
0.0
 40
0
 41
0
  0
VERTEX
  8
0
 10
14.6406
 20
100.671
 30
0.0
 40
0
 41
0
  0
VERTEX
  8
0
 10
14.7171
 20
100.891
 30
0.0
 40
0
 41
0
  0
VERTEX
  8
0
 10
14.7979
 20
101.108
 30
0.0
 40
0
 41
0
  0
VERTEX
  8
0
 10
14.8832
 20
101.321
 30
0.0
 40
0
 41
0
  0
VERTEX
  8
0
 10
14.9726
 20
101.532
 30
0.0
 40
0
 41
0
  0
VERTEX
  8
0
 10
15.0664
 20
101.74
 30
0.0
 40
0
 41
0
  0
VERTEX
  8
0
 10
15.1642
 20
101.946
 30
0.0
 40
0
 41
0
  0
VERTEX
  8
0
 10
15.2661
 20
102.148
 30
0.0
 40
0
 41
0
  0
VERTEX
  8
0
 10
15.3719
 20
102.346
 30
0.0
 40
0
 41
0
  0
VERTEX
  8
0
 10
15.4817
 20
102.542
 30
0.0
 40
0
 41
0
  0
VERTEX
  8
0
 10
15.595
 20
102.734
 30
0.0
 40
0
 41
0
  0
VERTEX
  8
0
 10
15.7122
 20
102.923
 30
0.0
 40
0
 41
0
  0
VERTEX
  8
0
 10
15.8329
 20
103.108
 30
0.0
 40
0
 41
0
  0
VERTEX
  8
0
 10
15.9571
 20
103.29
 30
0.0
 40
0
 41
0
  0
VERTEX
  8
0
 10
16.0847
 20
103.468
 30
0.0
 40
0
 41
0
  0
VERTEX
  8
0
 10
16.2156
 20
103.642
 30
0.0
 40
0
 41
0
  0
VERTEX
  8
0
 10
16.3496
 20
103.813
 30
0.0
 40
0
 41
0
  0
VERTEX
  8
0
 10
16.4868
 20
103.98
 30
0.0
 40
0
 41
0
  0
VERTEX
  8
0
 10
16.6269
 20
104.143
 30
0.0
 40
0
 41
0
  0
VERTEX
  8
0
 10
16.77
 20
104.302
 30
0.0
 40
0
 41
0
  0
VERTEX
  8
0
 10
16.916
 20
104.457
 30
0.0
 40
0
 41
0
  0
VERTEX
  8
0
 10
17.0644
 20
104.609
 30
0.0
 40
0
 41
0
  0
VERTEX
  8
0
 10
17.2157
 20
104.756
 30
0.0
 40
0
 41
0
  0
VERTEX
  8
0
 10
17.3693
 20
104.899
 30
0.0
 40
0
 41
0
  0
VERTEX
  8
0
 10
17.5253
 20
105.038
 30
0.0
 40
0
 41
0
  0
VERTEX
  8
0
 10
17.6836
 20
105.173
 30
0.0
 40
0
 41
0
  0
VERTEX
  8
0
 10
17.8442
 20
105.304
 30
0.0
 40
0
 41
0
  0
VERTEX
  8
0
 10
18.0067
 20
105.43
 30
0.0
 40
0
 41
0
  0
VERTEX
  8
0
 10
18.1712
 20
105.552
 30
0.0
 40
0
 41
0
  0
VERTEX
  8
0
 10
18.3375
 20
105.67
 30
0.0
 40
0
 41
0
  0
VERTEX
  8
0
 10
18.5057
 20
105.784
 30
0.0
 40
0
 41
0
  0
VERTEX
  8
0
 10
18.6754
 20
105.893
 30
0.0
 40
0
 41
0
  0
VERTEX
  8
0
 10
18.8468
 20
105.998
 30
0.0
 40
0
 41
0
  0
VERTEX
  8
0
 10
19.0194
 20
106.099
 30
0.0
 40
0
 41
0
  0
VERTEX
  8
0
 10
19.1935
 20
106.195
 30
0.0
 40
0
 41
0
  0
VERTEX
  8
0
 10
19.3688
 20
106.287
 30
0.0
 40
0
 41
0
  0
VERTEX
  8
0
 10
19.5451
 20
106.375
 30
0.0
 40
0
 41
0
  0
VERTEX
  8
0
 10
19.7225
 20
106.458
 30
0.0
 40
0
 41
0
  0
VERTEX
  8
0
 10
19.9008
 20
106.537
 30
0.0
 40
0
 41
0
  0
VERTEX
  8
0
 10
20.0799
 20
106.611
 30
0.0
 40
0
 41
0
  0
VERTEX
  8
0
 10
20.2596
 20
106.681
 30
0.0
 40
0
 41
0
  0
VERTEX
  8
0
 10
20.44
 20
106.747
 30
0.0
 40
0
 41
0
  0
VERTEX
  8
0
 10
20.6207
 20
106.808
 30
0.0
 40
0
 41
0
  0
VERTEX
  8
0
 10
20.8019
 20
106.865
 30
0.0
 40
0
 41
0
  0
VERTEX
  8
0
 10
20.9833
 20
106.917
 30
0.0
 40
0
 41
0
  0
VERTEX
  8
0
 10
21.165
 20
106.966
 30
0.0
 40
0
 41
0
  0
VERTEX
  8
0
 10
21.3467
 20
107.009
 30
0.0
 40
0
 41
0
  0
VERTEX
  8
0
 10
21.5282
 20
107.049
 30
0.0
 40
0
 41
0
  0
VERTEX
  8
0
 10
21.7097
 20
107.084
 30
0.0
 40
0
 41
0
  0
VERTEX
  8
0
 10
21.891
 20
107.115
 30
0.0
 40
0
 41
0
  0
VERTEX
  8
0
 10
22.0718
 20
107.142
 30
0.0
 40
0
 41
0
  0
VERTEX
  8
0
 10
22.2524
 20
107.164
 30
0.0
 40
0
 41
0
  0
VERTEX
  8
0
 10
22.4322
 20
107.183
 30
0.0
 40
0
 41
0
  0
VERTEX
  8
0
 10
22.6115
 20
107.197
 30
0.0
 40
0
 41
0
  0
VERTEX
  8
0
 10
22.7901
 20
107.207
 30
0.0
 40
0
 41
0
  0
VERTEX
  8
0
 10
22.9679
 20
107.213
 30
0.0
 40
0
 41
0
  0
VERTEX
  8
0
 10
23.1449
 20
107.215
 30
0.0
 40
0
 41
0
  0
VERTEX
  8
0
 10
23.3207
 20
107.213
 30
0.0
 40
0
 41
0
  0
VERTEX
  8
0
 10
23.4954
 20
107.207
 30
0.0
 40
0
 41
0
  0
VERTEX
  8
0
 10
23.669
 20
107.197
 30
0.0
 40
0
 41
0
  0
VERTEX
  8
0
 10
23.8414
 20
107.183
 30
0.0
 40
0
 41
0
  0
VERTEX
  8
0
 10
24.0124
 20
107.165
 30
0.0
 40
0
 41
0
  0
VERTEX
  8
0
 10
24.1819
 20
107.144
 30
0.0
 40
0
 41
0
  0
VERTEX
  8
0
 10
24.35
 20
107.119
 30
0.0
 40
0
 41
0
  0
VERTEX
  8
0
 10
24.5164
 20
107.09
 30
0.0
 40
0
 41
0
  0
VERTEX
  8
0
 10
24.6813
 20
107.058
 30
0.0
 40
0
 41
0
  0
VERTEX
  8
0
 10
24.8443
 20
107.022
 30
0.0
 40
0
 41
0
  0
VERTEX
  8
0
 10
25.0054
 20
106.983
 30
0.0
 40
0
 41
0
  0
VERTEX
  8
0
 10
25.1647
 20
106.94
 30
0.0
 40
0
 41
0
  0
VERTEX
  8
0
 10
25.3221
 20
106.894
 30
0.0
 40
0
 41
0
  0
VERTEX
  8
0
 10
25.4774
 20
106.844
 30
0.0
 40
0
 41
0
  0
VERTEX
  8
0
 10
25.6306
 20
106.792
 30
0.0
 40
0
 41
0
  0
VERTEX
  8
0
 10
25.7815
 20
106.736
 30
0.0
 40
0
 41
0
  0
VERTEX
  8
0
 10
25.9303
 20
106.677
 30
0.0
 40
0
 41
0
  0
VERTEX
  8
0
 10
26.0768
 20
106.615
 30
0.0
 40
0
 41
0
  0
VERTEX
  8
0
 10
26.2208
 20
106.55
 30
0.0
 40
0
 41
0
  0
VERTEX
  8
0
 10
26.3625
 20
106.482
 30
0.0
 40
0
 41
0
  0
VERTEX
  8
0
 10
26.5017
 20
106.412
 30
0.0
 40
0
 41
0
  0
VERTEX
  8
0
 10
26.6383
 20
106.338
 30
0.0
 40
0
 41
0
  0
VERTEX
  8
0
 10
26.7724
 20
106.262
 30
0.0
 40
0
 41
0
  0
VERTEX
  8
0
 10
26.9037
 20
106.184
 30
0.0
 40
0
 41
0
  0
VERTEX
  8
0
 10
27.0325
 20
106.103
 30
0.0
 40
0
 41
0
  0
VERTEX
  8
0
 10
27.1585
 20
106.019
 30
0.0
 40
0
 41
0
  0
VERTEX
  8
0
 10
27.2817
 20
105.933
 30
0.0
 40
0
 41
0
  0
VERTEX
  8
0
 10
27.4019
 20
105.845
 30
0.0
 40
0
 41
0
  0
VERTEX
  8
0
 10
27.5194
 20
105.755
 30
0.0
 40
0
 41
0
  0
VERTEX
  8
0
 10
27.634
 20
105.663
 30
0.0
 40
0
 41
0
  0
VERTEX
  8
0
 10
27.7457
 20
105.568
 30
0.0
 40
0
 41
0
  0
VERTEX
  8
0
 10
27.8544
 20
105.472
 30
0.0
 40
0
 41
0
  0
VERTEX
  8
0
 10
27.9601
 20
105.373
 30
0.0
 40
0
 41
0
  0
VERTEX
  8
0
 10
28.0628
 20
105.273
 30
0.0
 40
0
 41
0
  0
VERTEX
  8
0
 10
28.1622
 20
105.172
 30
0.0
 40
0
 41
0
  0
VERTEX
  8
0
 10
28.2588
 20
105.068
 30
0.0
 40
0
 41
0
  0
VERTEX
  8
0
 10
28.3521
 20
104.964
 30
0.0
 40
0
 41
0
  0
VERTEX
  8
0
 10
28.4424
 20
104.857
 30
0.0
 40
0
 41
0
  0
VERTEX
  8
0
 10
28.5294
 20
104.75
 30
0.0
 40
0
 41
0
  0
VERTEX
  8
0
 10
28.6135
 20
104.641
 30
0.0
 40
0
 41
0
  0
VERTEX
  8
0
 10
28.6942
 20
104.531
 30
0.0
 40
0
 41
0
  0
VERTEX
  8
0
 10
28.7717
 20
104.42
 30
0.0
 40
0
 41
0
  0
VERTEX
  8
0
 10
28.846
 20
104.308
 30
0.0
 40
0
 41
0
  0
VERTEX
  8
0
 10
28.9172
 20
104.194
 30
0.0
 40
0
 41
0
  0
VERTEX
  8
0
 10
28.9851
 20
104.08
 30
0.0
 40
0
 41
0
  0
VERTEX
  8
0
 10
29.0497
 20
103.966
 30
0.0
 40
0
 41
0
  0
VERTEX
  8
0
 10
29.1113
 20
103.85
 30
0.0
 40
0
 41
0
  0
VERTEX
  8
0
 10
29.1694
 20
103.734
 30
0.0
 40
0
 41
0
  0
VERTEX
  8
0
 10
29.2244
 20
103.618
 30
0.0
 40
0
 41
0
  0
VERTEX
  8
0
 10
29.2762
 20
103.501
 30
0.0
 40
0
 41
0
  0
VERTEX
  8
0
 10
29.3249
 20
103.384
 30
0.0
 40
0
 41
0
  0
VERTEX
  8
0
 10
29.3703
 20
103.267
 30
0.0
 40
0
 41
0
  0
VERTEX
  8
0
 10
29.4125
 20
103.149
 30
0.0
 40
0
 41
0
  0
VERTEX
  8
0
 10
29.4515
 20
103.031
 30
0.0
 40
0
 41
0
  0
VERTEX
  8
0
 10
29.4875
 20
102.913
 30
0.0
 40
0
 41
0
  0
VERTEX
  8
0
 10
29.5203
 20
102.796
 30
0.0
 40
0
 41
0
  0
VERTEX
  8
0
 10
29.5499
 20
102.678
 30
0.0
 40
0
 41
0
  0
VERTEX
  8
0
 10
29.5764
 20
102.561
 30
0.0
 40
0
 41
0
  0
VERTEX
  8
0
 10
29.5999
 20
102.444
 30
0.0
 40
0
 41
0
  0
VERTEX
  8
0
 10
29.6201
 20
102.328
 30
0.0
 40
0
 41
0
  0
VERTEX
  8
0
 10
29.6375
 20
102.212
 30
0.0
 40
0
 41
0
  0
VERTEX
  8
0
 10
29.6519
 20
102.096
 30
0.0
 40
0
 41
0
  0
VERTEX
  8
0
 10
29.6633
 20
101.981
 30
0.0
 40
0
 41
0
  0
VERTEX
  8
0
 10
29.6718
 20
101.867
 30
0.0
 40
0
 41
0
  0
VERTEX
  8
0
 10
29.6774
 20
101.753
 30
0.0
 40
0
 41
0
  0
VERTEX
  8
0
 10
29.6801
 20
101.641
 30
0.0
 40
0
 41
0
  0
VERTEX
  8
0
 10
29.68
 20
101.529
 30
0.0
 40
0
 41
0
  0
VERTEX
  8
0
 10
29.6771
 20
101.418
 30
0.0
 40
0
 41
0
  0
VERTEX
  8
0
 10
29.6714
 20
101.308
 30
0.0
 40
0
 41
0
  0
VERTEX
  8
0
 10
29.6631
 20
101.2
 30
0.0
 40
0
 41
0
  0
VERTEX
  8
0
 10
29.6521
 20
101.092
 30
0.0
 40
0
 41
0
  0
VERTEX
  8
0
 10
29.6385
 20
100.986
 30
0.0
 40
0
 41
0
  0
VERTEX
  8
0
 10
29.6222
 20
100.881
 30
0.0
 40
0
 41
0
  0
VERTEX
  8
0
 10
29.6035
 20
100.777
 30
0.0
 40
0
 41
0
  0
VERTEX
  8
0
 10
29.5824
 20
100.675
 30
0.0
 40
0
 41
0
  0
VERTEX
  8
0
 10
29.5587
 20
100.574
 30
0.0
 40
0
 41
0
  0
VERTEX
  8
0
 10
29.5328
 20
100.475
 30
0.0
 40
0
 41
0
  0
VERTEX
  8
0
 10
29.5044
 20
100.378
 30
0.0
 40
0
 41
0
  0
VERTEX
  8
0
 10
29.4739
 20
100.282
 30
0.0
 40
0
 41
0
  0
VERTEX
  8
0
 10
29.4413
 20
100.187
 30
0.0
 40
0
 41
0
  0
VERTEX
  8
0
 10
29.4063
 20
100.095
 30
0.0
 40
0
 41
0
  0
VERTEX
  8
0
 10
29.3693
 20
100.004
 30
0.0
 40
0
 41
0
  0
VERTEX
  8
0
 10
29.3304
 20
99.915
 30
0.0
 40
0
 41
0
  0
VERTEX
  8
0
 10
29.2894
 20
99.8279
 30
0.0
 40
0
 41
0
  0
VERTEX
  8
0
 10
29.2465
 20
99.7426
 30
0.0
 40
0
 41
0
  0
VERTEX
  8
0
 10
29.2018
 20
99.6594
 30
0.0
 40
0
 41
0
  0
VERTEX
  8
0
 10
29.1554
 20
99.5782
 30
0.0
 40
0
 41
0
  0
VERTEX
  8
0
 10
29.1072
 20
99.499
 30
0.0
 40
0
 41
0
  0
VERTEX
  8
0
 10
29.0574
 20
99.4219
 30
0.0
 40
0
 41
0
  0
VERTEX
  8
0
 10
29.006
 20
99.3469
 30
0.0
 40
0
 41
0
  0
VERTEX
  8
0
 10
28.9531
 20
99.274
 30
0.0
 40
0
 41
0
  0
VERTEX
  8
0
 10
28.8986
 20
99.2033
 30
0.0
 40
0
 41
0
  0
VERTEX
  8
0
 10
28.8429
 20
99.1347
 30
0.0
 40
0
 41
0
  0
VERTEX
  8
0
 10
28.7858
 20
99.0685
 30
0.0
 40
0
 41
0
  0
VERTEX
  8
0
 10
28.7275
 20
99.0044
 30
0.0
 40
0
 41
0
  0
VERTEX
  8
0
 10
28.6679
 20
98.9426
 30
0.0
 40
0
 41
0
  0
VERTEX
  8
0
 10
28.6074
 20
98.8831
 30
0.0
 40
0
 41
0
  0
VERTEX
  8
0
 10
28.5457
 20
98.8258
 30
0.0
 40
0
 41
0
  0
VERTEX
  8
0
 10
28.4832
 20
98.771
 30
0.0
 40
0
 41
0
  0
VERTEX
  8
0
 10
28.4196
 20
98.7185
 30
0.0
 40
0
 41
0
  0
VERTEX
  8
0
 10
28.3553
 20
98.6682
 30
0.0
 40
0
 41
0
  0
VERTEX
  8
0
 10
28.2903
 20
98.6204
 30
0.0
 40
0
 41
0
  0
VERTEX
  8
0
 10
28.2244
 20
98.575
 30
0.0
 40
0
 41
0
  0
VERTEX
  8
0
 10
28.1581
 20
98.5318
 30
0.0
 40
0
 41
0
  0
VERTEX
  8
0
 10
28.0911
 20
98.4911
 30
0.0
 40
0
 41
0
  0
VERTEX
  8
0
 10
28.0237
 20
98.4529
 30
0.0
 40
0
 41
0
  0
VERTEX
  8
0
 10
27.956
 20
98.4169
 30
0.0
 40
0
 41
0
  0
VERTEX
  8
0
 10
27.8878
 20
98.3833
 30
0.0
 40
0
 41
0
  0
VERTEX
  8
0
 10
27.8194
 20
98.3522
 30
0.0
 40
0
 41
0
  0
VERTEX
  8
0
 10
27.7508
 20
98.3235
 30
0.0
 40
0
 41
0
  0
VERTEX
  8
0
 10
27.6822
 20
98.2971
 30
0.0
 40
0
 41
0
  0
VERTEX
  8
0
 10
27.6135
 20
98.2731
 30
0.0
 40
0
 41
0
  0
VERTEX
  8
0
 10
27.5447
 20
98.2514
 30
0.0
 40
0
 41
0
  0
VERTEX
  8
0
 10
27.476
 20
98.2319
 30
0.0
 40
0
 41
0
  0
VERTEX
  8
0
 10
27.4075
 20
98.215
 30
0.0
 40
0
 41
0
  0
VERTEX
  8
0
 10
27.3393
 20
98.2003
 30
0.0
 40
0
 41
0
  0
VERTEX
  8
0
 10
27.2713
 20
98.1879
 30
0.0
 40
0
 41
0
  0
VERTEX
  8
0
 10
27.2036
 20
98.1778
 30
0.0
 40
0
 41
0
  0
VERTEX
  8
0
 10
27.1364
 20
98.17
 30
0.0
 40
0
 41
0
  0
VERTEX
  8
0
 10
27.0697
 20
98.1643
 30
0.0
 40
0
 41
0
  0
VERTEX
  8
0
 10
27.0035
 20
98.161
 30
0.0
 40
0
 41
0
  0
VERTEX
  8
0
 10
26.9379
 20
98.1597
 30
0.0
 40
0
 41
0
  0
VERTEX
  8
0
 10
26.8731
 20
98.1607
 30
0.0
 40
0
 41
0
  0
VERTEX
  8
0
 10
26.8089
 20
98.1638
 30
0.0
 40
0
 41
0
  0
VERTEX
  8
0
 10
26.7456
 20
98.1689
 30
0.0
 40
0
 41
0
  0
VERTEX
  8
0
 10
26.6831
 20
98.1762
 30
0.0
 40
0
 41
0
  0
VERTEX
  8
0
 10
26.6214
 20
98.1854
 30
0.0
 40
0
 41
0
  0
VERTEX
  8
0
 10
26.5608
 20
98.1968
 30
0.0
 40
0
 41
0
  0
VERTEX
  8
0
 10
26.5011
 20
98.21
 30
0.0
 40
0
 41
0
  0
VERTEX
  8
0
 10
26.4426
 20
98.2251
 30
0.0
 40
0
 41
0
  0
VERTEX
  8
0
 10
26.3853
 20
98.2422
 30
0.0
 40
0
 41
0
  0
VERTEX
  8
0
 10
26.329
 20
98.2611
 30
0.0
 40
0
 41
0
  0
VERTEX
  8
0
 10
26.2742
 20
98.2817
 30
0.0
 40
0
 41
0
  0
VERTEX
  8
0
 10
26.2204
 20
98.3042
 30
0.0
 40
0
 41
0
  0
VERTEX
  8
0
 10
26.1682
 20
98.3283
 30
0.0
 40
0
 41
0
  0
VERTEX
  8
0
 10
26.1172
 20
98.354
 30
0.0
 40
0
 41
0
  0
VERTEX
  8
0
 10
26.0678
 20
98.3815
 30
0.0
 40
0
 41
0
  0
VERTEX
  8
0
 10
26.0197
 20
98.4104
 30
0.0
 40
0
 41
0
  0
VERTEX
  8
0
 10
25.9732
 20
98.441
 30
0.0
 40
0
 41
0
  0
VERTEX
  8
0
 10
25.9283
 20
98.4729
 30
0.0
 40
0
 41
0
  0
VERTEX
  8
0
 10
25.885
 20
98.5063
 30
0.0
 40
0
 41
0
  0
VERTEX
  8
0
 10
25.8433
 20
98.541
 30
0.0
 40
0
 41
0
  0
VERTEX
  8
0
 10
25.8033
 20
98.5769
 30
0.0
 40
0
 41
0
  0
VERTEX
  8
0
 10
25.7651
 20
98.6143
 30
0.0
 40
0
 41
0
  0
VERTEX
  8
0
 10
25.7286
 20
98.6528
 30
0.0
 40
0
 41
0
  0
VERTEX
  8
0
 10
25.6939
 20
98.6924
 30
0.0
 40
0
 41
0
  0
VERTEX
  8
0
 10
25.661
 20
98.7329
 30
0.0
 40
0
 41
0
  0
VERTEX
  8
0
 10
25.6299
 20
98.7747
 30
0.0
 40
0
 41
0
  0
VERTEX
  8
0
 10
25.6007
 20
98.8174
 30
0.0
 40
0
 41
0
  0
VERTEX
  8
0
 10
25.5733
 20
98.8608
 30
0.0
 40
0
 41
0
  0
VERTEX
  8
0
 10
25.5479
 20
98.9051
 30
0.0
 40
0
 41
0
  0
VERTEX
  8
0
 10
25.5246
 20
98.9503
 30
0.0
 40
0
 41
0
  0
VERTEX
  8
0
 10
25.5031
 20
98.9961
 30
0.0
 40
0
 41
0
  0
VERTEX
  8
0
 10
25.4836
 20
99.0426
 30
0.0
 40
0
 41
0
  0
VERTEX
  8
0
 10
25.4661
 20
99.0897
 30
0.0
 40
0
 41
0
  0
VERTEX
  8
0
 10
25.4507
 20
99.1374
 30
0.0
 40
0
 41
0
  0
VERTEX
  8
0
 10
25.4372
 20
99.1854
 30
0.0
 40
0
 41
0
  0
VERTEX
  8
0
 10
25.426
 20
99.2338
 30
0.0
 40
0
 41
0
  0
VERTEX
  8
0
 10
25.4165
 20
99.2825
 30
0.0
 40
0
 41
0
  0
VERTEX
  8
0
 10
25.4093
 20
99.3315
 30
0.0
 40
0
 41
0
  0
VERTEX
  8
0
 10
25.4042
 20
99.3808
 30
0.0
 40
0
 41
0
  0
VERTEX
  8
0
 10
25.401
 20
99.4301
 30
0.0
 40
0
 41
0
  0
VERTEX
  8
0
 10
25.4
 20
99.4796
 30
0.0
 40
0
 41
0
  0
VERTEX
  8
0
 10
25.3989
 20
99.529
 30
0.0
 40
0
 41
0
  0
VERTEX
  8
0
 10
25.3958
 20
99.5783
 30
0.0
 40
0
 41
0
  0
VERTEX
  8
0
 10
25.3907
 20
99.6276
 30
0.0
 40
0
 41
0
  0
VERTEX
  8
0
 10
25.3833
 20
99.6767
 30
0.0
 40
0
 41
0
  0
VERTEX
  8
0
 10
25.374
 20
99.7254
 30
0.0
 40
0
 41
0
  0
VERTEX
  8
0
 10
25.3626
 20
99.7738
 30
0.0
 40
0
 41
0
  0
VERTEX
  8
0
 10
25.3493
 20
99.8218
 30
0.0
 40
0
 41
0
  0
VERTEX
  8
0
 10
25.3339
 20
99.8694
 30
0.0
 40
0
 41
0
  0
VERTEX
  8
0
 10
25.3164
 20
99.9165
 30
0.0
 40
0
 41
0
  0
VERTEX
  8
0
 10
25.2969
 20
99.9631
 30
0.0
 40
0
 41
0
  0
VERTEX
  8
0
 10
25.2754
 20
100.009
 30
0.0
 40
0
 41
0
  0
VERTEX
  8
0
 10
25.2519
 20
100.054
 30
0.0
 40
0
 41
0
  0
VERTEX
  8
0
 10
25.2267
 20
100.098
 30
0.0
 40
0
 41
0
  0
VERTEX
  8
0
 10
25.1993
 20
100.142
 30
0.0
 40
0
 41
0
  0
VERTEX
  8
0
 10
25.1701
 20
100.184
 30
0.0
 40
0
 41
0
  0
VERTEX
  8
0
 10
25.139
 20
100.226
 30
0.0
 40
0
 41
0
  0
VERTEX
  8
0
 10
25.1061
 20
100.267
 30
0.0
 40
0
 41
0
  0
VERTEX
  8
0
 10
25.0714
 20
100.306
 30
0.0
 40
0
 41
0
  0
VERTEX
  8
0
 10
25.0349
 20
100.345
 30
0.0
 40
0
 41
0
  0
VERTEX
  8
0
 10
24.9967
 20
100.382
 30
0.0
 40
0
 41
0
  0
VERTEX
  8
0
 10
24.9567
 20
100.418
 30
0.0
 40
0
 41
0
  0
VERTEX
  8
0
 10
24.915
 20
100.453
 30
0.0
 40
0
 41
0
  0
VERTEX
  8
0
 10
24.8717
 20
100.486
 30
0.0
 40
0
 41
0
  0
VERTEX
  8
0
 10
24.8267
 20
100.518
 30
0.0
 40
0
 41
0
  0
VERTEX
  8
0
 10
24.7803
 20
100.549
 30
0.0
 40
0
 41
0
  0
VERTEX
  8
0
 10
24.7322
 20
100.578
 30
0.0
 40
0
 41
0
  0
VERTEX
  8
0
 10
24.6828
 20
100.605
 30
0.0
 40
0
 41
0
  0
VERTEX
  8
0
 10
24.6318
 20
100.631
 30
0.0
 40
0
 41
0
  0
VERTEX
  8
0
 10
24.5794
 20
100.655
 30
0.0
 40
0
 41
0
  0
VERTEX
  8
0
 10
24.5258
 20
100.677
 30
0.0
 40
0
 41
0
  0
VERTEX
  8
0
 10
24.4708
 20
100.698
 30
0.0
 40
0
 41
0
  0
VERTEX
  8
0
 10
24.4147
 20
100.717
 30
0.0
 40
0
 41
0
  0
VERTEX
  8
0
 10
24.3574
 20
100.734
 30
0.0
 40
0
 41
0
  0
VERTEX
  8
0
 10
24.2988
 20
100.749
 30
0.0
 40
0
 41
0
  0
VERTEX
  8
0
 10
24.2392
 20
100.762
 30
0.0
 40
0
 41
0
  0
VERTEX
  8
0
 10
24.1786
 20
100.774
 30
0.0
 40
0
 41
0
  0
VERTEX
  8
0
 10
24.1169
 20
100.783
 30
0.0
 40
0
 41
0
  0
VERTEX
  8
0
 10
24.0544
 20
100.79
 30
0.0
 40
0
 41
0
  0
VERTEX
  8
0
 10
23.9911
 20
100.795
 30
0.0
 40
0
 41
0
  0
VERTEX
  8
0
 10
23.9269
 20
100.798
 30
0.0
 40
0
 41
0
  0
VERTEX
  8
0
 10
23.8621
 20
100.799
 30
0.0
 40
0
 41
0
  0
VERTEX
  8
0
 10
23.7965
 20
100.798
 30
0.0
 40
0
 41
0
  0
VERTEX
  8
0
 10
23.7303
 20
100.795
 30
0.0
 40
0
 41
0
  0
VERTEX
  8
0
 10
23.6636
 20
100.789
 30
0.0
 40
0
 41
0
  0
VERTEX
  8
0
 10
23.5964
 20
100.781
 30
0.0
 40
0
 41
0
  0
VERTEX
  8
0
 10
23.5287
 20
100.771
 30
0.0
 40
0
 41
0
  0
VERTEX
  8
0
 10
23.4607
 20
100.759
 30
0.0
 40
0
 41
0
  0
VERTEX
  8
0
 10
23.3925
 20
100.744
 30
0.0
 40
0
 41
0
  0
VERTEX
  8
0
 10
23.3239
 20
100.727
 30
0.0
 40
0
 41
0
  0
VERTEX
  8
0
 10
23.2553
 20
100.708
 30
0.0
 40
0
 41
0
  0
VERTEX
  8
0
 10
23.1865
 20
100.686
 30
0.0
 40
0
 41
0
  0
VERTEX
  8
0
 10
23.1178
 20
100.662
 30
0.0
 40
0
 41
0
  0
VERTEX
  8
0
 10
23.0492
 20
100.636
 30
0.0
 40
0
 41
0
  0
VERTEX
  8
0
 10
22.9806
 20
100.607
 30
0.0
 40
0
 41
0
  0
VERTEX
  8
0
 10
22.9121
 20
100.576
 30
0.0
 40
0
 41
0
  0
VERTEX
  8
0
 10
22.844
 20
100.542
 30
0.0
 40
0
 41
0
  0
VERTEX
  8
0
 10
22.7763
 20
100.506
 30
0.0
 40
0
 41
0
  0
VERTEX
  8
0
 10
22.7088
 20
100.468
 30
0.0
 40
0
 41
0
  0
VERTEX
  8
0
 10
22.6419
 20
100.427
 30
0.0
 40
0
 41
0
  0
VERTEX
  8
0
 10
22.5756
 20
100.384
 30
0.0
 40
0
 41
0
  0
VERTEX
  8
0
 10
22.5097
 20
100.339
 30
0.0
 40
0
 41
0
  0
VERTEX
  8
0
 10
22.4447
 20
100.291
 30
0.0
 40
0
 41
0
  0
VERTEX
  8
0
 10
22.3803
 20
100.241
 30
0.0
 40
0
 41
0
  0
VERTEX
  8
0
 10
22.3168
 20
100.188
 30
0.0
 40
0
 41
0
  0
VERTEX
  8
0
 10
22.2542
 20
100.133
 30
0.0
 40
0
 41
0
  0
VERTEX
  8
0
 10
22.1926
 20
100.076
 30
0.0
 40
0
 41
0
  0
VERTEX
  8
0
 10
22.1319
 20
100.017
 30
0.0
 40
0
 41
0
  0
VERTEX
  8
0
 10
22.0725
 20
99.9547
 30
0.0
 40
0
 41
0
  0
VERTEX
  8
0
 10
22.0142
 20
99.8907
 30
0.0
 40
0
 41
0
  0
VERTEX
  8
0
 10
21.9571
 20
99.8244
 30
0.0
 40
0
 41
0
  0
VERTEX
  8
0
 10
21.9014
 20
99.7558
 30
0.0
 40
0
 41
0
  0
VERTEX
  8
0
 10
21.8469
 20
99.6851
 30
0.0
 40
0
 41
0
  0
VERTEX
  8
0
 10
21.794
 20
99.6122
 30
0.0
 40
0
 41
0
  0
VERTEX
  8
0
 10
21.7426
 20
99.5372
 30
0.0
 40
0
 41
0
  0
VERTEX
  8
0
 10
21.6928
 20
99.4601
 30
0.0
 40
0
 41
0
  0
VERTEX
  8
0
 10
21.6446
 20
99.381
 30
0.0
 40
0
 41
0
  0
VERTEX
  8
0
 10
21.5982
 20
99.2997
 30
0.0
 40
0
 41
0
  0
VERTEX
  8
0
 10
21.5535
 20
99.2165
 30
0.0
 40
0
 41
0
  0
VERTEX
  8
0
 10
21.5106
 20
99.1313
 30
0.0
 40
0
 41
0
  0
VERTEX
  8
0
 10
21.4696
 20
99.0442
 30
0.0
 40
0
 41
0
  0
VERTEX
  8
0
 10
21.4307
 20
98.9553
 30
0.0
 40
0
 41
0
  0
VERTEX
  8
0
 10
21.3936
 20
98.8644
 30
0.0
 40
0
 41
0
  0
VERTEX
  8
0
 10
21.3587
 20
98.7718
 30
0.0
 40
0
 41
0
  0
VERTEX
  8
0
 10
21.3261
 20
98.6775
 30
0.0
 40
0
 41
0
  0
VERTEX
  8
0
 10
21.2956
 20
98.5815
 30
0.0
 40
0
 41
0
  0
VERTEX
  8
0
 10
21.2672
 20
98.4839
 30
0.0
 40
0
 41
0
  0
VERTEX
  8
0
 10
21.2413
 20
98.3847
 30
0.0
 40
0
 41
0
  0
VERTEX
  8
0
 10
21.2176
 20
98.284
 30
0.0
 40
0
 41
0
  0
VERTEX
  8
0
 10
21.1965
 20
98.1818
 30
0.0
 40
0
 41
0
  0
VERTEX
  8
0
 10
21.1778
 20
98.0782
 30
0.0
 40
0
 41
0
  0
VERTEX
  8
0
 10
21.1615
 20
97.9732
 30
0.0
 40
0
 41
0
  0
VERTEX
  8
0
 10
21.1479
 20
97.8669
 30
0.0
 40
0
 41
0
  0
VERTEX
  8
0
 10
21.1369
 20
97.7594
 30
0.0
 40
0
 41
0
  0
VERTEX
  8
0
 10
21.1286
 20
97.6508
 30
0.0
 40
0
 41
0
  0
VERTEX
  8
0
 10
21.1229
 20
97.5411
 30
0.0
 40
0
 41
0
  0
VERTEX
  8
0
 10
21.12
 20
97.4303
 30
0.0
 40
0
 41
0
  0
VERTEX
  8
0
 10
21.1199
 20
97.3186
 30
0.0
 40
0
 41
0
  0
VERTEX
  8
0
 10
21.1226
 20
97.2058
 30
0.0
 40
0
 41
0
  0
VERTEX
  8
0
 10
21.1282
 20
97.0924
 30
0.0
 40
0
 41
0
  0
VERTEX
  8
0
 10
21.1367
 20
96.9782
 30
0.0
 40
0
 41
0
  0
VERTEX
  8
0
 10
21.1481
 20
96.8632
 30
0.0
 40
0
 41
0
  0
VERTEX
  8
0
 10
21.1624
 20
96.7476
 30
0.0
 40
0
 41
0
  0
VERTEX
  8
0
 10
21.1797
 20
96.6315
 30
0.0
 40
0
 41
0
  0
VERTEX
  8
0
 10
21.2001
 20
96.515
 30
0.0
 40
0
 41
0
  0
VERTEX
  8
0
 10
21.2236
 20
96.3981
 30
0.0
 40
0
 41
0
  0
VERTEX
  8
0
 10
21.2501
 20
96.2808
 30
0.0
 40
0
 41
0
  0
VERTEX
  8
0
 10
21.2797
 20
96.1633
 30
0.0
 40
0
 41
0
  0
VERTEX
  8
0
 10
21.3125
 20
96.0457
 30
0.0
 40
0
 41
0
  0
VERTEX
  8
0
 10
21.3483
 20
95.9281
 30
0.0
 40
0
 41
0
  0
VERTEX
  8
0
 10
21.3875
 20
95.8103
 30
0.0
 40
0
 41
0
  0
VERTEX
  8
0
 10
21.4296
 20
95.6926
 30
0.0
 40
0
 41
0
  0
VERTEX
  8
0
 10
21.475
 20
95.5753
 30
0.0
 40
0
 41
0
  0
VERTEX
  8
0
 10
21.5236
 20
95.4581
 30
0.0
 40
0
 41
0
  0
VERTEX
  8
0
 10
21.5754
 20
95.3411
 30
0.0
 40
0
 41
0
  0
VERTEX
  8
0
 10
21.6306
 20
95.2247
 30
0.0
 40
0
 41
0
  0
VERTEX
  8
0
 10
21.6887
 20
95.1088
 30
0.0
 40
0
 41
0
  0
VERTEX
  8
0
 10
21.7501
 20
94.9933
 30
0.0
 40
0
 41
0
  0
VERTEX
  8
0
 10
21.8149
 20
94.8788
 30
0.0
 40
0
 41
0
  0
VERTEX
  8
0
 10
21.8828
 20
94.7647
 30
0.0
 40
0
 41
0
  0
VERTEX
  8
0
 10
21.9539
 20
94.6517
 30
0.0
 40
0
 41
0
  0
VERTEX
  8
0
 10
22.0283
 20
94.5394
 30
0.0
 40
0
 41
0
  0
VERTEX
  8
0
 10
22.1058
 20
94.4283
 30
0.0
 40
0
 41
0
  0
VERTEX
  8
0
 10
22.1865
 20
94.3183
 30
0.0
 40
0
 41
0
  0
VERTEX
  8
0
 10
22.2706
 20
94.2094
 30
0.0
 40
0
 41
0
  0
VERTEX
  8
0
 10
22.3576
 20
94.1018
 30
0.0
 40
0
 41
0
  0
VERTEX
  8
0
 10
22.4478
 20
93.9956
 30
0.0
 40
0
 41
0
  0
VERTEX
  8
0
 10
22.5412
 20
93.8907
 30
0.0
 40
0
 41
0
  0
VERTEX
  8
0
 10
22.6376
 20
93.7874
 30
0.0
 40
0
 41
0
  0
VERTEX
  8
0
 10
22.7372
 20
93.6857
 30
0.0
 40
0
 41
0
  0
VERTEX
  8
0
 10
22.8399
 20
93.5857
 30
0.0
 40
0
 41
0
  0
VERTEX
  8
0
 10
22.9456
 20
93.4875
 30
0.0
 40
0
 41
0
  0
VERTEX
  8
0
 10
23.0543
 20
93.3911
 30
0.0
 40
0
 41
0
  0
VERTEX
  8
0
 10
23.166
 20
93.2967
 30
0.0
 40
0
 41
0
  0
VERTEX
  8
0
 10
23.2806
 20
93.2042
 30
0.0
 40
0
 41
0
  0
VERTEX
  8
0
 10
23.3981
 20
93.1139
 30
0.0
 40
0
 41
0
  0
VERTEX
  8
0
 10
23.5183
 20
93.0258
 30
0.0
 40
0
 41
0
  0
VERTEX
  8
0
 10
23.6415
 20
92.94
 30
0.0
 40
0
 41
0
  0
VERTEX
  8
0
 10
23.7675
 20
92.8564
 30
0.0
 40
0
 41
0
  0
VERTEX
  8
0
 10
23.8963
 20
92.7754
 30
0.0
 40
0
 41
0
  0
VERTEX
  8
0
 10
24.0276
 20
92.6968
 30
0.0
 40
0
 41
0
  0
VERTEX
  8
0
 10
24.1617
 20
92.6208
 30
0.0
 40
0
 41
0
  0
VERTEX
  8
0
 10
24.2983
 20
92.5475
 30
0.0
 40
0
 41
0
  0
VERTEX
  8
0
 10
24.4375
 20
92.4769
 30
0.0
 40
0
 41
0
  0
VERTEX
  8
0
 10
24.5792
 20
92.4092
 30
0.0
 40
0
 41
0
  0
VERTEX
  8
0
 10
24.7232
 20
92.3443
 30
0.0
 40
0
 41
0
  0
VERTEX
  8
0
 10
24.8697
 20
92.2824
 30
0.0
 40
0
 41
0
  0
VERTEX
  8
0
 10
25.0185
 20
92.2233
 30
0.0
 40
0
 41
0
  0
VERTEX
  8
0
 10
25.1694
 20
92.1675
 30
0.0
 40
0
 41
0
  0
VERTEX
  8
0
 10
25.3226
 20
92.1149
 30
0.0
 40
0
 41
0
  0
VERTEX
  8
0
 10
25.4779
 20
92.0654
 30
0.0
 40
0
 41
0
  0
VERTEX
  8
0
 10
25.6353
 20
92.0193
 30
0.0
 40
0
 41
0
  0
VERTEX
  8
0
 10
25.7946
 20
91.9765
 30
0.0
 40
0
 41
0
  0
VERTEX
  8
0
 10
25.9557
 20
91.9372
 30
0.0
 40
0
 41
0
  0
VERTEX
  8
0
 10
26.1188
 20
91.9014
 30
0.0
 40
0
 41
0
  0
VERTEX
  8
0
 10
26.2835
 20
91.869
 30
0.0
 40
0
 41
0
  0
VERTEX
  8
0
 10
26.45
 20
91.8403
 30
0.0
 40
0
 41
0
  0
VERTEX
  8
0
 10
26.6181
 20
91.8153
 30
0.0
 40
0
 41
0
  0
VERTEX
  8
0
 10
26.7876
 20
91.7939
 30
0.0
 40
0
 41
0
  0
VERTEX
  8
0
 10
26.9586
 20
91.7763
 30
0.0
 40
0
 41
0
  0
VERTEX
  8
0
 10
27.131
 20
91.7625
 30
0.0
 40
0
 41
0
  0
VERTEX
  8
0
 10
27.3046
 20
91.7526
 30
0.0
 40
0
 41
0
  0
VERTEX
  8
0
 10
27.4793
 20
91.7465
 30
0.0
 40
0
 41
0
  0
VERTEX
  8
0
 10
27.6551
 20
91.7446
 30
0.0
 40
0
 41
0
  0
VERTEX
  8
0
 10
27.8321
 20
91.7465
 30
0.0
 40
0
 41
0
  0
VERTEX
  8
0
 10
28.0099
 20
91.7525
 30
0.0
 40
0
 41
0
  0
VERTEX
  8
0
 10
28.1883
 20
91.7625
 30
0.0
 40
0
 41
0
  0
VERTEX
  8
0
 10
28.3676
 20
91.7767
 30
0.0
 40
0
 41
0
  0
VERTEX
  8
0
 10
28.5476
 20
91.795
 30
0.0
 40
0
 41
0
  0
VERTEX
  8
0
 10
28.7281
 20
91.8175
 30
0.0
 40
0
 41
0
  0
VERTEX
  8
0
 10
28.909
 20
91.8442
 30
0.0
 40
0
 41
0
  0
VERTEX
  8
0
 10
29.0903
 20
91.8751
 30
0.0
 40
0
 41
0
  0
VERTEX
  8
0
 10
29.2717
 20
91.9104
 30
0.0
 40
0
 41
0
  0
VERTEX
  8
0
 10
29.4533
 20
91.9499
 30
0.0
 40
0
 41
0
  0
VERTEX
  8
0
 10
29.635
 20
91.9936
 30
0.0
 40
0
 41
0
  0
VERTEX
  8
0
 10
29.8167
 20
92.0418
 30
0.0
 40
0
 41
0
  0
VERTEX
  8
0
 10
29.9981
 20
92.0943
 30
0.0
 40
0
 41
0
  0
VERTEX
  8
0
 10
30.1792
 20
92.1511
 30
0.0
 40
0
 41
0
  0
VERTEX
  8
0
 10
30.36
 20
92.2124
 30
0.0
 40
0
 41
0
  0
VERTEX
  8
0
 10
30.5403
 20
92.2779
 30
0.0
 40
0
 41
0
  0
VERTEX
  8
0
 10
30.7201
 20
92.3479
 30
0.0
 40
0
 41
0
  0
VERTEX
  8
0
 10
30.8992
 20
92.4224
 30
0.0
 40
0
 41
0
  0
VERTEX
  8
0
 10
31.0774
 20
92.5011
 30
0.0
 40
0
 41
0
  0
VERTEX
  8
0
 10
31.2549
 20
92.5842
 30
0.0
 40
0
 41
0
  0
VERTEX
  8
0
 10
31.4311
 20
92.6718
 30
0.0
 40
0
 41
0
  0
VERTEX
  8
0
 10
31.6064
 20
92.7638
 30
0.0
 40
0
 41
0
  0
VERTEX
  8
0
 10
31.7806
 20
92.86
 30
0.0
 40
0
 41
0
  0
VERTEX
  8
0
 10
31.9532
 20
92.9607
 30
0.0
 40
0
 41
0
  0
VERTEX
  8
0
 10
32.1246
 20
93.0657
 30
0.0
 40
0
 41
0
  0
VERTEX
  8
0
 10
32.2943
 20
93.175
 30
0.0
 40
0
 41
0
  0
VERTEX
  8
0
 10
32.4624
 20
93.2888
 30
0.0
 40
0
 41
0
  0
VERTEX
  8
0
 10
32.6288
 20
93.4067
 30
0.0
 40
0
 41
0
  0
VERTEX
  8
0
 10
32.7933
 20
93.5289
 30
0.0
 40
0
 41
0
  0
VERTEX
  8
0
 10
32.9558
 20
93.6554
 30
0.0
 40
0
 41
0
  0
VERTEX
  8
0
 10
33.1164
 20
93.7861
 30
0.0
 40
0
 41
0
  0
VERTEX
  8
0
 10
33.2746
 20
93.921
 30
0.0
 40
0
 41
0
  0
VERTEX
  8
0
 10
33.4307
 20
94.0601
 30
0.0
 40
0
 41
0
  0
VERTEX
  8
0
 10
33.5843
 20
94.2032
 30
0.0
 40
0
 41
0
  0
VERTEX
  8
0
 10
33.7356
 20
94.3504
 30
0.0
 40
0
 41
0
  0
VERTEX
  8
0
 10
33.884
 20
94.5018
 30
0.0
 40
0
 41
0
  0
VERTEX
  8
0
 10
34.0299
 20
94.6569
 30
0.0
 40
0
 41
0
  0
VERTEX
  8
0
 10
34.1731
 20
94.8163
 30
0.0
 40
0
 41
0
  0
VERTEX
  8
0
 10
34.3132
 20
94.9793
 30
0.0
 40
0
 41
0
  0
VERTEX
  8
0
 10
34.4504
 20
95.1462
 30
0.0
 40
0
 41
0
  0
VERTEX
  8
0
 10
34.5844
 20
95.3169
 30
0.0
 40
0
 41
0
  0
VERTEX
  8
0
 10
34.7153
 20
95.4914
 30
0.0
 40
0
 41
0
  0
VERTEX
  8
0
 10
34.8429
 20
95.6696
 30
0.0
 40
0
 41
0
  0
VERTEX
  8
0
 10
34.9671
 20
95.8513
 30
0.0
 40
0
 41
0
  0
VERTEX
  8
0
 10
35.0878
 20
96.0365
 30
0.0
 40
0
 41
0
  0
VERTEX
  8
0
 10
35.2049
 20
96.2253
 30
0.0
 40
0
 41
0
  0
VERTEX
  8
0
 10
35.3183
 20
96.4175
 30
0.0
 40
0
 41
0
  0
VERTEX
  8
0
 10
35.4281
 20
96.6129
 30
0.0
 40
0
 41
0
  0
VERTEX
  8
0
 10
35.5339
 20
96.8117
 30
0.0
 40
0
 41
0
  0
VERTEX
  8
0
 10
35.6357
 20
97.0136
 30
0.0
 40
0
 41
0
  0
VERTEX
  8
0
 10
35.7336
 20
97.2188
 30
0.0
 40
0
 41
0
  0
VERTEX
  8
0
 10
35.8274
 20
97.4268
 30
0.0
 40
0
 41
0
  0
VERTEX
  8
0
 10
35.9168
 20
97.6378
 30
0.0
 40
0
 41
0
  0
VERTEX
  8
0
 10
36.0021
 20
97.8517
 30
0.0
 40
0
 41
0
  0
VERTEX
  8
0
 10
36.0829
 20
98.0683
 30
0.0
 40
0
 41
0
  0
VERTEX
  8
0
 10
36.1593
 20
98.2878
 30
0.0
 40
0
 41
0
  0
VERTEX
  8
0
 10
36.2312
 20
98.5097
 30
0.0
 40
0
 41
0
  0
VERTEX
  8
0
 10
36.2986
 20
98.7342
 30
0.0
 40
0
 41
0
  0
VERTEX
  8
0
 10
36.3613
 20
98.961
 30
0.0
 40
0
 41
0
  0
VERTEX
  8
0
 10
36.419
 20
99.1901
 30
0.0
 40
0
 41
0
  0
VERTEX
  8
0
 10
36.4722
 20
99.4214
 30
0.0
 40
0
 41
0
  0
VERTEX
  8
0
 10
36.5204
 20
99.6549
 30
0.0
 40
0
 41
0
  0
VERTEX
  8
0
 10
36.5636
 20
99.8903
 30
0.0
 40
0
 41
0
  0
VERTEX
  8
0
 10
36.6019
 20
100.128
 30
0.0
 40
0
 41
0
  0
VERTEX
  8
0
 10
36.635
 20
100.367
 30
0.0
 40
0
 41
0
  0
VERTEX
  8
0
 10
36.6632
 20
100.608
 30
0.0
 40
0
 41
0
  0
VERTEX
  8
0
 10
36.686
 20
100.85
 30
0.0
 40
0
 41
0
  0
VERTEX
  8
0
 10
36.7036
 20
101.094
 30
0.0
 40
0
 41
0
  0
VERTEX
  8
0
 10
36.716
 20
101.339
 30
0.0
 40
0
 41
0
  0
VERTEX
  8
0
 10
36.7231
 20
101.585
 30
0.0
 40
0
 41
0
  0
VERTEX
  8
0
 10
36.7247
 20
101.833
 30
0.0
 40
0
 41
0
  0
VERTEX
  8
0
 10
36.721
 20
102.081
 30
0.0
 40
0
 41
0
  0
VERTEX
  8
0
 10
36.7117
 20
102.331
 30
0.0
 40
0
 41
0
  0
VERTEX
  8
0
 10
36.6969
 20
102.581
 30
0.0
 40
0
 41
0
  0
VERTEX
  8
0
 10
36.6767
 20
102.832
 30
0.0
 40
0
 41
0
  0
VERTEX
  8
0
 10
36.6508
 20
103.083
 30
0.0
 40
0
 41
0
  0
VERTEX
  8
0
 10
36.6193
 20
103.335
 30
0.0
 40
0
 41
0
  0
VERTEX
  8
0
 10
36.5822
 20
103.587
 30
0.0
 40
0
 41
0
  0
VERTEX
  8
0
 10
36.5396
 20
103.839
 30
0.0
 40
0
 41
0
  0
VERTEX
  8
0
 10
36.4911
 20
104.091
 30
0.0
 40
0
 41
0
  0
VERTEX
  8
0
 10
36.4371
 20
104.343
 30
0.0
 40
0
 41
0
  0
VERTEX
  8
0
 10
36.3772
 20
104.594
 30
0.0
 40
0
 41
0
  0
VERTEX
  8
0
 10
36.3117
 20
104.846
 30
0.0
 40
0
 41
0
  0
VERTEX
  8
0
 10
36.2404
 20
105.097
 30
0.0
 40
0
 41
0
  0
VERTEX
  8
0
 10
36.1633
 20
105.347
 30
0.0
 40
0
 41
0
  0
VERTEX
  8
0
 10
36.0806
 20
105.596
 30
0.0
 40
0
 41
0
  0
VERTEX
  8
0
 10
35.9921
 20
105.845
 30
0.0
 40
0
 41
0
  0
VERTEX
  8
0
 10
35.8978
 20
106.092
 30
0.0
 40
0
 41
0
  0
VERTEX
  8
0
 10
35.7978
 20
106.339
 30
0.0
 40
0
 41
0
  0
VERTEX
  8
0
 10
35.6921
 20
106.584
 30
0.0
 40
0
 41
0
  0
VERTEX
  8
0
 10
35.5806
 20
106.827
 30
0.0
 40
0
 41
0
  0
VERTEX
  8
0
 10
35.4635
 20
107.069
 30
0.0
 40
0
 41
0
  0
VERTEX
  8
0
 10
35.3406
 20
107.31
 30
0.0
 40
0
 41
0
  0
VERTEX
  8
0
 10
35.2119
 20
107.548
 30
0.0
 40
0
 41
0
  0
VERTEX
  8
0
 10
35.0778
 20
107.785
 30
0.0
 40
0
 41
0
  0
VERTEX
  8
0
 10
34.9379
 20
108.019
 30
0.0
 40
0
 41
0
  0
VERTEX
  8
0
 10
34.7925
 20
108.252
 30
0.0
 40
0
 41
0
  0
VERTEX
  8
0
 10
34.6415
 20
108.482
 30
0.0
 40
0
 41
0
  0
VERTEX
  8
0
 10
34.485
 20
108.709
 30
0.0
 40
0
 41
0
  0
VERTEX
  8
0
 10
34.3231
 20
108.934
 30
0.0
 40
0
 41
0
  0
VERTEX
  8
0
 10
34.1556
 20
109.156
 30
0.0
 40
0
 41
0
  0
VERTEX
  8
0
 10
33.9828
 20
109.375
 30
0.0
 40
0
 41
0
  0
VERTEX
  8
0
 10
33.8044
 20
109.591
 30
0.0
 40
0
 41
0
  0
VERTEX
  8
0
 10
33.621
 20
109.804
 30
0.0
 40
0
 41
0
  0
VERTEX
  8
0
 10
33.4322
 20
110.014
 30
0.0
 40
0
 41
0
  0
VERTEX
  8
0
 10
33.2382
 20
110.22
 30
0.0
 40
0
 41
0
  0
VERTEX
  8
0
 10
33.039
 20
110.423
 30
0.0
 40
0
 41
0
  0
VERTEX
  8
0
 10
32.8349
 20
110.622
 30
0.0
 40
0
 41
0
  0
VERTEX
  8
0
 10
32.6256
 20
110.818
 30
0.0
 40
0
 41
0
  0
VERTEX
  8
0
 10
32.4115
 20
111.009
 30
0.0
 40
0
 41
0
  0
VERTEX
  8
0
 10
32.1925
 20
111.197
 30
0.0
 40
0
 41
0
  0
VERTEX
  8
0
 10
31.9686
 20
111.38
 30
0.0
 40
0
 41
0
  0
VERTEX
  8
0
 10
31.74
 20
111.56
 30
0.0
 40
0
 41
0
  0
VERTEX
  8
0
 10
31.5069
 20
111.734
 30
0.0
 40
0
 41
0
  0
VERTEX
  8
0
 10
31.2692
 20
111.905
 30
0.0
 40
0
 41
0
  0
VERTEX
  8
0
 10
31.0269
 20
112.07
 30
0.0
 40
0
 41
0
  0
VERTEX
  8
0
 10
30.7803
 20
112.231
 30
0.0
 40
0
 41
0
  0
VERTEX
  8
0
 10
30.5294
 20
112.388
 30
0.0
 40
0
 41
0
  0
VERTEX
  8
0
 10
30.2744
 20
112.539
 30
0.0
 40
0
 41
0
  0
VERTEX
  8
0
 10
30.0151
 20
112.685
 30
0.0
 40
0
 41
0
  0
VERTEX
  8
0
 10
29.7521
 20
112.826
 30
0.0
 40
0
 41
0
  0
VERTEX
  8
0
 10
29.485
 20
112.962
 30
0.0
 40
0
 41
0
  0
VERTEX
  8
0
 10
29.2142
 20
113.092
 30
0.0
 40
0
 41
0
  0
VERTEX
  8
0
 10
28.9396
 20
113.217
 30
0.0
 40
0
 41
0
  0
VERTEX
  8
0
 10
28.6614
 20
113.337
 30
0.0
 40
0
 41
0
  0
VERTEX
  8
0
 10
28.3799
 20
113.451
 30
0.0
 40
0
 41
0
  0
VERTEX
  8
0
 10
28.0949
 20
113.559
 30
0.0
 40
0
 41
0
  0
VERTEX
  8
0
 10
27.8068
 20
113.661
 30
0.0
 40
0
 41
0
  0
VERTEX
  8
0
 10
27.5156
 20
113.757
 30
0.0
 40
0
 41
0
  0
VERTEX
  8
0
 10
27.2213
 20
113.848
 30
0.0
 40
0
 41
0
  0
VERTEX
  8
0
 10
26.9242
 20
113.932
 30
0.0
 40
0
 41
0
  0
VERTEX
  8
0
 10
26.6243
 20
114.01
 30
0.0
 40
0
 41
0
  0
VERTEX
  8
0
 10
26.3218
 20
114.082
 30
0.0
 40
0
 41
0
  0
VERTEX
  8
0
 10
26.0168
 20
114.147
 30
0.0
 40
0
 41
0
  0
VERTEX
  8
0
 10
25.7094
 20
114.207
 30
0.0
 40
0
 41
0
  0
VERTEX
  8
0
 10
25.4
 20
114.259
 30
0.0
 40
0
 41
0
  0
VERTEX
  8
0
 10
25.62
 20
115.642
 30
0.0
 40
0
 41
0
  0
VERTEX
  8
0
 10
25.9593
 20
115.584
 30
0.0
 40
0
 41
0
  0
VERTEX
  8
0
 10
26.2962
 20
115.519
 30
0.0
 40
0
 41
0
  0
VERTEX
  8
0
 10
26.6306
 20
115.447
 30
0.0
 40
0
 41
0
  0
VERTEX
  8
0
 10
26.9625
 20
115.368
 30
0.0
 40
0
 41
0
  0
VERTEX
  8
0
 10
27.2915
 20
115.283
 30
0.0
 40
0
 41
0
  0
VERTEX
  8
0
 10
27.6176
 20
115.19
 30
0.0
 40
0
 41
0
  0
VERTEX
  8
0
 10
27.9408
 20
115.091
 30
0.0
 40
0
 41
0
  0
VERTEX
  8
0
 10
28.2607
 20
114.985
 30
0.0
 40
0
 41
0
  0
VERTEX
  8
0
 10
28.5774
 20
114.873
 30
0.0
 40
0
 41
0
  0
VERTEX
  8
0
 10
28.8904
 20
114.754
 30
0.0
 40
0
 41
0
  0
VERTEX
  8
0
 10
29.2
 20
114.629
 30
0.0
 40
0
 41
0
  0
VERTEX
  8
0
 10
29.506
 20
114.498
 30
0.0
 40
0
 41
0
  0
VERTEX
  8
0
 10
29.8079
 20
114.36
 30
0.0
 40
0
 41
0
  0
VERTEX
  8
0
 10
30.1061
 20
114.217
 30
0.0
 40
0
 41
0
  0
VERTEX
  8
0
 10
30.4
 20
114.067
 30
0.0
 40
0
 41
0
  0
VERTEX
  8
0
 10
30.6899
 20
113.912
 30
0.0
 40
0
 41
0
  0
VERTEX
  8
0
 10
30.9754
 20
113.751
 30
0.0
 40
0
 41
0
  0
VERTEX
  8
0
 10
31.2564
 20
113.584
 30
0.0
 40
0
 41
0
  0
VERTEX
  8
0
 10
31.5331
 20
113.412
 30
0.0
 40
0
 41
0
  0
VERTEX
  8
0
 10
31.8049
 20
113.234
 30
0.0
 40
0
 41
0
  0
VERTEX
  8
0
 10
32.0721
 20
113.052
 30
0.0
 40
0
 41
0
  0
VERTEX
  8
0
 10
32.3344
 20
112.864
 30
0.0
 40
0
 41
0
  0
VERTEX
  8
0
 10
32.5918
 20
112.671
 30
0.0
 40
0
 41
0
  0
VERTEX
  8
0
 10
32.8442
 20
112.473
 30
0.0
 40
0
 41
0
  0
VERTEX
  8
0
 10
33.0914
 20
112.27
 30
0.0
 40
0
 41
0
  0
VERTEX
  8
0
 10
33.3335
 20
112.063
 30
0.0
 40
0
 41
0
  0
VERTEX
  8
0
 10
33.5703
 20
111.851
 30
0.0
 40
0
 41
0
  0
VERTEX
  8
0
 10
33.8015
 20
111.635
 30
0.0
 40
0
 41
0
  0
VERTEX
  8
0
 10
34.0275
 20
111.415
 30
0.0
 40
0
 41
0
  0
VERTEX
  8
0
 10
34.2478
 20
111.19
 30
0.0
 40
0
 41
0
  0
VERTEX
  8
0
 10
34.4626
 20
110.962
 30
0.0
 40
0
 41
0
  0
VERTEX
  8
0
 10
34.6717
 20
110.729
 30
0.0
 40
0
 41
0
  0
VERTEX
  8
0
 10
34.875
 20
110.493
 30
0.0
 40
0
 41
0
  0
VERTEX
  8
0
 10
35.0725
 20
110.254
 30
0.0
 40
0
 41
0
  0
VERTEX
  8
0
 10
35.2642
 20
110.011
 30
0.0
 40
0
 41
0
  0
VERTEX
  8
0
 10
35.4499
 20
109.765
 30
0.0
 40
0
 41
0
  0
VERTEX
  8
0
 10
35.6297
 20
109.515
 30
0.0
 40
0
 41
0
  0
VERTEX
  8
0
 10
35.8033
 20
109.263
 30
0.0
 40
0
 41
0
  0
VERTEX
  8
0
 10
35.9711
 20
109.007
 30
0.0
 40
0
 41
0
  0
VERTEX
  8
0
 10
36.1326
 20
108.749
 30
0.0
 40
0
 41
0
  0
VERTEX
  8
0
 10
36.2879
 20
108.489
 30
0.0
 40
0
 41
0
  0
VERTEX
  8
0
 10
36.4372
 20
108.226
 30
0.0
 40
0
 41
0
  0
VERTEX
  8
0
 10
36.5801
 20
107.96
 30
0.0
 40
0
 41
0
  0
VERTEX
  8
0
 10
36.7168
 20
107.693
 30
0.0
 40
0
 41
0
  0
VERTEX
  8
0
 10
36.8472
 20
107.424
 30
0.0
 40
0
 41
0
  0
VERTEX
  8
0
 10
36.9714
 20
107.152
 30
0.0
 40
0
 41
0
  0
VERTEX
  8
0
 10
37.0892
 20
106.879
 30
0.0
 40
0
 41
0
  0
VERTEX
  8
0
 10
37.2007
 20
106.605
 30
0.0
 40
0
 41
0
  0
VERTEX
  8
0
 10
37.3057
 20
106.329
 30
0.0
 40
0
 41
0
  0
VERTEX
  8
0
 10
37.4044
 20
106.052
 30
0.0
 40
0
 41
0
  0
VERTEX
  8
0
 10
37.4968
 20
105.773
 30
0.0
 40
0
 41
0
  0
VERTEX
  8
0
 10
37.5828
 20
105.494
 30
0.0
 40
0
 41
0
  0
VERTEX
  8
0
 10
37.6624
 20
105.214
 30
0.0
 40
0
 41
0
  0
VERTEX
  8
0
 10
37.7357
 20
104.933
 30
0.0
 40
0
 41
0
  0
VERTEX
  8
0
 10
37.8025
 20
104.652
 30
0.0
 40
0
 41
0
  0
VERTEX
  8
0
 10
37.8631
 20
104.37
 30
0.0
 40
0
 41
0
  0
VERTEX
  8
0
 10
37.9172
 20
104.088
 30
0.0
 40
0
 41
0
  0
VERTEX
  8
0
 10
37.965
 20
103.806
 30
0.0
 40
0
 41
0
  0
VERTEX
  8
0
 10
38.0065
 20
103.523
 30
0.0
 40
0
 41
0
  0
VERTEX
  8
0
 10
38.0418
 20
103.241
 30
0.0
 40
0
 41
0
  0
VERTEX
  8
0
 10
38.0708
 20
102.96
 30
0.0
 40
0
 41
0
  0
VERTEX
  8
0
 10
38.0935
 20
102.678
 30
0.0
 40
0
 41
0
  0
VERTEX
  8
0
 10
38.1101
 20
102.398
 30
0.0
 40
0
 41
0
  0
VERTEX
  8
0
 10
38.1204
 20
102.118
 30
0.0
 40
0
 41
0
  0
VERTEX
  8
0
 10
38.1247
 20
101.839
 30
0.0
 40
0
 41
0
  0
VERTEX
  8
0
 10
38.1228
 20
101.561
 30
0.0
 40
0
 41
0
  0
VERTEX
  8
0
 10
38.1149
 20
101.284
 30
0.0
 40
0
 41
0
  0
VERTEX
  8
0
 10
38.101
 20
101.008
 30
0.0
 40
0
 41
0
  0
VERTEX
  8
0
 10
38.0811
 20
100.734
 30
0.0
 40
0
 41
0
  0
VERTEX
  8
0
 10
38.0554
 20
100.461
 30
0.0
 40
0
 41
0
  0
VERTEX
  8
0
 10
38.0237
 20
100.189
 30
0.0
 40
0
 41
0
  0
VERTEX
  8
0
 10
37.9864
 20
99.92
 30
0.0
 40
0
 41
0
  0
VERTEX
  8
0
 10
37.9433
 20
99.6524
 30
0.0
 40
0
 41
0
  0
VERTEX
  8
0
 10
37.8944
 20
99.3868
 30
0.0
 40
0
 41
0
  0
VERTEX
  8
0
 10
37.84
 20
99.1233
 30
0.0
 40
0
 41
0
  0
VERTEX
  8
0
 10
37.7801
 20
98.8621
 30
0.0
 40
0
 41
0
  0
VERTEX
  8
0
 10
37.7147
 20
98.6032
 30
0.0
 40
0
 41
0
  0
VERTEX
  8
0
 10
37.6439
 20
98.3467
 30
0.0
 40
0
 41
0
  0
VERTEX
  8
0
 10
37.5678
 20
98.0928
 30
0.0
 40
0
 41
0
  0
VERTEX
  8
0
 10
37.4864
 20
97.8417
 30
0.0
 40
0
 41
0
  0
VERTEX
  8
0
 10
37.3999
 20
97.5932
 30
0.0
 40
0
 41
0
  0
VERTEX
  8
0
 10
37.3082
 20
97.3478
 30
0.0
 40
0
 41
0
  0
VERTEX
  8
0
 10
37.2115
 20
97.1053
 30
0.0
 40
0
 41
0
  0
VERTEX
  8
0
 10
37.11
 20
96.866
 30
0.0
 40
0
 41
0
  0
VERTEX
  8
0
 10
37.0036
 20
96.6297
 30
0.0
 40
0
 41
0
  0
VERTEX
  8
0
 10
36.8925
 20
96.3969
 30
0.0
 40
0
 41
0
  0
VERTEX
  8
0
 10
36.7768
 20
96.1674
 30
0.0
 40
0
 41
0
  0
VERTEX
  8
0
 10
36.6565
 20
95.9414
 30
0.0
 40
0
 41
0
  0
VERTEX
  8
0
 10
36.5317
 20
95.719
 30
0.0
 40
0
 41
0
  0
VERTEX
  8
0
 10
36.4026
 20
95.5003
 30
0.0
 40
0
 41
0
  0
VERTEX
  8
0
 10
36.2692
 20
95.2853
 30
0.0
 40
0
 41
0
  0
VERTEX
  8
0
 10
36.1317
 20
95.0742
 30
0.0
 40
0
 41
0
  0
VERTEX
  8
0
 10
35.99
 20
94.8669
 30
0.0
 40
0
 41
0
  0
VERTEX
  8
0
 10
35.8444
 20
94.6636
 30
0.0
 40
0
 41
0
  0
VERTEX
  8
0
 10
35.695
 20
94.4644
 30
0.0
 40
0
 41
0
  0
VERTEX
  8
0
 10
35.5418
 20
94.2694
 30
0.0
 40
0
 41
0
  0
VERTEX
  8
0
 10
35.385
 20
94.0785
 30
0.0
 40
0
 41
0
  0
VERTEX
  8
0
 10
35.2246
 20
93.8919
 30
0.0
 40
0
 41
0
  0
VERTEX
  8
0
 10
35.0608
 20
93.7097
 30
0.0
 40
0
 41
0
  0
VERTEX
  8
0
 10
34.8936
 20
93.5318
 30
0.0
 40
0
 41
0
  0
VERTEX
  8
0
 10
34.7233
 20
93.3585
 30
0.0
 40
0
 41
0
  0
VERTEX
  8
0
 10
34.55
 20
93.1896
 30
0.0
 40
0
 41
0
  0
VERTEX
  8
0
 10
34.3736
 20
93.0253
 30
0.0
 40
0
 41
0
  0
VERTEX
  8
0
 10
34.1944
 20
92.8656
 30
0.0
 40
0
 41
0
  0
VERTEX
  8
0
 10
34.0124
 20
92.7106
 30
0.0
 40
0
 41
0
  0
VERTEX
  8
0
 10
33.8278
 20
92.5601
 30
0.0
 40
0
 41
0
  0
VERTEX
  8
0
 10
33.6407
 20
92.4146
 30
0.0
 40
0
 41
0
  0
VERTEX
  8
0
 10
33.4513
 20
92.2738
 30
0.0
 40
0
 41
0
  0
VERTEX
  8
0
 10
33.2594
 20
92.1378
 30
0.0
 40
0
 41
0
  0
VERTEX
  8
0
 10
33.0656
 20
92.0067
 30
0.0
 40
0
 41
0
  0
VERTEX
  8
0
 10
32.8694
 20
91.8804
 30
0.0
 40
0
 41
0
  0
VERTEX
  8
0
 10
32.6717
 20
91.759
 30
0.0
 40
0
 41
0
  0
VERTEX
  8
0
 10
32.4719
 20
91.6426
 30
0.0
 40
0
 41
0
  0
VERTEX
  8
0
 10
32.2706
 20
91.5313
 30
0.0
 40
0
 41
0
  0
VERTEX
  8
0
 10
32.0676
 20
91.4247
 30
0.0
 40
0
 41
0
  0
VERTEX
  8
0
 10
31.8632
 20
91.3233
 30
0.0
 40
0
 41
0
  0
VERTEX
  8
0
 10
31.6575
 20
91.2269
 30
0.0
 40
0
 41
0
  0
VERTEX
  8
0
 10
31.4506
 20
91.1354
 30
0.0
 40
0
 41
0
  0
VERTEX
  8
0
 10
31.2426
 20
91.049
 30
0.0
 40
0
 41
0
  0
VERTEX
  8
0
 10
31.0336
 20
90.9678
 30
0.0
 40
0
 41
0
  0
VERTEX
  8
0
 10
30.8239
 20
90.8914
 30
0.0
 40
0
 41
0
  0
VERTEX
  8
0
 10
30.6133
 20
90.8201
 30
0.0
 40
0
 41
0
  0
VERTEX
  8
0
 10
30.4021
 20
90.7539
 30
0.0
 40
0
 41
0
  0
VERTEX
  8
0
 10
30.1906
 20
90.6926
 30
0.0
 40
0
 41
0
  0
VERTEX
  8
0
 10
29.9785
 20
90.6365
 30
0.0
 40
0
 41
0
  0
VERTEX
  8
0
 10
29.7662
 20
90.5853
 30
0.0
 40
0
 41
0
  0
VERTEX
  8
0
 10
29.5539
 20
90.539
 30
0.0
 40
0
 41
0
  0
VERTEX
  8
0
 10
29.3414
 20
90.4979
 30
0.0
 40
0
 41
0
  0
VERTEX
  8
0
 10
29.129
 20
90.4617
 30
0.0
 40
0
 41
0
  0
VERTEX
  8
0
 10
28.9169
 20
90.4303
 30
0.0
 40
0
 41
0
  0
VERTEX
  8
0
 10
28.7051
 20
90.4039
 30
0.0
 40
0
 41
0
  0
VERTEX
  8
0
 10
28.4938
 20
90.3824
 30
0.0
 40
0
 41
0
  0
VERTEX
  8
0
 10
28.2829
 20
90.3657
 30
0.0
 40
0
 41
0
  0
VERTEX
  8
0
 10
28.0726
 20
90.3539
 30
0.0
 40
0
 41
0
  0
VERTEX
  8
0
 10
27.8632
 20
90.3468
 30
0.0
 40
0
 41
0
  0
VERTEX
  8
0
 10
27.6546
 20
90.3446
 30
0.0
 40
0
 41
0
  0
VERTEX
  8
0
 10
27.4471
 20
90.3469
 30
0.0
 40
0
 41
0
  0
VERTEX
  8
0
 10
27.2406
 20
90.354
 30
0.0
 40
0
 41
0
  0
VERTEX
  8
0
 10
27.0351
 20
90.3658
 30
0.0
 40
0
 41
0
  0
VERTEX
  8
0
 10
26.8311
 20
90.3821
 30
0.0
 40
0
 41
0
  0
VERTEX
  8
0
 10
26.6285
 20
90.4029
 30
0.0
 40
0
 41
0
  0
VERTEX
  8
0
 10
26.4272
 20
90.4283
 30
0.0
 40
0
 41
0
  0
VERTEX
  8
0
 10
26.2276
 20
90.4581
 30
0.0
 40
0
 41
0
  0
VERTEX
  8
0
 10
26.0297
 20
90.4922
 30
0.0
 40
0
 41
0
  0
VERTEX
  8
0
 10
25.8336
 20
90.5307
 30
0.0
 40
0
 41
0
  0
VERTEX
  8
0
 10
25.6393
 20
90.5735
 30
0.0
 40
0
 41
0
  0
VERTEX
  8
0
 10
25.4469
 20
90.6204
 30
0.0
 40
0
 41
0
  0
VERTEX
  8
0
 10
25.2567
 20
90.6715
 30
0.0
 40
0
 41
0
  0
VERTEX
  8
0
 10
25.0686
 20
90.7267
 30
0.0
 40
0
 41
0
  0
VERTEX
  8
0
 10
24.8826
 20
90.7858
 30
0.0
 40
0
 41
0
  0
VERTEX
  8
0
 10
24.699
 20
90.8489
 30
0.0
 40
0
 41
0
  0
VERTEX
  8
0
 10
24.5179
 20
90.916
 30
0.0
 40
0
 41
0
  0
VERTEX
  8
0
 10
24.3392
 20
90.9867
 30
0.0
 40
0
 41
0
  0
VERTEX
  8
0
 10
24.1631
 20
91.0613
 30
0.0
 40
0
 41
0
  0
VERTEX
  8
0
 10
23.9894
 20
91.1393
 30
0.0
 40
0
 41
0
  0
VERTEX
  8
0
 10
23.8186
 20
91.2211
 30
0.0
 40
0
 41
0
  0
VERTEX
  8
0
 10
23.6507
 20
91.3064
 30
0.0
 40
0
 41
0
  0
VERTEX
  8
0
 10
23.4854
 20
91.395
 30
0.0
 40
0
 41
0
  0
VERTEX
  8
0
 10
23.3232
 20
91.4869
 30
0.0
 40
0
 41
0
  0
VERTEX
  8
0
 10
23.1639
 20
91.5822
 30
0.0
 40
0
 41
0
  0
VERTEX
  8
0
 10
23.0076
 20
91.6806
 30
0.0
 40
0
 41
0
  0
VERTEX
  8
0
 10
22.8546
 20
91.7821
 30
0.0
 40
0
 41
0
  0
VERTEX
  8
0
 10
22.7046
 20
91.8865
 30
0.0
 40
0
 41
0
  0
VERTEX
  8
0
 10
22.5579
 20
91.994
 30
0.0
 40
0
 41
0
  0
VERTEX
  8
0
 10
22.4144
 20
92.1042
 30
0.0
 40
0
 41
0
  0
VERTEX
  8
0
 10
22.2744
 20
92.2172
 30
0.0
 40
0
 41
0
  0
VERTEX
  8
0
 10
22.1378
 20
92.3328
 30
0.0
 40
0
 41
0
  0
VERTEX
  8
0
 10
22.0044
 20
92.451
 30
0.0
 40
0
 41
0
  0
VERTEX
  8
0
 10
21.8747
 20
92.5715
 30
0.0
 40
0
 41
0
  0
VERTEX
  8
0
 10
21.7485
 20
92.6946
 30
0.0
 40
0
 41
0
  0
VERTEX
  8
0
 10
21.6258
 20
92.8197
 30
0.0
 40
0
 41
0
  0
VERTEX
  8
0
 10
21.5068
 20
92.9472
 30
0.0
 40
0
 41
0
  0
VERTEX
  8
0
 10
21.3915
 20
93.0768
 30
0.0
 40
0
 41
0
  0
VERTEX
  8
0
 10
21.2799
 20
93.2082
 30
0.0
 40
0
 41
0
  0
VERTEX
  8
0
 10
21.1718
 20
93.3417
 30
0.0
 40
0
 41
0
  0
VERTEX
  8
0
 10
21.0676
 20
93.4768
 30
0.0
 40
0
 41
0
  0
VERTEX
  8
0
 10
20.9672
 20
93.6137
 30
0.0
 40
0
 41
0
  0
VERTEX
  8
0
 10
20.8706
 20
93.7522
 30
0.0
 40
0
 41
0
  0
VERTEX
  8
0
 10
20.7778
 20
93.8922
 30
0.0
 40
0
 41
0
  0
VERTEX
  8
0
 10
20.6889
 20
94.0336
 30
0.0
 40
0
 41
0
  0
VERTEX
  8
0
 10
20.6037
 20
94.1764
 30
0.0
 40
0
 41
0
  0
VERTEX
  8
0
 10
20.5226
 20
94.3203
 30
0.0
 40
0
 41
0
  0
VERTEX
  8
0
 10
20.4454
 20
94.4653
 30
0.0
 40
0
 41
0
  0
VERTEX
  8
0
 10
20.3719
 20
94.6114
 30
0.0
 40
0
 41
0
  0
VERTEX
  8
0
 10
20.3025
 20
94.7583
 30
0.0
 40
0
 41
0
  0
VERTEX
  8
0
 10
20.2371
 20
94.9061
 30
0.0
 40
0
 41
0
  0
VERTEX
  8
0
 10
20.1754
 20
95.0546
 30
0.0
 40
0
 41
0
  0
VERTEX
  8
0
 10
20.1178
 20
95.2037
 30
0.0
 40
0
 41
0
  0
VERTEX
  8
0
 10
20.064
 20
95.3533
 30
0.0
 40
0
 41
0
  0
VERTEX
  8
0
 10
20.0143
 20
95.5035
 30
0.0
 40
0
 41
0
  0
VERTEX
  8
0
 10
19.9685
 20
95.6539
 30
0.0
 40
0
 41
0
  0
VERTEX
  8
0
 10
19.9265
 20
95.8044
 30
0.0
 40
0
 41
0
  0
VERTEX
  8
0
 10
19.8885
 20
95.9553
 30
0.0
 40
0
 41
0
  0
VERTEX
  8
0
 10
19.8544
 20
96.106
 30
0.0
 40
0
 41
0
  0
VERTEX
  8
0
 10
19.8242
 20
96.2568
 30
0.0
 40
0
 41
0
  0
VERTEX
  8
0
 10
19.7978
 20
96.4074
 30
0.0
 40
0
 41
0
  0
VERTEX
  8
0
 10
19.7754
 20
96.5576
 30
0.0
 40
0
 41
0
  0
VERTEX
  8
0
 10
19.7567
 20
96.7078
 30
0.0
 40
0
 41
0
  0
VERTEX
  8
0
 10
19.7418
 20
96.8572
 30
0.0
 40
0
 41
0
  0
VERTEX
  8
0
 10
19.7308
 20
97.0064
 30
0.0
 40
0
 41
0
  0
VERTEX
  8
0
 10
19.7235
 20
97.1547
 30
0.0
 40
0
 41
0
  0
VERTEX
  8
0
 10
19.72
 20
97.3025
 30
0.0
 40
0
 41
0
  0
VERTEX
  8
0
 10
19.7201
 20
97.4494
 30
0.0
 40
0
 41
0
  0
VERTEX
  8
0
 10
19.724
 20
97.5954
 30
0.0
 40
0
 41
0
  0
VERTEX
  8
0
 10
19.7314
 20
97.7406
 30
0.0
 40
0
 41
0
  0
VERTEX
  8
0
 10
19.7425
 20
97.8846
 30
0.0
 40
0
 41
0
  0
VERTEX
  8
0
 10
19.7572
 20
98.0275
 30
0.0
 40
0
 41
0
  0
VERTEX
  8
0
 10
19.7753
 20
98.169
 30
0.0
 40
0
 41
0
  0
VERTEX
  8
0
 10
19.7969
 20
98.3094
 30
0.0
 40
0
 41
0
  0
VERTEX
  8
0
 10
19.8221
 20
98.4483
 30
0.0
 40
0
 41
0
  0
VERTEX
  8
0
 10
19.8506
 20
98.5858
 30
0.0
 40
0
 41
0
  0
VERTEX
  8
0
 10
19.8825
 20
98.7218
 30
0.0
 40
0
 41
0
  0
VERTEX
  8
0
 10
19.9176
 20
98.856
 30
0.0
 40
0
 41
0
  0
VERTEX
  8
0
 10
19.956
 20
98.9886
 30
0.0
 40
0
 41
0
  0
VERTEX
  8
0
 10
19.9976
 20
99.1193
 30
0.0
 40
0
 41
0
  0
VERTEX
  8
0
 10
20.0424
 20
99.2483
 30
0.0
 40
0
 41
0
  0
VERTEX
  8
0
 10
20.0901
 20
99.3753
 30
0.0
 40
0
 41
0
  0
VERTEX
  8
0
 10
20.1411
 20
99.5003
 30
0.0
 40
0
 41
0
  0
VERTEX
  8
0
 10
20.1949
 20
99.6231
 30
0.0
 40
0
 41
0
  0
VERTEX
  8
0
 10
20.2517
 20
99.7439
 30
0.0
 40
0
 41
0
  0
VERTEX
  8
0
 10
20.3114
 20
99.8624
 30
0.0
 40
0
 41
0
  0
VERTEX
  8
0
 10
20.3738
 20
99.9786
 30
0.0
 40
0
 41
0
  0
VERTEX
  8
0
 10
20.4389
 20
100.093
 30
0.0
 40
0
 41
0
  0
VERTEX
  8
0
 10
20.5067
 20
100.204
 30
0.0
 40
0
 41
0
  0
VERTEX
  8
0
 10
20.5772
 20
100.313
 30
0.0
 40
0
 41
0
  0
VERTEX
  8
0
 10
20.6501
 20
100.419
 30
0.0
 40
0
 41
0
  0
VERTEX
  8
0
 10
20.7256
 20
100.523
 30
0.0
 40
0
 41
0
  0
VERTEX
  8
0
 10
20.8033
 20
100.624
 30
0.0
 40
0
 41
0
  0
VERTEX
  8
0
 10
20.8835
 20
100.723
 30
0.0
 40
0
 41
0
  0
VERTEX
  8
0
 10
20.9658
 20
100.819
 30
0.0
 40
0
 41
0
  0
VERTEX
  8
0
 10
21.0504
 20
100.912
 30
0.0
 40
0
 41
0
  0
VERTEX
  8
0
 10
21.1371
 20
101.002
 30
0.0
 40
0
 41
0
  0
VERTEX
  8
0
 10
21.2258
 20
101.089
 30
0.0
 40
0
 41
0
  0
VERTEX
  8
0
 10
21.3165
 20
101.173
 30
0.0
 40
0
 41
0
  0
VERTEX
  8
0
 10
21.409
 20
101.254
 30
0.0
 40
0
 41
0
  0
VERTEX
  8
0
 10
21.5033
 20
101.332
 30
0.0
 40
0
 41
0
  0
VERTEX
  8
0
 10
21.5993
 20
101.407
 30
0.0
 40
0
 41
0
  0
VERTEX
  8
0
 10
21.6971
 20
101.479
 30
0.0
 40
0
 41
0
  0
VERTEX
  8
0
 10
21.7962
 20
101.547
 30
0.0
 40
0
 41
0
  0
VERTEX
  8
0
 10
21.8969
 20
101.613
 30
0.0
 40
0
 41
0
  0
VERTEX
  8
0
 10
21.999
 20
101.675
 30
0.0
 40
0
 41
0
  0
VERTEX
  8
0
 10
22.1024
 20
101.733
 30
0.0
 40
0
 41
0
  0
VERTEX
  8
0
 10
22.2069
 20
101.789
 30
0.0
 40
0
 41
0
  0
VERTEX
  8
0
 10
22.3126
 20
101.841
 30
0.0
 40
0
 41
0
  0
VERTEX
  8
0
 10
22.4194
 20
101.89
 30
0.0
 40
0
 41
0
  0
VERTEX
  8
0
 10
22.5271
 20
101.935
 30
0.0
 40
0
 41
0
  0
VERTEX
  8
0
 10
22.6356
 20
101.977
 30
0.0
 40
0
 41
0
  0
VERTEX
  8
0
 10
22.745
 20
102.015
 30
0.0
 40
0
 41
0
  0
VERTEX
  8
0
 10
22.8549
 20
102.049
 30
0.0
 40
0
 41
0
  0
VERTEX
  8
0
 10
22.9656
 20
102.081
 30
0.0
 40
0
 41
0
  0
VERTEX
  8
0
 10
23.0765
 20
102.108
 30
0.0
 40
0
 41
0
  0
VERTEX
  8
0
 10
23.1881
 20
102.132
 30
0.0
 40
0
 41
0
  0
VERTEX
  8
0
 10
23.2997
 20
102.152
 30
0.0
 40
0
 41
0
  0
VERTEX
  8
0
 10
23.4117
 20
102.169
 30
0.0
 40
0
 41
0
  0
VERTEX
  8
0
 10
23.5237
 20
102.182
 30
0.0
 40
0
 41
0
  0
VERTEX
  8
0
 10
23.6357
 20
102.192
 30
0.0
 40
0
 41
0
  0
VERTEX
  8
0
 10
23.7476
 20
102.197
 30
0.0
 40
0
 41
0
  0
VERTEX
  8
0
 10
23.8593
 20
102.199
 30
0.0
 40
0
 41
0
  0
VERTEX
  8
0
 10
23.9707
 20
102.198
 30
0.0
 40
0
 41
0
  0
VERTEX
  8
0
 10
24.0817
 20
102.192
 30
0.0
 40
0
 41
0
  0
VERTEX
  8
0
 10
24.1921
 20
102.183
 30
0.0
 40
0
 41
0
  0
VERTEX
  8
0
 10
24.3018
 20
102.171
 30
0.0
 40
0
 41
0
  0
VERTEX
  8
0
 10
24.4108
 20
102.154
 30
0.0
 40
0
 41
0
  0
VERTEX
  8
0
 10
24.5189
 20
102.134
 30
0.0
 40
0
 41
0
  0
VERTEX
  8
0
 10
24.6261
 20
102.11
 30
0.0
 40
0
 41
0
  0
VERTEX
  8
0
 10
24.7321
 20
102.083
 30
0.0
 40
0
 41
0
  0
VERTEX
  8
0
 10
24.8369
 20
102.052
 30
0.0
 40
0
 41
0
  0
VERTEX
  8
0
 10
24.9404
 20
102.017
 30
0.0
 40
0
 41
0
  0
VERTEX
  8
0
 10
25.0424
 20
101.979
 30
0.0
 40
0
 41
0
  0
VERTEX
  8
0
 10
25.1428
 20
101.937
 30
0.0
 40
0
 41
0
  0
VERTEX
  8
0
 10
25.2415
 20
101.891
 30
0.0
 40
0
 41
0
  0
VERTEX
  8
0
 10
25.3383
 20
101.842
 30
0.0
 40
0
 41
0
  0
VERTEX
  8
0
 10
25.4332
 20
101.79
 30
0.0
 40
0
 41
0
  0
VERTEX
  8
0
 10
25.526
 20
101.734
 30
0.0
 40
0
 41
0
  0
VERTEX
  8
0
 10
25.6165
 20
101.674
 30
0.0
 40
0
 41
0
  0
VERTEX
  8
0
 10
25.7046
 20
101.612
 30
0.0
 40
0
 41
0
  0
VERTEX
  8
0
 10
25.7903
 20
101.545
 30
0.0
 40
0
 41
0
  0
VERTEX
  8
0
 10
25.8733
 20
101.476
 30
0.0
 40
0
 41
0
  0
VERTEX
  8
0
 10
25.9536
 20
101.404
 30
0.0
 40
0
 41
0
  0
VERTEX
  8
0
 10
26.031
 20
101.329
 30
0.0
 40
0
 41
0
  0
VERTEX
  8
0
 10
26.1054
 20
101.25
 30
0.0
 40
0
 41
0
  0
VERTEX
  8
0
 10
26.1767
 20
101.169
 30
0.0
 40
0
 41
0
  0
VERTEX
  8
0
 10
26.2446
 20
101.085
 30
0.0
 40
0
 41
0
  0
VERTEX
  8
0
 10
26.3092
 20
100.999
 30
0.0
 40
0
 41
0
  0
VERTEX
  8
0
 10
26.3701
 20
100.909
 30
0.0
 40
0
 41
0
  0
VERTEX
  8
0
 10
26.4275
 20
100.818
 30
0.0
 40
0
 41
0
  0
VERTEX
  8
0
 10
26.4811
 20
100.724
 30
0.0
 40
0
 41
0
  0
VERTEX
  8
0
 10
26.531
 20
100.628
 30
0.0
 40
0
 41
0
  0
VERTEX
  8
0
 10
26.5768
 20
100.53
 30
0.0
 40
0
 41
0
  0
VERTEX
  8
0
 10
26.6185
 20
100.431
 30
0.0
 40
0
 41
0
  0
VERTEX
  8
0
 10
26.6561
 20
100.329
 30
0.0
 40
0
 41
0
  0
VERTEX
  8
0
 10
26.6896
 20
100.226
 30
0.0
 40
0
 41
0
  0
VERTEX
  8
0
 10
26.7186
 20
100.122
 30
0.0
 40
0
 41
0
  0
VERTEX
  8
0
 10
26.7433
 20
100.017
 30
0.0
 40
0
 41
0
  0
VERTEX
  8
0
 10
26.7638
 20
99.9106
 30
0.0
 40
0
 41
0
  0
VERTEX
  8
0
 10
26.7796
 20
99.8035
 30
0.0
 40
0
 41
0
  0
VERTEX
  8
0
 10
26.7908
 20
99.6958
 30
0.0
 40
0
 41
0
  0
VERTEX
  8
0
 10
26.7978
 20
99.5878
 30
0.0
 40
0
 41
0
  0
VERTEX
  8
0
 10
26.8
 20
99.4796
 30
0.0
 40
0
 41
0
  0
VERTEX
  8
0
 10
26.7997
 20
99.489
 30
0.0
 40
0
 41
0
  0
VERTEX
  8
0
 10
26.7992
 20
99.4983
 30
0.0
 40
0
 41
0
  0
VERTEX
  8
0
 10
26.7982
 20
99.5075
 30
0.0
 40
0
 41
0
  0
VERTEX
  8
0
 10
26.7969
 20
99.5165
 30
0.0
 40
0
 41
0
  0
VERTEX
  8
0
 10
26.7953
 20
99.5253
 30
0.0
 40
0
 41
0
  0
VERTEX
  8
0
 10
26.7932
 20
99.5338
 30
0.0
 40
0
 41
0
  0
VERTEX
  8
0
 10
26.791
 20
99.5418
 30
0.0
 40
0
 41
0
  0
VERTEX
  8
0
 10
26.7885
 20
99.5496
 30
0.0
 40
0
 41
0
  0
VERTEX
  8
0
 10
26.7858
 20
99.5568
 30
0.0
 40
0
 41
0
  0
VERTEX
  8
0
 10
26.7829
 20
99.5635
 30
0.0
 40
0
 41
0
  0
VERTEX
  8
0
 10
26.7801
 20
99.5697
 30
0.0
 40
0
 41
0
  0
VERTEX
  8
0
 10
26.7771
 20
99.5754
 30
0.0
 40
0
 41
0
  0
VERTEX
  8
0
 10
26.7743
 20
99.5804
 30
0.0
 40
0
 41
0
  0
VERTEX
  8
0
 10
26.7714
 20
99.5849
 30
0.0
 40
0
 41
0
  0
VERTEX
  8
0
 10
26.7689
 20
99.5888
 30
0.0
 40
0
 41
0
  0
VERTEX
  8
0
 10
26.7664
 20
99.5919
 30
0.0
 40
0
 41
0
  0
VERTEX
  8
0
 10
26.7643
 20
99.5946
 30
0.0
 40
0
 41
0
  0
VERTEX
  8
0
 10
26.7625
 20
99.5967
 30
0.0
 40
0
 41
0
  0
VERTEX
  8
0
 10
26.7613
 20
99.5981
 30
0.0
 40
0
 41
0
  0
VERTEX
  8
0
 10
26.7604
 20
99.5989
 30
0.0
 40
0
 41
0
  0
VERTEX
  8
0
 10
26.76
 20
99.5992
 30
0.0
 40
0
 41
0
  0
VERTEX
  8
0
 10
26.7604
 20
99.5989
 30
0.0
 40
0
 41
0
  0
VERTEX
  8
0
 10
26.7613
 20
99.5982
 30
0.0
 40
0
 41
0
  0
VERTEX
  8
0
 10
26.7631
 20
99.5969
 30
0.0
 40
0
 41
0
  0
VERTEX
  8
0
 10
26.7654
 20
99.5953
 30
0.0
 40
0
 41
0
  0
VERTEX
  8
0
 10
26.7687
 20
99.5933
 30
0.0
 40
0
 41
0
  0
VERTEX
  8
0
 10
26.7728
 20
99.5911
 30
0.0
 40
0
 41
0
  0
VERTEX
  8
0
 10
26.7778
 20
99.5886
 30
0.0
 40
0
 41
0
  0
VERTEX
  8
0
 10
26.7838
 20
99.5858
 30
0.0
 40
0
 41
0
  0
VERTEX
  8
0
 10
26.7907
 20
99.5829
 30
0.0
 40
0
 41
0
  0
VERTEX
  8
0
 10
26.7986
 20
99.58
 30
0.0
 40
0
 41
0
  0
VERTEX
  8
0
 10
26.8075
 20
99.5769
 30
0.0
 40
0
 41
0
  0
VERTEX
  8
0
 10
26.8175
 20
99.574
 30
0.0
 40
0
 41
0
  0
VERTEX
  8
0
 10
26.8285
 20
99.5712
 30
0.0
 40
0
 41
0
  0
VERTEX
  8
0
 10
26.8406
 20
99.5685
 30
0.0
 40
0
 41
0
  0
VERTEX
  8
0
 10
26.8536
 20
99.5661
 30
0.0
 40
0
 41
0
  0
VERTEX
  8
0
 10
26.8678
 20
99.5639
 30
0.0
 40
0
 41
0
  0
VERTEX
  8
0
 10
26.8831
 20
99.5622
 30
0.0
 40
0
 41
0
  0
VERTEX
  8
0
 10
26.8994
 20
99.5608
 30
0.0
 40
0
 41
0
  0
VERTEX
  8
0
 10
26.9168
 20
99.56
 30
0.0
 40
0
 41
0
  0
VERTEX
  8
0
 10
26.9351
 20
99.5597
 30
0.0
 40
0
 41
0
  0
VERTEX
  8
0
 10
26.9546
 20
99.5601
 30
0.0
 40
0
 41
0
  0
VERTEX
  8
0
 10
26.9751
 20
99.5611
 30
0.0
 40
0
 41
0
  0
VERTEX
  8
0
 10
26.9965
 20
99.5629
 30
0.0
 40
0
 41
0
  0
VERTEX
  8
0
 10
27.019
 20
99.5656
 30
0.0
 40
0
 41
0
  0
VERTEX
  8
0
 10
27.0424
 20
99.569
 30
0.0
 40
0
 41
0
  0
VERTEX
  8
0
 10
27.0665
 20
99.5735
 30
0.0
 40
0
 41
0
  0
VERTEX
  8
0
 10
27.0917
 20
99.5789
 30
0.0
 40
0
 41
0
  0
VERTEX
  8
0
 10
27.1176
 20
99.5853
 30
0.0
 40
0
 41
0
  0
VERTEX
  8
0
 10
27.1443
 20
99.5929
 30
0.0
 40
0
 41
0
  0
VERTEX
  8
0
 10
27.1718
 20
99.6015
 30
0.0
 40
0
 41
0
  0
VERTEX
  8
0
 10
27.2
 20
99.6114
 30
0.0
 40
0
 41
0
  0
VERTEX
  8
0
 10
27.2289
 20
99.6225
 30
0.0
 40
0
 41
0
  0
VERTEX
  8
0
 10
27.2583
 20
99.6349
 30
0.0
 40
0
 41
0
  0
VERTEX
  8
0
 10
27.2883
 20
99.6485
 30
0.0
 40
0
 41
0
  0
VERTEX
  8
0
 10
27.3189
 20
99.6636
 30
0.0
 40
0
 41
0
  0
VERTEX
  8
0
 10
27.3499
 20
99.68
 30
0.0
 40
0
 41
0
  0
VERTEX
  8
0
 10
27.3814
 20
99.6979
 30
0.0
 40
0
 41
0
  0
VERTEX
  8
0
 10
27.4131
 20
99.7172
 30
0.0
 40
0
 41
0
  0
VERTEX
  8
0
 10
27.4451
 20
99.7381
 30
0.0
 40
0
 41
0
  0
VERTEX
  8
0
 10
27.4775
 20
99.7604
 30
0.0
 40
0
 41
0
  0
VERTEX
  8
0
 10
27.51
 20
99.7843
 30
0.0
 40
0
 41
0
  0
VERTEX
  8
0
 10
27.5426
 20
99.8097
 30
0.0
 40
0
 41
0
  0
VERTEX
  8
0
 10
27.5753
 20
99.8368
 30
0.0
 40
0
 41
0
  0
VERTEX
  8
0
 10
27.6081
 20
99.8654
 30
0.0
 40
0
 41
0
  0
VERTEX
  8
0
 10
27.6407
 20
99.8957
 30
0.0
 40
0
 41
0
  0
VERTEX
  8
0
 10
27.6732
 20
99.9276
 30
0.0
 40
0
 41
0
  0
VERTEX
  8
0
 10
27.7054
 20
99.9613
 30
0.0
 40
0
 41
0
  0
VERTEX
  8
0
 10
27.7375
 20
99.9964
 30
0.0
 40
0
 41
0
  0
VERTEX
  8
0
 10
27.7693
 20
100.033
 30
0.0
 40
0
 41
0
  0
VERTEX
  8
0
 10
27.8007
 20
100.072
 30
0.0
 40
0
 41
0
  0
VERTEX
  8
0
 10
27.8315
 20
100.112
 30
0.0
 40
0
 41
0
  0
VERTEX
  8
0
 10
27.8621
 20
100.154
 30
0.0
 40
0
 41
0
  0
VERTEX
  8
0
 10
27.8919
 20
100.198
 30
0.0
 40
0
 41
0
  0
VERTEX
  8
0
 10
27.9211
 20
100.243
 30
0.0
 40
0
 41
0
  0
VERTEX
  8
0
 10
27.9497
 20
100.29
 30
0.0
 40
0
 41
0
  0
VERTEX
  8
0
 10
27.9775
 20
100.338
 30
0.0
 40
0
 41
0
  0
VERTEX
  8
0
 10
28.0044
 20
100.389
 30
0.0
 40
0
 41
0
  0
VERTEX
  8
0
 10
28.0306
 20
100.44
 30
0.0
 40
0
 41
0
  0
VERTEX
  8
0
 10
28.0557
 20
100.494
 30
0.0
 40
0
 41
0
  0
VERTEX
  8
0
 10
28.0797
 20
100.549
 30
0.0
 40
0
 41
0
  0
VERTEX
  8
0
 10
28.1028
 20
100.606
 30
0.0
 40
0
 41
0
  0
VERTEX
  8
0
 10
28.1247
 20
100.664
 30
0.0
 40
0
 41
0
  0
VERTEX
  8
0
 10
28.1454
 20
100.723
 30
0.0
 40
0
 41
0
  0
VERTEX
  8
0
 10
28.1649
 20
100.785
 30
0.0
 40
0
 41
0
  0
VERTEX
  8
0
 10
28.1831
 20
100.847
 30
0.0
 40
0
 41
0
  0
VERTEX
  8
0
 10
28.1999
 20
100.911
 30
0.0
 40
0
 41
0
  0
VERTEX
  8
0
 10
28.2153
 20
100.977
 30
0.0
 40
0
 41
0
  0
VERTEX
  8
0
 10
28.2292
 20
101.044
 30
0.0
 40
0
 41
0
  0
VERTEX
  8
0
 10
28.2414
 20
101.112
 30
0.0
 40
0
 41
0
  0
VERTEX
  8
0
 10
28.2522
 20
101.182
 30
0.0
 40
0
 41
0
  0
VERTEX
  8
0
 10
28.2613
 20
101.253
 30
0.0
 40
0
 41
0
  0
VERTEX
  8
0
 10
28.2686
 20
101.325
 30
0.0
 40
0
 41
0
  0
VERTEX
  8
0
 10
28.2743
 20
101.398
 30
0.0
 40
0
 41
0
  0
VERTEX
  8
0
 10
28.2781
 20
101.473
 30
0.0
 40
0
 41
0
  0
VERTEX
  8
0
 10
28.2801
 20
101.548
 30
0.0
 40
0
 41
0
  0
VERTEX
  8
0
 10
28.2801
 20
101.625
 30
0.0
 40
0
 41
0
  0
VERTEX
  8
0
 10
28.2783
 20
101.702
 30
0.0
 40
0
 41
0
  0
VERTEX
  8
0
 10
28.2744
 20
101.781
 30
0.0
 40
0
 41
0
  0
VERTEX
  8
0
 10
28.2686
 20
101.86
 30
0.0
 40
0
 41
0
  0
VERTEX
  8
0
 10
28.2606
 20
101.94
 30
0.0
 40
0
 41
0
  0
VERTEX
  8
0
 10
28.2506
 20
102.022
 30
0.0
 40
0
 41
0
  0
VERTEX
  8
0
 10
28.2383
 20
102.103
 30
0.0
 40
0
 41
0
  0
VERTEX
  8
0
 10
28.2239
 20
102.186
 30
0.0
 40
0
 41
0
  0
VERTEX
  8
0
 10
28.2072
 20
102.269
 30
0.0
 40
0
 41
0
  0
VERTEX
  8
0
 10
28.1882
 20
102.353
 30
0.0
 40
0
 41
0
  0
VERTEX
  8
0
 10
28.1669
 20
102.437
 30
0.0
 40
0
 41
0
  0
VERTEX
  8
0
 10
28.1435
 20
102.522
 30
0.0
 40
0
 41
0
  0
VERTEX
  8
0
 10
28.1175
 20
102.607
 30
0.0
 40
0
 41
0
  0
VERTEX
  8
0
 10
28.0892
 20
102.692
 30
0.0
 40
0
 41
0
  0
VERTEX
  8
0
 10
28.0585
 20
102.778
 30
0.0
 40
0
 41
0
  0
VERTEX
  8
0
 10
28.0253
 20
102.863
 30
0.0
 40
0
 41
0
  0
VERTEX
  8
0
 10
27.9897
 20
102.949
 30
0.0
 40
0
 41
0
  0
VERTEX
  8
0
 10
27.9515
 20
103.035
 30
0.0
 40
0
 41
0
  0
VERTEX
  8
0
 10
27.911
 20
103.121
 30
0.0
 40
0
 41
0
  0
VERTEX
  8
0
 10
27.8679
 20
103.207
 30
0.0
 40
0
 41
0
  0
VERTEX
  8
0
 10
27.8222
 20
103.293
 30
0.0
 40
0
 41
0
  0
VERTEX
  8
0
 10
27.774
 20
103.378
 30
0.0
 40
0
 41
0
  0
VERTEX
  8
0
 10
27.7232
 20
103.463
 30
0.0
 40
0
 41
0
  0
VERTEX
  8
0
 10
27.6699
 20
103.548
 30
0.0
 40
0
 41
0
  0
VERTEX
  8
0
 10
27.614
 20
103.632
 30
0.0
 40
0
 41
0
  0
VERTEX
  8
0
 10
27.5556
 20
103.716
 30
0.0
 40
0
 41
0
  0
VERTEX
  8
0
 10
27.4944
 20
103.799
 30
0.0
 40
0
 41
0
  0
VERTEX
  8
0
 10
27.4308
 20
103.882
 30
0.0
 40
0
 41
0
  0
VERTEX
  8
0
 10
27.3646
 20
103.964
 30
0.0
 40
0
 41
0
  0
VERTEX
  8
0
 10
27.2958
 20
104.045
 30
0.0
 40
0
 41
0
  0
VERTEX
  8
0
 10
27.2244
 20
104.125
 30
0.0
 40
0
 41
0
  0
VERTEX
  8
0
 10
27.1504
 20
104.204
 30
0.0
 40
0
 41
0
  0
VERTEX
  8
0
 10
27.0739
 20
104.282
 30
0.0
 40
0
 41
0
  0
VERTEX
  8
0
 10
26.9949
 20
104.359
 30
0.0
 40
0
 41
0
  0
VERTEX
  8
0
 10
26.9133
 20
104.435
 30
0.0
 40
0
 41
0
  0
VERTEX
  8
0
 10
26.8292
 20
104.51
 30
0.0
 40
0
 41
0
  0
VERTEX
  8
0
 10
26.7425
 20
104.583
 30
0.0
 40
0
 41
0
  0
VERTEX
  8
0
 10
26.6535
 20
104.655
 30
0.0
 40
0
 41
0
  0
VERTEX
  8
0
 10
26.5618
 20
104.725
 30
0.0
 40
0
 41
0
  0
VERTEX
  8
0
 10
26.4678
 20
104.794
 30
0.0
 40
0
 41
0
  0
VERTEX
  8
0
 10
26.3714
 20
104.861
 30
0.0
 40
0
 41
0
  0
VERTEX
  8
0
 10
26.2725
 20
104.927
 30
0.0
 40
0
 41
0
  0
VERTEX
  8
0
 10
26.1714
 20
104.991
 30
0.0
 40
0
 41
0
  0
VERTEX
  8
0
 10
26.0679
 20
105.052
 30
0.0
 40
0
 41
0
  0
VERTEX
  8
0
 10
25.9621
 20
105.113
 30
0.0
 40
0
 41
0
  0
VERTEX
  8
0
 10
25.854
 20
105.171
 30
0.0
 40
0
 41
0
  0
VERTEX
  8
0
 10
25.7436
 20
105.226
 30
0.0
 40
0
 41
0
  0
VERTEX
  8
0
 10
25.6311
 20
105.28
 30
0.0
 40
0
 41
0
  0
VERTEX
  8
0
 10
25.5165
 20
105.332
 30
0.0
 40
0
 41
0
  0
VERTEX
  8
0
 10
25.3999
 20
105.381
 30
0.0
 40
0
 41
0
  0
VERTEX
  8
0
 10
25.281
 20
105.428
 30
0.0
 40
0
 41
0
  0
VERTEX
  8
0
 10
25.1603
 20
105.473
 30
0.0
 40
0
 41
0
  0
VERTEX
  8
0
 10
25.0375
 20
105.515
 30
0.0
 40
0
 41
0
  0
VERTEX
  8
0
 10
24.9128
 20
105.555
 30
0.0
 40
0
 41
0
  0
VERTEX
  8
0
 10
24.7862
 20
105.592
 30
0.0
 40
0
 41
0
  0
VERTEX
  8
0
 10
24.6579
 20
105.626
 30
0.0
 40
0
 41
0
  0
VERTEX
  8
0
 10
24.5278
 20
105.658
 30
0.0
 40
0
 41
0
  0
VERTEX
  8
0
 10
24.396
 20
105.687
 30
0.0
 40
0
 41
0
  0
VERTEX
  8
0
 10
24.2626
 20
105.713
 30
0.0
 40
0
 41
0
  0
VERTEX
  8
0
 10
24.1276
 20
105.737
 30
0.0
 40
0
 41
0
  0
VERTEX
  8
0
 10
23.9911
 20
105.757
 30
0.0
 40
0
 41
0
  0
VERTEX
  8
0
 10
23.8532
 20
105.774
 30
0.0
 40
0
 41
0
  0
VERTEX
  8
0
 10
23.7139
 20
105.789
 30
0.0
 40
0
 41
0
  0
VERTEX
  8
0
 10
23.5733
 20
105.8
 30
0.0
 40
0
 41
0
  0
VERTEX
  8
0
 10
23.4314
 20
105.808
 30
0.0
 40
0
 41
0
  0
VERTEX
  8
0
 10
23.2885
 20
105.813
 30
0.0
 40
0
 41
0
  0
VERTEX
  8
0
 10
23.1443
 20
105.815
 30
0.0
 40
0
 41
0
  0
VERTEX
  8
0
 10
22.9992
 20
105.813
 30
0.0
 40
0
 41
0
  0
VERTEX
  8
0
 10
22.8531
 20
105.808
 30
0.0
 40
0
 41
0
  0
VERTEX
  8
0
 10
22.7061
 20
105.8
 30
0.0
 40
0
 41
0
  0
VERTEX
  8
0
 10
22.5583
 20
105.788
 30
0.0
 40
0
 41
0
  0
VERTEX
  8
0
 10
22.4099
 20
105.773
 30
0.0
 40
0
 41
0
  0
VERTEX
  8
0
 10
22.2607
 20
105.754
 30
0.0
 40
0
 41
0
  0
VERTEX
  8
0
 10
22.111
 20
105.732
 30
0.0
 40
0
 41
0
  0
VERTEX
  8
0
 10
21.9608
 20
105.707
 30
0.0
 40
0
 41
0
  0
VERTEX
  8
0
 10
21.8104
 20
105.677
 30
0.0
 40
0
 41
0
  0
VERTEX
  8
0
 10
21.6594
 20
105.645
 30
0.0
 40
0
 41
0
  0
VERTEX
  8
0
 10
21.5085
 20
105.608
 30
0.0
 40
0
 41
0
  0
VERTEX
  8
0
 10
21.3572
 20
105.568
 30
0.0
 40
0
 41
0
  0
VERTEX
  8
0
 10
21.206
 20
105.524
 30
0.0
 40
0
 41
0
  0
VERTEX
  8
0
 10
21.0549
 20
105.477
 30
0.0
 40
0
 41
0
  0
VERTEX
  8
0
 10
20.9037
 20
105.426
 30
0.0
 40
0
 41
0
  0
VERTEX
  8
0
 10
20.7529
 20
105.371
 30
0.0
 40
0
 41
0
  0
VERTEX
  8
0
 10
20.6024
 20
105.312
 30
0.0
 40
0
 41
0
  0
VERTEX
  8
0
 10
20.4522
 20
105.25
 30
0.0
 40
0
 41
0
  0
VERTEX
  8
0
 10
20.3026
 20
105.184
 30
0.0
 40
0
 41
0
  0
VERTEX
  8
0
 10
20.1536
 20
105.114
 30
0.0
 40
0
 41
0
  0
VERTEX
  8
0
 10
20.0053
 20
105.04
 30
0.0
 40
0
 41
0
  0
VERTEX
  8
0
 10
19.8576
 20
104.963
 30
0.0
 40
0
 41
0
  0
VERTEX
  8
0
 10
19.711
 20
104.882
 30
0.0
 40
0
 41
0
  0
VERTEX
  8
0
 10
19.5651
 20
104.797
 30
0.0
 40
0
 41
0
  0
VERTEX
  8
0
 10
19.4204
 20
104.708
 30
0.0
 40
0
 41
0
  0
VERTEX
  8
0
 10
19.2769
 20
104.616
 30
0.0
 40
0
 41
0
  0
VERTEX
  8
0
 10
19.1346
 20
104.519
 30
0.0
 40
0
 41
0
  0
VERTEX
  8
0
 10
18.9936
 20
104.419
 30
0.0
 40
0
 41
0
  0
VERTEX
  8
0
 10
18.854
 20
104.316
 30
0.0
 40
0
 41
0
  0
VERTEX
  8
0
 10
18.7161
 20
104.208
 30
0.0
 40
0
 41
0
  0
VERTEX
  8
0
 10
18.5797
 20
104.097
 30
0.0
 40
0
 41
0
  0
VERTEX
  8
0
 10
18.445
 20
103.983
 30
0.0
 40
0
 41
0
  0
VERTEX
  8
0
 10
18.3122
 20
103.864
 30
0.0
 40
0
 41
0
  0
VERTEX
  8
0
 10
18.1813
 20
103.742
 30
0.0
 40
0
 41
0
  0
VERTEX
  8
0
 10
18.0524
 20
103.617
 30
0.0
 40
0
 41
0
  0
VERTEX
  8
0
 10
17.9256
 20
103.488
 30
0.0
 40
0
 41
0
  0
VERTEX
  8
0
 10
17.8008
 20
103.355
 30
0.0
 40
0
 41
0
  0
VERTEX
  8
0
 10
17.6785
 20
103.219
 30
0.0
 40
0
 41
0
  0
VERTEX
  8
0
 10
17.5585
 20
103.079
 30
0.0
 40
0
 41
0
  0
VERTEX
  8
0
 10
17.441
 20
102.936
 30
0.0
 40
0
 41
0
  0
VERTEX
  8
0
 10
17.3261
 20
102.79
 30
0.0
 40
0
 41
0
  0
VERTEX
  8
0
 10
17.2138
 20
102.64
 30
0.0
 40
0
 41
0
  0
VERTEX
  8
0
 10
17.1042
 20
102.487
 30
0.0
 40
0
 41
0
  0
VERTEX
  8
0
 10
16.9974
 20
102.331
 30
0.0
 40
0
 41
0
  0
VERTEX
  8
0
 10
16.8936
 20
102.171
 30
0.0
 40
0
 41
0
  0
VERTEX
  8
0
 10
16.7928
 20
102.009
 30
0.0
 40
0
 41
0
  0
VERTEX
  8
0
 10
16.695
 20
101.843
 30
0.0
 40
0
 41
0
  0
VERTEX
  8
0
 10
16.6004
 20
101.675
 30
0.0
 40
0
 41
0
  0
VERTEX
  8
0
 10
16.509
 20
101.503
 30
0.0
 40
0
 41
0
  0
VERTEX
  8
0
 10
16.4211
 20
101.329
 30
0.0
 40
0
 41
0
  0
VERTEX
  8
0
 10
16.3365
 20
101.152
 30
0.0
 40
0
 41
0
  0
VERTEX
  8
0
 10
16.2554
 20
100.972
 30
0.0
 40
0
 41
0
  0
VERTEX
  8
0
 10
16.1779
 20
100.789
 30
0.0
 40
0
 41
0
  0
VERTEX
  8
0
 10
16.104
 20
100.603
 30
0.0
 40
0
 41
0
  0
VERTEX
  8
0
 10
16.0339
 20
100.416
 30
0.0
 40
0
 41
0
  0
VERTEX
  8
0
 10
15.9676
 20
100.225
 30
0.0
 40
0
 41
0
  0
VERTEX
  8
0
 10
15.9053
 20
100.033
 30
0.0
 40
0
 41
0
  0
VERTEX
  8
0
 10
15.8468
 20
99.8376
 30
0.0
 40
0
 41
0
  0
VERTEX
  8
0
 10
15.7922
 20
99.6404
 30
0.0
 40
0
 41
0
  0
VERTEX
  8
0
 10
15.7419
 20
99.4411
 30
0.0
 40
0
 41
0
  0
VERTEX
  8
0
 10
15.6957
 20
99.2396
 30
0.0
 40
0
 41
0
  0
VERTEX
  8
0
 10
15.6537
 20
99.0362
 30
0.0
 40
0
 41
0
  0
VERTEX
  8
0
 10
15.616
 20
98.831
 30
0.0
 40
0
 41
0
  0
VERTEX
  8
0
 10
15.5826
 20
98.6239
 30
0.0
 40
0
 41
0
  0
VERTEX
  8
0
 10
15.5536
 20
98.4151
 30
0.0
 40
0
 41
0
  0
VERTEX
  8
0
 10
15.5292
 20
98.2047
 30
0.0
 40
0
 41
0
  0
VERTEX
  8
0
 10
15.5092
 20
97.9929
 30
0.0
 40
0
 41
0
  0
VERTEX
  8
0
 10
15.4938
 20
97.7796
 30
0.0
 40
0
 41
0
  0
VERTEX
  8
0
 10
15.4829
 20
97.565
 30
0.0
 40
0
 41
0
  0
VERTEX
  8
0
 10
15.4767
 20
97.3492
 30
0.0
 40
0
 41
0
  0
VERTEX
  8
0
 10
15.4753
 20
97.1322
 30
0.0
 40
0
 41
0
  0
VERTEX
  8
0
 10
15.4786
 20
96.9143
 30
0.0
 40
0
 41
0
  0
VERTEX
  8
0
 10
15.4867
 20
96.6954
 30
0.0
 40
0
 41
0
  0
VERTEX
  8
0
 10
15.4996
 20
96.4758
 30
0.0
 40
0
 41
0
  0
VERTEX
  8
0
 10
15.5175
 20
96.2556
 30
0.0
 40
0
 41
0
  0
VERTEX
  8
0
 10
15.5401
 20
96.0346
 30
0.0
 40
0
 41
0
  0
VERTEX
  8
0
 10
15.5678
 20
95.8132
 30
0.0
 40
0
 41
0
  0
VERTEX
  8
0
 10
15.6004
 20
95.5915
 30
0.0
 40
0
 41
0
  0
VERTEX
  8
0
 10
15.6381
 20
95.3696
 30
0.0
 40
0
 41
0
  0
VERTEX
  8
0
 10
15.6808
 20
95.1474
 30
0.0
 40
0
 41
0
  0
VERTEX
  8
0
 10
15.7285
 20
94.9253
 30
0.0
 40
0
 41
0
  0
VERTEX
  8
0
 10
15.7813
 20
94.7032
 30
0.0
 40
0
 41
0
  0
VERTEX
  8
0
 10
15.839
 20
94.4814
 30
0.0
 40
0
 41
0
  0
VERTEX
  8
0
 10
15.9021
 20
94.2599
 30
0.0
 40
0
 41
0
  0
VERTEX
  8
0
 10
15.9701
 20
94.0388
 30
0.0
 40
0
 41
0
  0
VERTEX
  8
0
 10
16.0433
 20
93.8182
 30
0.0
 40
0
 41
0
  0
VERTEX
  8
0
 10
16.1215
 20
93.5983
 30
0.0
 40
0
 41
0
  0
VERTEX
  8
0
 10
16.205
 20
93.3793
 30
0.0
 40
0
 41
0
  0
VERTEX
  8
0
 10
16.2936
 20
93.1612
 30
0.0
 40
0
 41
0
  0
VERTEX
  8
0
 10
16.3872
 20
92.944
 30
0.0
 40
0
 41
0
  0
VERTEX
  8
0
 10
16.4861
 20
92.7281
 30
0.0
 40
0
 41
0
  0
VERTEX
  8
0
 10
16.59
 20
92.5135
 30
0.0
 40
0
 41
0
  0
VERTEX
  8
0
 10
16.699
 20
92.3001
 30
0.0
 40
0
 41
0
  0
VERTEX
  8
0
 10
16.8132
 20
92.0883
 30
0.0
 40
0
 41
0
  0
VERTEX
  8
0
 10
16.9324
 20
91.8782
 30
0.0
 40
0
 41
0
  0
VERTEX
  8
0
 10
17.0567
 20
91.6699
 30
0.0
 40
0
 41
0
  0
VERTEX
  8
0
 10
17.186
 20
91.4633
 30
0.0
 40
0
 41
0
  0
VERTEX
  8
0
 10
17.3203
 20
91.2587
 30
0.0
 40
0
 41
0
  0
VERTEX
  8
0
 10
17.4596
 20
91.0564
 30
0.0
 40
0
 41
0
  0
VERTEX
  8
0
 10
17.6037
 20
90.8561
 30
0.0
 40
0
 41
0
  0
VERTEX
  8
0
 10
17.7529
 20
90.6583
 30
0.0
 40
0
 41
0
  0
VERTEX
  8
0
 10
17.9071
 20
90.4629
 30
0.0
 40
0
 41
0
  0
VERTEX
  8
0
 10
18.066
 20
90.2701
 30
0.0
 40
0
 41
0
  0
VERTEX
  8
0
 10
18.2297
 20
90.0801
 30
0.0
 40
0
 41
0
  0
VERTEX
  8
0
 10
18.3982
 20
89.8929
 30
0.0
 40
0
 41
0
  0
VERTEX
  8
0
 10
18.5715
 20
89.7086
 30
0.0
 40
0
 41
0
  0
VERTEX
  8
0
 10
18.7493
 20
89.5274
 30
0.0
 40
0
 41
0
  0
VERTEX
  8
0
 10
18.9318
 20
89.3493
 30
0.0
 40
0
 41
0
  0
VERTEX
  8
0
 10
19.1189
 20
89.1746
 30
0.0
 40
0
 41
0
  0
VERTEX
  8
0
 10
19.3106
 20
89.0032
 30
0.0
 40
0
 41
0
  0
VERTEX
  8
0
 10
19.5065
 20
88.8354
 30
0.0
 40
0
 41
0
  0
VERTEX
  8
0
 10
19.7069
 20
88.6711
 30
0.0
 40
0
 41
0
  0
VERTEX
  8
0
 10
19.9117
 20
88.5107
 30
0.0
 40
0
 41
0
  0
VERTEX
  8
0
 10
20.1207
 20
88.354
 30
0.0
 40
0
 41
0
  0
VERTEX
  8
0
 10
20.3338
 20
88.2013
 30
0.0
 40
0
 41
0
  0
VERTEX
  8
0
 10
20.551
 20
88.0526
 30
0.0
 40
0
 41
0
  0
VERTEX
  8
0
 10
20.7724
 20
87.9082
 30
0.0
 40
0
 41
0
  0
VERTEX
  8
0
 10
20.9975
 20
87.7681
 30
0.0
 40
0
 41
0
  0
VERTEX
  8
0
 10
21.2265
 20
87.6322
 30
0.0
 40
0
 41
0
  0
VERTEX
  8
0
 10
21.4594
 20
87.5008
 30
0.0
 40
0
 41
0
  0
VERTEX
  8
0
 10
21.696
 20
87.374
 30
0.0
 40
0
 41
0
  0
VERTEX
  8
0
 10
21.9361
 20
87.2519
 30
0.0
 40
0
 41
0
  0
VERTEX
  8
0
 10
22.1797
 20
87.1346
 30
0.0
 40
0
 41
0
  0
VERTEX
  8
0
 10
22.4268
 20
87.0221
 30
0.0
 40
0
 41
0
  0
VERTEX
  8
0
 10
22.6771
 20
86.9146
 30
0.0
 40
0
 41
0
  0
VERTEX
  8
0
 10
22.9307
 20
86.8121
 30
0.0
 40
0
 41
0
  0
VERTEX
  8
0
 10
23.1875
 20
86.7147
 30
0.0
 40
0
 41
0
  0
VERTEX
  8
0
 10
23.4471
 20
86.6226
 30
0.0
 40
0
 41
0
  0
VERTEX
  8
0
 10
23.7097
 20
86.5357
 30
0.0
 40
0
 41
0
  0
VERTEX
  8
0
 10
23.9751
 20
86.4543
 30
0.0
 40
0
 41
0
  0
VERTEX
  8
0
 10
24.2433
 20
86.3782
 30
0.0
 40
0
 41
0
  0
VERTEX
  8
0
 10
24.5139
 20
86.3078
 30
0.0
 40
0
 41
0
  0
VERTEX
  8
0
 10
24.7871
 20
86.2429
 30
0.0
 40
0
 41
0
  0
VERTEX
  8
0
 10
25.0625
 20
86.1836
 30
0.0
 40
0
 41
0
  0
VERTEX
  8
0
 10
25.3403
 20
86.1303
 30
0.0
 40
0
 41
0
  0
VERTEX
  8
0
 10
25.62
 20
86.0826
 30
0.0
 40
0
 41
0
  0
VERTEX
  8
0
 10
25.4
 20
84.7
 30
0.0
 40
0
 41
0
  0
SEQEND
 8
0
  0
ENDSEC
  0
EOF
