  0
SECTION
  2
HEADER
  9
$ACADVER
  1
AC1009
  9
$EXTMIN
 10
0.0
 20
0.0
 30
0.0
  9
$EXTMAX
 10
1000.0
 20
1000.0
 30
0.0
  9
$FILLMODE
 70
 0
  9
$SPLFRAME
 70
 1
  0
ENDSEC
  0
SECTION
  2
TABLES
  0
TABLE
  2
LAYER
 70
1
  0
LAYER
  2
0
 70
     0
 62
     7
  6
CONTINUOUS
  0
ENDTAB
  0
ENDSEC
  0
SECTION
  2
ENTITIES
  0
POLYLINE
  8
0
 62
     0
 66
     1
 10
0
 20
0
 30
0.0
 70
     1
 40
0
 41
0
  0
VERTEX
  8
0
 10
22.7
 20
102.249
 30
0.0
 40
0
 41
0
  0
VERTEX
  8
0
 10
22.6803
 20
102.877
 30
0.0
 40
0
 41
0
  0
VERTEX
  8
0
 10
22.6211
 20
103.502
 30
0.0
 40
0
 41
0
  0
VERTEX
  8
0
 10
22.5229
 20
104.122
 30
0.0
 40
0
 41
0
  0
VERTEX
  8
0
 10
22.3858
 20
104.736
 30
0.0
 40
0
 41
0
  0
VERTEX
  8
0
 10
22.2106
 20
105.339
 30
0.0
 40
0
 41
0
  0
VERTEX
  8
0
 10
21.9978
 20
105.93
 30
0.0
 40
0
 41
0
  0
VERTEX
  8
0
 10
21.7482
 20
106.507
 30
0.0
 40
0
 41
0
  0
VERTEX
  8
0
 10
21.4631
 20
107.066
 30
0.0
 40
0
 41
0
  0
VERTEX
  8
0
 10
21.1433
 20
107.607
 30
0.0
 40
0
 41
0
  0
VERTEX
  8
0
 10
20.7901
 20
108.127
 30
0.0
 40
0
 41
0
  0
VERTEX
  8
0
 10
20.4051
 20
108.623
 30
0.0
 40
0
 41
0
  0
VERTEX
  8
0
 10
19.9897
 20
109.094
 30
0.0
 40
0
 41
0
  0
VERTEX
  8
0
 10
19.5454
 20
109.538
 30
0.0
 40
0
 41
0
  0
VERTEX
  8
0
 10
19.0742
 20
109.954
 30
0.0
 40
0
 41
0
  0
VERTEX
  8
0
 10
18.5778
 20
110.339
 30
0.0
 40
0
 41
0
  0
VERTEX
  8
0
 10
18.0582
 20
110.692
 30
0.0
 40
0
 41
0
  0
VERTEX
  8
0
 10
17.5175
 20
111.012
 30
0.0
 40
0
 41
0
  0
VERTEX
  8
0
 10
16.9578
 20
111.297
 30
0.0
 40
0
 41
0
  0
VERTEX
  8
0
 10
16.3812
 20
111.547
 30
0.0
 40
0
 41
0
  0
VERTEX
  8
0
 10
15.7901
 20
111.759
 30
0.0
 40
0
 41
0
  0
VERTEX
  8
0
 10
15.1869
 20
111.935
 30
0.0
 40
0
 41
0
  0
VERTEX
  8
0
 10
14.5738
 20
112.072
 30
0.0
 40
0
 41
0
  0
VERTEX
  8
0
 10
13.9533
 20
112.17
 30
0.0
 40
0
 41
0
  0
VERTEX
  8
0
 10
13.3279
 20
112.229
 30
0.0
 40
0
 41
0
  0
VERTEX
  8
0
 10
12.7
 20
112.249
 30
0.0
 40
0
 41
0
  0
VERTEX
  8
0
 10
12.0721
 20
112.229
 30
0.0
 40
0
 41
0
  0
VERTEX
  8
0
 10
11.4467
 20
112.17
 30
0.0
 40
0
 41
0
  0
VERTEX
  8
0
 10
10.8261
 20
112.072
 30
0.0
 40
0
 41
0
  0
VERTEX
  8
0
 10
10.2131
 20
111.935
 30
0.0
 40
0
 41
0
  0
VERTEX
  8
0
 10
9.60986
 20
111.759
 30
0.0
 40
0
 41
0
  0
VERTEX
  8
0
 10
9.01878
 20
111.547
 30
0.0
 40
0
 41
0
  0
VERTEX
  8
0
 10
8.44222
 20
111.297
 30
0.0
 40
0
 41
0
  0
VERTEX
  8
0
 10
7.88249
 20
111.012
 30
0.0
 40
0
 41
0
  0
VERTEX
  8
0
 10
7.34169
 20
110.692
 30
0.0
 40
0
 41
0
  0
VERTEX
  8
0
 10
6.8221
 20
110.339
 30
0.0
 40
0
 41
0
  0
VERTEX
  8
0
 10
6.32568
 20
109.954
 30
0.0
 40
0
 41
0
  0
VERTEX
  8
0
 10
5.8546
 20
109.538
 30
0.0
 40
0
 41
0
  0
VERTEX
  8
0
 10
5.41026
 20
109.094
 30
0.0
 40
0
 41
0
  0
VERTEX
  8
0
 10
4.99485
 20
108.623
 30
0.0
 40
0
 41
0
  0
VERTEX
  8
0
 10
4.60986
 20
108.127
 30
0.0
 40
0
 41
0
  0
VERTEX
  8
0
 10
4.25667
 20
107.607
 30
0.0
 40
0
 41
0
  0
VERTEX
  8
0
 10
3.93696
 20
107.066
 30
0.0
 40
0
 41
0
  0
VERTEX
  8
0
 10
3.65169
 20
106.507
 30
0.0
 40
0
 41
0
  0
VERTEX
  8
0
 10
3.40224
 20
105.93
 30
0.0
 40
0
 41
0
  0
VERTEX
  8
0
 10
3.18946
 20
105.339
 30
0.0
 40
0
 41
0
  0
VERTEX
  8
0
 10
3.01417
 20
104.736
 30
0.0
 40
0
 41
0
  0
VERTEX
  8
0
 10
2.87706
 20
104.122
 30
0.0
 40
0
 41
0
  0
VERTEX
  8
0
 10
2.77886
 20
103.502
 30
0.0
 40
0
 41
0
  0
VERTEX
  8
0
 10
2.71972
 20
102.877
 30
0.0
 40
0
 41
0
  0
VERTEX
  8
0
 10
2.69997
 20
102.249
 30
0.0
 40
0
 41
0
  0
VERTEX
  8
0
 10
2.71972
 20
101.621
 30
0.0
 40
0
 41
0
  0
VERTEX
  8
0
 10
2.77886
 20
100.995
 30
0.0
 40
0
 41
0
  0
VERTEX
  8
0
 10
2.87706
 20
100.375
 30
0.0
 40
0
 41
0
  0
VERTEX
  8
0
 10
3.01417
 20
99.7618
 30
0.0
 40
0
 41
0
  0
VERTEX
  8
0
 10
3.18946
 20
99.1586
 30
0.0
 40
0
 41
0
  0
VERTEX
  8
0
 10
3.40224
 20
98.5675
 30
0.0
 40
0
 41
0
  0
VERTEX
  8
0
 10
3.65169
 20
97.991
 30
0.0
 40
0
 41
0
  0
VERTEX
  8
0
 10
3.93696
 20
97.4311
 30
0.0
 40
0
 41
0
  0
VERTEX
  8
0
 10
4.25667
 20
96.8904
 30
0.0
 40
0
 41
0
  0
VERTEX
  8
0
 10
4.60986
 20
96.3708
 30
0.0
 40
0
 41
0
  0
VERTEX
  8
0
 10
4.99485
 20
95.8744
 30
0.0
 40
0
 41
0
  0
VERTEX
  8
0
 10
5.41026
 20
95.4032
 30
0.0
 40
0
 41
0
  0
VERTEX
  8
0
 10
5.8546
 20
94.959
 30
0.0
 40
0
 41
0
  0
VERTEX
  8
0
 10
6.32568
 20
94.5436
 30
0.0
 40
0
 41
0
  0
VERTEX
  8
0
 10
6.8221
 20
94.1586
 30
0.0
 40
0
 41
0
  0
VERTEX
  8
0
 10
7.34169
 20
93.8054
 30
0.0
 40
0
 41
0
  0
VERTEX
  8
0
 10
7.88249
 20
93.4857
 30
0.0
 40
0
 41
0
  0
VERTEX
  8
0
 10
8.44222
 20
93.2004
 30
0.0
 40
0
 41
0
  0
VERTEX
  8
0
 10
9.01878
 20
92.951
 30
0.0
 40
0
 41
0
  0
VERTEX
  8
0
 10
9.60986
 20
92.7382
 30
0.0
 40
0
 41
0
  0
VERTEX
  8
0
 10
10.2131
 20
92.5629
 30
0.0
 40
0
 41
0
  0
VERTEX
  8
0
 10
10.8261
 20
92.4258
 30
0.0
 40
0
 41
0
  0
VERTEX
  8
0
 10
11.4467
 20
92.3275
 30
0.0
 40
0
 41
0
  0
VERTEX
  8
0
 10
12.0721
 20
92.2685
 30
0.0
 40
0
 41
0
  0
VERTEX
  8
0
 10
12.7
 20
92.2488
 30
0.0
 40
0
 41
0
  0
VERTEX
  8
0
 10
13.3279
 20
92.2685
 30
0.0
 40
0
 41
0
  0
VERTEX
  8
0
 10
13.9533
 20
92.3275
 30
0.0
 40
0
 41
0
  0
VERTEX
  8
0
 10
14.5738
 20
92.4258
 30
0.0
 40
0
 41
0
  0
VERTEX
  8
0
 10
15.1869
 20
92.5629
 30
0.0
 40
0
 41
0
  0
VERTEX
  8
0
 10
15.7901
 20
92.7382
 30
0.0
 40
0
 41
0
  0
VERTEX
  8
0
 10
16.3812
 20
92.951
 30
0.0
 40
0
 41
0
  0
VERTEX
  8
0
 10
16.9578
 20
93.2004
 30
0.0
 40
0
 41
0
  0
VERTEX
  8
0
 10
17.5175
 20
93.4857
 30
0.0
 40
0
 41
0
  0
VERTEX
  8
0
 10
18.0582
 20
93.8054
 30
0.0
 40
0
 41
0
  0
VERTEX
  8
0
 10
18.5778
 20
94.1586
 30
0.0
 40
0
 41
0
  0
VERTEX
  8
0
 10
19.0742
 20
94.5436
 30
0.0
 40
0
 41
0
  0
VERTEX
  8
0
 10
19.5454
 20
94.959
 30
0.0
 40
0
 41
0
  0
VERTEX
  8
0
 10
19.9897
 20
95.4032
 30
0.0
 40
0
 41
0
  0
VERTEX
  8
0
 10
20.4051
 20
95.8744
 30
0.0
 40
0
 41
0
  0
VERTEX
  8
0
 10
20.7901
 20
96.3708
 30
0.0
 40
0
 41
0
  0
VERTEX
  8
0
 10
21.1433
 20
96.8904
 30
0.0
 40
0
 41
0
  0
VERTEX
  8
0
 10
21.4631
 20
97.4311
 30
0.0
 40
0
 41
0
  0
VERTEX
  8
0
 10
21.7482
 20
97.991
 30
0.0
 40
0
 41
0
  0
VERTEX
  8
0
 10
21.9978
 20
98.5675
 30
0.0
 40
0
 41
0
  0
VERTEX
  8
0
 10
22.2106
 20
99.1586
 30
0.0
 40
0
 41
0
  0
VERTEX
  8
0
 10
22.3858
 20
99.7618
 30
0.0
 40
0
 41
0
  0
VERTEX
  8
0
 10
22.5229
 20
100.375
 30
0.0
 40
0
 41
0
  0
VERTEX
  8
0
 10
22.6211
 20
100.995
 30
0.0
 40
0
 41
0
  0
VERTEX
  8
0
 10
22.6803
 20
101.621
 30
0.0
 40
0
 41
0
  0
VERTEX
  8
0
 10
22.7
 20
102.249
 30
0.0
 40
0
 41
0
  0
SEQEND
 8
0
  0
POLYLINE
  8
0
 62
     0
 66
     1
 10
0
 20
0
 30
0.0
 70
     1
 40
0.75
 41
0.75
  0
VERTEX
  8
0
 10
22.7
 20
102.249
 30
0.0
 40
0.0104167
 41
0.0104167
  0
VERTEX
  8
0
 10
22.6803
 20
102.877
 30
0.0
 40
0.0104167
 41
0.0104167
  0
VERTEX
  8
0
 10
22.6211
 20
103.502
 30
0.0
 40
0.0104167
 41
0.0104167
  0
VERTEX
  8
0
 10
22.5229
 20
104.122
 30
0.0
 40
0.0104167
 41
0.0104167
  0
VERTEX
  8
0
 10
22.3858
 20
104.736
 30
0.0
 40
0.0104167
 41
0.0104167
  0
VERTEX
  8
0
 10
22.2106
 20
105.339
 30
0.0
 40
0.0104167
 41
0.0104167
  0
VERTEX
  8
0
 10
21.9978
 20
105.93
 30
0.0
 40
0.0104167
 41
0.0104167
  0
VERTEX
  8
0
 10
21.7482
 20
106.507
 30
0.0
 40
0.0104167
 41
0.0104167
  0
VERTEX
  8
0
 10
21.4631
 20
107.066
 30
0.0
 40
0.0104167
 41
0.0104167
  0
VERTEX
  8
0
 10
21.1433
 20
107.607
 30
0.0
 40
0.0104167
 41
0.0104167
  0
VERTEX
  8
0
 10
20.7901
 20
108.127
 30
0.0
 40
0.0104167
 41
0.0104167
  0
VERTEX
  8
0
 10
20.4051
 20
108.623
 30
0.0
 40
0.0104167
 41
0.0104167
  0
VERTEX
  8
0
 10
19.9897
 20
109.094
 30
0.0
 40
0.0104167
 41
0.0104167
  0
VERTEX
  8
0
 10
19.5454
 20
109.538
 30
0.0
 40
0.0104167
 41
0.0104167
  0
VERTEX
  8
0
 10
19.0742
 20
109.954
 30
0.0
 40
0.0104167
 41
0.0104167
  0
VERTEX
  8
0
 10
18.5778
 20
110.339
 30
0.0
 40
0.0104167
 41
0.0104167
  0
VERTEX
  8
0
 10
18.0582
 20
110.692
 30
0.0
 40
0.0104167
 41
0.0104167
  0
VERTEX
  8
0
 10
17.5175
 20
111.012
 30
0.0
 40
0.0104167
 41
0.0104167
  0
VERTEX
  8
0
 10
16.9578
 20
111.297
 30
0.0
 40
0.0104167
 41
0.0104167
  0
VERTEX
  8
0
 10
16.3812
 20
111.547
 30
0.0
 40
0.0104167
 41
0.0104167
  0
VERTEX
  8
0
 10
15.7901
 20
111.759
 30
0.0
 40
0.0104167
 41
0.0104167
  0
VERTEX
  8
0
 10
15.1869
 20
111.935
 30
0.0
 40
0.0104167
 41
0.0104167
  0
VERTEX
  8
0
 10
14.5738
 20
112.072
 30
0.0
 40
0.0104167
 41
0.0104167
  0
VERTEX
  8
0
 10
13.9533
 20
112.17
 30
0.0
 40
0.0104167
 41
0.0104167
  0
VERTEX
  8
0
 10
13.3279
 20
112.229
 30
0.0
 40
0.0104167
 41
0.0104167
  0
VERTEX
  8
0
 10
12.7
 20
112.249
 30
0.0
 40
0.0104167
 41
0.0104167
  0
VERTEX
  8
0
 10
12.0721
 20
112.229
 30
0.0
 40
0.0104167
 41
0.0104167
  0
VERTEX
  8
0
 10
11.4467
 20
112.17
 30
0.0
 40
0.0104167
 41
0.0104167
  0
VERTEX
  8
0
 10
10.8261
 20
112.072
 30
0.0
 40
0.0104167
 41
0.0104167
  0
VERTEX
  8
0
 10
10.2131
 20
111.935
 30
0.0
 40
0.0104167
 41
0.0104167
  0
VERTEX
  8
0
 10
9.60986
 20
111.759
 30
0.0
 40
0.0104167
 41
0.0104167
  0
VERTEX
  8
0
 10
9.01878
 20
111.547
 30
0.0
 40
0.0104167
 41
0.0104167
  0
VERTEX
  8
0
 10
8.44222
 20
111.297
 30
0.0
 40
0.0104167
 41
0.0104167
  0
VERTEX
  8
0
 10
7.88249
 20
111.012
 30
0.0
 40
0.0104167
 41
0.0104167
  0
VERTEX
  8
0
 10
7.34169
 20
110.692
 30
0.0
 40
0.0104167
 41
0.0104167
  0
VERTEX
  8
0
 10
6.8221
 20
110.339
 30
0.0
 40
0.0104167
 41
0.0104167
  0
VERTEX
  8
0
 10
6.32568
 20
109.954
 30
0.0
 40
0.0104167
 41
0.0104167
  0
VERTEX
  8
0
 10
5.8546
 20
109.538
 30
0.0
 40
0.0104167
 41
0.0104167
  0
VERTEX
  8
0
 10
5.41026
 20
109.094
 30
0.0
 40
0.0104167
 41
0.0104167
  0
VERTEX
  8
0
 10
4.99485
 20
108.623
 30
0.0
 40
0.0104167
 41
0.0104167
  0
VERTEX
  8
0
 10
4.60986
 20
108.127
 30
0.0
 40
0.0104167
 41
0.0104167
  0
VERTEX
  8
0
 10
4.25667
 20
107.607
 30
0.0
 40
0.0104167
 41
0.0104167
  0
VERTEX
  8
0
 10
3.93696
 20
107.066
 30
0.0
 40
0.0104167
 41
0.0104167
  0
VERTEX
  8
0
 10
3.65169
 20
106.507
 30
0.0
 40
0.0104167
 41
0.0104167
  0
VERTEX
  8
0
 10
3.40224
 20
105.93
 30
0.0
 40
0.0104167
 41
0.0104167
  0
VERTEX
  8
0
 10
3.18946
 20
105.339
 30
0.0
 40
0.0104167
 41
0.0104167
  0
VERTEX
  8
0
 10
3.01417
 20
104.736
 30
0.0
 40
0.0104167
 41
0.0104167
  0
VERTEX
  8
0
 10
2.87706
 20
104.122
 30
0.0
 40
0.0104167
 41
0.0104167
  0
VERTEX
  8
0
 10
2.77886
 20
103.502
 30
0.0
 40
0.0104167
 41
0.0104167
  0
VERTEX
  8
0
 10
2.71972
 20
102.877
 30
0.0
 40
0.0104167
 41
0.0104167
  0
VERTEX
  8
0
 10
2.69997
 20
102.249
 30
0.0
 40
0.0104167
 41
0.0104167
  0
VERTEX
  8
0
 10
2.71972
 20
101.621
 30
0.0
 40
0.0104167
 41
0.0104167
  0
VERTEX
  8
0
 10
2.77886
 20
100.995
 30
0.0
 40
0.0104167
 41
0.0104167
  0
VERTEX
  8
0
 10
2.87706
 20
100.375
 30
0.0
 40
0.0104167
 41
0.0104167
  0
VERTEX
  8
0
 10
3.01417
 20
99.7618
 30
0.0
 40
0.0104167
 41
0.0104167
  0
VERTEX
  8
0
 10
3.18946
 20
99.1586
 30
0.0
 40
0.0104167
 41
0.0104167
  0
VERTEX
  8
0
 10
3.40224
 20
98.5675
 30
0.0
 40
0.0104167
 41
0.0104167
  0
VERTEX
  8
0
 10
3.65169
 20
97.991
 30
0.0
 40
0.0104167
 41
0.0104167
  0
VERTEX
  8
0
 10
3.93696
 20
97.4311
 30
0.0
 40
0.0104167
 41
0.0104167
  0
VERTEX
  8
0
 10
4.25667
 20
96.8904
 30
0.0
 40
0.0104167
 41
0.0104167
  0
VERTEX
  8
0
 10
4.60986
 20
96.3708
 30
0.0
 40
0.0104167
 41
0.0104167
  0
VERTEX
  8
0
 10
4.99485
 20
95.8744
 30
0.0
 40
0.0104167
 41
0.0104167
  0
VERTEX
  8
0
 10
5.41026
 20
95.4032
 30
0.0
 40
0.0104167
 41
0.0104167
  0
VERTEX
  8
0
 10
5.8546
 20
94.959
 30
0.0
 40
0.0104167
 41
0.0104167
  0
VERTEX
  8
0
 10
6.32568
 20
94.5436
 30
0.0
 40
0.0104167
 41
0.0104167
  0
VERTEX
  8
0
 10
6.8221
 20
94.1586
 30
0.0
 40
0.0104167
 41
0.0104167
  0
VERTEX
  8
0
 10
7.34169
 20
93.8054
 30
0.0
 40
0.0104167
 41
0.0104167
  0
VERTEX
  8
0
 10
7.88249
 20
93.4857
 30
0.0
 40
0.0104167
 41
0.0104167
  0
VERTEX
  8
0
 10
8.44222
 20
93.2004
 30
0.0
 40
0.0104167
 41
0.0104167
  0
VERTEX
  8
0
 10
9.01878
 20
92.951
 30
0.0
 40
0.0104167
 41
0.0104167
  0
VERTEX
  8
0
 10
9.60986
 20
92.7382
 30
0.0
 40
0.0104167
 41
0.0104167
  0
VERTEX
  8
0
 10
10.2131
 20
92.5629
 30
0.0
 40
0.0104167
 41
0.0104167
  0
VERTEX
  8
0
 10
10.8261
 20
92.4258
 30
0.0
 40
0.0104167
 41
0.0104167
  0
VERTEX
  8
0
 10
11.4467
 20
92.3275
 30
0.0
 40
0.0104167
 41
0.0104167
  0
VERTEX
  8
0
 10
12.0721
 20
92.2685
 30
0.0
 40
0.0104167
 41
0.0104167
  0
VERTEX
  8
0
 10
12.7
 20
92.2488
 30
0.0
 40
0.0104167
 41
0.0104167
  0
VERTEX
  8
0
 10
13.3279
 20
92.2685
 30
0.0
 40
0.0104167
 41
0.0104167
  0
VERTEX
  8
0
 10
13.9533
 20
92.3275
 30
0.0
 40
0.0104167
 41
0.0104167
  0
VERTEX
  8
0
 10
14.5738
 20
92.4258
 30
0.0
 40
0.0104167
 41
0.0104167
  0
VERTEX
  8
0
 10
15.1869
 20
92.5629
 30
0.0
 40
0.0104167
 41
0.0104167
  0
VERTEX
  8
0
 10
15.7901
 20
92.7382
 30
0.0
 40
0.0104167
 41
0.0104167
  0
VERTEX
  8
0
 10
16.3812
 20
92.951
 30
0.0
 40
0.0104167
 41
0.0104167
  0
VERTEX
  8
0
 10
16.9578
 20
93.2004
 30
0.0
 40
0.0104167
 41
0.0104167
  0
VERTEX
  8
0
 10
17.5175
 20
93.4857
 30
0.0
 40
0.0104167
 41
0.0104167
  0
VERTEX
  8
0
 10
18.0582
 20
93.8054
 30
0.0
 40
0.0104167
 41
0.0104167
  0
VERTEX
  8
0
 10
18.5778
 20
94.1586
 30
0.0
 40
0.0104167
 41
0.0104167
  0
VERTEX
  8
0
 10
19.0742
 20
94.5436
 30
0.0
 40
0.0104167
 41
0.0104167
  0
VERTEX
  8
0
 10
19.5454
 20
94.959
 30
0.0
 40
0.0104167
 41
0.0104167
  0
VERTEX
  8
0
 10
19.9897
 20
95.4032
 30
0.0
 40
0.0104167
 41
0.0104167
  0
VERTEX
  8
0
 10
20.4051
 20
95.8744
 30
0.0
 40
0.0104167
 41
0.0104167
  0
VERTEX
  8
0
 10
20.7901
 20
96.3708
 30
0.0
 40
0.0104167
 41
0.0104167
  0
VERTEX
  8
0
 10
21.1433
 20
96.8904
 30
0.0
 40
0.0104167
 41
0.0104167
  0
VERTEX
  8
0
 10
21.4631
 20
97.4311
 30
0.0
 40
0.0104167
 41
0.0104167
  0
VERTEX
  8
0
 10
21.7482
 20
97.991
 30
0.0
 40
0.0104167
 41
0.0104167
  0
VERTEX
  8
0
 10
21.9978
 20
98.5675
 30
0.0
 40
0.0104167
 41
0.0104167
  0
VERTEX
  8
0
 10
22.2106
 20
99.1586
 30
0.0
 40
0.0104167
 41
0.0104167
  0
VERTEX
  8
0
 10
22.3858
 20
99.7618
 30
0.0
 40
0.0104167
 41
0.0104167
  0
VERTEX
  8
0
 10
22.5229
 20
100.375
 30
0.0
 40
0.0104167
 41
0.0104167
  0
VERTEX
  8
0
 10
22.6211
 20
100.995
 30
0.0
 40
0.0104167
 41
0.0104167
  0
VERTEX
  8
0
 10
22.6803
 20
101.621
 30
0.0
 40
0.0104167
 41
0.0104167
  0
VERTEX
  8
0
 10
22.7
 20
102.249
 30
0.0
 40
0.0104167
 41
0.0104167
  0
SEQEND
 8
0
  0
POLYLINE
  8
0
 62
     0
 66
     1
 10
0
 20
0
 30
0.0
 70
     1
 40
0
 41
0
  0
VERTEX
  8
0
 10
22.7
 20
22.7
 30
0.0
 40
0
 41
0
  0
VERTEX
  8
0
 10
22.6803
 20
23.3279
 30
0.0
 40
0
 41
0
  0
VERTEX
  8
0
 10
22.6211
 20
23.9533
 30
0.0
 40
0
 41
0
  0
VERTEX
  8
0
 10
22.5229
 20
24.5738
 30
0.0
 40
0
 41
0
  0
VERTEX
  8
0
 10
22.3858
 20
25.1869
 30
0.0
 40
0
 41
0
  0
VERTEX
  8
0
 10
22.2106
 20
25.7901
 30
0.0
 40
0
 41
0
  0
VERTEX
  8
0
 10
21.9978
 20
26.3812
 30
0.0
 40
0
 41
0
  0
VERTEX
  8
0
 10
21.7482
 20
26.9578
 30
0.0
 40
0
 41
0
  0
VERTEX
  8
0
 10
21.4631
 20
27.5175
 30
0.0
 40
0
 41
0
  0
VERTEX
  8
0
 10
21.1433
 20
28.0582
 30
0.0
 40
0
 41
0
  0
VERTEX
  8
0
 10
20.7901
 20
28.5778
 30
0.0
 40
0
 41
0
  0
VERTEX
  8
0
 10
20.4051
 20
29.0742
 30
0.0
 40
0
 41
0
  0
VERTEX
  8
0
 10
19.9897
 20
29.5454
 30
0.0
 40
0
 41
0
  0
VERTEX
  8
0
 10
19.5454
 20
29.9897
 30
0.0
 40
0
 41
0
  0
VERTEX
  8
0
 10
19.0742
 20
30.4051
 30
0.0
 40
0
 41
0
  0
VERTEX
  8
0
 10
18.5778
 20
30.7901
 30
0.0
 40
0
 41
0
  0
VERTEX
  8
0
 10
18.0582
 20
31.1433
 30
0.0
 40
0
 41
0
  0
VERTEX
  8
0
 10
17.5175
 20
31.4631
 30
0.0
 40
0
 41
0
  0
VERTEX
  8
0
 10
16.9578
 20
31.7482
 30
0.0
 40
0
 41
0
  0
VERTEX
  8
0
 10
16.3812
 20
31.9978
 30
0.0
 40
0
 41
0
  0
VERTEX
  8
0
 10
15.7901
 20
32.2106
 30
0.0
 40
0
 41
0
  0
VERTEX
  8
0
 10
15.1869
 20
32.3858
 30
0.0
 40
0
 41
0
  0
VERTEX
  8
0
 10
14.5738
 20
32.5229
 30
0.0
 40
0
 41
0
  0
VERTEX
  8
0
 10
13.9533
 20
32.6211
 30
0.0
 40
0
 41
0
  0
VERTEX
  8
0
 10
13.3279
 20
32.6803
 30
0.0
 40
0
 41
0
  0
VERTEX
  8
0
 10
12.7
 20
32.7
 30
0.0
 40
0
 41
0
  0
VERTEX
  8
0
 10
12.0721
 20
32.6803
 30
0.0
 40
0
 41
0
  0
VERTEX
  8
0
 10
11.4467
 20
32.6211
 30
0.0
 40
0
 41
0
  0
VERTEX
  8
0
 10
10.8261
 20
32.5229
 30
0.0
 40
0
 41
0
  0
VERTEX
  8
0
 10
10.2131
 20
32.3858
 30
0.0
 40
0
 41
0
  0
VERTEX
  8
0
 10
9.60986
 20
32.2106
 30
0.0
 40
0
 41
0
  0
VERTEX
  8
0
 10
9.01878
 20
31.9978
 30
0.0
 40
0
 41
0
  0
VERTEX
  8
0
 10
8.44222
 20
31.7482
 30
0.0
 40
0
 41
0
  0
VERTEX
  8
0
 10
7.88249
 20
31.4631
 30
0.0
 40
0
 41
0
  0
VERTEX
  8
0
 10
7.34169
 20
31.1433
 30
0.0
 40
0
 41
0
  0
VERTEX
  8
0
 10
6.8221
 20
30.7901
 30
0.0
 40
0
 41
0
  0
VERTEX
  8
0
 10
6.32568
 20
30.4051
 30
0.0
 40
0
 41
0
  0
VERTEX
  8
0
 10
5.8546
 20
29.9897
 30
0.0
 40
0
 41
0
  0
VERTEX
  8
0
 10
5.41026
 20
29.5454
 30
0.0
 40
0
 41
0
  0
VERTEX
  8
0
 10
4.99485
 20
29.0742
 30
0.0
 40
0
 41
0
  0
VERTEX
  8
0
 10
4.60986
 20
28.5778
 30
0.0
 40
0
 41
0
  0
VERTEX
  8
0
 10
4.25667
 20
28.0582
 30
0.0
 40
0
 41
0
  0
VERTEX
  8
0
 10
3.93696
 20
27.5175
 30
0.0
 40
0
 41
0
  0
VERTEX
  8
0
 10
3.65169
 20
26.9578
 30
0.0
 40
0
 41
0
  0
VERTEX
  8
0
 10
3.40224
 20
26.3812
 30
0.0
 40
0
 41
0
  0
VERTEX
  8
0
 10
3.18946
 20
25.7901
 30
0.0
 40
0
 41
0
  0
VERTEX
  8
0
 10
3.01417
 20
25.1869
 30
0.0
 40
0
 41
0
  0
VERTEX
  8
0
 10
2.87706
 20
24.5738
 30
0.0
 40
0
 41
0
  0
VERTEX
  8
0
 10
2.77886
 20
23.9533
 30
0.0
 40
0
 41
0
  0
VERTEX
  8
0
 10
2.71972
 20
23.3279
 30
0.0
 40
0
 41
0
  0
VERTEX
  8
0
 10
2.69997
 20
22.7
 30
0.0
 40
0
 41
0
  0
VERTEX
  8
0
 10
2.71972
 20
22.0721
 30
0.0
 40
0
 41
0
  0
VERTEX
  8
0
 10
2.77886
 20
21.4467
 30
0.0
 40
0
 41
0
  0
VERTEX
  8
0
 10
2.87706
 20
20.8261
 30
0.0
 40
0
 41
0
  0
VERTEX
  8
0
 10
3.01417
 20
20.2131
 30
0.0
 40
0
 41
0
  0
VERTEX
  8
0
 10
3.18946
 20
19.6099
 30
0.0
 40
0
 41
0
  0
VERTEX
  8
0
 10
3.40224
 20
19.0187
 30
0.0
 40
0
 41
0
  0
VERTEX
  8
0
 10
3.65169
 20
18.4422
 30
0.0
 40
0
 41
0
  0
VERTEX
  8
0
 10
3.93696
 20
17.8825
 30
0.0
 40
0
 41
0
  0
VERTEX
  8
0
 10
4.25667
 20
17.3417
 30
0.0
 40
0
 41
0
  0
VERTEX
  8
0
 10
4.60986
 20
16.8221
 30
0.0
 40
0
 41
0
  0
VERTEX
  8
0
 10
4.99485
 20
16.3257
 30
0.0
 40
0
 41
0
  0
VERTEX
  8
0
 10
5.41026
 20
15.8546
 30
0.0
 40
0
 41
0
  0
VERTEX
  8
0
 10
5.8546
 20
15.4103
 30
0.0
 40
0
 41
0
  0
VERTEX
  8
0
 10
6.32568
 20
14.9949
 30
0.0
 40
0
 41
0
  0
VERTEX
  8
0
 10
6.8221
 20
14.6099
 30
0.0
 40
0
 41
0
  0
VERTEX
  8
0
 10
7.34169
 20
14.2567
 30
0.0
 40
0
 41
0
  0
VERTEX
  8
0
 10
7.88249
 20
13.9369
 30
0.0
 40
0
 41
0
  0
VERTEX
  8
0
 10
8.44222
 20
13.6516
 30
0.0
 40
0
 41
0
  0
VERTEX
  8
0
 10
9.01878
 20
13.4022
 30
0.0
 40
0
 41
0
  0
VERTEX
  8
0
 10
9.60986
 20
13.1895
 30
0.0
 40
0
 41
0
  0
VERTEX
  8
0
 10
10.2131
 20
13.0142
 30
0.0
 40
0
 41
0
  0
VERTEX
  8
0
 10
10.8261
 20
12.8771
 30
0.0
 40
0
 41
0
  0
VERTEX
  8
0
 10
11.4467
 20
12.7789
 30
0.0
 40
0
 41
0
  0
VERTEX
  8
0
 10
12.0721
 20
12.7197
 30
0.0
 40
0
 41
0
  0
VERTEX
  8
0
 10
12.7
 20
12.7
 30
0.0
 40
0
 41
0
  0
VERTEX
  8
0
 10
13.3279
 20
12.7197
 30
0.0
 40
0
 41
0
  0
VERTEX
  8
0
 10
13.9533
 20
12.7789
 30
0.0
 40
0
 41
0
  0
VERTEX
  8
0
 10
14.5738
 20
12.8771
 30
0.0
 40
0
 41
0
  0
VERTEX
  8
0
 10
15.1869
 20
13.0142
 30
0.0
 40
0
 41
0
  0
VERTEX
  8
0
 10
15.7901
 20
13.1895
 30
0.0
 40
0
 41
0
  0
VERTEX
  8
0
 10
16.3812
 20
13.4022
 30
0.0
 40
0
 41
0
  0
VERTEX
  8
0
 10
16.9578
 20
13.6516
 30
0.0
 40
0
 41
0
  0
VERTEX
  8
0
 10
17.5175
 20
13.9369
 30
0.0
 40
0
 41
0
  0
VERTEX
  8
0
 10
18.0582
 20
14.2567
 30
0.0
 40
0
 41
0
  0
VERTEX
  8
0
 10
18.5778
 20
14.6099
 30
0.0
 40
0
 41
0
  0
VERTEX
  8
0
 10
19.0742
 20
14.9949
 30
0.0
 40
0
 41
0
  0
VERTEX
  8
0
 10
19.5454
 20
15.4103
 30
0.0
 40
0
 41
0
  0
VERTEX
  8
0
 10
19.9897
 20
15.8546
 30
0.0
 40
0
 41
0
  0
VERTEX
  8
0
 10
20.4051
 20
16.3257
 30
0.0
 40
0
 41
0
  0
VERTEX
  8
0
 10
20.7901
 20
16.8221
 30
0.0
 40
0
 41
0
  0
VERTEX
  8
0
 10
21.1433
 20
17.3417
 30
0.0
 40
0
 41
0
  0
VERTEX
  8
0
 10
21.4631
 20
17.8825
 30
0.0
 40
0
 41
0
  0
VERTEX
  8
0
 10
21.7482
 20
18.4422
 30
0.0
 40
0
 41
0
  0
VERTEX
  8
0
 10
21.9978
 20
19.0187
 30
0.0
 40
0
 41
0
  0
VERTEX
  8
0
 10
22.2106
 20
19.6099
 30
0.0
 40
0
 41
0
  0
VERTEX
  8
0
 10
22.3858
 20
20.2131
 30
0.0
 40
0
 41
0
  0
VERTEX
  8
0
 10
22.5229
 20
20.8261
 30
0.0
 40
0
 41
0
  0
VERTEX
  8
0
 10
22.6211
 20
21.4467
 30
0.0
 40
0
 41
0
  0
VERTEX
  8
0
 10
22.6803
 20
22.0721
 30
0.0
 40
0
 41
0
  0
VERTEX
  8
0
 10
22.7
 20
22.7
 30
0.0
 40
0
 41
0
  0
SEQEND
 8
0
  0
POLYLINE
  8
0
 62
     0
 66
     1
 10
0
 20
0
 30
0.0
 70
     1
 40
0.75
 41
0.75
  0
VERTEX
  8
0
 10
22.7
 20
22.7
 30
0.0
 40
0.0104167
 41
0.0104167
  0
VERTEX
  8
0
 10
22.6803
 20
23.3279
 30
0.0
 40
0.0104167
 41
0.0104167
  0
VERTEX
  8
0
 10
22.6211
 20
23.9533
 30
0.0
 40
0.0104167
 41
0.0104167
  0
VERTEX
  8
0
 10
22.5229
 20
24.5738
 30
0.0
 40
0.0104167
 41
0.0104167
  0
VERTEX
  8
0
 10
22.3858
 20
25.1869
 30
0.0
 40
0.0104167
 41
0.0104167
  0
VERTEX
  8
0
 10
22.2106
 20
25.7901
 30
0.0
 40
0.0104167
 41
0.0104167
  0
VERTEX
  8
0
 10
21.9978
 20
26.3812
 30
0.0
 40
0.0104167
 41
0.0104167
  0
VERTEX
  8
0
 10
21.7482
 20
26.9578
 30
0.0
 40
0.0104167
 41
0.0104167
  0
VERTEX
  8
0
 10
21.4631
 20
27.5175
 30
0.0
 40
0.0104167
 41
0.0104167
  0
VERTEX
  8
0
 10
21.1433
 20
28.0582
 30
0.0
 40
0.0104167
 41
0.0104167
  0
VERTEX
  8
0
 10
20.7901
 20
28.5778
 30
0.0
 40
0.0104167
 41
0.0104167
  0
VERTEX
  8
0
 10
20.4051
 20
29.0742
 30
0.0
 40
0.0104167
 41
0.0104167
  0
VERTEX
  8
0
 10
19.9897
 20
29.5454
 30
0.0
 40
0.0104167
 41
0.0104167
  0
VERTEX
  8
0
 10
19.5454
 20
29.9897
 30
0.0
 40
0.0104167
 41
0.0104167
  0
VERTEX
  8
0
 10
19.0742
 20
30.4051
 30
0.0
 40
0.0104167
 41
0.0104167
  0
VERTEX
  8
0
 10
18.5778
 20
30.7901
 30
0.0
 40
0.0104167
 41
0.0104167
  0
VERTEX
  8
0
 10
18.0582
 20
31.1433
 30
0.0
 40
0.0104167
 41
0.0104167
  0
VERTEX
  8
0
 10
17.5175
 20
31.4631
 30
0.0
 40
0.0104167
 41
0.0104167
  0
VERTEX
  8
0
 10
16.9578
 20
31.7482
 30
0.0
 40
0.0104167
 41
0.0104167
  0
VERTEX
  8
0
 10
16.3812
 20
31.9978
 30
0.0
 40
0.0104167
 41
0.0104167
  0
VERTEX
  8
0
 10
15.7901
 20
32.2106
 30
0.0
 40
0.0104167
 41
0.0104167
  0
VERTEX
  8
0
 10
15.1869
 20
32.3858
 30
0.0
 40
0.0104167
 41
0.0104167
  0
VERTEX
  8
0
 10
14.5738
 20
32.5229
 30
0.0
 40
0.0104167
 41
0.0104167
  0
VERTEX
  8
0
 10
13.9533
 20
32.6211
 30
0.0
 40
0.0104167
 41
0.0104167
  0
VERTEX
  8
0
 10
13.3279
 20
32.6803
 30
0.0
 40
0.0104167
 41
0.0104167
  0
VERTEX
  8
0
 10
12.7
 20
32.7
 30
0.0
 40
0.0104167
 41
0.0104167
  0
VERTEX
  8
0
 10
12.0721
 20
32.6803
 30
0.0
 40
0.0104167
 41
0.0104167
  0
VERTEX
  8
0
 10
11.4467
 20
32.6211
 30
0.0
 40
0.0104167
 41
0.0104167
  0
VERTEX
  8
0
 10
10.8261
 20
32.5229
 30
0.0
 40
0.0104167
 41
0.0104167
  0
VERTEX
  8
0
 10
10.2131
 20
32.3858
 30
0.0
 40
0.0104167
 41
0.0104167
  0
VERTEX
  8
0
 10
9.60986
 20
32.2106
 30
0.0
 40
0.0104167
 41
0.0104167
  0
VERTEX
  8
0
 10
9.01878
 20
31.9978
 30
0.0
 40
0.0104167
 41
0.0104167
  0
VERTEX
  8
0
 10
8.44222
 20
31.7482
 30
0.0
 40
0.0104167
 41
0.0104167
  0
VERTEX
  8
0
 10
7.88249
 20
31.4631
 30
0.0
 40
0.0104167
 41
0.0104167
  0
VERTEX
  8
0
 10
7.34169
 20
31.1433
 30
0.0
 40
0.0104167
 41
0.0104167
  0
VERTEX
  8
0
 10
6.8221
 20
30.7901
 30
0.0
 40
0.0104167
 41
0.0104167
  0
VERTEX
  8
0
 10
6.32568
 20
30.4051
 30
0.0
 40
0.0104167
 41
0.0104167
  0
VERTEX
  8
0
 10
5.8546
 20
29.9897
 30
0.0
 40
0.0104167
 41
0.0104167
  0
VERTEX
  8
0
 10
5.41026
 20
29.5454
 30
0.0
 40
0.0104167
 41
0.0104167
  0
VERTEX
  8
0
 10
4.99485
 20
29.0742
 30
0.0
 40
0.0104167
 41
0.0104167
  0
VERTEX
  8
0
 10
4.60986
 20
28.5778
 30
0.0
 40
0.0104167
 41
0.0104167
  0
VERTEX
  8
0
 10
4.25667
 20
28.0582
 30
0.0
 40
0.0104167
 41
0.0104167
  0
VERTEX
  8
0
 10
3.93696
 20
27.5175
 30
0.0
 40
0.0104167
 41
0.0104167
  0
VERTEX
  8
0
 10
3.65169
 20
26.9578
 30
0.0
 40
0.0104167
 41
0.0104167
  0
VERTEX
  8
0
 10
3.40224
 20
26.3812
 30
0.0
 40
0.0104167
 41
0.0104167
  0
VERTEX
  8
0
 10
3.18946
 20
25.7901
 30
0.0
 40
0.0104167
 41
0.0104167
  0
VERTEX
  8
0
 10
3.01417
 20
25.1869
 30
0.0
 40
0.0104167
 41
0.0104167
  0
VERTEX
  8
0
 10
2.87706
 20
24.5738
 30
0.0
 40
0.0104167
 41
0.0104167
  0
VERTEX
  8
0
 10
2.77886
 20
23.9533
 30
0.0
 40
0.0104167
 41
0.0104167
  0
VERTEX
  8
0
 10
2.71972
 20
23.3279
 30
0.0
 40
0.0104167
 41
0.0104167
  0
VERTEX
  8
0
 10
2.69997
 20
22.7
 30
0.0
 40
0.0104167
 41
0.0104167
  0
VERTEX
  8
0
 10
2.71972
 20
22.0721
 30
0.0
 40
0.0104167
 41
0.0104167
  0
VERTEX
  8
0
 10
2.77886
 20
21.4467
 30
0.0
 40
0.0104167
 41
0.0104167
  0
VERTEX
  8
0
 10
2.87706
 20
20.8261
 30
0.0
 40
0.0104167
 41
0.0104167
  0
VERTEX
  8
0
 10
3.01417
 20
20.2131
 30
0.0
 40
0.0104167
 41
0.0104167
  0
VERTEX
  8
0
 10
3.18946
 20
19.6099
 30
0.0
 40
0.0104167
 41
0.0104167
  0
VERTEX
  8
0
 10
3.40224
 20
19.0187
 30
0.0
 40
0.0104167
 41
0.0104167
  0
VERTEX
  8
0
 10
3.65169
 20
18.4422
 30
0.0
 40
0.0104167
 41
0.0104167
  0
VERTEX
  8
0
 10
3.93696
 20
17.8825
 30
0.0
 40
0.0104167
 41
0.0104167
  0
VERTEX
  8
0
 10
4.25667
 20
17.3417
 30
0.0
 40
0.0104167
 41
0.0104167
  0
VERTEX
  8
0
 10
4.60986
 20
16.8221
 30
0.0
 40
0.0104167
 41
0.0104167
  0
VERTEX
  8
0
 10
4.99485
 20
16.3257
 30
0.0
 40
0.0104167
 41
0.0104167
  0
VERTEX
  8
0
 10
5.41026
 20
15.8546
 30
0.0
 40
0.0104167
 41
0.0104167
  0
VERTEX
  8
0
 10
5.8546
 20
15.4103
 30
0.0
 40
0.0104167
 41
0.0104167
  0
VERTEX
  8
0
 10
6.32568
 20
14.9949
 30
0.0
 40
0.0104167
 41
0.0104167
  0
VERTEX
  8
0
 10
6.8221
 20
14.6099
 30
0.0
 40
0.0104167
 41
0.0104167
  0
VERTEX
  8
0
 10
7.34169
 20
14.2567
 30
0.0
 40
0.0104167
 41
0.0104167
  0
VERTEX
  8
0
 10
7.88249
 20
13.9369
 30
0.0
 40
0.0104167
 41
0.0104167
  0
VERTEX
  8
0
 10
8.44222
 20
13.6516
 30
0.0
 40
0.0104167
 41
0.0104167
  0
VERTEX
  8
0
 10
9.01878
 20
13.4022
 30
0.0
 40
0.0104167
 41
0.0104167
  0
VERTEX
  8
0
 10
9.60986
 20
13.1895
 30
0.0
 40
0.0104167
 41
0.0104167
  0
VERTEX
  8
0
 10
10.2131
 20
13.0142
 30
0.0
 40
0.0104167
 41
0.0104167
  0
VERTEX
  8
0
 10
10.8261
 20
12.8771
 30
0.0
 40
0.0104167
 41
0.0104167
  0
VERTEX
  8
0
 10
11.4467
 20
12.7789
 30
0.0
 40
0.0104167
 41
0.0104167
  0
VERTEX
  8
0
 10
12.0721
 20
12.7197
 30
0.0
 40
0.0104167
 41
0.0104167
  0
VERTEX
  8
0
 10
12.7
 20
12.7
 30
0.0
 40
0.0104167
 41
0.0104167
  0
VERTEX
  8
0
 10
13.3279
 20
12.7197
 30
0.0
 40
0.0104167
 41
0.0104167
  0
VERTEX
  8
0
 10
13.9533
 20
12.7789
 30
0.0
 40
0.0104167
 41
0.0104167
  0
VERTEX
  8
0
 10
14.5738
 20
12.8771
 30
0.0
 40
0.0104167
 41
0.0104167
  0
VERTEX
  8
0
 10
15.1869
 20
13.0142
 30
0.0
 40
0.0104167
 41
0.0104167
  0
VERTEX
  8
0
 10
15.7901
 20
13.1895
 30
0.0
 40
0.0104167
 41
0.0104167
  0
VERTEX
  8
0
 10
16.3812
 20
13.4022
 30
0.0
 40
0.0104167
 41
0.0104167
  0
VERTEX
  8
0
 10
16.9578
 20
13.6516
 30
0.0
 40
0.0104167
 41
0.0104167
  0
VERTEX
  8
0
 10
17.5175
 20
13.9369
 30
0.0
 40
0.0104167
 41
0.0104167
  0
VERTEX
  8
0
 10
18.0582
 20
14.2567
 30
0.0
 40
0.0104167
 41
0.0104167
  0
VERTEX
  8
0
 10
18.5778
 20
14.6099
 30
0.0
 40
0.0104167
 41
0.0104167
  0
VERTEX
  8
0
 10
19.0742
 20
14.9949
 30
0.0
 40
0.0104167
 41
0.0104167
  0
VERTEX
  8
0
 10
19.5454
 20
15.4103
 30
0.0
 40
0.0104167
 41
0.0104167
  0
VERTEX
  8
0
 10
19.9897
 20
15.8546
 30
0.0
 40
0.0104167
 41
0.0104167
  0
VERTEX
  8
0
 10
20.4051
 20
16.3257
 30
0.0
 40
0.0104167
 41
0.0104167
  0
VERTEX
  8
0
 10
20.7901
 20
16.8221
 30
0.0
 40
0.0104167
 41
0.0104167
  0
VERTEX
  8
0
 10
21.1433
 20
17.3417
 30
0.0
 40
0.0104167
 41
0.0104167
  0
VERTEX
  8
0
 10
21.4631
 20
17.8825
 30
0.0
 40
0.0104167
 41
0.0104167
  0
VERTEX
  8
0
 10
21.7482
 20
18.4422
 30
0.0
 40
0.0104167
 41
0.0104167
  0
VERTEX
  8
0
 10
21.9978
 20
19.0187
 30
0.0
 40
0.0104167
 41
0.0104167
  0
VERTEX
  8
0
 10
22.2106
 20
19.6099
 30
0.0
 40
0.0104167
 41
0.0104167
  0
VERTEX
  8
0
 10
22.3858
 20
20.2131
 30
0.0
 40
0.0104167
 41
0.0104167
  0
VERTEX
  8
0
 10
22.5229
 20
20.8261
 30
0.0
 40
0.0104167
 41
0.0104167
  0
VERTEX
  8
0
 10
22.6211
 20
21.4467
 30
0.0
 40
0.0104167
 41
0.0104167
  0
VERTEX
  8
0
 10
22.6803
 20
22.0721
 30
0.0
 40
0.0104167
 41
0.0104167
  0
VERTEX
  8
0
 10
22.7
 20
22.7
 30
0.0
 40
0.0104167
 41
0.0104167
  0
SEQEND
 8
0
  0
POLYLINE
  8
0
 62
     0
 66
     1
 10
0
 20
0
 30
0.0
 70
     1
 40
0
 41
0
  0
VERTEX
  8
0
 10
10.2
 20
102.249
 30
0.0
 40
0
 41
0
  0
VERTEX
  8
0
 10
15.2
 20
102.249
 30
0.0
 40
0
 41
0
  0
VERTEX
  8
0
 10
15.2
 20
72.5588
 30
0.0
 40
0
 41
0
  0
VERTEX
  8
0
 10
10.2
 20
72.5588
 30
0.0
 40
0
 41
0
  0
VERTEX
  8
0
 10
10.2
 20
102.249
 30
0.0
 40
0
 41
0
  0
SEQEND
 8
0
  0
POLYLINE
  8
0
 62
     0
 66
     1
 10
0
 20
0
 30
0.0
 70
     1
 40
0
 41
0
  0
VERTEX
  8
0
 10
10.2
 20
52.74
 30
0.0
 40
0
 41
0
  0
VERTEX
  8
0
 10
15.2
 20
52.74
 30
0.0
 40
0
 41
0
  0
VERTEX
  8
0
 10
15.2
 20
22.7
 30
0.0
 40
0
 41
0
  0
VERTEX
  8
0
 10
10.2
 20
22.7
 30
0.0
 40
0
 41
0
  0
VERTEX
  8
0
 10
10.2
 20
52.74
 30
0.0
 40
0
 41
0
  0
SEQEND
 8
0
  0
POLYLINE
  8
0
 62
     0
 66
     1
 10
0
 20
0
 30
0.0
 70
     1
 40
0
 41
0
  0
VERTEX
  8
0
 10
10.2
 20
72.5987
 30
0.0
 40
0
 41
0
  0
VERTEX
  8
0
 10
15.2
 20
72.5987
 30
0.0
 40
0
 41
0
  0
VERTEX
  8
0
 10
12.525
 20
70.5987
 30
0.0
 40
0
 41
0
  0
VERTEX
  8
0
 10
12.875
 20
70.5987
 30
0.0
 40
0
 41
0
  0
VERTEX
  8
0
 10
10.2
 20
72.5987
 30
0.0
 40
0
 41
0
  0
SEQEND
 8
0
  0
POLYLINE
  8
0
 62
     0
 66
     1
 10
0
 20
0
 30
0.0
 70
     1
 40
0
 41
0
  0
VERTEX
  8
0
 10
12.525
 20
72.5987
 30
0.0
 40
0
 41
0
  0
VERTEX
  8
0
 10
12.875
 20
72.5987
 30
0.0
 40
0
 41
0
  0
VERTEX
  8
0
 10
12.875
 20
70.2488
 30
0.0
 40
0
 41
0
  0
VERTEX
  8
0
 10
12.525
 20
70.2488
 30
0.0
 40
0
 41
0
  0
VERTEX
  8
0
 10
12.525
 20
72.5987
 30
0.0
 40
0
 41
0
  0
SEQEND
 8
0
  0
POLYLINE
  8
0
 62
     0
 66
     1
 10
0
 20
0
 30
0.0
 70
     1
 40
0
 41
0
  0
VERTEX
  8
0
 10
10.2
 20
52.7
 30
0.0
 40
0
 41
0
  0
VERTEX
  8
0
 10
15.2
 20
52.7
 30
0.0
 40
0
 41
0
  0
VERTEX
  8
0
 10
12.525
 20
54.7
 30
0.0
 40
0
 41
0
  0
VERTEX
  8
0
 10
12.875
 20
54.7
 30
0.0
 40
0
 41
0
  0
VERTEX
  8
0
 10
10.2
 20
52.7
 30
0.0
 40
0
 41
0
  0
SEQEND
 8
0
  0
POLYLINE
  8
0
 62
     0
 66
     1
 10
0
 20
0
 30
0.0
 70
     1
 40
0
 41
0
  0
VERTEX
  8
0
 10
12.525
 20
55.05
 30
0.0
 40
0
 41
0
  0
VERTEX
  8
0
 10
12.875
 20
55.05
 30
0.0
 40
0
 41
0
  0
VERTEX
  8
0
 10
12.875
 20
52.7
 30
0.0
 40
0
 41
0
  0
VERTEX
  8
0
 10
12.525
 20
52.7
 30
0.0
 40
0
 41
0
  0
VERTEX
  8
0
 10
12.525
 20
55.05
 30
0.0
 40
0
 41
0
  0
SEQEND
 8
0
  0
POLYLINE
  8
0
 62
     0
 66
     1
 10
0
 20
0
 30
0.0
 70
     1
 40
0
 41
0
  0
VERTEX
  8
0
 10
12.7
 20
54.7
 30
0.0
 40
0
 41
0
  0
VERTEX
  8
0
 10
12.5372
 20
54.7147
 30
0.0
 40
0
 41
0
  0
VERTEX
  8
0
 10
12.375
 20
54.7328
 30
0.0
 40
0
 41
0
  0
VERTEX
  8
0
 10
12.2135
 20
54.7543
 30
0.0
 40
0
 41
0
  0
VERTEX
  8
0
 10
12.0528
 20
54.779
 30
0.0
 40
0
 41
0
  0
VERTEX
  8
0
 10
11.8928
 20
54.8072
 30
0.0
 40
0
 41
0
  0
VERTEX
  8
0
 10
11.7337
 20
54.8387
 30
0.0
 40
0
 41
0
  0
VERTEX
  8
0
 10
11.5757
 20
54.8736
 30
0.0
 40
0
 41
0
  0
VERTEX
  8
0
 10
11.4186
 20
54.9117
 30
0.0
 40
0
 41
0
  0
VERTEX
  8
0
 10
11.2628
 20
54.9529
 30
0.0
 40
0
 41
0
  0
VERTEX
  8
0
 10
11.1079
 20
54.9974
 30
0.0
 40
0
 41
0
  0
VERTEX
  8
0
 10
10.9544
 20
55.045
 30
0.0
 40
0
 41
0
  0
VERTEX
  8
0
 10
10.8023
 20
55.0958
 30
0.0
 40
0
 41
0
  0
VERTEX
  8
0
 10
10.6514
 20
55.1499
 30
0.0
 40
0
 41
0
  0
VERTEX
  8
0
 10
10.502
 20
55.2068
 30
0.0
 40
0
 41
0
  0
VERTEX
  8
0
 10
10.354
 20
55.2669
 30
0.0
 40
0
 41
0
  0
VERTEX
  8
0
 10
10.2075
 20
55.33
 30
0.0
 40
0
 41
0
  0
VERTEX
  8
0
 10
10.0628
 20
55.396
 30
0.0
 40
0
 41
0
  0
VERTEX
  8
0
 10
9.9196
 20
55.4649
 30
0.0
 40
0
 41
0
  0
VERTEX
  8
0
 10
9.77821
 20
55.5367
 30
0.0
 40
0
 41
0
  0
VERTEX
  8
0
 10
9.63861
 20
55.6114
 30
0.0
 40
0
 41
0
  0
VERTEX
  8
0
 10
9.50082
 20
55.6889
 30
0.0
 40
0
 41
0
  0
VERTEX
  8
0
 10
9.36501
 20
55.769
 30
0.0
 40
0
 41
0
  0
VERTEX
  8
0
 10
9.23112
 20
55.8521
 30
0.0
 40
0
 41
0
  0
VERTEX
  8
0
 10
9.09928
 20
55.9376
 30
0.0
 40
0
 41
0
  0
VERTEX
  8
0
 10
8.96946
 20
56.0258
 30
0.0
 40
0
 41
0
  0
VERTEX
  8
0
 10
8.84169
 20
56.1165
 30
0.0
 40
0
 41
0
  0
VERTEX
  8
0
 10
8.7161
 20
56.2099
 30
0.0
 40
0
 41
0
  0
VERTEX
  8
0
 10
8.59278
 20
56.3057
 30
0.0
 40
0
 41
0
  0
VERTEX
  8
0
 10
8.47168
 20
56.4038
 30
0.0
 40
0
 41
0
  0
VERTEX
  8
0
 10
8.35292
 20
56.5043
 30
0.0
 40
0
 41
0
  0
VERTEX
  8
0
 10
8.23654
 20
56.6072
 30
0.0
 40
0
 41
0
  0
VERTEX
  8
0
 10
8.1225
 20
56.7122
 30
0.0
 40
0
 41
0
  0
VERTEX
  8
0
 10
8.01096
 20
56.8196
 30
0.0
 40
0
 41
0
  0
VERTEX
  8
0
 10
7.90181
 20
56.9289
 30
0.0
 40
0
 41
0
  0
VERTEX
  8
0
 10
7.79531
 20
57.0404
 30
0.0
 40
0
 41
0
  0
VERTEX
  8
0
 10
7.69125
 20
57.154
 30
0.0
 40
0
 41
0
  0
VERTEX
  8
0
 10
7.58985
 20
57.2694
 30
0.0
 40
0
 41
0
  0
VERTEX
  8
0
 10
7.491
 20
57.3869
 30
0.0
 40
0
 41
0
  0
VERTEX
  8
0
 10
7.39501
 20
57.5061
 30
0.0
 40
0
 41
0
  0
VERTEX
  8
0
 10
7.30154
 20
57.6272
 30
0.0
 40
0
 41
0
  0
VERTEX
  8
0
 10
7.21083
 20
57.75
 30
0.0
 40
0
 41
0
  0
VERTEX
  8
0
 10
7.12304
 20
57.8744
 30
0.0
 40
0
 41
0
  0
VERTEX
  8
0
 10
7.03792
 20
58.0006
 30
0.0
 40
0
 41
0
  0
VERTEX
  8
0
 10
6.95568
 20
58.1281
 30
0.0
 40
0
 41
0
  0
VERTEX
  8
0
 10
6.87625
 20
58.2572
 30
0.0
 40
0
 41
0
  0
VERTEX
  8
0
 10
6.79969
 20
58.3876
 30
0.0
 40
0
 41
0
  0
VERTEX
  8
0
 10
6.72613
 20
58.5194
 30
0.0
 40
0
 41
0
  0
VERTEX
  8
0
 10
6.65543
 20
58.6526
 30
0.0
 40
0
 41
0
  0
VERTEX
  8
0
 10
6.58778
 20
58.7869
 30
0.0
 40
0
 41
0
  0
VERTEX
  8
0
 10
6.52289
 20
58.9225
 30
0.0
 40
0
 41
0
  0
VERTEX
  8
0
 10
6.46126
 20
59.059
 30
0.0
 40
0
 41
0
  0
VERTEX
  8
0
 10
6.4025
 20
59.1967
 30
0.0
 40
0
 41
0
  0
VERTEX
  8
0
 10
6.34668
 20
59.3353
 30
0.0
 40
0
 41
0
  0
VERTEX
  8
0
 10
6.29406
 20
59.4747
 30
0.0
 40
0
 41
0
  0
VERTEX
  8
0
 10
6.24447
 20
59.615
 30
0.0
 40
0
 41
0
  0
VERTEX
  8
0
 10
6.19775
 20
59.7561
 30
0.0
 40
0
 41
0
  0
VERTEX
  8
0
 10
6.15429
 20
59.8978
 30
0.0
 40
0
 41
0
  0
VERTEX
  8
0
 10
6.11388
 20
60.0401
 30
0.0
 40
0
 41
0
  0
VERTEX
  8
0
 10
6.07656
 20
60.1831
 30
0.0
 40
0
 41
0
  0
VERTEX
  8
0
 10
6.04221
 20
60.3265
 30
0.0
 40
0
 41
0
  0
VERTEX
  8
0
 10
6.01112
 20
60.4704
 30
0.0
 40
0
 41
0
  0
VERTEX
  8
0
 10
5.98307
 20
60.6146
 30
0.0
 40
0
 41
0
  0
VERTEX
  8
0
 10
5.95806
 20
60.7592
 30
0.0
 40
0
 41
0
  0
VERTEX
  8
0
 10
5.93625
 20
60.9039
 30
0.0
 40
0
 41
0
  0
VERTEX
  8
0
 10
5.91749
 20
61.0487
 30
0.0
 40
0
 41
0
  0
VERTEX
  8
0
 10
5.90181
 20
61.1938
 30
0.0
 40
0
 41
0
  0
VERTEX
  8
0
 10
5.88917
 20
61.3388
 30
0.0
 40
0
 41
0
  0
VERTEX
  8
0
 10
5.87972
 20
61.4838
 30
0.0
 40
0
 41
0
  0
VERTEX
  8
0
 10
5.87332
 20
61.6286
 30
0.0
 40
0
 41
0
  0
VERTEX
  8
0
 10
5.87001
 20
61.7733
 30
0.0
 40
0
 41
0
  0
VERTEX
  8
0
 10
5.86974
 20
61.9179
 30
0.0
 40
0
 41
0
  0
VERTEX
  8
0
 10
5.8725
 20
62.0621
 30
0.0
 40
0
 41
0
  0
VERTEX
  8
0
 10
5.87831
 20
62.2058
 30
0.0
 40
0
 41
0
  0
VERTEX
  8
0
 10
5.88721
 20
62.3493
 30
0.0
 40
0
 41
0
  0
VERTEX
  8
0
 10
5.89903
 20
62.4922
 30
0.0
 40
0
 41
0
  0
VERTEX
  8
0
 10
5.9139
 20
62.6346
 30
0.0
 40
0
 41
0
  0
VERTEX
  8
0
 10
5.93181
 20
62.7763
 30
0.0
 40
0
 41
0
  0
VERTEX
  8
0
 10
5.95247
 20
62.9174
 30
0.0
 40
0
 41
0
  0
VERTEX
  8
0
 10
5.97624
 20
63.0576
 30
0.0
 40
0
 41
0
  0
VERTEX
  8
0
 10
6.00276
 20
63.1972
 30
0.0
 40
0
 41
0
  0
VERTEX
  8
0
 10
6.03233
 20
63.3358
 30
0.0
 40
0
 41
0
  0
VERTEX
  8
0
 10
6.06472
 20
63.4736
 30
0.0
 40
0
 41
0
  0
VERTEX
  8
0
 10
6.09999
 20
63.6104
 30
0.0
 40
0
 41
0
  0
VERTEX
  8
0
 10
6.13792
 20
63.7461
 30
0.0
 40
0
 41
0
  0
VERTEX
  8
0
 10
6.17876
 20
63.8807
 30
0.0
 40
0
 41
0
  0
VERTEX
  8
0
 10
6.22239
 20
64.0143
 30
0.0
 40
0
 41
0
  0
VERTEX
  8
0
 10
6.26861
 20
64.1465
 30
0.0
 40
0
 41
0
  0
VERTEX
  8
0
 10
6.31765
 20
64.2775
 30
0.0
 40
0
 41
0
  0
VERTEX
  8
0
 10
6.36931
 20
64.4072
 30
0.0
 40
0
 41
0
  0
VERTEX
  8
0
 10
6.42344
 20
64.5356
 30
0.0
 40
0
 41
0
  0
VERTEX
  8
0
 10
6.48042
 20
64.6625
 30
0.0
 40
0
 41
0
  0
VERTEX
  8
0
 10
6.53988
 20
64.7879
 30
0.0
 40
0
 41
0
  0
VERTEX
  8
0
 10
6.60178
 20
64.9118
 30
0.0
 40
0
 41
0
  0
VERTEX
  8
0
 10
6.66613
 20
65.0342
 30
0.0
 40
0
 41
0
  0
VERTEX
  8
0
 10
6.73307
 20
65.1549
 30
0.0
 40
0
 41
0
  0
VERTEX
  8
0
 10
6.80236
 20
65.2737
 30
0.0
 40
0
 41
0
  0
VERTEX
  8
0
 10
6.87392
 20
65.3911
 30
0.0
 40
0
 41
0
  0
VERTEX
  8
0
 10
6.94792
 20
65.5067
 30
0.0
 40
0
 41
0
  0
VERTEX
  8
0
 10
7.02414
 20
65.6203
 30
0.0
 40
0
 41
0
  0
VERTEX
  8
0
 10
7.10249
 20
65.7322
 30
0.0
 40
0
 41
0
  0
VERTEX
  8
0
 10
7.18321
 20
65.8421
 30
0.0
 40
0
 41
0
  0
VERTEX
  8
0
 10
7.26594
 20
65.9501
 30
0.0
 40
0
 41
0
  0
VERTEX
  8
0
 10
7.35086
 20
66.0561
 30
0.0
 40
0
 41
0
  0
VERTEX
  8
0
 10
7.43778
 20
66.1601
 30
0.0
 40
0
 41
0
  0
VERTEX
  8
0
 10
7.52681
 20
66.2619
 30
0.0
 40
0
 41
0
  0
VERTEX
  8
0
 10
7.61762
 20
66.3618
 30
0.0
 40
0
 41
0
  0
VERTEX
  8
0
 10
7.71056
 20
66.4594
 30
0.0
 40
0
 41
0
  0
VERTEX
  8
0
 10
7.80512
 20
66.555
 30
0.0
 40
0
 41
0
  0
VERTEX
  8
0
 10
7.90169
 20
66.6482
 30
0.0
 40
0
 41
0
  0
VERTEX
  8
0
 10
7.99983
 20
66.7392
 30
0.0
 40
0
 41
0
  0
VERTEX
  8
0
 10
8.09972
 20
66.8279
 30
0.0
 40
0
 41
0
  0
VERTEX
  8
0
 10
8.20139
 20
66.9144
 30
0.0
 40
0
 41
0
  0
VERTEX
  8
0
 10
8.30458
 20
66.9985
 30
0.0
 40
0
 41
0
  0
VERTEX
  8
0
 10
8.40929
 20
67.0801
 30
0.0
 40
0
 41
0
  0
VERTEX
  8
0
 10
8.5154
 20
67.1594
 30
0.0
 40
0
 41
0
  0
VERTEX
  8
0
 10
8.62304
 20
67.2364
 30
0.0
 40
0
 41
0
  0
VERTEX
  8
0
 10
8.7321
 20
67.3108
 30
0.0
 40
0
 41
0
  0
VERTEX
  8
0
 10
8.8425
 20
67.3828
 30
0.0
 40
0
 41
0
  0
VERTEX
  8
0
 10
8.95415
 20
67.4522
 30
0.0
 40
0
 41
0
  0
VERTEX
  8
0
 10
9.06694
 20
67.5192
 30
0.0
 40
0
 41
0
  0
VERTEX
  8
0
 10
9.18099
 20
67.5836
 30
0.0
 40
0
 41
0
  0
VERTEX
  8
0
 10
9.29596
 20
67.6454
 30
0.0
 40
0
 41
0
  0
VERTEX
  8
0
 10
9.41211
 20
67.7047
 30
0.0
 40
0
 41
0
  0
VERTEX
  8
0
 10
9.52929
 20
67.7614
 30
0.0
 40
0
 41
0
  0
VERTEX
  8
0
 10
9.64735
 20
67.8156
 30
0.0
 40
0
 41
0
  0
VERTEX
  8
0
 10
9.76628
 20
67.8669
 30
0.0
 40
0
 41
0
  0
VERTEX
  8
0
 10
9.88596
 20
67.9158
 30
0.0
 40
0
 41
0
  0
VERTEX
  8
0
 10
10.0064
 20
67.9619
 30
0.0
 40
0
 41
0
  0
VERTEX
  8
0
 10
10.1277
 20
68.0056
 30
0.0
 40
0
 41
0
  0
VERTEX
  8
0
 10
10.2495
 20
68.0464
 30
0.0
 40
0
 41
0
  0
VERTEX
  8
0
 10
10.3718
 20
68.0846
 30
0.0
 40
0
 41
0
  0
VERTEX
  8
0
 10
10.4947
 20
68.1201
 30
0.0
 40
0
 41
0
  0
VERTEX
  8
0
 10
10.6182
 20
68.1529
 30
0.0
 40
0
 41
0
  0
VERTEX
  8
0
 10
10.742
 20
68.1831
 30
0.0
 40
0
 41
0
  0
VERTEX
  8
0
 10
10.8661
 20
68.2106
 30
0.0
 40
0
 41
0
  0
VERTEX
  8
0
 10
10.9906
 20
68.2353
 30
0.0
 40
0
 41
0
  0
VERTEX
  8
0
 10
11.1151
 20
68.2574
 30
0.0
 40
0
 41
0
  0
VERTEX
  8
0
 10
11.24
 20
68.2768
 30
0.0
 40
0
 41
0
  0
VERTEX
  8
0
 10
11.365
 20
68.2935
 30
0.0
 40
0
 41
0
  0
VERTEX
  8
0
 10
11.49
 20
68.3075
 30
0.0
 40
0
 41
0
  0
VERTEX
  8
0
 10
11.615
 20
68.3189
 30
0.0
 40
0
 41
0
  0
VERTEX
  8
0
 10
11.7399
 20
68.3275
 30
0.0
 40
0
 41
0
  0
VERTEX
  8
0
 10
11.8648
 20
68.3335
 30
0.0
 40
0
 41
0
  0
VERTEX
  8
0
 10
11.9893
 20
68.3368
 30
0.0
 40
0
 41
0
  0
VERTEX
  8
0
 10
12.1138
 20
68.3375
 30
0.0
 40
0
 41
0
  0
VERTEX
  8
0
 10
12.2379
 20
68.3356
 30
0.0
 40
0
 41
0
  0
VERTEX
  8
0
 10
12.3617
 20
68.3311
 30
0.0
 40
0
 41
0
  0
VERTEX
  8
0
 10
12.4851
 20
68.3239
 30
0.0
 40
0
 41
0
  0
VERTEX
  8
0
 10
12.6081
 20
68.3142
 30
0.0
 40
0
 41
0
  0
VERTEX
  8
0
 10
12.7306
 20
68.3018
 30
0.0
 40
0
 41
0
  0
VERTEX
  8
0
 10
12.8525
 20
68.2869
 30
0.0
 40
0
 41
0
  0
VERTEX
  8
0
 10
12.9737
 20
68.2694
 30
0.0
 40
0
 41
0
  0
VERTEX
  8
0
 10
13.0943
 20
68.2494
 30
0.0
 40
0
 41
0
  0
VERTEX
  8
0
 10
13.2143
 20
68.2271
 30
0.0
 40
0
 41
0
  0
VERTEX
  8
0
 10
13.3335
 20
68.2021
 30
0.0
 40
0
 41
0
  0
VERTEX
  8
0
 10
13.4517
 20
68.1747
 30
0.0
 40
0
 41
0
  0
VERTEX
  8
0
 10
13.5692
 20
68.1449
 30
0.0
 40
0
 41
0
  0
VERTEX
  8
0
 10
13.6857
 20
68.1125
 30
0.0
 40
0
 41
0
  0
VERTEX
  8
0
 10
13.8013
 20
68.0779
 30
0.0
 40
0
 41
0
  0
VERTEX
  8
0
 10
13.9158
 20
68.0408
 30
0.0
 40
0
 41
0
  0
VERTEX
  8
0
 10
14.0293
 20
68.0015
 30
0.0
 40
0
 41
0
  0
VERTEX
  8
0
 10
14.1417
 20
67.9599
 30
0.0
 40
0
 41
0
  0
VERTEX
  8
0
 10
14.2528
 20
67.916
 30
0.0
 40
0
 41
0
  0
VERTEX
  8
0
 10
14.3628
 20
67.8697
 30
0.0
 40
0
 41
0
  0
VERTEX
  8
0
 10
14.4715
 20
67.8214
 30
0.0
 40
0
 41
0
  0
VERTEX
  8
0
 10
14.5789
 20
67.7708
 30
0.0
 40
0
 41
0
  0
VERTEX
  8
0
 10
14.685
 20
67.7181
 30
0.0
 40
0
 41
0
  0
VERTEX
  8
0
 10
14.7897
 20
67.6632
 30
0.0
 40
0
 41
0
  0
VERTEX
  8
0
 10
14.8931
 20
67.6064
 30
0.0
 40
0
 41
0
  0
VERTEX
  8
0
 10
14.9949
 20
67.5474
 30
0.0
 40
0
 41
0
  0
VERTEX
  8
0
 10
15.0951
 20
67.4864
 30
0.0
 40
0
 41
0
  0
VERTEX
  8
0
 10
15.194
 20
67.4235
 30
0.0
 40
0
 41
0
  0
VERTEX
  8
0
 10
15.2911
 20
67.3586
 30
0.0
 40
0
 41
0
  0
VERTEX
  8
0
 10
15.3867
 20
67.2918
 30
0.0
 40
0
 41
0
  0
VERTEX
  8
0
 10
15.4807
 20
67.2232
 30
0.0
 40
0
 41
0
  0
VERTEX
  8
0
 10
15.5728
 20
67.1528
 30
0.0
 40
0
 41
0
  0
VERTEX
  8
0
 10
15.6633
 20
67.0806
 30
0.0
 40
0
 41
0
  0
VERTEX
  8
0
 10
15.7521
 20
67.0067
 30
0.0
 40
0
 41
0
  0
VERTEX
  8
0
 10
15.839
 20
66.931
 30
0.0
 40
0
 41
0
  0
VERTEX
  8
0
 10
15.924
 20
66.8538
 30
0.0
 40
0
 41
0
  0
VERTEX
  8
0
 10
16.0074
 20
66.7749
 30
0.0
 40
0
 41
0
  0
VERTEX
  8
0
 10
16.0888
 20
66.6944
 30
0.0
 40
0
 41
0
  0
VERTEX
  8
0
 10
16.1682
 20
66.6124
 30
0.0
 40
0
 41
0
  0
VERTEX
  8
0
 10
16.2457
 20
66.529
 30
0.0
 40
0
 41
0
  0
VERTEX
  8
0
 10
16.3211
 20
66.4442
 30
0.0
 40
0
 41
0
  0
VERTEX
  8
0
 10
16.3947
 20
66.3579
 30
0.0
 40
0
 41
0
  0
VERTEX
  8
0
 10
16.4662
 20
66.2703
 30
0.0
 40
0
 41
0
  0
VERTEX
  8
0
 10
16.5357
 20
66.1814
 30
0.0
 40
0
 41
0
  0
VERTEX
  8
0
 10
16.6031
 20
66.0914
 30
0.0
 40
0
 41
0
  0
VERTEX
  8
0
 10
16.6683
 20
66
 30
0.0
 40
0
 41
0
  0
VERTEX
  8
0
 10
16.7315
 20
65.9076
 30
0.0
 40
0
 41
0
  0
VERTEX
  8
0
 10
16.7926
 20
65.814
 30
0.0
 40
0
 41
0
  0
VERTEX
  8
0
 10
16.8517
 20
65.7194
 30
0.0
 40
0
 41
0
  0
VERTEX
  8
0
 10
16.9083
 20
65.6239
 30
0.0
 40
0
 41
0
  0
VERTEX
  8
0
 10
16.9629
 20
65.5274
 30
0.0
 40
0
 41
0
  0
VERTEX
  8
0
 10
17.0154
 20
65.43
 30
0.0
 40
0
 41
0
  0
VERTEX
  8
0
 10
17.0656
 20
65.3317
 30
0.0
 40
0
 41
0
  0
VERTEX
  8
0
 10
17.1135
 20
65.2326
 30
0.0
 40
0
 41
0
  0
VERTEX
  8
0
 10
17.1593
 20
65.1328
 30
0.0
 40
0
 41
0
  0
VERTEX
  8
0
 10
17.2028
 20
65.0322
 30
0.0
 40
0
 41
0
  0
VERTEX
  8
0
 10
17.244
 20
64.931
 30
0.0
 40
0
 41
0
  0
VERTEX
  8
0
 10
17.2831
 20
64.8292
 30
0.0
 40
0
 41
0
  0
VERTEX
  8
0
 10
17.3197
 20
64.7269
 30
0.0
 40
0
 41
0
  0
VERTEX
  8
0
 10
17.3542
 20
64.624
 30
0.0
 40
0
 41
0
  0
VERTEX
  8
0
 10
17.3864
 20
64.5207
 30
0.0
 40
0
 41
0
  0
VERTEX
  8
0
 10
17.4162
 20
64.4171
 30
0.0
 40
0
 41
0
  0
VERTEX
  8
0
 10
17.4439
 20
64.3129
 30
0.0
 40
0
 41
0
  0
VERTEX
  8
0
 10
17.4692
 20
64.2086
 30
0.0
 40
0
 41
0
  0
VERTEX
  8
0
 10
17.4922
 20
64.104
 30
0.0
 40
0
 41
0
  0
VERTEX
  8
0
 10
17.5131
 20
63.9992
 30
0.0
 40
0
 41
0
  0
VERTEX
  8
0
 10
17.5315
 20
63.8943
 30
0.0
 40
0
 41
0
  0
VERTEX
  8
0
 10
17.5476
 20
63.7892
 30
0.0
 40
0
 41
0
  0
VERTEX
  8
0
 10
17.5617
 20
63.684
 30
0.0
 40
0
 41
0
  0
VERTEX
  8
0
 10
17.5732
 20
63.579
 30
0.0
 40
0
 41
0
  0
VERTEX
  8
0
 10
17.5826
 20
63.4739
 30
0.0
 40
0
 41
0
  0
VERTEX
  8
0
 10
17.5897
 20
63.3689
 30
0.0
 40
0
 41
0
  0
VERTEX
  8
0
 10
17.5946
 20
63.264
 30
0.0
 40
0
 41
0
  0
VERTEX
  8
0
 10
17.5972
 20
63.1594
 30
0.0
 40
0
 41
0
  0
VERTEX
  8
0
 10
17.5976
 20
63.055
 30
0.0
 40
0
 41
0
  0
VERTEX
  8
0
 10
17.5958
 20
62.9508
 30
0.0
 40
0
 41
0
  0
VERTEX
  8
0
 10
17.5918
 20
62.8471
 30
0.0
 40
0
 41
0
  0
VERTEX
  8
0
 10
17.5856
 20
62.7436
 30
0.0
 40
0
 41
0
  0
VERTEX
  8
0
 10
17.5772
 20
62.6407
 30
0.0
 40
0
 41
0
  0
VERTEX
  8
0
 10
17.5667
 20
62.5382
 30
0.0
 40
0
 41
0
  0
VERTEX
  8
0
 10
17.5539
 20
62.4361
 30
0.0
 40
0
 41
0
  0
VERTEX
  8
0
 10
17.5392
 20
62.3347
 30
0.0
 40
0
 41
0
  0
VERTEX
  8
0
 10
17.5221
 20
62.2339
 30
0.0
 40
0
 41
0
  0
VERTEX
  8
0
 10
17.5031
 20
62.1337
 30
0.0
 40
0
 41
0
  0
VERTEX
  8
0
 10
17.4819
 20
62.0342
 30
0.0
 40
0
 41
0
  0
VERTEX
  8
0
 10
17.4588
 20
61.9354
 30
0.0
 40
0
 41
0
  0
VERTEX
  8
0
 10
17.4336
 20
61.8375
 30
0.0
 40
0
 41
0
  0
VERTEX
  8
0
 10
17.4064
 20
61.7403
 30
0.0
 40
0
 41
0
  0
VERTEX
  8
0
 10
17.3771
 20
61.644
 30
0.0
 40
0
 41
0
  0
VERTEX
  8
0
 10
17.346
 20
61.5486
 30
0.0
 40
0
 41
0
  0
VERTEX
  8
0
 10
17.3129
 20
61.4542
 30
0.0
 40
0
 41
0
  0
VERTEX
  8
0
 10
17.2778
 20
61.3607
 30
0.0
 40
0
 41
0
  0
VERTEX
  8
0
 10
17.241
 20
61.2682
 30
0.0
 40
0
 41
0
  0
VERTEX
  8
0
 10
17.2021
 20
61.1768
 30
0.0
 40
0
 41
0
  0
VERTEX
  8
0
 10
17.1615
 20
61.0865
 30
0.0
 40
0
 41
0
  0
VERTEX
  8
0
 10
17.1192
 20
60.9974
 30
0.0
 40
0
 41
0
  0
VERTEX
  8
0
 10
17.075
 20
60.9093
 30
0.0
 40
0
 41
0
  0
VERTEX
  8
0
 10
17.029
 20
60.8225
 30
0.0
 40
0
 41
0
  0
VERTEX
  8
0
 10
16.9814
 20
60.7369
 30
0.0
 40
0
 41
0
  0
VERTEX
  8
0
 10
16.9321
 20
60.6526
 30
0.0
 40
0
 41
0
  0
VERTEX
  8
0
 10
16.8811
 20
60.5697
 30
0.0
 40
0
 41
0
  0
VERTEX
  8
0
 10
16.8286
 20
60.4881
 30
0.0
 40
0
 41
0
  0
VERTEX
  8
0
 10
16.7744
 20
60.4078
 30
0.0
 40
0
 41
0
  0
VERTEX
  8
0
 10
16.7188
 20
60.3289
 30
0.0
 40
0
 41
0
  0
VERTEX
  8
0
 10
16.6615
 20
60.2514
 30
0.0
 40
0
 41
0
  0
VERTEX
  8
0
 10
16.6028
 20
60.1753
 30
0.0
 40
0
 41
0
  0
VERTEX
  8
0
 10
16.5426
 20
60.1008
 30
0.0
 40
0
 41
0
  0
VERTEX
  8
0
 10
16.4811
 20
60.0278
 30
0.0
 40
0
 41
0
  0
VERTEX
  8
0
 10
16.4182
 20
59.9563
 30
0.0
 40
0
 41
0
  0
VERTEX
  8
0
 10
16.354
 20
59.8863
 30
0.0
 40
0
 41
0
  0
VERTEX
  8
0
 10
16.2885
 20
59.8179
 30
0.0
 40
0
 41
0
  0
VERTEX
  8
0
 10
16.2217
 20
59.7512
 30
0.0
 40
0
 41
0
  0
VERTEX
  8
0
 10
16.1537
 20
59.6861
 30
0.0
 40
0
 41
0
  0
VERTEX
  8
0
 10
16.0846
 20
59.6226
 30
0.0
 40
0
 41
0
  0
VERTEX
  8
0
 10
16.0142
 20
59.5608
 30
0.0
 40
0
 41
0
  0
VERTEX
  8
0
 10
15.9428
 20
59.5007
 30
0.0
 40
0
 41
0
  0
VERTEX
  8
0
 10
15.8703
 20
59.4422
 30
0.0
 40
0
 41
0
  0
VERTEX
  8
0
 10
15.7968
 20
59.3856
 30
0.0
 40
0
 41
0
  0
VERTEX
  8
0
 10
15.7224
 20
59.3307
 30
0.0
 40
0
 41
0
  0
VERTEX
  8
0
 10
15.6469
 20
59.2775
 30
0.0
 40
0
 41
0
  0
VERTEX
  8
0
 10
15.5707
 20
59.2261
 30
0.0
 40
0
 41
0
  0
VERTEX
  8
0
 10
15.4935
 20
59.1765
 30
0.0
 40
0
 41
0
  0
VERTEX
  8
0
 10
15.4156
 20
59.1288
 30
0.0
 40
0
 41
0
  0
VERTEX
  8
0
 10
15.3368
 20
59.0828
 30
0.0
 40
0
 41
0
  0
VERTEX
  8
0
 10
15.2574
 20
59.0386
 30
0.0
 40
0
 41
0
  0
VERTEX
  8
0
 10
15.1771
 20
58.9963
 30
0.0
 40
0
 41
0
  0
VERTEX
  8
0
 10
15.0964
 20
58.9558
 30
0.0
 40
0
 41
0
  0
VERTEX
  8
0
 10
15.0149
 20
58.9172
 30
0.0
 40
0
 41
0
  0
VERTEX
  8
0
 10
14.9329
 20
58.8804
 30
0.0
 40
0
 41
0
  0
VERTEX
  8
0
 10
14.8504
 20
58.8456
 30
0.0
 40
0
 41
0
  0
VERTEX
  8
0
 10
14.7675
 20
58.8125
 30
0.0
 40
0
 41
0
  0
VERTEX
  8
0
 10
14.684
 20
58.7814
 30
0.0
 40
0
 41
0
  0
VERTEX
  8
0
 10
14.6003
 20
58.7521
 30
0.0
 40
0
 41
0
  0
VERTEX
  8
0
 10
14.5161
 20
58.7247
 30
0.0
 40
0
 41
0
  0
VERTEX
  8
0
 10
14.4317
 20
58.6993
 30
0.0
 40
0
 41
0
  0
VERTEX
  8
0
 10
14.3469
 20
58.6757
 30
0.0
 40
0
 41
0
  0
VERTEX
  8
0
 10
14.2619
 20
58.654
 30
0.0
 40
0
 41
0
  0
VERTEX
  8
0
 10
14.1768
 20
58.6342
 30
0.0
 40
0
 41
0
  0
VERTEX
  8
0
 10
14.0915
 20
58.6163
 30
0.0
 40
0
 41
0
  0
VERTEX
  8
0
 10
14.0061
 20
58.6003
 30
0.0
 40
0
 41
0
  0
VERTEX
  8
0
 10
13.9207
 20
58.5861
 30
0.0
 40
0
 41
0
  0
VERTEX
  8
0
 10
13.8351
 20
58.5738
 30
0.0
 40
0
 41
0
  0
VERTEX
  8
0
 10
13.7497
 20
58.5633
 30
0.0
 40
0
 41
0
  0
VERTEX
  8
0
 10
13.6644
 20
58.5549
 30
0.0
 40
0
 41
0
  0
VERTEX
  8
0
 10
13.5792
 20
58.5481
 30
0.0
 40
0
 41
0
  0
VERTEX
  8
0
 10
13.494
 20
58.5432
 30
0.0
 40
0
 41
0
  0
VERTEX
  8
0
 10
13.409
 20
58.5403
 30
0.0
 40
0
 41
0
  0
VERTEX
  8
0
 10
13.3243
 20
58.539
 30
0.0
 40
0
 41
0
  0
VERTEX
  8
0
 10
13.2399
 20
58.5397
 30
0.0
 40
0
 41
0
  0
VERTEX
  8
0
 10
13.1557
 20
58.5421
 30
0.0
 40
0
 41
0
  0
VERTEX
  8
0
 10
13.0719
 20
58.5464
 30
0.0
 40
0
 41
0
  0
VERTEX
  8
0
 10
12.9885
 20
58.5524
 30
0.0
 40
0
 41
0
  0
VERTEX
  8
0
 10
12.9054
 20
58.5601
 30
0.0
 40
0
 41
0
  0
VERTEX
  8
0
 10
12.8229
 20
58.5696
 30
0.0
 40
0
 41
0
  0
VERTEX
  8
0
 10
12.7408
 20
58.5808
 30
0.0
 40
0
 41
0
  0
VERTEX
  8
0
 10
12.6593
 20
58.5939
 30
0.0
 40
0
 41
0
  0
VERTEX
  8
0
 10
12.5783
 20
58.6086
 30
0.0
 40
0
 41
0
  0
VERTEX
  8
0
 10
12.4979
 20
58.6249
 30
0.0
 40
0
 41
0
  0
VERTEX
  8
0
 10
12.4182
 20
58.6429
 30
0.0
 40
0
 41
0
  0
VERTEX
  8
0
 10
12.339
 20
58.6626
 30
0.0
 40
0
 41
0
  0
VERTEX
  8
0
 10
12.2607
 20
58.6839
 30
0.0
 40
0
 41
0
  0
VERTEX
  8
0
 10
12.1831
 20
58.7068
 30
0.0
 40
0
 41
0
  0
VERTEX
  8
0
 10
12.1061
 20
58.7314
 30
0.0
 40
0
 41
0
  0
VERTEX
  8
0
 10
12.03
 20
58.7574
 30
0.0
 40
0
 41
0
  0
VERTEX
  8
0
 10
11.9549
 20
58.785
 30
0.0
 40
0
 41
0
  0
VERTEX
  8
0
 10
11.8804
 20
58.814
 30
0.0
 40
0
 41
0
  0
VERTEX
  8
0
 10
11.807
 20
58.8447
 30
0.0
 40
0
 41
0
  0
VERTEX
  8
0
 10
11.7343
 20
58.8768
 30
0.0
 40
0
 41
0
  0
VERTEX
  8
0
 10
11.6627
 20
58.9103
 30
0.0
 40
0
 41
0
  0
VERTEX
  8
0
 10
11.5921
 20
58.9451
 30
0.0
 40
0
 41
0
  0
VERTEX
  8
0
 10
11.5223
 20
58.9815
 30
0.0
 40
0
 41
0
  0
VERTEX
  8
0
 10
11.4538
 20
59.0192
 30
0.0
 40
0
 41
0
  0
VERTEX
  8
0
 10
11.3862
 20
59.0582
 30
0.0
 40
0
 41
0
  0
VERTEX
  8
0
 10
11.3199
 20
59.0985
 30
0.0
 40
0
 41
0
  0
VERTEX
  8
0
 10
11.2544
 20
59.1401
 30
0.0
 40
0
 41
0
  0
VERTEX
  8
0
 10
11.1903
 20
59.1831
 30
0.0
 40
0
 41
0
  0
VERTEX
  8
0
 10
11.1272
 20
59.2271
 30
0.0
 40
0
 41
0
  0
VERTEX
  8
0
 10
11.0653
 20
59.2724
 30
0.0
 40
0
 41
0
  0
VERTEX
  8
0
 10
11.0046
 20
59.3188
 30
0.0
 40
0
 41
0
  0
VERTEX
  8
0
 10
10.9452
 20
59.3664
 30
0.0
 40
0
 41
0
  0
VERTEX
  8
0
 10
10.8869
 20
59.415
 30
0.0
 40
0
 41
0
  0
VERTEX
  8
0
 10
10.8301
 20
59.4647
 30
0.0
 40
0
 41
0
  0
VERTEX
  8
0
 10
10.7745
 20
59.5154
 30
0.0
 40
0
 41
0
  0
VERTEX
  8
0
 10
10.7202
 20
59.5672
 30
0.0
 40
0
 41
0
  0
VERTEX
  8
0
 10
10.6671
 20
59.62
 30
0.0
 40
0
 41
0
  0
VERTEX
  8
0
 10
10.6154
 20
59.6736
 30
0.0
 40
0
 41
0
  0
VERTEX
  8
0
 10
10.565
 20
59.7283
 30
0.0
 40
0
 41
0
  0
VERTEX
  8
0
 10
10.5161
 20
59.7838
 30
0.0
 40
0
 41
0
  0
VERTEX
  8
0
 10
10.4685
 20
59.84
 30
0.0
 40
0
 41
0
  0
VERTEX
  8
0
 10
10.4224
 20
59.8972
 30
0.0
 40
0
 41
0
  0
VERTEX
  8
0
 10
10.3777
 20
59.955
 30
0.0
 40
0
 41
0
  0
VERTEX
  8
0
 10
10.3343
 20
60.0136
 30
0.0
 40
0
 41
0
  0
VERTEX
  8
0
 10
10.2924
 20
60.0731
 30
0.0
 40
0
 41
0
  0
VERTEX
  8
0
 10
10.252
 20
60.1331
 30
0.0
 40
0
 41
0
  0
VERTEX
  8
0
 10
10.2129
 20
60.1936
 30
0.0
 40
0
 41
0
  0
VERTEX
  8
0
 10
10.1753
 20
60.2549
 30
0.0
 40
0
 41
0
  0
VERTEX
  8
0
 10
10.1393
 20
60.3167
 30
0.0
 40
0
 41
0
  0
VERTEX
  8
0
 10
10.1046
 20
60.379
 30
0.0
 40
0
 41
0
  0
VERTEX
  8
0
 10
10.0715
 20
60.4419
 30
0.0
 40
0
 41
0
  0
VERTEX
  8
0
 10
10.0399
 20
60.5053
 30
0.0
 40
0
 41
0
  0
VERTEX
  8
0
 10
10.0097
 20
60.5689
 30
0.0
 40
0
 41
0
  0
VERTEX
  8
0
 10
9.98112
 20
60.6331
 30
0.0
 40
0
 41
0
  0
VERTEX
  8
0
 10
9.95404
 20
60.6976
 30
0.0
 40
0
 41
0
  0
VERTEX
  8
0
 10
9.92833
 20
60.7624
 30
0.0
 40
0
 41
0
  0
VERTEX
  8
0
 10
9.90429
 20
60.8275
 30
0.0
 40
0
 41
0
  0
VERTEX
  8
0
 10
9.88167
 20
60.8929
 30
0.0
 40
0
 41
0
  0
VERTEX
  8
0
 10
9.86057
 20
60.9585
 30
0.0
 40
0
 41
0
  0
VERTEX
  8
0
 10
9.84099
 20
61.0242
 30
0.0
 40
0
 41
0
  0
VERTEX
  8
0
 10
9.82292
 20
61.0901
 30
0.0
 40
0
 41
0
  0
VERTEX
  8
0
 10
9.80626
 20
61.1561
 30
0.0
 40
0
 41
0
  0
VERTEX
  8
0
 10
9.79113
 20
61.2222
 30
0.0
 40
0
 41
0
  0
VERTEX
  8
0
 10
9.7775
 20
61.2885
 30
0.0
 40
0
 41
0
  0
VERTEX
  8
0
 10
9.7654
 20
61.3547
 30
0.0
 40
0
 41
0
  0
VERTEX
  8
0
 10
9.75489
 20
61.4208
 30
0.0
 40
0
 41
0
  0
VERTEX
  8
0
 10
9.74571
 20
61.4869
 30
0.0
 40
0
 41
0
  0
VERTEX
  8
0
 10
9.73807
 20
61.5531
 30
0.0
 40
0
 41
0
  0
VERTEX
  8
0
 10
9.73182
 20
61.6189
 30
0.0
 40
0
 41
0
  0
VERTEX
  8
0
 10
9.72711
 20
61.6847
 30
0.0
 40
0
 41
0
  0
VERTEX
  8
0
 10
9.72374
 20
61.7503
 30
0.0
 40
0
 41
0
  0
VERTEX
  8
0
 10
9.72194
 20
61.8157
 30
0.0
 40
0
 41
0
  0
VERTEX
  8
0
 10
9.72151
 20
61.8808
 30
0.0
 40
0
 41
0
  0
VERTEX
  8
0
 10
9.7225
 20
61.9457
 30
0.0
 40
0
 41
0
  0
VERTEX
  8
0
 10
9.72487
 20
62.0103
 30
0.0
 40
0
 41
0
  0
VERTEX
  8
0
 10
9.72863
 20
62.0746
 30
0.0
 40
0
 41
0
  0
VERTEX
  8
0
 10
9.73372
 20
62.1385
 30
0.0
 40
0
 41
0
  0
VERTEX
  8
0
 10
9.74029
 20
62.2019
 30
0.0
 40
0
 41
0
  0
VERTEX
  8
0
 10
9.74821
 20
62.265
 30
0.0
 40
0
 41
0
  0
VERTEX
  8
0
 10
9.75749
 20
62.3276
 30
0.0
 40
0
 41
0
  0
VERTEX
  8
0
 10
9.7679
 20
62.3897
 30
0.0
 40
0
 41
0
  0
VERTEX
  8
0
 10
9.77983
 20
62.4514
 30
0.0
 40
0
 41
0
  0
VERTEX
  8
0
 10
9.79292
 20
62.5125
 30
0.0
 40
0
 41
0
  0
VERTEX
  8
0
 10
9.80735
 20
62.5731
 30
0.0
 40
0
 41
0
  0
VERTEX
  8
0
 10
9.82308
 20
62.6329
 30
0.0
 40
0
 41
0
  0
VERTEX
  8
0
 10
9.84
 20
62.6922
 30
0.0
 40
0
 41
0
  0
VERTEX
  8
0
 10
9.85807
 20
62.751
 30
0.0
 40
0
 41
0
  0
VERTEX
  8
0
 10
9.87739
 20
62.809
 30
0.0
 40
0
 41
0
  0
VERTEX
  8
0
 10
9.89789
 20
62.8664
 30
0.0
 40
0
 41
0
  0
VERTEX
  8
0
 10
9.9196
 20
62.9229
 30
0.0
 40
0
 41
0
  0
VERTEX
  8
0
 10
9.94239
 20
62.9789
 30
0.0
 40
0
 41
0
  0
VERTEX
  8
0
 10
9.96625
 20
63.034
 30
0.0
 40
0
 41
0
  0
VERTEX
  8
0
 10
9.99126
 20
63.0883
 30
0.0
 40
0
 41
0
  0
VERTEX
  8
0
 10
10.0174
 20
63.1419
 30
0.0
 40
0
 41
0
  0
VERTEX
  8
0
 10
10.0444
 20
63.1946
 30
0.0
 40
0
 41
0
  0
VERTEX
  8
0
 10
10.0725
 20
63.2465
 30
0.0
 40
0
 41
0
  0
VERTEX
  8
0
 10
10.1017
 20
63.2975
 30
0.0
 40
0
 41
0
  0
VERTEX
  8
0
 10
10.1318
 20
63.3476
 30
0.0
 40
0
 41
0
  0
VERTEX
  8
0
 10
10.1629
 20
63.3969
 30
0.0
 40
0
 41
0
  0
VERTEX
  8
0
 10
10.195
 20
63.4453
 30
0.0
 40
0
 41
0
  0
VERTEX
  8
0
 10
10.2279
 20
63.4926
 30
0.0
 40
0
 41
0
  0
VERTEX
  8
0
 10
10.2617
 20
63.5392
 30
0.0
 40
0
 41
0
  0
VERTEX
  8
0
 10
10.2962
 20
63.5846
 30
0.0
 40
0
 41
0
  0
VERTEX
  8
0
 10
10.3318
 20
63.629
 30
0.0
 40
0
 41
0
  0
VERTEX
  8
0
 10
10.3681
 20
63.6725
 30
0.0
 40
0
 41
0
  0
VERTEX
  8
0
 10
10.4052
 20
63.715
 30
0.0
 40
0
 41
0
  0
VERTEX
  8
0
 10
10.4429
 20
63.7565
 30
0.0
 40
0
 41
0
  0
VERTEX
  8
0
 10
10.4816
 20
63.7969
 30
0.0
 40
0
 41
0
  0
VERTEX
  8
0
 10
10.5207
 20
63.8362
 30
0.0
 40
0
 41
0
  0
VERTEX
  8
0
 10
10.5607
 20
63.8746
 30
0.0
 40
0
 41
0
  0
VERTEX
  8
0
 10
10.6012
 20
63.9118
 30
0.0
 40
0
 41
0
  0
VERTEX
  8
0
 10
10.6424
 20
63.9479
 30
0.0
 40
0
 41
0
  0
VERTEX
  8
0
 10
10.6842
 20
63.9831
 30
0.0
 40
0
 41
0
  0
VERTEX
  8
0
 10
10.7264
 20
64.0169
 30
0.0
 40
0
 41
0
  0
VERTEX
  8
0
 10
10.7693
 20
64.0499
 30
0.0
 40
0
 41
0
  0
VERTEX
  8
0
 10
10.8127
 20
64.0815
 30
0.0
 40
0
 41
0
  0
VERTEX
  8
0
 10
10.8566
 20
64.1122
 30
0.0
 40
0
 41
0
  0
VERTEX
  8
0
 10
10.9008
 20
64.1417
 30
0.0
 40
0
 41
0
  0
VERTEX
  8
0
 10
10.9454
 20
64.17
 30
0.0
 40
0
 41
0
  0
VERTEX
  8
0
 10
10.9906
 20
64.1972
 30
0.0
 40
0
 41
0
  0
VERTEX
  8
0
 10
11.036
 20
64.2233
 30
0.0
 40
0
 41
0
  0
VERTEX
  8
0
 10
11.0818
 20
64.2483
 30
0.0
 40
0
 41
0
  0
VERTEX
  8
0
 10
11.1279
 20
64.2721
 30
0.0
 40
0
 41
0
  0
VERTEX
  8
0
 10
11.1743
 20
64.2947
 30
0.0
 40
0
 41
0
  0
VERTEX
  8
0
 10
11.221
 20
64.3163
 30
0.0
 40
0
 41
0
  0
VERTEX
  8
0
 10
11.2679
 20
64.3365
 30
0.0
 40
0
 41
0
  0
VERTEX
  8
0
 10
11.315
 20
64.3557
 30
0.0
 40
0
 41
0
  0
VERTEX
  8
0
 10
11.3622
 20
64.3738
 30
0.0
 40
0
 41
0
  0
VERTEX
  8
0
 10
11.4096
 20
64.3906
 30
0.0
 40
0
 41
0
  0
VERTEX
  8
0
 10
11.4571
 20
64.4064
 30
0.0
 40
0
 41
0
  0
VERTEX
  8
0
 10
11.5047
 20
64.421
 30
0.0
 40
0
 41
0
  0
VERTEX
  8
0
 10
11.5524
 20
64.4344
 30
0.0
 40
0
 41
0
  0
VERTEX
  8
0
 10
11.6
 20
64.4467
 30
0.0
 40
0
 41
0
  0
VERTEX
  8
0
 10
11.6478
 20
64.4579
 30
0.0
 40
0
 41
0
  0
VERTEX
  8
0
 10
11.6954
 20
64.4679
 30
0.0
 40
0
 41
0
  0
VERTEX
  8
0
 10
11.7431
 20
64.4768
 30
0.0
 40
0
 41
0
  0
VERTEX
  8
0
 10
11.7906
 20
64.4846
 30
0.0
 40
0
 41
0
  0
VERTEX
  8
0
 10
11.8381
 20
64.4914
 30
0.0
 40
0
 41
0
  0
VERTEX
  8
0
 10
11.8854
 20
64.4969
 30
0.0
 40
0
 41
0
  0
VERTEX
  8
0
 10
11.9326
 20
64.5014
 30
0.0
 40
0
 41
0
  0
VERTEX
  8
0
 10
11.9797
 20
64.5049
 30
0.0
 40
0
 41
0
  0
VERTEX
  8
0
 10
12.0265
 20
64.5072
 30
0.0
 40
0
 41
0
  0
VERTEX
  8
0
 10
12.0731
 20
64.5085
 30
0.0
 40
0
 41
0
  0
VERTEX
  8
0
 10
12.1195
 20
64.5087
 30
0.0
 40
0
 41
0
  0
VERTEX
  8
0
 10
12.1656
 20
64.5079
 30
0.0
 40
0
 41
0
  0
VERTEX
  8
0
 10
12.2114
 20
64.506
 30
0.0
 40
0
 41
0
  0
VERTEX
  8
0
 10
12.2569
 20
64.5032
 30
0.0
 40
0
 41
0
  0
VERTEX
  8
0
 10
12.3021
 20
64.4993
 30
0.0
 40
0
 41
0
  0
VERTEX
  8
0
 10
12.3468
 20
64.4944
 30
0.0
 40
0
 41
0
  0
VERTEX
  8
0
 10
12.3913
 20
64.4885
 30
0.0
 40
0
 41
0
  0
VERTEX
  8
0
 10
12.4353
 20
64.4817
 30
0.0
 40
0
 41
0
  0
VERTEX
  8
0
 10
12.4789
 20
64.4739
 30
0.0
 40
0
 41
0
  0
VERTEX
  8
0
 10
12.5221
 20
64.4651
 30
0.0
 40
0
 41
0
  0
VERTEX
  8
0
 10
12.5647
 20
64.4556
 30
0.0
 40
0
 41
0
  0
VERTEX
  8
0
 10
12.6069
 20
64.445
 30
0.0
 40
0
 41
0
  0
VERTEX
  8
0
 10
12.6486
 20
64.4335
 30
0.0
 40
0
 41
0
  0
VERTEX
  8
0
 10
12.6897
 20
64.4211
 30
0.0
 40
0
 41
0
  0
VERTEX
  8
0
 10
12.7304
 20
64.4079
 30
0.0
 40
0
 41
0
  0
VERTEX
  8
0
 10
12.7706
 20
64.3939
 30
0.0
 40
0
 41
0
  0
VERTEX
  8
0
 10
12.81
 20
64.379
 30
0.0
 40
0
 41
0
  0
VERTEX
  8
0
 10
12.8489
 20
64.3635
 30
0.0
 40
0
 41
0
  0
VERTEX
  8
0
 10
12.8872
 20
64.3469
 30
0.0
 40
0
 41
0
  0
VERTEX
  8
0
 10
12.9249
 20
64.3297
 30
0.0
 40
0
 41
0
  0
VERTEX
  8
0
 10
12.962
 20
64.3118
 30
0.0
 40
0
 41
0
  0
VERTEX
  8
0
 10
12.9983
 20
64.2931
 30
0.0
 40
0
 41
0
  0
VERTEX
  8
0
 10
13.034
 20
64.2736
 30
0.0
 40
0
 41
0
  0
VERTEX
  8
0
 10
13.069
 20
64.2535
 30
0.0
 40
0
 41
0
  0
VERTEX
  8
0
 10
13.1035
 20
64.2328
 30
0.0
 40
0
 41
0
  0
VERTEX
  8
0
 10
13.1371
 20
64.2112
 30
0.0
 40
0
 41
0
  0
VERTEX
  8
0
 10
13.17
 20
64.1892
 30
0.0
 40
0
 41
0
  0
VERTEX
  8
0
 10
13.2021
 20
64.1665
 30
0.0
 40
0
 41
0
  0
VERTEX
  8
0
 10
13.2336
 20
64.1433
 30
0.0
 40
0
 41
0
  0
VERTEX
  8
0
 10
13.2643
 20
64.1194
 30
0.0
 40
0
 41
0
  0
VERTEX
  8
0
 10
13.2942
 20
64.095
 30
0.0
 40
0
 41
0
  0
VERTEX
  8
0
 10
13.3233
 20
64.0701
 30
0.0
 40
0
 41
0
  0
VERTEX
  8
0
 10
13.3517
 20
64.0447
 30
0.0
 40
0
 41
0
  0
VERTEX
  8
0
 10
13.3793
 20
64.0189
 30
0.0
 40
0
 41
0
  0
VERTEX
  8
0
 10
13.406
 20
63.9925
 30
0.0
 40
0
 41
0
  0
VERTEX
  8
0
 10
13.432
 20
63.9657
 30
0.0
 40
0
 41
0
  0
VERTEX
  8
0
 10
13.4573
 20
63.9385
 30
0.0
 40
0
 41
0
  0
VERTEX
  8
0
 10
13.4816
 20
63.9108
 30
0.0
 40
0
 41
0
  0
VERTEX
  8
0
 10
13.505
 20
63.8829
 30
0.0
 40
0
 41
0
  0
VERTEX
  8
0
 10
13.5278
 20
63.8546
 30
0.0
 40
0
 41
0
  0
VERTEX
  8
0
 10
13.5496
 20
63.826
 30
0.0
 40
0
 41
0
  0
VERTEX
  8
0
 10
13.5705
 20
63.7969
 30
0.0
 40
0
 41
0
  0
VERTEX
  8
0
 10
13.5908
 20
63.7676
 30
0.0
 40
0
 41
0
  0
VERTEX
  8
0
 10
13.6101
 20
63.7382
 30
0.0
 40
0
 41
0
  0
VERTEX
  8
0
 10
13.6286
 20
63.7085
 30
0.0
 40
0
 41
0
  0
VERTEX
  8
0
 10
13.6464
 20
63.6785
 30
0.0
 40
0
 41
0
  0
VERTEX
  8
0
 10
13.6632
 20
63.6483
 30
0.0
 40
0
 41
0
  0
VERTEX
  8
0
 10
13.6791
 20
63.6181
 30
0.0
 40
0
 41
0
  0
VERTEX
  8
0
 10
13.6943
 20
63.5875
 30
0.0
 40
0
 41
0
  0
VERTEX
  8
0
 10
13.7085
 20
63.5569
 30
0.0
 40
0
 41
0
  0
VERTEX
  8
0
 10
13.7219
 20
63.5263
 30
0.0
 40
0
 41
0
  0
VERTEX
  8
0
 10
13.7346
 20
63.4954
 30
0.0
 40
0
 41
0
  0
VERTEX
  8
0
 10
13.7464
 20
63.4646
 30
0.0
 40
0
 41
0
  0
VERTEX
  8
0
 10
13.7572
 20
63.4338
 30
0.0
 40
0
 41
0
  0
VERTEX
  8
0
 10
13.7674
 20
63.4028
 30
0.0
 40
0
 41
0
  0
VERTEX
  8
0
 10
13.7767
 20
63.3719
 30
0.0
 40
0
 41
0
  0
VERTEX
  8
0
 10
13.7852
 20
63.341
 30
0.0
 40
0
 41
0
  0
VERTEX
  8
0
 10
13.7928
 20
63.3101
 30
0.0
 40
0
 41
0
  0
VERTEX
  8
0
 10
13.7996
 20
63.2794
 30
0.0
 40
0
 41
0
  0
VERTEX
  8
0
 10
13.8056
 20
63.2488
 30
0.0
 40
0
 41
0
  0
VERTEX
  8
0
 10
13.8108
 20
63.2182
 30
0.0
 40
0
 41
0
  0
VERTEX
  8
0
 10
13.8153
 20
63.1876
 30
0.0
 40
0
 41
0
  0
VERTEX
  8
0
 10
13.8189
 20
63.1574
 30
0.0
 40
0
 41
0
  0
VERTEX
  8
0
 10
13.8217
 20
63.1272
 30
0.0
 40
0
 41
0
  0
VERTEX
  8
0
 10
13.8239
 20
63.0972
 30
0.0
 40
0
 41
0
  0
VERTEX
  8
0
 10
13.8251
 20
63.0675
 30
0.0
 40
0
 41
0
  0
VERTEX
  8
0
 10
13.8257
 20
63.0379
 30
0.0
 40
0
 41
0
  0
VERTEX
  8
0
 10
13.8256
 20
63.0086
 30
0.0
 40
0
 41
0
  0
VERTEX
  8
0
 10
13.8247
 20
62.9796
 30
0.0
 40
0
 41
0
  0
VERTEX
  8
0
 10
13.8231
 20
62.9508
 30
0.0
 40
0
 41
0
  0
VERTEX
  8
0
 10
13.8209
 20
62.9224
 30
0.0
 40
0
 41
0
  0
VERTEX
  8
0
 10
13.8178
 20
62.8942
 30
0.0
 40
0
 41
0
  0
VERTEX
  8
0
 10
13.8142
 20
62.8663
 30
0.0
 40
0
 41
0
  0
VERTEX
  8
0
 10
13.8097
 20
62.8388
 30
0.0
 40
0
 41
0
  0
VERTEX
  8
0
 10
13.8047
 20
62.8117
 30
0.0
 40
0
 41
0
  0
VERTEX
  8
0
 10
13.7992
 20
62.7849
 30
0.0
 40
0
 41
0
  0
VERTEX
  8
0
 10
13.7928
 20
62.7585
 30
0.0
 40
0
 41
0
  0
VERTEX
  8
0
 10
13.786
 20
62.7325
 30
0.0
 40
0
 41
0
  0
VERTEX
  8
0
 10
13.7785
 20
62.7069
 30
0.0
 40
0
 41
0
  0
VERTEX
  8
0
 10
13.7703
 20
62.6818
 30
0.0
 40
0
 41
0
  0
VERTEX
  8
0
 10
13.7617
 20
62.6571
 30
0.0
 40
0
 41
0
  0
VERTEX
  8
0
 10
13.7524
 20
62.6328
 30
0.0
 40
0
 41
0
  0
VERTEX
  8
0
 10
13.7426
 20
62.609
 30
0.0
 40
0
 41
0
  0
VERTEX
  8
0
 10
13.7324
 20
62.5858
 30
0.0
 40
0
 41
0
  0
VERTEX
  8
0
 10
13.7215
 20
62.5629
 30
0.0
 40
0
 41
0
  0
VERTEX
  8
0
 10
13.7101
 20
62.5407
 30
0.0
 40
0
 41
0
  0
VERTEX
  8
0
 10
13.6983
 20
62.5189
 30
0.0
 40
0
 41
0
  0
VERTEX
  8
0
 10
13.6861
 20
62.4976
 30
0.0
 40
0
 41
0
  0
VERTEX
  8
0
 10
13.6734
 20
62.4769
 30
0.0
 40
0
 41
0
  0
VERTEX
  8
0
 10
13.6603
 20
62.4567
 30
0.0
 40
0
 41
0
  0
VERTEX
  8
0
 10
13.6467
 20
62.4371
 30
0.0
 40
0
 41
0
  0
VERTEX
  8
0
 10
13.6328
 20
62.4181
 30
0.0
 40
0
 41
0
  0
VERTEX
  8
0
 10
13.6185
 20
62.3996
 30
0.0
 40
0
 41
0
  0
VERTEX
  8
0
 10
13.6037
 20
62.3817
 30
0.0
 40
0
 41
0
  0
VERTEX
  8
0
 10
13.5888
 20
62.3643
 30
0.0
 40
0
 41
0
  0
VERTEX
  8
0
 10
13.5733
 20
62.3475
 30
0.0
 40
0
 41
0
  0
VERTEX
  8
0
 10
13.5578
 20
62.3314
 30
0.0
 40
0
 41
0
  0
VERTEX
  8
0
 10
13.5418
 20
62.3158
 30
0.0
 40
0
 41
0
  0
VERTEX
  8
0
 10
13.5256
 20
62.3008
 30
0.0
 40
0
 41
0
  0
VERTEX
  8
0
 10
13.5092
 20
62.2865
 30
0.0
 40
0
 41
0
  0
VERTEX
  8
0
 10
13.4923
 20
62.2728
 30
0.0
 40
0
 41
0
  0
VERTEX
  8
0
 10
13.4755
 20
62.2596
 30
0.0
 40
0
 41
0
  0
VERTEX
  8
0
 10
13.4583
 20
62.2471
 30
0.0
 40
0
 41
0
  0
VERTEX
  8
0
 10
13.4411
 20
62.2353
 30
0.0
 40
0
 41
0
  0
VERTEX
  8
0
 10
13.4236
 20
62.224
 30
0.0
 40
0
 41
0
  0
VERTEX
  8
0
 10
13.4061
 20
62.2133
 30
0.0
 40
0
 41
0
  0
VERTEX
  8
0
 10
13.3883
 20
62.2033
 30
0.0
 40
0
 41
0
  0
VERTEX
  8
0
 10
13.3706
 20
62.194
 30
0.0
 40
0
 41
0
  0
VERTEX
  8
0
 10
13.3527
 20
62.1853
 30
0.0
 40
0
 41
0
  0
VERTEX
  8
0
 10
13.3347
 20
62.1771
 30
0.0
 40
0
 41
0
  0
VERTEX
  8
0
 10
13.3167
 20
62.1696
 30
0.0
 40
0
 41
0
  0
VERTEX
  8
0
 10
13.2986
 20
62.1628
 30
0.0
 40
0
 41
0
  0
VERTEX
  8
0
 10
13.2805
 20
62.1565
 30
0.0
 40
0
 41
0
  0
VERTEX
  8
0
 10
13.2625
 20
62.1508
 30
0.0
 40
0
 41
0
  0
VERTEX
  8
0
 10
13.2446
 20
62.1458
 30
0.0
 40
0
 41
0
  0
VERTEX
  8
0
 10
13.2265
 20
62.1414
 30
0.0
 40
0
 41
0
  0
VERTEX
  8
0
 10
13.2086
 20
62.1376
 30
0.0
 40
0
 41
0
  0
VERTEX
  8
0
 10
13.1908
 20
62.1344
 30
0.0
 40
0
 41
0
  0
VERTEX
  8
0
 10
13.1731
 20
62.1318
 30
0.0
 40
0
 41
0
  0
VERTEX
  8
0
 10
13.1554
 20
62.1297
 30
0.0
 40
0
 41
0
  0
VERTEX
  8
0
 10
13.1379
 20
62.1283
 30
0.0
 40
0
 41
0
  0
VERTEX
  8
0
 10
13.1206
 20
62.1275
 30
0.0
 40
0
 41
0
  0
VERTEX
  8
0
 10
13.1033
 20
62.1272
 30
0.0
 40
0
 41
0
  0
VERTEX
  8
0
 10
13.0863
 20
62.1275
 30
0.0
 40
0
 41
0
  0
VERTEX
  8
0
 10
13.0694
 20
62.1283
 30
0.0
 40
0
 41
0
  0
VERTEX
  8
0
 10
13.0528
 20
62.1297
 30
0.0
 40
0
 41
0
  0
VERTEX
  8
0
 10
13.0364
 20
62.1317
 30
0.0
 40
0
 41
0
  0
VERTEX
  8
0
 10
13.0203
 20
62.1342
 30
0.0
 40
0
 41
0
  0
VERTEX
  8
0
 10
13.0043
 20
62.1371
 30
0.0
 40
0
 41
0
  0
VERTEX
  8
0
 10
12.9888
 20
62.1407
 30
0.0
 40
0
 41
0
  0
VERTEX
  8
0
 10
12.9733
 20
62.1447
 30
0.0
 40
0
 41
0
  0
VERTEX
  8
0
 10
12.9583
 20
62.1492
 30
0.0
 40
0
 41
0
  0
VERTEX
  8
0
 10
12.9436
 20
62.1542
 30
0.0
 40
0
 41
0
  0
VERTEX
  8
0
 10
12.9291
 20
62.1596
 30
0.0
 40
0
 41
0
  0
VERTEX
  8
0
 10
12.9152
 20
62.1656
 30
0.0
 40
0
 41
0
  0
VERTEX
  8
0
 10
12.9014
 20
62.1718
 30
0.0
 40
0
 41
0
  0
VERTEX
  8
0
 10
12.8881
 20
62.1786
 30
0.0
 40
0
 41
0
  0
VERTEX
  8
0
 10
12.875
 20
62.1858
 30
0.0
 40
0
 41
0
  0
VERTEX
  8
0
 10
12.8625
 20
62.1935
 30
0.0
 40
0
 41
0
  0
VERTEX
  8
0
 10
12.8503
 20
62.2015
 30
0.0
 40
0
 41
0
  0
VERTEX
  8
0
 10
12.8385
 20
62.2099
 30
0.0
 40
0
 41
0
  0
VERTEX
  8
0
 10
12.8271
 20
62.2188
 30
0.0
 40
0
 41
0
  0
VERTEX
  8
0
 10
12.8163
 20
62.2278
 30
0.0
 40
0
 41
0
  0
VERTEX
  8
0
 10
12.8057
 20
62.2372
 30
0.0
 40
0
 41
0
  0
VERTEX
  8
0
 10
12.7957
 20
62.2471
 30
0.0
 40
0
 41
0
  0
VERTEX
  8
0
 10
12.7861
 20
62.2572
 30
0.0
 40
0
 41
0
  0
VERTEX
  8
0
 10
12.7771
 20
62.2676
 30
0.0
 40
0
 41
0
  0
VERTEX
  8
0
 10
12.7683
 20
62.2783
 30
0.0
 40
0
 41
0
  0
VERTEX
  8
0
 10
12.7602
 20
62.2892
 30
0.0
 40
0
 41
0
  0
VERTEX
  8
0
 10
12.7527
 20
62.3004
 30
0.0
 40
0
 41
0
  0
VERTEX
  8
0
 10
12.7454
 20
62.3118
 30
0.0
 40
0
 41
0
  0
VERTEX
  8
0
 10
12.7388
 20
62.3235
 30
0.0
 40
0
 41
0
  0
VERTEX
  8
0
 10
12.7326
 20
62.3354
 30
0.0
 40
0
 41
0
  0
VERTEX
  8
0
 10
12.7271
 20
62.3474
 30
0.0
 40
0
 41
0
  0
VERTEX
  8
0
 10
12.7219
 20
62.3596
 30
0.0
 40
0
 41
0
  0
VERTEX
  8
0
 10
12.7173
 20
62.3719
 30
0.0
 40
0
 41
0
  0
VERTEX
  8
0
 10
12.7133
 20
62.3844
 30
0.0
 40
0
 41
0
  0
VERTEX
  8
0
 10
12.7097
 20
62.3971
 30
0.0
 40
0
 41
0
  0
VERTEX
  8
0
 10
12.7068
 20
62.4099
 30
0.0
 40
0
 41
0
  0
VERTEX
  8
0
 10
12.7043
 20
62.4226
 30
0.0
 40
0
 41
0
  0
VERTEX
  8
0
 10
12.7025
 20
62.4356
 30
0.0
 40
0
 41
0
  0
VERTEX
  8
0
 10
12.7011
 20
62.4485
 30
0.0
 40
0
 41
0
  0
VERTEX
  8
0
 10
12.7003
 20
62.4614
 30
0.0
 40
0
 41
0
  0
VERTEX
  8
0
 10
12.7
 20
62.4743
 30
0.0
 40
0
 41
0
  0
VERTEX
  8
0
 10
12.6997
 20
62.4874
 30
0.0
 40
0
 41
0
  0
VERTEX
  8
0
 10
12.6989
 20
62.5003
 30
0.0
 40
0
 41
0
  0
VERTEX
  8
0
 10
12.6975
 20
62.5132
 30
0.0
 40
0
 41
0
  0
VERTEX
  8
0
 10
12.6957
 20
62.5261
 30
0.0
 40
0
 41
0
  0
VERTEX
  8
0
 10
12.6932
 20
62.5389
 30
0.0
 40
0
 41
0
  0
VERTEX
  8
0
 10
12.6903
 20
62.5517
 30
0.0
 40
0
 41
0
  0
VERTEX
  8
0
 10
12.6867
 20
62.5642
 30
0.0
 40
0
 41
0
  0
VERTEX
  8
0
 10
12.6826
 20
62.5767
 30
0.0
 40
0
 41
0
  0
VERTEX
  8
0
 10
12.6781
 20
62.589
 30
0.0
 40
0
 41
0
  0
VERTEX
  8
0
 10
12.6729
 20
62.6013
 30
0.0
 40
0
 41
0
  0
VERTEX
  8
0
 10
12.6674
 20
62.6133
 30
0.0
 40
0
 41
0
  0
VERTEX
  8
0
 10
12.6612
 20
62.6251
 30
0.0
 40
0
 41
0
  0
VERTEX
  8
0
 10
12.6546
 20
62.6368
 30
0.0
 40
0
 41
0
  0
VERTEX
  8
0
 10
12.6473
 20
62.6483
 30
0.0
 40
0
 41
0
  0
VERTEX
  8
0
 10
12.6397
 20
62.6594
 30
0.0
 40
0
 41
0
  0
VERTEX
  8
0
 10
12.6315
 20
62.6704
 30
0.0
 40
0
 41
0
  0
VERTEX
  8
0
 10
12.6229
 20
62.6811
 30
0.0
 40
0
 41
0
  0
VERTEX
  8
0
 10
12.6139
 20
62.6915
 30
0.0
 40
0
 41
0
  0
VERTEX
  8
0
 10
12.6043
 20
62.7017
 30
0.0
 40
0
 41
0
  0
VERTEX
  8
0
 10
12.5943
 20
62.7114
 30
0.0
 40
0
 41
0
  0
VERTEX
  8
0
 10
12.5838
 20
62.7208
 30
0.0
 40
0
 41
0
  0
VERTEX
  8
0
 10
12.5727
 20
62.73
 30
0.0
 40
0
 41
0
  0
VERTEX
  8
0
 10
12.5615
 20
62.7387
 30
0.0
 40
0
 41
0
  0
VERTEX
  8
0
 10
12.5497
 20
62.7472
 30
0.0
 40
0
 41
0
  0
VERTEX
  8
0
 10
12.5375
 20
62.7553
 30
0.0
 40
0
 41
0
  0
VERTEX
  8
0
 10
12.5248
 20
62.7628
 30
0.0
 40
0
 41
0
  0
VERTEX
  8
0
 10
12.5119
 20
62.77
 30
0.0
 40
0
 41
0
  0
VERTEX
  8
0
 10
12.4986
 20
62.7768
 30
0.0
 40
0
 41
0
  0
VERTEX
  8
0
 10
12.4849
 20
62.7832
 30
0.0
 40
0
 41
0
  0
VERTEX
  8
0
 10
12.4708
 20
62.7892
 30
0.0
 40
0
 41
0
  0
VERTEX
  8
0
 10
12.4564
 20
62.7946
 30
0.0
 40
0
 41
0
  0
VERTEX
  8
0
 10
12.4417
 20
62.7996
 30
0.0
 40
0
 41
0
  0
VERTEX
  8
0
 10
12.4267
 20
62.804
 30
0.0
 40
0
 41
0
  0
VERTEX
  8
0
 10
12.4112
 20
62.8081
 30
0.0
 40
0
 41
0
  0
VERTEX
  8
0
 10
12.3956
 20
62.8115
 30
0.0
 40
0
 41
0
  0
VERTEX
  8
0
 10
12.3797
 20
62.8146
 30
0.0
 40
0
 41
0
  0
VERTEX
  8
0
 10
12.3636
 20
62.8171
 30
0.0
 40
0
 41
0
  0
VERTEX
  8
0
 10
12.3472
 20
62.8189
 30
0.0
 40
0
 41
0
  0
VERTEX
  8
0
 10
12.3306
 20
62.8204
 30
0.0
 40
0
 41
0
  0
VERTEX
  8
0
 10
12.3138
 20
62.8212
 30
0.0
 40
0
 41
0
  0
VERTEX
  8
0
 10
12.2967
 20
62.8215
 30
0.0
 40
0
 41
0
  0
VERTEX
  8
0
 10
12.2795
 20
62.8212
 30
0.0
 40
0
 41
0
  0
VERTEX
  8
0
 10
12.2621
 20
62.8204
 30
0.0
 40
0
 41
0
  0
VERTEX
  8
0
 10
12.2446
 20
62.8189
 30
0.0
 40
0
 41
0
  0
VERTEX
  8
0
 10
12.2269
 20
62.8169
 30
0.0
 40
0
 41
0
  0
VERTEX
  8
0
 10
12.2092
 20
62.8143
 30
0.0
 40
0
 41
0
  0
VERTEX
  8
0
 10
12.1914
 20
62.8111
 30
0.0
 40
0
 41
0
  0
VERTEX
  8
0
 10
12.1734
 20
62.8072
 30
0.0
 40
0
 41
0
  0
VERTEX
  8
0
 10
12.1554
 20
62.8029
 30
0.0
 40
0
 41
0
  0
VERTEX
  8
0
 10
12.1374
 20
62.7978
 30
0.0
 40
0
 41
0
  0
VERTEX
  8
0
 10
12.1195
 20
62.7922
 30
0.0
 40
0
 41
0
  0
VERTEX
  8
0
 10
12.1014
 20
62.786
 30
0.0
 40
0
 41
0
  0
VERTEX
  8
0
 10
12.0833
 20
62.779
 30
0.0
 40
0
 41
0
  0
VERTEX
  8
0
 10
12.0653
 20
62.7715
 30
0.0
 40
0
 41
0
  0
VERTEX
  8
0
 10
12.0474
 20
62.7635
 30
0.0
 40
0
 41
0
  0
VERTEX
  8
0
 10
12.0295
 20
62.7547
 30
0.0
 40
0
 41
0
  0
VERTEX
  8
0
 10
12.0117
 20
62.7453
 30
0.0
 40
0
 41
0
  0
VERTEX
  8
0
 10
11.9939
 20
62.7353
 30
0.0
 40
0
 41
0
  0
VERTEX
  8
0
 10
11.9762
 20
62.7247
 30
0.0
 40
0
 41
0
  0
VERTEX
  8
0
 10
11.9589
 20
62.7135
 30
0.0
 40
0
 41
0
  0
VERTEX
  8
0
 10
11.9415
 20
62.7015
 30
0.0
 40
0
 41
0
  0
VERTEX
  8
0
 10
11.9244
 20
62.689
 30
0.0
 40
0
 41
0
  0
VERTEX
  8
0
 10
11.9075
 20
62.676
 30
0.0
 40
0
 41
0
  0
VERTEX
  8
0
 10
11.8908
 20
62.6622
 30
0.0
 40
0
 41
0
  0
VERTEX
  8
0
 10
11.8745
 20
62.6479
 30
0.0
 40
0
 41
0
  0
VERTEX
  8
0
 10
11.8582
 20
62.6329
 30
0.0
 40
0
 41
0
  0
VERTEX
  8
0
 10
11.8422
 20
62.6174
 30
0.0
 40
0
 41
0
  0
VERTEX
  8
0
 10
11.8266
 20
62.6013
 30
0.0
 40
0
 41
0
  0
VERTEX
  8
0
 10
11.8112
 20
62.5844
 30
0.0
 40
0
 41
0
  0
VERTEX
  8
0
 10
11.7962
 20
62.5671
 30
0.0
 40
0
 41
0
  0
VERTEX
  8
0
 10
11.7815
 20
62.5492
 30
0.0
 40
0
 41
0
  0
VERTEX
  8
0
 10
11.7672
 20
62.5307
 30
0.0
 40
0
 41
0
  0
VERTEX
  8
0
 10
11.7533
 20
62.5117
 30
0.0
 40
0
 41
0
  0
VERTEX
  8
0
 10
11.7398
 20
62.4919
 30
0.0
 40
0
 41
0
  0
VERTEX
  8
0
 10
11.7265
 20
62.4718
 30
0.0
 40
0
 41
0
  0
VERTEX
  8
0
 10
11.7139
 20
62.4511
 30
0.0
 40
0
 41
0
  0
VERTEX
  8
0
 10
11.7017
 20
62.4299
 30
0.0
 40
0
 41
0
  0
VERTEX
  8
0
 10
11.6899
 20
62.4081
 30
0.0
 40
0
 41
0
  0
VERTEX
  8
0
 10
11.6785
 20
62.3857
 30
0.0
 40
0
 41
0
  0
VERTEX
  8
0
 10
11.6676
 20
62.3629
 30
0.0
 40
0
 41
0
  0
VERTEX
  8
0
 10
11.6573
 20
62.3396
 30
0.0
 40
0
 41
0
  0
VERTEX
  8
0
 10
11.6476
 20
62.3158
 30
0.0
 40
0
 41
0
  0
VERTEX
  8
0
 10
11.6383
 20
62.2917
 30
0.0
 40
0
 41
0
  0
VERTEX
  8
0
 10
11.6297
 20
62.2669
 30
0.0
 40
0
 41
0
  0
VERTEX
  8
0
 10
11.6215
 20
62.2418
 30
0.0
 40
0
 41
0
  0
VERTEX
  8
0
 10
11.614
 20
62.2162
 30
0.0
 40
0
 41
0
  0
VERTEX
  8
0
 10
11.6072
 20
62.1903
 30
0.0
 40
0
 41
0
  0
VERTEX
  8
0
 10
11.6009
 20
62.1639
 30
0.0
 40
0
 41
0
  0
VERTEX
  8
0
 10
11.5953
 20
62.1371
 30
0.0
 40
0
 41
0
  0
VERTEX
  8
0
 10
11.5901
 20
62.1099
 30
0.0
 40
0
 41
0
  0
VERTEX
  8
0
 10
11.5858
 20
62.0824
 30
0.0
 40
0
 41
0
  0
VERTEX
  8
0
 10
11.5823
 20
62.0546
 30
0.0
 40
0
 41
0
  0
VERTEX
  8
0
 10
11.5792
 20
62.0264
 30
0.0
 40
0
 41
0
  0
VERTEX
  8
0
 10
11.5768
 20
61.9979
 30
0.0
 40
0
 41
0
  0
VERTEX
  8
0
 10
11.5753
 20
61.9692
 30
0.0
 40
0
 41
0
  0
VERTEX
  8
0
 10
11.5744
 20
61.94
 30
0.0
 40
0
 41
0
  0
VERTEX
  8
0
 10
11.5743
 20
61.9107
 30
0.0
 40
0
 41
0
  0
VERTEX
  8
0
 10
11.5749
 20
61.8813
 30
0.0
 40
0
 41
0
  0
VERTEX
  8
0
 10
11.5761
 20
61.8514
 30
0.0
 40
0
 41
0
  0
VERTEX
  8
0
 10
11.5782
 20
61.8215
 30
0.0
 40
0
 41
0
  0
VERTEX
  8
0
 10
11.5811
 20
61.7914
 30
0.0
 40
0
 41
0
  0
VERTEX
  8
0
 10
11.5847
 20
61.761
 30
0.0
 40
0
 41
0
  0
VERTEX
  8
0
 10
11.5892
 20
61.7306
 30
0.0
 40
0
 41
0
  0
VERTEX
  8
0
 10
11.5945
 20
61.7
 30
0.0
 40
0
 41
0
  0
VERTEX
  8
0
 10
11.6004
 20
61.6693
 30
0.0
 40
0
 41
0
  0
VERTEX
  8
0
 10
11.6072
 20
61.6385
 30
0.0
 40
0
 41
0
  0
VERTEX
  8
0
 10
11.6149
 20
61.6076
 30
0.0
 40
0
 41
0
  0
VERTEX
  8
0
 10
11.6233
 20
61.5768
 30
0.0
 40
0
 41
0
  0
VERTEX
  8
0
 10
11.6327
 20
61.5458
 30
0.0
 40
0
 41
0
  0
VERTEX
  8
0
 10
11.6426
 20
61.515
 30
0.0
 40
0
 41
0
  0
VERTEX
  8
0
 10
11.6536
 20
61.484
 30
0.0
 40
0
 41
0
  0
VERTEX
  8
0
 10
11.6654
 20
61.4532
 30
0.0
 40
0
 41
0
  0
VERTEX
  8
0
 10
11.6781
 20
61.4225
 30
0.0
 40
0
 41
0
  0
VERTEX
  8
0
 10
11.6914
 20
61.3918
 30
0.0
 40
0
 41
0
  0
VERTEX
  8
0
 10
11.7057
 20
61.3611
 30
0.0
 40
0
 41
0
  0
VERTEX
  8
0
 10
11.7208
 20
61.3307
 30
0.0
 40
0
 41
0
  0
VERTEX
  8
0
 10
11.7368
 20
61.3004
 30
0.0
 40
0
 41
0
  0
VERTEX
  8
0
 10
11.7536
 20
61.2701
 30
0.0
 40
0
 41
0
  0
VERTEX
  8
0
 10
11.7714
 20
61.2403
 30
0.0
 40
0
 41
0
  0
VERTEX
  8
0
 10
11.7899
 20
61.2106
 30
0.0
 40
0
 41
0
  0
VERTEX
  8
0
 10
11.8092
 20
61.181
 30
0.0
 40
0
 41
0
  0
VERTEX
  8
0
 10
11.8293
 20
61.1518
 30
0.0
 40
0
 41
0
  0
VERTEX
  8
0
 10
11.8504
 20
61.1228
 30
0.0
 40
0
 41
0
  0
VERTEX
  8
0
 10
11.8722
 20
61.0942
 30
0.0
 40
0
 41
0
  0
VERTEX
  8
0
 10
11.895
 20
61.0658
 30
0.0
 40
0
 41
0
  0
VERTEX
  8
0
 10
11.9185
 20
61.0378
 30
0.0
 40
0
 41
0
  0
VERTEX
  8
0
 10
11.9428
 20
61.0103
 30
0.0
 40
0
 41
0
  0
VERTEX
  8
0
 10
11.968
 20
60.9831
 30
0.0
 40
0
 41
0
  0
VERTEX
  8
0
 10
11.994
 20
60.9563
 30
0.0
 40
0
 41
0
  0
VERTEX
  8
0
 10
12.0207
 20
60.9299
 30
0.0
 40
0
 41
0
  0
VERTEX
  8
0
 10
12.0483
 20
60.904
 30
0.0
 40
0
 41
0
  0
VERTEX
  8
0
 10
12.0767
 20
60.8786
 30
0.0
 40
0
 41
0
  0
VERTEX
  8
0
 10
12.1058
 20
60.8536
 30
0.0
 40
0
 41
0
  0
VERTEX
  8
0
 10
12.1357
 20
60.8293
 30
0.0
 40
0
 41
0
  0
VERTEX
  8
0
 10
12.1664
 20
60.8054
 30
0.0
 40
0
 41
0
  0
VERTEX
  8
0
 10
12.1979
 20
60.7822
 30
0.0
 40
0
 41
0
  0
VERTEX
  8
0
 10
12.23
 20
60.7594
 30
0.0
 40
0
 41
0
  0
VERTEX
  8
0
 10
12.2629
 20
60.7374
 30
0.0
 40
0
 41
0
  0
VERTEX
  8
0
 10
12.2966
 20
60.716
 30
0.0
 40
0
 41
0
  0
VERTEX
  8
0
 10
12.3309
 20
60.6951
 30
0.0
 40
0
 41
0
  0
VERTEX
  8
0
 10
12.366
 20
60.6751
 30
0.0
 40
0
 41
0
  0
VERTEX
  8
0
 10
12.4017
 20
60.6557
 30
0.0
 40
0
 41
0
  0
VERTEX
  8
0
 10
12.438
 20
60.6369
 30
0.0
 40
0
 41
0
  0
VERTEX
  8
0
 10
12.4752
 20
60.619
 30
0.0
 40
0
 41
0
  0
VERTEX
  8
0
 10
12.5128
 20
60.6018
 30
0.0
 40
0
 41
0
  0
VERTEX
  8
0
 10
12.5511
 20
60.5853
 30
0.0
 40
0
 41
0
  0
VERTEX
  8
0
 10
12.59
 20
60.5696
 30
0.0
 40
0
 41
0
  0
VERTEX
  8
0
 10
12.6294
 20
60.5547
 30
0.0
 40
0
 41
0
  0
VERTEX
  8
0
 10
12.6696
 20
60.5407
 30
0.0
 40
0
 41
0
  0
VERTEX
  8
0
 10
12.7101
 20
60.5275
 30
0.0
 40
0
 41
0
  0
VERTEX
  8
0
 10
12.7514
 20
60.5153
 30
0.0
 40
0
 41
0
  0
VERTEX
  8
0
 10
12.7931
 20
60.5038
 30
0.0
 40
0
 41
0
  0
VERTEX
  8
0
 10
12.8353
 20
60.4932
 30
0.0
 40
0
 41
0
  0
VERTEX
  8
0
 10
12.8779
 20
60.4836
 30
0.0
 40
0
 41
0
  0
VERTEX
  8
0
 10
12.9211
 20
60.4749
 30
0.0
 40
0
 41
0
  0
VERTEX
  8
0
 10
12.9647
 20
60.4671
 30
0.0
 40
0
 41
0
  0
VERTEX
  8
0
 10
13.0087
 20
60.4601
 30
0.0
 40
0
 41
0
  0
VERTEX
  8
0
 10
13.0532
 20
60.4543
 30
0.0
 40
0
 41
0
  0
VERTEX
  8
0
 10
13.0979
 20
60.4494
 30
0.0
 40
0
 41
0
  0
VERTEX
  8
0
 10
13.1431
 20
60.4456
 30
0.0
 40
0
 41
0
  0
VERTEX
  8
0
 10
13.1886
 20
60.4426
 30
0.0
 40
0
 41
0
  0
VERTEX
  8
0
 10
13.2344
 20
60.4408
 30
0.0
 40
0
 41
0
  0
VERTEX
  8
0
 10
13.2805
 20
60.44
 30
0.0
 40
0
 41
0
  0
VERTEX
  8
0
 10
13.3269
 20
60.4403
 30
0.0
 40
0
 41
0
  0
VERTEX
  8
0
 10
13.3735
 20
60.4415
 30
0.0
 40
0
 41
0
  0
VERTEX
  8
0
 10
13.4203
 20
60.4439
 30
0.0
 40
0
 41
0
  0
VERTEX
  8
0
 10
13.4673
 20
60.4472
 30
0.0
 40
0
 41
0
  0
VERTEX
  8
0
 10
13.5146
 20
60.4518
 30
0.0
 40
0
 41
0
  0
VERTEX
  8
0
 10
13.562
 20
60.4574
 30
0.0
 40
0
 41
0
  0
VERTEX
  8
0
 10
13.6094
 20
60.464
 30
0.0
 40
0
 41
0
  0
VERTEX
  8
0
 10
13.657
 20
60.4718
 30
0.0
 40
0
 41
0
  0
VERTEX
  8
0
 10
13.7046
 20
60.4808
 30
0.0
 40
0
 41
0
  0
VERTEX
  8
0
 10
13.7522
 20
60.4908
 30
0.0
 40
0
 41
0
  0
VERTEX
  8
0
 10
13.8
 20
60.5021
 30
0.0
 40
0
 41
0
  0
VERTEX
  8
0
 10
13.8477
 20
60.5143
 30
0.0
 40
0
 41
0
  0
VERTEX
  8
0
 10
13.8953
 20
60.5278
 30
0.0
 40
0
 41
0
  0
VERTEX
  8
0
 10
13.9429
 20
60.5424
 30
0.0
 40
0
 41
0
  0
VERTEX
  8
0
 10
13.9904
 20
60.5581
 30
0.0
 40
0
 41
0
  0
VERTEX
  8
0
 10
14.0378
 20
60.575
 30
0.0
 40
0
 41
0
  0
VERTEX
  8
0
 10
14.085
 20
60.5931
 30
0.0
 40
0
 41
0
  0
VERTEX
  8
0
 10
14.1321
 20
60.6122
 30
0.0
 40
0
 41
0
  0
VERTEX
  8
0
 10
14.179
 20
60.6325
 30
0.0
 40
0
 41
0
  0
VERTEX
  8
0
 10
14.2257
 20
60.654
 30
0.0
 40
0
 41
0
  0
VERTEX
  8
0
 10
14.2721
 20
60.6767
 30
0.0
 40
0
 41
0
  0
VERTEX
  8
0
 10
14.3182
 20
60.7004
 30
0.0
 40
0
 41
0
  0
VERTEX
  8
0
 10
14.3639
 20
60.7254
 30
0.0
 40
0
 41
0
  0
VERTEX
  8
0
 10
14.4094
 20
60.7514
 30
0.0
 40
0
 41
0
  0
VERTEX
  8
0
 10
14.4546
 20
60.7786
 30
0.0
 40
0
 41
0
  0
VERTEX
  8
0
 10
14.4992
 20
60.8069
 30
0.0
 40
0
 41
0
  0
VERTEX
  8
0
 10
14.5435
 20
60.8365
 30
0.0
 40
0
 41
0
  0
VERTEX
  8
0
 10
14.5874
 20
60.8671
 30
0.0
 40
0
 41
0
  0
VERTEX
  8
0
 10
14.6307
 20
60.8989
 30
0.0
 40
0
 41
0
  0
VERTEX
  8
0
 10
14.6736
 20
60.9317
 30
0.0
 40
0
 41
0
  0
VERTEX
  8
0
 10
14.7158
 20
60.9657
 30
0.0
 40
0
 41
0
  0
VERTEX
  8
0
 10
14.7576
 20
61.0007
 30
0.0
 40
0
 41
0
  0
VERTEX
  8
0
 10
14.7988
 20
61.0369
 30
0.0
 40
0
 41
0
  0
VERTEX
  8
0
 10
14.8393
 20
61.0742
 30
0.0
 40
0
 41
0
  0
VERTEX
  8
0
 10
14.8793
 20
61.1124
 30
0.0
 40
0
 41
0
  0
VERTEX
  8
0
 10
14.9185
 20
61.1518
 30
0.0
 40
0
 41
0
  0
VERTEX
  8
0
 10
14.9571
 20
61.1922
 30
0.0
 40
0
 41
0
  0
VERTEX
  8
0
 10
14.9949
 20
61.2336
 30
0.0
 40
0
 41
0
  0
VERTEX
  8
0
 10
15.0319
 20
61.2761
 30
0.0
 40
0
 41
0
  0
VERTEX
  8
0
 10
15.0682
 20
61.3196
 30
0.0
 40
0
 41
0
  0
VERTEX
  8
0
 10
15.1036
 20
61.3642
 30
0.0
 40
0
 41
0
  0
VERTEX
  8
0
 10
15.1383
 20
61.4096
 30
0.0
 40
0
 41
0
  0
VERTEX
  8
0
 10
15.1721
 20
61.4561
 30
0.0
 40
0
 41
0
  0
VERTEX
  8
0
 10
15.205
 20
61.5035
 30
0.0
 40
0
 41
0
  0
VERTEX
  8
0
 10
15.2371
 20
61.5518
 30
0.0
 40
0
 41
0
  0
VERTEX
  8
0
 10
15.2682
 20
61.601
 30
0.0
 40
0
 41
0
  0
VERTEX
  8
0
 10
15.2983
 20
61.6511
 30
0.0
 40
0
 41
0
  0
VERTEX
  8
0
 10
15.3274
 20
61.7022
 30
0.0
 40
0
 41
0
  0
VERTEX
  8
0
 10
15.3556
 20
61.754
 30
0.0
 40
0
 41
0
  0
VERTEX
  8
0
 10
15.3826
 20
61.8068
 30
0.0
 40
0
 41
0
  0
VERTEX
  8
0
 10
15.4088
 20
61.8604
 30
0.0
 40
0
 41
0
  0
VERTEX
  8
0
 10
15.4337
 20
61.9147
 30
0.0
 40
0
 41
0
  0
VERTEX
  8
0
 10
15.4576
 20
61.9699
 30
0.0
 40
0
 41
0
  0
VERTEX
  8
0
 10
15.4804
 20
62.0257
 30
0.0
 40
0
 41
0
  0
VERTEX
  8
0
 10
15.5021
 20
62.0824
 30
0.0
 40
0
 41
0
  0
VERTEX
  8
0
 10
15.5226
 20
62.1397
 30
0.0
 40
0
 41
0
  0
VERTEX
  8
0
 10
15.5419
 20
62.1978
 30
0.0
 40
0
 41
0
  0
VERTEX
  8
0
 10
15.56
 20
62.2564
 30
0.0
 40
0
 41
0
  0
VERTEX
  8
0
 10
15.5769
 20
62.3157
 30
0.0
 40
0
 41
0
  0
VERTEX
  8
0
 10
15.5926
 20
62.3757
 30
0.0
 40
0
 41
0
  0
VERTEX
  8
0
 10
15.6071
 20
62.4363
 30
0.0
 40
0
 41
0
  0
VERTEX
  8
0
 10
15.6201
 20
62.4974
 30
0.0
 40
0
 41
0
  0
VERTEX
  8
0
 10
15.6319
 20
62.5589
 30
0.0
 40
0
 41
0
  0
VERTEX
  8
0
 10
15.6425
 20
62.6211
 30
0.0
 40
0
 41
0
  0
VERTEX
  8
0
 10
15.6518
 20
62.6838
 30
0.0
 40
0
 41
0
  0
VERTEX
  8
0
 10
15.6596
 20
62.7468
 30
0.0
 40
0
 41
0
  0
VERTEX
  8
0
 10
15.6662
 20
62.8103
 30
0.0
 40
0
 41
0
  0
VERTEX
  8
0
 10
15.6714
 20
62.8742
 30
0.0
 40
0
 41
0
  0
VERTEX
  8
0
 10
15.6751
 20
62.9383
 30
0.0
 40
0
 41
0
  0
VERTEX
  8
0
 10
15.6775
 20
63.0029
 30
0.0
 40
0
 41
0
  0
VERTEX
  8
0
 10
15.6785
 20
63.0678
 30
0.0
 40
0
 41
0
  0
VERTEX
  8
0
 10
15.6781
 20
63.1329
 30
0.0
 40
0
 41
0
  0
VERTEX
  8
0
 10
15.6762
 20
63.1983
 30
0.0
 40
0
 41
0
  0
VERTEX
  8
0
 10
15.6729
 20
63.264
 30
0.0
 40
0
 41
0
  0
VERTEX
  8
0
 10
15.6682
 20
63.3297
 30
0.0
 40
0
 41
0
  0
VERTEX
  8
0
 10
15.6619
 20
63.3957
 30
0.0
 40
0
 41
0
  0
VERTEX
  8
0
 10
15.6543
 20
63.4618
 30
0.0
 40
0
 41
0
  0
VERTEX
  8
0
 10
15.6451
 20
63.5279
 30
0.0
 40
0
 41
0
  0
VERTEX
  8
0
 10
15.6346
 20
63.594
 30
0.0
 40
0
 41
0
  0
VERTEX
  8
0
 10
15.6224
 20
63.6603
 30
0.0
 40
0
 41
0
  0
VERTEX
  8
0
 10
15.6089
 20
63.7264
 30
0.0
 40
0
 41
0
  0
VERTEX
  8
0
 10
15.5938
 20
63.7925
 30
0.0
 40
0
 41
0
  0
VERTEX
  8
0
 10
15.5771
 20
63.8586
 30
0.0
 40
0
 41
0
  0
VERTEX
  8
0
 10
15.559
 20
63.9244
 30
0.0
 40
0
 41
0
  0
VERTEX
  8
0
 10
15.5394
 20
63.9903
 30
0.0
 40
0
 41
0
  0
VERTEX
  8
0
 10
15.5183
 20
64.0558
 30
0.0
 40
0
 41
0
  0
VERTEX
  8
0
 10
15.4957
 20
64.1213
 30
0.0
 40
0
 41
0
  0
VERTEX
  8
0
 10
15.4717
 20
64.1864
 30
0.0
 40
0
 41
0
  0
VERTEX
  8
0
 10
15.446
 20
64.2511
 30
0.0
 40
0
 41
0
  0
VERTEX
  8
0
 10
15.4189
 20
64.3157
 30
0.0
 40
0
 41
0
  0
VERTEX
  8
0
 10
15.3903
 20
64.3797
 30
0.0
 40
0
 41
0
  0
VERTEX
  8
0
 10
15.3601
 20
64.4435
 30
0.0
 40
0
 41
0
  0
VERTEX
  8
0
 10
15.3285
 20
64.5068
 30
0.0
 40
0
 41
0
  0
VERTEX
  8
0
 10
15.2953
 20
64.5696
 30
0.0
 40
0
 41
0
  0
VERTEX
  8
0
 10
15.2607
 20
64.6319
 30
0.0
 40
0
 41
0
  0
VERTEX
  8
0
 10
15.2247
 20
64.6938
 30
0.0
 40
0
 41
0
  0
VERTEX
  8
0
 10
15.1871
 20
64.755
 30
0.0
 40
0
 41
0
  0
VERTEX
  8
0
 10
15.1481
 20
64.8157
 30
0.0
 40
0
 41
0
  0
VERTEX
  8
0
 10
15.1076
 20
64.8757
 30
0.0
 40
0
 41
0
  0
VERTEX
  8
0
 10
15.0657
 20
64.935
 30
0.0
 40
0
 41
0
  0
VERTEX
  8
0
 10
15.0224
 20
64.9936
 30
0.0
 40
0
 41
0
  0
VERTEX
  8
0
 10
14.9776
 20
65.0515
 30
0.0
 40
0
 41
0
  0
VERTEX
  8
0
 10
14.9314
 20
65.1086
 30
0.0
 40
0
 41
0
  0
VERTEX
  8
0
 10
14.8839
 20
65.165
 30
0.0
 40
0
 41
0
  0
VERTEX
  8
0
 10
14.8349
 20
65.2204
 30
0.0
 40
0
 41
0
  0
VERTEX
  8
0
 10
14.7846
 20
65.275
 30
0.0
 40
0
 41
0
  0
VERTEX
  8
0
 10
14.7329
 20
65.3287
 30
0.0
 40
0
 41
0
  0
VERTEX
  8
0
 10
14.6799
 20
65.3814
 30
0.0
 40
0
 41
0
  0
VERTEX
  8
0
 10
14.6256
 20
65.4332
 30
0.0
 40
0
 41
0
  0
VERTEX
  8
0
 10
14.5699
 20
65.484
 30
0.0
 40
0
 41
0
  0
VERTEX
  8
0
 10
14.5129
 20
65.5338
 30
0.0
 40
0
 41
0
  0
VERTEX
  8
0
 10
14.4547
 20
65.5824
 30
0.0
 40
0
 41
0
  0
VERTEX
  8
0
 10
14.3953
 20
65.63
 30
0.0
 40
0
 41
0
  0
VERTEX
  8
0
 10
14.3347
 20
65.6764
 30
0.0
 40
0
 41
0
  0
VERTEX
  8
0
 10
14.2728
 20
65.7217
 30
0.0
 40
0
 41
0
  0
VERTEX
  8
0
 10
14.2097
 20
65.7657
 30
0.0
 40
0
 41
0
  0
VERTEX
  8
0
 10
14.1456
 20
65.8086
 30
0.0
 40
0
 41
0
  0
VERTEX
  8
0
 10
14.0801
 20
65.8501
 30
0.0
 40
0
 41
0
  0
VERTEX
  8
0
 10
14.0137
 20
65.8906
 30
0.0
 40
0
 41
0
  0
VERTEX
  8
0
 10
13.9463
 20
65.9296
 30
0.0
 40
0
 41
0
  0
VERTEX
  8
0
 10
13.8777
 20
65.9672
 30
0.0
 40
0
 41
0
  0
VERTEX
  8
0
 10
13.8079
 20
66.0035
 30
0.0
 40
0
 41
0
  0
VERTEX
  8
0
 10
13.7372
 20
66.0385
 30
0.0
 40
0
 41
0
  0
VERTEX
  8
0
 10
13.6657
 20
66.0719
 30
0.0
 40
0
 41
0
  0
VERTEX
  8
0
 10
13.593
 20
66.104
 30
0.0
 40
0
 41
0
  0
VERTEX
  8
0
 10
13.5196
 20
66.1346
 30
0.0
 40
0
 41
0
  0
VERTEX
  8
0
 10
13.4452
 20
66.1638
 30
0.0
 40
0
 41
0
  0
VERTEX
  8
0
 10
13.3698
 20
66.1914
 30
0.0
 40
0
 41
0
  0
VERTEX
  8
0
 10
13.2939
 20
66.2174
 30
0.0
 40
0
 41
0
  0
VERTEX
  8
0
 10
13.217
 20
66.2418
 30
0.0
 40
0
 41
0
  0
VERTEX
  8
0
 10
13.1393
 20
66.2647
 30
0.0
 40
0
 41
0
  0
VERTEX
  8
0
 10
13.061
 20
66.2861
 30
0.0
 40
0
 41
0
  0
VERTEX
  8
0
 10
12.9818
 20
66.3057
 30
0.0
 40
0
 41
0
  0
VERTEX
  8
0
 10
12.9021
 20
66.3238
 30
0.0
 40
0
 41
0
  0
VERTEX
  8
0
 10
12.8217
 20
66.3401
 30
0.0
 40
0
 41
0
  0
VERTEX
  8
0
 10
12.7407
 20
66.3549
 30
0.0
 40
0
 41
0
  0
VERTEX
  8
0
 10
12.6592
 20
66.3678
 30
0.0
 40
0
 41
0
  0
VERTEX
  8
0
 10
12.5771
 20
66.379
 30
0.0
 40
0
 41
0
  0
VERTEX
  8
0
 10
12.4945
 20
66.3886
 30
0.0
 40
0
 41
0
  0
VERTEX
  8
0
 10
12.4115
 20
66.3964
 30
0.0
 40
0
 41
0
  0
VERTEX
  8
0
 10
12.3281
 20
66.4024
 30
0.0
 40
0
 41
0
  0
VERTEX
  8
0
 10
12.2443
 20
66.4065
 30
0.0
 40
0
 41
0
  0
VERTEX
  8
0
 10
12.1602
 20
66.409
 30
0.0
 40
0
 41
0
  0
VERTEX
  8
0
 10
12.0757
 20
66.4097
 30
0.0
 40
0
 41
0
  0
VERTEX
  8
0
 10
11.991
 20
66.4085
 30
0.0
 40
0
 41
0
  0
VERTEX
  8
0
 10
11.906
 20
66.4054
 30
0.0
 40
0
 41
0
  0
VERTEX
  8
0
 10
11.8209
 20
66.4006
 30
0.0
 40
0
 41
0
  0
VERTEX
  8
0
 10
11.7356
 20
66.3939
 30
0.0
 40
0
 41
0
  0
VERTEX
  8
0
 10
11.6503
 20
66.3853
 30
0.0
 40
0
 41
0
  0
VERTEX
  8
0
 10
11.5647
 20
66.3749
 30
0.0
 40
0
 41
0
  0
VERTEX
  8
0
 10
11.4793
 20
66.3626
 30
0.0
 40
0
 41
0
  0
VERTEX
  8
0
 10
11.3939
 20
66.3485
 30
0.0
 40
0
 41
0
  0
VERTEX
  8
0
 10
11.3085
 20
66.3324
 30
0.0
 40
0
 41
0
  0
VERTEX
  8
0
 10
11.2232
 20
66.3144
 30
0.0
 40
0
 41
0
  0
VERTEX
  8
0
 10
11.1381
 20
66.2947
 30
0.0
 40
0
 41
0
  0
VERTEX
  8
0
 10
11.0531
 20
66.2729
 30
0.0
 40
0
 41
0
  0
VERTEX
  8
0
 10
10.9683
 20
66.2494
 30
0.0
 40
0
 41
0
  0
VERTEX
  8
0
 10
10.8839
 20
66.2239
 30
0.0
 40
0
 41
0
  0
VERTEX
  8
0
 10
10.7997
 20
66.1965
 30
0.0
 40
0
 41
0
  0
VERTEX
  8
0
 10
10.716
 20
66.1674
 30
0.0
 40
0
 41
0
  0
VERTEX
  8
0
 10
10.6325
 20
66.1363
 30
0.0
 40
0
 41
0
  0
VERTEX
  8
0
 10
10.5496
 20
66.1032
 30
0.0
 40
0
 41
0
  0
VERTEX
  8
0
 10
10.4671
 20
66.0683
 30
0.0
 40
0
 41
0
  0
VERTEX
  8
0
 10
10.385
 20
66.0315
 30
0.0
 40
0
 41
0
  0
VERTEX
  8
0
 10
10.3036
 20
65.9929
 30
0.0
 40
0
 41
0
  0
VERTEX
  8
0
 10
10.2228
 20
65.9525
 30
0.0
 40
0
 41
0
  0
VERTEX
  8
0
 10
10.1426
 20
65.9101
 30
0.0
 40
0
 41
0
  0
VERTEX
  8
0
 10
10.0632
 20
65.866
 30
0.0
 40
0
 41
0
  0
VERTEX
  8
0
 10
9.98443
 20
65.82
 30
0.0
 40
0
 41
0
  0
VERTEX
  8
0
 10
9.90653
 20
65.7722
 30
0.0
 40
0
 41
0
  0
VERTEX
  8
0
 10
9.82932
 20
65.7226
 30
0.0
 40
0
 41
0
  0
VERTEX
  8
0
 10
9.75304
 20
65.6713
 30
0.0
 40
0
 41
0
  0
VERTEX
  8
0
 10
9.67763
 20
65.6181
 30
0.0
 40
0
 41
0
  0
VERTEX
  8
0
 10
9.60319
 20
65.5631
 30
0.0
 40
0
 41
0
  0
VERTEX
  8
0
 10
9.52957
 20
65.5064
 30
0.0
 40
0
 41
0
  0
VERTEX
  8
0
 10
9.45725
 20
65.4481
 30
0.0
 40
0
 41
0
  0
VERTEX
  8
0
 10
9.38569
 20
65.3879
 30
0.0
 40
0
 41
0
  0
VERTEX
  8
0
 10
9.31543
 20
65.3261
 30
0.0
 40
0
 41
0
  0
VERTEX
  8
0
 10
9.24625
 20
65.2626
 30
0.0
 40
0
 41
0
  0
VERTEX
  8
0
 10
9.17833
 20
65.1975
 30
0.0
 40
0
 41
0
  0
VERTEX
  8
0
 10
9.11154
 20
65.1307
 30
0.0
 40
0
 41
0
  0
VERTEX
  8
0
 10
9.04596
 20
65.0624
 30
0.0
 40
0
 41
0
  0
VERTEX
  8
0
 10
8.98167
 20
64.9925
 30
0.0
 40
0
 41
0
  0
VERTEX
  8
0
 10
8.91889
 20
64.921
 30
0.0
 40
0
 41
0
  0
VERTEX
  8
0
 10
8.85721
 20
64.8479
 30
0.0
 40
0
 41
0
  0
VERTEX
  8
0
 10
8.79719
 20
64.7733
 30
0.0
 40
0
 41
0
  0
VERTEX
  8
0
 10
8.7385
 20
64.6974
 30
0.0
 40
0
 41
0
  0
VERTEX
  8
0
 10
8.68126
 20
64.6199
 30
0.0
 40
0
 41
0
  0
VERTEX
  8
0
 10
8.62554
 20
64.541
 30
0.0
 40
0
 41
0
  0
VERTEX
  8
0
 10
8.5714
 20
64.4607
 30
0.0
 40
0
 41
0
  0
VERTEX
  8
0
 10
8.51888
 20
64.379
 30
0.0
 40
0
 41
0
  0
VERTEX
  8
0
 10
8.46793
 20
64.296
 30
0.0
 40
0
 41
0
  0
VERTEX
  8
0
 10
8.41862
 20
64.2117
 30
0.0
 40
0
 41
0
  0
VERTEX
  8
0
 10
8.37099
 20
64.1261
 30
0.0
 40
0
 41
0
  0
VERTEX
  8
0
 10
8.32497
 20
64.0393
 30
0.0
 40
0
 41
0
  0
VERTEX
  8
0
 10
8.28082
 20
63.9514
 30
0.0
 40
0
 41
0
  0
VERTEX
  8
0
 10
8.2385
 20
63.8622
 30
0.0
 40
0
 41
0
  0
VERTEX
  8
0
 10
8.19792
 20
63.7718
 30
0.0
 40
0
 41
0
  0
VERTEX
  8
0
 10
8.15901
 20
63.6804
 30
0.0
 40
0
 41
0
  0
VERTEX
  8
0
 10
8.12224
 20
63.5881
 30
0.0
 40
0
 41
0
  0
VERTEX
  8
0
 10
8.08708
 20
63.4946
 30
0.0
 40
0
 41
0
  0
VERTEX
  8
0
 10
8.05404
 20
63.4001
 30
0.0
 40
0
 41
0
  0
VERTEX
  8
0
 10
8.02289
 20
63.3047
 30
0.0
 40
0
 41
0
  0
VERTEX
  8
0
 10
7.9936
 20
63.2083
 30
0.0
 40
0
 41
0
  0
VERTEX
  8
0
 10
7.96636
 20
63.1112
 30
0.0
 40
0
 41
0
  0
VERTEX
  8
0
 10
7.94125
 20
63.0132
 30
0.0
 40
0
 41
0
  0
VERTEX
  8
0
 10
7.91808
 20
62.9144
 30
0.0
 40
0
 41
0
  0
VERTEX
  8
0
 10
7.89692
 20
62.815
 30
0.0
 40
0
 41
0
  0
VERTEX
  8
0
 10
7.87776
 20
62.7149
 30
0.0
 40
0
 41
0
  0
VERTEX
  8
0
 10
7.86083
 20
62.614
 30
0.0
 40
0
 41
0
  0
VERTEX
  8
0
 10
7.84597
 20
62.5125
 30
0.0
 40
0
 41
0
  0
VERTEX
  8
0
 10
7.83333
 20
62.4106
 30
0.0
 40
0
 41
0
  0
VERTEX
  8
0
 10
7.82275
 20
62.3081
 30
0.0
 40
0
 41
0
  0
VERTEX
  8
0
 10
7.81429
 20
62.205
 30
0.0
 40
0
 41
0
  0
VERTEX
  8
0
 10
7.80821
 20
62.1017
 30
0.0
 40
0
 41
0
  0
VERTEX
  8
0
 10
7.80414
 20
61.9978
 30
0.0
 40
0
 41
0
  0
VERTEX
  8
0
 10
7.80236
 20
61.8938
 30
0.0
 40
0
 41
0
  0
VERTEX
  8
0
 10
7.80279
 20
61.7893
 30
0.0
 40
0
 41
0
  0
VERTEX
  8
0
 10
7.80539
 20
61.6846
 30
0.0
 40
0
 41
0
  0
VERTEX
  8
0
 10
7.81028
 20
61.5799
 30
0.0
 40
0
 41
0
  0
VERTEX
  8
0
 10
7.81739
 20
61.4749
 30
0.0
 40
0
 41
0
  0
VERTEX
  8
0
 10
7.82682
 20
61.3697
 30
0.0
 40
0
 41
0
  0
VERTEX
  8
0
 10
7.83832
 20
61.2646
 30
0.0
 40
0
 41
0
  0
VERTEX
  8
0
 10
7.85237
 20
61.1594
 30
0.0
 40
0
 41
0
  0
VERTEX
  8
0
 10
7.86849
 20
61.0544
 30
0.0
 40
0
 41
0
  0
VERTEX
  8
0
 10
7.88693
 20
60.9494
 30
0.0
 40
0
 41
0
  0
VERTEX
  8
0
 10
7.90776
 20
60.8447
 30
0.0
 40
0
 41
0
  0
VERTEX
  8
0
 10
7.93083
 20
60.7401
 30
0.0
 40
0
 41
0
  0
VERTEX
  8
0
 10
7.95611
 20
60.6357
 30
0.0
 40
0
 41
0
  0
VERTEX
  8
0
 10
7.98372
 20
60.5317
 30
0.0
 40
0
 41
0
  0
VERTEX
  8
0
 10
8.01361
 20
60.4279
 30
0.0
 40
0
 41
0
  0
VERTEX
  8
0
 10
8.04585
 20
60.3247
 30
0.0
 40
0
 41
0
  0
VERTEX
  8
0
 10
8.08029
 20
60.2218
 30
0.0
 40
0
 41
0
  0
VERTEX
  8
0
 10
8.11697
 20
60.1194
 30
0.0
 40
0
 41
0
  0
VERTEX
  8
0
 10
8.15597
 20
60.0176
 30
0.0
 40
0
 41
0
  0
VERTEX
  8
0
 10
8.19721
 20
59.9165
 30
0.0
 40
0
 41
0
  0
VERTEX
  8
0
 10
8.24067
 20
59.816
 30
0.0
 40
0
 41
0
  0
VERTEX
  8
0
 10
8.2864
 20
59.7161
 30
0.0
 40
0
 41
0
  0
VERTEX
  8
0
 10
8.33442
 20
59.6171
 30
0.0
 40
0
 41
0
  0
VERTEX
  8
0
 10
8.3846
 20
59.5188
 30
0.0
 40
0
 41
0
  0
VERTEX
  8
0
 10
8.43707
 20
59.4213
 30
0.0
 40
0
 41
0
  0
VERTEX
  8
0
 10
8.49164
 20
59.3247
 30
0.0
 40
0
 41
0
  0
VERTEX
  8
0
 10
8.54833
 20
59.2292
 30
0.0
 40
0
 41
0
  0
VERTEX
  8
0
 10
8.60736
 20
59.1346
 30
0.0
 40
0
 41
0
  0
VERTEX
  8
0
 10
8.66835
 20
59.0411
 30
0.0
 40
0
 41
0
  0
VERTEX
  8
0
 10
8.73156
 20
58.9486
 30
0.0
 40
0
 41
0
  0
VERTEX
  8
0
 10
8.79693
 20
58.8574
 30
0.0
 40
0
 41
0
  0
VERTEX
  8
0
 10
8.86431
 20
58.7672
 30
0.0
 40
0
 41
0
  0
VERTEX
  8
0
 10
8.93375
 20
58.6783
 30
0.0
 40
0
 41
0
  0
VERTEX
  8
0
 10
9.00526
 20
58.5908
 30
0.0
 40
0
 41
0
  0
VERTEX
  8
0
 10
9.07889
 20
58.5046
 30
0.0
 40
0
 41
0
  0
VERTEX
  8
0
 10
9.15429
 20
58.4197
 30
0.0
 40
0
 41
0
  0
VERTEX
  8
0
 10
9.23182
 20
58.3362
 30
0.0
 40
0
 41
0
  0
VERTEX
  8
0
 10
9.31125
 20
58.2543
 30
0.0
 40
0
 41
0
  0
VERTEX
  8
0
 10
9.39264
 20
58.1739
 30
0.0
 40
0
 41
0
  0
VERTEX
  8
0
 10
9.47586
 20
58.095
 30
0.0
 40
0
 41
0
  0
VERTEX
  8
0
 10
9.56099
 20
58.0178
 30
0.0
 40
0
 41
0
  0
VERTEX
  8
0
 10
9.64789
 20
57.9421
 30
0.0
 40
0
 41
0
  0
VERTEX
  8
0
 10
9.73665
 20
57.8682
 30
0.0
 40
0
 41
0
  0
VERTEX
  8
0
 10
9.8271
 20
57.796
 30
0.0
 40
0
 41
0
  0
VERTEX
  8
0
 10
9.91932
 20
57.7256
 30
0.0
 40
0
 41
0
  0
VERTEX
  8
0
 10
10.0133
 20
57.6568
 30
0.0
 40
0
 41
0
  0
VERTEX
  8
0
 10
10.1089
 20
57.5901
 30
0.0
 40
0
 41
0
  0
VERTEX
  8
0
 10
10.2059
 20
57.5253
 30
0.0
 40
0
 41
0
  0
VERTEX
  8
0
 10
10.3048
 20
57.4624
 30
0.0
 40
0
 41
0
  0
VERTEX
  8
0
 10
10.4052
 20
57.4014
 30
0.0
 40
0
 41
0
  0
VERTEX
  8
0
 10
10.5069
 20
57.3424
 30
0.0
 40
0
 41
0
  0
VERTEX
  8
0
 10
10.6103
 20
57.2854
 30
0.0
 40
0
 41
0
  0
VERTEX
  8
0
 10
10.715
 20
57.2306
 30
0.0
 40
0
 41
0
  0
VERTEX
  8
0
 10
10.821
 20
57.1779
 30
0.0
 40
0
 41
0
  0
VERTEX
  8
0
 10
10.9285
 20
57.1274
 30
0.0
 40
0
 41
0
  0
VERTEX
  8
0
 10
11.0372
 20
57.0789
 30
0.0
 40
0
 41
0
  0
VERTEX
  8
0
 10
11.1472
 20
57.0328
 30
0.0
 40
0
 41
0
  0
VERTEX
  8
0
 10
11.2584
 20
56.9889
 30
0.0
 40
0
 41
0
  0
VERTEX
  8
0
 10
11.3707
 20
56.9472
 30
0.0
 40
0
 41
0
  0
VERTEX
  8
0
 10
11.4842
 20
56.9078
 30
0.0
 40
0
 41
0
  0
VERTEX
  8
0
 10
11.5987
 20
56.8708
 30
0.0
 40
0
 41
0
  0
VERTEX
  8
0
 10
11.7143
 20
56.8361
 30
0.0
 40
0
 41
0
  0
VERTEX
  8
0
 10
11.8308
 20
56.8039
 30
0.0
 40
0
 41
0
  0
VERTEX
  8
0
 10
11.9483
 20
56.774
 30
0.0
 40
0
 41
0
  0
VERTEX
  8
0
 10
12.0665
 20
56.7467
 30
0.0
 40
0
 41
0
  0
VERTEX
  8
0
 10
12.1857
 20
56.7217
 30
0.0
 40
0
 41
0
  0
VERTEX
  8
0
 10
12.3056
 20
56.6992
 30
0.0
 40
0
 41
0
  0
VERTEX
  8
0
 10
12.4263
 20
56.6793
 30
0.0
 40
0
 41
0
  0
VERTEX
  8
0
 10
12.5475
 20
56.6618
 30
0.0
 40
0
 41
0
  0
VERTEX
  8
0
 10
12.6694
 20
56.6469
 30
0.0
 40
0
 41
0
  0
VERTEX
  8
0
 10
12.7919
 20
56.6346
 30
0.0
 40
0
 41
0
  0
VERTEX
  8
0
 10
12.9149
 20
56.6249
 30
0.0
 40
0
 41
0
  0
VERTEX
  8
0
 10
13.0382
 20
56.6176
 30
0.0
 40
0
 41
0
  0
VERTEX
  8
0
 10
13.1621
 20
56.6131
 30
0.0
 40
0
 41
0
  0
VERTEX
  8
0
 10
13.2862
 20
56.6111
 30
0.0
 40
0
 41
0
  0
VERTEX
  8
0
 10
13.4107
 20
56.6118
 30
0.0
 40
0
 41
0
  0
VERTEX
  8
0
 10
13.5353
 20
56.6153
 30
0.0
 40
0
 41
0
  0
VERTEX
  8
0
 10
13.6602
 20
56.6213
 30
0.0
 40
0
 41
0
  0
VERTEX
  8
0
 10
13.785
 20
56.6299
 30
0.0
 40
0
 41
0
  0
VERTEX
  8
0
 10
13.91
 20
56.6412
 30
0.0
 40
0
 41
0
  0
VERTEX
  8
0
 10
14.035
 20
56.6553
 30
0.0
 40
0
 41
0
  0
VERTEX
  8
0
 10
14.16
 20
56.6719
 30
0.0
 40
0
 41
0
  0
VERTEX
  8
0
 10
14.2849
 20
56.6914
 30
0.0
 40
0
 41
0
  0
VERTEX
  8
0
 10
14.4094
 20
56.7135
 30
0.0
 40
0
 41
0
  0
VERTEX
  8
0
 10
14.5339
 20
56.7382
 30
0.0
 40
0
 41
0
  0
VERTEX
  8
0
 10
14.6581
 20
56.7657
 30
0.0
 40
0
 41
0
  0
VERTEX
  8
0
 10
14.7818
 20
56.7958
 30
0.0
 40
0
 41
0
  0
VERTEX
  8
0
 10
14.9053
 20
56.8286
 30
0.0
 40
0
 41
0
  0
VERTEX
  8
0
 10
15.0282
 20
56.8642
 30
0.0
 40
0
 41
0
  0
VERTEX
  8
0
 10
15.1506
 20
56.9024
 30
0.0
 40
0
 41
0
  0
VERTEX
  8
0
 10
15.2724
 20
56.9432
 30
0.0
 40
0
 41
0
  0
VERTEX
  8
0
 10
15.3936
 20
56.9867
 30
0.0
 40
0
 41
0
  0
VERTEX
  8
0
 10
15.514
 20
57.0329
 30
0.0
 40
0
 41
0
  0
VERTEX
  8
0
 10
15.6338
 20
57.0817
 30
0.0
 40
0
 41
0
  0
VERTEX
  8
0
 10
15.7526
 20
57.1332
 30
0.0
 40
0
 41
0
  0
VERTEX
  8
0
 10
15.8707
 20
57.1872
 30
0.0
 40
0
 41
0
  0
VERTEX
  8
0
 10
15.9878
 20
57.2439
 30
0.0
 40
0
 41
0
  0
VERTEX
  8
0
 10
16.104
 20
57.3032
 30
0.0
 40
0
 41
0
  0
VERTEX
  8
0
 10
16.219
 20
57.3651
 30
0.0
 40
0
 41
0
  0
VERTEX
  8
0
 10
16.3331
 20
57.4294
 30
0.0
 40
0
 41
0
  0
VERTEX
  8
0
 10
16.4458
 20
57.4964
 30
0.0
 40
0
 41
0
  0
VERTEX
  8
0
 10
16.5575
 20
57.566
 30
0.0
 40
0
 41
0
  0
VERTEX
  8
0
 10
16.6679
 20
57.6379
 30
0.0
 40
0
 41
0
  0
VERTEX
  8
0
 10
16.7769
 20
57.7124
 30
0.0
 40
0
 41
0
  0
VERTEX
  8
0
 10
16.8846
 20
57.7892
 30
0.0
 40
0
 41
0
  0
VERTEX
  8
0
 10
16.9907
 20
57.8685
 30
0.0
 40
0
 41
0
  0
VERTEX
  8
0
 10
17.0954
 20
57.9503
 30
0.0
 40
0
 41
0
  0
VERTEX
  8
0
 10
17.1986
 20
58.0343
 30
0.0
 40
0
 41
0
  0
VERTEX
  8
0
 10
17.3001
 20
58.1207
 30
0.0
 40
0
 41
0
  0
VERTEX
  8
0
 10
17.4001
 20
58.2094
 30
0.0
 40
0
 41
0
  0
VERTEX
  8
0
 10
17.4983
 20
58.3006
 30
0.0
 40
0
 41
0
  0
VERTEX
  8
0
 10
17.5949
 20
58.3938
 30
0.0
 40
0
 41
0
  0
VERTEX
  8
0
 10
17.6894
 20
58.4893
 30
0.0
 40
0
 41
0
  0
VERTEX
  8
0
 10
17.7824
 20
58.5869
 30
0.0
 40
0
 41
0
  0
VERTEX
  8
0
 10
17.8732
 20
58.6867
 30
0.0
 40
0
 41
0
  0
VERTEX
  8
0
 10
17.9621
 20
58.7886
 30
0.0
 40
0
 41
0
  0
VERTEX
  8
0
 10
18.049
 20
58.8926
 30
0.0
 40
0
 41
0
  0
VERTEX
  8
0
 10
18.134
 20
58.9986
 30
0.0
 40
0
 41
0
  0
VERTEX
  8
0
 10
18.2168
 20
59.1065
 30
0.0
 40
0
 41
0
  0
VERTEX
  8
0
 10
18.2974
 20
59.2165
 30
0.0
 40
0
 41
0
  0
VERTEX
  8
0
 10
18.3758
 20
59.3283
 30
0.0
 40
0
 41
0
  0
VERTEX
  8
0
 10
18.4521
 20
59.4421
 30
0.0
 40
0
 41
0
  0
VERTEX
  8
0
 10
18.5261
 20
59.5576
 30
0.0
 40
0
 41
0
  0
VERTEX
  8
0
 10
18.5976
 20
59.6749
 30
0.0
 40
0
 41
0
  0
VERTEX
  8
0
 10
18.6669
 20
59.7939
 30
0.0
 40
0
 41
0
  0
VERTEX
  8
0
 10
18.7339
 20
59.9146
 30
0.0
 40
0
 41
0
  0
VERTEX
  8
0
 10
18.7982
 20
60.0369
 30
0.0
 40
0
 41
0
  0
VERTEX
  8
0
 10
18.8601
 20
60.1608
 30
0.0
 40
0
 41
0
  0
VERTEX
  8
0
 10
18.9196
 20
60.2862
 30
0.0
 40
0
 41
0
  0
VERTEX
  8
0
 10
18.9765
 20
60.4132
 30
0.0
 40
0
 41
0
  0
VERTEX
  8
0
 10
19.0307
 20
60.5415
 30
0.0
 40
0
 41
0
  0
VERTEX
  8
0
 10
19.0824
 20
60.6711
 30
0.0
 40
0
 41
0
  0
VERTEX
  8
0
 10
19.1314
 20
60.8022
 30
0.0
 40
0
 41
0
  0
VERTEX
  8
0
 10
19.1776
 20
60.9344
 30
0.0
 40
0
 41
0
  0
VERTEX
  8
0
 10
19.2213
 20
61.0679
 30
0.0
 40
0
 41
0
  0
VERTEX
  8
0
 10
19.2621
 20
61.2026
 30
0.0
 40
0
 41
0
  0
VERTEX
  8
0
 10
19.3
 20
61.3383
 30
0.0
 40
0
 41
0
  0
VERTEX
  8
0
 10
19.3353
 20
61.4751
 30
0.0
 40
0
 41
0
  0
VERTEX
  8
0
 10
19.3676
 20
61.6128
 30
0.0
 40
0
 41
0
  0
VERTEX
  8
0
 10
19.3971
 20
61.7515
 30
0.0
 40
0
 41
0
  0
VERTEX
  8
0
 10
19.4238
 20
61.891
 30
0.0
 40
0
 41
0
  0
VERTEX
  8
0
 10
19.4475
 20
62.0314
 30
0.0
 40
0
 41
0
  0
VERTEX
  8
0
 10
19.4682
 20
62.1724
 30
0.0
 40
0
 41
0
  0
VERTEX
  8
0
 10
19.4861
 20
62.3142
 30
0.0
 40
0
 41
0
  0
VERTEX
  8
0
 10
19.501
 20
62.4565
 30
0.0
 40
0
 41
0
  0
VERTEX
  8
0
 10
19.5128
 20
62.5994
 30
0.0
 40
0
 41
0
  0
VERTEX
  8
0
 10
19.5217
 20
62.7428
 30
0.0
 40
0
 41
0
  0
VERTEX
  8
0
 10
19.5275
 20
62.8867
 30
0.0
 40
0
 41
0
  0
VERTEX
  8
0
 10
19.5303
 20
63.0308
 30
0.0
 40
0
 41
0
  0
VERTEX
  8
0
 10
19.53
 20
63.1753
 30
0.0
 40
0
 41
0
  0
VERTEX
  8
0
 10
19.5267
 20
63.32
 30
0.0
 40
0
 41
0
  0
VERTEX
  8
0
 10
19.5203
 20
63.4649
 30
0.0
 40
0
 41
0
  0
VERTEX
  8
0
 10
19.5107
 20
63.6099
 30
0.0
 40
0
 41
0
  0
VERTEX
  8
0
 10
19.4982
 20
63.7549
 30
0.0
 40
0
 41
0
  0
VERTEX
  8
0
 10
19.4825
 20
63.8999
 30
0.0
 40
0
 41
0
  0
VERTEX
  8
0
 10
19.4638
 20
64.0449
 30
0.0
 40
0
 41
0
  0
VERTEX
  8
0
 10
19.4419
 20
64.1896
 30
0.0
 40
0
 41
0
  0
VERTEX
  8
0
 10
19.4169
 20
64.334
 30
0.0
 40
0
 41
0
  0
VERTEX
  8
0
 10
19.3889
 20
64.4783
 30
0.0
 40
0
 41
0
  0
VERTEX
  8
0
 10
19.3578
 20
64.6222
 30
0.0
 40
0
 41
0
  0
VERTEX
  8
0
 10
19.3235
 20
64.7656
 30
0.0
 40
0
 41
0
  0
VERTEX
  8
0
 10
19.2861
 20
64.9085
 30
0.0
 40
0
 41
0
  0
VERTEX
  8
0
 10
19.2457
 20
65.051
 30
0.0
 40
0
 41
0
  0
VERTEX
  8
0
 10
19.2022
 20
65.1926
 30
0.0
 40
0
 41
0
  0
VERTEX
  8
0
 10
19.1556
 20
65.3337
 30
0.0
 40
0
 41
0
  0
VERTEX
  8
0
 10
19.106
 20
65.474
 30
0.0
 40
0
 41
0
  0
VERTEX
  8
0
 10
19.0533
 20
65.6135
 30
0.0
 40
0
 41
0
  0
VERTEX
  8
0
 10
18.9975
 20
65.7521
 30
0.0
 40
0
 41
0
  0
VERTEX
  8
0
 10
18.9387
 20
65.8897
 30
0.0
 40
0
 41
0
  0
VERTEX
  8
0
 10
18.8769
 20
66.0263
 30
0.0
 40
0
 41
0
  0
VERTEX
  8
0
 10
18.8122
 20
66.1618
 30
0.0
 40
0
 41
0
  0
VERTEX
  8
0
 10
18.7446
 20
66.2961
 30
0.0
 40
0
 41
0
  0
VERTEX
  8
0
 10
18.6739
 20
66.4292
 30
0.0
 40
0
 41
0
  0
VERTEX
  8
0
 10
18.6003
 20
66.5611
 30
0.0
 40
0
 41
0
  0
VERTEX
  8
0
 10
18.5237
 20
66.6915
 30
0.0
 40
0
 41
0
  0
VERTEX
  8
0
 10
18.4443
 20
66.8206
 30
0.0
 40
0
 41
0
  0
VERTEX
  8
0
 10
18.3621
 20
66.9482
 30
0.0
 40
0
 41
0
  0
VERTEX
  8
0
 10
18.2769
 20
67.0743
 30
0.0
 40
0
 41
0
  0
VERTEX
  8
0
 10
18.1892
 20
67.1988
 30
0.0
 40
0
 41
0
  0
VERTEX
  8
0
 10
18.0985
 20
67.3215
 30
0.0
 40
0
 41
0
  0
VERTEX
  8
0
 10
18.005
 20
67.4425
 30
0.0
 40
0
 41
0
  0
VERTEX
  8
0
 10
17.9089
 20
67.5618
 30
0.0
 40
0
 41
0
  0
VERTEX
  8
0
 10
17.8101
 20
67.6792
 30
0.0
 40
0
 41
0
  0
VERTEX
  8
0
 10
17.7088
 20
67.7947
 30
0.0
 40
0
 41
0
  0
VERTEX
  8
0
 10
17.6047
 20
67.9082
 30
0.0
 40
0
 41
0
  0
VERTEX
  8
0
 10
17.4982
 20
68.0197
 30
0.0
 40
0
 41
0
  0
VERTEX
  8
0
 10
17.389
 20
68.1292
 30
0.0
 40
0
 41
0
  0
VERTEX
  8
0
 10
17.2775
 20
68.2365
 30
0.0
 40
0
 41
0
  0
VERTEX
  8
0
 10
17.1635
 20
68.3415
 30
0.0
 40
0
 41
0
  0
VERTEX
  8
0
 10
17.0471
 20
68.4444
 30
0.0
 40
0
 41
0
  0
VERTEX
  8
0
 10
16.9283
 20
68.5449
 30
0.0
 40
0
 41
0
  0
VERTEX
  8
0
 10
16.8072
 20
68.6431
 30
0.0
 40
0
 41
0
  0
VERTEX
  8
0
 10
16.6839
 20
68.7389
 30
0.0
 40
0
 41
0
  0
VERTEX
  8
0
 10
16.5583
 20
68.8321
 30
0.0
 40
0
 41
0
  0
VERTEX
  8
0
 10
16.4306
 20
68.9229
 30
0.0
 40
0
 41
0
  0
VERTEX
  8
0
 10
16.3007
 20
69.0111
 30
0.0
 40
0
 41
0
  0
VERTEX
  8
0
 10
16.1689
 20
69.0967
 30
0.0
 40
0
 41
0
  0
VERTEX
  8
0
 10
16.035
 20
69.1796
 30
0.0
 40
0
 41
0
  0
VERTEX
  8
0
 10
15.899
 20
69.2599
 30
0.0
 40
0
 41
0
  0
VERTEX
  8
0
 10
15.7614
 20
69.3374
 30
0.0
 40
0
 41
0
  0
VERTEX
  8
0
 10
15.6217
 20
69.4119
 30
0.0
 40
0
 41
0
  0
VERTEX
  8
0
 10
15.4803
 20
69.4838
 30
0.0
 40
0
 41
0
  0
VERTEX
  8
0
 10
15.3372
 20
69.5528
 30
0.0
 40
0
 41
0
  0
VERTEX
  8
0
 10
15.1924
 20
69.6187
 30
0.0
 40
0
 41
0
  0
VERTEX
  8
0
 10
15.046
 20
69.6818
 30
0.0
 40
0
 41
0
  0
VERTEX
  8
0
 10
14.8981
 20
69.7419
 30
0.0
 40
0
 41
0
  0
VERTEX
  8
0
 10
14.7486
 20
69.7989
 30
0.0
 40
0
 41
0
  0
VERTEX
  8
0
 10
14.5978
 20
69.8528
 30
0.0
 40
0
 41
0
  0
VERTEX
  8
0
 10
14.4456
 20
69.9036
 30
0.0
 40
0
 41
0
  0
VERTEX
  8
0
 10
14.2919
 20
69.9513
 30
0.0
 40
0
 41
0
  0
VERTEX
  8
0
 10
14.1372
 20
69.9958
 30
0.0
 40
0
 41
0
  0
VERTEX
  8
0
 10
13.9813
 20
70.0371
 30
0.0
 40
0
 41
0
  0
VERTEX
  8
0
 10
13.8243
 20
70.0751
 30
0.0
 40
0
 41
0
  0
VERTEX
  8
0
 10
13.6662
 20
70.11
 30
0.0
 40
0
 41
0
  0
VERTEX
  8
0
 10
13.5072
 20
70.1414
 30
0.0
 40
0
 41
0
  0
VERTEX
  8
0
 10
13.3472
 20
70.1696
 30
0.0
 40
0
 41
0
  0
VERTEX
  8
0
 10
13.1865
 20
70.1944
 30
0.0
 40
0
 41
0
  0
VERTEX
  8
0
 10
13.025
 20
70.216
 30
0.0
 40
0
 41
0
  0
VERTEX
  8
0
 10
12.8628
 20
70.234
 30
0.0
 40
0
 41
0
  0
VERTEX
  8
0
 10
12.7
 20
70.2488
 30
0.0
 40
0
 41
0
  0
VERTEX
  8
0
 10
12.7278
 20
70.5976
 30
0.0
 40
0
 41
0
  0
VERTEX
  8
0
 10
12.8979
 20
70.5822
 30
0.0
 40
0
 41
0
  0
VERTEX
  8
0
 10
13.0675
 20
70.5633
 30
0.0
 40
0
 41
0
  0
VERTEX
  8
0
 10
13.2363
 20
70.541
 30
0.0
 40
0
 41
0
  0
VERTEX
  8
0
 10
13.4043
 20
70.515
 30
0.0
 40
0
 41
0
  0
VERTEX
  8
0
 10
13.5715
 20
70.4854
 30
0.0
 40
0
 41
0
  0
VERTEX
  8
0
 10
13.7378
 20
70.4525
 30
0.0
 40
0
 41
0
  0
VERTEX
  8
0
 10
13.9031
 20
70.4161
 30
0.0
 40
0
 41
0
  0
VERTEX
  8
0
 10
14.0674
 20
70.3764
 30
0.0
 40
0
 41
0
  0
VERTEX
  8
0
 10
14.2304
 20
70.3332
 30
0.0
 40
0
 41
0
  0
VERTEX
  8
0
 10
14.3922
 20
70.2867
 30
0.0
 40
0
 41
0
  0
VERTEX
  8
0
 10
14.5529
 20
70.2368
 30
0.0
 40
0
 41
0
  0
VERTEX
  8
0
 10
14.7121
 20
70.1836
 30
0.0
 40
0
 41
0
  0
VERTEX
  8
0
 10
14.8699
 20
70.1272
 30
0.0
 40
0
 41
0
  0
VERTEX
  8
0
 10
15.0263
 20
70.0675
 30
0.0
 40
0
 41
0
  0
VERTEX
  8
0
 10
15.1811
 20
70.0047
 30
0.0
 40
0
 41
0
  0
VERTEX
  8
0
 10
15.3343
 20
69.9387
 30
0.0
 40
0
 41
0
  0
VERTEX
  8
0
 10
15.4858
 20
69.8697
 30
0.0
 40
0
 41
0
  0
VERTEX
  8
0
 10
15.6356
 20
69.7975
 30
0.0
 40
0
 41
0
  0
VERTEX
  8
0
 10
15.7835
 20
69.7224
 30
0.0
 40
0
 41
0
  0
VERTEX
  8
0
 10
15.9297
 20
69.6442
 30
0.0
 40
0
 41
0
  0
VERTEX
  8
0
 10
16.0739
 20
69.5631
 30
0.0
 40
0
 41
0
  0
VERTEX
  8
0
 10
16.2161
 20
69.4792
 30
0.0
 40
0
 41
0
  0
VERTEX
  8
0
 10
16.3563
 20
69.3922
 30
0.0
 40
0
 41
0
  0
VERTEX
  8
0
 10
16.4943
 20
69.3026
 30
0.0
 40
0
 41
0
  0
VERTEX
  8
0
 10
16.6303
 20
69.2103
 30
0.0
 40
0
 41
0
  0
VERTEX
  8
0
 10
16.764
 20
69.1153
 30
0.0
 40
0
 41
0
  0
VERTEX
  8
0
 10
16.8956
 20
69.0175
 30
0.0
 40
0
 41
0
  0
VERTEX
  8
0
 10
17.0247
 20
68.9172
 30
0.0
 40
0
 41
0
  0
VERTEX
  8
0
 10
17.1515
 20
68.8144
 30
0.0
 40
0
 41
0
  0
VERTEX
  8
0
 10
17.276
 20
68.7092
 30
0.0
 40
0
 41
0
  0
VERTEX
  8
0
 10
17.3979
 20
68.6014
 30
0.0
 40
0
 41
0
  0
VERTEX
  8
0
 10
17.5174
 20
68.4913
 30
0.0
 40
0
 41
0
  0
VERTEX
  8
0
 10
17.6343
 20
68.3789
 30
0.0
 40
0
 41
0
  0
VERTEX
  8
0
 10
17.7486
 20
68.2643
 30
0.0
 40
0
 41
0
  0
VERTEX
  8
0
 10
17.8603
 20
68.1474
 30
0.0
 40
0
 41
0
  0
VERTEX
  8
0
 10
17.9693
 20
68.0285
 30
0.0
 40
0
 41
0
  0
VERTEX
  8
0
 10
18.0756
 20
67.9074
 30
0.0
 40
0
 41
0
  0
VERTEX
  8
0
 10
18.1792
 20
67.7843
 30
0.0
 40
0
 41
0
  0
VERTEX
  8
0
 10
18.2799
 20
67.6593
 30
0.0
 40
0
 41
0
  0
VERTEX
  8
0
 10
18.3778
 20
67.5324
 30
0.0
 40
0
 41
0
  0
VERTEX
  8
0
 10
18.4728
 20
67.4036
 30
0.0
 40
0
 41
0
  0
VERTEX
  8
0
 10
18.565
 20
67.2732
 30
0.0
 40
0
 41
0
  0
VERTEX
  8
0
 10
18.6542
 20
67.141
 30
0.0
 40
0
 41
0
  0
VERTEX
  8
0
 10
18.7404
 20
67.0071
 30
0.0
 40
0
 41
0
  0
VERTEX
  8
0
 10
18.8238
 20
66.8718
 30
0.0
 40
0
 41
0
  0
VERTEX
  8
0
 10
18.904
 20
66.7349
 30
0.0
 40
0
 41
0
  0
VERTEX
  8
0
 10
18.9813
 20
66.5967
 30
0.0
 40
0
 41
0
  0
VERTEX
  8
0
 10
19.0554
 20
66.4569
 30
0.0
 40
0
 41
0
  0
VERTEX
  8
0
 10
19.1264
 20
66.316
 30
0.0
 40
0
 41
0
  0
VERTEX
  8
0
 10
19.1943
 20
66.1739
 30
0.0
 40
0
 41
0
  0
VERTEX
  8
0
 10
19.2592
 20
66.0306
 30
0.0
 40
0
 41
0
  0
VERTEX
  8
0
 10
19.3208
 20
65.8861
 30
0.0
 40
0
 41
0
  0
VERTEX
  8
0
 10
19.3793
 20
65.7407
 30
0.0
 40
0
 41
0
  0
VERTEX
  8
0
 10
19.4347
 20
65.5943
 30
0.0
 40
0
 41
0
  0
VERTEX
  8
0
 10
19.4868
 20
65.4469
 30
0.0
 40
0
 41
0
  0
VERTEX
  8
0
 10
19.5357
 20
65.2989
 30
0.0
 40
0
 41
0
  0
VERTEX
  8
0
 10
19.5814
 20
65.1501
 30
0.0
 40
0
 41
0
  0
VERTEX
  8
0
 10
19.6239
 20
65.0006
 30
0.0
 40
0
 41
0
  0
VERTEX
  8
0
 10
19.6631
 20
64.8504
 30
0.0
 40
0
 41
0
  0
VERTEX
  8
0
 10
19.699
 20
64.6999
 30
0.0
 40
0
 41
0
  0
VERTEX
  8
0
 10
19.7318
 20
64.5487
 30
0.0
 40
0
 41
0
  0
VERTEX
  8
0
 10
19.7613
 20
64.3972
 30
0.0
 40
0
 41
0
  0
VERTEX
  8
0
 10
19.7874
 20
64.2454
 30
0.0
 40
0
 41
0
  0
VERTEX
  8
0
 10
19.8104
 20
64.0935
 30
0.0
 40
0
 41
0
  0
VERTEX
  8
0
 10
19.8301
 20
63.9411
 30
0.0
 40
0
 41
0
  0
VERTEX
  8
0
 10
19.8465
 20
63.7889
 30
0.0
 40
0
 41
0
  0
VERTEX
  8
0
 10
19.8597
 20
63.6364
 30
0.0
 40
0
 41
0
  0
VERTEX
  8
0
 10
19.8697
 20
63.484
 30
0.0
 40
0
 41
0
  0
VERTEX
  8
0
 10
19.8764
 20
63.3318
 30
0.0
 40
0
 41
0
  0
VERTEX
  8
0
 10
19.8799
 20
63.1797
 30
0.0
 40
0
 41
0
  0
VERTEX
  8
0
 10
19.8801
 20
63.0278
 30
0.0
 40
0
 41
0
  0
VERTEX
  8
0
 10
19.8772
 20
62.8762
 30
0.0
 40
0
 41
0
  0
VERTEX
  8
0
 10
19.8711
 20
62.725
 30
0.0
 40
0
 41
0
  0
VERTEX
  8
0
 10
19.8618
 20
62.5742
 30
0.0
 40
0
 41
0
  0
VERTEX
  8
0
 10
19.8494
 20
62.4239
 30
0.0
 40
0
 41
0
  0
VERTEX
  8
0
 10
19.8338
 20
62.2742
 30
0.0
 40
0
 41
0
  0
VERTEX
  8
0
 10
19.815
 20
62.1251
 30
0.0
 40
0
 41
0
  0
VERTEX
  8
0
 10
19.7932
 20
61.9767
 30
0.0
 40
0
 41
0
  0
VERTEX
  8
0
 10
19.7682
 20
61.829
 30
0.0
 40
0
 41
0
  0
VERTEX
  8
0
 10
19.7403
 20
61.6822
 30
0.0
 40
0
 41
0
  0
VERTEX
  8
0
 10
19.7092
 20
61.5364
 30
0.0
 40
0
 41
0
  0
VERTEX
  8
0
 10
19.6751
 20
61.3914
 30
0.0
 40
0
 41
0
  0
VERTEX
  8
0
 10
19.6381
 20
61.2475
 30
0.0
 40
0
 41
0
  0
VERTEX
  8
0
 10
19.5981
 20
61.1046
 30
0.0
 40
0
 41
0
  0
VERTEX
  8
0
 10
19.5551
 20
60.9629
 30
0.0
 40
0
 41
0
  0
VERTEX
  8
0
 10
19.5092
 20
60.8224
 30
0.0
 40
0
 41
0
  0
VERTEX
  8
0
 10
19.4604
 20
60.6831
 30
0.0
 40
0
 41
0
  0
VERTEX
  8
0
 10
19.4089
 20
60.5451
 30
0.0
 40
0
 41
0
  0
VERTEX
  8
0
 10
19.3546
 20
60.4086
 30
0.0
 40
0
 41
0
  0
VERTEX
  8
0
 10
19.2974
 20
60.2735
 30
0.0
 40
0
 41
0
  0
VERTEX
  8
0
 10
19.2375
 20
60.1397
 30
0.0
 40
0
 41
0
  0
VERTEX
  8
0
 10
19.1749
 20
60.0076
 30
0.0
 40
0
 41
0
  0
VERTEX
  8
0
 10
19.1096
 20
59.8771
 30
0.0
 40
0
 41
0
  0
VERTEX
  8
0
 10
19.0418
 20
59.7482
 30
0.0
 40
0
 41
0
  0
VERTEX
  8
0
 10
18.9713
 20
59.6211
 30
0.0
 40
0
 41
0
  0
VERTEX
  8
0
 10
18.8983
 20
59.4957
 30
0.0
 40
0
 41
0
  0
VERTEX
  8
0
 10
18.8228
 20
59.3721
 30
0.0
 40
0
 41
0
  0
VERTEX
  8
0
 10
18.7449
 20
59.2503
 30
0.0
 40
0
 41
0
  0
VERTEX
  8
0
 10
18.6646
 20
59.1304
 30
0.0
 40
0
 41
0
  0
VERTEX
  8
0
 10
18.5818
 20
59.0125
 30
0.0
 40
0
 41
0
  0
VERTEX
  8
0
 10
18.4968
 20
58.8965
 30
0.0
 40
0
 41
0
  0
VERTEX
  8
0
 10
18.4094
 20
58.7828
 30
0.0
 40
0
 41
0
  0
VERTEX
  8
0
 10
18.32
 20
58.671
 30
0.0
 40
0
 41
0
  0
VERTEX
  8
0
 10
18.2282
 20
58.5613
 30
0.0
 40
0
 41
0
  0
VERTEX
  8
0
 10
18.1344
 20
58.4537
 30
0.0
 40
0
 41
0
  0
VERTEX
  8
0
 10
18.0385
 20
58.3485
 30
0.0
 40
0
 41
0
  0
VERTEX
  8
0
 10
17.9407
 20
58.2454
 30
0.0
 40
0
 41
0
  0
VERTEX
  8
0
 10
17.8407
 20
58.1447
 30
0.0
 40
0
 41
0
  0
VERTEX
  8
0
 10
17.7389
 20
58.0463
 30
0.0
 40
0
 41
0
  0
VERTEX
  8
0
 10
17.6353
 20
57.9503
 30
0.0
 40
0
 41
0
  0
VERTEX
  8
0
 10
17.5299
 20
57.8565
 30
0.0
 40
0
 41
0
  0
VERTEX
  8
0
 10
17.4226
 20
57.7654
 30
0.0
 40
0
 41
0
  0
VERTEX
  8
0
 10
17.3136
 20
57.6767
 30
0.0
 40
0
 41
0
  0
VERTEX
  8
0
 10
17.2031
 20
57.5903
 30
0.0
 40
0
 41
0
  0
VERTEX
  8
0
 10
17.091
 20
57.5065
 30
0.0
 40
0
 41
0
  0
VERTEX
  8
0
 10
16.9772
 20
57.4254
 30
0.0
 40
0
 41
0
  0
VERTEX
  8
0
 10
16.8621
 20
57.3468
 30
0.0
 40
0
 41
0
  0
VERTEX
  8
0
 10
16.7456
 20
57.2707
 30
0.0
 40
0
 41
0
  0
VERTEX
  8
0
 10
16.6276
 20
57.1974
 30
0.0
 40
0
 41
0
  0
VERTEX
  8
0
 10
16.5085
 20
57.1267
 30
0.0
 40
0
 41
0
  0
VERTEX
  8
0
 10
16.3881
 20
57.0586
 30
0.0
 40
0
 41
0
  0
VERTEX
  8
0
 10
16.2664
 20
56.9932
 30
0.0
 40
0
 41
0
  0
VERTEX
  8
0
 10
16.1436
 20
56.9306
 30
0.0
 40
0
 41
0
  0
VERTEX
  8
0
 10
16.0199
 20
56.8706
 30
0.0
 40
0
 41
0
  0
VERTEX
  8
0
 10
15.8951
 20
56.8135
 30
0.0
 40
0
 41
0
  0
VERTEX
  8
0
 10
15.7693
 20
56.759
 30
0.0
 40
0
 41
0
  0
VERTEX
  8
0
 10
15.6428
 20
56.7074
 30
0.0
 40
0
 41
0
  0
VERTEX
  8
0
 10
15.5153
 20
56.6586
 30
0.0
 40
0
 41
0
  0
VERTEX
  8
0
 10
15.3872
 20
56.6125
 30
0.0
 40
0
 41
0
  0
VERTEX
  8
0
 10
15.2583
 20
56.5693
 30
0.0
 40
0
 41
0
  0
VERTEX
  8
0
 10
15.1289
 20
56.5289
 30
0.0
 40
0
 41
0
  0
VERTEX
  8
0
 10
14.9988
 20
56.4914
 30
0.0
 40
0
 41
0
  0
VERTEX
  8
0
 10
14.8682
 20
56.4567
 30
0.0
 40
0
 41
0
  0
VERTEX
  8
0
 10
14.7372
 20
56.4247
 30
0.0
 40
0
 41
0
  0
VERTEX
  8
0
 10
14.6058
 20
56.3957
 30
0.0
 40
0
 41
0
  0
VERTEX
  8
0
 10
14.4742
 20
56.3694
 30
0.0
 40
0
 41
0
  0
VERTEX
  8
0
 10
14.3422
 20
56.3461
 30
0.0
 40
0
 41
0
  0
VERTEX
  8
0
 10
14.21
 20
56.3256
 30
0.0
 40
0
 41
0
  0
VERTEX
  8
0
 10
14.0778
 20
56.3079
 30
0.0
 40
0
 41
0
  0
VERTEX
  8
0
 10
13.9454
 20
56.2931
 30
0.0
 40
0
 41
0
  0
VERTEX
  8
0
 10
13.8129
 20
56.281
 30
0.0
 40
0
 41
0
  0
VERTEX
  8
0
 10
13.6807
 20
56.2718
 30
0.0
 40
0
 41
0
  0
VERTEX
  8
0
 10
13.5483
 20
56.2654
 30
0.0
 40
0
 41
0
  0
VERTEX
  8
0
 10
13.4162
 20
56.2619
 30
0.0
 40
0
 41
0
  0
VERTEX
  8
0
 10
13.2844
 20
56.2611
 30
0.0
 40
0
 41
0
  0
VERTEX
  8
0
 10
13.1529
 20
56.2632
 30
0.0
 40
0
 41
0
  0
VERTEX
  8
0
 10
13.0217
 20
56.2681
 30
0.0
 40
0
 41
0
  0
VERTEX
  8
0
 10
12.8908
 20
56.2757
 30
0.0
 40
0
 41
0
  0
VERTEX
  8
0
 10
12.7606
 20
56.286
 30
0.0
 40
0
 41
0
  0
VERTEX
  8
0
 10
12.6307
 20
56.299
 30
0.0
 40
0
 41
0
  0
VERTEX
  8
0
 10
12.5014
 20
56.3149
 30
0.0
 40
0
 41
0
  0
VERTEX
  8
0
 10
12.3728
 20
56.3333
 30
0.0
 40
0
 41
0
  0
VERTEX
  8
0
 10
12.2448
 20
56.3546
 30
0.0
 40
0
 41
0
  0
VERTEX
  8
0
 10
12.1176
 20
56.3783
 30
0.0
 40
0
 41
0
  0
VERTEX
  8
0
 10
11.9913
 20
56.4049
 30
0.0
 40
0
 41
0
  0
VERTEX
  8
0
 10
11.8657
 20
56.4339
 30
0.0
 40
0
 41
0
  0
VERTEX
  8
0
 10
11.741
 20
56.4657
 30
0.0
 40
0
 41
0
  0
VERTEX
  8
0
 10
11.6173
 20
56.4999
 30
0.0
 40
0
 41
0
  0
VERTEX
  8
0
 10
11.4946
 20
56.5367
 30
0.0
 40
0
 41
0
  0
VERTEX
  8
0
 10
11.373
 20
56.576
 30
0.0
 40
0
 41
0
  0
VERTEX
  8
0
 10
11.2525
 20
56.6178
 30
0.0
 40
0
 41
0
  0
VERTEX
  8
0
 10
11.1332
 20
56.6619
 30
0.0
 40
0
 41
0
  0
VERTEX
  8
0
 10
11.0151
 20
56.7086
 30
0.0
 40
0
 41
0
  0
VERTEX
  8
0
 10
10.8983
 20
56.7576
 30
0.0
 40
0
 41
0
  0
VERTEX
  8
0
 10
10.7828
 20
56.809
 30
0.0
 40
0
 41
0
  0
VERTEX
  8
0
 10
10.6686
 20
56.8628
 30
0.0
 40
0
 41
0
  0
VERTEX
  8
0
 10
10.5558
 20
56.9189
 30
0.0
 40
0
 41
0
  0
VERTEX
  8
0
 10
10.4446
 20
56.9771
 30
0.0
 40
0
 41
0
  0
VERTEX
  8
0
 10
10.3347
 20
57.0376
 30
0.0
 40
0
 41
0
  0
VERTEX
  8
0
 10
10.2265
 20
57.1003
 30
0.0
 40
0
 41
0
  0
VERTEX
  8
0
 10
10.1198
 20
57.1651
 30
0.0
 40
0
 41
0
  0
VERTEX
  8
0
 10
10.0149
 20
57.2321
 30
0.0
 40
0
 41
0
  0
VERTEX
  8
0
 10
9.9114
 20
57.3011
 30
0.0
 40
0
 41
0
  0
VERTEX
  8
0
 10
9.80974
 20
57.3721
 30
0.0
 40
0
 41
0
  0
VERTEX
  8
0
 10
9.70985
 20
57.4451
 30
0.0
 40
0
 41
0
  0
VERTEX
  8
0
 10
9.61182
 20
57.52
 30
0.0
 40
0
 41
0
  0
VERTEX
  8
0
 10
9.5154
 20
57.5969
 30
0.0
 40
0
 41
0
  0
VERTEX
  8
0
 10
9.42096
 20
57.6756
 30
0.0
 40
0
 41
0
  0
VERTEX
  8
0
 10
9.32844
 20
57.7561
 30
0.0
 40
0
 41
0
  0
VERTEX
  8
0
 10
9.2379
 20
57.8383
 30
0.0
 40
0
 41
0
  0
VERTEX
  8
0
 10
9.14914
 20
57.9224
 30
0.0
 40
0
 41
0
  0
VERTEX
  8
0
 10
9.06267
 20
58.0081
 30
0.0
 40
0
 41
0
  0
VERTEX
  8
0
 10
8.97792
 20
58.0954
 30
0.0
 40
0
 41
0
  0
VERTEX
  8
0
 10
8.8954
 20
58.1843
 30
0.0
 40
0
 41
0
  0
VERTEX
  8
0
 10
8.81489
 20
58.2747
 30
0.0
 40
0
 41
0
  0
VERTEX
  8
0
 10
8.73654
 20
58.3665
 30
0.0
 40
0
 41
0
  0
VERTEX
  8
0
 10
8.66026
 20
58.4599
 30
0.0
 40
0
 41
0
  0
VERTEX
  8
0
 10
8.58626
 20
58.5546
 30
0.0
 40
0
 41
0
  0
VERTEX
  8
0
 10
8.51443
 20
58.6507
 30
0.0
 40
0
 41
0
  0
VERTEX
  8
0
 10
8.44488
 20
58.7481
 30
0.0
 40
0
 41
0
  0
VERTEX
  8
0
 10
8.37739
 20
58.8467
 30
0.0
 40
0
 41
0
  0
VERTEX
  8
0
 10
8.31222
 20
58.9464
 30
0.0
 40
0
 41
0
  0
VERTEX
  8
0
 10
8.24929
 20
59.0472
 30
0.0
 40
0
 41
0
  0
VERTEX
  8
0
 10
8.18875
 20
59.1493
 30
0.0
 40
0
 41
0
  0
VERTEX
  8
0
 10
8.13053
 20
59.2522
 30
0.0
 40
0
 41
0
  0
VERTEX
  8
0
 10
8.0746
 20
59.3562
 30
0.0
 40
0
 41
0
  0
VERTEX
  8
0
 10
8.02111
 20
59.4611
 30
0.0
 40
0
 41
0
  0
VERTEX
  8
0
 10
7.96983
 20
59.5669
 30
0.0
 40
0
 41
0
  0
VERTEX
  8
0
 10
7.92096
 20
59.6736
 30
0.0
 40
0
 41
0
  0
VERTEX
  8
0
 10
7.87457
 20
59.781
 30
0.0
 40
0
 41
0
  0
VERTEX
  8
0
 10
7.8304
 20
59.889
 30
0.0
 40
0
 41
0
  0
VERTEX
  8
0
 10
7.78874
 20
59.9978
 30
0.0
 40
0
 41
0
  0
VERTEX
  8
0
 10
7.74957
 20
60.1071
 30
0.0
 40
0
 41
0
  0
VERTEX
  8
0
 10
7.71278
 20
60.2171
 30
0.0
 40
0
 41
0
  0
VERTEX
  8
0
 10
7.67833
 20
60.3275
 30
0.0
 40
0
 41
0
  0
VERTEX
  8
0
 10
7.64638
 20
60.4383
 30
0.0
 40
0
 41
0
  0
VERTEX
  8
0
 10
7.61697
 20
60.5496
 30
0.0
 40
0
 41
0
  0
VERTEX
  8
0
 10
7.58985
 20
60.6611
 30
0.0
 40
0
 41
0
  0
VERTEX
  8
0
 10
7.56515
 20
60.7731
 30
0.0
 40
0
 41
0
  0
VERTEX
  8
0
 10
7.54292
 20
60.8851
 30
0.0
 40
0
 41
0
  0
VERTEX
  8
0
 10
7.52322
 20
60.9975
 30
0.0
 40
0
 41
0
  0
VERTEX
  8
0
 10
7.50586
 20
61.1099
 30
0.0
 40
0
 41
0
  0
VERTEX
  8
0
 10
7.491
 20
61.2224
 30
0.0
 40
0
 41
0
  0
VERTEX
  8
0
 10
7.47846
 20
61.3349
 30
0.0
 40
0
 41
0
  0
VERTEX
  8
0
 10
7.46847
 20
61.4474
 30
0.0
 40
0
 41
0
  0
VERTEX
  8
0
 10
7.46083
 20
61.5599
 30
0.0
 40
0
 41
0
  0
VERTEX
  8
0
 10
7.45557
 20
61.6721
 30
0.0
 40
0
 41
0
  0
VERTEX
  8
0
 10
7.45281
 20
61.7842
 30
0.0
 40
0
 41
0
  0
VERTEX
  8
0
 10
7.45236
 20
61.8961
 30
0.0
 40
0
 41
0
  0
VERTEX
  8
0
 10
7.45432
 20
62.0076
 30
0.0
 40
0
 41
0
  0
VERTEX
  8
0
 10
7.45861
 20
62.1189
 30
0.0
 40
0
 41
0
  0
VERTEX
  8
0
 10
7.46528
 20
62.2297
 30
0.0
 40
0
 41
0
  0
VERTEX
  8
0
 10
7.47428
 20
62.3401
 30
0.0
 40
0
 41
0
  0
VERTEX
  8
0
 10
7.48557
 20
62.4501
 30
0.0
 40
0
 41
0
  0
VERTEX
  8
0
 10
7.49918
 20
62.5596
 30
0.0
 40
0
 41
0
  0
VERTEX
  8
0
 10
7.51514
 20
62.6683
 30
0.0
 40
0
 41
0
  0
VERTEX
  8
0
 10
7.53331
 20
62.7765
 30
0.0
 40
0
 41
0
  0
VERTEX
  8
0
 10
7.55376
 20
62.884
 30
0.0
 40
0
 41
0
  0
VERTEX
  8
0
 10
7.57639
 20
62.9908
 30
0.0
 40
0
 41
0
  0
VERTEX
  8
0
 10
7.6014
 20
63.0968
 30
0.0
 40
0
 41
0
  0
VERTEX
  8
0
 10
7.62847
 20
63.2021
 30
0.0
 40
0
 41
0
  0
VERTEX
  8
0
 10
7.65767
 20
63.3064
 30
0.0
 40
0
 41
0
  0
VERTEX
  8
0
 10
7.68901
 20
63.4099
 30
0.0
 40
0
 41
0
  0
VERTEX
  8
0
 10
7.7225
 20
63.5124
 30
0.0
 40
0
 41
0
  0
VERTEX
  8
0
 10
7.75803
 20
63.6139
 30
0.0
 40
0
 41
0
  0
VERTEX
  8
0
 10
7.79568
 20
63.7143
 30
0.0
 40
0
 41
0
  0
VERTEX
  8
0
 10
7.83539
 20
63.8137
 30
0.0
 40
0
 41
0
  0
VERTEX
  8
0
 10
7.87706
 20
63.9119
 30
0.0
 40
0
 41
0
  0
VERTEX
  8
0
 10
7.92085
 20
64.009
 30
0.0
 40
0
 41
0
  0
VERTEX
  8
0
 10
7.96636
 20
64.105
 30
0.0
 40
0
 41
0
  0
VERTEX
  8
0
 10
8.01389
 20
64.1997
 30
0.0
 40
0
 41
0
  0
VERTEX
  8
0
 10
8.06332
 20
64.2931
 30
0.0
 40
0
 41
0
  0
VERTEX
  8
0
 10
8.11458
 20
64.3851
 30
0.0
 40
0
 41
0
  0
VERTEX
  8
0
 10
8.16764
 20
64.476
 30
0.0
 40
0
 41
0
  0
VERTEX
  8
0
 10
8.2225
 20
64.5653
 30
0.0
 40
0
 41
0
  0
VERTEX
  8
0
 10
8.27919
 20
64.6532
 30
0.0
 40
0
 41
0
  0
VERTEX
  8
0
 10
8.33751
 20
64.7397
 30
0.0
 40
0
 41
0
  0
VERTEX
  8
0
 10
8.39751
 20
64.8247
 30
0.0
 40
0
 41
0
  0
VERTEX
  8
0
 10
8.45915
 20
64.9082
 30
0.0
 40
0
 41
0
  0
VERTEX
  8
0
 10
8.52235
 20
64.9901
 30
0.0
 40
0
 41
0
  0
VERTEX
  8
0
 10
8.58724
 20
65.0706
 30
0.0
 40
0
 41
0
  0
VERTEX
  8
0
 10
8.6536
 20
65.1493
 30
0.0
 40
0
 41
0
  0
VERTEX
  8
0
 10
8.7214
 20
65.2264
 30
0.0
 40
0
 41
0
  0
VERTEX
  8
0
 10
8.79069
 20
65.3019
 30
0.0
 40
0
 41
0
  0
VERTEX
  8
0
 10
8.86139
 20
65.3757
 30
0.0
 40
0
 41
0
  0
VERTEX
  8
0
 10
8.93349
 20
65.4476
 30
0.0
 40
0
 41
0
  0
VERTEX
  8
0
 10
9.00694
 20
65.5181
 30
0.0
 40
0
 41
0
  0
VERTEX
  8
0
 10
9.08154
 20
65.5865
 30
0.0
 40
0
 41
0
  0
VERTEX
  8
0
 10
9.1575
 20
65.6532
 30
0.0
 40
0
 41
0
  0
VERTEX
  8
0
 10
9.23469
 20
65.7182
 30
0.0
 40
0
 41
0
  0
VERTEX
  8
0
 10
9.31293
 20
65.7813
 30
0.0
 40
0
 41
0
  0
VERTEX
  8
0
 10
9.39236
 20
65.8425
 30
0.0
 40
0
 41
0
  0
VERTEX
  8
0
 10
9.47293
 20
65.9019
 30
0.0
 40
0
 41
0
  0
VERTEX
  8
0
 10
9.55447
 20
65.9594
 30
0.0
 40
0
 41
0
  0
VERTEX
  8
0
 10
9.63693
 20
66.015
 30
0.0
 40
0
 41
0
  0
VERTEX
  8
0
 10
9.72043
 20
66.0686
 30
0.0
 40
0
 41
0
  0
VERTEX
  8
0
 10
9.80474
 20
66.1203
 30
0.0
 40
0
 41
0
  0
VERTEX
  8
0
 10
9.88997
 20
66.1701
 30
0.0
 40
0
 41
0
  0
VERTEX
  8
0
 10
9.97597
 20
66.2179
 30
0.0
 40
0
 41
0
  0
VERTEX
  8
0
 10
10.0628
 20
66.2638
 30
0.0
 40
0
 41
0
  0
VERTEX
  8
0
 10
10.1503
 20
66.3075
 30
0.0
 40
0
 41
0
  0
VERTEX
  8
0
 10
10.2385
 20
66.3493
 30
0.0
 40
0
 41
0
  0
VERTEX
  8
0
 10
10.3274
 20
66.3892
 30
0.0
 40
0
 41
0
  0
VERTEX
  8
0
 10
10.4167
 20
66.4269
 30
0.0
 40
0
 41
0
  0
VERTEX
  8
0
 10
10.5067
 20
66.4628
 30
0.0
 40
0
 41
0
  0
VERTEX
  8
0
 10
10.5971
 20
66.4965
 30
0.0
 40
0
 41
0
  0
VERTEX
  8
0
 10
10.6879
 20
66.5282
 30
0.0
 40
0
 41
0
  0
VERTEX
  8
0
 10
10.7793
 20
66.5579
 30
0.0
 40
0
 41
0
  0
VERTEX
  8
0
 10
10.871
 20
66.5856
 30
0.0
 40
0
 41
0
  0
VERTEX
  8
0
 10
10.9629
 20
66.6111
 30
0.0
 40
0
 41
0
  0
VERTEX
  8
0
 10
11.0551
 20
66.6347
 30
0.0
 40
0
 41
0
  0
VERTEX
  8
0
 10
11.1475
 20
66.6563
 30
0.0
 40
0
 41
0
  0
VERTEX
  8
0
 10
11.2401
 20
66.6757
 30
0.0
 40
0
 41
0
  0
VERTEX
  8
0
 10
11.3329
 20
66.6931
 30
0.0
 40
0
 41
0
  0
VERTEX
  8
0
 10
11.4258
 20
66.7085
 30
0.0
 40
0
 41
0
  0
VERTEX
  8
0
 10
11.5188
 20
66.7218
 30
0.0
 40
0
 41
0
  0
VERTEX
  8
0
 10
11.6115
 20
66.7332
 30
0.0
 40
0
 41
0
  0
VERTEX
  8
0
 10
11.7044
 20
66.7425
 30
0.0
 40
0
 41
0
  0
VERTEX
  8
0
 10
11.7972
 20
66.7497
 30
0.0
 40
0
 41
0
  0
VERTEX
  8
0
 10
11.8899
 20
66.7551
 30
0.0
 40
0
 41
0
  0
VERTEX
  8
0
 10
11.9822
 20
66.7583
 30
0.0
 40
0
 41
0
  0
VERTEX
  8
0
 10
12.0744
 20
66.7597
 30
0.0
 40
0
 41
0
  0
VERTEX
  8
0
 10
12.1664
 20
66.759
 30
0.0
 40
0
 41
0
  0
VERTEX
  8
0
 10
12.258
 20
66.7564
 30
0.0
 40
0
 41
0
  0
VERTEX
  8
0
 10
12.3494
 20
66.7517
 30
0.0
 40
0
 41
0
  0
VERTEX
  8
0
 10
12.4404
 20
66.7451
 30
0.0
 40
0
 41
0
  0
VERTEX
  8
0
 10
12.5308
 20
66.7367
 30
0.0
 40
0
 41
0
  0
VERTEX
  8
0
 10
12.621
 20
66.7263
 30
0.0
 40
0
 41
0
  0
VERTEX
  8
0
 10
12.7104
 20
66.714
 30
0.0
 40
0
 41
0
  0
VERTEX
  8
0
 10
12.7994
 20
66.6999
 30
0.0
 40
0
 41
0
  0
VERTEX
  8
0
 10
12.8878
 20
66.6839
 30
0.0
 40
0
 41
0
  0
VERTEX
  8
0
 10
12.9755
 20
66.666
 30
0.0
 40
0
 41
0
  0
VERTEX
  8
0
 10
13.0627
 20
66.6462
 30
0.0
 40
0
 41
0
  0
VERTEX
  8
0
 10
13.149
 20
66.6249
 30
0.0
 40
0
 41
0
  0
VERTEX
  8
0
 10
13.2347
 20
66.6015
 30
0.0
 40
0
 41
0
  0
VERTEX
  8
0
 10
13.3196
 20
66.5765
 30
0.0
 40
0
 41
0
  0
VERTEX
  8
0
 10
13.4036
 20
66.5497
 30
0.0
 40
0
 41
0
  0
VERTEX
  8
0
 10
13.4868
 20
66.5212
 30
0.0
 40
0
 41
0
  0
VERTEX
  8
0
 10
13.5692
 20
66.491
 30
0.0
 40
0
 41
0
  0
VERTEX
  8
0
 10
13.6506
 20
66.4592
 30
0.0
 40
0
 41
0
  0
VERTEX
  8
0
 10
13.7311
 20
66.4257
 30
0.0
 40
0
 41
0
  0
VERTEX
  8
0
 10
13.8105
 20
66.3906
 30
0.0
 40
0
 41
0
  0
VERTEX
  8
0
 10
13.889
 20
66.3539
 30
0.0
 40
0
 41
0
  0
VERTEX
  8
0
 10
13.9664
 20
66.3156
 30
0.0
 40
0
 41
0
  0
VERTEX
  8
0
 10
14.0428
 20
66.2758
 30
0.0
 40
0
 41
0
  0
VERTEX
  8
0
 10
14.1179
 20
66.2344
 30
0.0
 40
0
 41
0
  0
VERTEX
  8
0
 10
14.1921
 20
66.1917
 30
0.0
 40
0
 41
0
  0
VERTEX
  8
0
 10
14.265
 20
66.1475
 30
0.0
 40
0
 41
0
  0
VERTEX
  8
0
 10
14.3367
 20
66.1018
 30
0.0
 40
0
 41
0
  0
VERTEX
  8
0
 10
14.4072
 20
66.0547
 30
0.0
 40
0
 41
0
  0
VERTEX
  8
0
 10
14.4764
 20
66.0064
 30
0.0
 40
0
 41
0
  0
VERTEX
  8
0
 10
14.5444
 20
65.9567
 30
0.0
 40
0
 41
0
  0
VERTEX
  8
0
 10
14.6111
 20
65.9056
 30
0.0
 40
0
 41
0
  0
VERTEX
  8
0
 10
14.6764
 20
65.8533
 30
0.0
 40
0
 41
0
  0
VERTEX
  8
0
 10
14.7404
 20
65.7997
 30
0.0
 40
0
 41
0
  0
VERTEX
  8
0
 10
14.8031
 20
65.7451
 30
0.0
 40
0
 41
0
  0
VERTEX
  8
0
 10
14.8642
 20
65.6892
 30
0.0
 40
0
 41
0
  0
VERTEX
  8
0
 10
14.924
 20
65.6322
 30
0.0
 40
0
 41
0
  0
VERTEX
  8
0
 10
14.9824
 20
65.5742
 30
0.0
 40
0
 41
0
  0
VERTEX
  8
0
 10
15.0393
 20
65.515
 30
0.0
 40
0
 41
0
  0
VERTEX
  8
0
 10
15.0949
 20
65.4549
 30
0.0
 40
0
 41
0
  0
VERTEX
  8
0
 10
15.1487
 20
65.3938
 30
0.0
 40
0
 41
0
  0
VERTEX
  8
0
 10
15.2012
 20
65.3317
 30
0.0
 40
0
 41
0
  0
VERTEX
  8
0
 10
15.2522
 20
65.2686
 30
0.0
 40
0
 41
0
  0
VERTEX
  8
0
 10
15.3015
 20
65.2047
 30
0.0
 40
0
 41
0
  0
VERTEX
  8
0
 10
15.3494
 20
65.14
 30
0.0
 40
0
 41
0
  0
VERTEX
  8
0
 10
15.3957
 20
65.0744
 30
0.0
 40
0
 41
0
  0
VERTEX
  8
0
 10
15.4404
 20
65.0082
 30
0.0
 40
0
 41
0
  0
VERTEX
  8
0
 10
15.4835
 20
64.9413
 30
0.0
 40
0
 41
0
  0
VERTEX
  8
0
 10
15.525
 20
64.8735
 30
0.0
 40
0
 41
0
  0
VERTEX
  8
0
 10
15.5649
 20
64.8051
 30
0.0
 40
0
 41
0
  0
VERTEX
  8
0
 10
15.6032
 20
64.7361
 30
0.0
 40
0
 41
0
  0
VERTEX
  8
0
 10
15.6399
 20
64.6667
 30
0.0
 40
0
 41
0
  0
VERTEX
  8
0
 10
15.6749
 20
64.5965
 30
0.0
 40
0
 41
0
  0
VERTEX
  8
0
 10
15.7082
 20
64.5258
 30
0.0
 40
0
 41
0
  0
VERTEX
  8
0
 10
15.74
 20
64.4549
 30
0.0
 40
0
 41
0
  0
VERTEX
  8
0
 10
15.77
 20
64.3833
 30
0.0
 40
0
 41
0
  0
VERTEX
  8
0
 10
15.7985
 20
64.3115
 30
0.0
 40
0
 41
0
  0
VERTEX
  8
0
 10
15.8253
 20
64.2392
 30
0.0
 40
0
 41
0
  0
VERTEX
  8
0
 10
15.8503
 20
64.1667
 30
0.0
 40
0
 41
0
  0
VERTEX
  8
0
 10
15.8738
 20
64.0939
 30
0.0
 40
0
 41
0
  0
VERTEX
  8
0
 10
15.8956
 20
64.0208
 30
0.0
 40
0
 41
0
  0
VERTEX
  8
0
 10
15.9157
 20
63.9475
 30
0.0
 40
0
 41
0
  0
VERTEX
  8
0
 10
15.934
 20
63.8742
 30
0.0
 40
0
 41
0
  0
VERTEX
  8
0
 10
15.9508
 20
63.8006
 30
0.0
 40
0
 41
0
  0
VERTEX
  8
0
 10
15.966
 20
63.7269
 30
0.0
 40
0
 41
0
  0
VERTEX
  8
0
 10
15.9794
 20
63.6533
 30
0.0
 40
0
 41
0
  0
VERTEX
  8
0
 10
15.9913
 20
63.5796
 30
0.0
 40
0
 41
0
  0
VERTEX
  8
0
 10
16.0015
 20
63.5058
 30
0.0
 40
0
 41
0
  0
VERTEX
  8
0
 10
16.01
 20
63.4322
 30
0.0
 40
0
 41
0
  0
VERTEX
  8
0
 10
16.0169
 20
63.3588
 30
0.0
 40
0
 41
0
  0
VERTEX
  8
0
 10
16.0222
 20
63.2854
 30
0.0
 40
0
 41
0
  0
VERTEX
  8
0
 10
16.026
 20
63.2121
 30
0.0
 40
0
 41
0
  0
VERTEX
  8
0
 10
16.0281
 20
63.1392
 30
0.0
 40
0
 41
0
  0
VERTEX
  8
0
 10
16.0285
 20
63.0664
 30
0.0
 40
0
 41
0
  0
VERTEX
  8
0
 10
16.0274
 20
62.9937
 30
0.0
 40
0
 41
0
  0
VERTEX
  8
0
 10
16.0247
 20
62.9217
 30
0.0
 40
0
 41
0
  0
VERTEX
  8
0
 10
16.0206
 20
62.8497
 30
0.0
 40
0
 41
0
  0
VERTEX
  8
0
 10
16.0147
 20
62.7782
 30
0.0
 40
0
 41
0
  0
VERTEX
  8
0
 10
16.0074
 20
62.7071
 30
0.0
 40
0
 41
0
  0
VERTEX
  8
0
 10
15.9986
 20
62.6365
 30
0.0
 40
0
 41
0
  0
VERTEX
  8
0
 10
15.9882
 20
62.5663
 30
0.0
 40
0
 41
0
  0
VERTEX
  8
0
 10
15.9764
 20
62.4967
 30
0.0
 40
0
 41
0
  0
VERTEX
  8
0
 10
15.9631
 20
62.4275
 30
0.0
 40
0
 41
0
  0
VERTEX
  8
0
 10
15.9483
 20
62.3589
 30
0.0
 40
0
 41
0
  0
VERTEX
  8
0
 10
15.9322
 20
62.291
 30
0.0
 40
0
 41
0
  0
VERTEX
  8
0
 10
15.9146
 20
62.2236
 30
0.0
 40
0
 41
0
  0
VERTEX
  8
0
 10
15.8956
 20
62.1568
 30
0.0
 40
0
 41
0
  0
VERTEX
  8
0
 10
15.8751
 20
62.0908
 30
0.0
 40
0
 41
0
  0
VERTEX
  8
0
 10
15.8535
 20
62.0256
 30
0.0
 40
0
 41
0
  0
VERTEX
  8
0
 10
15.8304
 20
61.961
 30
0.0
 40
0
 41
0
  0
VERTEX
  8
0
 10
15.806
 20
61.8972
 30
0.0
 40
0
 41
0
  0
VERTEX
  8
0
 10
15.7803
 20
61.8342
 30
0.0
 40
0
 41
0
  0
VERTEX
  8
0
 10
15.7533
 20
61.7719
 30
0.0
 40
0
 41
0
  0
VERTEX
  8
0
 10
15.7251
 20
61.7107
 30
0.0
 40
0
 41
0
  0
VERTEX
  8
0
 10
15.6957
 20
61.6501
 30
0.0
 40
0
 41
0
  0
VERTEX
  8
0
 10
15.665
 20
61.5906
 30
0.0
 40
0
 41
0
  0
VERTEX
  8
0
 10
15.6332
 20
61.5319
 30
0.0
 40
0
 41
0
  0
VERTEX
  8
0
 10
15.6003
 20
61.4742
 30
0.0
 40
0
 41
0
  0
VERTEX
  8
0
 10
15.5661
 20
61.4175
 30
0.0
 40
0
 41
0
  0
VERTEX
  8
0
 10
15.531
 20
61.3617
 30
0.0
 40
0
 41
0
  0
VERTEX
  8
0
 10
15.4947
 20
61.3069
 30
0.0
 40
0
 41
0
  0
VERTEX
  8
0
 10
15.4574
 20
61.2532
 30
0.0
 40
0
 41
0
  0
VERTEX
  8
0
 10
15.419
 20
61.2006
 30
0.0
 40
0
 41
0
  0
VERTEX
  8
0
 10
15.3797
 20
61.1489
 30
0.0
 40
0
 41
0
  0
VERTEX
  8
0
 10
15.3394
 20
61.0983
 30
0.0
 40
0
 41
0
  0
VERTEX
  8
0
 10
15.2982
 20
61.049
 30
0.0
 40
0
 41
0
  0
VERTEX
  8
0
 10
15.256
 20
61.0007
 30
0.0
 40
0
 41
0
  0
VERTEX
  8
0
 10
15.2129
 20
60.9535
 30
0.0
 40
0
 41
0
  0
VERTEX
  8
0
 10
15.1692
 20
60.9075
 30
0.0
 40
0
 41
0
  0
VERTEX
  8
0
 10
15.1244
 20
60.8626
 30
0.0
 40
0
 41
0
  0
VERTEX
  8
0
 10
15.0789
 20
60.8189
 30
0.0
 40
0
 41
0
  0
VERTEX
  8
0
 10
15.0326
 20
60.7765
 30
0.0
 40
0
 41
0
  0
VERTEX
  8
0
 10
14.9857
 20
60.7351
 30
0.0
 40
0
 41
0
  0
VERTEX
  8
0
 10
14.9379
 20
60.6951
 30
0.0
 40
0
 41
0
  0
VERTEX
  8
0
 10
14.8896
 20
60.6564
 30
0.0
 40
0
 41
0
  0
VERTEX
  8
0
 10
14.8406
 20
60.6187
 30
0.0
 40
0
 41
0
  0
VERTEX
  8
0
 10
14.791
 20
60.5824
 30
0.0
 40
0
 41
0
  0
VERTEX
  8
0
 10
14.7407
 20
60.5474
 30
0.0
 40
0
 41
0
  0
VERTEX
  8
0
 10
14.69
 20
60.5136
 30
0.0
 40
0
 41
0
  0
VERTEX
  8
0
 10
14.6387
 20
60.481
 30
0.0
 40
0
 41
0
  0
VERTEX
  8
0
 10
14.5869
 20
60.4497
 30
0.0
 40
0
 41
0
  0
VERTEX
  8
0
 10
14.5347
 20
60.4199
 30
0.0
 40
0
 41
0
  0
VERTEX
  8
0
 10
14.4821
 20
60.3911
 30
0.0
 40
0
 41
0
  0
VERTEX
  8
0
 10
14.429
 20
60.3637
 30
0.0
 40
0
 41
0
  0
VERTEX
  8
0
 10
14.3756
 20
60.3378
 30
0.0
 40
0
 41
0
  0
VERTEX
  8
0
 10
14.3218
 20
60.3131
 30
0.0
 40
0
 41
0
  0
VERTEX
  8
0
 10
14.2678
 20
60.2896
 30
0.0
 40
0
 41
0
  0
VERTEX
  8
0
 10
14.2135
 20
60.2674
 30
0.0
 40
0
 41
0
  0
VERTEX
  8
0
 10
14.1589
 20
60.2467
 30
0.0
 40
0
 41
0
  0
VERTEX
  8
0
 10
14.1042
 20
60.2271
 30
0.0
 40
0
 41
0
  0
VERTEX
  8
0
 10
14.0492
 20
60.2089
 30
0.0
 40
0
 41
0
  0
VERTEX
  8
0
 10
13.9942
 20
60.1919
 30
0.0
 40
0
 41
0
  0
VERTEX
  8
0
 10
13.9389
 20
60.1764
 30
0.0
 40
0
 41
0
  0
VERTEX
  8
0
 10
13.8836
 20
60.1622
 30
0.0
 40
0
 41
0
  0
VERTEX
  8
0
 10
13.8283
 20
60.1492
 30
0.0
 40
0
 41
0
  0
VERTEX
  8
0
 10
13.7729
 20
60.1375
 30
0.0
 40
0
 41
0
  0
VERTEX
  8
0
 10
13.7175
 20
60.1272
 30
0.0
 40
0
 41
0
  0
VERTEX
  8
0
 10
13.6622
 20
60.1181
 30
0.0
 40
0
 41
0
  0
VERTEX
  8
0
 10
13.6069
 20
60.1103
 30
0.0
 40
0
 41
0
  0
VERTEX
  8
0
 10
13.5518
 20
60.1038
 30
0.0
 40
0
 41
0
  0
VERTEX
  8
0
 10
13.4967
 20
60.0985
 30
0.0
 40
0
 41
0
  0
VERTEX
  8
0
 10
13.4418
 20
60.0944
 30
0.0
 40
0
 41
0
  0
VERTEX
  8
0
 10
13.3871
 20
60.0918
 30
0.0
 40
0
 41
0
  0
VERTEX
  8
0
 10
13.3325
 20
60.0903
 30
0.0
 40
0
 41
0
  0
VERTEX
  8
0
 10
13.2782
 20
60.09
 30
0.0
 40
0
 41
0
  0
VERTEX
  8
0
 10
13.2242
 20
60.091
 30
0.0
 40
0
 41
0
  0
VERTEX
  8
0
 10
13.1704
 20
60.0932
 30
0.0
 40
0
 41
0
  0
VERTEX
  8
0
 10
13.1171
 20
60.0965
 30
0.0
 40
0
 41
0
  0
VERTEX
  8
0
 10
13.064
 20
60.1011
 30
0.0
 40
0
 41
0
  0
VERTEX
  8
0
 10
13.0112
 20
60.1068
 30
0.0
 40
0
 41
0
  0
VERTEX
  8
0
 10
12.959
 20
60.1137
 30
0.0
 40
0
 41
0
  0
VERTEX
  8
0
 10
12.9071
 20
60.1218
 30
0.0
 40
0
 41
0
  0
VERTEX
  8
0
 10
12.8557
 20
60.131
 30
0.0
 40
0
 41
0
  0
VERTEX
  8
0
 10
12.8047
 20
60.1412
 30
0.0
 40
0
 41
0
  0
VERTEX
  8
0
 10
12.7542
 20
60.1528
 30
0.0
 40
0
 41
0
  0
VERTEX
  8
0
 10
12.7042
 20
60.1653
 30
0.0
 40
0
 41
0
  0
VERTEX
  8
0
 10
12.6548
 20
60.1788
 30
0.0
 40
0
 41
0
  0
VERTEX
  8
0
 10
12.606
 20
60.1935
 30
0.0
 40
0
 41
0
  0
VERTEX
  8
0
 10
12.5576
 20
60.2092
 30
0.0
 40
0
 41
0
  0
VERTEX
  8
0
 10
12.51
 20
60.2258
 30
0.0
 40
0
 41
0
  0
VERTEX
  8
0
 10
12.4631
 20
60.2435
 30
0.0
 40
0
 41
0
  0
VERTEX
  8
0
 10
12.4167
 20
60.2621
 30
0.0
 40
0
 41
0
  0
VERTEX
  8
0
 10
12.371
 20
60.2818
 30
0.0
 40
0
 41
0
  0
VERTEX
  8
0
 10
12.326
 20
60.3024
 30
0.0
 40
0
 41
0
  0
VERTEX
  8
0
 10
12.2817
 20
60.3239
 30
0.0
 40
0
 41
0
  0
VERTEX
  8
0
 10
12.2381
 20
60.3463
 30
0.0
 40
0
 41
0
  0
VERTEX
  8
0
 10
12.1953
 20
60.3696
 30
0.0
 40
0
 41
0
  0
VERTEX
  8
0
 10
12.1532
 20
60.3938
 30
0.0
 40
0
 41
0
  0
VERTEX
  8
0
 10
12.1119
 20
60.4186
 30
0.0
 40
0
 41
0
  0
VERTEX
  8
0
 10
12.0714
 20
60.4444
 30
0.0
 40
0
 41
0
  0
VERTEX
  8
0
 10
12.0318
 20
60.4711
 30
0.0
 40
0
 41
0
  0
VERTEX
  8
0
 10
11.9929
 20
60.4985
 30
0.0
 40
0
 41
0
  0
VERTEX
  8
0
 10
11.9549
 20
60.5265
 30
0.0
 40
0
 41
0
  0
VERTEX
  8
0
 10
11.9178
 20
60.5554
 30
0.0
 40
0
 41
0
  0
VERTEX
  8
0
 10
11.8815
 20
60.585
 30
0.0
 40
0
 41
0
  0
VERTEX
  8
0
 10
11.8461
 20
60.6151
 30
0.0
 40
0
 41
0
  0
VERTEX
  8
0
 10
11.8117
 20
60.6461
 30
0.0
 40
0
 41
0
  0
VERTEX
  8
0
 10
11.7782
 20
60.6776
 30
0.0
 40
0
 41
0
  0
VERTEX
  8
0
 10
11.7456
 20
60.7097
 30
0.0
 40
0
 41
0
  0
VERTEX
  8
0
 10
11.7138
 20
60.7424
 30
0.0
 40
0
 41
0
  0
VERTEX
  8
0
 10
11.6831
 20
60.7757
 30
0.0
 40
0
 41
0
  0
VERTEX
  8
0
 10
11.6532
 20
60.8094
 30
0.0
 40
0
 41
0
  0
VERTEX
  8
0
 10
11.6245
 20
60.8438
 30
0.0
 40
0
 41
0
  0
VERTEX
  8
0
 10
11.5965
 20
60.8786
 30
0.0
 40
0
 41
0
  0
VERTEX
  8
0
 10
11.5696
 20
60.9138
 30
0.0
 40
0
 41
0
  0
VERTEX
  8
0
 10
11.5437
 20
60.9494
 30
0.0
 40
0
 41
0
  0
VERTEX
  8
0
 10
11.5188
 20
60.9856
 30
0.0
 40
0
 41
0
  0
VERTEX
  8
0
 10
11.4948
 20
61.0221
 30
0.0
 40
0
 41
0
  0
VERTEX
  8
0
 10
11.4719
 20
61.0589
 30
0.0
 40
0
 41
0
  0
VERTEX
  8
0
 10
11.45
 20
61.0961
 30
0.0
 40
0
 41
0
  0
VERTEX
  8
0
 10
11.4291
 20
61.1335
 30
0.0
 40
0
 41
0
  0
VERTEX
  8
0
 10
11.4093
 20
61.1713
 30
0.0
 40
0
 41
0
  0
VERTEX
  8
0
 10
11.3904
 20
61.2093
 30
0.0
 40
0
 41
0
  0
VERTEX
  8
0
 10
11.3725
 20
61.2475
 30
0.0
 40
0
 41
0
  0
VERTEX
  8
0
 10
11.3557
 20
61.286
 30
0.0
 40
0
 41
0
  0
VERTEX
  8
0
 10
11.3398
 20
61.3246
 30
0.0
 40
0
 41
0
  0
VERTEX
  8
0
 10
11.3251
 20
61.3633
 30
0.0
 40
0
 41
0
  0
VERTEX
  8
0
 10
11.3114
 20
61.4022
 30
0.0
 40
0
 41
0
  0
VERTEX
  8
0
 10
11.2986
 20
61.4413
 30
0.0
 40
0
 41
0
  0
VERTEX
  8
0
 10
11.2869
 20
61.4803
 30
0.0
 40
0
 41
0
  0
VERTEX
  8
0
 10
11.2763
 20
61.5194
 30
0.0
 40
0
 41
0
  0
VERTEX
  8
0
 10
11.2665
 20
61.5586
 30
0.0
 40
0
 41
0
  0
VERTEX
  8
0
 10
11.2578
 20
61.5978
 30
0.0
 40
0
 41
0
  0
VERTEX
  8
0
 10
11.2502
 20
61.6369
 30
0.0
 40
0
 41
0
  0
VERTEX
  8
0
 10
11.2435
 20
61.676
 30
0.0
 40
0
 41
0
  0
VERTEX
  8
0
 10
11.2378
 20
61.715
 30
0.0
 40
0
 41
0
  0
VERTEX
  8
0
 10
11.2332
 20
61.7539
 30
0.0
 40
0
 41
0
  0
VERTEX
  8
0
 10
11.2294
 20
61.7928
 30
0.0
 40
0
 41
0
  0
VERTEX
  8
0
 10
11.2268
 20
61.8314
 30
0.0
 40
0
 41
0
  0
VERTEX
  8
0
 10
11.225
 20
61.8699
 30
0.0
 40
0
 41
0
  0
VERTEX
  8
0
 10
11.2243
 20
61.9082
 30
0.0
 40
0
 41
0
  0
VERTEX
  8
0
 10
11.2244
 20
61.9462
 30
0.0
 40
0
 41
0
  0
VERTEX
  8
0
 10
11.2255
 20
61.9842
 30
0.0
 40
0
 41
0
  0
VERTEX
  8
0
 10
11.2277
 20
62.0217
 30
0.0
 40
0
 41
0
  0
VERTEX
  8
0
 10
11.2307
 20
62.059
 30
0.0
 40
0
 41
0
  0
VERTEX
  8
0
 10
11.2346
 20
62.096
 30
0.0
 40
0
 41
0
  0
VERTEX
  8
0
 10
11.2394
 20
62.1326
 30
0.0
 40
0
 41
0
  0
VERTEX
  8
0
 10
11.2453
 20
62.169
 30
0.0
 40
0
 41
0
  0
VERTEX
  8
0
 10
11.252
 20
62.205
 30
0.0
 40
0
 41
0
  0
VERTEX
  8
0
 10
11.2594
 20
62.2406
 30
0.0
 40
0
 41
0
  0
VERTEX
  8
0
 10
11.2678
 20
62.2757
 30
0.0
 40
0
 41
0
  0
VERTEX
  8
0
 10
11.277
 20
62.3104
 30
0.0
 40
0
 41
0
  0
VERTEX
  8
0
 10
11.2871
 20
62.3447
 30
0.0
 40
0
 41
0
  0
VERTEX
  8
0
 10
11.2979
 20
62.3786
 30
0.0
 40
0
 41
0
  0
VERTEX
  8
0
 10
11.3097
 20
62.4119
 30
0.0
 40
0
 41
0
  0
VERTEX
  8
0
 10
11.3222
 20
62.4447
 30
0.0
 40
0
 41
0
  0
VERTEX
  8
0
 10
11.3354
 20
62.4771
 30
0.0
 40
0
 41
0
  0
VERTEX
  8
0
 10
11.3496
 20
62.5087
 30
0.0
 40
0
 41
0
  0
VERTEX
  8
0
 10
11.3643
 20
62.54
 30
0.0
 40
0
 41
0
  0
VERTEX
  8
0
 10
11.3799
 20
62.5706
 30
0.0
 40
0
 41
0
  0
VERTEX
  8
0
 10
11.3961
 20
62.6006
 30
0.0
 40
0
 41
0
  0
VERTEX
  8
0
 10
11.413
 20
62.63
 30
0.0
 40
0
 41
0
  0
VERTEX
  8
0
 10
11.4307
 20
62.6588
 30
0.0
 40
0
 41
0
  0
VERTEX
  8
0
 10
11.449
 20
62.6869
 30
0.0
 40
0
 41
0
  0
VERTEX
  8
0
 10
11.4679
 20
62.7143
 30
0.0
 40
0
 41
0
  0
VERTEX
  8
0
 10
11.4875
 20
62.7411
 30
0.0
 40
0
 41
0
  0
VERTEX
  8
0
 10
11.5078
 20
62.7672
 30
0.0
 40
0
 41
0
  0
VERTEX
  8
0
 10
11.5286
 20
62.7926
 30
0.0
 40
0
 41
0
  0
VERTEX
  8
0
 10
11.5499
 20
62.8172
 30
0.0
 40
0
 41
0
  0
VERTEX
  8
0
 10
11.5718
 20
62.8412
 30
0.0
 40
0
 41
0
  0
VERTEX
  8
0
 10
11.5943
 20
62.8644
 30
0.0
 40
0
 41
0
  0
VERTEX
  8
0
 10
11.6172
 20
62.8868
 30
0.0
 40
0
 41
0
  0
VERTEX
  8
0
 10
11.6408
 20
62.9085
 30
0.0
 40
0
 41
0
  0
VERTEX
  8
0
 10
11.6647
 20
62.9293
 30
0.0
 40
0
 41
0
  0
VERTEX
  8
0
 10
11.6892
 20
62.9494
 30
0.0
 40
0
 41
0
  0
VERTEX
  8
0
 10
11.714
 20
62.9688
 30
0.0
 40
0
 41
0
  0
VERTEX
  8
0
 10
11.7393
 20
62.9872
 30
0.0
 40
0
 41
0
  0
VERTEX
  8
0
 10
11.7649
 20
63.0047
 30
0.0
 40
0
 41
0
  0
VERTEX
  8
0
 10
11.791
 20
63.0215
 30
0.0
 40
0
 41
0
  0
VERTEX
  8
0
 10
11.8174
 20
63.0375
 30
0.0
 40
0
 41
0
  0
VERTEX
  8
0
 10
11.844
 20
63.0526
 30
0.0
 40
0
 41
0
  0
VERTEX
  8
0
 10
11.871
 20
63.0668
 30
0.0
 40
0
 41
0
  0
VERTEX
  8
0
 10
11.8983
 20
63.0801
 30
0.0
 40
0
 41
0
  0
VERTEX
  8
0
 10
11.9258
 20
63.0926
 30
0.0
 40
0
 41
0
  0
VERTEX
  8
0
 10
11.9536
 20
63.1042
 30
0.0
 40
0
 41
0
  0
VERTEX
  8
0
 10
11.9817
 20
63.1149
 30
0.0
 40
0
 41
0
  0
VERTEX
  8
0
 10
12.0099
 20
63.1246
 30
0.0
 40
0
 41
0
  0
VERTEX
  8
0
 10
12.0382
 20
63.1335
 30
0.0
 40
0
 41
0
  0
VERTEX
  8
0
 10
12.0667
 20
63.1414
 30
0.0
 40
0
 41
0
  0
VERTEX
  8
0
 10
12.0953
 20
63.1485
 30
0.0
 40
0
 41
0
  0
VERTEX
  8
0
 10
12.124
 20
63.1546
 30
0.0
 40
0
 41
0
  0
VERTEX
  8
0
 10
12.1528
 20
63.1597
 30
0.0
 40
0
 41
0
  0
VERTEX
  8
0
 10
12.1816
 20
63.164
 30
0.0
 40
0
 41
0
  0
VERTEX
  8
0
 10
12.2104
 20
63.1672
 30
0.0
 40
0
 41
0
  0
VERTEX
  8
0
 10
12.2393
 20
63.1696
 30
0.0
 40
0
 41
0
  0
VERTEX
  8
0
 10
12.2681
 20
63.171
 30
0.0
 40
0
 41
0
  0
VERTEX
  8
0
 10
12.2968
 20
63.1715
 30
0.0
 40
0
 41
0
  0
VERTEX
  8
0
 10
12.3254
 20
63.171
 30
0.0
 40
0
 41
0
  0
VERTEX
  8
0
 10
12.3539
 20
63.1696
 30
0.0
 40
0
 41
0
  0
VERTEX
  8
0
 10
12.3824
 20
63.1672
 30
0.0
 40
0
 41
0
  0
VERTEX
  8
0
 10
12.4105
 20
63.1639
 30
0.0
 40
0
 41
0
  0
VERTEX
  8
0
 10
12.4385
 20
63.1596
 30
0.0
 40
0
 41
0
  0
VERTEX
  8
0
 10
12.4663
 20
63.1543
 30
0.0
 40
0
 41
0
  0
VERTEX
  8
0
 10
12.4938
 20
63.1482
 30
0.0
 40
0
 41
0
  0
VERTEX
  8
0
 10
12.521
 20
63.1411
 30
0.0
 40
0
 41
0
  0
VERTEX
  8
0
 10
12.5478
 20
63.1331
 30
0.0
 40
0
 41
0
  0
VERTEX
  8
0
 10
12.5743
 20
63.124
 30
0.0
 40
0
 41
0
  0
VERTEX
  8
0
 10
12.6005
 20
63.1142
 30
0.0
 40
0
 41
0
  0
VERTEX
  8
0
 10
12.6263
 20
63.1033
 30
0.0
 40
0
 41
0
  0
VERTEX
  8
0
 10
12.6515
 20
63.0917
 30
0.0
 40
0
 41
0
  0
VERTEX
  8
0
 10
12.6764
 20
63.079
 30
0.0
 40
0
 41
0
  0
VERTEX
  8
0
 10
12.7007
 20
63.0656
 30
0.0
 40
0
 41
0
  0
VERTEX
  8
0
 10
12.7244
 20
63.0511
 30
0.0
 40
0
 41
0
  0
VERTEX
  8
0
 10
12.7476
 20
63.0358
 30
0.0
 40
0
 41
0
  0
VERTEX
  8
0
 10
12.7701
 20
63.0197
 30
0.0
 40
0
 41
0
  0
VERTEX
  8
0
 10
12.7921
 20
63.0029
 30
0.0
 40
0
 41
0
  0
VERTEX
  8
0
 10
12.8133
 20
62.9851
 30
0.0
 40
0
 41
0
  0
VERTEX
  8
0
 10
12.8339
 20
62.9665
 30
0.0
 40
0
 41
0
  0
VERTEX
  8
0
 10
12.8536
 20
62.9472
 30
0.0
 40
0
 41
0
  0
VERTEX
  8
0
 10
12.8726
 20
62.9272
 30
0.0
 40
0
 41
0
  0
VERTEX
  8
0
 10
12.8908
 20
62.9064
 30
0.0
 40
0
 41
0
  0
VERTEX
  8
0
 10
12.9082
 20
62.8849
 30
0.0
 40
0
 41
0
  0
VERTEX
  8
0
 10
12.9247
 20
62.8628
 30
0.0
 40
0
 41
0
  0
VERTEX
  8
0
 10
12.9403
 20
62.8399
 30
0.0
 40
0
 41
0
  0
VERTEX
  8
0
 10
12.9549
 20
62.8165
 30
0.0
 40
0
 41
0
  0
VERTEX
  8
0
 10
12.9686
 20
62.7925
 30
0.0
 40
0
 41
0
  0
VERTEX
  8
0
 10
12.9814
 20
62.7679
 30
0.0
 40
0
 41
0
  0
VERTEX
  8
0
 10
12.9931
 20
62.7429
 30
0.0
 40
0
 41
0
  0
VERTEX
  8
0
 10
13.0038
 20
62.7174
 30
0.0
 40
0
 41
0
  0
VERTEX
  8
0
 10
13.0133
 20
62.6915
 30
0.0
 40
0
 41
0
  0
VERTEX
  8
0
 10
13.0218
 20
62.6651
 30
0.0
 40
0
 41
0
  0
VERTEX
  8
0
 10
13.0293
 20
62.6386
 30
0.0
 40
0
 41
0
  0
VERTEX
  8
0
 10
13.0355
 20
62.6117
 30
0.0
 40
0
 41
0
  0
VERTEX
  8
0
 10
13.0407
 20
62.5844
 30
0.0
 40
0
 41
0
  0
VERTEX
  8
0
 10
13.0447
 20
62.5571
 30
0.0
 40
0
 41
0
  0
VERTEX
  8
0
 10
13.0476
 20
62.5296
 30
0.0
 40
0
 41
0
  0
VERTEX
  8
0
 10
13.0494
 20
62.5019
 30
0.0
 40
0
 41
0
  0
VERTEX
  8
0
 10
13.05
 20
62.4743
 30
0.0
 40
0
 41
0
  0
VERTEX
  8
0
 10
13.05
 20
62.4761
 30
0.0
 40
0
 41
0
  0
VERTEX
  8
0
 10
13.0499
 20
62.4778
 30
0.0
 40
0
 41
0
  0
VERTEX
  8
0
 10
13.0497
 20
62.4794
 30
0.0
 40
0
 41
0
  0
VERTEX
  8
0
 10
13.0494
 20
62.481
 30
0.0
 40
0
 41
0
  0
VERTEX
  8
0
 10
13.0492
 20
62.4826
 30
0.0
 40
0
 41
0
  0
VERTEX
  8
0
 10
13.0488
 20
62.484
 30
0.0
 40
0
 41
0
  0
VERTEX
  8
0
 10
13.0484
 20
62.4854
 30
0.0
 40
0
 41
0
  0
VERTEX
  8
0
 10
13.0479
 20
62.4868
 30
0.0
 40
0
 41
0
  0
VERTEX
  8
0
 10
13.0475
 20
62.4879
 30
0.0
 40
0
 41
0
  0
VERTEX
  8
0
 10
13.0471
 20
62.489
 30
0.0
 40
0
 41
0
  0
VERTEX
  8
0
 10
13.0467
 20
62.49
 30
0.0
 40
0
 41
0
  0
VERTEX
  8
0
 10
13.0462
 20
62.4908
 30
0.0
 40
0
 41
0
  0
VERTEX
  8
0
 10
13.0458
 20
62.4915
 30
0.0
 40
0
 41
0
  0
VERTEX
  8
0
 10
13.0454
 20
62.4921
 30
0.0
 40
0
 41
0
  0
VERTEX
  8
0
 10
13.0451
 20
62.4925
 30
0.0
 40
0
 41
0
  0
VERTEX
  8
0
 10
13.045
 20
62.4928
 30
0.0
 40
0
 41
0
  0
VERTEX
  8
0
 10
13.0449
 20
62.4929
 30
0.0
 40
0
 41
0
  0
VERTEX
  8
0
 10
13.045
 20
62.4928
 30
0.0
 40
0
 41
0
  0
VERTEX
  8
0
 10
13.0453
 20
62.4925
 30
0.0
 40
0
 41
0
  0
VERTEX
  8
0
 10
13.0457
 20
62.4921
 30
0.0
 40
0
 41
0
  0
VERTEX
  8
0
 10
13.0464
 20
62.4915
 30
0.0
 40
0
 41
0
  0
VERTEX
  8
0
 10
13.0472
 20
62.491
 30
0.0
 40
0
 41
0
  0
VERTEX
  8
0
 10
13.0482
 20
62.4903
 30
0.0
 40
0
 41
0
  0
VERTEX
  8
0
 10
13.0493
 20
62.4894
 30
0.0
 40
0
 41
0
  0
VERTEX
  8
0
 10
13.0508
 20
62.4886
 30
0.0
 40
0
 41
0
  0
VERTEX
  8
0
 10
13.0525
 20
62.4876
 30
0.0
 40
0
 41
0
  0
VERTEX
  8
0
 10
13.0543
 20
62.4867
 30
0.0
 40
0
 41
0
  0
VERTEX
  8
0
 10
13.0565
 20
62.4857
 30
0.0
 40
0
 41
0
  0
VERTEX
  8
0
 10
13.0589
 20
62.4847
 30
0.0
 40
0
 41
0
  0
VERTEX
  8
0
 10
13.0615
 20
62.4836
 30
0.0
 40
0
 41
0
  0
VERTEX
  8
0
 10
13.0646
 20
62.4826
 30
0.0
 40
0
 41
0
  0
VERTEX
  8
0
 10
13.0678
 20
62.4817
 30
0.0
 40
0
 41
0
  0
VERTEX
  8
0
 10
13.0712
 20
62.4808
 30
0.0
 40
0
 41
0
  0
VERTEX
  8
0
 10
13.075
 20
62.48
 30
0.0
 40
0
 41
0
  0
VERTEX
  8
0
 10
13.079
 20
62.4792
 30
0.0
 40
0
 41
0
  0
VERTEX
  8
0
 10
13.0833
 20
62.4785
 30
0.0
 40
0
 41
0
  0
VERTEX
  8
0
 10
13.0879
 20
62.4779
 30
0.0
 40
0
 41
0
  0
VERTEX
  8
0
 10
13.0928
 20
62.4776
 30
0.0
 40
0
 41
0
  0
VERTEX
  8
0
 10
13.098
 20
62.4774
 30
0.0
 40
0
 41
0
  0
VERTEX
  8
0
 10
13.1035
 20
62.4772
 30
0.0
 40
0
 41
0
  0
VERTEX
  8
0
 10
13.1092
 20
62.4774
 30
0.0
 40
0
 41
0
  0
VERTEX
  8
0
 10
13.115
 20
62.4776
 30
0.0
 40
0
 41
0
  0
VERTEX
  8
0
 10
13.1212
 20
62.4781
 30
0.0
 40
0
 41
0
  0
VERTEX
  8
0
 10
13.1278
 20
62.4789
 30
0.0
 40
0
 41
0
  0
VERTEX
  8
0
 10
13.1344
 20
62.4799
 30
0.0
 40
0
 41
0
  0
VERTEX
  8
0
 10
13.1413
 20
62.4811
 30
0.0
 40
0
 41
0
  0
VERTEX
  8
0
 10
13.1485
 20
62.4826
 30
0.0
 40
0
 41
0
  0
VERTEX
  8
0
 10
13.1558
 20
62.4844
 30
0.0
 40
0
 41
0
  0
VERTEX
  8
0
 10
13.1634
 20
62.4865
 30
0.0
 40
0
 41
0
  0
VERTEX
  8
0
 10
13.1711
 20
62.4889
 30
0.0
 40
0
 41
0
  0
VERTEX
  8
0
 10
13.179
 20
62.4917
 30
0.0
 40
0
 41
0
  0
VERTEX
  8
0
 10
13.1871
 20
62.4947
 30
0.0
 40
0
 41
0
  0
VERTEX
  8
0
 10
13.1953
 20
62.4982
 30
0.0
 40
0
 41
0
  0
VERTEX
  8
0
 10
13.2036
 20
62.5019
 30
0.0
 40
0
 41
0
  0
VERTEX
  8
0
 10
13.2122
 20
62.5061
 30
0.0
 40
0
 41
0
  0
VERTEX
  8
0
 10
13.2208
 20
62.5107
 30
0.0
 40
0
 41
0
  0
VERTEX
  8
0
 10
13.2294
 20
62.5156
 30
0.0
 40
0
 41
0
  0
VERTEX
  8
0
 10
13.2383
 20
62.5208
 30
0.0
 40
0
 41
0
  0
VERTEX
  8
0
 10
13.2471
 20
62.5267
 30
0.0
 40
0
 41
0
  0
VERTEX
  8
0
 10
13.2561
 20
62.5328
 30
0.0
 40
0
 41
0
  0
VERTEX
  8
0
 10
13.265
 20
62.5393
 30
0.0
 40
0
 41
0
  0
VERTEX
  8
0
 10
13.274
 20
62.5463
 30
0.0
 40
0
 41
0
  0
VERTEX
  8
0
 10
13.2829
 20
62.5536
 30
0.0
 40
0
 41
0
  0
VERTEX
  8
0
 10
13.2919
 20
62.5614
 30
0.0
 40
0
 41
0
  0
VERTEX
  8
0
 10
13.3008
 20
62.5697
 30
0.0
 40
0
 41
0
  0
VERTEX
  8
0
 10
13.3098
 20
62.5783
 30
0.0
 40
0
 41
0
  0
VERTEX
  8
0
 10
13.3186
 20
62.5875
 30
0.0
 40
0
 41
0
  0
VERTEX
  8
0
 10
13.3274
 20
62.5971
 30
0.0
 40
0
 41
0
  0
VERTEX
  8
0
 10
13.3361
 20
62.6071
 30
0.0
 40
0
 41
0
  0
VERTEX
  8
0
 10
13.3447
 20
62.6175
 30
0.0
 40
0
 41
0
  0
VERTEX
  8
0
 10
13.3531
 20
62.6285
 30
0.0
 40
0
 41
0
  0
VERTEX
  8
0
 10
13.3614
 20
62.6399
 30
0.0
 40
0
 41
0
  0
VERTEX
  8
0
 10
13.3696
 20
62.6517
 30
0.0
 40
0
 41
0
  0
VERTEX
  8
0
 10
13.3775
 20
62.6639
 30
0.0
 40
0
 41
0
  0
VERTEX
  8
0
 10
13.3852
 20
62.6765
 30
0.0
 40
0
 41
0
  0
VERTEX
  8
0
 10
13.3929
 20
62.6897
 30
0.0
 40
0
 41
0
  0
VERTEX
  8
0
 10
13.4003
 20
62.7032
 30
0.0
 40
0
 41
0
  0
VERTEX
  8
0
 10
13.4073
 20
62.7172
 30
0.0
 40
0
 41
0
  0
VERTEX
  8
0
 10
13.4142
 20
62.7317
 30
0.0
 40
0
 41
0
  0
VERTEX
  8
0
 10
13.4207
 20
62.7465
 30
0.0
 40
0
 41
0
  0
VERTEX
  8
0
 10
13.4269
 20
62.7617
 30
0.0
 40
0
 41
0
  0
VERTEX
  8
0
 10
13.4329
 20
62.7774
 30
0.0
 40
0
 41
0
  0
VERTEX
  8
0
 10
13.4386
 20
62.7935
 30
0.0
 40
0
 41
0
  0
VERTEX
  8
0
 10
13.4439
 20
62.8099
 30
0.0
 40
0
 41
0
  0
VERTEX
  8
0
 10
13.4489
 20
62.8268
 30
0.0
 40
0
 41
0
  0
VERTEX
  8
0
 10
13.4534
 20
62.844
 30
0.0
 40
0
 41
0
  0
VERTEX
  8
0
 10
13.4576
 20
62.8617
 30
0.0
 40
0
 41
0
  0
VERTEX
  8
0
 10
13.4614
 20
62.8796
 30
0.0
 40
0
 41
0
  0
VERTEX
  8
0
 10
13.4648
 20
62.8979
 30
0.0
 40
0
 41
0
  0
VERTEX
  8
0
 10
13.4678
 20
62.9167
 30
0.0
 40
0
 41
0
  0
VERTEX
  8
0
 10
13.4703
 20
62.9357
 30
0.0
 40
0
 41
0
  0
VERTEX
  8
0
 10
13.4724
 20
62.955
 30
0.0
 40
0
 41
0
  0
VERTEX
  8
0
 10
13.4739
 20
62.9746
 30
0.0
 40
0
 41
0
  0
VERTEX
  8
0
 10
13.475
 20
62.9946
 30
0.0
 40
0
 41
0
  0
VERTEX
  8
0
 10
13.4757
 20
63.0149
 30
0.0
 40
0
 41
0
  0
VERTEX
  8
0
 10
13.4757
 20
63.0354
 30
0.0
 40
0
 41
0
  0
VERTEX
  8
0
 10
13.4753
 20
63.0561
 30
0.0
 40
0
 41
0
  0
VERTEX
  8
0
 10
13.4744
 20
63.0772
 30
0.0
 40
0
 41
0
  0
VERTEX
  8
0
 10
13.4729
 20
63.0985
 30
0.0
 40
0
 41
0
  0
VERTEX
  8
0
 10
13.4708
 20
63.12
 30
0.0
 40
0
 41
0
  0
VERTEX
  8
0
 10
13.4682
 20
63.1417
 30
0.0
 40
0
 41
0
  0
VERTEX
  8
0
 10
13.4651
 20
63.1636
 30
0.0
 40
0
 41
0
  0
VERTEX
  8
0
 10
13.4613
 20
63.1857
 30
0.0
 40
0
 41
0
  0
VERTEX
  8
0
 10
13.4569
 20
63.2079
 30
0.0
 40
0
 41
0
  0
VERTEX
  8
0
 10
13.4519
 20
63.2303
 30
0.0
 40
0
 41
0
  0
VERTEX
  8
0
 10
13.4464
 20
63.2528
 30
0.0
 40
0
 41
0
  0
VERTEX
  8
0
 10
13.4403
 20
63.2754
 30
0.0
 40
0
 41
0
  0
VERTEX
  8
0
 10
13.4333
 20
63.2982
 30
0.0
 40
0
 41
0
  0
VERTEX
  8
0
 10
13.426
 20
63.321
 30
0.0
 40
0
 41
0
  0
VERTEX
  8
0
 10
13.4178
 20
63.3439
 30
0.0
 40
0
 41
0
  0
VERTEX
  8
0
 10
13.409
 20
63.3668
 30
0.0
 40
0
 41
0
  0
VERTEX
  8
0
 10
13.3997
 20
63.3897
 30
0.0
 40
0
 41
0
  0
VERTEX
  8
0
 10
13.3896
 20
63.4128
 30
0.0
 40
0
 41
0
  0
VERTEX
  8
0
 10
13.3789
 20
63.4357
 30
0.0
 40
0
 41
0
  0
VERTEX
  8
0
 10
13.3675
 20
63.4586
 30
0.0
 40
0
 41
0
  0
VERTEX
  8
0
 10
13.3554
 20
63.4815
 30
0.0
 40
0
 41
0
  0
VERTEX
  8
0
 10
13.3428
 20
63.5043
 30
0.0
 40
0
 41
0
  0
VERTEX
  8
0
 10
13.3293
 20
63.5271
 30
0.0
 40
0
 41
0
  0
VERTEX
  8
0
 10
13.3153
 20
63.5497
 30
0.0
 40
0
 41
0
  0
VERTEX
  8
0
 10
13.3004
 20
63.5722
 30
0.0
 40
0
 41
0
  0
VERTEX
  8
0
 10
13.285
 20
63.5947
 30
0.0
 40
0
 41
0
  0
VERTEX
  8
0
 10
13.2689
 20
63.6169
 30
0.0
 40
0
 41
0
  0
VERTEX
  8
0
 10
13.252
 20
63.639
 30
0.0
 40
0
 41
0
  0
VERTEX
  8
0
 10
13.2344
 20
63.6608
 30
0.0
 40
0
 41
0
  0
VERTEX
  8
0
 10
13.2163
 20
63.6825
 30
0.0
 40
0
 41
0
  0
VERTEX
  8
0
 10
13.1974
 20
63.7039
 30
0.0
 40
0
 41
0
  0
VERTEX
  8
0
 10
13.1778
 20
63.7251
 30
0.0
 40
0
 41
0
  0
VERTEX
  8
0
 10
13.1577
 20
63.746
 30
0.0
 40
0
 41
0
  0
VERTEX
  8
0
 10
13.1367
 20
63.7665
 30
0.0
 40
0
 41
0
  0
VERTEX
  8
0
 10
13.1151
 20
63.7868
 30
0.0
 40
0
 41
0
  0
VERTEX
  8
0
 10
13.0928
 20
63.8068
 30
0.0
 40
0
 41
0
  0
VERTEX
  8
0
 10
13.0699
 20
63.8264
 30
0.0
 40
0
 41
0
  0
VERTEX
  8
0
 10
13.0462
 20
63.8456
 30
0.0
 40
0
 41
0
  0
VERTEX
  8
0
 10
13.0221
 20
63.8644
 30
0.0
 40
0
 41
0
  0
VERTEX
  8
0
 10
12.9972
 20
63.8828
 30
0.0
 40
0
 41
0
  0
VERTEX
  8
0
 10
12.9717
 20
63.9008
 30
0.0
 40
0
 41
0
  0
VERTEX
  8
0
 10
12.9455
 20
63.9183
 30
0.0
 40
0
 41
0
  0
VERTEX
  8
0
 10
12.9187
 20
63.9354
 30
0.0
 40
0
 41
0
  0
VERTEX
  8
0
 10
12.8913
 20
63.9521
 30
0.0
 40
0
 41
0
  0
VERTEX
  8
0
 10
12.8633
 20
63.9681
 30
0.0
 40
0
 41
0
  0
VERTEX
  8
0
 10
12.8347
 20
63.9836
 30
0.0
 40
0
 41
0
  0
VERTEX
  8
0
 10
12.8056
 20
63.9986
 30
0.0
 40
0
 41
0
  0
VERTEX
  8
0
 10
12.7757
 20
64.0131
 30
0.0
 40
0
 41
0
  0
VERTEX
  8
0
 10
12.7454
 20
64.0269
 30
0.0
 40
0
 41
0
  0
VERTEX
  8
0
 10
12.7145
 20
64.0403
 30
0.0
 40
0
 41
0
  0
VERTEX
  8
0
 10
12.6831
 20
64.0529
 30
0.0
 40
0
 41
0
  0
VERTEX
  8
0
 10
12.6511
 20
64.065
 30
0.0
 40
0
 41
0
  0
VERTEX
  8
0
 10
12.6186
 20
64.0764
 30
0.0
 40
0
 41
0
  0
VERTEX
  8
0
 10
12.5856
 20
64.0871
 30
0.0
 40
0
 41
0
  0
VERTEX
  8
0
 10
12.5521
 20
64.0971
 30
0.0
 40
0
 41
0
  0
VERTEX
  8
0
 10
12.5181
 20
64.1064
 30
0.0
 40
0
 41
0
  0
VERTEX
  8
0
 10
12.4836
 20
64.115
 30
0.0
 40
0
 41
0
  0
VERTEX
  8
0
 10
12.4487
 20
64.1229
 30
0.0
 40
0
 41
0
  0
VERTEX
  8
0
 10
12.4134
 20
64.1301
 30
0.0
 40
0
 41
0
  0
VERTEX
  8
0
 10
12.3777
 20
64.1365
 30
0.0
 40
0
 41
0
  0
VERTEX
  8
0
 10
12.3415
 20
64.1421
 30
0.0
 40
0
 41
0
  0
VERTEX
  8
0
 10
12.305
 20
64.1469
 30
0.0
 40
0
 41
0
  0
VERTEX
  8
0
 10
12.2681
 20
64.151
 30
0.0
 40
0
 41
0
  0
VERTEX
  8
0
 10
12.2308
 20
64.1542
 30
0.0
 40
0
 41
0
  0
VERTEX
  8
0
 10
12.1932
 20
64.1565
 30
0.0
 40
0
 41
0
  0
VERTEX
  8
0
 10
12.1554
 20
64.1581
 30
0.0
 40
0
 41
0
  0
VERTEX
  8
0
 10
12.1172
 20
64.1588
 30
0.0
 40
0
 41
0
  0
VERTEX
  8
0
 10
12.0788
 20
64.1585
 30
0.0
 40
0
 41
0
  0
VERTEX
  8
0
 10
12.04
 20
64.1575
 30
0.0
 40
0
 41
0
  0
VERTEX
  8
0
 10
12.0011
 20
64.1556
 30
0.0
 40
0
 41
0
  0
VERTEX
  8
0
 10
11.962
 20
64.1526
 30
0.0
 40
0
 41
0
  0
VERTEX
  8
0
 10
11.9226
 20
64.1489
 30
0.0
 40
0
 41
0
  0
VERTEX
  8
0
 10
11.883
 20
64.1443
 30
0.0
 40
0
 41
0
  0
VERTEX
  8
0
 10
11.8435
 20
64.1386
 30
0.0
 40
0
 41
0
  0
VERTEX
  8
0
 10
11.8036
 20
64.1321
 30
0.0
 40
0
 41
0
  0
VERTEX
  8
0
 10
11.7637
 20
64.1246
 30
0.0
 40
0
 41
0
  0
VERTEX
  8
0
 10
11.7237
 20
64.1163
 30
0.0
 40
0
 41
0
  0
VERTEX
  8
0
 10
11.6836
 20
64.1068
 30
0.0
 40
0
 41
0
  0
VERTEX
  8
0
 10
11.6436
 20
64.0965
 30
0.0
 40
0
 41
0
  0
VERTEX
  8
0
 10
11.6035
 20
64.0851
 30
0.0
 40
0
 41
0
  0
VERTEX
  8
0
 10
11.5633
 20
64.0729
 30
0.0
 40
0
 41
0
  0
VERTEX
  8
0
 10
11.5233
 20
64.0596
 30
0.0
 40
0
 41
0
  0
VERTEX
  8
0
 10
11.4833
 20
64.0454
 30
0.0
 40
0
 41
0
  0
VERTEX
  8
0
 10
11.4434
 20
64.0301
 30
0.0
 40
0
 41
0
  0
VERTEX
  8
0
 10
11.4036
 20
64.0139
 30
0.0
 40
0
 41
0
  0
VERTEX
  8
0
 10
11.3639
 20
63.9967
 30
0.0
 40
0
 41
0
  0
VERTEX
  8
0
 10
11.3243
 20
63.9785
 30
0.0
 40
0
 41
0
  0
VERTEX
  8
0
 10
11.2849
 20
63.9593
 30
0.0
 40
0
 41
0
  0
VERTEX
  8
0
 10
11.2457
 20
63.939
 30
0.0
 40
0
 41
0
  0
VERTEX
  8
0
 10
11.2068
 20
63.9178
 30
0.0
 40
0
 41
0
  0
VERTEX
  8
0
 10
11.1681
 20
63.8957
 30
0.0
 40
0
 41
0
  0
VERTEX
  8
0
 10
11.1296
 20
63.8725
 30
0.0
 40
0
 41
0
  0
VERTEX
  8
0
 10
11.0915
 20
63.8482
 30
0.0
 40
0
 41
0
  0
VERTEX
  8
0
 10
11.0538
 20
63.8231
 30
0.0
 40
0
 41
0
  0
VERTEX
  8
0
 10
11.0163
 20
63.7969
 30
0.0
 40
0
 41
0
  0
VERTEX
  8
0
 10
10.9792
 20
63.7697
 30
0.0
 40
0
 41
0
  0
VERTEX
  8
0
 10
10.9425
 20
63.7417
 30
0.0
 40
0
 41
0
  0
VERTEX
  8
0
 10
10.9063
 20
63.7125
 30
0.0
 40
0
 41
0
  0
VERTEX
  8
0
 10
10.8704
 20
63.6825
 30
0.0
 40
0
 41
0
  0
VERTEX
  8
0
 10
10.835
 20
63.6514
 30
0.0
 40
0
 41
0
  0
VERTEX
  8
0
 10
10.8001
 20
63.6194
 30
0.0
 40
0
 41
0
  0
VERTEX
  8
0
 10
10.7658
 20
63.5865
 30
0.0
 40
0
 41
0
  0
VERTEX
  8
0
 10
10.7321
 20
63.5526
 30
0.0
 40
0
 41
0
  0
VERTEX
  8
0
 10
10.6989
 20
63.5178
 30
0.0
 40
0
 41
0
  0
VERTEX
  8
0
 10
10.6662
 20
63.4821
 30
0.0
 40
0
 41
0
  0
VERTEX
  8
0
 10
10.6343
 20
63.4454
 30
0.0
 40
0
 41
0
  0
VERTEX
  8
0
 10
10.6031
 20
63.4078
 30
0.0
 40
0
 41
0
  0
VERTEX
  8
0
 10
10.5724
 20
63.3693
 30
0.0
 40
0
 41
0
  0
VERTEX
  8
0
 10
10.5424
 20
63.33
 30
0.0
 40
0
 41
0
  0
VERTEX
  8
0
 10
10.5131
 20
63.2899
 30
0.0
 40
0
 41
0
  0
VERTEX
  8
0
 10
10.4846
 20
63.2488
 30
0.0
 40
0
 41
0
  0
VERTEX
  8
0
 10
10.4568
 20
63.2068
 30
0.0
 40
0
 41
0
  0
VERTEX
  8
0
 10
10.4298
 20
63.1642
 30
0.0
 40
0
 41
0
  0
VERTEX
  8
0
 10
10.4038
 20
63.1206
 30
0.0
 40
0
 41
0
  0
VERTEX
  8
0
 10
10.3783
 20
63.0763
 30
0.0
 40
0
 41
0
  0
VERTEX
  8
0
 10
10.3539
 20
63.0311
 30
0.0
 40
0
 41
0
  0
VERTEX
  8
0
 10
10.3303
 20
62.9853
 30
0.0
 40
0
 41
0
  0
VERTEX
  8
0
 10
10.3076
 20
62.9386
 30
0.0
 40
0
 41
0
  0
VERTEX
  8
0
 10
10.2858
 20
62.8912
 30
0.0
 40
0
 41
0
  0
VERTEX
  8
0
 10
10.265
 20
62.8432
 30
0.0
 40
0
 41
0
  0
VERTEX
  8
0
 10
10.245
 20
62.7944
 30
0.0
 40
0
 41
0
  0
VERTEX
  8
0
 10
10.2261
 20
62.7449
 30
0.0
 40
0
 41
0
  0
VERTEX
  8
0
 10
10.2082
 20
62.6949
 30
0.0
 40
0
 41
0
  0
VERTEX
  8
0
 10
10.1914
 20
62.644
 30
0.0
 40
0
 41
0
  0
VERTEX
  8
0
 10
10.1754
 20
62.5926
 30
0.0
 40
0
 41
0
  0
VERTEX
  8
0
 10
10.1607
 20
62.5407
 30
0.0
 40
0
 41
0
  0
VERTEX
  8
0
 10
10.1469
 20
62.4882
 30
0.0
 40
0
 41
0
  0
VERTEX
  8
0
 10
10.1343
 20
62.4351
 30
0.0
 40
0
 41
0
  0
VERTEX
  8
0
 10
10.1228
 20
62.3815
 30
0.0
 40
0
 41
0
  0
VERTEX
  8
0
 10
10.1124
 20
62.3274
 30
0.0
 40
0
 41
0
  0
VERTEX
  8
0
 10
10.1032
 20
62.2728
 30
0.0
 40
0
 41
0
  0
VERTEX
  8
0
 10
10.095
 20
62.2178
 30
0.0
 40
0
 41
0
  0
VERTEX
  8
0
 10
10.0881
 20
62.1624
 30
0.0
 40
0
 41
0
  0
VERTEX
  8
0
 10
10.0824
 20
62.1064
 30
0.0
 40
0
 41
0
  0
VERTEX
  8
0
 10
10.0778
 20
62.0501
 30
0.0
 40
0
 41
0
  0
VERTEX
  8
0
 10
10.0744
 20
61.9936
 30
0.0
 40
0
 41
0
  0
VERTEX
  8
0
 10
10.0724
 20
61.9367
 30
0.0
 40
0
 41
0
  0
VERTEX
  8
0
 10
10.0715
 20
61.8794
 30
0.0
 40
0
 41
0
  0
VERTEX
  8
0
 10
10.0718
 20
61.8218
 30
0.0
 40
0
 41
0
  0
VERTEX
  8
0
 10
10.0735
 20
61.764
 30
0.0
 40
0
 41
0
  0
VERTEX
  8
0
 10
10.0764
 20
61.7061
 30
0.0
 40
0
 41
0
  0
VERTEX
  8
0
 10
10.0806
 20
61.6479
 30
0.0
 40
0
 41
0
  0
VERTEX
  8
0
 10
10.0861
 20
61.5896
 30
0.0
 40
0
 41
0
  0
VERTEX
  8
0
 10
10.0929
 20
61.5311
 30
0.0
 40
0
 41
0
  0
VERTEX
  8
0
 10
10.101
 20
61.4725
 30
0.0
 40
0
 41
0
  0
VERTEX
  8
0
 10
10.1104
 20
61.4139
 30
0.0
 40
0
 41
0
  0
VERTEX
  8
0
 10
10.1211
 20
61.3551
 30
0.0
 40
0
 41
0
  0
VERTEX
  8
0
 10
10.1332
 20
61.2965
 30
0.0
 40
0
 41
0
  0
VERTEX
  8
0
 10
10.1467
 20
61.2378
 30
0.0
 40
0
 41
0
  0
VERTEX
  8
0
 10
10.1614
 20
61.179
 30
0.0
 40
0
 41
0
  0
VERTEX
  8
0
 10
10.1775
 20
61.1206
 30
0.0
 40
0
 41
0
  0
VERTEX
  8
0
 10
10.1949
 20
61.0621
 30
0.0
 40
0
 41
0
  0
VERTEX
  8
0
 10
10.2136
 20
61.0038
 30
0.0
 40
0
 41
0
  0
VERTEX
  8
0
 10
10.2337
 20
60.9456
 30
0.0
 40
0
 41
0
  0
VERTEX
  8
0
 10
10.2553
 20
60.8875
 30
0.0
 40
0
 41
0
  0
VERTEX
  8
0
 10
10.2781
 20
60.8297
 30
0.0
 40
0
 41
0
  0
VERTEX
  8
0
 10
10.3023
 20
60.7722
 30
0.0
 40
0
 41
0
  0
VERTEX
  8
0
 10
10.3278
 20
60.7151
 30
0.0
 40
0
 41
0
  0
VERTEX
  8
0
 10
10.3547
 20
60.6582
 30
0.0
 40
0
 41
0
  0
VERTEX
  8
0
 10
10.3829
 20
60.6017
 30
0.0
 40
0
 41
0
  0
VERTEX
  8
0
 10
10.4125
 20
60.5456
 30
0.0
 40
0
 41
0
  0
VERTEX
  8
0
 10
10.4435
 20
60.4899
 30
0.0
 40
0
 41
0
  0
VERTEX
  8
0
 10
10.4757
 20
60.4346
 30
0.0
 40
0
 41
0
  0
VERTEX
  8
0
 10
10.5093
 20
60.3799
 30
0.0
 40
0
 41
0
  0
VERTEX
  8
0
 10
10.5442
 20
60.3256
 30
0.0
 40
0
 41
0
  0
VERTEX
  8
0
 10
10.5804
 20
60.2718
 30
0.0
 40
0
 41
0
  0
VERTEX
  8
0
 10
10.6179
 20
60.2188
 30
0.0
 40
0
 41
0
  0
VERTEX
  8
0
 10
10.6568
 20
60.1661
 30
0.0
 40
0
 41
0
  0
VERTEX
  8
0
 10
10.6969
 20
60.1143
 30
0.0
 40
0
 41
0
  0
VERTEX
  8
0
 10
10.7383
 20
60.0631
 30
0.0
 40
0
 41
0
  0
VERTEX
  8
0
 10
10.781
 20
60.0125
 30
0.0
 40
0
 41
0
  0
VERTEX
  8
0
 10
10.825
 20
59.9626
 30
0.0
 40
0
 41
0
  0
VERTEX
  8
0
 10
10.8701
 20
59.9136
 30
0.0
 40
0
 41
0
  0
VERTEX
  8
0
 10
10.9165
 20
59.8654
 30
0.0
 40
0
 41
0
  0
VERTEX
  8
0
 10
10.9643
 20
59.8181
 30
0.0
 40
0
 41
0
  0
VERTEX
  8
0
 10
11.0131
 20
59.7715
 30
0.0
 40
0
 41
0
  0
VERTEX
  8
0
 10
11.0632
 20
59.7258
 30
0.0
 40
0
 41
0
  0
VERTEX
  8
0
 10
11.1144
 20
59.6811
 30
0.0
 40
0
 41
0
  0
VERTEX
  8
0
 10
11.1668
 20
59.6372
 30
0.0
 40
0
 41
0
  0
VERTEX
  8
0
 10
11.2203
 20
59.5944
 30
0.0
 40
0
 41
0
  0
VERTEX
  8
0
 10
11.275
 20
59.5525
 30
0.0
 40
0
 41
0
  0
VERTEX
  8
0
 10
11.3308
 20
59.5118
 30
0.0
 40
0
 41
0
  0
VERTEX
  8
0
 10
11.3876
 20
59.4719
 30
0.0
 40
0
 41
0
  0
VERTEX
  8
0
 10
11.4455
 20
59.4333
 30
0.0
 40
0
 41
0
  0
VERTEX
  8
0
 10
11.5046
 20
59.3958
 30
0.0
 40
0
 41
0
  0
VERTEX
  8
0
 10
11.5646
 20
59.3594
 30
0.0
 40
0
 41
0
  0
VERTEX
  8
0
 10
11.6255
 20
59.3242
 30
0.0
 40
0
 41
0
  0
VERTEX
  8
0
 10
11.6877
 20
59.2901
 30
0.0
 40
0
 41
0
  0
VERTEX
  8
0
 10
11.7505
 20
59.2572
 30
0.0
 40
0
 41
0
  0
VERTEX
  8
0
 10
11.8145
 20
59.2257
 30
0.0
 40
0
 41
0
  0
VERTEX
  8
0
 10
11.8792
 20
59.1954
 30
0.0
 40
0
 41
0
  0
VERTEX
  8
0
 10
11.9449
 20
59.1664
 30
0.0
 40
0
 41
0
  0
VERTEX
  8
0
 10
12.0114
 20
59.1386
 30
0.0
 40
0
 41
0
  0
VERTEX
  8
0
 10
12.0789
 20
59.1122
 30
0.0
 40
0
 41
0
  0
VERTEX
  8
0
 10
12.1469
 20
59.0872
 30
0.0
 40
0
 41
0
  0
VERTEX
  8
0
 10
12.216
 20
59.0636
 30
0.0
 40
0
 41
0
  0
VERTEX
  8
0
 10
12.2857
 20
59.0414
 30
0.0
 40
0
 41
0
  0
VERTEX
  8
0
 10
12.3561
 20
59.0207
 30
0.0
 40
0
 41
0
  0
VERTEX
  8
0
 10
12.4273
 20
59.0014
 30
0.0
 40
0
 41
0
  0
VERTEX
  8
0
 10
12.499
 20
58.9835
 30
0.0
 40
0
 41
0
  0
VERTEX
  8
0
 10
12.5714
 20
58.9671
 30
0.0
 40
0
 41
0
  0
VERTEX
  8
0
 10
12.6444
 20
58.9522
 30
0.0
 40
0
 41
0
  0
VERTEX
  8
0
 10
12.718
 20
58.9389
 30
0.0
 40
0
 41
0
  0
VERTEX
  8
0
 10
12.7921
 20
58.9271
 30
0.0
 40
0
 41
0
  0
VERTEX
  8
0
 10
12.8668
 20
58.9169
 30
0.0
 40
0
 41
0
  0
VERTEX
  8
0
 10
12.9418
 20
58.9082
 30
0.0
 40
0
 41
0
  0
VERTEX
  8
0
 10
13.0174
 20
58.9011
 30
0.0
 40
0
 41
0
  0
VERTEX
  8
0
 10
13.0933
 20
58.8957
 30
0.0
 40
0
 41
0
  0
VERTEX
  8
0
 10
13.1696
 20
58.8918
 30
0.0
 40
0
 41
0
  0
VERTEX
  8
0
 10
13.2462
 20
58.8896
 30
0.0
 40
0
 41
0
  0
VERTEX
  8
0
 10
13.3232
 20
58.889
 30
0.0
 40
0
 41
0
  0
VERTEX
  8
0
 10
13.4004
 20
58.8901
 30
0.0
 40
0
 41
0
  0
VERTEX
  8
0
 10
13.4778
 20
58.8929
 30
0.0
 40
0
 41
0
  0
VERTEX
  8
0
 10
13.5554
 20
58.8974
 30
0.0
 40
0
 41
0
  0
VERTEX
  8
0
 10
13.6332
 20
58.9035
 30
0.0
 40
0
 41
0
  0
VERTEX
  8
0
 10
13.7111
 20
58.9112
 30
0.0
 40
0
 41
0
  0
VERTEX
  8
0
 10
13.7892
 20
58.9207
 30
0.0
 40
0
 41
0
  0
VERTEX
  8
0
 10
13.8671
 20
58.9319
 30
0.0
 40
0
 41
0
  0
VERTEX
  8
0
 10
13.9451
 20
58.9449
 30
0.0
 40
0
 41
0
  0
VERTEX
  8
0
 10
14.0232
 20
58.9596
 30
0.0
 40
0
 41
0
  0
VERTEX
  8
0
 10
14.1011
 20
58.976
 30
0.0
 40
0
 41
0
  0
VERTEX
  8
0
 10
14.1789
 20
58.994
 30
0.0
 40
0
 41
0
  0
VERTEX
  8
0
 10
14.2567
 20
59.0139
 30
0.0
 40
0
 41
0
  0
VERTEX
  8
0
 10
14.3342
 20
59.0354
 30
0.0
 40
0
 41
0
  0
VERTEX
  8
0
 10
14.4114
 20
59.0588
 30
0.0
 40
0
 41
0
  0
VERTEX
  8
0
 10
14.4885
 20
59.0837
 30
0.0
 40
0
 41
0
  0
VERTEX
  8
0
 10
14.5651
 20
59.1106
 30
0.0
 40
0
 41
0
  0
VERTEX
  8
0
 10
14.6415
 20
59.1392
 30
0.0
 40
0
 41
0
  0
VERTEX
  8
0
 10
14.7176
 20
59.1693
 30
0.0
 40
0
 41
0
  0
VERTEX
  8
0
 10
14.7932
 20
59.2013
 30
0.0
 40
0
 41
0
  0
VERTEX
  8
0
 10
14.8683
 20
59.235
 30
0.0
 40
0
 41
0
  0
VERTEX
  8
0
 10
14.9429
 20
59.2704
 30
0.0
 40
0
 41
0
  0
VERTEX
  8
0
 10
15.0171
 20
59.3075
 30
0.0
 40
0
 41
0
  0
VERTEX
  8
0
 10
15.0906
 20
59.3464
 30
0.0
 40
0
 41
0
  0
VERTEX
  8
0
 10
15.1636
 20
59.3868
 30
0.0
 40
0
 41
0
  0
VERTEX
  8
0
 10
15.2358
 20
59.429
 30
0.0
 40
0
 41
0
  0
VERTEX
  8
0
 10
15.3074
 20
59.4729
 30
0.0
 40
0
 41
0
  0
VERTEX
  8
0
 10
15.3783
 20
59.5185
 30
0.0
 40
0
 41
0
  0
VERTEX
  8
0
 10
15.4483
 20
59.5657
 30
0.0
 40
0
 41
0
  0
VERTEX
  8
0
 10
15.5176
 20
59.6146
 30
0.0
 40
0
 41
0
  0
VERTEX
  8
0
 10
15.5861
 20
59.665
 30
0.0
 40
0
 41
0
  0
VERTEX
  8
0
 10
15.6536
 20
59.7171
 30
0.0
 40
0
 41
0
  0
VERTEX
  8
0
 10
15.7203
 20
59.7708
 30
0.0
 40
0
 41
0
  0
VERTEX
  8
0
 10
15.786
 20
59.8261
 30
0.0
 40
0
 41
0
  0
VERTEX
  8
0
 10
15.8507
 20
59.8831
 30
0.0
 40
0
 41
0
  0
VERTEX
  8
0
 10
15.9143
 20
59.9414
 30
0.0
 40
0
 41
0
  0
VERTEX
  8
0
 10
15.9769
 20
60.0014
 30
0.0
 40
0
 41
0
  0
VERTEX
  8
0
 10
16.0385
 20
60.0628
 30
0.0
 40
0
 41
0
  0
VERTEX
  8
0
 10
16.0987
 20
60.1258
 30
0.0
 40
0
 41
0
  0
VERTEX
  8
0
 10
16.1579
 20
60.1903
 30
0.0
 40
0
 41
0
  0
VERTEX
  8
0
 10
16.216
 20
60.2561
 30
0.0
 40
0
 41
0
  0
VERTEX
  8
0
 10
16.2726
 20
60.3235
 30
0.0
 40
0
 41
0
  0
VERTEX
  8
0
 10
16.3281
 20
60.3921
 30
0.0
 40
0
 41
0
  0
VERTEX
  8
0
 10
16.3822
 20
60.4622
 30
0.0
 40
0
 41
0
  0
VERTEX
  8
0
 10
16.435
 20
60.5338
 30
0.0
 40
0
 41
0
  0
VERTEX
  8
0
 10
16.4864
 20
60.6065
 30
0.0
 40
0
 41
0
  0
VERTEX
  8
0
 10
16.5364
 20
60.6806
 30
0.0
 40
0
 41
0
  0
VERTEX
  8
0
 10
16.5849
 20
60.756
 30
0.0
 40
0
 41
0
  0
VERTEX
  8
0
 10
16.6319
 20
60.8326
 30
0.0
 40
0
 41
0
  0
VERTEX
  8
0
 10
16.6774
 20
60.9104
 30
0.0
 40
0
 41
0
  0
VERTEX
  8
0
 10
16.7214
 20
60.9896
 30
0.0
 40
0
 41
0
  0
VERTEX
  8
0
 10
16.7639
 20
61.0697
 30
0.0
 40
0
 41
0
  0
VERTEX
  8
0
 10
16.8047
 20
61.1511
 30
0.0
 40
0
 41
0
  0
VERTEX
  8
0
 10
16.8439
 20
61.2335
 30
0.0
 40
0
 41
0
  0
VERTEX
  8
0
 10
16.8814
 20
61.3169
 30
0.0
 40
0
 41
0
  0
VERTEX
  8
0
 10
16.9172
 20
61.4015
 30
0.0
 40
0
 41
0
  0
VERTEX
  8
0
 10
16.9514
 20
61.4869
 30
0.0
 40
0
 41
0
  0
VERTEX
  8
0
 10
16.9837
 20
61.5735
 30
0.0
 40
0
 41
0
  0
VERTEX
  8
0
 10
17.0144
 20
61.6608
 30
0.0
 40
0
 41
0
  0
VERTEX
  8
0
 10
17.0433
 20
61.7492
 30
0.0
 40
0
 41
0
  0
VERTEX
  8
0
 10
17.0704
 20
61.8383
 30
0.0
 40
0
 41
0
  0
VERTEX
  8
0
 10
17.0956
 20
61.9283
 30
0.0
 40
0
 41
0
  0
VERTEX
  8
0
 10
17.1189
 20
62.019
 30
0.0
 40
0
 41
0
  0
VERTEX
  8
0
 10
17.1404
 20
62.1106
 30
0.0
 40
0
 41
0
  0
VERTEX
  8
0
 10
17.16
 20
62.2028
 30
0.0
 40
0
 41
0
  0
VERTEX
  8
0
 10
17.1776
 20
62.2956
 30
0.0
 40
0
 41
0
  0
VERTEX
  8
0
 10
17.1933
 20
62.389
 30
0.0
 40
0
 41
0
  0
VERTEX
  8
0
 10
17.2071
 20
62.4832
 30
0.0
 40
0
 41
0
  0
VERTEX
  8
0
 10
17.2189
 20
62.5778
 30
0.0
 40
0
 41
0
  0
VERTEX
  8
0
 10
17.2287
 20
62.6728
 30
0.0
 40
0
 41
0
  0
VERTEX
  8
0
 10
17.2365
 20
62.7683
 30
0.0
 40
0
 41
0
  0
VERTEX
  8
0
 10
17.2422
 20
62.8643
 30
0.0
 40
0
 41
0
  0
VERTEX
  8
0
 10
17.246
 20
62.9607
 30
0.0
 40
0
 41
0
  0
VERTEX
  8
0
 10
17.2476
 20
63.0574
 30
0.0
 40
0
 41
0
  0
VERTEX
  8
0
 10
17.2474
 20
63.1543
 30
0.0
 40
0
 41
0
  0
VERTEX
  8
0
 10
17.2449
 20
63.2515
 30
0.0
 40
0
 41
0
  0
VERTEX
  8
0
 10
17.2403
 20
63.3489
 30
0.0
 40
0
 41
0
  0
VERTEX
  8
0
 10
17.2337
 20
63.4465
 30
0.0
 40
0
 41
0
  0
VERTEX
  8
0
 10
17.225
 20
63.5442
 30
0.0
 40
0
 41
0
  0
VERTEX
  8
0
 10
17.2142
 20
63.6418
 30
0.0
 40
0
 41
0
  0
VERTEX
  8
0
 10
17.2012
 20
63.7396
 30
0.0
 40
0
 41
0
  0
VERTEX
  8
0
 10
17.1861
 20
63.8372
 30
0.0
 40
0
 41
0
  0
VERTEX
  8
0
 10
17.169
 20
63.9349
 30
0.0
 40
0
 41
0
  0
VERTEX
  8
0
 10
17.1497
 20
64.0324
 30
0.0
 40
0
 41
0
  0
VERTEX
  8
0
 10
17.1282
 20
64.1297
 30
0.0
 40
0
 41
0
  0
VERTEX
  8
0
 10
17.1046
 20
64.2268
 30
0.0
 40
0
 41
0
  0
VERTEX
  8
0
 10
17.0789
 20
64.3236
 30
0.0
 40
0
 41
0
  0
VERTEX
  8
0
 10
17.0511
 20
64.4203
 30
0.0
 40
0
 41
0
  0
VERTEX
  8
0
 10
17.0211
 20
64.5164
 30
0.0
 40
0
 41
0
  0
VERTEX
  8
0
 10
16.989
 20
64.6122
 30
0.0
 40
0
 41
0
  0
VERTEX
  8
0
 10
16.9549
 20
64.7075
 30
0.0
 40
0
 41
0
  0
VERTEX
  8
0
 10
16.9185
 20
64.8024
 30
0.0
 40
0
 41
0
  0
VERTEX
  8
0
 10
16.8801
 20
64.8967
 30
0.0
 40
0
 41
0
  0
VERTEX
  8
0
 10
16.8396
 20
64.9904
 30
0.0
 40
0
 41
0
  0
VERTEX
  8
0
 10
16.7969
 20
65.0835
 30
0.0
 40
0
 41
0
  0
VERTEX
  8
0
 10
16.7522
 20
65.1758
 30
0.0
 40
0
 41
0
  0
VERTEX
  8
0
 10
16.7054
 20
65.2675
 30
0.0
 40
0
 41
0
  0
VERTEX
  8
0
 10
16.6565
 20
65.3583
 30
0.0
 40
0
 41
0
  0
VERTEX
  8
0
 10
16.6056
 20
65.4485
 30
0.0
 40
0
 41
0
  0
VERTEX
  8
0
 10
16.5526
 20
65.5376
 30
0.0
 40
0
 41
0
  0
VERTEX
  8
0
 10
16.4976
 20
65.6258
 30
0.0
 40
0
 41
0
  0
VERTEX
  8
0
 10
16.4406
 20
65.7132
 30
0.0
 40
0
 41
0
  0
VERTEX
  8
0
 10
16.3815
 20
65.7994
 30
0.0
 40
0
 41
0
  0
VERTEX
  8
0
 10
16.3206
 20
65.8847
 30
0.0
 40
0
 41
0
  0
VERTEX
  8
0
 10
16.2576
 20
65.9689
 30
0.0
 40
0
 41
0
  0
VERTEX
  8
0
 10
16.1928
 20
66.0518
 30
0.0
 40
0
 41
0
  0
VERTEX
  8
0
 10
16.126
 20
66.1336
 30
0.0
 40
0
 41
0
  0
VERTEX
  8
0
 10
16.0572
 20
66.2142
 30
0.0
 40
0
 41
0
  0
VERTEX
  8
0
 10
15.9867
 20
66.2935
 30
0.0
 40
0
 41
0
  0
VERTEX
  8
0
 10
15.9143
 20
66.3715
 30
0.0
 40
0
 41
0
  0
VERTEX
  8
0
 10
15.84
 20
66.4482
 30
0.0
 40
0
 41
0
  0
VERTEX
  8
0
 10
15.7639
 20
66.5233
 30
0.0
 40
0
 41
0
  0
VERTEX
  8
0
 10
15.6861
 20
66.5971
 30
0.0
 40
0
 41
0
  0
VERTEX
  8
0
 10
15.6064
 20
66.6694
 30
0.0
 40
0
 41
0
  0
VERTEX
  8
0
 10
15.5251
 20
66.7401
 30
0.0
 40
0
 41
0
  0
VERTEX
  8
0
 10
15.4421
 20
66.8093
 30
0.0
 40
0
 41
0
  0
VERTEX
  8
0
 10
15.3575
 20
66.8769
 30
0.0
 40
0
 41
0
  0
VERTEX
  8
0
 10
15.2711
 20
66.9428
 30
0.0
 40
0
 41
0
  0
VERTEX
  8
0
 10
15.1832
 20
67.0071
 30
0.0
 40
0
 41
0
  0
VERTEX
  8
0
 10
15.0938
 20
67.0696
 30
0.0
 40
0
 41
0
  0
VERTEX
  8
0
 10
15.0028
 20
67.1303
 30
0.0
 40
0
 41
0
  0
VERTEX
  8
0
 10
14.9103
 20
67.1893
 30
0.0
 40
0
 41
0
  0
VERTEX
  8
0
 10
14.8163
 20
67.2464
 30
0.0
 40
0
 41
0
  0
VERTEX
  8
0
 10
14.7208
 20
67.3017
 30
0.0
 40
0
 41
0
  0
VERTEX
  8
0
 10
14.6242
 20
67.355
 30
0.0
 40
0
 41
0
  0
VERTEX
  8
0
 10
14.526
 20
67.4063
 30
0.0
 40
0
 41
0
  0
VERTEX
  8
0
 10
14.4265
 20
67.4557
 30
0.0
 40
0
 41
0
  0
VERTEX
  8
0
 10
14.3258
 20
67.5032
 30
0.0
 40
0
 41
0
  0
VERTEX
  8
0
 10
14.2239
 20
67.5485
 30
0.0
 40
0
 41
0
  0
VERTEX
  8
0
 10
14.1207
 20
67.5918
 30
0.0
 40
0
 41
0
  0
VERTEX
  8
0
 10
14.0165
 20
67.6331
 30
0.0
 40
0
 41
0
  0
VERTEX
  8
0
 10
13.9111
 20
67.6721
 30
0.0
 40
0
 41
0
  0
VERTEX
  8
0
 10
13.8046
 20
67.709
 30
0.0
 40
0
 41
0
  0
VERTEX
  8
0
 10
13.6972
 20
67.7437
 30
0.0
 40
0
 41
0
  0
VERTEX
  8
0
 10
13.5888
 20
67.7763
 30
0.0
 40
0
 41
0
  0
VERTEX
  8
0
 10
13.4793
 20
67.8065
 30
0.0
 40
0
 41
0
  0
VERTEX
  8
0
 10
13.3691
 20
67.8346
 30
0.0
 40
0
 41
0
  0
VERTEX
  8
0
 10
13.258
 20
67.8603
 30
0.0
 40
0
 41
0
  0
VERTEX
  8
0
 10
13.1461
 20
67.8837
 30
0.0
 40
0
 41
0
  0
VERTEX
  8
0
 10
13.0336
 20
67.9049
 30
0.0
 40
0
 41
0
  0
VERTEX
  8
0
 10
12.9203
 20
67.9236
 30
0.0
 40
0
 41
0
  0
VERTEX
  8
0
 10
12.8063
 20
67.94
 30
0.0
 40
0
 41
0
  0
VERTEX
  8
0
 10
12.6918
 20
67.9539
 30
0.0
 40
0
 41
0
  0
VERTEX
  8
0
 10
12.5767
 20
67.9656
 30
0.0
 40
0
 41
0
  0
VERTEX
  8
0
 10
12.4611
 20
67.9747
 30
0.0
 40
0
 41
0
  0
VERTEX
  8
0
 10
12.3452
 20
67.9814
 30
0.0
 40
0
 41
0
  0
VERTEX
  8
0
 10
12.2287
 20
67.9857
 30
0.0
 40
0
 41
0
  0
VERTEX
  8
0
 10
12.1121
 20
67.9875
 30
0.0
 40
0
 41
0
  0
VERTEX
  8
0
 10
11.995
 20
67.9869
 30
0.0
 40
0
 41
0
  0
VERTEX
  8
0
 10
11.8778
 20
67.9838
 30
0.0
 40
0
 41
0
  0
VERTEX
  8
0
 10
11.7604
 20
67.9781
 30
0.0
 40
0
 41
0
  0
VERTEX
  8
0
 10
11.6429
 20
67.97
 30
0.0
 40
0
 41
0
  0
VERTEX
  8
0
 10
11.5253
 20
67.9593
 30
0.0
 40
0
 41
0
  0
VERTEX
  8
0
 10
11.4077
 20
67.9461
 30
0.0
 40
0
 41
0
  0
VERTEX
  8
0
 10
11.29
 20
67.9304
 30
0.0
 40
0
 41
0
  0
VERTEX
  8
0
 10
11.1725
 20
67.9121
 30
0.0
 40
0
 41
0
  0
VERTEX
  8
0
 10
11.0551
 20
67.8914
 30
0.0
 40
0
 41
0
  0
VERTEX
  8
0
 10
10.938
 20
67.8681
 30
0.0
 40
0
 41
0
  0
VERTEX
  8
0
 10
10.8211
 20
67.8422
 30
0.0
 40
0
 41
0
  0
VERTEX
  8
0
 10
10.7046
 20
67.8137
 30
0.0
 40
0
 41
0
  0
VERTEX
  8
0
 10
10.5883
 20
67.7828
 30
0.0
 40
0
 41
0
  0
VERTEX
  8
0
 10
10.4725
 20
67.7494
 30
0.0
 40
0
 41
0
  0
VERTEX
  8
0
 10
10.3572
 20
67.7135
 30
0.0
 40
0
 41
0
  0
VERTEX
  8
0
 10
10.2425
 20
67.6749
 30
0.0
 40
0
 41
0
  0
VERTEX
  8
0
 10
10.1282
 20
67.6339
 30
0.0
 40
0
 41
0
  0
VERTEX
  8
0
 10
10.0147
 20
67.5904
 30
0.0
 40
0
 41
0
  0
VERTEX
  8
0
 10
9.90181
 20
67.5443
 30
0.0
 40
0
 41
0
  0
VERTEX
  8
0
 10
9.78971
 20
67.4958
 30
0.0
 40
0
 41
0
  0
VERTEX
  8
0
 10
9.67833
 20
67.4449
 30
0.0
 40
0
 41
0
  0
VERTEX
  8
0
 10
9.56793
 20
67.3914
 30
0.0
 40
0
 41
0
  0
VERTEX
  8
0
 10
9.4585
 20
67.3354
 30
0.0
 40
0
 41
0
  0
VERTEX
  8
0
 10
9.34987
 20
67.2771
 30
0.0
 40
0
 41
0
  0
VERTEX
  8
0
 10
9.24235
 20
67.2164
 30
0.0
 40
0
 41
0
  0
VERTEX
  8
0
 10
9.13585
 20
67.1532
 30
0.0
 40
0
 41
0
  0
VERTEX
  8
0
 10
9.03054
 20
67.0876
 30
0.0
 40
0
 41
0
  0
VERTEX
  8
0
 10
8.92637
 20
67.0197
 30
0.0
 40
0
 41
0
  0
VERTEX
  8
0
 10
8.82346
 20
66.9494
 30
0.0
 40
0
 41
0
  0
VERTEX
  8
0
 10
8.72194
 20
66.8768
 30
0.0
 40
0
 41
0
  0
VERTEX
  8
0
 10
8.62169
 20
66.8019
 30
0.0
 40
0
 41
0
  0
VERTEX
  8
0
 10
8.52279
 20
66.7249
 30
0.0
 40
0
 41
0
  0
VERTEX
  8
0
 10
8.42529
 20
66.6454
 30
0.0
 40
0
 41
0
  0
VERTEX
  8
0
 10
8.32943
 20
66.5637
 30
0.0
 40
0
 41
0
  0
VERTEX
  8
0
 10
8.23503
 20
66.48
 30
0.0
 40
0
 41
0
  0
VERTEX
  8
0
 10
8.14219
 20
66.394
 30
0.0
 40
0
 41
0
  0
VERTEX
  8
0
 10
8.05111
 20
66.3058
 30
0.0
 40
0
 41
0
  0
VERTEX
  8
0
 10
7.96164
 20
66.2157
 30
0.0
 40
0
 41
0
  0
VERTEX
  8
0
 10
7.87392
 20
66.1233
 30
0.0
 40
0
 41
0
  0
VERTEX
  8
0
 10
7.78803
 20
66.029
 30
0.0
 40
0
 41
0
  0
VERTEX
  8
0
 10
7.70389
 20
65.9328
 30
0.0
 40
0
 41
0
  0
VERTEX
  8
0
 10
7.62181
 20
65.8344
 30
0.0
 40
0
 41
0
  0
VERTEX
  8
0
 10
7.5415
 20
65.7342
 30
0.0
 40
0
 41
0
  0
VERTEX
  8
0
 10
7.46322
 20
65.6321
 30
0.0
 40
0
 41
0
  0
VERTEX
  8
0
 10
7.38693
 20
65.5282
 30
0.0
 40
0
 41
0
  0
VERTEX
  8
0
 10
7.31278
 20
65.4224
 30
0.0
 40
0
 41
0
  0
VERTEX
  8
0
 10
7.24067
 20
65.3149
 30
0.0
 40
0
 41
0
  0
VERTEX
  8
0
 10
7.17068
 20
65.2056
 30
0.0
 40
0
 41
0
  0
VERTEX
  8
0
 10
7.10292
 20
65.0946
 30
0.0
 40
0
 41
0
  0
VERTEX
  8
0
 10
7.03738
 20
64.9819
 30
0.0
 40
0
 41
0
  0
VERTEX
  8
0
 10
6.97418
 20
64.8678
 30
0.0
 40
0
 41
0
  0
VERTEX
  8
0
 10
6.91319
 20
64.7519
 30
0.0
 40
0
 41
0
  0
VERTEX
  8
0
 10
6.85444
 20
64.6347
 30
0.0
 40
0
 41
0
  0
VERTEX
  8
0
 10
6.79818
 20
64.516
 30
0.0
 40
0
 41
0
  0
VERTEX
  8
0
 10
6.74447
 20
64.3958
 30
0.0
 40
0
 41
0
  0
VERTEX
  8
0
 10
6.69303
 20
64.2743
 30
0.0
 40
0
 41
0
  0
VERTEX
  8
0
 10
6.64415
 20
64.1515
 30
0.0
 40
0
 41
0
  0
VERTEX
  8
0
 10
6.59776
 20
64.0274
 30
0.0
 40
0
 41
0
  0
VERTEX
  8
0
 10
6.55388
 20
63.9021
 30
0.0
 40
0
 41
0
  0
VERTEX
  8
0
 10
6.51264
 20
63.7757
 30
0.0
 40
0
 41
0
  0
VERTEX
  8
0
 10
6.47401
 20
63.6482
 30
0.0
 40
0
 41
0
  0
VERTEX
  8
0
 10
6.43793
 20
63.5196
 30
0.0
 40
0
 41
0
  0
VERTEX
  8
0
 10
6.40457
 20
63.39
 30
0.0
 40
0
 41
0
  0
VERTEX
  8
0
 10
6.37392
 20
63.2594
 30
0.0
 40
0
 41
0
  0
VERTEX
  8
0
 10
6.34597
 20
63.1279
 30
0.0
 40
0
 41
0
  0
VERTEX
  8
0
 10
6.32069
 20
62.9957
 30
0.0
 40
0
 41
0
  0
VERTEX
  8
0
 10
6.29818
 20
62.8626
 30
0.0
 40
0
 41
0
  0
VERTEX
  8
0
 10
6.27849
 20
62.7289
 30
0.0
 40
0
 41
0
  0
VERTEX
  8
0
 10
6.26167
 20
62.5946
 30
0.0
 40
0
 41
0
  0
VERTEX
  8
0
 10
6.2475
 20
62.4596
 30
0.0
 40
0
 41
0
  0
VERTEX
  8
0
 10
6.23628
 20
62.324
 30
0.0
 40
0
 41
0
  0
VERTEX
  8
0
 10
6.22792
 20
62.1881
 30
0.0
 40
0
 41
0
  0
VERTEX
  8
0
 10
6.22239
 20
62.0517
 30
0.0
 40
0
 41
0
  0
VERTEX
  8
0
 10
6.21972
 20
61.9149
 30
0.0
 40
0
 41
0
  0
VERTEX
  8
0
 10
6.22
 20
61.7778
 30
0.0
 40
0
 41
0
  0
VERTEX
  8
0
 10
6.22319
 20
61.6404
 30
0.0
 40
0
 41
0
  0
VERTEX
  8
0
 10
6.22917
 20
61.5029
 30
0.0
 40
0
 41
0
  0
VERTEX
  8
0
 10
6.23817
 20
61.3653
 30
0.0
 40
0
 41
0
  0
VERTEX
  8
0
 10
6.25017
 20
61.2276
 30
0.0
 40
0
 41
0
  0
VERTEX
  8
0
 10
6.26497
 20
61.09
 30
0.0
 40
0
 41
0
  0
VERTEX
  8
0
 10
6.28276
 20
60.9525
 30
0.0
 40
0
 41
0
  0
VERTEX
  8
0
 10
6.3036
 20
60.815
 30
0.0
 40
0
 41
0
  0
VERTEX
  8
0
 10
6.32721
 20
60.6778
 30
0.0
 40
0
 41
0
  0
VERTEX
  8
0
 10
6.35389
 20
60.5408
 30
0.0
 40
0
 41
0
  0
VERTEX
  8
0
 10
6.38346
 20
60.4043
 30
0.0
 40
0
 41
0
  0
VERTEX
  8
0
 10
6.41596
 20
60.2681
 30
0.0
 40
0
 41
0
  0
VERTEX
  8
0
 10
6.45156
 20
60.1322
 30
0.0
 40
0
 41
0
  0
VERTEX
  8
0
 10
6.48986
 20
59.9969
 30
0.0
 40
0
 41
0
  0
VERTEX
  8
0
 10
6.53125
 20
59.8622
 30
0.0
 40
0
 41
0
  0
VERTEX
  8
0
 10
6.57557
 20
59.7282
 30
0.0
 40
0
 41
0
  0
VERTEX
  8
0
 10
6.62278
 20
59.595
 30
0.0
 40
0
 41
0
  0
VERTEX
  8
0
 10
6.67279
 20
59.4624
 30
0.0
 40
0
 41
0
  0
VERTEX
  8
0
 10
6.72586
 20
59.3307
 30
0.0
 40
0
 41
0
  0
VERTEX
  8
0
 10
6.78168
 20
59.1999
 30
0.0
 40
0
 41
0
  0
VERTEX
  8
0
 10
6.84044
 20
59.07
 30
0.0
 40
0
 41
0
  0
VERTEX
  8
0
 10
6.90196
 20
58.9413
 30
0.0
 40
0
 41
0
  0
VERTEX
  8
0
 10
6.96625
 20
58.8135
 30
0.0
 40
0
 41
0
  0
VERTEX
  8
0
 10
7.03347
 20
58.6868
 30
0.0
 40
0
 41
0
  0
VERTEX
  8
0
 10
7.10346
 20
58.5615
 30
0.0
 40
0
 41
0
  0
VERTEX
  8
0
 10
7.17626
 20
58.4374
 30
0.0
 40
0
 41
0
  0
VERTEX
  8
0
 10
7.25179
 20
58.3146
 30
0.0
 40
0
 41
0
  0
VERTEX
  8
0
 10
7.33003
 20
58.1932
 30
0.0
 40
0
 41
0
  0
VERTEX
  8
0
 10
7.41097
 20
58.0733
 30
0.0
 40
0
 41
0
  0
VERTEX
  8
0
 10
7.49457
 20
57.9549
 30
0.0
 40
0
 41
0
  0
VERTEX
  8
0
 10
7.58083
 20
57.8381
 30
0.0
 40
0
 41
0
  0
VERTEX
  8
0
 10
7.66971
 20
57.7229
 30
0.0
 40
0
 41
0
  0
VERTEX
  8
0
 10
7.76124
 20
57.6094
 30
0.0
 40
0
 41
0
  0
VERTEX
  8
0
 10
7.85525
 20
57.4976
 30
0.0
 40
0
 41
0
  0
VERTEX
  8
0
 10
7.95182
 20
57.3876
 30
0.0
 40
0
 41
0
  0
VERTEX
  8
0
 10
8.05083
 20
57.2796
 30
0.0
 40
0
 41
0
  0
VERTEX
  8
0
 10
8.15224
 20
57.1735
 30
0.0
 40
0
 41
0
  0
VERTEX
  8
0
 10
8.25612
 20
57.0693
 30
0.0
 40
0
 41
0
  0
VERTEX
  8
0
 10
8.36236
 20
56.9671
 30
0.0
 40
0
 41
0
  0
VERTEX
  8
0
 10
8.47097
 20
56.8671
 30
0.0
 40
0
 41
0
  0
VERTEX
  8
0
 10
8.58182
 20
56.769
 30
0.0
 40
0
 41
0
  0
VERTEX
  8
0
 10
8.69499
 20
56.6733
 30
0.0
 40
0
 41
0
  0
VERTEX
  8
0
 10
8.81028
 20
56.5799
 30
0.0
 40
0
 41
0
  0
VERTEX
  8
0
 10
8.92779
 20
56.4886
 30
0.0
 40
0
 41
0
  0
VERTEX
  8
0
 10
9.04753
 20
56.3997
 30
0.0
 40
0
 41
0
  0
VERTEX
  8
0
 10
9.16917
 20
56.3132
 30
0.0
 40
0
 41
0
  0
VERTEX
  8
0
 10
9.29292
 20
56.2292
 30
0.0
 40
0
 41
0
  0
VERTEX
  8
0
 10
9.41862
 20
56.1476
 30
0.0
 40
0
 41
0
  0
VERTEX
  8
0
 10
9.54611
 20
56.0686
 30
0.0
 40
0
 41
0
  0
VERTEX
  8
0
 10
9.67567
 20
55.9921
 30
0.0
 40
0
 41
0
  0
VERTEX
  8
0
 10
9.80697
 20
55.9182
 30
0.0
 40
0
 41
0
  0
VERTEX
  8
0
 10
9.94
 20
55.8471
 30
0.0
 40
0
 41
0
  0
VERTEX
  8
0
 10
10.0749
 20
55.7786
 30
0.0
 40
0
 41
0
  0
VERTEX
  8
0
 10
10.2114
 20
55.7129
 30
0.0
 40
0
 41
0
  0
VERTEX
  8
0
 10
10.3494
 20
55.6499
 30
0.0
 40
0
 41
0
  0
VERTEX
  8
0
 10
10.489
 20
55.5897
 30
0.0
 40
0
 41
0
  0
VERTEX
  8
0
 10
10.6302
 20
55.5325
 30
0.0
 40
0
 41
0
  0
VERTEX
  8
0
 10
10.7726
 20
55.4782
 30
0.0
 40
0
 41
0
  0
VERTEX
  8
0
 10
10.9165
 20
55.4267
 30
0.0
 40
0
 41
0
  0
VERTEX
  8
0
 10
11.0618
 20
55.3782
 30
0.0
 40
0
 41
0
  0
VERTEX
  8
0
 10
11.2082
 20
55.3328
 30
0.0
 40
0
 41
0
  0
VERTEX
  8
0
 10
11.356
 20
55.2903
 30
0.0
 40
0
 41
0
  0
VERTEX
  8
0
 10
11.5047
 20
55.2508
 30
0.0
 40
0
 41
0
  0
VERTEX
  8
0
 10
11.6546
 20
55.2146
 30
0.0
 40
0
 41
0
  0
VERTEX
  8
0
 10
11.8054
 20
55.1814
 30
0.0
 40
0
 41
0
  0
VERTEX
  8
0
 10
11.9573
 20
55.1512
 30
0.0
 40
0
 41
0
  0
VERTEX
  8
0
 10
12.1099
 20
55.1244
 30
0.0
 40
0
 41
0
  0
VERTEX
  8
0
 10
12.2632
 20
55.1007
 30
0.0
 40
0
 41
0
  0
VERTEX
  8
0
 10
12.4175
 20
55.0801
 30
0.0
 40
0
 41
0
  0
VERTEX
  8
0
 10
12.5724
 20
55.0629
 30
0.0
 40
0
 41
0
  0
VERTEX
  8
0
 10
12.7278
 20
55.0489
 30
0.0
 40
0
 41
0
  0
VERTEX
  8
0
 10
12.7
 20
54.7
 30
0.0
 40
0
 41
0
  0
SEQEND
 8
0
  0
ENDSEC
  0
EOF
